<?xml version="1.0" encoding="UTF-8" standalone="no"?>
<!DOCTYPE svg PUBLIC "-//W3C//DTD SVG 1.1//EN"
 "http://www.w3.org/Graphics/SVG/1.1/DTD/svg11.dtd">
<!-- Generated by graphviz version 2.43.0 (0)
 -->
<!-- Title: Model::finish Pages: 1 -->
<svg width="206pt" height="45pt"
 viewBox="0.00 0.00 206.00 45.00" xmlns="http://www.w3.org/2000/svg" xmlns:xlink="http://www.w3.org/1999/xlink">
<g id="graph0" class="graph" transform="scale(1 1) rotate(0) translate(4 41)">
<title>Model::finish</title>
<!-- Node1 -->
<g id="Node000001" class="node">
<title>Node1</title>
<g id="a_Node000001"><a xlink:title=" ">
<polygon fill="#999999" stroke="#666666" points="79,-19 0,-19 0,0 79,0 79,-19"/>
<text text-anchor="middle" x="39.5" y="-7" font-family="Helvetica,sans-Serif" font-size="10.00">Model::finish</text>
</a>
</g>
</g>
<!-- Node2 -->
<g id="Node000002" class="node">
<title>Node2</title>
<g id="a_Node000002"><a xlink:href="classModel.html#ae3b375de5f6df4faf74a95d64748e048" target="_top" xlink:title="Constructs a new, empty Smithy model.">
<polygon fill="white" stroke="#666666" points="198,-19 115,-19 115,0 198,0 198,-19"/>
<text text-anchor="middle" x="156.5" y="-7" font-family="Helvetica,sans-Serif" font-size="10.00">Model::Model</text>
</a>
</g>
</g>
<!-- Node1&#45;&gt;Node2 -->
<g id="edge1_Node000001_Node000002" class="edge">
<title>Node1&#45;&gt;Node2</title>
<g id="a_edge1_Node000001_Node000002"><a xlink:title=" ">
<path fill="none" stroke="#63b8ff" d="M79.11,-9.5C88,-9.5 97.55,-9.5 106.8,-9.5"/>
<polygon fill="#63b8ff" stroke="#63b8ff" points="114.82,-9.5 106.82,-13.1 110.82,-9.5 106.82,-9.5 106.82,-9.5 106.82,-9.5 110.82,-9.5 106.82,-5.9 114.82,-9.5 114.82,-9.5"/>
</a>
</g>
</g>
<!-- Node2&#45;&gt;Node2 -->
<g id="edge2_Node000002_Node000002" class="edge">
<title>Node2&#45;&gt;Node2</title>
<g id="a_edge2_Node000002_Node000002"><a xlink:title=" ">
<path fill="none" stroke="#63b8ff" d="M138.62,-19.08C129.92,-27.73 135.88,-37 156.5,-37 171.32,-37 178.57,-32.21 178.24,-26.31"/>
<polygon fill="#63b8ff" stroke="#63b8ff" points="174.38,-19.08 181.32,-24.44 176.26,-22.61 178.15,-26.14 178.15,-26.14 178.15,-26.14 176.26,-22.61 174.97,-27.84 174.38,-19.08 174.38,-19.08"/>
</a>
</g>
</g>
</g>
</svg>
