<?xml version="1.0" encoding="UTF-8" standalone="no"?>
<!DOCTYPE svg PUBLIC "-//W3C//DTD SVG 1.1//EN"
 "http://www.w3.org/Graphics/SVG/1.1/DTD/svg11.dtd">
<!-- Generated by graphviz version 2.43.0 (0)
 -->
<!-- Title: ShapeId::absoluteShapeId Pages: 1 -->
<svg width="678pt" height="168pt"
 viewBox="0.00 0.00 678.00 168.00" xmlns="http://www.w3.org/2000/svg" xmlns:xlink="http://www.w3.org/1999/xlink">
<g id="graph0" class="graph" transform="scale(1 1) rotate(0) translate(4 164)">
<title>ShapeId::absoluteShapeId</title>
<!-- Node1 -->
<g id="node1" class="node">
<title>Node1</title>
<g id="a_node1"><a xlink:title="Returns this object as an absolute Smithy Shape ID if this object has a namespace,...">
<polygon fill="#999999" stroke="#666666" points="143,-122 0,-122 0,-103 143,-103 143,-122"/>
<text text-anchor="middle" x="71.5" y="-110" font-family="Helvetica,sans-Serif" font-size="10.00">ShapeId::absoluteShapeId</text>
</a>
</g>
</g>
<!-- Node2 -->
<g id="node2" class="node">
<title>Node2</title>
<g id="a_node2"><a xlink:href="classShapeId.html#ad0bbf397b25b50a3fc9c145cea67ce11" target="_top" xlink:title="Returns true if this Shape ID has a non&#45;empty namespace, otherwise false otherwise.">
<polygon fill="white" stroke="#666666" points="316.5,-160 179.5,-160 179.5,-141 316.5,-141 316.5,-160"/>
<text text-anchor="middle" x="248" y="-148" font-family="Helvetica,sans-Serif" font-size="10.00">ShapeId::hasNameSpace</text>
</a>
</g>
</g>
<!-- Node1&#45;&gt;Node2 -->
<g id="edge1" class="edge">
<title>Node1&#45;&gt;Node2</title>
<path fill="none" stroke="#63b8ff" d="M116.53,-122.09C140.49,-127.31 170.27,-133.79 195.33,-139.25"/>
<polygon fill="#63b8ff" stroke="#63b8ff" points="203.28,-140.98 194.7,-142.8 199.37,-140.13 195.47,-139.28 195.47,-139.28 195.47,-139.28 199.37,-140.13 196.23,-135.76 203.28,-140.98 203.28,-140.98"/>
</g>
<!-- Node4 -->
<g id="node4" class="node">
<title>Node4</title>
<g id="a_node4"><a xlink:href="classShapeId.html#a0d88184bccd8dc5b22b67800aeccf092" target="_top" xlink:title="Returns the Shape ID&#39;s namespace, if it has one, otherwise a null string.">
<polygon fill="white" stroke="#666666" points="487,-132 368,-132 368,-113 487,-113 487,-132"/>
<text text-anchor="middle" x="427.5" y="-120" font-family="Helvetica,sans-Serif" font-size="10.00">ShapeId::nameSpace</text>
</a>
</g>
</g>
<!-- Node1&#45;&gt;Node4 -->
<g id="edge4" class="edge">
<title>Node1&#45;&gt;Node4</title>
<path fill="none" stroke="#63b8ff" d="M143.29,-114.5C206.33,-116.28 297.91,-118.87 359.71,-120.61"/>
<polygon fill="#63b8ff" stroke="#63b8ff" points="367.85,-120.84 359.75,-124.22 363.85,-120.73 359.86,-120.62 359.86,-120.62 359.86,-120.62 363.85,-120.73 359.96,-117.02 367.85,-120.84 367.85,-120.84"/>
</g>
<!-- Node5 -->
<g id="node5" class="node">
<title>Node5</title>
<g id="a_node5"><a xlink:href="classShapeId.html#aad508460b545930c3aeb82021e79de5a" target="_top" xlink:title="Returns this object as a relative Smithy Shape ID, that one without a leading namespace.">
<polygon fill="white" stroke="#666666" points="317,-75 179,-75 179,-56 317,-56 317,-75"/>
<text text-anchor="middle" x="248" y="-63" font-family="Helvetica,sans-Serif" font-size="10.00">ShapeId::relativeShapeId</text>
</a>
</g>
</g>
<!-- Node1&#45;&gt;Node5 -->
<g id="edge5" class="edge">
<title>Node1&#45;&gt;Node5</title>
<path fill="none" stroke="#63b8ff" d="M107.81,-102.99C135.39,-95.56 173.86,-85.2 203.37,-77.25"/>
<polygon fill="#63b8ff" stroke="#63b8ff" points="211.44,-75.08 204.65,-80.63 207.58,-76.12 203.72,-77.16 203.72,-77.16 203.72,-77.16 207.58,-76.12 202.78,-73.68 211.44,-75.08 211.44,-75.08"/>
</g>
<!-- Node3 -->
<g id="node3" class="node">
<title>Node3</title>
<g id="a_node3"><a target="_parent" xlink:href="https://doc.qt.io/qt-5/qstring.html#isEmpty" xlink:title=" ">
<polygon fill="white" stroke="#666666" points="653,-113 555,-113 555,-94 653,-94 653,-113"/>
<text text-anchor="middle" x="604" y="-101" font-family="Helvetica,sans-Serif" font-size="10.00">QString::isEmpty</text>
</a>
</g>
</g>
<!-- Node2&#45;&gt;Node3 -->
<g id="edge2" class="edge">
<title>Node2&#45;&gt;Node3</title>
<path fill="none" stroke="#63b8ff" d="M316.54,-153.98C367.9,-155.22 440.05,-153.91 502,-141.5 527.95,-136.3 556.01,-125.27 575.95,-116.43"/>
<polygon fill="#63b8ff" stroke="#63b8ff" points="583.44,-113.04 577.64,-119.62 579.8,-114.69 576.15,-116.34 576.15,-116.34 576.15,-116.34 579.8,-114.69 574.67,-113.06 583.44,-113.04 583.44,-113.04"/>
</g>
<!-- Node2&#45;&gt;Node4 -->
<g id="edge3" class="edge">
<title>Node2&#45;&gt;Node4</title>
<path fill="none" stroke="#63b8ff" d="M309.59,-140.94C325.81,-138.38 343.44,-135.6 359.97,-132.99"/>
<polygon fill="#63b8ff" stroke="#63b8ff" points="367.98,-131.73 360.64,-136.53 364.03,-132.35 360.08,-132.98 360.08,-132.98 360.08,-132.98 364.03,-132.35 359.52,-129.42 367.98,-131.73 367.98,-131.73"/>
</g>
<!-- Node6 -->
<g id="node6" class="node">
<title>Node6</title>
<g id="a_node6"><a xlink:href="classShapeId.html#a6f1fc0aab99d0108fc3f1eeb5a4d2687" target="_top" xlink:title="Returns true if this Shape ID has a non&#45;empty member name, otherwise false otherwise.">
<polygon fill="white" stroke="#666666" points="502,-95 353,-95 353,-76 502,-76 502,-95"/>
<text text-anchor="middle" x="427.5" y="-83" font-family="Helvetica,sans-Serif" font-size="10.00">ShapeId::hasMemberName</text>
</a>
</g>
</g>
<!-- Node5&#45;&gt;Node6 -->
<g id="edge6" class="edge">
<title>Node5&#45;&gt;Node6</title>
<path fill="none" stroke="#63b8ff" d="M317.12,-73.18C326.19,-74.2 335.57,-75.25 344.85,-76.3"/>
<polygon fill="#63b8ff" stroke="#63b8ff" points="352.96,-77.21 344.61,-79.9 348.98,-76.77 345.01,-76.32 345.01,-76.32 345.01,-76.32 348.98,-76.77 345.41,-72.74 352.96,-77.21 352.96,-77.21"/>
</g>
<!-- Node7 -->
<g id="node7" class="node">
<title>Node7</title>
<g id="a_node7"><a xlink:href="classShapeId.html#a9b1580e3aa193c99d000aa084def3a70" target="_top" xlink:title="Returns the Shape ID&#39;s member name, if it has one, otherwise a null string.">
<polygon fill="white" stroke="#666666" points="670,-76 538,-76 538,-57 670,-57 670,-76"/>
<text text-anchor="middle" x="604" y="-64" font-family="Helvetica,sans-Serif" font-size="10.00">ShapeId::memberName</text>
</a>
</g>
</g>
<!-- Node5&#45;&gt;Node7 -->
<g id="edge9" class="edge">
<title>Node5&#45;&gt;Node7</title>
<path fill="none" stroke="#63b8ff" d="M317.25,-65.69C378.21,-65.86 467.25,-66.12 529.7,-66.29"/>
<polygon fill="#63b8ff" stroke="#63b8ff" points="537.94,-66.32 529.93,-69.89 533.94,-66.3 529.94,-66.29 529.94,-66.29 529.94,-66.29 533.94,-66.3 529.95,-62.69 537.94,-66.32 537.94,-66.32"/>
</g>
<!-- Node8 -->
<g id="node8" class="node">
<title>Node8</title>
<g id="a_node8"><a xlink:href="classShapeId.html#a8aad9a1383c03aee2f33b1568e89f688" target="_top" xlink:title="Returns the Shape ID&#39;s shape name, if it has one, otherwise a null string.">
<polygon fill="white" stroke="#666666" points="487.5,-19 367.5,-19 367.5,0 487.5,0 487.5,-19"/>
<text text-anchor="middle" x="427.5" y="-7" font-family="Helvetica,sans-Serif" font-size="10.00">ShapeId::shapeName</text>
</a>
</g>
</g>
<!-- Node5&#45;&gt;Node8 -->
<g id="edge10" class="edge">
<title>Node5&#45;&gt;Node8</title>
<path fill="none" stroke="#63b8ff" d="M279.51,-55.87C309.67,-46.36 355.88,-31.78 388.42,-21.51"/>
<polygon fill="#63b8ff" stroke="#63b8ff" points="396.38,-19 389.84,-24.84 392.57,-20.2 388.76,-21.41 388.76,-21.41 388.76,-21.41 392.57,-20.2 387.67,-17.97 396.38,-19 396.38,-19"/>
</g>
<!-- Node6&#45;&gt;Node3 -->
<g id="edge7" class="edge">
<title>Node6&#45;&gt;Node3</title>
<path fill="none" stroke="#63b8ff" d="M502.25,-93.11C517.1,-94.64 532.49,-96.23 546.63,-97.69"/>
<polygon fill="#63b8ff" stroke="#63b8ff" points="554.8,-98.53 546.48,-101.29 550.82,-98.12 546.84,-97.71 546.84,-97.71 546.84,-97.71 550.82,-98.12 547.21,-94.13 554.8,-98.53 554.8,-98.53"/>
</g>
<!-- Node6&#45;&gt;Node7 -->
<g id="edge8" class="edge">
<title>Node6&#45;&gt;Node7</title>
<path fill="none" stroke="#63b8ff" d="M502.25,-77.47C511.39,-76.47 520.73,-75.46 529.85,-74.46"/>
<polygon fill="#63b8ff" stroke="#63b8ff" points="537.81,-73.6 530.25,-78.04 533.83,-74.03 529.86,-74.46 529.86,-74.46 529.86,-74.46 533.83,-74.03 529.47,-70.89 537.81,-73.6 537.81,-73.6"/>
</g>
</g>
</svg>
