<?xml version="1.0" encoding="UTF-8" standalone="no"?>
<!DOCTYPE svg PUBLIC "-//W3C//DTD SVG 1.1//EN"
 "http://www.w3.org/Graphics/SVG/1.1/DTD/svg11.dtd">
<!-- Generated by graphviz version 2.43.0 (0)
 -->
<!-- Title: ShapeId::isAbsoluteRootShapeId Pages: 1 -->
<svg width="708pt" height="83pt"
 viewBox="0.00 0.00 708.00 83.00" xmlns="http://www.w3.org/2000/svg" xmlns:xlink="http://www.w3.org/1999/xlink">
<g id="graph0" class="graph" transform="scale(1 1) rotate(0) translate(4 79)">
<title>ShapeId::isAbsoluteRootShapeId</title>
<!-- Node1 -->
<g id="node1" class="node">
<title>Node1</title>
<g id="a_node1"><a xlink:title="Returns true if this Shape ID is a root Shape ID, and has a namespace, false otherwise.">
<polygon fill="#999999" stroke="#666666" points="174,-37 0,-37 0,-18 174,-18 174,-37"/>
<text text-anchor="middle" x="87" y="-25" font-family="Helvetica,sans-Serif" font-size="10.00">ShapeId::isAbsoluteRootShapeId</text>
</a>
</g>
</g>
<!-- Node2 -->
<g id="node2" class="node">
<title>Node2</title>
<g id="a_node2"><a xlink:href="classShapeId.html#ad0bbf397b25b50a3fc9c145cea67ce11" target="_top" xlink:title="Returns true if this Shape ID has a non&#45;empty namespace, otherwise false otherwise.">
<polygon fill="white" stroke="#666666" points="347,-56 210,-56 210,-37 347,-37 347,-56"/>
<text text-anchor="middle" x="278.5" y="-44" font-family="Helvetica,sans-Serif" font-size="10.00">ShapeId::hasNameSpace</text>
</a>
</g>
</g>
<!-- Node1&#45;&gt;Node2 -->
<g id="edge1" class="edge">
<title>Node1&#45;&gt;Node2</title>
<path fill="none" stroke="#63b8ff" d="M174.16,-36.14C183.29,-37.05 192.53,-37.98 201.53,-38.88"/>
<polygon fill="#63b8ff" stroke="#63b8ff" points="209.72,-39.7 201.41,-42.49 205.74,-39.31 201.76,-38.91 201.76,-38.91 201.76,-38.91 205.74,-39.31 202.12,-35.32 209.72,-39.7 209.72,-39.7"/>
</g>
<!-- Node5 -->
<g id="node5" class="node">
<title>Node5</title>
<g id="a_node5"><a xlink:href="classShapeId.html#a6b207fdb20ccc922e4e2bbbfb9608bbc" target="_top" xlink:title="Returns true if this Shape ID is a root Shape ID, false otherwise.">
<polygon fill="white" stroke="#666666" points="344,-19 213,-19 213,0 344,0 344,-19"/>
<text text-anchor="middle" x="278.5" y="-7" font-family="Helvetica,sans-Serif" font-size="10.00">ShapeId::isRootShapeId</text>
</a>
</g>
</g>
<!-- Node1&#45;&gt;Node5 -->
<g id="edge4" class="edge">
<title>Node1&#45;&gt;Node5</title>
<path fill="none" stroke="#63b8ff" d="M174.16,-19.32C184.42,-18.34 194.81,-17.35 204.86,-16.4"/>
<polygon fill="#63b8ff" stroke="#63b8ff" points="212.83,-15.64 205.21,-19.98 208.85,-16.02 204.86,-16.4 204.86,-16.4 204.86,-16.4 208.85,-16.02 204.52,-12.82 212.83,-15.64 212.83,-15.64"/>
</g>
<!-- Node3 -->
<g id="node3" class="node">
<title>Node3</title>
<g id="a_node3"><a target="_parent" xlink:href="https://doc.qt.io/qt-5/qstring.html#isEmpty" xlink:title=" ">
<polygon fill="white" stroke="#666666" points="683,-75 585,-75 585,-56 683,-56 683,-75"/>
<text text-anchor="middle" x="634" y="-63" font-family="Helvetica,sans-Serif" font-size="10.00">QString::isEmpty</text>
</a>
</g>
</g>
<!-- Node2&#45;&gt;Node3 -->
<g id="edge2" class="edge">
<title>Node2&#45;&gt;Node3</title>
<path fill="none" stroke="#63b8ff" d="M321.56,-56.01C340.27,-59.78 362.62,-63.65 383,-65.5 449.33,-71.54 525.97,-70.34 576.73,-68.41"/>
<polygon fill="#63b8ff" stroke="#63b8ff" points="584.96,-68.08 577.11,-71.99 580.96,-68.24 576.96,-68.4 576.96,-68.4 576.96,-68.4 580.96,-68.24 576.82,-64.8 584.96,-68.08 584.96,-68.08"/>
</g>
<!-- Node4 -->
<g id="node4" class="node">
<title>Node4</title>
<g id="a_node4"><a xlink:href="classShapeId.html#a0d88184bccd8dc5b22b67800aeccf092" target="_top" xlink:title="Returns the Shape ID&#39;s namespace, if it has one, otherwise a null string.">
<polygon fill="white" stroke="#666666" points="517,-56 398,-56 398,-37 517,-37 517,-56"/>
<text text-anchor="middle" x="457.5" y="-44" font-family="Helvetica,sans-Serif" font-size="10.00">ShapeId::nameSpace</text>
</a>
</g>
</g>
<!-- Node2&#45;&gt;Node4 -->
<g id="edge3" class="edge">
<title>Node2&#45;&gt;Node4</title>
<path fill="none" stroke="#63b8ff" d="M347.17,-46.5C361.12,-46.5 375.81,-46.5 389.73,-46.5"/>
<polygon fill="#63b8ff" stroke="#63b8ff" points="397.82,-46.5 389.82,-50.1 393.82,-46.5 389.82,-46.5 389.82,-46.5 389.82,-46.5 393.82,-46.5 389.82,-42.9 397.82,-46.5 397.82,-46.5"/>
</g>
<!-- Node6 -->
<g id="node6" class="node">
<title>Node6</title>
<g id="a_node6"><a xlink:href="classShapeId.html#a6f1fc0aab99d0108fc3f1eeb5a4d2687" target="_top" xlink:title="Returns true if this Shape ID has a non&#45;empty member name, otherwise false otherwise.">
<polygon fill="white" stroke="#666666" points="532,-19 383,-19 383,0 532,0 532,-19"/>
<text text-anchor="middle" x="457.5" y="-7" font-family="Helvetica,sans-Serif" font-size="10.00">ShapeId::hasMemberName</text>
</a>
</g>
</g>
<!-- Node5&#45;&gt;Node6 -->
<g id="edge5" class="edge">
<title>Node5&#45;&gt;Node6</title>
<path fill="none" stroke="#63b8ff" d="M344.15,-9.5C354.05,-9.5 364.37,-9.5 374.58,-9.5"/>
<polygon fill="#63b8ff" stroke="#63b8ff" points="382.74,-9.5 374.74,-13.1 378.74,-9.5 374.74,-9.5 374.74,-9.5 374.74,-9.5 378.74,-9.5 374.74,-5.9 382.74,-9.5 382.74,-9.5"/>
</g>
<!-- Node6&#45;&gt;Node3 -->
<g id="edge6" class="edge">
<title>Node6&#45;&gt;Node3</title>
<path fill="none" stroke="#63b8ff" d="M501.1,-19.02C511.29,-21.54 522.08,-24.43 532,-27.5 556.02,-34.93 582.61,-45.01 602.47,-52.92"/>
<polygon fill="#63b8ff" stroke="#63b8ff" points="610.01,-55.95 601.24,-56.31 606.29,-54.46 602.58,-52.97 602.58,-52.97 602.58,-52.97 606.29,-54.46 603.92,-49.63 610.01,-55.95 610.01,-55.95"/>
</g>
<!-- Node7 -->
<g id="node7" class="node">
<title>Node7</title>
<g id="a_node7"><a xlink:href="classShapeId.html#a9b1580e3aa193c99d000aa084def3a70" target="_top" xlink:title="Returns the Shape ID&#39;s member name, if it has one, otherwise a null string.">
<polygon fill="white" stroke="#666666" points="700,-19 568,-19 568,0 700,0 700,-19"/>
<text text-anchor="middle" x="634" y="-7" font-family="Helvetica,sans-Serif" font-size="10.00">ShapeId::memberName</text>
</a>
</g>
</g>
<!-- Node6&#45;&gt;Node7 -->
<g id="edge7" class="edge">
<title>Node6&#45;&gt;Node7</title>
<path fill="none" stroke="#63b8ff" d="M532.25,-9.5C541.3,-9.5 550.54,-9.5 559.58,-9.5"/>
<polygon fill="#63b8ff" stroke="#63b8ff" points="567.81,-9.5 559.81,-13.1 563.81,-9.5 559.81,-9.5 559.81,-9.5 559.81,-9.5 563.81,-9.5 559.81,-5.9 567.81,-9.5 567.81,-9.5"/>
</g>
</g>
</svg>
