<?xml version="1.0" encoding="UTF-8" standalone="no"?>
<!DOCTYPE svg PUBLIC "-//W3C//DTD SVG 1.1//EN"
 "http://www.w3.org/Graphics/SVG/1.1/DTD/svg11.dtd">
<!-- Generated by graphviz version 2.43.0 (0)
 -->
<!-- Title: ShapeId::toString Pages: 1 -->
<svg width="814pt" height="159pt"
 viewBox="0.00 0.00 814.00 159.00" xmlns="http://www.w3.org/2000/svg" xmlns:xlink="http://www.w3.org/1999/xlink">
<g id="graph0" class="graph" transform="scale(1 1) rotate(0) translate(4 155)">
<title>ShapeId::toString</title>
<!-- Node1 -->
<g id="node1" class="node">
<title>Node1</title>
<g id="a_node1"><a xlink:title="Returns this object as an absolute Smithy Shape ID if this object has a namespace,...">
<polygon fill="#999999" stroke="#666666" points="100,-113 0,-113 0,-94 100,-94 100,-113"/>
<text text-anchor="middle" x="50" y="-101" font-family="Helvetica,sans-Serif" font-size="10.00">ShapeId::toString</text>
</a>
</g>
</g>
<!-- Node2 -->
<g id="node2" class="node">
<title>Node2</title>
<g id="a_node2"><a xlink:href="classShapeId.html#a42ae1231e4d242958ab12e61504e33ca" target="_top" xlink:title="Returns this object as an absolute Smithy Shape ID if this object has a namespace,...">
<polygon fill="white" stroke="#666666" points="279,-113 136,-113 136,-94 279,-94 279,-113"/>
<text text-anchor="middle" x="207.5" y="-101" font-family="Helvetica,sans-Serif" font-size="10.00">ShapeId::absoluteShapeId</text>
</a>
</g>
</g>
<!-- Node1&#45;&gt;Node2 -->
<g id="edge1" class="edge">
<title>Node1&#45;&gt;Node2</title>
<path fill="none" stroke="#63b8ff" d="M100.2,-103.5C108.94,-103.5 118.24,-103.5 127.56,-103.5"/>
<polygon fill="#63b8ff" stroke="#63b8ff" points="135.75,-103.5 127.75,-107.1 131.75,-103.5 127.75,-103.5 127.75,-103.5 127.75,-103.5 131.75,-103.5 127.75,-99.9 135.75,-103.5 135.75,-103.5"/>
</g>
<!-- Node3 -->
<g id="node3" class="node">
<title>Node3</title>
<g id="a_node3"><a xlink:href="classShapeId.html#ad0bbf397b25b50a3fc9c145cea67ce11" target="_top" xlink:title="Returns true if this Shape ID has a non&#45;empty namespace, otherwise false otherwise.">
<polygon fill="white" stroke="#666666" points="452.5,-151 315.5,-151 315.5,-132 452.5,-132 452.5,-151"/>
<text text-anchor="middle" x="384" y="-139" font-family="Helvetica,sans-Serif" font-size="10.00">ShapeId::hasNameSpace</text>
</a>
</g>
</g>
<!-- Node1&#45;&gt;Node3 -->
<g id="edge12" class="edge">
<title>Node1&#45;&gt;Node3</title>
<path fill="none" stroke="#63b8ff" d="M88.44,-113.08C103.18,-116.54 120.3,-120.15 136,-122.5 193.12,-131.04 258.27,-135.84 307.31,-138.49"/>
<polygon fill="#63b8ff" stroke="#63b8ff" points="315.35,-138.91 307.17,-142.08 311.36,-138.7 307.36,-138.49 307.36,-138.49 307.36,-138.49 311.36,-138.7 307.55,-134.89 315.35,-138.91 315.35,-138.91"/>
</g>
<!-- Node6 -->
<g id="node6" class="node">
<title>Node6</title>
<g id="a_node6"><a xlink:href="classShapeId.html#aad508460b545930c3aeb82021e79de5a" target="_top" xlink:title="Returns this object as a relative Smithy Shape ID, that one without a leading namespace.">
<polygon fill="white" stroke="#666666" points="453,-75 315,-75 315,-56 453,-56 453,-75"/>
<text text-anchor="middle" x="384" y="-63" font-family="Helvetica,sans-Serif" font-size="10.00">ShapeId::relativeShapeId</text>
</a>
</g>
</g>
<!-- Node1&#45;&gt;Node6 -->
<g id="edge13" class="edge">
<title>Node1&#45;&gt;Node6</title>
<path fill="none" stroke="#63b8ff" d="M88.44,-93.92C103.18,-90.46 120.3,-86.85 136,-84.5 192.91,-75.99 257.81,-71.19 306.79,-68.54"/>
<polygon fill="#63b8ff" stroke="#63b8ff" points="314.82,-68.12 307.02,-72.13 310.83,-68.33 306.83,-68.54 306.83,-68.54 306.83,-68.54 310.83,-68.33 306.65,-64.94 314.82,-68.12 314.82,-68.12"/>
</g>
<!-- Node2&#45;&gt;Node3 -->
<g id="edge2" class="edge">
<title>Node2&#45;&gt;Node3</title>
<path fill="none" stroke="#63b8ff" d="M252.53,-113.09C276.49,-118.31 306.27,-124.79 331.33,-130.25"/>
<polygon fill="#63b8ff" stroke="#63b8ff" points="339.28,-131.98 330.7,-133.8 335.37,-131.13 331.47,-130.28 331.47,-130.28 331.47,-130.28 335.37,-131.13 332.23,-126.76 339.28,-131.98 339.28,-131.98"/>
</g>
<!-- Node5 -->
<g id="node5" class="node">
<title>Node5</title>
<g id="a_node5"><a xlink:href="classShapeId.html#a0d88184bccd8dc5b22b67800aeccf092" target="_top" xlink:title="Returns the Shape ID&#39;s namespace, if it has one, otherwise a null string.">
<polygon fill="white" stroke="#666666" points="623,-132 504,-132 504,-113 623,-113 623,-132"/>
<text text-anchor="middle" x="563.5" y="-120" font-family="Helvetica,sans-Serif" font-size="10.00">ShapeId::nameSpace</text>
</a>
</g>
</g>
<!-- Node2&#45;&gt;Node5 -->
<g id="edge5" class="edge">
<title>Node2&#45;&gt;Node5</title>
<path fill="none" stroke="#63b8ff" d="M279.29,-107.3C342.33,-110.68 433.91,-115.6 495.71,-118.92"/>
<polygon fill="#63b8ff" stroke="#63b8ff" points="503.85,-119.35 495.67,-122.52 499.86,-119.14 495.86,-118.92 495.86,-118.92 495.86,-118.92 499.86,-119.14 496.06,-115.33 503.85,-119.35 503.85,-119.35"/>
</g>
<!-- Node2&#45;&gt;Node6 -->
<g id="edge6" class="edge">
<title>Node2&#45;&gt;Node6</title>
<path fill="none" stroke="#63b8ff" d="M252.53,-93.91C276.49,-88.69 306.27,-82.21 331.33,-76.75"/>
<polygon fill="#63b8ff" stroke="#63b8ff" points="339.28,-75.02 332.23,-80.24 335.37,-75.87 331.47,-76.72 331.47,-76.72 331.47,-76.72 335.37,-75.87 330.7,-73.2 339.28,-75.02 339.28,-75.02"/>
</g>
<!-- Node4 -->
<g id="node4" class="node">
<title>Node4</title>
<g id="a_node4"><a target="_parent" xlink:href="https://doc.qt.io/qt-5/qstring.html#isEmpty" xlink:title=" ">
<polygon fill="white" stroke="#666666" points="789,-113 691,-113 691,-94 789,-94 789,-113"/>
<text text-anchor="middle" x="740" y="-101" font-family="Helvetica,sans-Serif" font-size="10.00">QString::isEmpty</text>
</a>
</g>
</g>
<!-- Node3&#45;&gt;Node4 -->
<g id="edge3" class="edge">
<title>Node3&#45;&gt;Node4</title>
<path fill="none" stroke="#63b8ff" d="M452.71,-148.04C504,-151.41 575.99,-152.78 638,-141.5 664.2,-136.73 692.44,-125.55 712.38,-116.54"/>
<polygon fill="#63b8ff" stroke="#63b8ff" points="719.86,-113.09 714.1,-119.71 716.23,-114.76 712.59,-116.44 712.59,-116.44 712.59,-116.44 716.23,-114.76 711.08,-113.17 719.86,-113.09 719.86,-113.09"/>
</g>
<!-- Node3&#45;&gt;Node5 -->
<g id="edge4" class="edge">
<title>Node3&#45;&gt;Node5</title>
<path fill="none" stroke="#63b8ff" d="M452.61,-134.26C466.7,-132.75 481.54,-131.17 495.6,-129.66"/>
<polygon fill="#63b8ff" stroke="#63b8ff" points="503.78,-128.79 496.2,-133.22 499.8,-129.21 495.82,-129.64 495.82,-129.64 495.82,-129.64 499.8,-129.21 495.44,-126.06 503.78,-128.79 503.78,-128.79"/>
</g>
<!-- Node7 -->
<g id="node7" class="node">
<title>Node7</title>
<g id="a_node7"><a xlink:href="classShapeId.html#a6f1fc0aab99d0108fc3f1eeb5a4d2687" target="_top" xlink:title="Returns true if this Shape ID has a non&#45;empty member name, otherwise false otherwise.">
<polygon fill="white" stroke="#666666" points="638,-95 489,-95 489,-76 638,-76 638,-95"/>
<text text-anchor="middle" x="563.5" y="-83" font-family="Helvetica,sans-Serif" font-size="10.00">ShapeId::hasMemberName</text>
</a>
</g>
</g>
<!-- Node6&#45;&gt;Node7 -->
<g id="edge7" class="edge">
<title>Node6&#45;&gt;Node7</title>
<path fill="none" stroke="#63b8ff" d="M453.12,-73.18C462.19,-74.2 471.57,-75.25 480.85,-76.3"/>
<polygon fill="#63b8ff" stroke="#63b8ff" points="488.96,-77.21 480.61,-79.9 484.98,-76.77 481.01,-76.32 481.01,-76.32 481.01,-76.32 484.98,-76.77 481.41,-72.74 488.96,-77.21 488.96,-77.21"/>
</g>
<!-- Node8 -->
<g id="node8" class="node">
<title>Node8</title>
<g id="a_node8"><a xlink:href="classShapeId.html#a9b1580e3aa193c99d000aa084def3a70" target="_top" xlink:title="Returns the Shape ID&#39;s member name, if it has one, otherwise a null string.">
<polygon fill="white" stroke="#666666" points="806,-76 674,-76 674,-57 806,-57 806,-76"/>
<text text-anchor="middle" x="740" y="-64" font-family="Helvetica,sans-Serif" font-size="10.00">ShapeId::memberName</text>
</a>
</g>
</g>
<!-- Node6&#45;&gt;Node8 -->
<g id="edge10" class="edge">
<title>Node6&#45;&gt;Node8</title>
<path fill="none" stroke="#63b8ff" d="M453.25,-65.69C514.21,-65.86 603.25,-66.12 665.7,-66.29"/>
<polygon fill="#63b8ff" stroke="#63b8ff" points="673.94,-66.32 665.93,-69.89 669.94,-66.3 665.94,-66.29 665.94,-66.29 665.94,-66.29 669.94,-66.3 665.95,-62.69 673.94,-66.32 673.94,-66.32"/>
</g>
<!-- Node9 -->
<g id="node9" class="node">
<title>Node9</title>
<g id="a_node9"><a xlink:href="classShapeId.html#a8aad9a1383c03aee2f33b1568e89f688" target="_top" xlink:title="Returns the Shape ID&#39;s shape name, if it has one, otherwise a null string.">
<polygon fill="white" stroke="#666666" points="623.5,-19 503.5,-19 503.5,0 623.5,0 623.5,-19"/>
<text text-anchor="middle" x="563.5" y="-7" font-family="Helvetica,sans-Serif" font-size="10.00">ShapeId::shapeName</text>
</a>
</g>
</g>
<!-- Node6&#45;&gt;Node9 -->
<g id="edge11" class="edge">
<title>Node6&#45;&gt;Node9</title>
<path fill="none" stroke="#63b8ff" d="M415.51,-55.87C445.67,-46.36 491.88,-31.78 524.42,-21.51"/>
<polygon fill="#63b8ff" stroke="#63b8ff" points="532.38,-19 525.84,-24.84 528.57,-20.2 524.76,-21.41 524.76,-21.41 524.76,-21.41 528.57,-20.2 523.67,-17.97 532.38,-19 532.38,-19"/>
</g>
<!-- Node7&#45;&gt;Node4 -->
<g id="edge8" class="edge">
<title>Node7&#45;&gt;Node4</title>
<path fill="none" stroke="#63b8ff" d="M638.25,-93.11C653.1,-94.64 668.49,-96.23 682.63,-97.69"/>
<polygon fill="#63b8ff" stroke="#63b8ff" points="690.8,-98.53 682.48,-101.29 686.82,-98.12 682.84,-97.71 682.84,-97.71 682.84,-97.71 686.82,-98.12 683.21,-94.13 690.8,-98.53 690.8,-98.53"/>
</g>
<!-- Node7&#45;&gt;Node8 -->
<g id="edge9" class="edge">
<title>Node7&#45;&gt;Node8</title>
<path fill="none" stroke="#63b8ff" d="M638.25,-77.47C647.39,-76.47 656.73,-75.46 665.85,-74.46"/>
<polygon fill="#63b8ff" stroke="#63b8ff" points="673.81,-73.6 666.25,-78.04 669.83,-74.03 665.86,-74.46 665.86,-74.46 665.86,-74.46 669.83,-74.03 665.47,-70.89 673.81,-73.6 673.81,-73.6"/>
</g>
</g>
</svg>
