<?xml version="1.0" encoding="UTF-8" standalone="no"?>
<!DOCTYPE svg PUBLIC "-//W3C//DTD SVG 1.1//EN"
 "http://www.w3.org/Graphics/SVG/1.1/DTD/svg11.dtd">
<!-- Generated by graphviz version 2.43.0 (0)
 -->
<!-- Title: ShapeId::isValid Pages: 1 -->
<svg width="283pt" height="134pt"
 viewBox="0.00 0.00 283.00 134.00" xmlns="http://www.w3.org/2000/svg" xmlns:xlink="http://www.w3.org/1999/xlink">
<g id="graph0" class="graph" transform="scale(1 1) rotate(0) translate(4 130)">
<title>ShapeId::isValid</title>
<!-- Node1 -->
<g id="node1" class="node">
<title>Node1</title>
<g id="a_node1"><a xlink:title="Returns true if this object represents a valid, non&#45;empty Smithy Shape ID.">
<polygon fill="#999999" stroke="#666666" points="94,-72.5 0,-72.5 0,-53.5 94,-53.5 94,-72.5"/>
<text text-anchor="middle" x="47" y="-60.5" font-family="Helvetica,sans-Serif" font-size="10.00">ShapeId::isValid</text>
</a>
</g>
</g>
<!-- Node2 -->
<g id="node2" class="node">
<title>Node2</title>
<g id="a_node2"><a target="_parent" xlink:href="https://doc.qt.io/qt-5/qregularexpressionmatch.html#hasMatch" xlink:title=" ">
<polygon fill="white" stroke="#666666" points="275,-126 130,-126 130,-96 275,-96 275,-126"/>
<text text-anchor="start" x="138" y="-114" font-family="Helvetica,sans-Serif" font-size="10.00">QRegularExpressionMatch</text>
<text text-anchor="middle" x="202.5" y="-103" font-family="Helvetica,sans-Serif" font-size="10.00">::hasMatch</text>
</a>
</g>
</g>
<!-- Node1&#45;&gt;Node2 -->
<g id="edge1" class="edge">
<title>Node1&#45;&gt;Node2</title>
<path fill="none" stroke="#63b8ff" d="M78.69,-72.6C97.79,-78.57 122.92,-86.43 145.47,-93.48"/>
<polygon fill="#63b8ff" stroke="#63b8ff" points="153.33,-95.94 144.62,-96.99 149.51,-94.74 145.69,-93.55 145.69,-93.55 145.69,-93.55 149.51,-94.74 146.77,-90.11 153.33,-95.94 153.33,-95.94"/>
</g>
<!-- Node3 -->
<g id="node3" class="node">
<title>Node3</title>
<g id="a_node3"><a target="_parent" xlink:href="https://doc.qt.io/qt-5/qregularexpression.html#isValid" xlink:title=" ">
<polygon fill="white" stroke="#666666" points="260,-78 145,-78 145,-48 260,-48 260,-78"/>
<text text-anchor="start" x="153" y="-66" font-family="Helvetica,sans-Serif" font-size="10.00">QRegularExpression</text>
<text text-anchor="middle" x="202.5" y="-55" font-family="Helvetica,sans-Serif" font-size="10.00">::isValid</text>
</a>
</g>
</g>
<!-- Node1&#45;&gt;Node3 -->
<g id="edge2" class="edge">
<title>Node1&#45;&gt;Node3</title>
<path fill="none" stroke="#63b8ff" d="M94.06,-63C107.42,-63 122.26,-63 136.55,-63"/>
<polygon fill="#63b8ff" stroke="#63b8ff" points="144.89,-63 136.89,-66.6 140.89,-63 136.89,-63 136.89,-63 136.89,-63 140.89,-63 136.89,-59.4 144.89,-63 144.89,-63"/>
</g>
<!-- Node4 -->
<g id="node4" class="node">
<title>Node4</title>
<g id="a_node4"><a target="_parent" xlink:href="https://doc.qt.io/qt-5/qregularexpression.html#match" xlink:title=" ">
<polygon fill="white" stroke="#666666" points="260,-30 145,-30 145,0 260,0 260,-30"/>
<text text-anchor="start" x="153" y="-18" font-family="Helvetica,sans-Serif" font-size="10.00">QRegularExpression</text>
<text text-anchor="middle" x="202.5" y="-7" font-family="Helvetica,sans-Serif" font-size="10.00">::match</text>
</a>
</g>
</g>
<!-- Node1&#45;&gt;Node4 -->
<g id="edge3" class="edge">
<title>Node1&#45;&gt;Node4</title>
<path fill="none" stroke="#63b8ff" d="M78.69,-53.4C97.79,-47.43 122.92,-39.57 145.47,-32.52"/>
<polygon fill="#63b8ff" stroke="#63b8ff" points="153.33,-30.06 146.77,-35.89 149.51,-31.26 145.69,-32.45 145.69,-32.45 145.69,-32.45 149.51,-31.26 144.62,-29.01 153.33,-30.06 153.33,-30.06"/>
</g>
</g>
</svg>
