<?xml version="1.0" encoding="UTF-8" standalone="no"?>
<!DOCTYPE svg PUBLIC "-//W3C//DTD SVG 1.1//EN"
 "http://www.w3.org/Graphics/SVG/1.1/DTD/svg11.dtd">
<!-- Generated by graphviz version 2.43.0 (0)
 -->
<!-- Title: Model::Model Pages: 1 -->
<svg width="330pt" height="158pt"
 viewBox="0.00 0.00 330.00 158.00" xmlns="http://www.w3.org/2000/svg" xmlns:xlink="http://www.w3.org/1999/xlink">
<g id="graph0" class="graph" transform="scale(1 1) rotate(0) translate(4 154)">
<title>Model::Model</title>
<!-- Node1 -->
<g id="Node000001" class="node">
<title>Node1</title>
<g id="a_Node000001"><a xlink:title="Constructs a new, empty Smithy model.">
<polygon fill="#999999" stroke="#666666" points="322,-93 239,-93 239,-74 322,-74 322,-93"/>
<text text-anchor="middle" x="280.5" y="-81" font-family="Helvetica,sans-Serif" font-size="10.00">Model::Model</text>
</a>
</g>
</g>
<!-- Node1&#45;&gt;Node1 -->
<g id="edge3_Node000001_Node000001" class="edge">
<title>Node1&#45;&gt;Node1</title>
<g id="a_edge3_Node000001_Node000001"><a xlink:title=" ">
<path fill="none" stroke="#63b8ff" d="M302.99,-100.31C303.33,-106.21 295.83,-111 280.5,-111 259.17,-111 253.01,-101.73 262,-93.08"/>
<polygon fill="#63b8ff" stroke="#63b8ff" points="299,-93.08 306.02,-98.34 300.93,-96.58 302.87,-100.08 302.87,-100.08 302.87,-100.08 300.93,-96.58 299.71,-101.83 299,-93.08 299,-93.08"/>
</a>
</g>
</g>
<!-- Node2 -->
<g id="Node000002" class="node">
<title>Node2</title>
<g id="a_Node000002"><a xlink:href="classModel.html#a83538d8a8b26113594d14f2b1ea20d8f" target="_top" xlink:title=" ">
<polygon fill="white" stroke="#666666" points="199,-150 120,-150 120,-131 199,-131 199,-150"/>
<text text-anchor="middle" x="159.5" y="-138" font-family="Helvetica,sans-Serif" font-size="10.00">Model::finish</text>
</a>
</g>
</g>
<!-- Node1&#45;&gt;Node2 -->
<g id="edge1_Node000001_Node000002" class="edge">
<title>Node1&#45;&gt;Node2</title>
<g id="a_edge1_Node000001_Node000002"><a xlink:title=" ">
<path fill="none" stroke="#63b8ff" d="M252.22,-96.57C230.35,-107.04 200.16,-121.51 180.48,-130.93"/>
<polygon fill="#63b8ff" stroke="#63b8ff" points="259.58,-93.04 253.92,-99.74 255.97,-94.77 252.37,-96.5 252.37,-96.5 252.37,-96.5 255.97,-94.77 250.81,-93.25 259.58,-93.04 259.58,-93.04"/>
</a>
</g>
</g>
<!-- Node3 -->
<g id="Node000003" class="node">
<title>Node3</title>
<g id="a_Node000003"><a xlink:href="classModel.html#a5296da875545acf527ce42c707d1ead1" target="_top" xlink:title="Add the logical content of the JSON AST model file given by ast into this semantic model.">
<polygon fill="white" stroke="#666666" points="80,-74 0,-74 0,-55 80,-55 80,-74"/>
<text text-anchor="middle" x="40" y="-62" font-family="Helvetica,sans-Serif" font-size="10.00">Model::insert</text>
</a>
</g>
</g>
<!-- Node1&#45;&gt;Node3 -->
<g id="edge2_Node000001_Node000003" class="edge">
<title>Node1&#45;&gt;Node3</title>
<g id="a_edge2_Node000001_Node000003"><a xlink:title=" ">
<path fill="none" stroke="#63b8ff" d="M230.64,-86.65C198.04,-87.98 154.3,-88.28 116,-83.5 101.07,-81.64 84.85,-77.77 71.32,-74"/>
<polygon fill="#63b8ff" stroke="#63b8ff" points="238.68,-86.29 230.84,-90.24 234.68,-86.47 230.68,-86.65 230.68,-86.65 230.68,-86.65 234.68,-86.47 230.52,-83.05 238.68,-86.29 238.68,-86.29"/>
</a>
</g>
</g>
<!-- Node4 -->
<g id="Node000004" class="node">
<title>Node4</title>
<g id="a_Node000004"><a xlink:href="classModel.html#a230e00c458f652c3fa9b447bdd672bdc" target="_top" xlink:title=" ">
<polygon fill="white" stroke="#666666" points="200.5,-74 118.5,-74 118.5,-55 200.5,-55 200.5,-74"/>
<text text-anchor="middle" x="159.5" y="-62" font-family="Helvetica,sans-Serif" font-size="10.00">Model::shape</text>
</a>
</g>
</g>
<!-- Node1&#45;&gt;Node4 -->
<g id="edge4_Node000001_Node000004" class="edge">
<title>Node1&#45;&gt;Node4</title>
<g id="a_edge4_Node000001_Node000004"><a xlink:title=" ">
<path fill="none" stroke="#63b8ff" d="M230.9,-75.74C220.81,-74.13 210.28,-72.45 200.53,-70.89"/>
<polygon fill="#63b8ff" stroke="#63b8ff" points="238.88,-77.01 230.41,-79.31 234.93,-76.38 230.98,-75.75 230.98,-75.75 230.98,-75.75 234.93,-76.38 231.55,-72.2 238.88,-77.01 238.88,-77.01"/>
</a>
</g>
</g>
<!-- Node5 -->
<g id="Node000005" class="node">
<title>Node5</title>
<g id="a_Node000005"><a xlink:href="classModel.html#a006b5ee757212e9de1f564ebcdfab91d" target="_top" xlink:title=" ">
<polygon fill="white" stroke="#666666" points="203,-19 116,-19 116,0 203,0 203,-19"/>
<text text-anchor="middle" x="159.5" y="-7" font-family="Helvetica,sans-Serif" font-size="10.00">Model::shapes</text>
</a>
</g>
</g>
<!-- Node1&#45;&gt;Node5 -->
<g id="edge6_Node000001_Node000005" class="edge">
<title>Node1&#45;&gt;Node5</title>
<g id="a_edge6_Node000001_Node000005"><a xlink:title=" ">
<path fill="none" stroke="#63b8ff" d="M257.05,-69.54C233.38,-54.82 196.73,-32.03 176.06,-19.18"/>
<polygon fill="#63b8ff" stroke="#63b8ff" points="263.94,-73.83 255.25,-72.66 260.55,-71.71 257.15,-69.6 257.15,-69.6 257.15,-69.6 260.55,-71.71 259.05,-66.54 263.94,-73.83 263.94,-73.83"/>
</a>
</g>
</g>
<!-- Node4&#45;&gt;Node3 -->
<g id="edge5_Node000004_Node000003" class="edge">
<title>Node4&#45;&gt;Node3</title>
<g id="a_edge5_Node000004_Node000003"><a xlink:title=" ">
<path fill="none" stroke="#63b8ff" d="M110.13,-64.5C100.14,-64.5 89.74,-64.5 80.13,-64.5"/>
<polygon fill="#63b8ff" stroke="#63b8ff" points="118.39,-64.5 110.39,-68.1 114.39,-64.5 110.39,-64.5 110.39,-64.5 110.39,-64.5 114.39,-64.5 110.39,-60.9 118.39,-64.5 118.39,-64.5"/>
</a>
</g>
</g>
<!-- Node5&#45;&gt;Node3 -->
<g id="edge7_Node000005_Node000003" class="edge">
<title>Node5&#45;&gt;Node3</title>
<g id="a_edge7_Node000005_Node000003"><a xlink:title=" ">
<path fill="none" stroke="#63b8ff" d="M130.6,-22.56C109.42,-32.47 80.77,-45.88 61.63,-54.84"/>
<polygon fill="#63b8ff" stroke="#63b8ff" points="138.03,-19.08 132.31,-25.73 134.41,-20.78 130.79,-22.47 130.79,-22.47 130.79,-22.47 134.41,-20.78 129.26,-19.21 138.03,-19.08 138.03,-19.08"/>
</a>
</g>
</g>
<!-- Node5&#45;&gt;Node5 -->
<g id="edge8_Node000005_Node000005" class="edge">
<title>Node5&#45;&gt;Node5</title>
<g id="a_edge8_Node000005_Node000005"><a xlink:title=" ">
<path fill="none" stroke="#63b8ff" d="M181.61,-26.31C181.95,-32.21 174.57,-37 159.5,-37 138.53,-37 132.46,-27.73 141.31,-19.08"/>
<polygon fill="#63b8ff" stroke="#63b8ff" points="177.69,-19.08 184.67,-24.39 179.6,-22.6 181.51,-26.11 181.51,-26.11 181.51,-26.11 179.6,-22.6 178.34,-27.83 177.69,-19.08 177.69,-19.08"/>
</a>
</g>
</g>
</g>
</svg>
