<?xml version="1.0" encoding="UTF-8" standalone="no"?>
<!DOCTYPE svg PUBLIC "-//W3C//DTD SVG 1.1//EN"
 "http://www.w3.org/Graphics/SVG/1.1/DTD/svg11.dtd">
<!-- Generated by graphviz version 2.43.0 (0)
 -->
<!-- Title: ShapeId::hasNameSpace Pages: 1 -->
<svg width="607pt" height="178pt"
 viewBox="0.00 0.00 607.00 178.00" xmlns="http://www.w3.org/2000/svg" xmlns:xlink="http://www.w3.org/1999/xlink">
<g id="graph0" class="graph" transform="scale(1 1) rotate(0) translate(4 174)">
<title>ShapeId::hasNameSpace</title>
<!-- Node1 -->
<g id="node1" class="node">
<title>Node1</title>
<g id="a_node1"><a xlink:title="Returns true if this Shape ID has a non&#45;empty namespace, otherwise false otherwise.">
<polygon fill="#999999" stroke="#666666" points="599,-94 462,-94 462,-75 599,-75 599,-94"/>
<text text-anchor="middle" x="530.5" y="-82" font-family="Helvetica,sans-Serif" font-size="10.00">ShapeId::hasNameSpace</text>
</a>
</g>
</g>
<!-- Node2 -->
<g id="node2" class="node">
<title>Node2</title>
<g id="a_node2"><a xlink:href="classShapeId.html#a42ae1231e4d242958ab12e61504e33ca" target="_top" xlink:title="Returns this object as an absolute Smithy Shape ID if this object has a namespace,...">
<polygon fill="white" stroke="#666666" points="410.5,-170 267.5,-170 267.5,-151 410.5,-151 410.5,-170"/>
<text text-anchor="middle" x="339" y="-158" font-family="Helvetica,sans-Serif" font-size="10.00">ShapeId::absoluteShapeId</text>
</a>
</g>
</g>
<!-- Node1&#45;&gt;Node2 -->
<g id="edge1" class="edge">
<title>Node1&#45;&gt;Node2</title>
<path fill="none" stroke="#63b8ff" d="M505.64,-98.15C485.04,-109.53 454.23,-125.59 426,-136.5 411.4,-142.14 394.93,-147.07 380.34,-150.97"/>
<polygon fill="#63b8ff" stroke="#63b8ff" points="512.75,-94.19 507.51,-101.23 509.25,-96.14 505.76,-98.09 505.76,-98.09 505.76,-98.09 509.25,-96.14 504.01,-94.94 512.75,-94.19 512.75,-94.19"/>
</g>
<!-- Node3 -->
<g id="node3" class="node">
<title>Node3</title>
<g id="a_node3"><a xlink:href="classShapeId.html#a564f14952b394af6b38f748417a7e48a" target="_top" xlink:title="Returns this object as an absolute Smithy Shape ID if this object has a namespace,...">
<polygon fill="white" stroke="#666666" points="216,-132 116,-132 116,-113 216,-113 216,-132"/>
<text text-anchor="middle" x="166" y="-120" font-family="Helvetica,sans-Serif" font-size="10.00">ShapeId::toString</text>
</a>
</g>
</g>
<!-- Node1&#45;&gt;Node3 -->
<g id="edge7" class="edge">
<title>Node1&#45;&gt;Node3</title>
<path fill="none" stroke="#63b8ff" d="M454.24,-95.06C444.74,-96.28 435.15,-97.46 426,-98.5 353.09,-106.81 268.38,-114.24 216.23,-118.56"/>
<polygon fill="#63b8ff" stroke="#63b8ff" points="462.18,-94.02 454.72,-98.63 458.22,-94.54 454.25,-95.06 454.25,-95.06 454.25,-95.06 458.22,-94.54 453.79,-91.49 462.18,-94.02 462.18,-94.02"/>
</g>
<!-- Node4 -->
<g id="node4" class="node">
<title>Node4</title>
<g id="a_node4"><a xlink:href="classModel.html#a5296da875545acf527ce42c707d1ead1" target="_top" xlink:title="Add the logical content of the JSON AST model file given by ast into this semantic model.">
<polygon fill="white" stroke="#666666" points="80,-113 0,-113 0,-94 80,-94 80,-113"/>
<text text-anchor="middle" x="40" y="-101" font-family="Helvetica,sans-Serif" font-size="10.00">Model::insert</text>
</a>
</g>
</g>
<!-- Node1&#45;&gt;Node4 -->
<g id="edge4" class="edge">
<title>Node1&#45;&gt;Node4</title>
<path fill="none" stroke="#63b8ff" d="M453.76,-87.45C348.27,-91.55 160.98,-98.83 80.04,-101.98"/>
<polygon fill="#63b8ff" stroke="#63b8ff" points="461.83,-87.13 453.98,-91.04 457.84,-87.29 453.84,-87.44 453.84,-87.44 453.84,-87.44 457.84,-87.29 453.7,-83.85 461.83,-87.13 461.83,-87.13"/>
</g>
<!-- Node5 -->
<g id="node5" class="node">
<title>Node5</title>
<g id="a_node5"><a xlink:href="classShapeId.html#ae7a29dab73bbbfbd0e02bdbdccc748ad" target="_top" xlink:title="Returns true if this Shape ID is a root Shape ID, and has a namespace, false otherwise.">
<polygon fill="white" stroke="#666666" points="426,-56 252,-56 252,-37 426,-37 426,-56"/>
<text text-anchor="middle" x="339" y="-44" font-family="Helvetica,sans-Serif" font-size="10.00">ShapeId::isAbsoluteRootShapeId</text>
</a>
</g>
</g>
<!-- Node1&#45;&gt;Node5 -->
<g id="edge5" class="edge">
<title>Node1&#45;&gt;Node5</title>
<path fill="none" stroke="#63b8ff" d="M473.73,-73.32C446.33,-67.82 413.66,-61.27 387.47,-56.02"/>
<polygon fill="#63b8ff" stroke="#63b8ff" points="481.68,-74.91 473.13,-76.87 477.76,-74.12 473.84,-73.34 473.84,-73.34 473.84,-73.34 477.76,-74.12 474.55,-69.81 481.68,-74.91 481.68,-74.91"/>
</g>
<!-- Node6 -->
<g id="node6" class="node">
<title>Node6</title>
<g id="a_node6"><a xlink:href="classShapeId.html#af929aaedb6df234458a445eabac27a1a" target="_top" xlink:title="Returns true if this Shape ID is a relative Shape ID, false otherwise.">
<polygon fill="white" stroke="#666666" points="413.5,-19 264.5,-19 264.5,0 413.5,0 413.5,-19"/>
<text text-anchor="middle" x="339" y="-7" font-family="Helvetica,sans-Serif" font-size="10.00">ShapeId::isRelativeShapeId</text>
</a>
</g>
</g>
<!-- Node1&#45;&gt;Node6 -->
<g id="edge6" class="edge">
<title>Node1&#45;&gt;Node6</title>
<path fill="none" stroke="#63b8ff" d="M508.49,-70.48C488.18,-57.53 456.15,-38.67 426,-27.5 416.99,-24.16 407.2,-21.38 397.57,-19.07"/>
<polygon fill="#63b8ff" stroke="#63b8ff" points="515.41,-74.95 506.74,-73.64 512.05,-72.78 508.69,-70.61 508.69,-70.61 508.69,-70.61 512.05,-72.78 510.65,-67.59 515.41,-74.95 515.41,-74.95"/>
</g>
<!-- Node2&#45;&gt;Node3 -->
<g id="edge2" class="edge">
<title>Node2&#45;&gt;Node3</title>
<path fill="none" stroke="#63b8ff" d="M287.04,-149.18C262.45,-143.71 233.27,-137.23 209.84,-132.02"/>
<polygon fill="#63b8ff" stroke="#63b8ff" points="294.85,-150.91 286.26,-152.69 290.94,-150.04 287.04,-149.18 287.04,-149.18 287.04,-149.18 290.94,-150.04 287.82,-145.66 294.85,-150.91 294.85,-150.91"/>
</g>
<!-- Node3&#45;&gt;Node4 -->
<g id="edge3" class="edge">
<title>Node3&#45;&gt;Node4</title>
<path fill="none" stroke="#63b8ff" d="M107.81,-113.74C98.44,-112.3 88.91,-110.84 80.11,-109.49"/>
<polygon fill="#63b8ff" stroke="#63b8ff" points="115.99,-114.99 107.54,-117.34 112.04,-114.38 108.08,-113.78 108.08,-113.78 108.08,-113.78 112.04,-114.38 108.63,-110.22 115.99,-114.99 115.99,-114.99"/>
</g>
</g>
</svg>
