<?xml version="1.0" encoding="UTF-8" standalone="no"?>
<!DOCTYPE svg PUBLIC "-//W3C//DTD SVG 1.1//EN"
 "http://www.w3.org/Graphics/SVG/1.1/DTD/svg11.dtd">
<!-- Generated by graphviz version 2.43.0 (0)
 -->
<!-- Title: Model::insert Pages: 1 -->
<svg width="1002pt" height="413pt"
 viewBox="0.00 0.00 1002.00 413.29" xmlns="http://www.w3.org/2000/svg" xmlns:xlink="http://www.w3.org/1999/xlink">
<g id="graph0" class="graph" transform="scale(1 1) rotate(0) translate(4 409.29)">
<title>Model::insert</title>
<!-- Node1 -->
<g id="node1" class="node">
<title>Node1</title>
<g id="a_node1"><a xlink:title="Add the logical content of the JSON AST model file given by ast into this semantic model.">
<polygon fill="#999999" stroke="#666666" points="80,-195 0,-195 0,-176 80,-176 80,-195"/>
<text text-anchor="middle" x="40" y="-183" font-family="Helvetica,sans-Serif" font-size="10.00">Model::insert</text>
</a>
</g>
</g>
<!-- Node2 -->
<g id="node2" class="node">
<title>Node2</title>
<g id="a_node2"><a xlink:href="classShapeId.html#ad0bbf397b25b50a3fc9c145cea67ce11" target="_top" xlink:title="Returns true if this Shape ID has a non&#45;empty namespace, otherwise false otherwise.">
<polygon fill="white" stroke="#666666" points="640.5,-151 503.5,-151 503.5,-132 640.5,-132 640.5,-151"/>
<text text-anchor="middle" x="572" y="-139" font-family="Helvetica,sans-Serif" font-size="10.00">ShapeId::hasNameSpace</text>
</a>
</g>
</g>
<!-- Node1&#45;&gt;Node2 -->
<g id="edge1" class="edge">
<title>Node1&#45;&gt;Node2</title>
<path fill="none" stroke="#63b8ff" d="M42.12,-195.26C46.01,-224.13 61.85,-309.26 116,-343.5 247.86,-426.87 333.82,-424.73 467,-343.5 535.08,-301.98 560.49,-200.06 568.17,-159.03"/>
<polygon fill="#63b8ff" stroke="#63b8ff" points="569.58,-151.03 571.74,-159.54 568.89,-154.97 568.19,-158.91 568.19,-158.91 568.19,-158.91 568.89,-154.97 564.65,-158.28 569.58,-151.03 569.58,-151.03"/>
</g>
<!-- Node5 -->
<g id="node5" class="node">
<title>Node5</title>
<g id="a_node5"><a target="_parent" xlink:href="https://doc.qt.io/qt-5/qjsonvalue.html#isObject" xlink:title=" ">
<polygon fill="white" stroke="#666666" points="259.5,-334 142.5,-334 142.5,-315 259.5,-315 259.5,-334"/>
<text text-anchor="middle" x="201" y="-322" font-family="Helvetica,sans-Serif" font-size="10.00">QJsonValue::isObject</text>
</a>
</g>
</g>
<!-- Node1&#45;&gt;Node5 -->
<g id="edge4" class="edge">
<title>Node1&#45;&gt;Node5</title>
<path fill="none" stroke="#63b8ff" d="M44.04,-195.2C51.85,-218.45 74.98,-277.61 116,-306.5 121.61,-310.45 127.92,-313.56 134.49,-316.01"/>
<polygon fill="#63b8ff" stroke="#63b8ff" points="142.3,-318.59 133.57,-319.5 138.5,-317.33 134.7,-316.08 134.7,-316.08 134.7,-316.08 138.5,-317.33 135.83,-312.66 142.3,-318.59 142.3,-318.59"/>
</g>
<!-- Node6 -->
<g id="node6" class="node">
<title>Node6</title>
<g id="a_node6"><a xlink:href="classShapeId.html#a380944df9a71c1108ed5bdb459673a49" target="_top" xlink:title="Returns true if this object represents a valid, non&#45;empty Smithy Shape ID.">
<polygon fill="white" stroke="#666666" points="248,-297 154,-297 154,-278 248,-278 248,-297"/>
<text text-anchor="middle" x="201" y="-285" font-family="Helvetica,sans-Serif" font-size="10.00">ShapeId::isValid</text>
</a>
</g>
</g>
<!-- Node1&#45;&gt;Node6 -->
<g id="edge5" class="edge">
<title>Node1&#45;&gt;Node6</title>
<path fill="none" stroke="#63b8ff" d="M46.86,-195.21C57.99,-212.79 83.98,-249.77 116,-268.5 125.05,-273.79 135.45,-277.61 145.77,-280.37"/>
<polygon fill="#63b8ff" stroke="#63b8ff" points="153.63,-282.27 145,-283.89 149.74,-281.33 145.85,-280.39 145.85,-280.39 145.85,-280.39 149.74,-281.33 146.7,-276.89 153.63,-282.27 153.63,-282.27"/>
</g>
<!-- Node10 -->
<g id="node10" class="node">
<title>Node10</title>
<g id="a_node10"><a target="_parent" xlink:href="https://doc.qt.io/qt-5/qjsonobject.html#keys" xlink:title=" ">
<polygon fill="white" stroke="#666666" points="253,-260 149,-260 149,-241 253,-241 253,-260"/>
<text text-anchor="middle" x="201" y="-248" font-family="Helvetica,sans-Serif" font-size="10.00">QJsonObject::keys</text>
</a>
</g>
</g>
<!-- Node1&#45;&gt;Node10 -->
<g id="edge9" class="edge">
<title>Node1&#45;&gt;Node10</title>
<path fill="none" stroke="#63b8ff" d="M53.58,-195.02C67.95,-205.44 92.51,-221.95 116,-231.5 123.95,-234.73 132.56,-237.47 141.14,-239.78"/>
<polygon fill="#63b8ff" stroke="#63b8ff" points="148.98,-241.77 140.34,-243.29 145.11,-240.79 141.23,-239.8 141.23,-239.8 141.23,-239.8 145.11,-240.79 142.12,-236.31 148.98,-241.77 148.98,-241.77"/>
</g>
<!-- Node11 -->
<g id="node11" class="node">
<title>Node11</title>
<g id="a_node11"><a target="_parent" xlink:href="https://doc.qt.io/qt-5/qversionnumber.html#majorVersion" xlink:title=" ">
<polygon fill="white" stroke="#666666" points="286,-223 116,-223 116,-204 286,-204 286,-223"/>
<text text-anchor="middle" x="201" y="-211" font-family="Helvetica,sans-Serif" font-size="10.00">QVersionNumber::majorVersion</text>
</a>
</g>
</g>
<!-- Node1&#45;&gt;Node11 -->
<g id="edge10" class="edge">
<title>Node1&#45;&gt;Node11</title>
<path fill="none" stroke="#63b8ff" d="M80.3,-192.42C97.68,-195.48 118.54,-199.15 137.93,-202.57"/>
<polygon fill="#63b8ff" stroke="#63b8ff" points="145.86,-203.97 137.35,-206.12 141.92,-203.27 137.98,-202.58 137.98,-202.58 137.98,-202.58 141.92,-203.27 138.6,-199.03 145.86,-203.97 145.86,-203.97"/>
</g>
<!-- Node12 -->
<g id="node12" class="node">
<title>Node12</title>
<g id="a_node12"><a xlink:href="classModel.html#a006b5ee757212e9de1f564ebcdfab91d" target="_top" xlink:title=" ">
<polygon fill="white" stroke="#666666" points="244.5,-168 157.5,-168 157.5,-149 244.5,-149 244.5,-168"/>
<text text-anchor="middle" x="201" y="-156" font-family="Helvetica,sans-Serif" font-size="10.00">Model::shapes</text>
</a>
</g>
</g>
<!-- Node1&#45;&gt;Node12 -->
<g id="edge11" class="edge">
<title>Node1&#45;&gt;Node12</title>
<path fill="none" stroke="#63b8ff" d="M80.3,-178.83C101.11,-175.29 126.89,-170.91 149.2,-167.13"/>
<polygon fill="#63b8ff" stroke="#63b8ff" points="157.24,-165.76 149.96,-170.65 153.3,-166.43 149.36,-167.1 149.36,-167.1 149.36,-167.1 153.3,-166.43 148.75,-163.55 157.24,-165.76 157.24,-165.76"/>
</g>
<!-- Node13 -->
<g id="node13" class="node">
<title>Node13</title>
<g id="a_node13"><a target="_parent" xlink:href="https://doc.qt.io/qt-5/qjsonvalue.html#toObject-1" xlink:title=" ">
<polygon fill="white" stroke="#666666" points="260.5,-131 141.5,-131 141.5,-112 260.5,-112 260.5,-131"/>
<text text-anchor="middle" x="201" y="-119" font-family="Helvetica,sans-Serif" font-size="10.00">QJsonValue::toObject</text>
</a>
</g>
</g>
<!-- Node1&#45;&gt;Node13 -->
<g id="edge13" class="edge">
<title>Node1&#45;&gt;Node13</title>
<path fill="none" stroke="#63b8ff" d="M53.56,-175.93C67.91,-165.47 92.46,-148.92 116,-139.5 121.94,-137.12 128.25,-135.04 134.63,-133.21"/>
<polygon fill="#63b8ff" stroke="#63b8ff" points="142.74,-131.04 135.94,-136.59 138.87,-132.07 135.01,-133.11 135.01,-133.11 135.01,-133.11 138.87,-132.07 134.08,-129.63 142.74,-131.04 142.74,-131.04"/>
</g>
<!-- Node14 -->
<g id="node14" class="node">
<title>Node14</title>
<g id="a_node14"><a xlink:href="classShapeId.html#a564f14952b394af6b38f748417a7e48a" target="_top" xlink:title="Returns this object as an absolute Smithy Shape ID if this object has a namespace,...">
<polygon fill="white" stroke="#666666" points="251,-94 151,-94 151,-75 251,-75 251,-94"/>
<text text-anchor="middle" x="201" y="-82" font-family="Helvetica,sans-Serif" font-size="10.00">ShapeId::toString</text>
</a>
</g>
</g>
<!-- Node1&#45;&gt;Node14 -->
<g id="edge14" class="edge">
<title>Node1&#45;&gt;Node14</title>
<path fill="none" stroke="#63b8ff" d="M46.84,-175.75C57.94,-158.12 83.87,-121.05 116,-102.5 124.17,-97.78 133.44,-94.3 142.76,-91.72"/>
<polygon fill="#63b8ff" stroke="#63b8ff" points="150.57,-89.77 143.69,-95.2 146.69,-90.74 142.81,-91.71 142.81,-91.71 142.81,-91.71 146.69,-90.74 141.94,-88.22 150.57,-89.77 150.57,-89.77"/>
</g>
<!-- Node20 -->
<g id="node20" class="node">
<title>Node20</title>
<g id="a_node20"><a target="_parent" xlink:href="https://doc.qt.io/qt-5/qversionnumber.html#toString" xlink:title=" ">
<polygon fill="white" stroke="#666666" points="272.5,-57 129.5,-57 129.5,-38 272.5,-38 272.5,-57"/>
<text text-anchor="middle" x="201" y="-45" font-family="Helvetica,sans-Serif" font-size="10.00">QVersionNumber::toString</text>
</a>
</g>
</g>
<!-- Node1&#45;&gt;Node20 -->
<g id="edge26" class="edge">
<title>Node1&#45;&gt;Node20</title>
<path fill="none" stroke="#63b8ff" d="M44.06,-175.88C51.93,-152.81 75.17,-94.14 116,-65.5 118.67,-63.63 121.5,-61.94 124.44,-60.43"/>
<polygon fill="#63b8ff" stroke="#63b8ff" points="131.94,-57 126.16,-63.6 128.3,-58.66 124.66,-60.32 124.66,-60.32 124.66,-60.32 128.3,-58.66 123.17,-57.05 131.94,-57 131.94,-57"/>
</g>
<!-- Node21 -->
<g id="node21" class="node">
<title>Node21</title>
<g id="a_node21"><a target="_parent" xlink:href="https://doc.qt.io/qt-5/qjsonobject.html#value" xlink:title=" ">
<polygon fill="white" stroke="#666666" points="255.5,-20 146.5,-20 146.5,-1 255.5,-1 255.5,-20"/>
<text text-anchor="middle" x="201" y="-8" font-family="Helvetica,sans-Serif" font-size="10.00">QJsonObject::value</text>
</a>
</g>
</g>
<!-- Node1&#45;&gt;Node21 -->
<g id="edge27" class="edge">
<title>Node1&#45;&gt;Node21</title>
<path fill="none" stroke="#63b8ff" d="M42.57,-175.92C47.64,-148.27 66.2,-67.8 116,-28.5 122.5,-23.37 130.13,-19.62 138.09,-16.89"/>
<polygon fill="#63b8ff" stroke="#63b8ff" points="146.14,-14.49 139.5,-20.23 142.3,-15.63 138.47,-16.78 138.47,-16.78 138.47,-16.78 142.3,-15.63 137.44,-13.33 146.14,-14.49 146.14,-14.49"/>
</g>
<!-- Node3 -->
<g id="node3" class="node">
<title>Node3</title>
<g id="a_node3"><a target="_parent" xlink:href="https://doc.qt.io/qt-5/qstring.html#isEmpty" xlink:title=" ">
<polygon fill="white" stroke="#666666" points="977,-113 879,-113 879,-94 977,-94 977,-113"/>
<text text-anchor="middle" x="928" y="-101" font-family="Helvetica,sans-Serif" font-size="10.00">QString::isEmpty</text>
</a>
</g>
</g>
<!-- Node2&#45;&gt;Node3 -->
<g id="edge2" class="edge">
<title>Node2&#45;&gt;Node3</title>
<path fill="none" stroke="#63b8ff" d="M640.69,-147.54C691.98,-150.6 763.96,-151.63 826,-140.5 851.8,-135.87 879.67,-125.19 899.59,-116.49"/>
<polygon fill="#63b8ff" stroke="#63b8ff" points="907.07,-113.15 901.24,-119.7 903.42,-114.78 899.77,-116.41 899.77,-116.41 899.77,-116.41 903.42,-114.78 898.3,-113.13 907.07,-113.15 907.07,-113.15"/>
</g>
<!-- Node4 -->
<g id="node4" class="node">
<title>Node4</title>
<g id="a_node4"><a xlink:href="classShapeId.html#a0d88184bccd8dc5b22b67800aeccf092" target="_top" xlink:title="Returns the Shape ID&#39;s namespace, if it has one, otherwise a null string.">
<polygon fill="white" stroke="#666666" points="811,-132 692,-132 692,-113 811,-113 811,-132"/>
<text text-anchor="middle" x="751.5" y="-120" font-family="Helvetica,sans-Serif" font-size="10.00">ShapeId::nameSpace</text>
</a>
</g>
</g>
<!-- Node2&#45;&gt;Node4 -->
<g id="edge3" class="edge">
<title>Node2&#45;&gt;Node4</title>
<path fill="none" stroke="#63b8ff" d="M640.61,-134.26C654.7,-132.75 669.54,-131.17 683.6,-129.66"/>
<polygon fill="#63b8ff" stroke="#63b8ff" points="691.78,-128.79 684.2,-133.22 687.8,-129.21 683.82,-129.64 683.82,-129.64 683.82,-129.64 687.8,-129.21 683.44,-126.06 691.78,-128.79 691.78,-128.79"/>
</g>
<!-- Node7 -->
<g id="node7" class="node">
<title>Node7</title>
<g id="a_node7"><a target="_parent" xlink:href="https://doc.qt.io/qt-5/qregularexpressionmatch.html#hasMatch" xlink:title=" ">
<polygon fill="white" stroke="#666666" points="467,-334.5 322,-334.5 322,-304.5 467,-304.5 467,-334.5"/>
<text text-anchor="start" x="330" y="-322.5" font-family="Helvetica,sans-Serif" font-size="10.00">QRegularExpressionMatch</text>
<text text-anchor="middle" x="394.5" y="-311.5" font-family="Helvetica,sans-Serif" font-size="10.00">::hasMatch</text>
</a>
</g>
</g>
<!-- Node6&#45;&gt;Node7 -->
<g id="edge6" class="edge">
<title>Node6&#45;&gt;Node7</title>
<path fill="none" stroke="#63b8ff" d="M248.36,-295.25C267.98,-298.52 291.4,-302.44 313.65,-306.16"/>
<polygon fill="#63b8ff" stroke="#63b8ff" points="321.79,-307.52 313.3,-309.75 317.84,-306.86 313.9,-306.2 313.9,-306.2 313.9,-306.2 317.84,-306.86 314.49,-302.65 321.79,-307.52 321.79,-307.52"/>
</g>
<!-- Node8 -->
<g id="node8" class="node">
<title>Node8</title>
<g id="a_node8"><a target="_parent" xlink:href="https://doc.qt.io/qt-5/qregularexpression.html#isValid" xlink:title=" ">
<polygon fill="white" stroke="#666666" points="452,-286.5 337,-286.5 337,-256.5 452,-256.5 452,-286.5"/>
<text text-anchor="start" x="345" y="-274.5" font-family="Helvetica,sans-Serif" font-size="10.00">QRegularExpression</text>
<text text-anchor="middle" x="394.5" y="-263.5" font-family="Helvetica,sans-Serif" font-size="10.00">::isValid</text>
</a>
</g>
</g>
<!-- Node6&#45;&gt;Node8 -->
<g id="edge7" class="edge">
<title>Node6&#45;&gt;Node8</title>
<path fill="none" stroke="#63b8ff" d="M248.36,-283.63C272.53,-281.61 302.49,-279.1 328.91,-276.9"/>
<polygon fill="#63b8ff" stroke="#63b8ff" points="336.98,-276.22 329.31,-280.48 332.99,-276.56 329.01,-276.89 329.01,-276.89 329.01,-276.89 332.99,-276.56 328.71,-273.3 336.98,-276.22 336.98,-276.22"/>
</g>
<!-- Node9 -->
<g id="node9" class="node">
<title>Node9</title>
<g id="a_node9"><a target="_parent" xlink:href="https://doc.qt.io/qt-5/qregularexpression.html#match" xlink:title=" ">
<polygon fill="white" stroke="#666666" points="452,-238.5 337,-238.5 337,-208.5 452,-208.5 452,-238.5"/>
<text text-anchor="start" x="345" y="-226.5" font-family="Helvetica,sans-Serif" font-size="10.00">QRegularExpression</text>
<text text-anchor="middle" x="394.5" y="-215.5" font-family="Helvetica,sans-Serif" font-size="10.00">::match</text>
</a>
</g>
</g>
<!-- Node6&#45;&gt;Node9 -->
<g id="edge8" class="edge">
<title>Node6&#45;&gt;Node9</title>
<path fill="none" stroke="#63b8ff" d="M248.1,-279.73C260.63,-276.9 274.04,-273.21 286,-268.5 303.23,-261.71 305.13,-255.15 322,-247.5 326.62,-245.41 331.47,-243.4 336.39,-241.49"/>
<polygon fill="#63b8ff" stroke="#63b8ff" points="344.14,-238.59 337.91,-244.77 340.39,-239.99 336.65,-241.4 336.65,-241.4 336.65,-241.4 340.39,-239.99 335.39,-238.02 344.14,-238.59 344.14,-238.59"/>
</g>
<!-- Node12&#45;&gt;Node12 -->
<g id="edge12" class="edge">
<title>Node12&#45;&gt;Node12</title>
<path fill="none" stroke="#63b8ff" d="M176.34,-168.08C164.34,-176.73 172.56,-186 201,-186 222.33,-186 232.28,-180.79 230.87,-174.53"/>
<polygon fill="#63b8ff" stroke="#63b8ff" points="225.66,-168.08 233.49,-172.05 228.17,-171.2 230.69,-174.31 230.69,-174.31 230.69,-174.31 228.17,-171.2 227.89,-176.57 225.66,-168.08 225.66,-168.08"/>
</g>
<!-- Node14&#45;&gt;Node2 -->
<g id="edge24" class="edge">
<title>Node14&#45;&gt;Node2</title>
<path fill="none" stroke="#63b8ff" d="M251.06,-92.65C262.69,-95.22 274.93,-98.48 286,-102.5 303,-108.68 304.63,-116.45 322,-121.5 378.51,-137.93 445.07,-142.56 495.15,-143.28"/>
<polygon fill="#63b8ff" stroke="#63b8ff" points="503.36,-143.37 495.32,-146.89 499.36,-143.33 495.36,-143.29 495.36,-143.29 495.36,-143.29 499.36,-143.33 495.4,-139.69 503.36,-143.37 503.36,-143.37"/>
</g>
<!-- Node15 -->
<g id="node15" class="node">
<title>Node15</title>
<g id="a_node15"><a xlink:href="classShapeId.html#a42ae1231e4d242958ab12e61504e33ca" target="_top" xlink:title="Returns this object as an absolute Smithy Shape ID if this object has a namespace,...">
<polygon fill="white" stroke="#666666" points="466,-113 323,-113 323,-94 466,-94 466,-113"/>
<text text-anchor="middle" x="394.5" y="-101" font-family="Helvetica,sans-Serif" font-size="10.00">ShapeId::absoluteShapeId</text>
</a>
</g>
</g>
<!-- Node14&#45;&gt;Node15 -->
<g id="edge15" class="edge">
<title>Node14&#45;&gt;Node15</title>
<path fill="none" stroke="#63b8ff" d="M251.32,-89.39C270.58,-91.3 293.14,-93.54 314.55,-95.67"/>
<polygon fill="#63b8ff" stroke="#63b8ff" points="322.69,-96.47 314.38,-99.27 318.71,-96.08 314.73,-95.68 314.73,-95.68 314.73,-95.68 318.71,-96.08 315.09,-92.1 322.69,-96.47 322.69,-96.47"/>
</g>
<!-- Node16 -->
<g id="node16" class="node">
<title>Node16</title>
<g id="a_node16"><a xlink:href="classShapeId.html#aad508460b545930c3aeb82021e79de5a" target="_top" xlink:title="Returns this object as a relative Smithy Shape ID, that one without a leading namespace.">
<polygon fill="white" stroke="#666666" points="641,-75 503,-75 503,-56 641,-56 641,-75"/>
<text text-anchor="middle" x="572" y="-63" font-family="Helvetica,sans-Serif" font-size="10.00">ShapeId::relativeShapeId</text>
</a>
</g>
</g>
<!-- Node14&#45;&gt;Node16 -->
<g id="edge25" class="edge">
<title>Node14&#45;&gt;Node16</title>
<path fill="none" stroke="#63b8ff" d="M251,-81.98C313.29,-78.77 421.52,-73.2 494.67,-69.43"/>
<polygon fill="#63b8ff" stroke="#63b8ff" points="502.97,-69 495.16,-73.01 498.97,-69.21 494.98,-69.41 494.98,-69.41 494.98,-69.41 498.97,-69.21 494.79,-65.82 502.97,-69 502.97,-69"/>
</g>
<!-- Node15&#45;&gt;Node2 -->
<g id="edge16" class="edge">
<title>Node15&#45;&gt;Node2</title>
<path fill="none" stroke="#63b8ff" d="M439.79,-113.09C463.88,-118.31 493.83,-124.79 519.03,-130.25"/>
<polygon fill="#63b8ff" stroke="#63b8ff" points="527.03,-131.98 518.45,-133.81 523.12,-131.13 519.21,-130.29 519.21,-130.29 519.21,-130.29 523.12,-131.13 519.98,-126.77 527.03,-131.98 527.03,-131.98"/>
</g>
<!-- Node15&#45;&gt;Node4 -->
<g id="edge17" class="edge">
<title>Node15&#45;&gt;Node4</title>
<path fill="none" stroke="#63b8ff" d="M466.06,-107.28C529.34,-110.66 621.53,-115.6 683.65,-118.92"/>
<polygon fill="#63b8ff" stroke="#63b8ff" points="691.83,-119.36 683.65,-122.53 687.83,-119.15 683.84,-118.93 683.84,-118.93 683.84,-118.93 687.83,-119.15 684.03,-115.34 691.83,-119.36 691.83,-119.36"/>
</g>
<!-- Node15&#45;&gt;Node16 -->
<g id="edge18" class="edge">
<title>Node15&#45;&gt;Node16</title>
<path fill="none" stroke="#63b8ff" d="M439.79,-93.91C463.88,-88.69 493.83,-82.21 519.03,-76.75"/>
<polygon fill="#63b8ff" stroke="#63b8ff" points="527.03,-75.02 519.98,-80.23 523.12,-75.87 519.21,-76.71 519.21,-76.71 519.21,-76.71 523.12,-75.87 518.45,-73.19 527.03,-75.02 527.03,-75.02"/>
</g>
<!-- Node17 -->
<g id="node17" class="node">
<title>Node17</title>
<g id="a_node17"><a xlink:href="classShapeId.html#a6f1fc0aab99d0108fc3f1eeb5a4d2687" target="_top" xlink:title="Returns true if this Shape ID has a non&#45;empty member name, otherwise false otherwise.">
<polygon fill="white" stroke="#666666" points="826,-95 677,-95 677,-76 826,-76 826,-95"/>
<text text-anchor="middle" x="751.5" y="-83" font-family="Helvetica,sans-Serif" font-size="10.00">ShapeId::hasMemberName</text>
</a>
</g>
</g>
<!-- Node16&#45;&gt;Node17 -->
<g id="edge19" class="edge">
<title>Node16&#45;&gt;Node17</title>
<path fill="none" stroke="#63b8ff" d="M641.12,-73.18C650.19,-74.2 659.57,-75.25 668.85,-76.3"/>
<polygon fill="#63b8ff" stroke="#63b8ff" points="676.96,-77.21 668.61,-79.9 672.98,-76.77 669.01,-76.32 669.01,-76.32 669.01,-76.32 672.98,-76.77 669.41,-72.74 676.96,-77.21 676.96,-77.21"/>
</g>
<!-- Node18 -->
<g id="node18" class="node">
<title>Node18</title>
<g id="a_node18"><a xlink:href="classShapeId.html#a9b1580e3aa193c99d000aa084def3a70" target="_top" xlink:title="Returns the Shape ID&#39;s member name, if it has one, otherwise a null string.">
<polygon fill="white" stroke="#666666" points="994,-76 862,-76 862,-57 994,-57 994,-76"/>
<text text-anchor="middle" x="928" y="-64" font-family="Helvetica,sans-Serif" font-size="10.00">ShapeId::memberName</text>
</a>
</g>
</g>
<!-- Node16&#45;&gt;Node18 -->
<g id="edge22" class="edge">
<title>Node16&#45;&gt;Node18</title>
<path fill="none" stroke="#63b8ff" d="M641.25,-65.69C702.21,-65.86 791.25,-66.12 853.7,-66.29"/>
<polygon fill="#63b8ff" stroke="#63b8ff" points="861.94,-66.32 853.93,-69.89 857.94,-66.3 853.94,-66.29 853.94,-66.29 853.94,-66.29 857.94,-66.3 853.95,-62.69 861.94,-66.32 861.94,-66.32"/>
</g>
<!-- Node19 -->
<g id="node19" class="node">
<title>Node19</title>
<g id="a_node19"><a xlink:href="classShapeId.html#a8aad9a1383c03aee2f33b1568e89f688" target="_top" xlink:title="Returns the Shape ID&#39;s shape name, if it has one, otherwise a null string.">
<polygon fill="white" stroke="#666666" points="811.5,-19 691.5,-19 691.5,0 811.5,0 811.5,-19"/>
<text text-anchor="middle" x="751.5" y="-7" font-family="Helvetica,sans-Serif" font-size="10.00">ShapeId::shapeName</text>
</a>
</g>
</g>
<!-- Node16&#45;&gt;Node19 -->
<g id="edge23" class="edge">
<title>Node16&#45;&gt;Node19</title>
<path fill="none" stroke="#63b8ff" d="M603.51,-55.87C633.67,-46.36 679.88,-31.78 712.42,-21.51"/>
<polygon fill="#63b8ff" stroke="#63b8ff" points="720.38,-19 713.84,-24.84 716.57,-20.2 712.76,-21.41 712.76,-21.41 712.76,-21.41 716.57,-20.2 711.67,-17.97 720.38,-19 720.38,-19"/>
</g>
<!-- Node17&#45;&gt;Node3 -->
<g id="edge20" class="edge">
<title>Node17&#45;&gt;Node3</title>
<path fill="none" stroke="#63b8ff" d="M826.25,-93.11C841.1,-94.64 856.49,-96.23 870.63,-97.69"/>
<polygon fill="#63b8ff" stroke="#63b8ff" points="878.8,-98.53 870.48,-101.29 874.82,-98.12 870.84,-97.71 870.84,-97.71 870.84,-97.71 874.82,-98.12 871.21,-94.13 878.8,-98.53 878.8,-98.53"/>
</g>
<!-- Node17&#45;&gt;Node18 -->
<g id="edge21" class="edge">
<title>Node17&#45;&gt;Node18</title>
<path fill="none" stroke="#63b8ff" d="M826.25,-77.47C835.39,-76.47 844.73,-75.46 853.85,-74.46"/>
<polygon fill="#63b8ff" stroke="#63b8ff" points="861.81,-73.6 854.25,-78.04 857.83,-74.03 853.86,-74.46 853.86,-74.46 853.86,-74.46 857.83,-74.03 853.47,-70.89 861.81,-73.6 861.81,-73.6"/>
</g>
</g>
</svg>
