<?xml version="1.0" encoding="UTF-8" standalone="no"?>
<!DOCTYPE svg PUBLIC "-//W3C//DTD SVG 1.1//EN"
 "http://www.w3.org/Graphics/SVG/1.1/DTD/svg11.dtd">
<!-- Generated by graphviz version 2.43.0 (0)
 -->
<!-- Title: ShapeId::hasNameSpace Pages: 1 -->
<svg width="437pt" height="27pt"
 viewBox="0.00 0.00 437.00 27.00" xmlns="http://www.w3.org/2000/svg" xmlns:xlink="http://www.w3.org/1999/xlink">
<g id="graph0" class="graph" transform="scale(1 1) rotate(0) translate(4 23)">
<title>ShapeId::hasNameSpace</title>
<!-- Node1 -->
<g id="Node000001" class="node">
<title>Node1</title>
<g id="a_Node000001"><a xlink:title="Returns true if this Shape ID has a non&#45;empty namespace, otherwise false otherwise.">
<polygon fill="#999999" stroke="#666666" points="137,-19 0,-19 0,0 137,0 137,-19"/>
<text text-anchor="middle" x="68.5" y="-7" font-family="Helvetica,sans-Serif" font-size="10.00">ShapeId::hasNameSpace</text>
</a>
</g>
</g>
<!-- Node2 -->
<g id="Node000002" class="node">
<title>Node2</title>
<g id="a_Node000002"><a xlink:href="classShapeId.html#a0d88184bccd8dc5b22b67800aeccf092" target="_top" xlink:title="Returns the Shape ID&#39;s namespace, if it has one, otherwise a null string.">
<polygon fill="white" stroke="#666666" points="292,-19 173,-19 173,0 292,0 292,-19"/>
<text text-anchor="middle" x="232.5" y="-7" font-family="Helvetica,sans-Serif" font-size="10.00">ShapeId::nameSpace</text>
</a>
</g>
</g>
<!-- Node1&#45;&gt;Node2 -->
<g id="edge1_Node000001_Node000002" class="edge">
<title>Node1&#45;&gt;Node2</title>
<g id="a_edge1_Node000001_Node000002"><a xlink:title=" ">
<path fill="none" stroke="#63b8ff" d="M137.26,-9.5C146.29,-9.5 155.55,-9.5 164.56,-9.5"/>
<polygon fill="#63b8ff" stroke="#63b8ff" points="172.76,-9.5 164.76,-13.1 168.76,-9.5 164.76,-9.5 164.76,-9.5 164.76,-9.5 168.76,-9.5 164.76,-5.9 172.76,-9.5 172.76,-9.5"/>
</a>
</g>
</g>
<!-- Node3 -->
<g id="Node000003" class="node">
<title>Node3</title>
<g id="a_Node000003"><a xlink:href="classShapeId.html#a5c5ff0cc534bd3277f30a06dbf2587dd" target="_top" xlink:title="Constructs an empty ShapeId object.">
<polygon fill="white" stroke="#666666" points="429,-19 328,-19 328,0 429,0 429,-19"/>
<text text-anchor="middle" x="378.5" y="-7" font-family="Helvetica,sans-Serif" font-size="10.00">ShapeId::ShapeId</text>
</a>
</g>
</g>
<!-- Node2&#45;&gt;Node3 -->
<g id="edge2_Node000002_Node000003" class="edge">
<title>Node2&#45;&gt;Node3</title>
<g id="a_edge2_Node000002_Node000003"><a xlink:title=" ">
<path fill="none" stroke="#63b8ff" d="M292.07,-9.5C301.13,-9.5 310.49,-9.5 319.54,-9.5"/>
<polygon fill="#63b8ff" stroke="#63b8ff" points="327.74,-9.5 319.74,-13.1 323.74,-9.5 319.74,-9.5 319.74,-9.5 319.74,-9.5 323.74,-9.5 319.74,-5.9 327.74,-9.5 327.74,-9.5"/>
</a>
</g>
</g>
</g>
</svg>
