<?xml version="1.0" encoding="UTF-8" standalone="no"?>
<!DOCTYPE svg PUBLIC "-//W3C//DTD SVG 1.1//EN"
 "http://www.w3.org/Graphics/SVG/1.1/DTD/svg11.dtd">
<!-- Generated by graphviz version 2.43.0 (0)
 -->
<!-- Title: Model::insert Pages: 1 -->
<svg width="1002pt" height="452pt"
 viewBox="0.00 0.00 1002.00 452.37" xmlns="http://www.w3.org/2000/svg" xmlns:xlink="http://www.w3.org/1999/xlink">
<g id="graph0" class="graph" transform="scale(1 1) rotate(0) translate(4 448.37)">
<title>Model::insert</title>
<!-- Node1 -->
<g id="node1" class="node">
<title>Node1</title>
<g id="a_node1"><a xlink:title="Add the logical content of the JSON AST model file given by ast into this semantic model.">
<polygon fill="#999999" stroke="#666666" points="80,-223 0,-223 0,-204 80,-204 80,-223"/>
<text text-anchor="middle" x="40" y="-211" font-family="Helvetica,sans-Serif" font-size="10.00">Model::insert</text>
</a>
</g>
</g>
<!-- Node2 -->
<g id="node2" class="node">
<title>Node2</title>
<g id="a_node2"><a xlink:href="classShapeId.html#ad0bbf397b25b50a3fc9c145cea67ce11" target="_top" xlink:title="Returns true if this Shape ID has a non&#45;empty namespace, otherwise false otherwise.">
<polygon fill="white" stroke="#666666" points="640.5,-151 503.5,-151 503.5,-132 640.5,-132 640.5,-151"/>
<text text-anchor="middle" x="572" y="-139" font-family="Helvetica,sans-Serif" font-size="10.00">ShapeId::hasNameSpace</text>
</a>
</g>
</g>
<!-- Node1&#45;&gt;Node2 -->
<g id="edge1" class="edge">
<title>Node1&#45;&gt;Node2</title>
<path fill="none" stroke="#63b8ff" d="M41.87,-223.36C45.12,-253.39 59.43,-343.89 116,-380.5 246.97,-465.25 336.53,-466.02 467,-380.5 545.06,-329.34 564.84,-205.48 569.59,-159.27"/>
<polygon fill="#63b8ff" stroke="#63b8ff" points="570.35,-151.11 573.19,-159.41 569.98,-155.09 569.61,-159.08 569.61,-159.08 569.61,-159.08 569.98,-155.09 566.02,-158.74 570.35,-151.11 570.35,-151.11"/>
</g>
<!-- Node5 -->
<g id="node5" class="node">
<title>Node5</title>
<g id="a_node5"><a target="_parent" xlink:href="https://doc.qt.io/qt-5/qjsonvalue.html#isObject" xlink:title=" ">
<polygon fill="white" stroke="#666666" points="259.5,-371 142.5,-371 142.5,-352 259.5,-352 259.5,-371"/>
<text text-anchor="middle" x="201" y="-359" font-family="Helvetica,sans-Serif" font-size="10.00">QJsonValue::isObject</text>
</a>
</g>
</g>
<!-- Node1&#45;&gt;Node5 -->
<g id="edge4" class="edge">
<title>Node1&#45;&gt;Node5</title>
<path fill="none" stroke="#63b8ff" d="M43.6,-223.18C50.7,-247.61 72.82,-312.06 116,-343.5 121.55,-347.54 127.81,-350.71 134.36,-353.19"/>
<polygon fill="#63b8ff" stroke="#63b8ff" points="142.15,-355.79 133.42,-356.67 138.35,-354.52 134.56,-353.25 134.56,-353.25 134.56,-353.25 138.35,-354.52 135.7,-349.84 142.15,-355.79 142.15,-355.79"/>
</g>
<!-- Node6 -->
<g id="node6" class="node">
<title>Node6</title>
<g id="a_node6"><a xlink:href="classShapeId.html#a380944df9a71c1108ed5bdb459673a49" target="_top" xlink:title="Returns true if this object represents a valid, non&#45;empty Smithy Shape ID.">
<polygon fill="white" stroke="#666666" points="248,-334 154,-334 154,-315 248,-315 248,-334"/>
<text text-anchor="middle" x="201" y="-322" font-family="Helvetica,sans-Serif" font-size="10.00">ShapeId::isValid</text>
</a>
</g>
</g>
<!-- Node1&#45;&gt;Node6 -->
<g id="edge5" class="edge">
<title>Node1&#45;&gt;Node6</title>
<path fill="none" stroke="#63b8ff" d="M45.93,-223.08C56.2,-242.03 81.84,-284.34 116,-305.5 125.01,-311.08 135.48,-315.03 145.9,-317.82"/>
<polygon fill="#63b8ff" stroke="#63b8ff" points="153.84,-319.74 145.22,-321.36 149.95,-318.8 146.06,-317.86 146.06,-317.86 146.06,-317.86 149.95,-318.8 146.91,-314.36 153.84,-319.74 153.84,-319.74"/>
</g>
<!-- Node10 -->
<g id="node10" class="node">
<title>Node10</title>
<g id="a_node10"><a target="_parent" xlink:href="https://doc.qt.io/qt-5/qjsonobject.html#keys" xlink:title=" ">
<polygon fill="white" stroke="#666666" points="253,-297 149,-297 149,-278 253,-278 253,-297"/>
<text text-anchor="middle" x="201" y="-285" font-family="Helvetica,sans-Serif" font-size="10.00">QJsonObject::keys</text>
</a>
</g>
</g>
<!-- Node1&#45;&gt;Node10 -->
<g id="edge9" class="edge">
<title>Node1&#45;&gt;Node10</title>
<path fill="none" stroke="#63b8ff" d="M51.29,-223.23C64.97,-235.63 90.43,-256.85 116,-268.5 123.81,-272.06 132.35,-274.98 140.89,-277.37"/>
<polygon fill="#63b8ff" stroke="#63b8ff" points="148.71,-279.41 140.06,-280.87 144.84,-278.4 140.97,-277.39 140.97,-277.39 140.97,-277.39 144.84,-278.4 141.88,-273.9 148.71,-279.41 148.71,-279.41"/>
</g>
<!-- Node11 -->
<g id="node11" class="node">
<title>Node11</title>
<g id="a_node11"><a target="_parent" xlink:href="https://doc.qt.io/qt-5/qversionnumber.html#majorVersion" xlink:title=" ">
<polygon fill="white" stroke="#666666" points="286,-260 116,-260 116,-241 286,-241 286,-260"/>
<text text-anchor="middle" x="201" y="-248" font-family="Helvetica,sans-Serif" font-size="10.00">QVersionNumber::majorVersion</text>
</a>
</g>
</g>
<!-- Node1&#45;&gt;Node11 -->
<g id="edge10" class="edge">
<title>Node1&#45;&gt;Node11</title>
<path fill="none" stroke="#63b8ff" d="M80.29,-223.03C91.79,-225.79 104.39,-228.79 116,-231.5 126.78,-234.01 138.35,-236.66 149.35,-239.16"/>
<polygon fill="#63b8ff" stroke="#63b8ff" points="157.24,-240.94 148.64,-242.69 153.34,-240.06 149.44,-239.18 149.44,-239.18 149.44,-239.18 153.34,-240.06 150.23,-235.67 157.24,-240.94 157.24,-240.94"/>
</g>
<!-- Node12 -->
<g id="node12" class="node">
<title>Node12</title>
<g id="a_node12"><a xlink:href="classModel.html#a230e00c458f652c3fa9b447bdd672bdc" target="_top" xlink:title=" ">
<polygon fill="white" stroke="#666666" points="242,-223 160,-223 160,-204 242,-204 242,-223"/>
<text text-anchor="middle" x="201" y="-211" font-family="Helvetica,sans-Serif" font-size="10.00">Model::shape</text>
</a>
</g>
</g>
<!-- Node1&#45;&gt;Node12 -->
<g id="edge11" class="edge">
<title>Node1&#45;&gt;Node12</title>
<path fill="none" stroke="#63b8ff" d="M80.3,-213.5C101.84,-213.5 128.73,-213.5 151.56,-213.5"/>
<polygon fill="#63b8ff" stroke="#63b8ff" points="159.77,-213.5 151.77,-217.1 155.77,-213.5 151.77,-213.5 151.77,-213.5 151.77,-213.5 155.77,-213.5 151.77,-209.9 159.77,-213.5 159.77,-213.5"/>
</g>
<!-- Node13 -->
<g id="node13" class="node">
<title>Node13</title>
<g id="a_node13"><a xlink:href="classModel.html#a006b5ee757212e9de1f564ebcdfab91d" target="_top" xlink:title=" ">
<polygon fill="white" stroke="#666666" points="244.5,-168 157.5,-168 157.5,-149 244.5,-149 244.5,-168"/>
<text text-anchor="middle" x="201" y="-156" font-family="Helvetica,sans-Serif" font-size="10.00">Model::shapes</text>
</a>
</g>
</g>
<!-- Node1&#45;&gt;Node13 -->
<g id="edge12" class="edge">
<title>Node1&#45;&gt;Node13</title>
<path fill="none" stroke="#63b8ff" d="M68.7,-203.92C95.29,-194.72 135.58,-180.78 164.52,-170.77"/>
<polygon fill="#63b8ff" stroke="#63b8ff" points="172.36,-168.06 165.97,-174.08 168.58,-169.37 164.79,-170.68 164.79,-170.68 164.79,-170.68 168.58,-169.37 163.62,-167.28 172.36,-168.06 172.36,-168.06"/>
</g>
<!-- Node14 -->
<g id="node14" class="node">
<title>Node14</title>
<g id="a_node14"><a target="_parent" xlink:href="https://doc.qt.io/qt-5/qjsonvalue.html#toObject-1" xlink:title=" ">
<polygon fill="white" stroke="#666666" points="260.5,-131 141.5,-131 141.5,-112 260.5,-112 260.5,-131"/>
<text text-anchor="middle" x="201" y="-119" font-family="Helvetica,sans-Serif" font-size="10.00">QJsonValue::toObject</text>
</a>
</g>
</g>
<!-- Node1&#45;&gt;Node14 -->
<g id="edge14" class="edge">
<title>Node1&#45;&gt;Node14</title>
<path fill="none" stroke="#63b8ff" d="M47.85,-203.81C59.75,-187.74 85.9,-155.75 116,-139.5 121.44,-136.56 127.33,-134.1 133.37,-132.05"/>
<polygon fill="#63b8ff" stroke="#63b8ff" points="141.09,-129.65 134.51,-135.46 137.27,-130.84 133.45,-132.02 133.45,-132.02 133.45,-132.02 137.27,-130.84 132.38,-128.58 141.09,-129.65 141.09,-129.65"/>
</g>
<!-- Node15 -->
<g id="node15" class="node">
<title>Node15</title>
<g id="a_node15"><a xlink:href="classShapeId.html#a564f14952b394af6b38f748417a7e48a" target="_top" xlink:title="Returns this object as an absolute Smithy Shape ID if this object has a namespace,...">
<polygon fill="white" stroke="#666666" points="251,-94 151,-94 151,-75 251,-75 251,-94"/>
<text text-anchor="middle" x="201" y="-82" font-family="Helvetica,sans-Serif" font-size="10.00">ShapeId::toString</text>
</a>
</g>
</g>
<!-- Node1&#45;&gt;Node15 -->
<g id="edge15" class="edge">
<title>Node1&#45;&gt;Node15</title>
<path fill="none" stroke="#63b8ff" d="M44.53,-203.95C53.12,-182.17 77.26,-128.66 116,-102.5 124.02,-97.09 133.36,-93.26 142.85,-90.57"/>
<polygon fill="#63b8ff" stroke="#63b8ff" points="150.82,-88.56 143.94,-94.01 146.94,-89.54 143.06,-90.51 143.06,-90.51 143.06,-90.51 146.94,-89.54 142.18,-87.02 150.82,-88.56 150.82,-88.56"/>
</g>
<!-- Node21 -->
<g id="node21" class="node">
<title>Node21</title>
<g id="a_node21"><a target="_parent" xlink:href="https://doc.qt.io/qt-5/qversionnumber.html#toString" xlink:title=" ">
<polygon fill="white" stroke="#666666" points="272.5,-57 129.5,-57 129.5,-38 272.5,-38 272.5,-57"/>
<text text-anchor="middle" x="201" y="-45" font-family="Helvetica,sans-Serif" font-size="10.00">QVersionNumber::toString</text>
</a>
</g>
</g>
<!-- Node1&#45;&gt;Node21 -->
<g id="edge27" class="edge">
<title>Node1&#45;&gt;Node21</title>
<path fill="none" stroke="#63b8ff" d="M42.92,-203.7C48.69,-176.92 68.54,-102.07 116,-65.5 118.19,-63.82 120.49,-62.28 122.9,-60.88"/>
<polygon fill="#63b8ff" stroke="#63b8ff" points="130.35,-57.09 124.86,-63.92 126.79,-58.9 123.23,-60.72 123.23,-60.72 123.23,-60.72 126.79,-58.9 121.59,-57.51 130.35,-57.09 130.35,-57.09"/>
</g>
<!-- Node22 -->
<g id="node22" class="node">
<title>Node22</title>
<g id="a_node22"><a target="_parent" xlink:href="https://doc.qt.io/qt-5/qjsonobject.html#value" xlink:title=" ">
<polygon fill="white" stroke="#666666" points="255.5,-20 146.5,-20 146.5,-1 255.5,-1 255.5,-20"/>
<text text-anchor="middle" x="201" y="-8" font-family="Helvetica,sans-Serif" font-size="10.00">QJsonObject::value</text>
</a>
</g>
</g>
<!-- Node1&#45;&gt;Node22 -->
<g id="edge28" class="edge">
<title>Node1&#45;&gt;Node22</title>
<path fill="none" stroke="#63b8ff" d="M41.85,-203.61C45.09,-172.52 59.46,-75.96 116,-28.5 122.49,-23.05 130.24,-19.13 138.37,-16.34"/>
<polygon fill="#63b8ff" stroke="#63b8ff" points="146.25,-13.98 139.62,-19.72 142.42,-15.13 138.59,-16.27 138.59,-16.27 138.59,-16.27 142.42,-15.13 137.56,-12.82 146.25,-13.98 146.25,-13.98"/>
</g>
<!-- Node3 -->
<g id="node3" class="node">
<title>Node3</title>
<g id="a_node3"><a target="_parent" xlink:href="https://doc.qt.io/qt-5/qstring.html#isEmpty" xlink:title=" ">
<polygon fill="white" stroke="#666666" points="977,-113 879,-113 879,-94 977,-94 977,-113"/>
<text text-anchor="middle" x="928" y="-101" font-family="Helvetica,sans-Serif" font-size="10.00">QString::isEmpty</text>
</a>
</g>
</g>
<!-- Node2&#45;&gt;Node3 -->
<g id="edge2" class="edge">
<title>Node2&#45;&gt;Node3</title>
<path fill="none" stroke="#63b8ff" d="M640.69,-147.54C691.98,-150.6 763.96,-151.63 826,-140.5 851.8,-135.87 879.67,-125.19 899.59,-116.49"/>
<polygon fill="#63b8ff" stroke="#63b8ff" points="907.07,-113.15 901.24,-119.7 903.42,-114.78 899.77,-116.41 899.77,-116.41 899.77,-116.41 903.42,-114.78 898.3,-113.13 907.07,-113.15 907.07,-113.15"/>
</g>
<!-- Node4 -->
<g id="node4" class="node">
<title>Node4</title>
<g id="a_node4"><a xlink:href="classShapeId.html#a0d88184bccd8dc5b22b67800aeccf092" target="_top" xlink:title="Returns the Shape ID&#39;s namespace, if it has one, otherwise a null string.">
<polygon fill="white" stroke="#666666" points="811,-132 692,-132 692,-113 811,-113 811,-132"/>
<text text-anchor="middle" x="751.5" y="-120" font-family="Helvetica,sans-Serif" font-size="10.00">ShapeId::nameSpace</text>
</a>
</g>
</g>
<!-- Node2&#45;&gt;Node4 -->
<g id="edge3" class="edge">
<title>Node2&#45;&gt;Node4</title>
<path fill="none" stroke="#63b8ff" d="M640.61,-134.26C654.7,-132.75 669.54,-131.17 683.6,-129.66"/>
<polygon fill="#63b8ff" stroke="#63b8ff" points="691.78,-128.79 684.2,-133.22 687.8,-129.21 683.82,-129.64 683.82,-129.64 683.82,-129.64 687.8,-129.21 683.44,-126.06 691.78,-128.79 691.78,-128.79"/>
</g>
<!-- Node7 -->
<g id="node7" class="node">
<title>Node7</title>
<g id="a_node7"><a target="_parent" xlink:href="https://doc.qt.io/qt-5/qregularexpressionmatch.html#hasMatch" xlink:title=" ">
<polygon fill="white" stroke="#666666" points="467,-371.5 322,-371.5 322,-341.5 467,-341.5 467,-371.5"/>
<text text-anchor="start" x="330" y="-359.5" font-family="Helvetica,sans-Serif" font-size="10.00">QRegularExpressionMatch</text>
<text text-anchor="middle" x="394.5" y="-348.5" font-family="Helvetica,sans-Serif" font-size="10.00">::hasMatch</text>
</a>
</g>
</g>
<!-- Node6&#45;&gt;Node7 -->
<g id="edge6" class="edge">
<title>Node6&#45;&gt;Node7</title>
<path fill="none" stroke="#63b8ff" d="M248.36,-332.25C267.98,-335.52 291.4,-339.44 313.65,-343.16"/>
<polygon fill="#63b8ff" stroke="#63b8ff" points="321.79,-344.52 313.3,-346.75 317.84,-343.86 313.9,-343.2 313.9,-343.2 313.9,-343.2 317.84,-343.86 314.49,-339.65 321.79,-344.52 321.79,-344.52"/>
</g>
<!-- Node8 -->
<g id="node8" class="node">
<title>Node8</title>
<g id="a_node8"><a target="_parent" xlink:href="https://doc.qt.io/qt-5/qregularexpression.html#isValid" xlink:title=" ">
<polygon fill="white" stroke="#666666" points="452,-323.5 337,-323.5 337,-293.5 452,-293.5 452,-323.5"/>
<text text-anchor="start" x="345" y="-311.5" font-family="Helvetica,sans-Serif" font-size="10.00">QRegularExpression</text>
<text text-anchor="middle" x="394.5" y="-300.5" font-family="Helvetica,sans-Serif" font-size="10.00">::isValid</text>
</a>
</g>
</g>
<!-- Node6&#45;&gt;Node8 -->
<g id="edge7" class="edge">
<title>Node6&#45;&gt;Node8</title>
<path fill="none" stroke="#63b8ff" d="M248.36,-320.63C272.53,-318.61 302.49,-316.1 328.91,-313.9"/>
<polygon fill="#63b8ff" stroke="#63b8ff" points="336.98,-313.22 329.31,-317.48 332.99,-313.56 329.01,-313.89 329.01,-313.89 329.01,-313.89 332.99,-313.56 328.71,-310.3 336.98,-313.22 336.98,-313.22"/>
</g>
<!-- Node9 -->
<g id="node9" class="node">
<title>Node9</title>
<g id="a_node9"><a target="_parent" xlink:href="https://doc.qt.io/qt-5/qregularexpression.html#match" xlink:title=" ">
<polygon fill="white" stroke="#666666" points="452,-275.5 337,-275.5 337,-245.5 452,-245.5 452,-275.5"/>
<text text-anchor="start" x="345" y="-263.5" font-family="Helvetica,sans-Serif" font-size="10.00">QRegularExpression</text>
<text text-anchor="middle" x="394.5" y="-252.5" font-family="Helvetica,sans-Serif" font-size="10.00">::match</text>
</a>
</g>
</g>
<!-- Node6&#45;&gt;Node9 -->
<g id="edge8" class="edge">
<title>Node6&#45;&gt;Node9</title>
<path fill="none" stroke="#63b8ff" d="M248.1,-316.73C260.63,-313.9 274.04,-310.21 286,-305.5 303.23,-298.71 305.13,-292.15 322,-284.5 326.62,-282.41 331.47,-280.4 336.39,-278.49"/>
<polygon fill="#63b8ff" stroke="#63b8ff" points="344.14,-275.59 337.91,-281.77 340.39,-276.99 336.65,-278.4 336.65,-278.4 336.65,-278.4 340.39,-276.99 335.39,-275.02 344.14,-275.59 344.14,-275.59"/>
</g>
<!-- Node13&#45;&gt;Node13 -->
<g id="edge13" class="edge">
<title>Node13&#45;&gt;Node13</title>
<path fill="none" stroke="#63b8ff" d="M176.34,-168.08C164.34,-176.73 172.56,-186 201,-186 222.33,-186 232.28,-180.79 230.87,-174.53"/>
<polygon fill="#63b8ff" stroke="#63b8ff" points="225.66,-168.08 233.49,-172.05 228.17,-171.2 230.69,-174.31 230.69,-174.31 230.69,-174.31 228.17,-171.2 227.89,-176.57 225.66,-168.08 225.66,-168.08"/>
</g>
<!-- Node15&#45;&gt;Node2 -->
<g id="edge25" class="edge">
<title>Node15&#45;&gt;Node2</title>
<path fill="none" stroke="#63b8ff" d="M251.06,-92.65C262.69,-95.22 274.93,-98.48 286,-102.5 303,-108.68 304.63,-116.45 322,-121.5 378.51,-137.93 445.07,-142.56 495.15,-143.28"/>
<polygon fill="#63b8ff" stroke="#63b8ff" points="503.36,-143.37 495.32,-146.89 499.36,-143.33 495.36,-143.29 495.36,-143.29 495.36,-143.29 499.36,-143.33 495.4,-139.69 503.36,-143.37 503.36,-143.37"/>
</g>
<!-- Node16 -->
<g id="node16" class="node">
<title>Node16</title>
<g id="a_node16"><a xlink:href="classShapeId.html#a42ae1231e4d242958ab12e61504e33ca" target="_top" xlink:title="Returns this object as an absolute Smithy Shape ID if this object has a namespace,...">
<polygon fill="white" stroke="#666666" points="466,-113 323,-113 323,-94 466,-94 466,-113"/>
<text text-anchor="middle" x="394.5" y="-101" font-family="Helvetica,sans-Serif" font-size="10.00">ShapeId::absoluteShapeId</text>
</a>
</g>
</g>
<!-- Node15&#45;&gt;Node16 -->
<g id="edge16" class="edge">
<title>Node15&#45;&gt;Node16</title>
<path fill="none" stroke="#63b8ff" d="M251.32,-89.39C270.58,-91.3 293.14,-93.54 314.55,-95.67"/>
<polygon fill="#63b8ff" stroke="#63b8ff" points="322.69,-96.47 314.38,-99.27 318.71,-96.08 314.73,-95.68 314.73,-95.68 314.73,-95.68 318.71,-96.08 315.09,-92.1 322.69,-96.47 322.69,-96.47"/>
</g>
<!-- Node17 -->
<g id="node17" class="node">
<title>Node17</title>
<g id="a_node17"><a xlink:href="classShapeId.html#aad508460b545930c3aeb82021e79de5a" target="_top" xlink:title="Returns this object as a relative Smithy Shape ID, that one without a leading namespace.">
<polygon fill="white" stroke="#666666" points="641,-75 503,-75 503,-56 641,-56 641,-75"/>
<text text-anchor="middle" x="572" y="-63" font-family="Helvetica,sans-Serif" font-size="10.00">ShapeId::relativeShapeId</text>
</a>
</g>
</g>
<!-- Node15&#45;&gt;Node17 -->
<g id="edge26" class="edge">
<title>Node15&#45;&gt;Node17</title>
<path fill="none" stroke="#63b8ff" d="M251,-81.98C313.29,-78.77 421.52,-73.2 494.67,-69.43"/>
<polygon fill="#63b8ff" stroke="#63b8ff" points="502.97,-69 495.16,-73.01 498.97,-69.21 494.98,-69.41 494.98,-69.41 494.98,-69.41 498.97,-69.21 494.79,-65.82 502.97,-69 502.97,-69"/>
</g>
<!-- Node16&#45;&gt;Node2 -->
<g id="edge17" class="edge">
<title>Node16&#45;&gt;Node2</title>
<path fill="none" stroke="#63b8ff" d="M439.79,-113.09C463.88,-118.31 493.83,-124.79 519.03,-130.25"/>
<polygon fill="#63b8ff" stroke="#63b8ff" points="527.03,-131.98 518.45,-133.81 523.12,-131.13 519.21,-130.29 519.21,-130.29 519.21,-130.29 523.12,-131.13 519.98,-126.77 527.03,-131.98 527.03,-131.98"/>
</g>
<!-- Node16&#45;&gt;Node4 -->
<g id="edge18" class="edge">
<title>Node16&#45;&gt;Node4</title>
<path fill="none" stroke="#63b8ff" d="M466.06,-107.28C529.34,-110.66 621.53,-115.6 683.65,-118.92"/>
<polygon fill="#63b8ff" stroke="#63b8ff" points="691.83,-119.36 683.65,-122.53 687.83,-119.15 683.84,-118.93 683.84,-118.93 683.84,-118.93 687.83,-119.15 684.03,-115.34 691.83,-119.36 691.83,-119.36"/>
</g>
<!-- Node16&#45;&gt;Node17 -->
<g id="edge19" class="edge">
<title>Node16&#45;&gt;Node17</title>
<path fill="none" stroke="#63b8ff" d="M439.79,-93.91C463.88,-88.69 493.83,-82.21 519.03,-76.75"/>
<polygon fill="#63b8ff" stroke="#63b8ff" points="527.03,-75.02 519.98,-80.23 523.12,-75.87 519.21,-76.71 519.21,-76.71 519.21,-76.71 523.12,-75.87 518.45,-73.19 527.03,-75.02 527.03,-75.02"/>
</g>
<!-- Node18 -->
<g id="node18" class="node">
<title>Node18</title>
<g id="a_node18"><a xlink:href="classShapeId.html#a6f1fc0aab99d0108fc3f1eeb5a4d2687" target="_top" xlink:title="Returns true if this Shape ID has a non&#45;empty member name, otherwise false otherwise.">
<polygon fill="white" stroke="#666666" points="826,-95 677,-95 677,-76 826,-76 826,-95"/>
<text text-anchor="middle" x="751.5" y="-83" font-family="Helvetica,sans-Serif" font-size="10.00">ShapeId::hasMemberName</text>
</a>
</g>
</g>
<!-- Node17&#45;&gt;Node18 -->
<g id="edge20" class="edge">
<title>Node17&#45;&gt;Node18</title>
<path fill="none" stroke="#63b8ff" d="M641.12,-73.18C650.19,-74.2 659.57,-75.25 668.85,-76.3"/>
<polygon fill="#63b8ff" stroke="#63b8ff" points="676.96,-77.21 668.61,-79.9 672.98,-76.77 669.01,-76.32 669.01,-76.32 669.01,-76.32 672.98,-76.77 669.41,-72.74 676.96,-77.21 676.96,-77.21"/>
</g>
<!-- Node19 -->
<g id="node19" class="node">
<title>Node19</title>
<g id="a_node19"><a xlink:href="classShapeId.html#a9b1580e3aa193c99d000aa084def3a70" target="_top" xlink:title="Returns the Shape ID&#39;s member name, if it has one, otherwise a null string.">
<polygon fill="white" stroke="#666666" points="994,-76 862,-76 862,-57 994,-57 994,-76"/>
<text text-anchor="middle" x="928" y="-64" font-family="Helvetica,sans-Serif" font-size="10.00">ShapeId::memberName</text>
</a>
</g>
</g>
<!-- Node17&#45;&gt;Node19 -->
<g id="edge23" class="edge">
<title>Node17&#45;&gt;Node19</title>
<path fill="none" stroke="#63b8ff" d="M641.25,-65.69C702.21,-65.86 791.25,-66.12 853.7,-66.29"/>
<polygon fill="#63b8ff" stroke="#63b8ff" points="861.94,-66.32 853.93,-69.89 857.94,-66.3 853.94,-66.29 853.94,-66.29 853.94,-66.29 857.94,-66.3 853.95,-62.69 861.94,-66.32 861.94,-66.32"/>
</g>
<!-- Node20 -->
<g id="node20" class="node">
<title>Node20</title>
<g id="a_node20"><a xlink:href="classShapeId.html#a8aad9a1383c03aee2f33b1568e89f688" target="_top" xlink:title="Returns the Shape ID&#39;s shape name, if it has one, otherwise a null string.">
<polygon fill="white" stroke="#666666" points="811.5,-19 691.5,-19 691.5,0 811.5,0 811.5,-19"/>
<text text-anchor="middle" x="751.5" y="-7" font-family="Helvetica,sans-Serif" font-size="10.00">ShapeId::shapeName</text>
</a>
</g>
</g>
<!-- Node17&#45;&gt;Node20 -->
<g id="edge24" class="edge">
<title>Node17&#45;&gt;Node20</title>
<path fill="none" stroke="#63b8ff" d="M603.51,-55.87C633.67,-46.36 679.88,-31.78 712.42,-21.51"/>
<polygon fill="#63b8ff" stroke="#63b8ff" points="720.38,-19 713.84,-24.84 716.57,-20.2 712.76,-21.41 712.76,-21.41 712.76,-21.41 716.57,-20.2 711.67,-17.97 720.38,-19 720.38,-19"/>
</g>
<!-- Node18&#45;&gt;Node3 -->
<g id="edge21" class="edge">
<title>Node18&#45;&gt;Node3</title>
<path fill="none" stroke="#63b8ff" d="M826.25,-93.11C841.1,-94.64 856.49,-96.23 870.63,-97.69"/>
<polygon fill="#63b8ff" stroke="#63b8ff" points="878.8,-98.53 870.48,-101.29 874.82,-98.12 870.84,-97.71 870.84,-97.71 870.84,-97.71 874.82,-98.12 871.21,-94.13 878.8,-98.53 878.8,-98.53"/>
</g>
<!-- Node18&#45;&gt;Node19 -->
<g id="edge22" class="edge">
<title>Node18&#45;&gt;Node19</title>
<path fill="none" stroke="#63b8ff" d="M826.25,-77.47C835.39,-76.47 844.73,-75.46 853.85,-74.46"/>
<polygon fill="#63b8ff" stroke="#63b8ff" points="861.81,-73.6 854.25,-78.04 857.83,-74.03 853.86,-74.46 853.86,-74.46 853.86,-74.46 857.83,-74.03 853.47,-70.89 861.81,-73.6 861.81,-73.6"/>
</g>
</g>
</svg>
