<?xml version="1.0" encoding="UTF-8" standalone="no"?>
<!DOCTYPE svg PUBLIC "-//W3C//DTD SVG 1.1//EN"
 "http://www.w3.org/Graphics/SVG/1.1/DTD/svg11.dtd">
<!-- Generated by graphviz version 2.43.0 (0)
 -->
<!-- Title: Model::shape Pages: 1 -->
<svg width="209pt" height="45pt"
 viewBox="0.00 0.00 209.00 45.00" xmlns="http://www.w3.org/2000/svg" xmlns:xlink="http://www.w3.org/1999/xlink">
<g id="graph0" class="graph" transform="scale(1 1) rotate(0) translate(4 41)">
<title>Model::shape</title>
<!-- Node1 -->
<g id="Node000001" class="node">
<title>Node1</title>
<g id="a_Node000001"><a xlink:title=" ">
<polygon fill="#999999" stroke="#666666" points="82,-19 0,-19 0,0 82,0 82,-19"/>
<text text-anchor="middle" x="41" y="-7" font-family="Helvetica,sans-Serif" font-size="10.00">Model::shape</text>
</a>
</g>
</g>
<!-- Node2 -->
<g id="Node000002" class="node">
<title>Node2</title>
<g id="a_Node000002"><a xlink:href="classModel.html#ae3b375de5f6df4faf74a95d64748e048" target="_top" xlink:title="Constructs a new, empty Smithy model.">
<polygon fill="white" stroke="#666666" points="201,-19 118,-19 118,0 201,0 201,-19"/>
<text text-anchor="middle" x="159.5" y="-7" font-family="Helvetica,sans-Serif" font-size="10.00">Model::Model</text>
</a>
</g>
</g>
<!-- Node1&#45;&gt;Node2 -->
<g id="edge1_Node000001_Node000002" class="edge">
<title>Node1&#45;&gt;Node2</title>
<g id="a_edge1_Node000001_Node000002"><a xlink:title=" ">
<path fill="none" stroke="#63b8ff" d="M82.09,-9.5C91.05,-9.5 100.65,-9.5 109.91,-9.5"/>
<polygon fill="#63b8ff" stroke="#63b8ff" points="117.94,-9.5 109.94,-13.1 113.94,-9.5 109.94,-9.5 109.94,-9.5 109.94,-9.5 113.94,-9.5 109.94,-5.9 117.94,-9.5 117.94,-9.5"/>
</a>
</g>
</g>
<!-- Node2&#45;&gt;Node2 -->
<g id="edge2_Node000002_Node000002" class="edge">
<title>Node2&#45;&gt;Node2</title>
<g id="a_edge2_Node000002_Node000002"><a xlink:title=" ">
<path fill="none" stroke="#63b8ff" d="M141.31,-19.08C132.46,-27.73 138.53,-37 159.5,-37 174.57,-37 181.95,-32.21 181.61,-26.31"/>
<polygon fill="#63b8ff" stroke="#63b8ff" points="177.69,-19.08 184.67,-24.39 179.6,-22.6 181.51,-26.11 181.51,-26.11 181.51,-26.11 179.6,-22.6 178.34,-27.83 177.69,-19.08 177.69,-19.08"/>
</a>
</g>
</g>
</g>
</svg>
