<?xml version="1.0" encoding="UTF-8" standalone="no"?>
<!DOCTYPE svg PUBLIC "-//W3C//DTD SVG 1.1//EN"
 "http://www.w3.org/Graphics/SVG/1.1/DTD/svg11.dtd">
<!-- Generated by graphviz version 2.43.0 (0)
 -->
<!-- Title: ShapeId::isAbsoluteRootShapeId Pages: 1 -->
<svg width="845pt" height="64pt"
 viewBox="0.00 0.00 845.00 64.00" xmlns="http://www.w3.org/2000/svg" xmlns:xlink="http://www.w3.org/1999/xlink">
<g id="graph0" class="graph" transform="scale(1 1) rotate(0) translate(4 60)">
<title>ShapeId::isAbsoluteRootShapeId</title>
<!-- Node1 -->
<g id="Node000001" class="node">
<title>Node1</title>
<g id="a_Node000001"><a xlink:title="Returns true if this Shape ID is a root Shape ID, and has a namespace, false otherwise.">
<polygon fill="#999999" stroke="#666666" points="174,-37 0,-37 0,-18 174,-18 174,-37"/>
<text text-anchor="middle" x="87" y="-25" font-family="Helvetica,sans-Serif" font-size="10.00">ShapeId::isAbsoluteRootShapeId</text>
</a>
</g>
</g>
<!-- Node2 -->
<g id="Node000002" class="node">
<title>Node2</title>
<g id="a_Node000002"><a xlink:href="classShapeId.html#ad0bbf397b25b50a3fc9c145cea67ce11" target="_top" xlink:title="Returns true if this Shape ID has a non&#45;empty namespace, otherwise false otherwise.">
<polygon fill="white" stroke="#666666" points="347,-56 210,-56 210,-37 347,-37 347,-56"/>
<text text-anchor="middle" x="278.5" y="-44" font-family="Helvetica,sans-Serif" font-size="10.00">ShapeId::hasNameSpace</text>
</a>
</g>
</g>
<!-- Node1&#45;&gt;Node2 -->
<g id="edge1_Node000001_Node000002" class="edge">
<title>Node1&#45;&gt;Node2</title>
<g id="a_edge1_Node000001_Node000002"><a xlink:title=" ">
<path fill="none" stroke="#63b8ff" d="M174.16,-36.14C183.29,-37.05 192.53,-37.98 201.53,-38.88"/>
<polygon fill="#63b8ff" stroke="#63b8ff" points="209.72,-39.7 201.41,-42.49 205.74,-39.31 201.76,-38.91 201.76,-38.91 201.76,-38.91 205.74,-39.31 202.12,-35.32 209.72,-39.7 209.72,-39.7"/>
</a>
</g>
</g>
<!-- Node5 -->
<g id="Node000005" class="node">
<title>Node5</title>
<g id="a_Node000005"><a xlink:href="classShapeId.html#a6b207fdb20ccc922e4e2bbbfb9608bbc" target="_top" xlink:title="Returns true if this Shape ID is a root Shape ID, false otherwise.">
<polygon fill="white" stroke="#666666" points="344,-19 213,-19 213,0 344,0 344,-19"/>
<text text-anchor="middle" x="278.5" y="-7" font-family="Helvetica,sans-Serif" font-size="10.00">ShapeId::isRootShapeId</text>
</a>
</g>
</g>
<!-- Node1&#45;&gt;Node5 -->
<g id="edge4_Node000001_Node000005" class="edge">
<title>Node1&#45;&gt;Node5</title>
<g id="a_edge4_Node000001_Node000005"><a xlink:title=" ">
<path fill="none" stroke="#63b8ff" d="M174.16,-19.32C184.42,-18.34 194.81,-17.35 204.86,-16.4"/>
<polygon fill="#63b8ff" stroke="#63b8ff" points="212.83,-15.64 205.21,-19.98 208.85,-16.02 204.86,-16.4 204.86,-16.4 204.86,-16.4 208.85,-16.02 204.52,-12.82 212.83,-15.64 212.83,-15.64"/>
</a>
</g>
</g>
<!-- Node3 -->
<g id="Node000003" class="node">
<title>Node3</title>
<g id="a_Node000003"><a xlink:href="classShapeId.html#a0d88184bccd8dc5b22b67800aeccf092" target="_top" xlink:title="Returns the Shape ID&#39;s namespace, if it has one, otherwise a null string.">
<polygon fill="white" stroke="#666666" points="693.5,-56 574.5,-56 574.5,-37 693.5,-37 693.5,-56"/>
<text text-anchor="middle" x="634" y="-44" font-family="Helvetica,sans-Serif" font-size="10.00">ShapeId::nameSpace</text>
</a>
</g>
</g>
<!-- Node2&#45;&gt;Node3 -->
<g id="edge2_Node000002_Node000003" class="edge">
<title>Node2&#45;&gt;Node3</title>
<g id="a_edge2_Node000002_Node000003"><a xlink:title=" ">
<path fill="none" stroke="#63b8ff" d="M347.24,-46.5C410.17,-46.5 503.35,-46.5 566.03,-46.5"/>
<polygon fill="#63b8ff" stroke="#63b8ff" points="574.29,-46.5 566.29,-50.1 570.29,-46.5 566.29,-46.5 566.29,-46.5 566.29,-46.5 570.29,-46.5 566.29,-42.9 574.29,-46.5 574.29,-46.5"/>
</a>
</g>
</g>
<!-- Node4 -->
<g id="Node000004" class="node">
<title>Node4</title>
<g id="a_Node000004"><a xlink:href="classShapeId.html#a5c5ff0cc534bd3277f30a06dbf2587dd" target="_top" xlink:title="Constructs an empty ShapeId object.">
<polygon fill="white" stroke="#666666" points="837,-37 736,-37 736,-18 837,-18 837,-37"/>
<text text-anchor="middle" x="786.5" y="-25" font-family="Helvetica,sans-Serif" font-size="10.00">ShapeId::ShapeId</text>
</a>
</g>
</g>
<!-- Node3&#45;&gt;Node4 -->
<g id="edge3_Node000003_Node000004" class="edge">
<title>Node3&#45;&gt;Node4</title>
<g id="a_edge3_Node000003_Node000004"><a xlink:title=" ">
<path fill="none" stroke="#63b8ff" d="M693.62,-39.1C704.78,-37.69 716.45,-36.22 727.58,-34.81"/>
<polygon fill="#63b8ff" stroke="#63b8ff" points="735.58,-33.8 728.1,-38.38 731.61,-34.3 727.64,-34.8 727.64,-34.8 727.64,-34.8 731.61,-34.3 727.19,-31.23 735.58,-33.8 735.58,-33.8"/>
</a>
</g>
</g>
<!-- Node6 -->
<g id="Node000006" class="node">
<title>Node6</title>
<g id="a_Node000006"><a xlink:href="classShapeId.html#a6f1fc0aab99d0108fc3f1eeb5a4d2687" target="_top" xlink:title="Returns true if this Shape ID has a non&#45;empty member name, otherwise false otherwise.">
<polygon fill="white" stroke="#666666" points="532,-19 383,-19 383,0 532,0 532,-19"/>
<text text-anchor="middle" x="457.5" y="-7" font-family="Helvetica,sans-Serif" font-size="10.00">ShapeId::hasMemberName</text>
</a>
</g>
</g>
<!-- Node5&#45;&gt;Node6 -->
<g id="edge5_Node000005_Node000006" class="edge">
<title>Node5&#45;&gt;Node6</title>
<g id="a_edge5_Node000005_Node000006"><a xlink:title=" ">
<path fill="none" stroke="#63b8ff" d="M344.15,-9.5C354.05,-9.5 364.37,-9.5 374.58,-9.5"/>
<polygon fill="#63b8ff" stroke="#63b8ff" points="382.74,-9.5 374.74,-13.1 378.74,-9.5 374.74,-9.5 374.74,-9.5 374.74,-9.5 378.74,-9.5 374.74,-5.9 382.74,-9.5 382.74,-9.5"/>
</a>
</g>
</g>
<!-- Node7 -->
<g id="Node000007" class="node">
<title>Node7</title>
<g id="a_Node000007"><a xlink:href="classShapeId.html#a9b1580e3aa193c99d000aa084def3a70" target="_top" xlink:title="Returns the Shape ID&#39;s member name, if it has one, otherwise a null string.">
<polygon fill="white" stroke="#666666" points="700,-19 568,-19 568,0 700,0 700,-19"/>
<text text-anchor="middle" x="634" y="-7" font-family="Helvetica,sans-Serif" font-size="10.00">ShapeId::memberName</text>
</a>
</g>
</g>
<!-- Node6&#45;&gt;Node7 -->
<g id="edge6_Node000006_Node000007" class="edge">
<title>Node6&#45;&gt;Node7</title>
<g id="a_edge6_Node000006_Node000007"><a xlink:title=" ">
<path fill="none" stroke="#63b8ff" d="M532.25,-9.5C541.3,-9.5 550.54,-9.5 559.58,-9.5"/>
<polygon fill="#63b8ff" stroke="#63b8ff" points="567.81,-9.5 559.81,-13.1 563.81,-9.5 559.81,-9.5 559.81,-9.5 559.81,-9.5 563.81,-9.5 559.81,-5.9 567.81,-9.5 567.81,-9.5"/>
</a>
</g>
</g>
<!-- Node7&#45;&gt;Node4 -->
<g id="edge7_Node000007_Node000004" class="edge">
<title>Node7&#45;&gt;Node4</title>
<g id="a_edge7_Node000007_Node000004"><a xlink:title=" ">
<path fill="none" stroke="#63b8ff" d="M700.14,-17.29C709.26,-18.38 718.59,-19.5 727.56,-20.57"/>
<polygon fill="#63b8ff" stroke="#63b8ff" points="735.69,-21.54 727.32,-24.17 731.72,-21.07 727.75,-20.59 727.75,-20.59 727.75,-20.59 731.72,-21.07 728.18,-17.02 735.69,-21.54 735.69,-21.54"/>
</a>
</g>
</g>
</g>
</svg>
