<?xml version="1.0" encoding="UTF-8" standalone="no"?>
<!DOCTYPE svg PUBLIC "-//W3C//DTD SVG 1.1//EN"
 "http://www.w3.org/Graphics/SVG/1.1/DTD/svg11.dtd">
<!-- Generated by graphviz version 2.43.0 (0)
 -->
<!-- Title: ShapeId::relativeShapeId Pages: 1 -->
<svg width="577pt" height="46pt"
 viewBox="0.00 0.00 577.00 46.00" xmlns="http://www.w3.org/2000/svg" xmlns:xlink="http://www.w3.org/1999/xlink">
<g id="graph0" class="graph" transform="scale(1 1) rotate(0) translate(4 42)">
<title>ShapeId::relativeShapeId</title>
<!-- Node1 -->
<g id="node1" class="node">
<title>Node1</title>
<g id="a_node1"><a xlink:title="Returns this object as a relative Smithy Shape ID, that one without a leading namespace.">
<polygon fill="#999999" stroke="#666666" points="569,-19 431,-19 431,0 569,0 569,-19"/>
<text text-anchor="middle" x="500" y="-7" font-family="Helvetica,sans-Serif" font-size="10.00">ShapeId::relativeShapeId</text>
</a>
</g>
</g>
<!-- Node2 -->
<g id="node2" class="node">
<title>Node2</title>
<g id="a_node2"><a xlink:href="classShapeId.html#a42ae1231e4d242958ab12e61504e33ca" target="_top" xlink:title="Returns this object as an absolute Smithy Shape ID if this object has a namespace,...">
<polygon fill="white" stroke="#666666" points="395,-38 252,-38 252,-19 395,-19 395,-38"/>
<text text-anchor="middle" x="323.5" y="-26" font-family="Helvetica,sans-Serif" font-size="10.00">ShapeId::absoluteShapeId</text>
</a>
</g>
</g>
<!-- Node1&#45;&gt;Node2 -->
<g id="edge1" class="edge">
<title>Node1&#45;&gt;Node2</title>
<path fill="none" stroke="#63b8ff" d="M422.79,-17.8C413.64,-18.79 404.33,-19.81 395.26,-20.8"/>
<polygon fill="#63b8ff" stroke="#63b8ff" points="430.78,-16.93 423.22,-21.37 426.81,-17.36 422.83,-17.79 422.83,-17.79 422.83,-17.79 426.81,-17.36 422.44,-14.21 430.78,-16.93 430.78,-16.93"/>
</g>
<!-- Node3 -->
<g id="node3" class="node">
<title>Node3</title>
<g id="a_node3"><a xlink:href="classShapeId.html#a564f14952b394af6b38f748417a7e48a" target="_top" xlink:title="Returns this object as an absolute Smithy Shape ID if this object has a namespace,...">
<polygon fill="white" stroke="#666666" points="216,-19 116,-19 116,0 216,0 216,-19"/>
<text text-anchor="middle" x="166" y="-7" font-family="Helvetica,sans-Serif" font-size="10.00">ShapeId::toString</text>
</a>
</g>
</g>
<!-- Node1&#45;&gt;Node3 -->
<g id="edge4" class="edge">
<title>Node1&#45;&gt;Node3</title>
<path fill="none" stroke="#63b8ff" d="M422.61,-9.5C359.11,-9.5 270.63,-9.5 216.17,-9.5"/>
<polygon fill="#63b8ff" stroke="#63b8ff" points="430.61,-9.5 422.61,-13.1 426.61,-9.5 422.61,-9.5 422.61,-9.5 422.61,-9.5 426.61,-9.5 422.61,-5.9 430.61,-9.5 430.61,-9.5"/>
</g>
<!-- Node2&#45;&gt;Node3 -->
<g id="edge2" class="edge">
<title>Node2&#45;&gt;Node3</title>
<path fill="none" stroke="#63b8ff" d="M243.39,-18.83C234.07,-17.69 224.77,-16.56 216.03,-15.49"/>
<polygon fill="#63b8ff" stroke="#63b8ff" points="251.58,-19.83 243.2,-22.44 247.61,-19.35 243.63,-18.86 243.63,-18.86 243.63,-18.86 247.61,-19.35 244.07,-15.29 251.58,-19.83 251.58,-19.83"/>
</g>
<!-- Node4 -->
<g id="node4" class="node">
<title>Node4</title>
<g id="a_node4"><a xlink:href="classModel.html#a5296da875545acf527ce42c707d1ead1" target="_top" xlink:title="Add the logical content of the JSON AST model file given by ast into this semantic model.">
<polygon fill="white" stroke="#666666" points="80,-19 0,-19 0,0 80,0 80,-19"/>
<text text-anchor="middle" x="40" y="-7" font-family="Helvetica,sans-Serif" font-size="10.00">Model::insert</text>
</a>
</g>
</g>
<!-- Node3&#45;&gt;Node4 -->
<g id="edge3" class="edge">
<title>Node3&#45;&gt;Node4</title>
<path fill="none" stroke="#63b8ff" d="M107.81,-9.5C98.44,-9.5 88.91,-9.5 80.11,-9.5"/>
<polygon fill="#63b8ff" stroke="#63b8ff" points="115.99,-9.5 107.99,-13.1 111.99,-9.5 107.99,-9.5 107.99,-9.5 107.99,-9.5 111.99,-9.5 107.99,-5.9 115.99,-9.5 115.99,-9.5"/>
</g>
</g>
</svg>
