<?xml version="1.0" encoding="UTF-8" standalone="no"?>
<!DOCTYPE svg PUBLIC "-//W3C//DTD SVG 1.1//EN"
 "http://www.w3.org/Graphics/SVG/1.1/DTD/svg11.dtd">
<!-- Generated by graphviz version 2.43.0 (0)
 -->
<!-- Title: ShapeId::shapeName Pages: 1 -->
<svg width="733pt" height="101pt"
 viewBox="0.00 0.00 733.00 101.00" xmlns="http://www.w3.org/2000/svg" xmlns:xlink="http://www.w3.org/1999/xlink">
<g id="graph0" class="graph" transform="scale(1 1) rotate(0) translate(4 97)">
<title>ShapeId::shapeName</title>
<!-- Node1 -->
<g id="node1" class="node">
<title>Node1</title>
<g id="a_node1"><a xlink:title="Returns the Shape ID&#39;s shape name, if it has one, otherwise a null string.">
<polygon fill="#999999" stroke="#666666" points="725,-56 605,-56 605,-37 725,-37 725,-56"/>
<text text-anchor="middle" x="665" y="-44" font-family="Helvetica,sans-Serif" font-size="10.00">ShapeId::shapeName</text>
</a>
</g>
</g>
<!-- Node2 -->
<g id="node2" class="node">
<title>Node2</title>
<g id="a_node2"><a xlink:href="classShapeId.html#a6a2ff71df1eecb9717df15134d37e2c6" target="_top" xlink:title="Assigns the specified shapeId to this object.">
<polygon fill="white" stroke="#666666" points="555.5,-93 444.5,-93 444.5,-74 555.5,-74 555.5,-93"/>
<text text-anchor="middle" x="500" y="-81" font-family="Helvetica,sans-Serif" font-size="10.00">ShapeId::operator=</text>
</a>
</g>
</g>
<!-- Node1&#45;&gt;Node2 -->
<g id="edge1" class="edge">
<title>Node1&#45;&gt;Node2</title>
<path fill="none" stroke="#63b8ff" d="M614.16,-57.81C591.44,-62.97 564.82,-69.01 543.12,-73.94"/>
<polygon fill="#63b8ff" stroke="#63b8ff" points="622.02,-56.03 615.02,-61.31 618.12,-56.91 614.22,-57.8 614.22,-57.8 614.22,-57.8 618.12,-56.91 613.42,-54.29 622.02,-56.03 622.02,-56.03"/>
</g>
<!-- Node3 -->
<g id="node3" class="node">
<title>Node3</title>
<g id="a_node3"><a xlink:href="classShapeId.html#aad508460b545930c3aeb82021e79de5a" target="_top" xlink:title="Returns this object as a relative Smithy Shape ID, that one without a leading namespace.">
<polygon fill="white" stroke="#666666" points="569,-56 431,-56 431,-37 569,-37 569,-56"/>
<text text-anchor="middle" x="500" y="-44" font-family="Helvetica,sans-Serif" font-size="10.00">ShapeId::relativeShapeId</text>
</a>
</g>
</g>
<!-- Node1&#45;&gt;Node3 -->
<g id="edge2" class="edge">
<title>Node1&#45;&gt;Node3</title>
<path fill="none" stroke="#63b8ff" d="M596.47,-46.5C587.43,-46.5 578.16,-46.5 569.11,-46.5"/>
<polygon fill="#63b8ff" stroke="#63b8ff" points="604.69,-46.5 596.69,-50.1 600.69,-46.5 596.69,-46.5 596.69,-46.5 596.69,-46.5 600.69,-46.5 596.69,-42.9 604.69,-46.5 604.69,-46.5"/>
</g>
<!-- Node7 -->
<g id="node7" class="node">
<title>Node7</title>
<g id="a_node7"><a xlink:href="classShapeId.html#a5f5e09c87aee5ebf482a6b6c12646c87" target="_top" xlink:title="Constructs a ShapeId object by copying other.">
<polygon fill="white" stroke="#666666" points="550.5,-19 449.5,-19 449.5,0 550.5,0 550.5,-19"/>
<text text-anchor="middle" x="500" y="-7" font-family="Helvetica,sans-Serif" font-size="10.00">ShapeId::ShapeId</text>
</a>
</g>
</g>
<!-- Node1&#45;&gt;Node7 -->
<g id="edge7" class="edge">
<title>Node1&#45;&gt;Node7</title>
<path fill="none" stroke="#63b8ff" d="M614.16,-35.19C591.44,-30.03 564.82,-23.99 543.12,-19.06"/>
<polygon fill="#63b8ff" stroke="#63b8ff" points="622.02,-36.97 613.42,-38.71 618.12,-36.09 614.22,-35.2 614.22,-35.2 614.22,-35.2 618.12,-36.09 615.02,-31.69 622.02,-36.97 622.02,-36.97"/>
</g>
<!-- Node4 -->
<g id="node4" class="node">
<title>Node4</title>
<g id="a_node4"><a xlink:href="classShapeId.html#a42ae1231e4d242958ab12e61504e33ca" target="_top" xlink:title="Returns this object as an absolute Smithy Shape ID if this object has a namespace,...">
<polygon fill="white" stroke="#666666" points="395,-75 252,-75 252,-56 395,-56 395,-75"/>
<text text-anchor="middle" x="323.5" y="-63" font-family="Helvetica,sans-Serif" font-size="10.00">ShapeId::absoluteShapeId</text>
</a>
</g>
</g>
<!-- Node3&#45;&gt;Node4 -->
<g id="edge3" class="edge">
<title>Node3&#45;&gt;Node4</title>
<path fill="none" stroke="#63b8ff" d="M422.79,-54.8C413.64,-55.79 404.33,-56.81 395.26,-57.8"/>
<polygon fill="#63b8ff" stroke="#63b8ff" points="430.78,-53.93 423.22,-58.37 426.81,-54.36 422.83,-54.79 422.83,-54.79 422.83,-54.79 426.81,-54.36 422.44,-51.21 430.78,-53.93 430.78,-53.93"/>
</g>
<!-- Node5 -->
<g id="node5" class="node">
<title>Node5</title>
<g id="a_node5"><a xlink:href="classShapeId.html#a564f14952b394af6b38f748417a7e48a" target="_top" xlink:title="Returns this object as an absolute Smithy Shape ID if this object has a namespace,...">
<polygon fill="white" stroke="#666666" points="216,-56 116,-56 116,-37 216,-37 216,-56"/>
<text text-anchor="middle" x="166" y="-44" font-family="Helvetica,sans-Serif" font-size="10.00">ShapeId::toString</text>
</a>
</g>
</g>
<!-- Node3&#45;&gt;Node5 -->
<g id="edge6" class="edge">
<title>Node3&#45;&gt;Node5</title>
<path fill="none" stroke="#63b8ff" d="M422.61,-46.5C359.11,-46.5 270.63,-46.5 216.17,-46.5"/>
<polygon fill="#63b8ff" stroke="#63b8ff" points="430.61,-46.5 422.61,-50.1 426.61,-46.5 422.61,-46.5 422.61,-46.5 422.61,-46.5 426.61,-46.5 422.61,-42.9 430.61,-46.5 430.61,-46.5"/>
</g>
<!-- Node4&#45;&gt;Node5 -->
<g id="edge4" class="edge">
<title>Node4&#45;&gt;Node5</title>
<path fill="none" stroke="#63b8ff" d="M243.39,-55.83C234.07,-54.69 224.77,-53.56 216.03,-52.49"/>
<polygon fill="#63b8ff" stroke="#63b8ff" points="251.58,-56.83 243.2,-59.44 247.61,-56.35 243.63,-55.86 243.63,-55.86 243.63,-55.86 247.61,-56.35 244.07,-52.29 251.58,-56.83 251.58,-56.83"/>
</g>
<!-- Node6 -->
<g id="node6" class="node">
<title>Node6</title>
<g id="a_node6"><a xlink:href="classModel.html#a5296da875545acf527ce42c707d1ead1" target="_top" xlink:title="Add the logical content of the JSON AST model file given by ast into this semantic model.">
<polygon fill="white" stroke="#666666" points="80,-56 0,-56 0,-37 80,-37 80,-56"/>
<text text-anchor="middle" x="40" y="-44" font-family="Helvetica,sans-Serif" font-size="10.00">Model::insert</text>
</a>
</g>
</g>
<!-- Node5&#45;&gt;Node6 -->
<g id="edge5" class="edge">
<title>Node5&#45;&gt;Node6</title>
<path fill="none" stroke="#63b8ff" d="M107.81,-46.5C98.44,-46.5 88.91,-46.5 80.11,-46.5"/>
<polygon fill="#63b8ff" stroke="#63b8ff" points="115.99,-46.5 107.99,-50.1 111.99,-46.5 107.99,-46.5 107.99,-46.5 107.99,-46.5 111.99,-46.5 107.99,-42.9 115.99,-46.5 115.99,-46.5"/>
</g>
</g>
</svg>
