<?xml version="1.0" encoding="UTF-8" standalone="no"?>
<!DOCTYPE svg PUBLIC "-//W3C//DTD SVG 1.1//EN"
 "http://www.w3.org/Graphics/SVG/1.1/DTD/svg11.dtd">
<!-- Generated by graphviz version 2.43.0 (0)
 -->
<!-- Title: src Pages: 1 -->
<svg width="135pt" height="141pt"
 viewBox="0.00 0.00 135.00 141.00" xmlns="http://www.w3.org/2000/svg" xmlns:xlink="http://www.w3.org/1999/xlink">
<g id="graph0" class="graph" transform="scale(1 1) rotate(0) translate(4 137)">
<title>src</title>
<g id="clust1" class="cluster">
<title>clusterdir_3d8428d3d6a31ad51baeef70950131cf</title>
<g id="a_clust1"><a xlink:href="dir_3d8428d3d6a31ad51baeef70950131cf.html" target="_top" xlink:title="smithy&#45;qt">
<polygon fill="#edf0f7" stroke="#7f7f7f" stroke-dasharray="5,2" points="8,-8 8,-125 119,-125 119,-8 8,-8"/>
<text text-anchor="middle" x="63.5" y="-113" font-family="Helvetica,sans-Serif" font-size="10.00">smithy&#45;qt</text>
</a>
</g>
</g>
<g id="clust2" class="cluster">
<title>clusterdir_fe0b2ae9373b7860f12b9bf99b13c7c4</title>
<g id="a_clust2"><a xlink:href="dir_fe0b2ae9373b7860f12b9bf99b13c7c4.html" target="_top">
<polygon fill="#edf0f7" stroke="#404040" stroke-width="2" points="16,-63 16,-98 111,-98 111,-63 16,-63"/>
</a>
</g>
</g>
<!-- dir_72791c1524a63d0a88746fd59b693ef8 -->
<g id="node1" class="node">
<title>dir_72791c1524a63d0a88746fd59b693ef8</title>
<g id="a_node1"><a xlink:href="dir_72791c1524a63d0a88746fd59b693ef8.html" target="_top" xlink:title="include">
<polygon fill="#a2b4d6" stroke="red" points="68,-35 16,-35 16,-16 68,-16 68,-35"/>
<text text-anchor="middle" x="42" y="-23" font-family="Helvetica,sans-Serif" font-size="10.00">include</text>
</a>
</g>
</g>
<!-- dir_fe0b2ae9373b7860f12b9bf99b13c7c4 -->
<g id="node2" class="node">
<title>dir_fe0b2ae9373b7860f12b9bf99b13c7c4</title>
<text text-anchor="middle" x="87" y="-78" font-family="Helvetica,sans-Serif" font-size="10.00">src</text>
</g>
<!-- dir_ca591dce62c06eacb138481d36066b89 -->
<g id="node3" class="node">
<title>dir_ca591dce62c06eacb138481d36066b89</title>
<g id="a_node3"><a xlink:href="dir_ca591dce62c06eacb138481d36066b89.html" target="_top" xlink:title="lib">
<polygon fill="#a2b4d6" stroke="#404040" points="53.5,-90 24.5,-90 24.5,-71 53.5,-71 53.5,-90"/>
<text text-anchor="middle" x="39" y="-78" font-family="Helvetica,sans-Serif" font-size="10.00">lib</text>
</a>
</g>
</g>
<!-- dir_ca591dce62c06eacb138481d36066b89&#45;&gt;dir_72791c1524a63d0a88746fd59b693ef8 -->
<g id="edge1" class="edge">
<title>dir_ca591dce62c06eacb138481d36066b89&#45;&gt;dir_72791c1524a63d0a88746fd59b693ef8</title>
<path fill="none" stroke="#63b8ff" d="M39.5,-70.75C39.92,-63.26 40.54,-52.28 41.06,-43.13"/>
<polygon fill="#63b8ff" stroke="#63b8ff" points="41.51,-35.09 44.66,-43.28 41.29,-39.08 41.06,-43.08 41.06,-43.08 41.06,-43.08 41.29,-39.08 37.47,-42.87 41.51,-35.09 41.51,-35.09"/>
<g id="a_edge1&#45;headlabel"><a xlink:href="dir_000002_000001.html" target="_top" xlink:title="3">
<text text-anchor="middle" x="47.07" y="-46.52" font-family="Helvetica,sans-Serif" font-size="10.00" fill="#63b8ff">3</text>
</a>
</g>
</g>
</g>
</svg>
