<?xml version="1.0" encoding="UTF-8" standalone="no"?>
<!DOCTYPE svg PUBLIC "-//W3C//DTD SVG 1.1//EN"
 "http://www.w3.org/Graphics/SVG/1.1/DTD/svg11.dtd">
<!-- Generated by graphviz version 2.43.0 (0)
 -->
<!-- Title: shapeid.cpp Pages: 1 -->
<svg width="463pt" height="192pt"
 viewBox="0.00 0.00 462.50 192.00" xmlns="http://www.w3.org/2000/svg" xmlns:xlink="http://www.w3.org/1999/xlink">
<g id="graph0" class="graph" transform="scale(1 1) rotate(0) translate(4 188)">
<title>shapeid.cpp</title>
<!-- Node1 -->
<g id="node1" class="node">
<title>Node1</title>
<g id="a_node1"><a xlink:title="Defines the ShapeId and ShapeIdPrivate classes.">
<polygon fill="#999999" stroke="#666666" points="321.5,-184 246.5,-184 246.5,-165 321.5,-165 321.5,-184"/>
<text text-anchor="middle" x="284" y="-172" font-family="Helvetica,sans-Serif" font-size="10.00">shapeid.cpp</text>
</a>
</g>
</g>
<!-- Node2 -->
<g id="node2" class="node">
<title>Node2</title>
<g id="a_node2"><a xlink:href="shapeid_8h.html" target="_top" xlink:title="Declares the ShapeId class.">
<polygon fill="white" stroke="#666666" points="228,-129 118,-129 118,-110 228,-110 228,-129"/>
<text text-anchor="middle" x="173" y="-117" font-family="Helvetica,sans-Serif" font-size="10.00">qtsmithy/shapeid.h</text>
</a>
</g>
</g>
<!-- Node1&#45;&gt;Node2 -->
<g id="edge1" class="edge">
<title>Node1&#45;&gt;Node2</title>
<path fill="none" stroke="#63b8ff" d="M266.17,-164.98C247.83,-156.23 219.1,-142.51 198.39,-132.62"/>
<polygon fill="#63b8ff" stroke="#63b8ff" points="191.16,-129.17 199.93,-129.37 194.77,-130.89 198.38,-132.62 198.38,-132.62 198.38,-132.62 194.77,-130.89 196.83,-135.87 191.16,-129.17 191.16,-129.17"/>
</g>
<!-- Node7 -->
<g id="node7" class="node">
<title>Node7</title>
<g id="a_node7"><a xlink:title=" ">
<polygon fill="#e0e0e0" stroke="#999999" points="321.5,-129 246.5,-129 246.5,-110 321.5,-110 321.5,-129"/>
<text text-anchor="middle" x="284" y="-117" font-family="Helvetica,sans-Serif" font-size="10.00">shapeid_p.h</text>
</a>
</g>
</g>
<!-- Node1&#45;&gt;Node7 -->
<g id="edge6" class="edge">
<title>Node1&#45;&gt;Node7</title>
<path fill="none" stroke="#63b8ff" d="M284,-164.75C284,-157.26 284,-146.28 284,-137.13"/>
<polygon fill="#63b8ff" stroke="#63b8ff" points="284,-129.09 287.6,-137.09 284,-133.09 284,-137.09 284,-137.09 284,-137.09 284,-133.09 280.4,-137.09 284,-129.09 284,-129.09"/>
</g>
<!-- Node8 -->
<g id="node8" class="node">
<title>Node8</title>
<g id="a_node8"><a xlink:title=" ">
<polygon fill="#e0e0e0" stroke="#999999" points="454.5,-129 339.5,-129 339.5,-110 454.5,-110 454.5,-129"/>
<text text-anchor="middle" x="397" y="-117" font-family="Helvetica,sans-Serif" font-size="10.00">QRegularExpression</text>
</a>
</g>
</g>
<!-- Node1&#45;&gt;Node8 -->
<g id="edge7" class="edge">
<title>Node1&#45;&gt;Node8</title>
<path fill="none" stroke="#63b8ff" d="M302.16,-164.98C320.82,-156.23 350.07,-142.51 371.15,-132.62"/>
<polygon fill="#63b8ff" stroke="#63b8ff" points="378.51,-129.17 372.8,-135.83 374.89,-130.87 371.27,-132.57 371.27,-132.57 371.27,-132.57 374.89,-130.87 369.74,-129.31 378.51,-129.17 378.51,-129.17"/>
</g>
<!-- Node3 -->
<g id="node3" class="node">
<title>Node3</title>
<g id="a_node3"><a xlink:href="qtsmithy__global_8h.html" target="_top" xlink:title="Global QtSmithy library macros.">
<polygon fill="white" stroke="#666666" points="104,-74 0,-74 0,-55 104,-55 104,-74"/>
<text text-anchor="middle" x="52" y="-62" font-family="Helvetica,sans-Serif" font-size="10.00">qtsmithy_global.h</text>
</a>
</g>
</g>
<!-- Node2&#45;&gt;Node3 -->
<g id="edge2" class="edge">
<title>Node2&#45;&gt;Node3</title>
<path fill="none" stroke="#63b8ff" d="M153.56,-109.98C133.48,-101.19 101.98,-87.39 79.38,-77.49"/>
<polygon fill="#63b8ff" stroke="#63b8ff" points="71.79,-74.17 80.57,-74.08 75.46,-75.78 79.12,-77.38 79.12,-77.38 79.12,-77.38 75.46,-75.78 77.68,-80.68 71.79,-74.17 71.79,-74.17"/>
</g>
<!-- Node5 -->
<g id="node5" class="node">
<title>Node5</title>
<g id="a_node5"><a xlink:title=" ">
<polygon fill="#e0e0e0" stroke="#999999" points="223.5,-74 122.5,-74 122.5,-55 223.5,-55 223.5,-74"/>
<text text-anchor="middle" x="173" y="-62" font-family="Helvetica,sans-Serif" font-size="10.00">QCoreApplication</text>
</a>
</g>
</g>
<!-- Node2&#45;&gt;Node5 -->
<g id="edge4" class="edge">
<title>Node2&#45;&gt;Node5</title>
<path fill="none" stroke="#63b8ff" d="M173,-109.75C173,-102.26 173,-91.28 173,-82.13"/>
<polygon fill="#63b8ff" stroke="#63b8ff" points="173,-74.09 176.6,-82.09 173,-78.09 173,-82.09 173,-82.09 173,-82.09 173,-78.09 169.4,-82.09 173,-74.09 173,-74.09"/>
</g>
<!-- Node6 -->
<g id="node6" class="node">
<title>Node6</title>
<g id="a_node6"><a xlink:title=" ">
<polygon fill="#e0e0e0" stroke="#999999" points="290.5,-74 241.5,-74 241.5,-55 290.5,-55 290.5,-74"/>
<text text-anchor="middle" x="266" y="-62" font-family="Helvetica,sans-Serif" font-size="10.00">QHash</text>
</a>
</g>
</g>
<!-- Node2&#45;&gt;Node6 -->
<g id="edge5" class="edge">
<title>Node2&#45;&gt;Node6</title>
<path fill="none" stroke="#63b8ff" d="M187.94,-109.98C203.04,-101.38 226.53,-87.99 243.81,-78.15"/>
<polygon fill="#63b8ff" stroke="#63b8ff" points="250.79,-74.17 245.62,-81.26 247.31,-76.15 243.84,-78.13 243.84,-78.13 243.84,-78.13 247.31,-76.15 242.05,-75 250.79,-74.17 250.79,-74.17"/>
</g>
<!-- Node4 -->
<g id="node4" class="node">
<title>Node4</title>
<g id="a_node4"><a xlink:title=" ">
<polygon fill="#e0e0e0" stroke="#999999" points="81.5,-19 22.5,-19 22.5,0 81.5,0 81.5,-19"/>
<text text-anchor="middle" x="52" y="-7" font-family="Helvetica,sans-Serif" font-size="10.00">QtGlobal</text>
</a>
</g>
</g>
<!-- Node3&#45;&gt;Node4 -->
<g id="edge3" class="edge">
<title>Node3&#45;&gt;Node4</title>
<path fill="none" stroke="#63b8ff" d="M52,-54.75C52,-47.26 52,-36.28 52,-27.13"/>
<polygon fill="#63b8ff" stroke="#63b8ff" points="52,-19.09 55.6,-27.09 52,-23.09 52,-27.09 52,-27.09 52,-27.09 52,-23.09 48.4,-27.09 52,-19.09 52,-19.09"/>
</g>
</g>
</svg>
