<?xml version="1.0" encoding="UTF-8" standalone="no"?>
<!DOCTYPE svg PUBLIC "-//W3C//DTD SVG 1.1//EN"
 "http://www.w3.org/Graphics/SVG/1.1/DTD/svg11.dtd">
<!-- Generated by graphviz version 2.43.0 (0)
 -->
<!-- Title: shapeid.h Pages: 1 -->
<svg width="299pt" height="137pt"
 viewBox="0.00 0.00 298.50 137.00" xmlns="http://www.w3.org/2000/svg" xmlns:xlink="http://www.w3.org/1999/xlink">
<g id="graph0" class="graph" transform="scale(1 1) rotate(0) translate(4 133)">
<title>shapeid.h</title>
<!-- Node1 -->
<g id="Node000001" class="node">
<title>Node1</title>
<g id="a_Node000001"><a xlink:title="Declares the ShapeId class.">
<polygon fill="#999999" stroke="#666666" points="205,-129 141,-129 141,-110 205,-110 205,-129"/>
<text text-anchor="middle" x="173" y="-117" font-family="Helvetica,sans-Serif" font-size="10.00">shapeid.h</text>
</a>
</g>
</g>
<!-- Node2 -->
<g id="Node000002" class="node">
<title>Node2</title>
<g id="a_Node000002"><a xlink:href="qtsmithy__global_8h.html" target="_top" xlink:title="Global QtSmithy library macros.">
<polygon fill="white" stroke="#666666" points="104,-74 0,-74 0,-55 104,-55 104,-74"/>
<text text-anchor="middle" x="52" y="-62" font-family="Helvetica,sans-Serif" font-size="10.00">qtsmithy_global.h</text>
</a>
</g>
</g>
<!-- Node1&#45;&gt;Node2 -->
<g id="edge1_Node000001_Node000002" class="edge">
<title>Node1&#45;&gt;Node2</title>
<g id="a_edge1_Node000001_Node000002"><a xlink:title=" ">
<path fill="none" stroke="#63b8ff" d="M153.56,-109.98C133.48,-101.19 101.98,-87.39 79.38,-77.49"/>
<polygon fill="#63b8ff" stroke="#63b8ff" points="71.79,-74.17 80.57,-74.08 75.46,-75.78 79.12,-77.38 79.12,-77.38 79.12,-77.38 75.46,-75.78 77.68,-80.68 71.79,-74.17 71.79,-74.17"/>
</a>
</g>
</g>
<!-- Node4 -->
<g id="Node000004" class="node">
<title>Node4</title>
<g id="a_Node000004"><a xlink:title=" ">
<polygon fill="#e0e0e0" stroke="#999999" points="223.5,-74 122.5,-74 122.5,-55 223.5,-55 223.5,-74"/>
<text text-anchor="middle" x="173" y="-62" font-family="Helvetica,sans-Serif" font-size="10.00">QCoreApplication</text>
</a>
</g>
</g>
<!-- Node1&#45;&gt;Node4 -->
<g id="edge3_Node000001_Node000004" class="edge">
<title>Node1&#45;&gt;Node4</title>
<g id="a_edge3_Node000001_Node000004"><a xlink:title=" ">
<path fill="none" stroke="#63b8ff" d="M173,-109.75C173,-102.26 173,-91.28 173,-82.13"/>
<polygon fill="#63b8ff" stroke="#63b8ff" points="173,-74.09 176.6,-82.09 173,-78.09 173,-82.09 173,-82.09 173,-82.09 173,-78.09 169.4,-82.09 173,-74.09 173,-74.09"/>
</a>
</g>
</g>
<!-- Node5 -->
<g id="Node000005" class="node">
<title>Node5</title>
<g id="a_Node000005"><a xlink:title=" ">
<polygon fill="#e0e0e0" stroke="#999999" points="290.5,-74 241.5,-74 241.5,-55 290.5,-55 290.5,-74"/>
<text text-anchor="middle" x="266" y="-62" font-family="Helvetica,sans-Serif" font-size="10.00">QHash</text>
</a>
</g>
</g>
<!-- Node1&#45;&gt;Node5 -->
<g id="edge4_Node000001_Node000005" class="edge">
<title>Node1&#45;&gt;Node5</title>
<g id="a_edge4_Node000001_Node000005"><a xlink:title=" ">
<path fill="none" stroke="#63b8ff" d="M187.94,-109.98C203.04,-101.38 226.53,-87.99 243.81,-78.15"/>
<polygon fill="#63b8ff" stroke="#63b8ff" points="250.79,-74.17 245.62,-81.26 247.31,-76.15 243.84,-78.13 243.84,-78.13 243.84,-78.13 247.31,-76.15 242.05,-75 250.79,-74.17 250.79,-74.17"/>
</a>
</g>
</g>
<!-- Node3 -->
<g id="Node000003" class="node">
<title>Node3</title>
<g id="a_Node000003"><a xlink:title=" ">
<polygon fill="#e0e0e0" stroke="#999999" points="81.5,-19 22.5,-19 22.5,0 81.5,0 81.5,-19"/>
<text text-anchor="middle" x="52" y="-7" font-family="Helvetica,sans-Serif" font-size="10.00">QtGlobal</text>
</a>
</g>
</g>
<!-- Node2&#45;&gt;Node3 -->
<g id="edge2_Node000002_Node000003" class="edge">
<title>Node2&#45;&gt;Node3</title>
<g id="a_edge2_Node000002_Node000003"><a xlink:title=" ">
<path fill="none" stroke="#63b8ff" d="M52,-54.75C52,-47.26 52,-36.28 52,-27.13"/>
<polygon fill="#63b8ff" stroke="#63b8ff" points="52,-19.09 55.6,-27.09 52,-23.09 52,-27.09 52,-27.09 52,-27.09 52,-23.09 48.4,-27.09 52,-19.09 52,-19.09"/>
</a>
</g>
</g>
</g>
</svg>
