<?xml version="1.0" encoding="UTF-8" standalone="no"?>
<!DOCTYPE svg PUBLIC "-//W3C//DTD SVG 1.1//EN"
 "http://www.w3.org/Graphics/SVG/1.1/DTD/svg11.dtd">
<!-- Generated by graphviz version 2.43.0 (0)
 -->
<!-- Title: shape.h Pages: 1 -->
<svg width="154pt" height="137pt"
 viewBox="0.00 0.00 154.00 137.00" xmlns="http://www.w3.org/2000/svg" xmlns:xlink="http://www.w3.org/1999/xlink">
<g id="graph0" class="graph" transform="scale(1 1) rotate(0) translate(4 133)">
<title>shape.h</title>
<!-- Node1 -->
<g id="node1" class="node">
<title>Node1</title>
<g id="a_node1"><a xlink:title="Declares the Shape class.">
<polygon fill="#999999" stroke="#666666" points="100.5,-129 45.5,-129 45.5,-110 100.5,-110 100.5,-129"/>
<text text-anchor="middle" x="73" y="-117" font-family="Helvetica,sans-Serif" font-size="10.00">shape.h</text>
</a>
</g>
</g>
<!-- Node2 -->
<g id="node2" class="node">
<title>Node2</title>
<g id="a_node2"><a xlink:href="model_8h.html" target="_top" xlink:title="Declares the Model class.">
<polygon fill="white" stroke="#666666" points="62,-74 6,-74 6,-55 62,-55 62,-74"/>
<text text-anchor="middle" x="34" y="-62" font-family="Helvetica,sans-Serif" font-size="10.00">model.h</text>
</a>
</g>
</g>
<!-- Node1&#45;&gt;Node2 -->
<g id="edge1" class="edge">
<title>Node1&#45;&gt;Node2</title>
<path fill="none" stroke="#63b8ff" d="M61.65,-103.08C54.7,-93.64 46.07,-81.91 40.32,-74.09"/>
<polygon fill="#63b8ff" stroke="#63b8ff" points="66.56,-109.75 58.92,-105.44 64.19,-106.53 61.82,-103.3 61.82,-103.3 61.82,-103.3 64.19,-106.53 64.72,-101.17 66.56,-109.75 66.56,-109.75"/>
</g>
<!-- Node4 -->
<g id="node4" class="node">
<title>Node4</title>
<g id="a_node4"><a xlink:href="shape_8cpp.html" target="_top" xlink:title="Defines the Shape and ShapePrivate classes.">
<polygon fill="white" stroke="#666666" points="146,-74 80,-74 80,-55 146,-55 146,-74"/>
<text text-anchor="middle" x="113" y="-62" font-family="Helvetica,sans-Serif" font-size="10.00">shape.cpp</text>
</a>
</g>
</g>
<!-- Node1&#45;&gt;Node4 -->
<g id="edge3" class="edge">
<title>Node1&#45;&gt;Node4</title>
<path fill="none" stroke="#63b8ff" d="M84.43,-103.35C91.59,-93.87 100.56,-81.98 106.52,-74.09"/>
<polygon fill="#63b8ff" stroke="#63b8ff" points="79.61,-109.75 81.55,-101.19 82.01,-106.56 84.42,-103.36 84.42,-103.36 84.42,-103.36 82.01,-106.56 87.3,-105.53 79.61,-109.75 79.61,-109.75"/>
</g>
<!-- Node3 -->
<g id="node3" class="node">
<title>Node3</title>
<g id="a_node3"><a xlink:href="model_8cpp.html" target="_top" xlink:title="Defines the Model and ModelPrivate classes.">
<polygon fill="white" stroke="#666666" points="68,-19 0,-19 0,0 68,0 68,-19"/>
<text text-anchor="middle" x="34" y="-7" font-family="Helvetica,sans-Serif" font-size="10.00">model.cpp</text>
</a>
</g>
</g>
<!-- Node2&#45;&gt;Node3 -->
<g id="edge2" class="edge">
<title>Node2&#45;&gt;Node3</title>
<path fill="none" stroke="#63b8ff" d="M34,-46.67C34,-37.5 34,-26.52 34,-19.09"/>
<polygon fill="#63b8ff" stroke="#63b8ff" points="34,-54.75 30.4,-46.75 34,-50.75 34,-46.75 34,-46.75 34,-46.75 34,-50.75 37.6,-46.75 34,-54.75 34,-54.75"/>
</g>
</g>
</svg>
