<?xml version="1.0" encoding="UTF-8" standalone="no"?>
<!DOCTYPE svg PUBLIC "-//W3C//DTD SVG 1.1//EN"
 "http://www.w3.org/Graphics/SVG/1.1/DTD/svg11.dtd">
<!-- Generated by graphviz version 2.43.0 (0)
 -->
<!-- Title: shape.cpp Pages: 1 -->
<svg width="527pt" height="247pt"
 viewBox="0.00 0.00 526.50 247.00" xmlns="http://www.w3.org/2000/svg" xmlns:xlink="http://www.w3.org/1999/xlink">
<g id="graph0" class="graph" transform="scale(1 1) rotate(0) translate(4 243)">
<title>shape.cpp</title>
<!-- Node1 -->
<g id="Node000001" class="node">
<title>Node1</title>
<g id="a_Node000001"><a xlink:title="Defines the Shape and ShapePrivate classes.">
<polygon fill="#999999" stroke="#666666" points="429,-239 363,-239 363,-220 429,-220 429,-239"/>
<text text-anchor="middle" x="396" y="-227" font-family="Helvetica,sans-Serif" font-size="10.00">shape.cpp</text>
</a>
</g>
</g>
<!-- Node2 -->
<g id="Node000002" class="node">
<title>Node2</title>
<g id="a_Node000002"><a xlink:href="shape_8h.html" target="_top" xlink:title="Declares the Shape class.">
<polygon fill="white" stroke="#666666" points="344.5,-184 243.5,-184 243.5,-165 344.5,-165 344.5,-184"/>
<text text-anchor="middle" x="294" y="-172" font-family="Helvetica,sans-Serif" font-size="10.00">qtsmithy/shape.h</text>
</a>
</g>
</g>
<!-- Node1&#45;&gt;Node2 -->
<g id="edge1_Node000001_Node000002" class="edge">
<title>Node1&#45;&gt;Node2</title>
<g id="a_edge1_Node000001_Node000002"><a xlink:title=" ">
<path fill="none" stroke="#63b8ff" d="M379.61,-219.98C362.91,-211.3 336.82,-197.75 317.83,-187.88"/>
<polygon fill="#63b8ff" stroke="#63b8ff" points="310.69,-184.17 319.45,-184.66 314.24,-186.01 317.79,-187.86 317.79,-187.86 317.79,-187.86 314.24,-186.01 316.13,-191.05 310.69,-184.17 310.69,-184.17"/>
</a>
</g>
</g>
<!-- Node10 -->
<g id="Node000010" class="node">
<title>Node10</title>
<g id="a_Node000010"><a xlink:title=" ">
<polygon fill="#e0e0e0" stroke="#999999" points="429,-184 363,-184 363,-165 429,-165 429,-184"/>
<text text-anchor="middle" x="396" y="-172" font-family="Helvetica,sans-Serif" font-size="10.00">shape_p.h</text>
</a>
</g>
</g>
<!-- Node1&#45;&gt;Node10 -->
<g id="edge11_Node000001_Node000010" class="edge">
<title>Node1&#45;&gt;Node10</title>
<g id="a_edge11_Node000001_Node000010"><a xlink:title=" ">
<path fill="none" stroke="#63b8ff" d="M396,-219.75C396,-212.26 396,-201.28 396,-192.13"/>
<polygon fill="#63b8ff" stroke="#63b8ff" points="396,-184.09 399.6,-192.09 396,-188.09 396,-192.09 396,-192.09 396,-192.09 396,-188.09 392.4,-192.09 396,-184.09 396,-184.09"/>
</a>
</g>
</g>
<!-- Node11 -->
<g id="Node000011" class="node">
<title>Node11</title>
<g id="a_Node000011"><a xlink:title=" ">
<polygon fill="#e0e0e0" stroke="#999999" points="518.5,-184 447.5,-184 447.5,-165 518.5,-165 518.5,-184"/>
<text text-anchor="middle" x="483" y="-172" font-family="Helvetica,sans-Serif" font-size="10.00">QJsonArray</text>
</a>
</g>
</g>
<!-- Node1&#45;&gt;Node11 -->
<g id="edge12_Node000001_Node000011" class="edge">
<title>Node1&#45;&gt;Node11</title>
<g id="a_edge12_Node000001_Node000011"><a xlink:title=" ">
<path fill="none" stroke="#63b8ff" d="M409.98,-219.98C423.97,-211.46 445.69,-198.23 461.8,-188.41"/>
<polygon fill="#63b8ff" stroke="#63b8ff" points="468.77,-184.17 463.81,-191.41 465.35,-186.25 461.94,-188.33 461.94,-188.33 461.94,-188.33 465.35,-186.25 460.06,-185.26 468.77,-184.17 468.77,-184.17"/>
</a>
</g>
</g>
<!-- Node3 -->
<g id="Node000003" class="node">
<title>Node3</title>
<g id="a_Node000003"><a xlink:href="shapeid_8h.html" target="_top" xlink:title="Declares the ShapeId class.">
<polygon fill="white" stroke="#666666" points="217,-129 153,-129 153,-110 217,-110 217,-129"/>
<text text-anchor="middle" x="185" y="-117" font-family="Helvetica,sans-Serif" font-size="10.00">shapeid.h</text>
</a>
</g>
</g>
<!-- Node2&#45;&gt;Node3 -->
<g id="edge2_Node000002_Node000003" class="edge">
<title>Node2&#45;&gt;Node3</title>
<g id="a_edge2_Node000002_Node000003"><a xlink:title=" ">
<path fill="none" stroke="#63b8ff" d="M276.49,-164.98C258.56,-156.27 230.52,-142.63 210.2,-132.75"/>
<polygon fill="#63b8ff" stroke="#63b8ff" points="202.83,-129.17 211.6,-129.43 206.43,-130.92 210.03,-132.67 210.03,-132.67 210.03,-132.67 206.43,-130.92 208.45,-135.91 202.83,-129.17 202.83,-129.17"/>
</a>
</g>
</g>
<!-- Node6 -->
<g id="Node000006" class="node">
<title>Node6</title>
<g id="a_Node000006"><a xlink:title=" ">
<polygon fill="#e0e0e0" stroke="#999999" points="328.5,-74 227.5,-74 227.5,-55 328.5,-55 328.5,-74"/>
<text text-anchor="middle" x="278" y="-62" font-family="Helvetica,sans-Serif" font-size="10.00">QCoreApplication</text>
</a>
</g>
</g>
<!-- Node2&#45;&gt;Node6 -->
<g id="edge8_Node000002_Node000006" class="edge">
<title>Node2&#45;&gt;Node6</title>
<g id="a_edge8_Node000002_Node000006"><a xlink:title=" ">
<path fill="none" stroke="#63b8ff" d="M290.49,-164.81C287.1,-155.96 282.17,-141.78 280,-129 277.36,-113.42 277.04,-95.4 277.28,-82.54"/>
<polygon fill="#63b8ff" stroke="#63b8ff" points="277.53,-74.2 280.89,-82.3 277.41,-78.2 277.29,-82.2 277.29,-82.2 277.29,-82.2 277.41,-78.2 273.69,-82.09 277.53,-74.2 277.53,-74.2"/>
</a>
</g>
</g>
<!-- Node8 -->
<g id="Node000008" class="node">
<title>Node8</title>
<g id="a_Node000008"><a xlink:title=" ">
<polygon fill="#e0e0e0" stroke="#999999" points="365,-129 289,-129 289,-110 365,-110 365,-129"/>
<text text-anchor="middle" x="327" y="-117" font-family="Helvetica,sans-Serif" font-size="10.00">QJsonObject</text>
</a>
</g>
</g>
<!-- Node2&#45;&gt;Node8 -->
<g id="edge9_Node000002_Node000008" class="edge">
<title>Node2&#45;&gt;Node8</title>
<g id="a_edge9_Node000002_Node000008"><a xlink:title=" ">
<path fill="none" stroke="#63b8ff" d="M299.45,-164.75C304.3,-156.95 311.52,-145.37 317.35,-136"/>
<polygon fill="#63b8ff" stroke="#63b8ff" points="321.65,-129.09 320.48,-137.78 319.54,-132.48 317.42,-135.88 317.42,-135.88 317.42,-135.88 319.54,-132.48 314.37,-133.98 321.65,-129.09 321.65,-129.09"/>
</a>
</g>
</g>
<!-- Node9 -->
<g id="Node000009" class="node">
<title>Node9</title>
<g id="a_Node000009"><a xlink:title=" ">
<polygon fill="#e0e0e0" stroke="#999999" points="454.5,-129 383.5,-129 383.5,-110 454.5,-110 454.5,-129"/>
<text text-anchor="middle" x="419" y="-117" font-family="Helvetica,sans-Serif" font-size="10.00">QJsonValue</text>
</a>
</g>
</g>
<!-- Node2&#45;&gt;Node9 -->
<g id="edge10_Node000002_Node000009" class="edge">
<title>Node2&#45;&gt;Node9</title>
<g id="a_edge10_Node000002_Node000009"><a xlink:title=" ">
<path fill="none" stroke="#63b8ff" d="M314.08,-164.98C334.92,-156.15 367.66,-142.27 391.02,-132.36"/>
<polygon fill="#63b8ff" stroke="#63b8ff" points="398.55,-129.17 392.59,-135.61 394.87,-130.73 391.19,-132.29 391.19,-132.29 391.19,-132.29 394.87,-130.73 389.78,-128.98 398.55,-129.17 398.55,-129.17"/>
</a>
</g>
</g>
<!-- Node4 -->
<g id="Node000004" class="node">
<title>Node4</title>
<g id="a_Node000004"><a xlink:href="qtsmithy__global_8h.html" target="_top" xlink:title="Global QtSmithy library macros.">
<polygon fill="white" stroke="#666666" points="104,-74 0,-74 0,-55 104,-55 104,-74"/>
<text text-anchor="middle" x="52" y="-62" font-family="Helvetica,sans-Serif" font-size="10.00">qtsmithy_global.h</text>
</a>
</g>
</g>
<!-- Node3&#45;&gt;Node4 -->
<g id="edge3_Node000003_Node000004" class="edge">
<title>Node3&#45;&gt;Node4</title>
<g id="a_edge3_Node000003_Node000004"><a xlink:title=" ">
<path fill="none" stroke="#63b8ff" d="M163.63,-109.98C141.37,-101.11 106.33,-87.15 81.45,-77.24"/>
<polygon fill="#63b8ff" stroke="#63b8ff" points="73.76,-74.17 82.52,-73.79 77.47,-75.65 81.19,-77.13 81.19,-77.13 81.19,-77.13 77.47,-75.65 79.86,-80.48 73.76,-74.17 73.76,-74.17"/>
</a>
</g>
</g>
<!-- Node5 -->
<g id="Node000005" class="node">
<title>Node5</title>
<g id="a_Node000005"><a xlink:title=" ">
<polygon fill="#e0e0e0" stroke="#999999" points="121.5,-19 62.5,-19 62.5,0 121.5,0 121.5,-19"/>
<text text-anchor="middle" x="92" y="-7" font-family="Helvetica,sans-Serif" font-size="10.00">QtGlobal</text>
</a>
</g>
</g>
<!-- Node3&#45;&gt;Node5 -->
<g id="edge5_Node000003_Node000005" class="edge">
<title>Node3&#45;&gt;Node5</title>
<g id="a_edge5_Node000003_Node000005"><a xlink:title=" ">
<path fill="none" stroke="#63b8ff" d="M177.39,-109.66C161.44,-91.14 124.36,-48.08 104.72,-25.28"/>
<polygon fill="#63b8ff" stroke="#63b8ff" points="99.46,-19.16 107.4,-22.87 102.07,-22.19 104.68,-25.22 104.68,-25.22 104.68,-25.22 102.07,-22.19 101.95,-27.57 99.46,-19.16 99.46,-19.16"/>
</a>
</g>
</g>
<!-- Node3&#45;&gt;Node6 -->
<g id="edge6_Node000003_Node000006" class="edge">
<title>Node3&#45;&gt;Node6</title>
<g id="a_edge6_Node000003_Node000006"><a xlink:title=" ">
<path fill="none" stroke="#63b8ff" d="M199.94,-109.98C215.04,-101.38 238.53,-87.99 255.81,-78.15"/>
<polygon fill="#63b8ff" stroke="#63b8ff" points="262.79,-74.17 257.62,-81.26 259.31,-76.15 255.84,-78.13 255.84,-78.13 255.84,-78.13 259.31,-76.15 254.05,-75 262.79,-74.17 262.79,-74.17"/>
</a>
</g>
</g>
<!-- Node7 -->
<g id="Node000007" class="node">
<title>Node7</title>
<g id="a_Node000007"><a xlink:title=" ">
<polygon fill="#e0e0e0" stroke="#999999" points="209.5,-74 160.5,-74 160.5,-55 209.5,-55 209.5,-74"/>
<text text-anchor="middle" x="185" y="-62" font-family="Helvetica,sans-Serif" font-size="10.00">QHash</text>
</a>
</g>
</g>
<!-- Node3&#45;&gt;Node7 -->
<g id="edge7_Node000003_Node000007" class="edge">
<title>Node3&#45;&gt;Node7</title>
<g id="a_edge7_Node000003_Node000007"><a xlink:title=" ">
<path fill="none" stroke="#63b8ff" d="M185,-109.75C185,-102.26 185,-91.28 185,-82.13"/>
<polygon fill="#63b8ff" stroke="#63b8ff" points="185,-74.09 188.6,-82.09 185,-78.09 185,-82.09 185,-82.09 185,-82.09 185,-78.09 181.4,-82.09 185,-74.09 185,-74.09"/>
</a>
</g>
</g>
<!-- Node4&#45;&gt;Node5 -->
<g id="edge4_Node000004_Node000005" class="edge">
<title>Node4&#45;&gt;Node5</title>
<g id="a_edge4_Node000004_Node000005"><a xlink:title=" ">
<path fill="none" stroke="#63b8ff" d="M58.61,-54.75C64.55,-46.88 73.41,-35.14 80.51,-25.73"/>
<polygon fill="#63b8ff" stroke="#63b8ff" points="85.52,-19.09 83.57,-27.64 83.11,-22.28 80.7,-25.47 80.7,-25.47 80.7,-25.47 83.11,-22.28 77.82,-23.31 85.52,-19.09 85.52,-19.09"/>
</a>
</g>
</g>
</g>
</svg>
