<?xml version="1.0" encoding="UTF-8" standalone="no"?>
<!DOCTYPE svg PUBLIC "-//W3C//DTD SVG 1.1//EN"
 "http://www.w3.org/Graphics/SVG/1.1/DTD/svg11.dtd">
<!-- Generated by graphviz version 2.43.0 (0)
 -->
<!-- Title: shapeid.cpp Pages: 1 -->
<svg width="461pt" height="192pt"
 viewBox="0.00 0.00 460.50 192.00" xmlns="http://www.w3.org/2000/svg" xmlns:xlink="http://www.w3.org/1999/xlink">
<g id="graph0" class="graph" transform="scale(1 1) rotate(0) translate(4 188)">
<title>shapeid.cpp</title>
<!-- Node1 -->
<g id="Node000001" class="node">
<title>Node1</title>
<g id="a_Node000001"><a xlink:title="Defines the ShapeId and ShapeIdPrivate classes.">
<polygon fill="#999999" stroke="#666666" points="319.5,-184 244.5,-184 244.5,-165 319.5,-165 319.5,-184"/>
<text text-anchor="middle" x="282" y="-172" font-family="Helvetica,sans-Serif" font-size="10.00">shapeid.cpp</text>
</a>
</g>
</g>
<!-- Node2 -->
<g id="Node000002" class="node">
<title>Node2</title>
<g id="a_Node000002"><a xlink:href="shapeid_8h.html" target="_top" xlink:title="Declares the ShapeId class.">
<polygon fill="white" stroke="#666666" points="226,-129 116,-129 116,-110 226,-110 226,-129"/>
<text text-anchor="middle" x="171" y="-117" font-family="Helvetica,sans-Serif" font-size="10.00">qtsmithy/shapeid.h</text>
</a>
</g>
</g>
<!-- Node1&#45;&gt;Node2 -->
<g id="edge1_Node000001_Node000002" class="edge">
<title>Node1&#45;&gt;Node2</title>
<g id="a_edge1_Node000001_Node000002"><a xlink:title=" ">
<path fill="none" stroke="#63b8ff" d="M264.17,-164.98C245.83,-156.23 217.1,-142.51 196.39,-132.62"/>
<polygon fill="#63b8ff" stroke="#63b8ff" points="189.16,-129.17 197.93,-129.37 192.77,-130.89 196.38,-132.62 196.38,-132.62 196.38,-132.62 192.77,-130.89 194.83,-135.87 189.16,-129.17 189.16,-129.17"/>
</a>
</g>
</g>
<!-- Node7 -->
<g id="Node000007" class="node">
<title>Node7</title>
<g id="a_Node000007"><a xlink:title=" ">
<polygon fill="#e0e0e0" stroke="#999999" points="319.5,-129 244.5,-129 244.5,-110 319.5,-110 319.5,-129"/>
<text text-anchor="middle" x="282" y="-117" font-family="Helvetica,sans-Serif" font-size="10.00">shapeid_p.h</text>
</a>
</g>
</g>
<!-- Node1&#45;&gt;Node7 -->
<g id="edge7_Node000001_Node000007" class="edge">
<title>Node1&#45;&gt;Node7</title>
<g id="a_edge7_Node000001_Node000007"><a xlink:title=" ">
<path fill="none" stroke="#63b8ff" d="M282,-164.75C282,-157.26 282,-146.28 282,-137.13"/>
<polygon fill="#63b8ff" stroke="#63b8ff" points="282,-129.09 285.6,-137.09 282,-133.09 282,-137.09 282,-137.09 282,-137.09 282,-133.09 278.4,-137.09 282,-129.09 282,-129.09"/>
</a>
</g>
</g>
<!-- Node8 -->
<g id="Node000008" class="node">
<title>Node8</title>
<g id="a_Node000008"><a xlink:title=" ">
<polygon fill="#e0e0e0" stroke="#999999" points="452.5,-129 337.5,-129 337.5,-110 452.5,-110 452.5,-129"/>
<text text-anchor="middle" x="395" y="-117" font-family="Helvetica,sans-Serif" font-size="10.00">QRegularExpression</text>
</a>
</g>
</g>
<!-- Node1&#45;&gt;Node8 -->
<g id="edge8_Node000001_Node000008" class="edge">
<title>Node1&#45;&gt;Node8</title>
<g id="a_edge8_Node000001_Node000008"><a xlink:title=" ">
<path fill="none" stroke="#63b8ff" d="M300.16,-164.98C318.82,-156.23 348.07,-142.51 369.15,-132.62"/>
<polygon fill="#63b8ff" stroke="#63b8ff" points="376.51,-129.17 370.8,-135.83 372.89,-130.87 369.27,-132.57 369.27,-132.57 369.27,-132.57 372.89,-130.87 367.74,-129.31 376.51,-129.17 376.51,-129.17"/>
</a>
</g>
</g>
<!-- Node3 -->
<g id="Node000003" class="node">
<title>Node3</title>
<g id="a_Node000003"><a xlink:href="qtsmithy__global_8h.html" target="_top" xlink:title="Global QtSmithy library macros.">
<polygon fill="white" stroke="#666666" points="104,-74 0,-74 0,-55 104,-55 104,-74"/>
<text text-anchor="middle" x="52" y="-62" font-family="Helvetica,sans-Serif" font-size="10.00">qtsmithy_global.h</text>
</a>
</g>
</g>
<!-- Node2&#45;&gt;Node3 -->
<g id="edge2_Node000002_Node000003" class="edge">
<title>Node2&#45;&gt;Node3</title>
<g id="a_edge2_Node000002_Node000003"><a xlink:title=" ">
<path fill="none" stroke="#63b8ff" d="M151.88,-109.98C132.13,-101.19 101.15,-87.39 78.93,-77.49"/>
<polygon fill="#63b8ff" stroke="#63b8ff" points="71.47,-74.17 80.24,-74.14 75.12,-75.8 78.78,-77.43 78.78,-77.43 78.78,-77.43 75.12,-75.8 77.31,-80.71 71.47,-74.17 71.47,-74.17"/>
</a>
</g>
</g>
<!-- Node4 -->
<g id="Node000004" class="node">
<title>Node4</title>
<g id="a_Node000004"><a xlink:title=" ">
<polygon fill="#e0e0e0" stroke="#999999" points="121.5,-19 62.5,-19 62.5,0 121.5,0 121.5,-19"/>
<text text-anchor="middle" x="92" y="-7" font-family="Helvetica,sans-Serif" font-size="10.00">QtGlobal</text>
</a>
</g>
</g>
<!-- Node2&#45;&gt;Node4 -->
<g id="edge4_Node000002_Node000004" class="edge">
<title>Node2&#45;&gt;Node4</title>
<g id="a_edge4_Node000002_Node000004"><a xlink:title=" ">
<path fill="none" stroke="#63b8ff" d="M164.54,-109.66C151.1,-91.3 120.03,-48.81 103.24,-25.87"/>
<polygon fill="#63b8ff" stroke="#63b8ff" points="98.33,-19.16 105.96,-23.49 100.7,-22.39 103.06,-25.62 103.06,-25.62 103.06,-25.62 100.7,-22.39 100.15,-27.74 98.33,-19.16 98.33,-19.16"/>
</a>
</g>
</g>
<!-- Node5 -->
<g id="Node000005" class="node">
<title>Node5</title>
<g id="a_Node000005"><a xlink:title=" ">
<polygon fill="#e0e0e0" stroke="#999999" points="261.5,-74 160.5,-74 160.5,-55 261.5,-55 261.5,-74"/>
<text text-anchor="middle" x="211" y="-62" font-family="Helvetica,sans-Serif" font-size="10.00">QCoreApplication</text>
</a>
</g>
</g>
<!-- Node2&#45;&gt;Node5 -->
<g id="edge5_Node000002_Node000005" class="edge">
<title>Node2&#45;&gt;Node5</title>
<g id="a_edge5_Node000002_Node000005"><a xlink:title=" ">
<path fill="none" stroke="#63b8ff" d="M177.61,-109.75C183.55,-101.88 192.41,-90.14 199.51,-80.73"/>
<polygon fill="#63b8ff" stroke="#63b8ff" points="204.52,-74.09 202.57,-82.64 202.11,-77.28 199.7,-80.47 199.7,-80.47 199.7,-80.47 202.11,-77.28 196.82,-78.31 204.52,-74.09 204.52,-74.09"/>
</a>
</g>
</g>
<!-- Node6 -->
<g id="Node000006" class="node">
<title>Node6</title>
<g id="a_Node000006"><a xlink:title=" ">
<polygon fill="#e0e0e0" stroke="#999999" points="328.5,-74 279.5,-74 279.5,-55 328.5,-55 328.5,-74"/>
<text text-anchor="middle" x="304" y="-62" font-family="Helvetica,sans-Serif" font-size="10.00">QHash</text>
</a>
</g>
</g>
<!-- Node2&#45;&gt;Node6 -->
<g id="edge6_Node000002_Node000006" class="edge">
<title>Node2&#45;&gt;Node6</title>
<g id="a_edge6_Node000002_Node000006"><a xlink:title=" ">
<path fill="none" stroke="#63b8ff" d="M192.37,-109.98C214.63,-101.11 249.67,-87.15 274.55,-77.24"/>
<polygon fill="#63b8ff" stroke="#63b8ff" points="282.24,-74.17 276.14,-80.48 278.53,-75.65 274.81,-77.13 274.81,-77.13 274.81,-77.13 278.53,-75.65 273.48,-73.79 282.24,-74.17 282.24,-74.17"/>
</a>
</g>
</g>
<!-- Node3&#45;&gt;Node4 -->
<g id="edge3_Node000003_Node000004" class="edge">
<title>Node3&#45;&gt;Node4</title>
<g id="a_edge3_Node000003_Node000004"><a xlink:title=" ">
<path fill="none" stroke="#63b8ff" d="M58.61,-54.75C64.55,-46.88 73.41,-35.14 80.51,-25.73"/>
<polygon fill="#63b8ff" stroke="#63b8ff" points="85.52,-19.09 83.57,-27.64 83.11,-22.28 80.7,-25.47 80.7,-25.47 80.7,-25.47 83.11,-22.28 77.82,-23.31 85.52,-19.09 85.52,-19.09"/>
</a>
</g>
</g>
</g>
</svg>
