<?xml version="1.0" encoding="UTF-8" standalone="no"?>
<!DOCTYPE svg PUBLIC "-//W3C//DTD SVG 1.1//EN"
 "http://www.w3.org/Graphics/SVG/1.1/DTD/svg11.dtd">
<!-- Generated by graphviz version 2.43.0 (0)
 -->
<!-- Title: Shape::Member Pages: 1 -->
<svg width="330pt" height="159pt"
 viewBox="0.00 0.00 329.50 159.00" xmlns="http://www.w3.org/2000/svg" xmlns:xlink="http://www.w3.org/1999/xlink">
<g id="graph0" class="graph" transform="scale(1 1) rotate(0) translate(4 155)">
<title>Shape::Member</title>
<!-- Node1 -->
<g id="node1" class="node">
<title>Node1</title>
<g id="a_node1"><a xlink:title=" ">
<polygon fill="#999999" stroke="#666666" points="197.5,-19 104.5,-19 104.5,0 197.5,0 197.5,-19"/>
<text text-anchor="middle" x="151" y="-7" font-family="Helvetica,sans-Serif" font-size="10.00">Shape::Member</text>
</a>
</g>
</g>
<!-- Node2 -->
<g id="node2" class="node">
<title>Node2</title>
<g id="a_node2"><a xlink:href="structShape_1_1ShapeReference.html" target="_top" xlink:title=" ">
<polygon fill="white" stroke="#bfbfbf" points="132,-85 0,-85 0,-66 132,-66 132,-85"/>
<text text-anchor="middle" x="66" y="-73" font-family="Helvetica,sans-Serif" font-size="10.00">Shape::ShapeReference</text>
</a>
</g>
</g>
<!-- Node2&#45;&gt;Node1 -->
<g id="edge1" class="edge">
<title>Node2&#45;&gt;Node1</title>
<path fill="none" stroke="#63b8ff" d="M84.12,-60.86C100.85,-48.26 125.21,-29.92 139.45,-19.2"/>
<polygon fill="#63b8ff" stroke="#63b8ff" points="77.46,-65.87 81.69,-58.18 80.66,-63.46 83.85,-61.06 83.85,-61.06 83.85,-61.06 80.66,-63.46 86.02,-63.93 77.46,-65.87 77.46,-65.87"/>
</g>
<!-- Node3 -->
<g id="node3" class="node">
<title>Node3</title>
<g id="a_node3"><a xlink:href="classShapeId.html" target="_top" xlink:title="The ShapeId class provides a Qt representation of a Smithy Shape ID.">
<polygon fill="white" stroke="#666666" points="94,-151 38,-151 38,-132 94,-132 94,-151"/>
<text text-anchor="middle" x="66" y="-139" font-family="Helvetica,sans-Serif" font-size="10.00">ShapeId</text>
</a>
</g>
</g>
<!-- Node3&#45;&gt;Node2 -->
<g id="edge2" class="edge">
<title>Node3&#45;&gt;Node2</title>
<path fill="none" stroke="#9a32cd" stroke-dasharray="5,2" d="M66,-123.77C66,-111.49 66,-95.3 66,-85.41"/>
<polygon fill="#9a32cd" stroke="#9a32cd" points="66,-131.87 62.4,-123.87 66,-127.87 66,-123.87 66,-123.87 66,-123.87 66,-127.87 69.6,-123.87 66,-131.87 66,-131.87"/>
<text text-anchor="middle" x="82.5" y="-106" font-family="Helvetica,sans-Serif" font-size="10.00"> target</text>
</g>
<!-- Node4 -->
<g id="node4" class="node">
<title>Node4</title>
<g id="a_node4"><a target="_parent" xlink:href="https://doc.qt.io/qt-5/qhash.html" xlink:title=" ">
<polygon fill="white" stroke="#bfbfbf" points="321.5,-85 150.5,-85 150.5,-66 321.5,-66 321.5,-85"/>
<text text-anchor="middle" x="236" y="-73" font-family="Helvetica,sans-Serif" font-size="10.00">QHash&lt; ShapeId, QJsonValue &gt;</text>
</a>
</g>
</g>
<!-- Node4&#45;&gt;Node1 -->
<g id="edge3" class="edge">
<title>Node4&#45;&gt;Node1</title>
<path fill="none" stroke="#9a32cd" stroke-dasharray="5,2" d="M217.88,-60.86C201.15,-48.26 176.79,-29.92 162.55,-19.2"/>
<polygon fill="#9a32cd" stroke="#9a32cd" points="224.54,-65.87 215.98,-63.93 221.34,-63.46 218.15,-61.06 218.15,-61.06 218.15,-61.06 221.34,-63.46 220.31,-58.18 224.54,-65.87 224.54,-65.87"/>
<text text-anchor="middle" x="213.5" y="-40" font-family="Helvetica,sans-Serif" font-size="10.00"> traits</text>
</g>
</g>
</svg>
