<?xml version="1.0" encoding="UTF-8" standalone="no"?>
<!DOCTYPE svg PUBLIC "-//W3C//DTD SVG 1.1//EN"
 "http://www.w3.org/Graphics/SVG/1.1/DTD/svg11.dtd">
<!-- Generated by graphviz version 2.43.0 (0)
 -->
<!-- Title: Shape::Member Pages: 1 -->
<svg width="140pt" height="149pt"
 viewBox="0.00 0.00 140.00 149.00" xmlns="http://www.w3.org/2000/svg" xmlns:xlink="http://www.w3.org/1999/xlink">
<g id="graph0" class="graph" transform="scale(1 1) rotate(0) translate(4 145)">
<title>Shape::Member</title>
<!-- Node1 -->
<g id="Node000001" class="node">
<title>Node1</title>
<g id="a_Node000001"><a xlink:title=" ">
<polygon fill="#999999" stroke="#666666" points="112.5,-19 19.5,-19 19.5,0 112.5,0 112.5,-19"/>
<text text-anchor="middle" x="66" y="-7" font-family="Helvetica,sans-Serif" font-size="10.00">Shape::Member</text>
</a>
</g>
</g>
<!-- Node2 -->
<g id="Node000002" class="node">
<title>Node2</title>
<g id="a_Node000002"><a xlink:href="structShape_1_1ShapeReference.html" target="_top" xlink:title=" ">
<polygon fill="white" stroke="#bfbfbf" points="132,-75 0,-75 0,-56 132,-56 132,-75"/>
<text text-anchor="middle" x="66" y="-63" font-family="Helvetica,sans-Serif" font-size="10.00">Shape::ShapeReference</text>
</a>
</g>
</g>
<!-- Node2&#45;&gt;Node1 -->
<g id="edge1_Node000001_Node000002" class="edge">
<title>Node2&#45;&gt;Node1</title>
<g id="a_edge1_Node000001_Node000002"><a xlink:title=" ">
<path fill="none" stroke="#63b8ff" d="M66,-47.36C66,-38 66,-26.83 66,-19.25"/>
<polygon fill="#63b8ff" stroke="#63b8ff" points="66,-55.58 62.4,-47.58 66,-51.58 66,-47.58 66,-47.58 66,-47.58 66,-51.58 69.6,-47.58 66,-55.58 66,-55.58"/>
</a>
</g>
</g>
<!-- Node3 -->
<g id="Node000003" class="node">
<title>Node3</title>
<g id="a_Node000003"><a xlink:href="classShapeId.html" target="_top" xlink:title="The ShapeId class provides a Qt representation of a Smithy Shape ID.">
<polygon fill="white" stroke="#666666" points="94,-141 38,-141 38,-122 94,-122 94,-141"/>
<text text-anchor="middle" x="66" y="-129" font-family="Helvetica,sans-Serif" font-size="10.00">ShapeId</text>
</a>
</g>
</g>
<!-- Node3&#45;&gt;Node2 -->
<g id="edge2_Node000002_Node000003" class="edge">
<title>Node3&#45;&gt;Node2</title>
<g id="a_edge2_Node000002_Node000003"><a xlink:title=" ">
<path fill="none" stroke="#9a32cd" stroke-dasharray="5,2" d="M66,-113.77C66,-101.49 66,-85.3 66,-75.41"/>
<polygon fill="#9a32cd" stroke="#9a32cd" points="66,-121.87 62.4,-113.87 66,-117.87 66,-113.87 66,-113.87 66,-113.87 66,-117.87 69.6,-113.87 66,-121.87 66,-121.87"/>
</a>
</g>
<text text-anchor="middle" x="82.5" y="-96" font-family="Helvetica,sans-Serif" font-size="10.00" fill="grey"> target</text>
</g>
</g>
</svg>
