<?xml version="1.0" encoding="UTF-8" standalone="no"?>
<!DOCTYPE svg PUBLIC "-//W3C//DTD SVG 1.1//EN"
 "http://www.w3.org/Graphics/SVG/1.1/DTD/svg11.dtd">
<!-- Generated by graphviz version 2.43.0 (0)
 -->
<!-- Title: ShapeId::nameSpace Pages: 1 -->
<svg width="762pt" height="178pt"
 viewBox="0.00 0.00 762.00 178.00" xmlns="http://www.w3.org/2000/svg" xmlns:xlink="http://www.w3.org/1999/xlink">
<g id="graph0" class="graph" transform="scale(1 1) rotate(0) translate(4 174)">
<title>ShapeId::nameSpace</title>
<!-- Node1 -->
<g id="Node000001" class="node">
<title>Node1</title>
<g id="a_Node000001"><a xlink:title="Returns the Shape ID&#39;s namespace, if it has one, otherwise a null string.">
<polygon fill="#999999" stroke="#666666" points="754,-132 635,-132 635,-113 754,-113 754,-132"/>
<text text-anchor="middle" x="694.5" y="-120" font-family="Helvetica,sans-Serif" font-size="10.00">ShapeId::nameSpace</text>
</a>
</g>
</g>
<!-- Node2 -->
<g id="Node000002" class="node">
<title>Node2</title>
<g id="a_Node000002"><a xlink:href="classShapeId.html#a42ae1231e4d242958ab12e61504e33ca" target="_top" xlink:title="Returns this object as an absolute Smithy Shape ID if this object has a namespace,...">
<polygon fill="white" stroke="#666666" points="410.5,-170 267.5,-170 267.5,-151 410.5,-151 410.5,-170"/>
<text text-anchor="middle" x="339" y="-158" font-family="Helvetica,sans-Serif" font-size="10.00">ShapeId::absoluteShapeId</text>
</a>
</g>
</g>
<!-- Node1&#45;&gt;Node2 -->
<g id="edge1_Node000001_Node000002" class="edge">
<title>Node1&#45;&gt;Node2</title>
<g id="a_edge1_Node000001_Node000002"><a xlink:title=" ">
<path fill="none" stroke="#63b8ff" d="M626.61,-129.69C564.93,-136.32 473.68,-146.13 410.8,-152.89"/>
<polygon fill="#63b8ff" stroke="#63b8ff" points="634.73,-128.82 627.16,-133.25 630.75,-129.25 626.78,-129.67 626.78,-129.67 626.78,-129.67 630.75,-129.25 626.39,-126.09 634.73,-128.82 634.73,-128.82"/>
</a>
</g>
</g>
<!-- Node5 -->
<g id="Node000005" class="node">
<title>Node5</title>
<g id="a_Node000005"><a xlink:href="classShapeId.html#ad0bbf397b25b50a3fc9c145cea67ce11" target="_top" xlink:title="Returns true if this Shape ID has a non&#45;empty namespace, otherwise false otherwise.">
<polygon fill="white" stroke="#666666" points="599,-113 462,-113 462,-94 599,-94 599,-113"/>
<text text-anchor="middle" x="530.5" y="-101" font-family="Helvetica,sans-Serif" font-size="10.00">ShapeId::hasNameSpace</text>
</a>
</g>
</g>
<!-- Node1&#45;&gt;Node5 -->
<g id="edge4_Node000001_Node000005" class="edge">
<title>Node1&#45;&gt;Node5</title>
<g id="a_edge4_Node000001_Node000005"><a xlink:title=" ">
<path fill="none" stroke="#63b8ff" d="M626.39,-114.63C617.4,-113.57 608.18,-112.49 599.19,-111.44"/>
<polygon fill="#63b8ff" stroke="#63b8ff" points="634.56,-115.59 626.19,-118.23 630.58,-115.12 626.61,-114.65 626.61,-114.65 626.61,-114.65 630.58,-115.12 627.03,-111.08 634.56,-115.59 634.56,-115.59"/>
</a>
</g>
</g>
<!-- Node3 -->
<g id="Node000003" class="node">
<title>Node3</title>
<g id="a_Node000003"><a xlink:href="classShapeId.html#a564f14952b394af6b38f748417a7e48a" target="_top" xlink:title="Returns this object as an absolute Smithy Shape ID if this object has a namespace,...">
<polygon fill="white" stroke="#666666" points="216,-132 116,-132 116,-113 216,-113 216,-132"/>
<text text-anchor="middle" x="166" y="-120" font-family="Helvetica,sans-Serif" font-size="10.00">ShapeId::toString</text>
</a>
</g>
</g>
<!-- Node2&#45;&gt;Node3 -->
<g id="edge2_Node000002_Node000003" class="edge">
<title>Node2&#45;&gt;Node3</title>
<g id="a_edge2_Node000002_Node000003"><a xlink:title=" ">
<path fill="none" stroke="#63b8ff" d="M287.04,-149.18C262.45,-143.71 233.27,-137.23 209.84,-132.02"/>
<polygon fill="#63b8ff" stroke="#63b8ff" points="294.85,-150.91 286.26,-152.69 290.94,-150.04 287.04,-149.18 287.04,-149.18 287.04,-149.18 290.94,-150.04 287.82,-145.66 294.85,-150.91 294.85,-150.91"/>
</a>
</g>
</g>
<!-- Node4 -->
<g id="Node000004" class="node">
<title>Node4</title>
<g id="a_Node000004"><a xlink:href="classModel.html#a5296da875545acf527ce42c707d1ead1" target="_top" xlink:title="Add the logical content of the JSON AST model file given by ast into this semantic model.">
<polygon fill="white" stroke="#666666" points="80,-113 0,-113 0,-94 80,-94 80,-113"/>
<text text-anchor="middle" x="40" y="-101" font-family="Helvetica,sans-Serif" font-size="10.00">Model::insert</text>
</a>
</g>
</g>
<!-- Node3&#45;&gt;Node4 -->
<g id="edge3_Node000003_Node000004" class="edge">
<title>Node3&#45;&gt;Node4</title>
<g id="a_edge3_Node000003_Node000004"><a xlink:title=" ">
<path fill="none" stroke="#63b8ff" d="M107.81,-113.74C98.44,-112.3 88.91,-110.84 80.11,-109.49"/>
<polygon fill="#63b8ff" stroke="#63b8ff" points="115.99,-114.99 107.54,-117.34 112.04,-114.38 108.08,-113.78 108.08,-113.78 108.08,-113.78 112.04,-114.38 108.63,-110.22 115.99,-114.99 115.99,-114.99"/>
</a>
</g>
</g>
<!-- Node5&#45;&gt;Node2 -->
<g id="edge5_Node000005_Node000002" class="edge">
<title>Node5&#45;&gt;Node2</title>
<g id="a_edge5_Node000005_Node000002"><a xlink:title=" ">
<path fill="none" stroke="#63b8ff" d="M492.74,-115.58C473.01,-121.97 448.23,-129.86 426,-136.5 409.37,-141.47 390.83,-146.69 375.23,-150.98"/>
<polygon fill="#63b8ff" stroke="#63b8ff" points="500.59,-113.03 494.09,-118.93 496.78,-114.27 492.98,-115.5 492.98,-115.5 492.98,-115.5 496.78,-114.27 491.87,-112.08 500.59,-113.03 500.59,-113.03"/>
</a>
</g>
</g>
<!-- Node5&#45;&gt;Node3 -->
<g id="edge9_Node000005_Node000003" class="edge">
<title>Node5&#45;&gt;Node3</title>
<g id="a_edge9_Node000005_Node000003"><a xlink:title=" ">
<path fill="none" stroke="#63b8ff" d="M453.63,-107.48C382.17,-111.22 277.22,-116.72 216.13,-119.93"/>
<polygon fill="#63b8ff" stroke="#63b8ff" points="461.74,-107.05 453.94,-111.07 457.75,-107.26 453.75,-107.47 453.75,-107.47 453.75,-107.47 457.75,-107.26 453.56,-103.88 461.74,-107.05 461.74,-107.05"/>
</a>
</g>
</g>
<!-- Node5&#45;&gt;Node4 -->
<g id="edge6_Node000005_Node000004" class="edge">
<title>Node5&#45;&gt;Node4</title>
<g id="a_edge6_Node000005_Node000004"><a xlink:title=" ">
<path fill="none" stroke="#63b8ff" d="M453.76,-103.5C348.27,-103.5 160.98,-103.5 80.04,-103.5"/>
<polygon fill="#63b8ff" stroke="#63b8ff" points="461.83,-103.5 453.83,-107.1 457.83,-103.5 453.83,-103.5 453.83,-103.5 453.83,-103.5 457.83,-103.5 453.83,-99.9 461.83,-103.5 461.83,-103.5"/>
</a>
</g>
</g>
<!-- Node6 -->
<g id="Node000006" class="node">
<title>Node6</title>
<g id="a_Node000006"><a xlink:href="classShapeId.html#ae7a29dab73bbbfbd0e02bdbdccc748ad" target="_top" xlink:title="Returns true if this Shape ID is a root Shape ID, and has a namespace, false otherwise.">
<polygon fill="white" stroke="#666666" points="426,-56 252,-56 252,-37 426,-37 426,-56"/>
<text text-anchor="middle" x="339" y="-44" font-family="Helvetica,sans-Serif" font-size="10.00">ShapeId::isAbsoluteRootShapeId</text>
</a>
</g>
</g>
<!-- Node5&#45;&gt;Node6 -->
<g id="edge7_Node000005_Node000006" class="edge">
<title>Node5&#45;&gt;Node6</title>
<g id="a_edge7_Node000005_Node000006"><a xlink:title=" ">
<path fill="none" stroke="#63b8ff" d="M492.74,-91.42C473.01,-85.03 448.23,-77.14 426,-70.5 409.37,-65.53 390.83,-60.31 375.23,-56.02"/>
<polygon fill="#63b8ff" stroke="#63b8ff" points="500.59,-93.97 491.87,-94.92 496.78,-92.73 492.98,-91.5 492.98,-91.5 492.98,-91.5 496.78,-92.73 494.09,-88.07 500.59,-93.97 500.59,-93.97"/>
</a>
</g>
</g>
<!-- Node7 -->
<g id="Node000007" class="node">
<title>Node7</title>
<g id="a_Node000007"><a xlink:href="classShapeId.html#af929aaedb6df234458a445eabac27a1a" target="_top" xlink:title="Returns true if this Shape ID is a relative Shape ID, false otherwise.">
<polygon fill="white" stroke="#666666" points="413.5,-19 264.5,-19 264.5,0 413.5,0 413.5,-19"/>
<text text-anchor="middle" x="339" y="-7" font-family="Helvetica,sans-Serif" font-size="10.00">ShapeId::isRelativeShapeId</text>
</a>
</g>
</g>
<!-- Node5&#45;&gt;Node7 -->
<g id="edge8_Node000005_Node000007" class="edge">
<title>Node5&#45;&gt;Node7</title>
<g id="a_edge8_Node000005_Node000007"><a xlink:title=" ">
<path fill="none" stroke="#63b8ff" d="M513.28,-88.42C493.96,-71.31 460.01,-43.78 426,-28.5 417.35,-24.61 407.85,-21.5 398.41,-19"/>
<polygon fill="#63b8ff" stroke="#63b8ff" points="519.25,-93.8 510.89,-91.12 516.27,-91.12 513.3,-88.45 513.3,-88.45 513.3,-88.45 516.27,-91.12 515.71,-85.77 519.25,-93.8 519.25,-93.8"/>
</a>
</g>
</g>
</g>
</svg>
