<?xml version="1.0" encoding="UTF-8" standalone="no"?>
<!DOCTYPE svg PUBLIC "-//W3C//DTD SVG 1.1//EN"
 "http://www.w3.org/Graphics/SVG/1.1/DTD/svg11.dtd">
<!-- Generated by graphviz version 2.43.0 (0)
 -->
<!-- Title: Generator::generate Pages: 1 -->
<svg width="444pt" height="347pt"
 viewBox="0.00 0.00 444.00 347.00" xmlns="http://www.w3.org/2000/svg" xmlns:xlink="http://www.w3.org/1999/xlink">
<g id="graph0" class="graph" transform="scale(1 1) rotate(0) translate(4 343)">
<title>Generator::generate</title>
<!-- Node1 -->
<g id="node1" class="node">
<title>Node1</title>
<g id="a_node1"><a xlink:title=" ">
<polygon fill="#999999" stroke="#666666" points="115,-179 0,-179 0,-160 115,-160 115,-179"/>
<text text-anchor="middle" x="57.5" y="-167" font-family="Helvetica,sans-Serif" font-size="10.00">Generator::generate</text>
</a>
</g>
</g>
<!-- Node2 -->
<g id="node2" class="node">
<title>Node2</title>
<g id="a_node2"><a target="_parent" xlink:href="https://doc.qt.io/qt-5/qlist.html#append" xlink:title=" ">
<polygon fill="white" stroke="#666666" points="268,-339 185,-339 185,-320 268,-320 268,-339"/>
<text text-anchor="middle" x="226.5" y="-327" font-family="Helvetica,sans-Serif" font-size="10.00">QList::append</text>
</a>
</g>
</g>
<!-- Node1&#45;&gt;Node2 -->
<g id="edge1" class="edge">
<title>Node1&#45;&gt;Node2</title>
<path fill="none" stroke="#63b8ff" d="M61.9,-179.25C71.48,-205.2 101.26,-276.35 151,-311.5 158.65,-316.91 167.72,-320.7 176.86,-323.36"/>
<polygon fill="#63b8ff" stroke="#63b8ff" points="184.87,-325.42 176.23,-326.91 181,-324.42 177.12,-323.43 177.12,-323.43 177.12,-323.43 181,-324.42 178.02,-319.94 184.87,-325.42 184.87,-325.42"/>
</g>
<!-- Node3 -->
<g id="node3" class="node">
<title>Node3</title>
<g id="a_node3"><a target="_parent" xlink:href="https://doc.qt.io/qt-5/qlist.html#constBegin" xlink:title=" ">
<polygon fill="white" stroke="#666666" points="277,-302 176,-302 176,-283 277,-283 277,-302"/>
<text text-anchor="middle" x="226.5" y="-290" font-family="Helvetica,sans-Serif" font-size="10.00">QList::constBegin</text>
</a>
</g>
</g>
<!-- Node1&#45;&gt;Node3 -->
<g id="edge2" class="edge">
<title>Node1&#45;&gt;Node3</title>
<path fill="none" stroke="#63b8ff" d="M64.06,-179.08C76.67,-199.93 109.6,-249.53 151,-274.5 156.29,-277.69 162.11,-280.31 168.09,-282.47"/>
<polygon fill="#63b8ff" stroke="#63b8ff" points="175.73,-284.97 167.01,-285.91 171.93,-283.73 168.12,-282.49 168.12,-282.49 168.12,-282.49 171.93,-283.73 169.24,-279.06 175.73,-284.97 175.73,-284.97"/>
</g>
<!-- Node4 -->
<g id="node4" class="node">
<title>Node4</title>
<g id="a_node4"><a target="_parent" xlink:href="https://doc.qt.io/qt-5/qlist.html#constEnd" xlink:title=" ">
<polygon fill="white" stroke="#666666" points="272.5,-265 180.5,-265 180.5,-246 272.5,-246 272.5,-265"/>
<text text-anchor="middle" x="226.5" y="-253" font-family="Helvetica,sans-Serif" font-size="10.00">QList::constEnd</text>
</a>
</g>
</g>
<!-- Node1&#45;&gt;Node4 -->
<g id="edge3" class="edge">
<title>Node1&#45;&gt;Node4</title>
<path fill="none" stroke="#63b8ff" d="M69.03,-179.22C85.36,-193.78 118.32,-221.18 151,-236.5 157.75,-239.66 165.09,-242.35 172.45,-244.62"/>
<polygon fill="#63b8ff" stroke="#63b8ff" points="180.42,-246.91 171.74,-248.16 176.58,-245.81 172.74,-244.7 172.74,-244.7 172.74,-244.7 176.58,-245.81 173.73,-241.24 180.42,-246.91 180.42,-246.91"/>
</g>
<!-- Node5 -->
<g id="node5" class="node">
<title>Node5</title>
<g id="a_node5"><a target="_parent" xlink:href="https://doc.qt.io/qt-5/qregularexpressionmatch.html#hasMatch" xlink:title=" ">
<polygon fill="white" stroke="#666666" points="299,-227.5 154,-227.5 154,-197.5 299,-197.5 299,-227.5"/>
<text text-anchor="start" x="162" y="-215.5" font-family="Helvetica,sans-Serif" font-size="10.00">QRegularExpressionMatch</text>
<text text-anchor="middle" x="226.5" y="-204.5" font-family="Helvetica,sans-Serif" font-size="10.00">::hasMatch</text>
</a>
</g>
</g>
<!-- Node1&#45;&gt;Node5 -->
<g id="edge4" class="edge">
<title>Node1&#45;&gt;Node5</title>
<path fill="none" stroke="#63b8ff" d="M95.56,-179.04C114.31,-183.87 137.62,-189.87 159.31,-195.46"/>
<polygon fill="#63b8ff" stroke="#63b8ff" points="167.22,-197.49 158.57,-198.99 163.35,-196.5 159.47,-195.5 159.47,-195.5 159.47,-195.5 163.35,-196.5 160.37,-192.01 167.22,-197.49 167.22,-197.49"/>
</g>
<!-- Node6 -->
<g id="node6" class="node">
<title>Node6</title>
<g id="a_node6"><a target="_parent" xlink:href="https://doc.qt.io/qt-5/qjsonobject.html#insert" xlink:title=" ">
<polygon fill="white" stroke="#666666" points="281.5,-179 171.5,-179 171.5,-160 281.5,-160 281.5,-179"/>
<text text-anchor="middle" x="226.5" y="-167" font-family="Helvetica,sans-Serif" font-size="10.00">QJsonObject::insert</text>
</a>
</g>
</g>
<!-- Node1&#45;&gt;Node6 -->
<g id="edge5" class="edge">
<title>Node1&#45;&gt;Node6</title>
<path fill="none" stroke="#63b8ff" d="M115.04,-169.5C130.51,-169.5 147.36,-169.5 163.14,-169.5"/>
<polygon fill="#63b8ff" stroke="#63b8ff" points="171.28,-169.5 163.28,-173.1 167.28,-169.5 163.28,-169.5 163.28,-169.5 163.28,-169.5 167.28,-169.5 163.28,-165.9 171.28,-169.5 171.28,-169.5"/>
</g>
<!-- Node7 -->
<g id="node7" class="node">
<title>Node7</title>
<g id="a_node7"><a target="_parent" xlink:href="https://doc.qt.io/qt-5/qregularexpression.html#match" xlink:title=" ">
<polygon fill="white" stroke="#666666" points="284,-141.5 169,-141.5 169,-111.5 284,-111.5 284,-141.5"/>
<text text-anchor="start" x="177" y="-129.5" font-family="Helvetica,sans-Serif" font-size="10.00">QRegularExpression</text>
<text text-anchor="middle" x="226.5" y="-118.5" font-family="Helvetica,sans-Serif" font-size="10.00">::match</text>
</a>
</g>
</g>
<!-- Node1&#45;&gt;Node7 -->
<g id="edge6" class="edge">
<title>Node1&#45;&gt;Node7</title>
<path fill="none" stroke="#63b8ff" d="M95.56,-159.96C114.82,-155 138.9,-148.8 161.09,-143.09"/>
<polygon fill="#63b8ff" stroke="#63b8ff" points="168.84,-141.09 162,-146.57 164.97,-142.09 161.1,-143.08 161.1,-143.08 161.1,-143.08 164.97,-142.09 160.2,-139.6 168.84,-141.09 168.84,-141.09"/>
</g>
<!-- Node8 -->
<g id="node8" class="node">
<title>Node8</title>
<g id="a_node8"><a xlink:href="classGenerator.html#a8f048398850e7c5c5e7d7a1af71de172" target="_top" xlink:title=" ">
<polygon fill="white" stroke="#666666" points="302,-93 151,-93 151,-74 302,-74 302,-93"/>
<text text-anchor="middle" x="226.5" y="-81" font-family="Helvetica,sans-Serif" font-size="10.00">Generator::renderOperation</text>
</a>
</g>
</g>
<!-- Node1&#45;&gt;Node8 -->
<g id="edge7" class="edge">
<title>Node1&#45;&gt;Node8</title>
<path fill="none" stroke="#63b8ff" d="M69.03,-159.78C85.36,-145.22 118.32,-117.82 151,-102.5 156.69,-99.83 162.81,-97.5 169.01,-95.48"/>
<polygon fill="#63b8ff" stroke="#63b8ff" points="176.88,-93.07 170.28,-98.85 173.05,-94.24 169.23,-95.41 169.23,-95.41 169.23,-95.41 173.05,-94.24 168.18,-91.97 176.88,-93.07 176.88,-93.07"/>
</g>
<!-- Node11 -->
<g id="node11" class="node">
<title>Node11</title>
<g id="a_node11"><a target="_parent" xlink:href="https://doc.qt.io/qt-5/qlist.html#size" xlink:title=" ">
<polygon fill="white" stroke="#666666" points="260,-56 193,-56 193,-37 260,-37 260,-56"/>
<text text-anchor="middle" x="226.5" y="-44" font-family="Helvetica,sans-Serif" font-size="10.00">QList::size</text>
</a>
</g>
</g>
<!-- Node1&#45;&gt;Node11 -->
<g id="edge10" class="edge">
<title>Node1&#45;&gt;Node11</title>
<path fill="none" stroke="#63b8ff" d="M64.06,-159.92C76.67,-139.07 109.6,-89.47 151,-64.5 161.08,-58.42 173.1,-54.39 184.51,-51.72"/>
<polygon fill="#63b8ff" stroke="#63b8ff" points="192.67,-50.01 185.58,-55.17 188.76,-50.83 184.84,-51.65 184.84,-51.65 184.84,-51.65 188.76,-50.83 184.1,-48.13 192.67,-50.01 192.67,-50.01"/>
</g>
<!-- Node12 -->
<g id="node12" class="node">
<title>Node12</title>
<g id="a_node12"><a target="_parent" xlink:href="https://doc.qt.io/qt-5/qjsonobject.html#toVariantMap" xlink:title=" ">
<polygon fill="white" stroke="#666666" points="300,-19 153,-19 153,0 300,0 300,-19"/>
<text text-anchor="middle" x="226.5" y="-7" font-family="Helvetica,sans-Serif" font-size="10.00">QJsonObject::toVariantMap</text>
</a>
</g>
</g>
<!-- Node1&#45;&gt;Node12 -->
<g id="edge11" class="edge">
<title>Node1&#45;&gt;Node12</title>
<path fill="none" stroke="#63b8ff" d="M61.9,-159.75C71.48,-133.8 101.26,-62.65 151,-27.5 153.54,-25.7 156.24,-24.09 159.04,-22.63"/>
<polygon fill="#63b8ff" stroke="#63b8ff" points="166.68,-19.14 160.9,-25.74 163.04,-20.8 159.41,-22.46 159.41,-22.46 159.41,-22.46 163.04,-20.8 157.91,-19.19 166.68,-19.14 166.68,-19.14"/>
</g>
<!-- Node9 -->
<g id="node9" class="node">
<title>Node9</title>
<g id="a_node9"><a target="_parent" xlink:href="https://doc.qt.io/qt-5/qstring.html#arg-11" xlink:title=" ">
<polygon fill="white" stroke="#666666" points="424,-111 350,-111 350,-92 424,-92 424,-111"/>
<text text-anchor="middle" x="387" y="-99" font-family="Helvetica,sans-Serif" font-size="10.00">QString::arg</text>
</a>
</g>
</g>
<!-- Node8&#45;&gt;Node9 -->
<g id="edge8" class="edge">
<title>Node8&#45;&gt;Node9</title>
<path fill="none" stroke="#63b8ff" d="M302.11,-91.97C315.55,-93.5 329.17,-95.05 341.41,-96.44"/>
<polygon fill="#63b8ff" stroke="#63b8ff" points="349.65,-97.37 341.29,-100.05 345.67,-96.92 341.7,-96.47 341.7,-96.47 341.7,-96.47 345.67,-96.92 342.1,-92.89 349.65,-97.37 349.65,-97.37"/>
</g>
<!-- Node10 -->
<g id="node10" class="node">
<title>Node10</title>
<g id="a_node10"><a target="_parent" xlink:href="https://doc.qt.io/qt-5/qstring.html#isEmpty" xlink:title=" ">
<polygon fill="white" stroke="#666666" points="436,-74 338,-74 338,-55 436,-55 436,-74"/>
<text text-anchor="middle" x="387" y="-62" font-family="Helvetica,sans-Serif" font-size="10.00">QString::isEmpty</text>
</a>
</g>
</g>
<!-- Node8&#45;&gt;Node10 -->
<g id="edge9" class="edge">
<title>Node8&#45;&gt;Node10</title>
<path fill="none" stroke="#63b8ff" d="M302.11,-74.56C311.33,-73.45 320.64,-72.34 329.52,-71.27"/>
<polygon fill="#63b8ff" stroke="#63b8ff" points="337.55,-70.31 330.04,-74.83 333.58,-70.78 329.61,-71.26 329.61,-71.26 329.61,-71.26 333.58,-70.78 329.18,-67.69 337.55,-70.31 337.55,-70.31"/>
</g>
</g>
</svg>
