<?xml version="1.0" encoding="UTF-8" standalone="no"?>
<!DOCTYPE svg PUBLIC "-//W3C//DTD SVG 1.1//EN"
 "http://www.w3.org/Graphics/SVG/1.1/DTD/svg11.dtd">
<!-- Generated by graphviz version 2.43.0 (0)
 -->
<!-- Title: ShapeIdPrivate Pages: 1 -->
<svg width="98pt" height="93pt"
 viewBox="0.00 0.00 98.00 93.00" xmlns="http://www.w3.org/2000/svg" xmlns:xlink="http://www.w3.org/1999/xlink">
<g id="graph0" class="graph" transform="scale(1 1) rotate(0) translate(4 89)">
<title>ShapeIdPrivate</title>
<!-- Node1 -->
<g id="Node000001" class="node">
<title>Node1</title>
<g id="a_Node000001"><a xlink:title="The ShapeIdPrivate class provides private implementation for ShapeId.">
<polygon fill="#999999" stroke="#666666" points="90,-85 0,-85 0,-66 90,-66 90,-85"/>
<text text-anchor="middle" x="45" y="-73" font-family="Helvetica,sans-Serif" font-size="10.00">ShapeIdPrivate</text>
</a>
</g>
</g>
<!-- Node2 -->
<g id="Node000002" class="node">
<title>Node2</title>
<g id="a_Node000002"><a xlink:href="classShapeId.html" target="_top" xlink:title="The ShapeId class provides a Qt representation of a Smithy Shape ID.">
<polygon fill="white" stroke="#666666" points="73,-19 17,-19 17,0 73,0 73,-19"/>
<text text-anchor="middle" x="45" y="-7" font-family="Helvetica,sans-Serif" font-size="10.00">ShapeId</text>
</a>
</g>
</g>
<!-- Node1&#45;&gt;Node2 -->
<g id="edge2_Node000002_Node000001" class="edge">
<title>Node1&#45;&gt;Node2</title>
<g id="a_edge2_Node000002_Node000001"><a xlink:title=" ">
<path fill="none" stroke="#9a32cd" stroke-dasharray="5,2" d="M25.68,-60.31C22.15,-56.72 18.97,-52.57 17,-48 12.31,-37.1 22.08,-26.44 31.34,-19.29"/>
<polygon fill="#9a32cd" stroke="#9a32cd" points="31.79,-65.79 23.43,-63.13 28.81,-63.12 25.84,-60.45 25.84,-60.45 25.84,-60.45 28.81,-63.12 28.24,-57.77 31.79,-65.79 31.79,-65.79"/>
</a>
</g>
<text text-anchor="middle" x="31" y="-40" font-family="Helvetica,sans-Serif" font-size="10.00" fill="grey"> d_ptr</text>
</g>
<!-- Node2&#45;&gt;Node1 -->
<g id="edge1_Node000001_Node000002" class="edge">
<title>Node2&#45;&gt;Node1</title>
<g id="a_edge1_Node000001_Node000002"><a xlink:title=" ">
<path fill="none" stroke="#9a32cd" stroke-dasharray="5,2" d="M48.08,-27.19C48.94,-33.68 49.51,-41.18 49,-48 48.55,-53.94 47.55,-60.56 46.67,-65.7"/>
<polygon fill="#9a32cd" stroke="#9a32cd" points="46.81,-19.12 51.61,-26.47 47.44,-23.08 48.06,-27.03 48.06,-27.03 48.06,-27.03 47.44,-23.08 44.5,-27.59 46.81,-19.12 46.81,-19.12"/>
</a>
</g>
<text text-anchor="middle" x="63" y="-40" font-family="Helvetica,sans-Serif" font-size="10.00" fill="grey"> q_ptr</text>
</g>
</g>
</svg>
