<?xml version="1.0" encoding="UTF-8" standalone="no"?>
<!DOCTYPE svg PUBLIC "-//W3C//DTD SVG 1.1//EN"
 "http://www.w3.org/Graphics/SVG/1.1/DTD/svg11.dtd">
<!-- Generated by graphviz version 2.43.0 (0)
 -->
<!-- Title: ScopedContext Pages: 1 -->
<svg width="106pt" height="215pt"
 viewBox="0.00 0.00 106.00 215.00" xmlns="http://www.w3.org/2000/svg" xmlns:xlink="http://www.w3.org/1999/xlink">
<g id="graph0" class="graph" transform="scale(1 1) rotate(0) translate(4 211)">
<title>ScopedContext</title>
<!-- Node1 -->
<g id="node1" class="node">
<title>Node1</title>
<g id="a_node1"><a xlink:title=" ">
<polygon fill="#999999" stroke="#666666" points="90,-19 0,-19 0,0 90,0 90,-19"/>
<text text-anchor="middle" x="45" y="-7" font-family="Helvetica,sans-Serif" font-size="10.00">ScopedContext</text>
</a>
</g>
</g>
<!-- Node2 -->
<g id="node2" class="node">
<title>Node2</title>
<g id="a_node2"><a xlink:href="classRenderer.html" target="_top" xlink:title=" ">
<polygon fill="white" stroke="#bfbfbf" points="75.5,-85 14.5,-85 14.5,-66 75.5,-66 75.5,-85"/>
<text text-anchor="middle" x="45" y="-73" font-family="Helvetica,sans-Serif" font-size="10.00">Renderer</text>
</a>
</g>
</g>
<!-- Node2&#45;&gt;Node1 -->
<g id="edge1" class="edge">
<title>Node2&#45;&gt;Node1</title>
<path fill="none" stroke="#9a32cd" stroke-dasharray="5,2" d="M45,-57.77C45,-45.49 45,-29.3 45,-19.41"/>
<polygon fill="#9a32cd" stroke="#9a32cd" points="45,-65.87 41.4,-57.87 45,-61.87 45,-57.87 45,-57.87 45,-57.87 45,-61.87 48.6,-57.87 45,-65.87 45,-65.87"/>
<text text-anchor="middle" x="67.5" y="-40" font-family="Helvetica,sans-Serif" font-size="10.00"> renderer</text>
</g>
<!-- Node3 -->
<g id="node3" class="node">
<title>Node3</title>
<g id="a_node3"><a target="_parent" xlink:href="https://doc.qt.io/qt-5/qstringlist.html" xlink:title=" ">
<polygon fill="white" stroke="#bfbfbf" points="80,-151 10,-151 10,-132 80,-132 80,-151"/>
<text text-anchor="middle" x="45" y="-139" font-family="Helvetica,sans-Serif" font-size="10.00">QStringList</text>
</a>
</g>
</g>
<!-- Node3&#45;&gt;Node2 -->
<g id="edge2" class="edge">
<title>Node3&#45;&gt;Node2</title>
<path fill="none" stroke="#9a32cd" stroke-dasharray="5,2" d="M45,-123.77C45,-111.49 45,-95.3 45,-85.41"/>
<polygon fill="#9a32cd" stroke="#9a32cd" points="45,-131.87 41.4,-123.87 45,-127.87 45,-123.87 45,-123.87 45,-123.87 45,-127.87 48.6,-123.87 45,-131.87 45,-131.87"/>
<text text-anchor="middle" x="71.5" y="-106" font-family="Helvetica,sans-Serif" font-size="10.00"> templates</text>
</g>
<!-- Node4 -->
<g id="node4" class="node">
<title>Node4</title>
<g id="a_node4"><a target="_parent" xlink:href="https://doc.qt.io/qt-5/qlist.html" xlink:title=" ">
<polygon fill="white" stroke="#bfbfbf" points="65.5,-207 24.5,-207 24.5,-188 65.5,-188 65.5,-207"/>
<text text-anchor="middle" x="45" y="-195" font-family="Helvetica,sans-Serif" font-size="10.00">QList</text>
</a>
</g>
</g>
<!-- Node4&#45;&gt;Node3 -->
<g id="edge3" class="edge">
<title>Node4&#45;&gt;Node3</title>
<path fill="none" stroke="#63b8ff" d="M45,-179.36C45,-170 45,-158.83 45,-151.25"/>
<polygon fill="#63b8ff" stroke="#63b8ff" points="45,-187.58 41.4,-179.58 45,-183.58 45,-179.58 45,-179.58 45,-179.58 45,-183.58 48.6,-179.58 45,-187.58 45,-187.58"/>
</g>
</g>
</svg>
