<?xml version="1.0" encoding="UTF-8" standalone="no"?>
<!DOCTYPE svg PUBLIC "-//W3C//DTD SVG 1.1//EN"
 "http://www.w3.org/Graphics/SVG/1.1/DTD/svg11.dtd">
<!-- Generated by graphviz version 2.43.0 (0)
 -->
<!-- Title: ShapePrivate Pages: 1 -->
<svg width="198pt" height="159pt"
 viewBox="0.00 0.00 197.50 159.00" xmlns="http://www.w3.org/2000/svg" xmlns:xlink="http://www.w3.org/1999/xlink">
<g id="graph0" class="graph" transform="scale(1 1) rotate(0) translate(4 155)">
<title>ShapePrivate</title>
<!-- Node1 -->
<g id="Node000001" class="node">
<title>Node1</title>
<g id="a_Node000001"><a xlink:title="The ShapePrivate class provides private implementation for Shape.">
<polygon fill="#999999" stroke="#666666" points="81,-85 0,-85 0,-66 81,-66 81,-85"/>
<text text-anchor="middle" x="40.5" y="-73" font-family="Helvetica,sans-Serif" font-size="10.00">ShapePrivate</text>
</a>
</g>
</g>
<!-- Node2 -->
<g id="Node000002" class="node">
<title>Node2</title>
<g id="a_Node000002"><a xlink:href="classShape.html" target="_top" xlink:title="The Shape class provides a Qt representation of a Smithy semantic shape.">
<polygon fill="white" stroke="#666666" points="64,-19 17,-19 17,0 64,0 64,-19"/>
<text text-anchor="middle" x="40.5" y="-7" font-family="Helvetica,sans-Serif" font-size="10.00">Shape</text>
</a>
</g>
</g>
<!-- Node1&#45;&gt;Node2 -->
<g id="edge2_Node000002_Node000001" class="edge">
<title>Node1&#45;&gt;Node2</title>
<g id="a_edge2_Node000002_Node000001"><a xlink:title=" ">
<path fill="none" stroke="#9a32cd" stroke-dasharray="5,2" d="M21.18,-60.31C17.65,-56.72 14.47,-52.57 12.5,-48 7.81,-37.1 17.58,-26.44 26.84,-19.29"/>
<polygon fill="#9a32cd" stroke="#9a32cd" points="27.29,-65.79 18.93,-63.13 24.31,-63.12 21.34,-60.45 21.34,-60.45 21.34,-60.45 24.31,-63.12 23.74,-57.77 27.29,-65.79 27.29,-65.79"/>
</a>
</g>
<text text-anchor="middle" x="26.5" y="-40" font-family="Helvetica,sans-Serif" font-size="10.00" fill="grey"> d_ptr</text>
</g>
<!-- Node2&#45;&gt;Node1 -->
<g id="edge1_Node000001_Node000002" class="edge">
<title>Node2&#45;&gt;Node1</title>
<g id="a_edge1_Node000001_Node000002"><a xlink:title=" ">
<path fill="none" stroke="#9a32cd" stroke-dasharray="5,2" d="M43.58,-27.19C44.44,-33.68 45.01,-41.18 44.5,-48 44.05,-53.94 43.05,-60.56 42.17,-65.7"/>
<polygon fill="#9a32cd" stroke="#9a32cd" points="42.31,-19.12 47.11,-26.47 42.94,-23.08 43.56,-27.03 43.56,-27.03 43.56,-27.03 42.94,-23.08 40,-27.59 42.31,-19.12 42.31,-19.12"/>
</a>
</g>
<text text-anchor="middle" x="59.5" y="-40" font-family="Helvetica,sans-Serif" font-size="10.00" fill="grey"> q_ptr</text>
</g>
<!-- Node3 -->
<g id="Node000003" class="node">
<title>Node3</title>
<g id="a_Node000003"><a xlink:href="classShapeId.html" target="_top" xlink:title="The ShapeId class provides a Qt representation of a Smithy Shape ID.">
<polygon fill="white" stroke="#666666" points="121.5,-151 65.5,-151 65.5,-132 121.5,-132 121.5,-151"/>
<text text-anchor="middle" x="93.5" y="-139" font-family="Helvetica,sans-Serif" font-size="10.00">ShapeId</text>
</a>
</g>
</g>
<!-- Node3&#45;&gt;Node1 -->
<g id="edge3_Node000001_Node000003" class="edge">
<title>Node3&#45;&gt;Node1</title>
<g id="a_edge3_Node000001_Node000003"><a xlink:title=" ">
<path fill="none" stroke="#9a32cd" stroke-dasharray="5,2" d="M80.26,-125.45C77.04,-121.74 73.62,-117.74 70.5,-114 62.39,-104.26 53.33,-92.87 47.31,-85.22"/>
<polygon fill="#9a32cd" stroke="#9a32cd" points="85.74,-131.74 77.77,-128.08 83.11,-128.73 80.48,-125.71 80.48,-125.71 80.48,-125.71 83.11,-128.73 83.2,-123.35 85.74,-131.74 85.74,-131.74"/>
</a>
</g>
<text text-anchor="middle" x="77" y="-106" font-family="Helvetica,sans-Serif" font-size="10.00" fill="grey"> id</text>
</g>
<!-- Node4 -->
<g id="Node000004" class="node">
<title>Node4</title>
<g id="a_Node000004"><a xlink:href="classShapeIdPrivate.html" target="_top" xlink:title="The ShapeIdPrivate class provides private implementation for ShapeId.">
<polygon fill="white" stroke="#666666" points="189.5,-85 99.5,-85 99.5,-66 189.5,-66 189.5,-85"/>
<text text-anchor="middle" x="144.5" y="-73" font-family="Helvetica,sans-Serif" font-size="10.00">ShapeIdPrivate</text>
</a>
</g>
</g>
<!-- Node3&#45;&gt;Node4 -->
<g id="edge5_Node000004_Node000003" class="edge">
<title>Node3&#45;&gt;Node4</title>
<g id="a_edge5_Node000004_Node000003"><a xlink:title=" ">
<path fill="none" stroke="#9a32cd" stroke-dasharray="5,2" d="M87.97,-123.71C86.72,-116.83 86.71,-109.08 90.5,-103 95.64,-94.76 104.17,-89.01 112.95,-85.02"/>
<polygon fill="#9a32cd" stroke="#9a32cd" points="90.02,-131.76 84.55,-124.9 89.03,-127.89 88.04,-124.01 88.04,-124.01 88.04,-124.01 89.03,-127.89 91.53,-123.12 90.02,-131.76 90.02,-131.76"/>
</a>
</g>
<text text-anchor="middle" x="104.5" y="-106" font-family="Helvetica,sans-Serif" font-size="10.00" fill="grey"> q_ptr</text>
</g>
<!-- Node4&#45;&gt;Node3 -->
<g id="edge4_Node000003_Node000004" class="edge">
<title>Node4&#45;&gt;Node3</title>
<g id="a_edge4_Node000003_Node000004"><a xlink:title=" ">
<path fill="none" stroke="#9a32cd" stroke-dasharray="5,2" d="M136.51,-92.49C132.71,-99.41 127.82,-107.42 122.5,-114 117.18,-120.57 110.21,-127 104.44,-131.87"/>
<polygon fill="#9a32cd" stroke="#9a32cd" points="140.44,-85.01 139.91,-93.76 138.58,-88.55 136.72,-92.09 136.72,-92.09 136.72,-92.09 138.58,-88.55 133.53,-90.41 140.44,-85.01 140.44,-85.01"/>
</a>
</g>
<text text-anchor="middle" x="143.5" y="-106" font-family="Helvetica,sans-Serif" font-size="10.00" fill="grey"> d_ptr</text>
</g>
</g>
</svg>
