<?xml version="1.0" encoding="UTF-8" standalone="no"?>
<!DOCTYPE svg PUBLIC "-//W3C//DTD SVG 1.1//EN"
 "http://www.w3.org/Graphics/SVG/1.1/DTD/svg11.dtd">
<!-- Generated by graphviz version 2.43.0 (0)
 -->
<!-- Title: Generator::generate Pages: 1 -->
<svg width="444pt" height="235pt"
 viewBox="0.00 0.00 444.00 235.00" xmlns="http://www.w3.org/2000/svg" xmlns:xlink="http://www.w3.org/1999/xlink">
<g id="graph0" class="graph" transform="scale(1 1) rotate(0) translate(4 231)">
<title>Generator::generate</title>
<!-- Node1 -->
<g id="node1" class="node">
<title>Node1</title>
<g id="a_node1"><a xlink:title=" ">
<polygon fill="#999999" stroke="#666666" points="115,-114 0,-114 0,-95 115,-95 115,-114"/>
<text text-anchor="middle" x="57.5" y="-102" font-family="Helvetica,sans-Serif" font-size="10.00">Generator::generate</text>
</a>
</g>
</g>
<!-- Node2 -->
<g id="node2" class="node">
<title>Node2</title>
<g id="a_node2"><a target="_parent" xlink:href="https://doc.qt.io/qt-5/qlist.html#append" xlink:title=" ">
<polygon fill="white" stroke="#666666" points="268,-227 185,-227 185,-208 268,-208 268,-227"/>
<text text-anchor="middle" x="226.5" y="-215" font-family="Helvetica,sans-Serif" font-size="10.00">QList::append</text>
</a>
</g>
</g>
<!-- Node1&#45;&gt;Node2 -->
<g id="edge1" class="edge">
<title>Node1&#45;&gt;Node2</title>
<path fill="none" stroke="#63b8ff" d="M65.16,-114.18C78.88,-133.36 112.29,-176.25 151,-198.5 158.97,-203.08 168.04,-206.57 177.04,-209.22"/>
<polygon fill="#63b8ff" stroke="#63b8ff" points="184.9,-211.35 176.24,-212.74 181.04,-210.31 177.18,-209.26 177.18,-209.26 177.18,-209.26 181.04,-210.31 178.12,-205.79 184.9,-211.35 184.9,-211.35"/>
</g>
<!-- Node3 -->
<g id="node3" class="node">
<title>Node3</title>
<g id="a_node3"><a target="_parent" xlink:href="https://doc.qt.io/qt-5/qregularexpressionmatch.html#hasMatch" xlink:title=" ">
<polygon fill="white" stroke="#666666" points="299,-189.5 154,-189.5 154,-159.5 299,-159.5 299,-189.5"/>
<text text-anchor="start" x="162" y="-177.5" font-family="Helvetica,sans-Serif" font-size="10.00">QRegularExpressionMatch</text>
<text text-anchor="middle" x="226.5" y="-166.5" font-family="Helvetica,sans-Serif" font-size="10.00">::hasMatch</text>
</a>
</g>
</g>
<!-- Node1&#45;&gt;Node3 -->
<g id="edge2" class="edge">
<title>Node1&#45;&gt;Node3</title>
<path fill="none" stroke="#63b8ff" d="M75.87,-114.12C94.2,-124.03 124.09,-139.55 151,-150.5 156.28,-152.65 161.83,-154.74 167.41,-156.73"/>
<polygon fill="#63b8ff" stroke="#63b8ff" points="175.04,-159.38 166.3,-160.15 171.26,-158.06 167.48,-156.75 167.48,-156.75 167.48,-156.75 171.26,-158.06 168.66,-153.35 175.04,-159.38 175.04,-159.38"/>
</g>
<!-- Node4 -->
<g id="node4" class="node">
<title>Node4</title>
<g id="a_node4"><a target="_parent" xlink:href="https://doc.qt.io/qt-5/qregularexpression.html#match" xlink:title=" ">
<polygon fill="white" stroke="#666666" points="284,-141.5 169,-141.5 169,-111.5 284,-111.5 284,-141.5"/>
<text text-anchor="start" x="177" y="-129.5" font-family="Helvetica,sans-Serif" font-size="10.00">QRegularExpression</text>
<text text-anchor="middle" x="226.5" y="-118.5" font-family="Helvetica,sans-Serif" font-size="10.00">::match</text>
</a>
</g>
</g>
<!-- Node1&#45;&gt;Node4 -->
<g id="edge3" class="edge">
<title>Node1&#45;&gt;Node4</title>
<path fill="none" stroke="#63b8ff" d="M115.04,-111.95C129.65,-113.87 145.49,-115.96 160.5,-117.94"/>
<polygon fill="#63b8ff" stroke="#63b8ff" points="168.74,-119.02 160.33,-121.55 164.77,-118.5 160.8,-117.98 160.8,-117.98 160.8,-117.98 164.77,-118.5 161.27,-114.41 168.74,-119.02 168.74,-119.02"/>
</g>
<!-- Node5 -->
<g id="node5" class="node">
<title>Node5</title>
<g id="a_node5"><a xlink:href="classGenerator.html#a3ee386f7ccc09947e1c9eedcdc60ee25" target="_top" xlink:title=" ">
<polygon fill="white" stroke="#666666" points="302,-93 151,-93 151,-74 302,-74 302,-93"/>
<text text-anchor="middle" x="226.5" y="-81" font-family="Helvetica,sans-Serif" font-size="10.00">Generator::renderOperation</text>
</a>
</g>
</g>
<!-- Node1&#45;&gt;Node5 -->
<g id="edge4" class="edge">
<title>Node1&#45;&gt;Node5</title>
<path fill="none" stroke="#63b8ff" d="M115.04,-97.39C124.06,-96.26 133.55,-95.06 143.02,-93.87"/>
<polygon fill="#63b8ff" stroke="#63b8ff" points="150.96,-92.87 143.47,-97.44 146.99,-93.37 143.02,-93.87 143.02,-93.87 143.02,-93.87 146.99,-93.37 142.57,-90.3 150.96,-92.87 150.96,-92.87"/>
</g>
<!-- Node8 -->
<g id="node8" class="node">
<title>Node8</title>
<g id="a_node8"><a xlink:href="classGenerator.html#a5c83551528ea2d2730022e0ad8fcca4c" target="_top" xlink:title=" ">
<polygon fill="white" stroke="#666666" points="296,-56 157,-56 157,-37 296,-37 296,-56"/>
<text text-anchor="middle" x="226.5" y="-44" font-family="Helvetica,sans-Serif" font-size="10.00">Generator::renderService</text>
</a>
</g>
</g>
<!-- Node1&#45;&gt;Node8 -->
<g id="edge7" class="edge">
<title>Node1&#45;&gt;Node8</title>
<path fill="none" stroke="#63b8ff" d="M78.74,-94.93C97.25,-86.43 125.56,-74.05 151,-65.5 158.86,-62.86 167.3,-60.38 175.56,-58.14"/>
<polygon fill="#63b8ff" stroke="#63b8ff" points="183.41,-56.07 176.6,-61.59 179.55,-57.09 175.68,-58.11 175.68,-58.11 175.68,-58.11 179.55,-57.09 174.76,-54.63 183.41,-56.07 183.41,-56.07"/>
</g>
<!-- Node9 -->
<g id="node9" class="node">
<title>Node9</title>
<g id="a_node9"><a target="_parent" xlink:href="https://doc.qt.io/qt-5/qlist.html#size" xlink:title=" ">
<polygon fill="white" stroke="#666666" points="260,-19 193,-19 193,0 260,0 260,-19"/>
<text text-anchor="middle" x="226.5" y="-7" font-family="Helvetica,sans-Serif" font-size="10.00">QList::size</text>
</a>
</g>
</g>
<!-- Node1&#45;&gt;Node9 -->
<g id="edge10" class="edge">
<title>Node1&#45;&gt;Node9</title>
<path fill="none" stroke="#63b8ff" d="M67.18,-94.82C82.47,-78.4 115.9,-45.14 151,-27.5 161.43,-22.26 173.46,-18.5 184.76,-15.82"/>
<polygon fill="#63b8ff" stroke="#63b8ff" points="192.84,-14.05 185.79,-19.28 188.93,-14.9 185.02,-15.76 185.02,-15.76 185.02,-15.76 188.93,-14.9 184.25,-12.24 192.84,-14.05 192.84,-14.05"/>
</g>
<!-- Node6 -->
<g id="node6" class="node">
<title>Node6</title>
<g id="a_node6"><a target="_parent" xlink:href="https://doc.qt.io/qt-5/qstring.html#arg-11" xlink:title=" ">
<polygon fill="white" stroke="#666666" points="424,-93 350,-93 350,-74 424,-74 424,-93"/>
<text text-anchor="middle" x="387" y="-81" font-family="Helvetica,sans-Serif" font-size="10.00">QString::arg</text>
</a>
</g>
</g>
<!-- Node5&#45;&gt;Node6 -->
<g id="edge5" class="edge">
<title>Node5&#45;&gt;Node6</title>
<path fill="none" stroke="#63b8ff" d="M302.11,-83.5C315.55,-83.5 329.17,-83.5 341.41,-83.5"/>
<polygon fill="#63b8ff" stroke="#63b8ff" points="349.65,-83.5 341.65,-87.1 345.65,-83.5 341.65,-83.5 341.65,-83.5 341.65,-83.5 345.65,-83.5 341.65,-79.9 349.65,-83.5 349.65,-83.5"/>
</g>
<!-- Node7 -->
<g id="node7" class="node">
<title>Node7</title>
<g id="a_node7"><a target="_parent" xlink:href="https://doc.qt.io/qt-5/qstring.html#isEmpty" xlink:title=" ">
<polygon fill="white" stroke="#666666" points="436,-56 338,-56 338,-37 436,-37 436,-56"/>
<text text-anchor="middle" x="387" y="-44" font-family="Helvetica,sans-Serif" font-size="10.00">QString::isEmpty</text>
</a>
</g>
</g>
<!-- Node5&#45;&gt;Node7 -->
<g id="edge6" class="edge">
<title>Node5&#45;&gt;Node7</title>
<path fill="none" stroke="#63b8ff" d="M268.32,-73.97C289.31,-69.07 315.06,-63.06 337.1,-57.91"/>
<polygon fill="#63b8ff" stroke="#63b8ff" points="345.05,-56.06 338.07,-61.38 341.15,-56.97 337.25,-57.88 337.25,-57.88 337.25,-57.88 341.15,-56.97 336.44,-54.37 345.05,-56.06 345.05,-56.06"/>
</g>
<!-- Node8&#45;&gt;Node6 -->
<g id="edge8" class="edge">
<title>Node8&#45;&gt;Node6</title>
<path fill="none" stroke="#63b8ff" d="M268.32,-56.03C290.88,-61.3 318.93,-67.84 341.98,-73.22"/>
<polygon fill="#63b8ff" stroke="#63b8ff" points="349.91,-75.08 341.3,-76.76 346.02,-74.17 342.12,-73.26 342.12,-73.26 342.12,-73.26 346.02,-74.17 342.94,-69.75 349.91,-75.08 349.91,-75.08"/>
</g>
<!-- Node8&#45;&gt;Node7 -->
<g id="edge9" class="edge">
<title>Node8&#45;&gt;Node7</title>
<path fill="none" stroke="#63b8ff" d="M296.1,-46.5C307.3,-46.5 318.79,-46.5 329.65,-46.5"/>
<polygon fill="#63b8ff" stroke="#63b8ff" points="337.82,-46.5 329.82,-50.1 333.82,-46.5 329.82,-46.5 329.82,-46.5 329.82,-46.5 333.82,-46.5 329.82,-42.9 337.82,-46.5 337.82,-46.5"/>
</g>
</g>
</svg>
