<?xml version="1.0" encoding="UTF-8" standalone="no"?>
<!DOCTYPE svg PUBLIC "-//W3C//DTD SVG 1.1//EN"
 "http://www.w3.org/Graphics/SVG/1.1/DTD/svg11.dtd">
<!-- Generated by graphviz version 2.43.0 (0)
 -->
<!-- Title: Shape Pages: 1 -->
<svg width="371pt" height="115pt"
 viewBox="0.00 0.00 370.50 115.00" xmlns="http://www.w3.org/2000/svg" xmlns:xlink="http://www.w3.org/1999/xlink">
<g id="graph0" class="graph" transform="scale(1 1) rotate(0) translate(4 111)">
<title>Shape</title>
<!-- Node1 -->
<g id="node1" class="node">
<title>Node1</title>
<g id="a_node1"><a xlink:title="The Shape class provides a Qt representation of a Smithy semantic shape.">
<polygon fill="#999999" stroke="#666666" points="47,-107 0,-107 0,-88 47,-88 47,-107"/>
<text text-anchor="middle" x="23.5" y="-95" font-family="Helvetica,sans-Serif" font-size="10.00">Shape</text>
</a>
</g>
</g>
<!-- Node2 -->
<g id="node2" class="node">
<title>Node2</title>
<g id="a_node2"><a xlink:href="classShapePrivate.html" target="_top" xlink:title="The ShapePrivate class provides private implementation for Shape.">
<polygon fill="white" stroke="#666666" points="130,-19 49,-19 49,0 130,0 130,-19"/>
<text text-anchor="middle" x="89.5" y="-7" font-family="Helvetica,sans-Serif" font-size="10.00">ShapePrivate</text>
</a>
</g>
</g>
<!-- Node1&#45;&gt;Node2 -->
<g id="edge2" class="edge">
<title>Node1&#45;&gt;Node2</title>
<path fill="none" stroke="#9a32cd" stroke-dasharray="5,2" d="M14.18,-80.71C7.93,-67.84 2.35,-49.77 11.5,-37 20.16,-24.91 34.66,-18.27 48.82,-14.64"/>
<polygon fill="#9a32cd" stroke="#9a32cd" points="18.03,-87.96 11.1,-82.59 16.16,-84.43 14.28,-80.9 14.28,-80.9 14.28,-80.9 16.16,-84.43 17.46,-79.21 18.03,-87.96 18.03,-87.96"/>
<text text-anchor="middle" x="25.5" y="-51" font-family="Helvetica,sans-Serif" font-size="10.00"> q_ptr</text>
</g>
<!-- Node2&#45;&gt;Node1 -->
<g id="edge1" class="edge">
<title>Node2&#45;&gt;Node1</title>
<path fill="none" stroke="#9a32cd" stroke-dasharray="5,2" d="M76.13,-25.44C72.91,-29.16 69.53,-33.18 66.5,-37 52.57,-54.58 37.47,-76.11 29.39,-87.85"/>
<polygon fill="#9a32cd" stroke="#9a32cd" points="81.63,-19.17 79.06,-27.55 78.99,-22.17 76.36,-25.18 76.36,-25.18 76.36,-25.18 78.99,-22.17 73.65,-22.8 81.63,-19.17 81.63,-19.17"/>
<text text-anchor="middle" x="80.5" y="-51" font-family="Helvetica,sans-Serif" font-size="10.00"> d_ptr</text>
</g>
<!-- Node3 -->
<g id="node3" class="node">
<title>Node3</title>
<g id="a_node3"><a target="_parent" xlink:href="https://doc.qt.io/qt-5/qjsonobject.html" xlink:title=" ">
<polygon fill="white" stroke="#bfbfbf" points="152.5,-107 76.5,-107 76.5,-88 152.5,-88 152.5,-107"/>
<text text-anchor="middle" x="114.5" y="-95" font-family="Helvetica,sans-Serif" font-size="10.00">QJsonObject</text>
</a>
</g>
</g>
<!-- Node3&#45;&gt;Node2 -->
<g id="edge3" class="edge">
<title>Node3&#45;&gt;Node2</title>
<path fill="none" stroke="#9a32cd" stroke-dasharray="5,2" d="M109.69,-79.94C104.39,-61.72 96.09,-33.17 91.98,-19.03"/>
<polygon fill="#9a32cd" stroke="#9a32cd" points="112.01,-87.94 106.32,-81.26 110.89,-84.1 109.78,-80.26 109.78,-80.26 109.78,-80.26 110.89,-84.1 113.24,-79.25 112.01,-87.94 112.01,-87.94"/>
<text text-anchor="middle" x="116" y="-51" font-family="Helvetica,sans-Serif" font-size="10.00"> ast</text>
</g>
<!-- Node4 -->
<g id="node4" class="node">
<title>Node4</title>
<g id="a_node4"><a xlink:href="classShapeId.html" target="_top" xlink:title="The ShapeId class provides a Qt representation of a Smithy Shape ID.">
<polygon fill="white" stroke="#666666" points="226.5,-107 170.5,-107 170.5,-88 226.5,-88 226.5,-107"/>
<text text-anchor="middle" x="198.5" y="-95" font-family="Helvetica,sans-Serif" font-size="10.00">ShapeId</text>
</a>
</g>
</g>
<!-- Node4&#45;&gt;Node2 -->
<g id="edge4" class="edge">
<title>Node4&#45;&gt;Node2</title>
<path fill="none" stroke="#9a32cd" stroke-dasharray="5,2" d="M182.87,-82.02C169.19,-69.59 148.57,-51.45 129.5,-37 121.13,-30.66 111.31,-24.14 103.5,-19.16"/>
<polygon fill="#9a32cd" stroke="#9a32cd" points="189,-87.63 180.67,-84.88 186.05,-84.93 183.1,-82.22 183.1,-82.22 183.1,-82.22 186.05,-84.93 185.53,-79.57 189,-87.63 189,-87.63"/>
<text text-anchor="middle" x="174" y="-51" font-family="Helvetica,sans-Serif" font-size="10.00"> id</text>
</g>
<!-- Node5 -->
<g id="node5" class="node">
<title>Node5</title>
<g id="a_node5"><a xlink:href="classShapeIdPrivate.html" target="_top" xlink:title="The ShapeIdPrivate class provides private implementation for ShapeId.">
<polygon fill="white" stroke="#666666" points="292.5,-19 202.5,-19 202.5,0 292.5,0 292.5,-19"/>
<text text-anchor="middle" x="247.5" y="-7" font-family="Helvetica,sans-Serif" font-size="10.00">ShapeIdPrivate</text>
</a>
</g>
</g>
<!-- Node4&#45;&gt;Node5 -->
<g id="edge6" class="edge">
<title>Node4&#45;&gt;Node5</title>
<path fill="none" stroke="#9a32cd" stroke-dasharray="5,2" d="M191.98,-79.74C188.2,-67.06 185.57,-49.72 193.5,-37 198.64,-28.76 207.17,-23.01 215.95,-19.02"/>
<polygon fill="#9a32cd" stroke="#9a32cd" points="194.67,-87.66 188.69,-81.24 193.39,-83.87 192.1,-80.08 192.1,-80.08 192.1,-80.08 193.39,-83.87 195.51,-78.92 194.67,-87.66 194.67,-87.66"/>
<text text-anchor="middle" x="207.5" y="-51" font-family="Helvetica,sans-Serif" font-size="10.00"> q_ptr</text>
</g>
<!-- Node5&#45;&gt;Node4 -->
<g id="edge5" class="edge">
<title>Node5&#45;&gt;Node4</title>
<path fill="none" stroke="#9a32cd" stroke-dasharray="5,2" d="M243.55,-26.89C240.05,-39.38 234.15,-56.63 225.5,-70 221.15,-76.73 214.81,-83.06 209.37,-87.85"/>
<polygon fill="#9a32cd" stroke="#9a32cd" points="245.58,-19.12 247.04,-27.77 244.57,-22.99 243.55,-26.86 243.55,-26.86 243.55,-26.86 244.57,-22.99 240.07,-25.95 245.58,-19.12 245.58,-19.12"/>
<text text-anchor="middle" x="253.5" y="-51" font-family="Helvetica,sans-Serif" font-size="10.00"> d_ptr</text>
</g>
<!-- Node6 -->
<g id="node6" class="node">
<title>Node6</title>
<g id="a_node6"><a target="_parent" xlink:href="https://doc.qt.io/qt-5/qstring.html" xlink:title=" ">
<polygon fill="white" stroke="#bfbfbf" points="325,-107 272,-107 272,-88 325,-88 325,-107"/>
<text text-anchor="middle" x="298.5" y="-95" font-family="Helvetica,sans-Serif" font-size="10.00">QString</text>
</a>
</g>
</g>
<!-- Node6&#45;&gt;Node5 -->
<g id="edge7" class="edge">
<title>Node6&#45;&gt;Node5</title>
<path fill="none" stroke="#9a32cd" stroke-dasharray="5,2" d="M292.73,-80.3C287.95,-67.92 280.5,-50.71 271.5,-37 267.28,-30.57 261.51,-24.15 256.69,-19.24"/>
<polygon fill="#9a32cd" stroke="#9a32cd" points="295.59,-88 289.43,-81.76 294.2,-84.25 292.8,-80.5 292.8,-80.5 292.8,-80.5 294.2,-84.25 296.18,-79.24 295.59,-88 295.59,-88"/>
<text text-anchor="middle" x="325.5" y="-62" font-family="Helvetica,sans-Serif" font-size="10.00"> memberName</text>
<text text-anchor="middle" x="325.5" y="-51" font-family="Helvetica,sans-Serif" font-size="10.00">nameSpace</text>
<text text-anchor="middle" x="325.5" y="-40" font-family="Helvetica,sans-Serif" font-size="10.00">shapeName</text>
</g>
</g>
</svg>
