<?xml version="1.0" encoding="UTF-8" standalone="no"?>
<!DOCTYPE svg PUBLIC "-//W3C//DTD SVG 1.1//EN"
 "http://www.w3.org/Graphics/SVG/1.1/DTD/svg11.dtd">
<!-- Generated by graphviz version 2.43.0 (0)
 -->
<!-- Title: Generator::formatHtmlDocumentation Pages: 1 -->
<svg width="549pt" height="27pt"
 viewBox="0.00 0.00 549.00 27.00" xmlns="http://www.w3.org/2000/svg" xmlns:xlink="http://www.w3.org/1999/xlink">
<g id="graph0" class="graph" transform="scale(1 1) rotate(0) translate(4 23)">
<title>Generator::formatHtmlDocumentation</title>
<!-- Node1 -->
<g id="node1" class="node">
<title>Node1</title>
<g id="a_node1"><a xlink:title=" ">
<polygon fill="#999999" stroke="#666666" points="541,-19 338,-19 338,0 541,0 541,-19"/>
<text text-anchor="middle" x="439.5" y="-7" font-family="Helvetica,sans-Serif" font-size="10.00">Generator::formatHtmlDocumentation</text>
</a>
</g>
</g>
<!-- Node2 -->
<g id="node2" class="node">
<title>Node2</title>
<g id="a_node2"><a xlink:href="classGenerator.html#a8f048398850e7c5c5e7d7a1af71de172" target="_top" xlink:title=" ">
<polygon fill="white" stroke="#666666" points="302,-19 151,-19 151,0 302,0 302,-19"/>
<text text-anchor="middle" x="226.5" y="-7" font-family="Helvetica,sans-Serif" font-size="10.00">Generator::renderOperation</text>
</a>
</g>
</g>
<!-- Node1&#45;&gt;Node2 -->
<g id="edge1" class="edge">
<title>Node1&#45;&gt;Node2</title>
<path fill="none" stroke="#63b8ff" d="M329.71,-9.5C320.35,-9.5 311.02,-9.5 302.02,-9.5"/>
<polygon fill="#63b8ff" stroke="#63b8ff" points="337.94,-9.5 329.94,-13.1 333.94,-9.5 329.94,-9.5 329.94,-9.5 329.94,-9.5 333.94,-9.5 329.94,-5.9 337.94,-9.5 337.94,-9.5"/>
</g>
<!-- Node3 -->
<g id="node3" class="node">
<title>Node3</title>
<g id="a_node3"><a xlink:href="classGenerator.html#ad25c47d02c75979ab6d21b8bf75b958e" target="_top" xlink:title=" ">
<polygon fill="white" stroke="#666666" points="115,-19 0,-19 0,0 115,0 115,-19"/>
<text text-anchor="middle" x="57.5" y="-7" font-family="Helvetica,sans-Serif" font-size="10.00">Generator::generate</text>
</a>
</g>
</g>
<!-- Node2&#45;&gt;Node3 -->
<g id="edge2" class="edge">
<title>Node2&#45;&gt;Node3</title>
<path fill="none" stroke="#63b8ff" d="M142.62,-9.5C133.31,-9.5 123.98,-9.5 115.11,-9.5"/>
<polygon fill="#63b8ff" stroke="#63b8ff" points="150.79,-9.5 142.79,-13.1 146.79,-9.5 142.79,-9.5 142.79,-9.5 142.79,-9.5 146.79,-9.5 142.79,-5.9 150.79,-9.5 150.79,-9.5"/>
</g>
</g>
</svg>
