<?xml version="1.0" encoding="UTF-8" standalone="no"?>
<!DOCTYPE svg PUBLIC "-//W3C//DTD SVG 1.1//EN"
 "http://www.w3.org/Graphics/SVG/1.1/DTD/svg11.dtd">
<!-- Generated by graphviz version 2.43.0 (0)
 -->
<!-- Title: ShapeId::relativeShapeId Pages: 1 -->
<svg width="636pt" height="102pt"
 viewBox="0.00 0.00 636.00 102.00" xmlns="http://www.w3.org/2000/svg" xmlns:xlink="http://www.w3.org/1999/xlink">
<g id="graph0" class="graph" transform="scale(1 1) rotate(0) translate(4 98)">
<title>ShapeId::relativeShapeId</title>
<!-- Node1 -->
<g id="Node000001" class="node">
<title>Node1</title>
<g id="a_Node000001"><a xlink:title="Returns this object as a relative Smithy Shape ID, that one without a leading namespace.">
<polygon fill="#999999" stroke="#666666" points="138,-56 0,-56 0,-37 138,-37 138,-56"/>
<text text-anchor="middle" x="69" y="-44" font-family="Helvetica,sans-Serif" font-size="10.00">ShapeId::relativeShapeId</text>
</a>
</g>
</g>
<!-- Node2 -->
<g id="Node000002" class="node">
<title>Node2</title>
<g id="a_Node000002"><a xlink:href="classShapeId.html#a6f1fc0aab99d0108fc3f1eeb5a4d2687" target="_top" xlink:title="Returns true if this Shape ID has a non&#45;empty member name, otherwise false otherwise.">
<polygon fill="white" stroke="#666666" points="323,-94 174,-94 174,-75 323,-75 323,-94"/>
<text text-anchor="middle" x="248.5" y="-82" font-family="Helvetica,sans-Serif" font-size="10.00">ShapeId::hasMemberName</text>
</a>
</g>
</g>
<!-- Node1&#45;&gt;Node2 -->
<g id="edge1_Node000001_Node000002" class="edge">
<title>Node1&#45;&gt;Node2</title>
<g id="a_edge1_Node000001_Node000002"><a xlink:title=" ">
<path fill="none" stroke="#63b8ff" d="M114.79,-56.09C139.16,-61.31 169.45,-67.79 194.94,-73.25"/>
<polygon fill="#63b8ff" stroke="#63b8ff" points="203.03,-74.98 194.45,-76.83 199.12,-74.14 195.21,-73.31 195.21,-73.31 195.21,-73.31 199.12,-74.14 195.96,-69.78 203.03,-74.98 203.03,-74.98"/>
</a>
</g>
</g>
<!-- Node3 -->
<g id="Node000003" class="node">
<title>Node3</title>
<g id="a_Node000003"><a xlink:href="classShapeId.html#a9b1580e3aa193c99d000aa084def3a70" target="_top" xlink:title="Returns the Shape ID&#39;s member name, if it has one, otherwise a null string.">
<polygon fill="white" stroke="#666666" points="491,-56 359,-56 359,-37 491,-37 491,-56"/>
<text text-anchor="middle" x="425" y="-44" font-family="Helvetica,sans-Serif" font-size="10.00">ShapeId::memberName</text>
</a>
</g>
</g>
<!-- Node1&#45;&gt;Node3 -->
<g id="edge4_Node000001_Node000003" class="edge">
<title>Node1&#45;&gt;Node3</title>
<g id="a_edge4_Node000001_Node000003"><a xlink:title=" ">
<path fill="none" stroke="#63b8ff" d="M138.25,-46.5C199.21,-46.5 288.25,-46.5 350.7,-46.5"/>
<polygon fill="#63b8ff" stroke="#63b8ff" points="358.94,-46.5 350.94,-50.1 354.94,-46.5 350.94,-46.5 350.94,-46.5 350.94,-46.5 354.94,-46.5 350.94,-42.9 358.94,-46.5 358.94,-46.5"/>
</a>
</g>
</g>
<!-- Node5 -->
<g id="Node000005" class="node">
<title>Node5</title>
<g id="a_Node000005"><a xlink:href="classShapeId.html#a8aad9a1383c03aee2f33b1568e89f688" target="_top" xlink:title="Returns the Shape ID&#39;s shape name, if it has one, otherwise a null string.">
<polygon fill="white" stroke="#666666" points="485,-19 365,-19 365,0 485,0 485,-19"/>
<text text-anchor="middle" x="425" y="-7" font-family="Helvetica,sans-Serif" font-size="10.00">ShapeId::shapeName</text>
</a>
</g>
</g>
<!-- Node1&#45;&gt;Node5 -->
<g id="edge5_Node000001_Node000005" class="edge">
<title>Node1&#45;&gt;Node5</title>
<g id="a_edge5_Node000001_Node000005"><a xlink:title=" ">
<path fill="none" stroke="#63b8ff" d="M138.25,-39.37C201.13,-32.79 293.9,-23.1 356.53,-16.55"/>
<polygon fill="#63b8ff" stroke="#63b8ff" points="364.77,-15.69 357.19,-20.1 360.79,-16.11 356.82,-16.52 356.82,-16.52 356.82,-16.52 360.79,-16.11 356.44,-12.94 364.77,-15.69 364.77,-15.69"/>
</a>
</g>
</g>
<!-- Node2&#45;&gt;Node3 -->
<g id="edge2_Node000002_Node000003" class="edge">
<title>Node2&#45;&gt;Node3</title>
<g id="a_edge2_Node000002_Node000003"><a xlink:title=" ">
<path fill="none" stroke="#63b8ff" d="M293.53,-74.91C317.49,-69.69 347.27,-63.21 372.33,-57.75"/>
<polygon fill="#63b8ff" stroke="#63b8ff" points="380.28,-56.02 373.23,-61.24 376.37,-56.87 372.47,-57.72 372.47,-57.72 372.47,-57.72 376.37,-56.87 371.7,-54.2 380.28,-56.02 380.28,-56.02"/>
</a>
</g>
</g>
<!-- Node4 -->
<g id="Node000004" class="node">
<title>Node4</title>
<g id="a_Node000004"><a xlink:href="classShapeId.html#a5c5ff0cc534bd3277f30a06dbf2587dd" target="_top" xlink:title="Constructs an empty ShapeId object.">
<polygon fill="white" stroke="#666666" points="628,-37 527,-37 527,-18 628,-18 628,-37"/>
<text text-anchor="middle" x="577.5" y="-25" font-family="Helvetica,sans-Serif" font-size="10.00">ShapeId::ShapeId</text>
</a>
</g>
</g>
<!-- Node3&#45;&gt;Node4 -->
<g id="edge3_Node000003_Node000004" class="edge">
<title>Node3&#45;&gt;Node4</title>
<g id="a_edge3_Node000003_Node000004"><a xlink:title=" ">
<path fill="none" stroke="#63b8ff" d="M491.14,-38.28C500.26,-37.13 509.59,-35.95 518.56,-34.81"/>
<polygon fill="#63b8ff" stroke="#63b8ff" points="526.69,-33.79 519.21,-38.36 522.73,-34.29 518.76,-34.79 518.76,-34.79 518.76,-34.79 522.73,-34.29 518.31,-31.22 526.69,-33.79 526.69,-33.79"/>
</a>
</g>
</g>
<!-- Node5&#45;&gt;Node4 -->
<g id="edge6_Node000005_Node000004" class="edge">
<title>Node5&#45;&gt;Node4</title>
<g id="a_edge6_Node000005_Node000004"><a xlink:title=" ">
<path fill="none" stroke="#63b8ff" d="M485.05,-16.56C496.18,-17.89 507.81,-19.28 518.9,-20.61"/>
<polygon fill="#63b8ff" stroke="#63b8ff" points="526.86,-21.56 518.49,-24.19 522.89,-21.09 518.92,-20.61 518.92,-20.61 518.92,-20.61 522.89,-21.09 519.35,-17.04 526.86,-21.56 526.86,-21.56"/>
</a>
</g>
</g>
</g>
</svg>
