<?xml version="1.0" encoding="UTF-8" standalone="no"?>
<!DOCTYPE svg PUBLIC "-//W3C//DTD SVG 1.1//EN"
 "http://www.w3.org/Graphics/SVG/1.1/DTD/svg11.dtd">
<!-- Generated by graphviz version 2.43.0 (0)
 -->
<!-- Title: Shape Pages: 1 -->
<svg width="223pt" height="93pt"
 viewBox="0.00 0.00 222.50 93.00" xmlns="http://www.w3.org/2000/svg" xmlns:xlink="http://www.w3.org/1999/xlink">
<g id="graph0" class="graph" transform="scale(1 1) rotate(0) translate(4 89)">
<title>Shape</title>
<!-- Node1 -->
<g id="Node000001" class="node">
<title>Node1</title>
<g id="a_Node000001"><a xlink:title="The Shape class provides a Qt representation of a Smithy semantic shape.">
<polygon fill="#999999" stroke="#666666" points="47,-85 0,-85 0,-66 47,-66 47,-85"/>
<text text-anchor="middle" x="23.5" y="-73" font-family="Helvetica,sans-Serif" font-size="10.00">Shape</text>
</a>
</g>
</g>
<!-- Node2 -->
<g id="Node000002" class="node">
<title>Node2</title>
<g id="a_Node000002"><a xlink:href="classShapePrivate.html" target="_top" xlink:title="The ShapePrivate class provides private implementation for Shape.">
<polygon fill="white" stroke="#666666" points="89,-19 8,-19 8,0 89,0 89,-19"/>
<text text-anchor="middle" x="48.5" y="-7" font-family="Helvetica,sans-Serif" font-size="10.00">ShapePrivate</text>
</a>
</g>
</g>
<!-- Node1&#45;&gt;Node2 -->
<g id="edge2_Node000002_Node000001" class="edge">
<title>Node1&#45;&gt;Node2</title>
<g id="a_edge2_Node000002_Node000001"><a xlink:title=" ">
<path fill="none" stroke="#9a32cd" stroke-dasharray="5,2" d="M8.01,-59.43C2.84,-52.54 -0.67,-44.3 3.5,-37 8.09,-28.97 16.17,-23.13 24.22,-19.02"/>
<polygon fill="#9a32cd" stroke="#9a32cd" points="13.52,-65.78 5.56,-62.1 10.9,-62.76 8.28,-59.74 8.28,-59.74 8.28,-59.74 10.9,-62.76 11,-57.38 13.52,-65.78 13.52,-65.78"/>
</a>
</g>
<text text-anchor="middle" x="17.5" y="-40" font-family="Helvetica,sans-Serif" font-size="10.00" fill="grey"> q_ptr</text>
</g>
<!-- Node2&#45;&gt;Node1 -->
<g id="edge1_Node000001_Node000002" class="edge">
<title>Node2&#45;&gt;Node1</title>
<g id="a_edge1_Node000001_Node000002"><a xlink:title=" ">
<path fill="none" stroke="#9a32cd" stroke-dasharray="5,2" d="M42.11,-26.86C37.25,-39.29 30.76,-55.9 26.87,-65.87"/>
<polygon fill="#9a32cd" stroke="#9a32cd" points="45.02,-19.41 45.46,-28.17 43.57,-23.13 42.11,-26.86 42.11,-26.86 42.11,-26.86 43.57,-23.13 38.76,-25.55 45.02,-19.41 45.02,-19.41"/>
</a>
</g>
<text text-anchor="middle" x="51.5" y="-40" font-family="Helvetica,sans-Serif" font-size="10.00" fill="grey"> d_ptr</text>
</g>
<!-- Node3 -->
<g id="Node000003" class="node">
<title>Node3</title>
<g id="a_Node000003"><a xlink:href="classShapeId.html" target="_top" xlink:title="The ShapeId class provides a Qt representation of a Smithy Shape ID.">
<polygon fill="white" stroke="#666666" points="163.5,-85 107.5,-85 107.5,-66 163.5,-66 163.5,-85"/>
<text text-anchor="middle" x="135.5" y="-73" font-family="Helvetica,sans-Serif" font-size="10.00">ShapeId</text>
</a>
</g>
</g>
<!-- Node3&#45;&gt;Node2 -->
<g id="edge3_Node000002_Node000003" class="edge">
<title>Node3&#45;&gt;Node2</title>
<g id="a_edge3_Node000002_Node000003"><a xlink:title=" ">
<path fill="none" stroke="#9a32cd" stroke-dasharray="5,2" d="M116.96,-60.86C99.83,-48.26 74.9,-29.92 60.33,-19.2"/>
<polygon fill="#9a32cd" stroke="#9a32cd" points="123.77,-65.87 115.19,-64.03 120.54,-63.5 117.32,-61.13 117.32,-61.13 117.32,-61.13 120.54,-63.5 119.46,-58.23 123.77,-65.87 123.77,-65.87"/>
</a>
</g>
<text text-anchor="middle" x="104" y="-40" font-family="Helvetica,sans-Serif" font-size="10.00" fill="grey"> id</text>
</g>
<!-- Node4 -->
<g id="Node000004" class="node">
<title>Node4</title>
<g id="a_Node000004"><a xlink:href="classShapeIdPrivate.html" target="_top" xlink:title="The ShapeIdPrivate class provides private implementation for ShapeId.">
<polygon fill="white" stroke="#666666" points="214.5,-19 124.5,-19 124.5,0 214.5,0 214.5,-19"/>
<text text-anchor="middle" x="169.5" y="-7" font-family="Helvetica,sans-Serif" font-size="10.00">ShapeIdPrivate</text>
</a>
</g>
</g>
<!-- Node3&#45;&gt;Node4 -->
<g id="edge5_Node000004_Node000003" class="edge">
<title>Node3&#45;&gt;Node4</title>
<g id="a_edge5_Node000004_Node000003"><a xlink:title=" ">
<path fill="none" stroke="#9a32cd" stroke-dasharray="5,2" d="M130.47,-58C129.31,-51.17 129.23,-43.37 132.5,-37 136.4,-29.41 143.59,-23.51 150.61,-19.22"/>
<polygon fill="#9a32cd" stroke="#9a32cd" points="132.35,-65.95 127.01,-59 131.43,-62.06 130.51,-58.17 130.51,-58.17 130.51,-58.17 131.43,-62.06 134.02,-57.34 132.35,-65.95 132.35,-65.95"/>
</a>
</g>
<text text-anchor="middle" x="146.5" y="-40" font-family="Helvetica,sans-Serif" font-size="10.00" fill="grey"> q_ptr</text>
</g>
<!-- Node4&#45;&gt;Node3 -->
<g id="edge4_Node000003_Node000004" class="edge">
<title>Node4&#45;&gt;Node3</title>
<g id="a_edge4_Node000003_Node000004"><a xlink:title=" ">
<path fill="none" stroke="#9a32cd" stroke-dasharray="5,2" d="M169.7,-27.45C169.17,-34.16 167.76,-41.76 164.5,-48 160.77,-55.13 154.32,-61.32 148.45,-65.92"/>
<polygon fill="#9a32cd" stroke="#9a32cd" points="169.98,-19.04 173.31,-27.15 169.85,-23.04 169.72,-27.03 169.72,-27.03 169.72,-27.03 169.85,-23.04 166.12,-26.92 169.98,-19.04 169.98,-19.04"/>
</a>
</g>
<text text-anchor="middle" x="182.5" y="-40" font-family="Helvetica,sans-Serif" font-size="10.00" fill="grey"> d_ptr</text>
</g>
</g>
</svg>
