<?xml version="1.0" encoding="UTF-8" standalone="no"?>
<!DOCTYPE svg PUBLIC "-//W3C//DTD SVG 1.1//EN"
 "http://www.w3.org/Graphics/SVG/1.1/DTD/svg11.dtd">
<!-- Generated by graphviz version 2.43.0 (0)
 -->
<!-- Title: Model Pages: 1 -->
<svg width="89pt" height="93pt"
 viewBox="0.00 0.00 89.00 93.00" xmlns="http://www.w3.org/2000/svg" xmlns:xlink="http://www.w3.org/1999/xlink">
<g id="graph0" class="graph" transform="scale(1 1) rotate(0) translate(4 89)">
<title>Model</title>
<!-- Node1 -->
<g id="Node000001" class="node">
<title>Node1</title>
<g id="a_Node000001"><a xlink:title="The Model class provides a Qt representation of a Smithy semantic model.">
<polygon fill="#999999" stroke="#666666" points="64,-85 17,-85 17,-66 64,-66 64,-85"/>
<text text-anchor="middle" x="40.5" y="-73" font-family="Helvetica,sans-Serif" font-size="10.00">Model</text>
</a>
</g>
</g>
<!-- Node2 -->
<g id="Node000002" class="node">
<title>Node2</title>
<g id="a_Node000002"><a xlink:href="classModelPrivate.html" target="_top" xlink:title="The ModelPrivate class provides private implementation for Model.">
<polygon fill="white" stroke="#666666" points="81,-19 0,-19 0,0 81,0 81,-19"/>
<text text-anchor="middle" x="40.5" y="-7" font-family="Helvetica,sans-Serif" font-size="10.00">ModelPrivate</text>
</a>
</g>
</g>
<!-- Node1&#45;&gt;Node2 -->
<g id="edge2_Node000002_Node000001" class="edge">
<title>Node1&#45;&gt;Node2</title>
<g id="a_edge2_Node000002_Node000001"><a xlink:title=" ">
<path fill="none" stroke="#9a32cd" stroke-dasharray="5,2" d="M21.18,-60.31C17.65,-56.72 14.47,-52.57 12.5,-48 7.81,-37.1 17.58,-26.44 26.84,-19.29"/>
<polygon fill="#9a32cd" stroke="#9a32cd" points="27.29,-65.79 18.93,-63.13 24.31,-63.12 21.34,-60.45 21.34,-60.45 21.34,-60.45 24.31,-63.12 23.74,-57.77 27.29,-65.79 27.29,-65.79"/>
</a>
</g>
<text text-anchor="middle" x="26.5" y="-40" font-family="Helvetica,sans-Serif" font-size="10.00" fill="grey"> q_ptr</text>
</g>
<!-- Node2&#45;&gt;Node1 -->
<g id="edge1_Node000001_Node000002" class="edge">
<title>Node2&#45;&gt;Node1</title>
<g id="a_edge1_Node000001_Node000002"><a xlink:title=" ">
<path fill="none" stroke="#9a32cd" stroke-dasharray="5,2" d="M43.58,-27.19C44.44,-33.68 45.01,-41.18 44.5,-48 44.05,-53.94 43.05,-60.56 42.17,-65.7"/>
<polygon fill="#9a32cd" stroke="#9a32cd" points="42.31,-19.12 47.11,-26.47 42.94,-23.08 43.56,-27.03 43.56,-27.03 43.56,-27.03 42.94,-23.08 40,-27.59 42.31,-19.12 42.31,-19.12"/>
</a>
</g>
<text text-anchor="middle" x="58.5" y="-40" font-family="Helvetica,sans-Serif" font-size="10.00" fill="grey"> d_ptr</text>
</g>
</g>
</svg>
