<?xml version="1.0" encoding="UTF-8" standalone="no"?>
<!DOCTYPE svg PUBLIC "-//W3C//DTD SVG 1.1//EN"
 "http://www.w3.org/Graphics/SVG/1.1/DTD/svg11.dtd">
<!-- Generated by graphviz version 2.43.0 (0)
 -->
<!-- Title: Model::insert Pages: 1 -->
<svg width="1002pt" height="433pt"
 viewBox="0.00 0.00 1002.00 433.11" xmlns="http://www.w3.org/2000/svg" xmlns:xlink="http://www.w3.org/1999/xlink">
<g id="graph0" class="graph" transform="scale(1 1) rotate(0) translate(4 429.11)">
<title>Model::insert</title>
<!-- Node1 -->
<g id="node1" class="node">
<title>Node1</title>
<g id="a_node1"><a xlink:title="Add the logical content of the JSON AST model file given by ast into this semantic model.">
<polygon fill="#999999" stroke="#666666" points="80,-214 0,-214 0,-195 80,-195 80,-214"/>
<text text-anchor="middle" x="40" y="-202" font-family="Helvetica,sans-Serif" font-size="10.00">Model::insert</text>
</a>
</g>
</g>
<!-- Node2 -->
<g id="node2" class="node">
<title>Node2</title>
<g id="a_node2"><a xlink:href="classShapeId.html#ad0bbf397b25b50a3fc9c145cea67ce11" target="_top" xlink:title="Returns true if this Shape ID has a non&#45;empty namespace, otherwise false otherwise.">
<polygon fill="white" stroke="#666666" points="640.5,-151 503.5,-151 503.5,-132 640.5,-132 640.5,-151"/>
<text text-anchor="middle" x="572" y="-139" font-family="Helvetica,sans-Serif" font-size="10.00">ShapeId::hasNameSpace</text>
</a>
</g>
</g>
<!-- Node1&#45;&gt;Node2 -->
<g id="edge1" class="edge">
<title>Node1&#45;&gt;Node2</title>
<path fill="none" stroke="#63b8ff" d="M42.12,-214.26C46.01,-243.13 61.85,-328.26 116,-362.5 247.86,-445.87 335.28,-446.09 467,-362.5 540.02,-316.16 562.7,-203.39 568.91,-159.45"/>
<polygon fill="#63b8ff" stroke="#63b8ff" points="569.97,-151.39 572.49,-159.79 569.44,-155.35 568.92,-159.32 568.92,-159.32 568.92,-159.32 569.44,-155.35 565.35,-158.85 569.97,-151.39 569.97,-151.39"/>
</g>
<!-- Node5 -->
<g id="node5" class="node">
<title>Node5</title>
<g id="a_node5"><a target="_parent" xlink:href="https://doc.qt.io/qt-5/qjsonvalue.html#isObject" xlink:title=" ">
<polygon fill="white" stroke="#666666" points="259.5,-353 142.5,-353 142.5,-334 259.5,-334 259.5,-353"/>
<text text-anchor="middle" x="201" y="-341" font-family="Helvetica,sans-Serif" font-size="10.00">QJsonValue::isObject</text>
</a>
</g>
</g>
<!-- Node1&#45;&gt;Node5 -->
<g id="edge4" class="edge">
<title>Node1&#45;&gt;Node5</title>
<path fill="none" stroke="#63b8ff" d="M44.04,-214.2C51.85,-237.45 74.98,-296.61 116,-325.5 121.61,-329.45 127.92,-332.56 134.49,-335.01"/>
<polygon fill="#63b8ff" stroke="#63b8ff" points="142.3,-337.59 133.57,-338.5 138.5,-336.33 134.7,-335.08 134.7,-335.08 134.7,-335.08 138.5,-336.33 135.83,-331.66 142.3,-337.59 142.3,-337.59"/>
</g>
<!-- Node6 -->
<g id="node6" class="node">
<title>Node6</title>
<g id="a_node6"><a xlink:href="classShapeId.html#a380944df9a71c1108ed5bdb459673a49" target="_top" xlink:title="Returns true if this object represents a valid, non&#45;empty Smithy Shape ID.">
<polygon fill="white" stroke="#666666" points="248,-316 154,-316 154,-297 248,-297 248,-316"/>
<text text-anchor="middle" x="201" y="-304" font-family="Helvetica,sans-Serif" font-size="10.00">ShapeId::isValid</text>
</a>
</g>
</g>
<!-- Node1&#45;&gt;Node6 -->
<g id="edge5" class="edge">
<title>Node1&#45;&gt;Node6</title>
<path fill="none" stroke="#63b8ff" d="M46.63,-214.09C57.59,-231.82 83.55,-269.64 116,-288.5 125.04,-293.76 135.43,-297.48 145.76,-300.12"/>
<polygon fill="#63b8ff" stroke="#63b8ff" points="153.61,-301.94 145.01,-303.65 149.72,-301.04 145.82,-300.14 145.82,-300.14 145.82,-300.14 149.72,-301.04 146.63,-296.63 153.61,-301.94 153.61,-301.94"/>
</g>
<!-- Node10 -->
<g id="node10" class="node">
<title>Node10</title>
<g id="a_node10"><a target="_parent" xlink:href="https://doc.qt.io/qt-5/qjsonobject.html#keys" xlink:title=" ">
<polygon fill="white" stroke="#666666" points="253,-279 149,-279 149,-260 253,-260 253,-279"/>
<text text-anchor="middle" x="201" y="-267" font-family="Helvetica,sans-Serif" font-size="10.00">QJsonObject::keys</text>
</a>
</g>
</g>
<!-- Node1&#45;&gt;Node10 -->
<g id="edge9" class="edge">
<title>Node1&#45;&gt;Node10</title>
<path fill="none" stroke="#63b8ff" d="M53.27,-214.09C67.55,-224.79 92.22,-241.85 116,-251.5 123.94,-254.72 132.54,-257.4 141.11,-259.62"/>
<polygon fill="#63b8ff" stroke="#63b8ff" points="148.95,-261.54 140.32,-263.14 145.06,-260.59 141.18,-259.64 141.18,-259.64 141.18,-259.64 145.06,-260.59 142.03,-256.14 148.95,-261.54 148.95,-261.54"/>
</g>
<!-- Node11 -->
<g id="node11" class="node">
<title>Node11</title>
<g id="a_node11"><a target="_parent" xlink:href="https://doc.qt.io/qt-5/qversionnumber.html#majorVersion" xlink:title=" ">
<polygon fill="white" stroke="#666666" points="286,-242 116,-242 116,-223 286,-223 286,-242"/>
<text text-anchor="middle" x="201" y="-230" font-family="Helvetica,sans-Serif" font-size="10.00">QVersionNumber::majorVersion</text>
</a>
</g>
</g>
<!-- Node1&#45;&gt;Node11 -->
<g id="edge10" class="edge">
<title>Node1&#45;&gt;Node11</title>
<path fill="none" stroke="#63b8ff" d="M80.3,-211.42C97.68,-214.48 118.54,-218.15 137.93,-221.57"/>
<polygon fill="#63b8ff" stroke="#63b8ff" points="145.86,-222.97 137.35,-225.12 141.92,-222.27 137.98,-221.58 137.98,-221.58 137.98,-221.58 141.92,-222.27 138.6,-218.03 145.86,-222.97 145.86,-222.97"/>
</g>
<!-- Node12 -->
<g id="node12" class="node">
<title>Node12</title>
<g id="a_node12"><a xlink:href="classModel.html#a006b5ee757212e9de1f564ebcdfab91d" target="_top" xlink:title=" ">
<polygon fill="white" stroke="#666666" points="244.5,-187 157.5,-187 157.5,-168 244.5,-168 244.5,-187"/>
<text text-anchor="middle" x="201" y="-175" font-family="Helvetica,sans-Serif" font-size="10.00">Model::shapes</text>
</a>
</g>
</g>
<!-- Node1&#45;&gt;Node12 -->
<g id="edge11" class="edge">
<title>Node1&#45;&gt;Node12</title>
<path fill="none" stroke="#63b8ff" d="M80.3,-197.83C101.11,-194.29 126.89,-189.91 149.2,-186.13"/>
<polygon fill="#63b8ff" stroke="#63b8ff" points="157.24,-184.76 149.96,-189.65 153.3,-185.43 149.36,-186.1 149.36,-186.1 149.36,-186.1 153.3,-185.43 148.75,-182.55 157.24,-184.76 157.24,-184.76"/>
</g>
<!-- Node14 -->
<g id="node14" class="node">
<title>Node14</title>
<g id="a_node14"><a target="_parent" xlink:href="https://doc.qt.io/qt-5/qjsonvalue.html#toObject-1" xlink:title=" ">
<polygon fill="white" stroke="#666666" points="260.5,-150 141.5,-150 141.5,-131 260.5,-131 260.5,-150"/>
<text text-anchor="middle" x="201" y="-138" font-family="Helvetica,sans-Serif" font-size="10.00">QJsonValue::toObject</text>
</a>
</g>
</g>
<!-- Node1&#45;&gt;Node14 -->
<g id="edge14" class="edge">
<title>Node1&#45;&gt;Node14</title>
<path fill="none" stroke="#63b8ff" d="M53.56,-194.93C67.91,-184.47 92.46,-167.92 116,-158.5 121.94,-156.12 128.25,-154.04 134.63,-152.21"/>
<polygon fill="#63b8ff" stroke="#63b8ff" points="142.74,-150.04 135.94,-155.59 138.87,-151.07 135.01,-152.11 135.01,-152.11 135.01,-152.11 138.87,-151.07 134.08,-148.63 142.74,-150.04 142.74,-150.04"/>
</g>
<!-- Node15 -->
<g id="node15" class="node">
<title>Node15</title>
<g id="a_node15"><a xlink:href="classShapeId.html#a564f14952b394af6b38f748417a7e48a" target="_top" xlink:title="Returns this object as an absolute Smithy Shape ID if this object has a namespace,...">
<polygon fill="white" stroke="#666666" points="251,-113 151,-113 151,-94 251,-94 251,-113"/>
<text text-anchor="middle" x="201" y="-101" font-family="Helvetica,sans-Serif" font-size="10.00">ShapeId::toString</text>
</a>
</g>
</g>
<!-- Node1&#45;&gt;Node15 -->
<g id="edge15" class="edge">
<title>Node1&#45;&gt;Node15</title>
<path fill="none" stroke="#63b8ff" d="M46.84,-194.75C57.94,-177.12 83.87,-140.05 116,-121.5 124.17,-116.78 133.44,-113.3 142.76,-110.72"/>
<polygon fill="#63b8ff" stroke="#63b8ff" points="150.57,-108.77 143.69,-114.2 146.69,-109.74 142.81,-110.71 142.81,-110.71 142.81,-110.71 146.69,-109.74 141.94,-107.22 150.57,-108.77 150.57,-108.77"/>
</g>
<!-- Node21 -->
<g id="node21" class="node">
<title>Node21</title>
<g id="a_node21"><a target="_parent" xlink:href="https://doc.qt.io/qt-5/qversionnumber.html#toString" xlink:title=" ">
<polygon fill="white" stroke="#666666" points="272.5,-76 129.5,-76 129.5,-57 272.5,-57 272.5,-76"/>
<text text-anchor="middle" x="201" y="-64" font-family="Helvetica,sans-Serif" font-size="10.00">QVersionNumber::toString</text>
</a>
</g>
</g>
<!-- Node1&#45;&gt;Node21 -->
<g id="edge27" class="edge">
<title>Node1&#45;&gt;Node21</title>
<path fill="none" stroke="#63b8ff" d="M44.06,-194.88C51.93,-171.81 75.17,-113.14 116,-84.5 118.67,-82.63 121.5,-80.94 124.44,-79.43"/>
<polygon fill="#63b8ff" stroke="#63b8ff" points="131.94,-76 126.16,-82.6 128.3,-77.66 124.66,-79.32 124.66,-79.32 124.66,-79.32 128.3,-77.66 123.17,-76.05 131.94,-76 131.94,-76"/>
</g>
<!-- Node22 -->
<g id="node22" class="node">
<title>Node22</title>
<g id="a_node22"><a target="_parent" xlink:href="https://doc.qt.io/qt-5/qjsonobject.html#value" xlink:title=" ">
<polygon fill="white" stroke="#666666" points="255.5,-39 146.5,-39 146.5,-20 255.5,-20 255.5,-39"/>
<text text-anchor="middle" x="201" y="-27" font-family="Helvetica,sans-Serif" font-size="10.00">QJsonObject::value</text>
</a>
</g>
</g>
<!-- Node1&#45;&gt;Node22 -->
<g id="edge28" class="edge">
<title>Node1&#45;&gt;Node22</title>
<path fill="none" stroke="#63b8ff" d="M42.57,-194.92C47.64,-167.27 66.2,-86.8 116,-47.5 122.5,-42.37 130.13,-38.62 138.09,-35.89"/>
<polygon fill="#63b8ff" stroke="#63b8ff" points="146.14,-33.49 139.5,-39.23 142.3,-34.63 138.47,-35.78 138.47,-35.78 138.47,-35.78 142.3,-34.63 137.44,-32.33 146.14,-33.49 146.14,-33.49"/>
</g>
<!-- Node3 -->
<g id="node3" class="node">
<title>Node3</title>
<g id="a_node3"><a target="_parent" xlink:href="https://doc.qt.io/qt-5/qstring.html#isEmpty" xlink:title=" ">
<polygon fill="white" stroke="#666666" points="977,-113 879,-113 879,-94 977,-94 977,-113"/>
<text text-anchor="middle" x="928" y="-101" font-family="Helvetica,sans-Serif" font-size="10.00">QString::isEmpty</text>
</a>
</g>
</g>
<!-- Node2&#45;&gt;Node3 -->
<g id="edge2" class="edge">
<title>Node2&#45;&gt;Node3</title>
<path fill="none" stroke="#63b8ff" d="M640.69,-147.54C691.98,-150.6 763.96,-151.63 826,-140.5 851.8,-135.87 879.67,-125.19 899.59,-116.49"/>
<polygon fill="#63b8ff" stroke="#63b8ff" points="907.07,-113.15 901.24,-119.7 903.42,-114.78 899.77,-116.41 899.77,-116.41 899.77,-116.41 903.42,-114.78 898.3,-113.13 907.07,-113.15 907.07,-113.15"/>
</g>
<!-- Node4 -->
<g id="node4" class="node">
<title>Node4</title>
<g id="a_node4"><a xlink:href="classShapeId.html#a0d88184bccd8dc5b22b67800aeccf092" target="_top" xlink:title="Returns the Shape ID&#39;s namespace, if it has one, otherwise a null string.">
<polygon fill="white" stroke="#666666" points="811,-132 692,-132 692,-113 811,-113 811,-132"/>
<text text-anchor="middle" x="751.5" y="-120" font-family="Helvetica,sans-Serif" font-size="10.00">ShapeId::nameSpace</text>
</a>
</g>
</g>
<!-- Node2&#45;&gt;Node4 -->
<g id="edge3" class="edge">
<title>Node2&#45;&gt;Node4</title>
<path fill="none" stroke="#63b8ff" d="M640.61,-134.26C654.7,-132.75 669.54,-131.17 683.6,-129.66"/>
<polygon fill="#63b8ff" stroke="#63b8ff" points="691.78,-128.79 684.2,-133.22 687.8,-129.21 683.82,-129.64 683.82,-129.64 683.82,-129.64 687.8,-129.21 683.44,-126.06 691.78,-128.79 691.78,-128.79"/>
</g>
<!-- Node7 -->
<g id="node7" class="node">
<title>Node7</title>
<g id="a_node7"><a target="_parent" xlink:href="https://doc.qt.io/qt-5/qregularexpressionmatch.html#hasMatch" xlink:title=" ">
<polygon fill="white" stroke="#666666" points="467,-353.5 322,-353.5 322,-323.5 467,-323.5 467,-353.5"/>
<text text-anchor="start" x="330" y="-341.5" font-family="Helvetica,sans-Serif" font-size="10.00">QRegularExpressionMatch</text>
<text text-anchor="middle" x="394.5" y="-330.5" font-family="Helvetica,sans-Serif" font-size="10.00">::hasMatch</text>
</a>
</g>
</g>
<!-- Node6&#45;&gt;Node7 -->
<g id="edge6" class="edge">
<title>Node6&#45;&gt;Node7</title>
<path fill="none" stroke="#63b8ff" d="M248.36,-314.25C267.98,-317.52 291.4,-321.44 313.65,-325.16"/>
<polygon fill="#63b8ff" stroke="#63b8ff" points="321.79,-326.52 313.3,-328.75 317.84,-325.86 313.9,-325.2 313.9,-325.2 313.9,-325.2 317.84,-325.86 314.49,-321.65 321.79,-326.52 321.79,-326.52"/>
</g>
<!-- Node8 -->
<g id="node8" class="node">
<title>Node8</title>
<g id="a_node8"><a target="_parent" xlink:href="https://doc.qt.io/qt-5/qregularexpression.html#isValid" xlink:title=" ">
<polygon fill="white" stroke="#666666" points="452,-305.5 337,-305.5 337,-275.5 452,-275.5 452,-305.5"/>
<text text-anchor="start" x="345" y="-293.5" font-family="Helvetica,sans-Serif" font-size="10.00">QRegularExpression</text>
<text text-anchor="middle" x="394.5" y="-282.5" font-family="Helvetica,sans-Serif" font-size="10.00">::isValid</text>
</a>
</g>
</g>
<!-- Node6&#45;&gt;Node8 -->
<g id="edge7" class="edge">
<title>Node6&#45;&gt;Node8</title>
<path fill="none" stroke="#63b8ff" d="M248.36,-302.63C272.53,-300.61 302.49,-298.1 328.91,-295.9"/>
<polygon fill="#63b8ff" stroke="#63b8ff" points="336.98,-295.22 329.31,-299.48 332.99,-295.56 329.01,-295.89 329.01,-295.89 329.01,-295.89 332.99,-295.56 328.71,-292.3 336.98,-295.22 336.98,-295.22"/>
</g>
<!-- Node9 -->
<g id="node9" class="node">
<title>Node9</title>
<g id="a_node9"><a target="_parent" xlink:href="https://doc.qt.io/qt-5/qregularexpression.html#match" xlink:title=" ">
<polygon fill="white" stroke="#666666" points="452,-257.5 337,-257.5 337,-227.5 452,-227.5 452,-257.5"/>
<text text-anchor="start" x="345" y="-245.5" font-family="Helvetica,sans-Serif" font-size="10.00">QRegularExpression</text>
<text text-anchor="middle" x="394.5" y="-234.5" font-family="Helvetica,sans-Serif" font-size="10.00">::match</text>
</a>
</g>
</g>
<!-- Node6&#45;&gt;Node9 -->
<g id="edge8" class="edge">
<title>Node6&#45;&gt;Node9</title>
<path fill="none" stroke="#63b8ff" d="M248.17,-299.52C260.7,-296.85 274.09,-293.26 286,-288.5 303.41,-281.55 305,-274.42 322,-266.5 326.52,-264.39 331.27,-262.38 336.09,-260.49"/>
<polygon fill="#63b8ff" stroke="#63b8ff" points="343.7,-257.6 337.5,-263.81 339.96,-259.02 336.22,-260.44 336.22,-260.44 336.22,-260.44 339.96,-259.02 334.94,-257.07 343.7,-257.6 343.7,-257.6"/>
</g>
<!-- Node12&#45;&gt;Node12 -->
<g id="edge13" class="edge">
<title>Node12&#45;&gt;Node12</title>
<path fill="none" stroke="#63b8ff" d="M176.34,-187.08C164.34,-195.73 172.56,-205 201,-205 222.33,-205 232.28,-199.79 230.87,-193.53"/>
<polygon fill="#63b8ff" stroke="#63b8ff" points="225.66,-187.08 233.49,-191.05 228.17,-190.2 230.69,-193.31 230.69,-193.31 230.69,-193.31 228.17,-190.2 227.89,-195.57 225.66,-187.08 225.66,-187.08"/>
</g>
<!-- Node13 -->
<g id="node13" class="node">
<title>Node13</title>
<g id="a_node13"><a target="_parent" xlink:href="https://doc.qt.io/qt-5/qhash.html#insert" xlink:title=" ">
<polygon fill="white" stroke="#666666" points="436,-189 353,-189 353,-170 436,-170 436,-189"/>
<text text-anchor="middle" x="394.5" y="-177" font-family="Helvetica,sans-Serif" font-size="10.00">QHash::insert</text>
</a>
</g>
</g>
<!-- Node12&#45;&gt;Node13 -->
<g id="edge12" class="edge">
<title>Node12&#45;&gt;Node13</title>
<path fill="none" stroke="#63b8ff" d="M244.5,-177.94C274.14,-178.25 313.75,-178.67 344.69,-178.99"/>
<polygon fill="#63b8ff" stroke="#63b8ff" points="352.76,-179.07 344.72,-182.59 348.76,-179.03 344.76,-178.99 344.76,-178.99 344.76,-178.99 348.76,-179.03 344.8,-175.39 352.76,-179.07 352.76,-179.07"/>
</g>
<!-- Node15&#45;&gt;Node2 -->
<g id="edge25" class="edge">
<title>Node15&#45;&gt;Node2</title>
<path fill="none" stroke="#63b8ff" d="M251.23,-111.67C272.89,-115.06 298.66,-118.82 322,-121.5 379.95,-128.17 445.75,-133.35 495.15,-136.77"/>
<polygon fill="#63b8ff" stroke="#63b8ff" points="503.24,-137.32 495.01,-140.37 499.25,-137.05 495.26,-136.77 495.26,-136.77 495.26,-136.77 499.25,-137.05 495.51,-133.18 503.24,-137.32 503.24,-137.32"/>
</g>
<!-- Node16 -->
<g id="node16" class="node">
<title>Node16</title>
<g id="a_node16"><a xlink:href="classShapeId.html#a42ae1231e4d242958ab12e61504e33ca" target="_top" xlink:title="Returns this object as an absolute Smithy Shape ID if this object has a namespace,...">
<polygon fill="white" stroke="#666666" points="466,-113 323,-113 323,-94 466,-94 466,-113"/>
<text text-anchor="middle" x="394.5" y="-101" font-family="Helvetica,sans-Serif" font-size="10.00">ShapeId::absoluteShapeId</text>
</a>
</g>
</g>
<!-- Node15&#45;&gt;Node16 -->
<g id="edge16" class="edge">
<title>Node15&#45;&gt;Node16</title>
<path fill="none" stroke="#63b8ff" d="M251.32,-103.5C270.58,-103.5 293.14,-103.5 314.55,-103.5"/>
<polygon fill="#63b8ff" stroke="#63b8ff" points="322.69,-103.5 314.69,-107.1 318.69,-103.5 314.69,-103.5 314.69,-103.5 314.69,-103.5 318.69,-103.5 314.69,-99.9 322.69,-103.5 322.69,-103.5"/>
</g>
<!-- Node17 -->
<g id="node17" class="node">
<title>Node17</title>
<g id="a_node17"><a xlink:href="classShapeId.html#aad508460b545930c3aeb82021e79de5a" target="_top" xlink:title="Returns this object as a relative Smithy Shape ID, that one without a leading namespace.">
<polygon fill="white" stroke="#666666" points="641,-75 503,-75 503,-56 641,-56 641,-75"/>
<text text-anchor="middle" x="572" y="-63" font-family="Helvetica,sans-Serif" font-size="10.00">ShapeId::relativeShapeId</text>
</a>
</g>
</g>
<!-- Node15&#45;&gt;Node17 -->
<g id="edge26" class="edge">
<title>Node15&#45;&gt;Node17</title>
<path fill="none" stroke="#63b8ff" d="M251.21,-94.79C272.87,-91.19 298.64,-87.24 322,-84.5 379.82,-77.73 445.49,-72.83 494.86,-69.71"/>
<polygon fill="#63b8ff" stroke="#63b8ff" points="502.96,-69.2 495.2,-73.3 498.96,-69.45 494.97,-69.7 494.97,-69.7 494.97,-69.7 498.96,-69.45 494.75,-66.11 502.96,-69.2 502.96,-69.2"/>
</g>
<!-- Node16&#45;&gt;Node2 -->
<g id="edge17" class="edge">
<title>Node16&#45;&gt;Node2</title>
<path fill="none" stroke="#63b8ff" d="M439.79,-113.09C463.88,-118.31 493.83,-124.79 519.03,-130.25"/>
<polygon fill="#63b8ff" stroke="#63b8ff" points="527.03,-131.98 518.45,-133.81 523.12,-131.13 519.21,-130.29 519.21,-130.29 519.21,-130.29 523.12,-131.13 519.98,-126.77 527.03,-131.98 527.03,-131.98"/>
</g>
<!-- Node16&#45;&gt;Node4 -->
<g id="edge18" class="edge">
<title>Node16&#45;&gt;Node4</title>
<path fill="none" stroke="#63b8ff" d="M466.06,-107.28C529.34,-110.66 621.53,-115.6 683.65,-118.92"/>
<polygon fill="#63b8ff" stroke="#63b8ff" points="691.83,-119.36 683.65,-122.53 687.83,-119.15 683.84,-118.93 683.84,-118.93 683.84,-118.93 687.83,-119.15 684.03,-115.34 691.83,-119.36 691.83,-119.36"/>
</g>
<!-- Node16&#45;&gt;Node17 -->
<g id="edge19" class="edge">
<title>Node16&#45;&gt;Node17</title>
<path fill="none" stroke="#63b8ff" d="M439.79,-93.91C463.88,-88.69 493.83,-82.21 519.03,-76.75"/>
<polygon fill="#63b8ff" stroke="#63b8ff" points="527.03,-75.02 519.98,-80.23 523.12,-75.87 519.21,-76.71 519.21,-76.71 519.21,-76.71 523.12,-75.87 518.45,-73.19 527.03,-75.02 527.03,-75.02"/>
</g>
<!-- Node18 -->
<g id="node18" class="node">
<title>Node18</title>
<g id="a_node18"><a xlink:href="classShapeId.html#a6f1fc0aab99d0108fc3f1eeb5a4d2687" target="_top" xlink:title="Returns true if this Shape ID has a non&#45;empty member name, otherwise false otherwise.">
<polygon fill="white" stroke="#666666" points="826,-95 677,-95 677,-76 826,-76 826,-95"/>
<text text-anchor="middle" x="751.5" y="-83" font-family="Helvetica,sans-Serif" font-size="10.00">ShapeId::hasMemberName</text>
</a>
</g>
</g>
<!-- Node17&#45;&gt;Node18 -->
<g id="edge20" class="edge">
<title>Node17&#45;&gt;Node18</title>
<path fill="none" stroke="#63b8ff" d="M641.12,-73.18C650.19,-74.2 659.57,-75.25 668.85,-76.3"/>
<polygon fill="#63b8ff" stroke="#63b8ff" points="676.96,-77.21 668.61,-79.9 672.98,-76.77 669.01,-76.32 669.01,-76.32 669.01,-76.32 672.98,-76.77 669.41,-72.74 676.96,-77.21 676.96,-77.21"/>
</g>
<!-- Node19 -->
<g id="node19" class="node">
<title>Node19</title>
<g id="a_node19"><a xlink:href="classShapeId.html#a9b1580e3aa193c99d000aa084def3a70" target="_top" xlink:title="Returns the Shape ID&#39;s member name, if it has one, otherwise a null string.">
<polygon fill="white" stroke="#666666" points="994,-76 862,-76 862,-57 994,-57 994,-76"/>
<text text-anchor="middle" x="928" y="-64" font-family="Helvetica,sans-Serif" font-size="10.00">ShapeId::memberName</text>
</a>
</g>
</g>
<!-- Node17&#45;&gt;Node19 -->
<g id="edge23" class="edge">
<title>Node17&#45;&gt;Node19</title>
<path fill="none" stroke="#63b8ff" d="M641.25,-65.69C702.21,-65.86 791.25,-66.12 853.7,-66.29"/>
<polygon fill="#63b8ff" stroke="#63b8ff" points="861.94,-66.32 853.93,-69.89 857.94,-66.3 853.94,-66.29 853.94,-66.29 853.94,-66.29 857.94,-66.3 853.95,-62.69 861.94,-66.32 861.94,-66.32"/>
</g>
<!-- Node20 -->
<g id="node20" class="node">
<title>Node20</title>
<g id="a_node20"><a xlink:href="classShapeId.html#a8aad9a1383c03aee2f33b1568e89f688" target="_top" xlink:title="Returns the Shape ID&#39;s shape name, if it has one, otherwise a null string.">
<polygon fill="white" stroke="#666666" points="811.5,-19 691.5,-19 691.5,0 811.5,0 811.5,-19"/>
<text text-anchor="middle" x="751.5" y="-7" font-family="Helvetica,sans-Serif" font-size="10.00">ShapeId::shapeName</text>
</a>
</g>
</g>
<!-- Node17&#45;&gt;Node20 -->
<g id="edge24" class="edge">
<title>Node17&#45;&gt;Node20</title>
<path fill="none" stroke="#63b8ff" d="M603.51,-55.87C633.67,-46.36 679.88,-31.78 712.42,-21.51"/>
<polygon fill="#63b8ff" stroke="#63b8ff" points="720.38,-19 713.84,-24.84 716.57,-20.2 712.76,-21.41 712.76,-21.41 712.76,-21.41 716.57,-20.2 711.67,-17.97 720.38,-19 720.38,-19"/>
</g>
<!-- Node18&#45;&gt;Node3 -->
<g id="edge21" class="edge">
<title>Node18&#45;&gt;Node3</title>
<path fill="none" stroke="#63b8ff" d="M826.25,-93.11C841.1,-94.64 856.49,-96.23 870.63,-97.69"/>
<polygon fill="#63b8ff" stroke="#63b8ff" points="878.8,-98.53 870.48,-101.29 874.82,-98.12 870.84,-97.71 870.84,-97.71 870.84,-97.71 874.82,-98.12 871.21,-94.13 878.8,-98.53 878.8,-98.53"/>
</g>
<!-- Node18&#45;&gt;Node19 -->
<g id="edge22" class="edge">
<title>Node18&#45;&gt;Node19</title>
<path fill="none" stroke="#63b8ff" d="M826.25,-77.47C835.39,-76.47 844.73,-75.46 853.85,-74.46"/>
<polygon fill="#63b8ff" stroke="#63b8ff" points="861.81,-73.6 854.25,-78.04 857.83,-74.03 853.86,-74.46 853.86,-74.46 853.86,-74.46 857.83,-74.03 853.47,-70.89 861.81,-73.6 861.81,-73.6"/>
</g>
</g>
</svg>
