<?xml version="1.0" encoding="UTF-8" standalone="no"?>
<!DOCTYPE svg PUBLIC "-//W3C//DTD SVG 1.1//EN"
 "http://www.w3.org/Graphics/SVG/1.1/DTD/svg11.dtd">
<!-- Generated by graphviz version 2.43.0 (0)
 -->
<!-- Title: ShapeId::isRelativeShapeId Pages: 1 -->
<svg width="485pt" height="64pt"
 viewBox="0.00 0.00 485.00 64.00" xmlns="http://www.w3.org/2000/svg" xmlns:xlink="http://www.w3.org/1999/xlink">
<g id="graph0" class="graph" transform="scale(1 1) rotate(0) translate(4 60)">
<title>ShapeId::isRelativeShapeId</title>
<!-- Node1 -->
<g id="node1" class="node">
<title>Node1</title>
<g id="a_node1"><a xlink:title="Returns true if this Shape ID is a relative Shape ID, false otherwise.">
<polygon fill="#999999" stroke="#666666" points="149,-37 0,-37 0,-18 149,-18 149,-37"/>
<text text-anchor="middle" x="74.5" y="-25" font-family="Helvetica,sans-Serif" font-size="10.00">ShapeId::isRelativeShapeId</text>
</a>
</g>
</g>
<!-- Node2 -->
<g id="node2" class="node">
<title>Node2</title>
<g id="a_node2"><a xlink:href="classShapeId.html#ad0bbf397b25b50a3fc9c145cea67ce11" target="_top" xlink:title="Returns true if this Shape ID has a non&#45;empty namespace, otherwise false otherwise.">
<polygon fill="white" stroke="#666666" points="322,-37 185,-37 185,-18 322,-18 322,-37"/>
<text text-anchor="middle" x="253.5" y="-25" font-family="Helvetica,sans-Serif" font-size="10.00">ShapeId::hasNameSpace</text>
</a>
</g>
</g>
<!-- Node1&#45;&gt;Node2 -->
<g id="edge1" class="edge">
<title>Node1&#45;&gt;Node2</title>
<path fill="none" stroke="#63b8ff" d="M149.03,-27.5C158.21,-27.5 167.61,-27.5 176.83,-27.5"/>
<polygon fill="#63b8ff" stroke="#63b8ff" points="184.87,-27.5 176.87,-31.1 180.87,-27.5 176.87,-27.5 176.87,-27.5 176.87,-27.5 180.87,-27.5 176.87,-23.9 184.87,-27.5 184.87,-27.5"/>
</g>
<!-- Node3 -->
<g id="node3" class="node">
<title>Node3</title>
<g id="a_node3"><a target="_parent" xlink:href="https://doc.qt.io/qt-5/qstring.html#isEmpty" xlink:title=" ">
<polygon fill="white" stroke="#666666" points="466.5,-56 368.5,-56 368.5,-37 466.5,-37 466.5,-56"/>
<text text-anchor="middle" x="417.5" y="-44" font-family="Helvetica,sans-Serif" font-size="10.00">QString::isEmpty</text>
</a>
</g>
</g>
<!-- Node2&#45;&gt;Node3 -->
<g id="edge2" class="edge">
<title>Node2&#45;&gt;Node3</title>
<path fill="none" stroke="#63b8ff" d="M322.26,-35.45C334.8,-36.92 347.78,-38.44 359.94,-39.87"/>
<polygon fill="#63b8ff" stroke="#63b8ff" points="368.22,-40.84 359.85,-43.48 364.24,-40.37 360.27,-39.91 360.27,-39.91 360.27,-39.91 364.24,-40.37 360.69,-36.33 368.22,-40.84 368.22,-40.84"/>
</g>
<!-- Node4 -->
<g id="node4" class="node">
<title>Node4</title>
<g id="a_node4"><a xlink:href="classShapeId.html#a0d88184bccd8dc5b22b67800aeccf092" target="_top" xlink:title="Returns the Shape ID&#39;s namespace, if it has one, otherwise a null string.">
<polygon fill="white" stroke="#666666" points="477,-19 358,-19 358,0 477,0 477,-19"/>
<text text-anchor="middle" x="417.5" y="-7" font-family="Helvetica,sans-Serif" font-size="10.00">ShapeId::nameSpace</text>
</a>
</g>
</g>
<!-- Node2&#45;&gt;Node4 -->
<g id="edge3" class="edge">
<title>Node2&#45;&gt;Node4</title>
<path fill="none" stroke="#63b8ff" d="M322.26,-19.97C331.29,-18.97 340.55,-17.94 349.56,-16.94"/>
<polygon fill="#63b8ff" stroke="#63b8ff" points="357.76,-16.03 350.2,-20.49 353.78,-16.47 349.81,-16.91 349.81,-16.91 349.81,-16.91 353.78,-16.47 349.41,-13.33 357.76,-16.03 357.76,-16.03"/>
</g>
</g>
</svg>
