<?xml version="1.0" encoding="UTF-8" standalone="no"?>
<!DOCTYPE svg PUBLIC "-//W3C//DTD SVG 1.1//EN"
 "http://www.w3.org/Graphics/SVG/1.1/DTD/svg11.dtd">
<!-- Generated by graphviz version 2.43.0 (0)
 -->
<!-- Title: Model::insert Pages: 1 -->
<svg width="1067pt" height="319pt"
 viewBox="0.00 0.00 1067.00 318.54" xmlns="http://www.w3.org/2000/svg" xmlns:xlink="http://www.w3.org/1999/xlink">
<g id="graph0" class="graph" transform="scale(1 1) rotate(0) translate(4 314.54)">
<title>Model::insert</title>
<!-- Node1 -->
<g id="Node000001" class="node">
<title>Node1</title>
<g id="a_Node000001"><a xlink:title="Add the logical content of the JSON AST model file given by ast into this semantic model.">
<polygon fill="#999999" stroke="#666666" points="80,-216 0,-216 0,-197 80,-197 80,-216"/>
<text text-anchor="middle" x="40" y="-204" font-family="Helvetica,sans-Serif" font-size="10.00">Model::insert</text>
</a>
</g>
</g>
<!-- Node2 -->
<g id="Node000002" class="node">
<title>Node2</title>
<g id="a_Node000002"><a xlink:href="classShapeId.html#ad0bbf397b25b50a3fc9c145cea67ce11" target="_top" xlink:title="Returns true if this Shape ID has a non&#45;empty namespace, otherwise false otherwise.">
<polygon fill="white" stroke="#666666" points="568.5,-113 431.5,-113 431.5,-94 568.5,-94 568.5,-113"/>
<text text-anchor="middle" x="500" y="-101" font-family="Helvetica,sans-Serif" font-size="10.00">ShapeId::hasNameSpace</text>
</a>
</g>
</g>
<!-- Node1&#45;&gt;Node2 -->
<g id="edge1_Node000001_Node000002" class="edge">
<title>Node1&#45;&gt;Node2</title>
<g id="a_edge1_Node000001_Node000002"><a xlink:title=" ">
<path fill="none" stroke="#63b8ff" d="M53.2,-196.85C67.42,-186.14 92.03,-169.22 116,-160.5 218.1,-123.35 343.92,-110.39 422.83,-105.88"/>
<polygon fill="#63b8ff" stroke="#63b8ff" points="431.27,-105.42 423.48,-109.45 427.27,-105.64 423.28,-105.86 423.28,-105.86 423.28,-105.86 427.27,-105.64 423.08,-102.26 431.27,-105.42 431.27,-105.42"/>
</a>
</g>
</g>
<!-- Node5 -->
<g id="Node000005" class="node">
<title>Node5</title>
<g id="a_Node000005"><a xlink:href="classShapeId.html#a380944df9a71c1108ed5bdb459673a49" target="_top" xlink:title="Returns true if this object represents a valid, non&#45;empty Smithy Shape ID.">
<polygon fill="white" stroke="#666666" points="903,-235 809,-235 809,-216 903,-216 903,-235"/>
<text text-anchor="middle" x="856" y="-223" font-family="Helvetica,sans-Serif" font-size="10.00">ShapeId::isValid</text>
</a>
</g>
</g>
<!-- Node1&#45;&gt;Node5 -->
<g id="edge4_Node000001_Node000005" class="edge">
<title>Node1&#45;&gt;Node5</title>
<g id="a_edge4_Node000001_Node000005"><a xlink:title=" ">
<path fill="none" stroke="#63b8ff" d="M49.14,-216.06C61.87,-230.34 87.93,-256.98 116,-270.5 200.22,-311.07 229.02,-310.5 322.5,-310.5 322.5,-310.5 322.5,-310.5 501,-310.5 623.49,-310.5 763.4,-261.79 824.15,-238.12"/>
<polygon fill="#63b8ff" stroke="#63b8ff" points="831.85,-235.09 825.72,-241.37 828.13,-236.55 824.41,-238.02 824.41,-238.02 824.41,-238.02 828.13,-236.55 823.09,-234.67 831.85,-235.09 831.85,-235.09"/>
</a>
</g>
</g>
<!-- Node6 -->
<g id="Node000006" class="node">
<title>Node6</title>
<g id="a_Node000006"><a xlink:href="classModel.html#ae3b375de5f6df4faf74a95d64748e048" target="_top" xlink:title="Constructs a new, empty Smithy model.">
<polygon fill="white" stroke="#666666" points="365,-244 282,-244 282,-225 365,-225 365,-244"/>
<text text-anchor="middle" x="323.5" y="-232" font-family="Helvetica,sans-Serif" font-size="10.00">Model::Model</text>
</a>
</g>
</g>
<!-- Node1&#45;&gt;Node6 -->
<g id="edge6_Node000001_Node000006" class="edge">
<title>Node1&#45;&gt;Node6</title>
<g id="a_edge6_Node000001_Node000006"><a xlink:title=" ">
<path fill="none" stroke="#63b8ff" d="M51.72,-216C65.47,-227.49 90.6,-246.2 116,-253.5 173.21,-269.94 242.66,-257.22 284.68,-246.15"/>
<polygon fill="#63b8ff" stroke="#63b8ff" points="292.45,-244.04 285.67,-249.61 288.59,-245.08 284.73,-246.13 284.73,-246.13 284.73,-246.13 288.59,-245.08 283.78,-242.66 292.45,-244.04 292.45,-244.04"/>
</a>
</g>
</g>
<!-- Node7 -->
<g id="Node000007" class="node">
<title>Node7</title>
<g id="a_Node000007"><a xlink:href="classModel.html#a230e00c458f652c3fa9b447bdd672bdc" target="_top" xlink:title=" ">
<polygon fill="white" stroke="#666666" points="207,-244 125,-244 125,-225 207,-225 207,-244"/>
<text text-anchor="middle" x="166" y="-232" font-family="Helvetica,sans-Serif" font-size="10.00">Model::shape</text>
</a>
</g>
</g>
<!-- Node1&#45;&gt;Node7 -->
<g id="edge8_Node000001_Node000007" class="edge">
<title>Node1&#45;&gt;Node7</title>
<g id="a_edge8_Node000001_Node000007"><a xlink:title=" ">
<path fill="none" stroke="#63b8ff" d="M80.23,-215.36C91.88,-217.99 104.76,-220.9 116.89,-223.64"/>
<polygon fill="#63b8ff" stroke="#63b8ff" points="124.74,-225.41 116.14,-227.16 120.84,-224.53 116.94,-223.65 116.94,-223.65 116.94,-223.65 120.84,-224.53 117.73,-220.14 124.74,-225.41 124.74,-225.41"/>
</a>
</g>
</g>
<!-- Node8 -->
<g id="Node000008" class="node">
<title>Node8</title>
<g id="a_Node000008"><a xlink:href="classModel.html#a006b5ee757212e9de1f564ebcdfab91d" target="_top" xlink:title=" ">
<polygon fill="white" stroke="#666666" points="209.5,-189 122.5,-189 122.5,-170 209.5,-170 209.5,-189"/>
<text text-anchor="middle" x="166" y="-177" font-family="Helvetica,sans-Serif" font-size="10.00">Model::shapes</text>
</a>
</g>
</g>
<!-- Node1&#45;&gt;Node8 -->
<g id="edge10_Node000001_Node000008" class="edge">
<title>Node1&#45;&gt;Node8</title>
<g id="a_edge10_Node000001_Node000008"><a xlink:title=" ">
<path fill="none" stroke="#63b8ff" d="M80.23,-197.96C90.97,-195.62 102.76,-193.05 114.05,-190.59"/>
<polygon fill="#63b8ff" stroke="#63b8ff" points="122.15,-188.83 115.1,-194.05 118.24,-189.68 114.34,-190.53 114.34,-190.53 114.34,-190.53 118.24,-189.68 113.57,-187.01 122.15,-188.83 122.15,-188.83"/>
</a>
</g>
</g>
<!-- Node9 -->
<g id="Node000009" class="node">
<title>Node9</title>
<g id="a_Node000009"><a xlink:href="classShapeId.html#a564f14952b394af6b38f748417a7e48a" target="_top" xlink:title="Returns this object as an absolute Smithy Shape ID if this object has a namespace,...">
<polygon fill="white" stroke="#666666" points="216,-94 116,-94 116,-75 216,-75 216,-94"/>
<text text-anchor="middle" x="166" y="-82" font-family="Helvetica,sans-Serif" font-size="10.00">ShapeId::toString</text>
</a>
</g>
</g>
<!-- Node1&#45;&gt;Node9 -->
<g id="edge13_Node000001_Node000009" class="edge">
<title>Node1&#45;&gt;Node9</title>
<g id="a_edge13_Node000001_Node000009"><a xlink:title=" ">
<path fill="none" stroke="#63b8ff" d="M49.51,-196.99C63.15,-181.88 90.92,-151.62 116,-127.5 126.08,-117.81 137.83,-107.46 147.31,-99.35"/>
<polygon fill="#63b8ff" stroke="#63b8ff" points="153.45,-94.12 149.69,-102.05 150.4,-96.71 147.36,-99.3 147.36,-99.3 147.36,-99.3 150.4,-96.71 145.02,-96.56 153.45,-94.12 153.45,-94.12"/>
</a>
</g>
</g>
<!-- Node3 -->
<g id="Node000003" class="node">
<title>Node3</title>
<g id="a_Node000003"><a xlink:href="classShapeId.html#a0d88184bccd8dc5b22b67800aeccf092" target="_top" xlink:title="Returns the Shape ID&#39;s namespace, if it has one, otherwise a null string.">
<polygon fill="white" stroke="#666666" points="739,-113 620,-113 620,-94 739,-94 739,-113"/>
<text text-anchor="middle" x="679.5" y="-101" font-family="Helvetica,sans-Serif" font-size="10.00">ShapeId::nameSpace</text>
</a>
</g>
</g>
<!-- Node2&#45;&gt;Node3 -->
<g id="edge2_Node000002_Node000003" class="edge">
<title>Node2&#45;&gt;Node3</title>
<g id="a_edge2_Node000002_Node000003"><a xlink:title=" ">
<path fill="none" stroke="#63b8ff" d="M568.61,-103.5C582.7,-103.5 597.54,-103.5 611.6,-103.5"/>
<polygon fill="#63b8ff" stroke="#63b8ff" points="619.78,-103.5 611.78,-107.1 615.78,-103.5 611.78,-103.5 611.78,-103.5 611.78,-103.5 615.78,-103.5 611.78,-99.9 619.78,-103.5 619.78,-103.5"/>
</a>
</g>
</g>
<!-- Node4 -->
<g id="Node000004" class="node">
<title>Node4</title>
<g id="a_Node000004"><a xlink:href="classShapeId.html#a5c5ff0cc534bd3277f30a06dbf2587dd" target="_top" xlink:title="Constructs an empty ShapeId object.">
<polygon fill="white" stroke="#666666" points="1059,-94 958,-94 958,-75 1059,-75 1059,-94"/>
<text text-anchor="middle" x="1008.5" y="-82" font-family="Helvetica,sans-Serif" font-size="10.00">ShapeId::ShapeId</text>
</a>
</g>
</g>
<!-- Node3&#45;&gt;Node4 -->
<g id="edge3_Node000003_Node000004" class="edge">
<title>Node3&#45;&gt;Node4</title>
<g id="a_edge3_Node000003_Node000004"><a xlink:title=" ">
<path fill="none" stroke="#63b8ff" d="M739.34,-100.08C798.96,-96.62 890.62,-91.29 949.82,-87.85"/>
<polygon fill="#63b8ff" stroke="#63b8ff" points="957.95,-87.38 950.17,-91.44 953.96,-87.61 949.96,-87.84 949.96,-87.84 949.96,-87.84 953.96,-87.61 949.76,-84.25 957.95,-87.38 957.95,-87.38"/>
</a>
</g>
</g>
<!-- Node5&#45;&gt;Node4 -->
<g id="edge5_Node000005_Node000004" class="edge">
<title>Node5&#45;&gt;Node4</title>
<g id="a_edge5_Node000005_Node000004"><a xlink:title=" ">
<path fill="none" stroke="#63b8ff" d="M867.34,-215.81C893.01,-191.76 959.8,-129.19 990.99,-99.96"/>
<polygon fill="#63b8ff" stroke="#63b8ff" points="997.08,-94.26 993.71,-102.36 994.16,-96.99 991.24,-99.73 991.24,-99.73 991.24,-99.73 994.16,-96.99 988.78,-97.1 997.08,-94.26 997.08,-94.26"/>
</a>
</g>
</g>
<!-- Node6&#45;&gt;Node6 -->
<g id="edge7_Node000006_Node000006" class="edge">
<title>Node6&#45;&gt;Node6</title>
<g id="a_edge7_Node000006_Node000006"><a xlink:title=" ">
<path fill="none" stroke="#63b8ff" d="M299.46,-244.08C287.76,-252.73 295.77,-262 323.5,-262 344.29,-262 354,-256.79 352.62,-250.53"/>
<polygon fill="#63b8ff" stroke="#63b8ff" points="347.54,-244.08 355.32,-248.14 350.02,-247.23 352.49,-250.37 352.49,-250.37 352.49,-250.37 350.02,-247.23 349.66,-252.6 347.54,-244.08 347.54,-244.08"/>
</a>
</g>
</g>
<!-- Node7&#45;&gt;Node6 -->
<g id="edge9_Node000007_Node000006" class="edge">
<title>Node7&#45;&gt;Node6</title>
<g id="a_edge9_Node000007_Node000006"><a xlink:title=" ">
<path fill="none" stroke="#63b8ff" d="M207.05,-234.5C227.39,-234.5 252.29,-234.5 273.74,-234.5"/>
<polygon fill="#63b8ff" stroke="#63b8ff" points="281.78,-234.5 273.78,-238.1 277.78,-234.5 273.78,-234.5 273.78,-234.5 273.78,-234.5 277.78,-234.5 273.78,-230.9 281.78,-234.5 281.78,-234.5"/>
</a>
</g>
</g>
<!-- Node8&#45;&gt;Node6 -->
<g id="edge11_Node000008_Node000006" class="edge">
<title>Node8&#45;&gt;Node6</title>
<g id="a_edge11_Node000008_Node000006"><a xlink:title=" ">
<path fill="none" stroke="#63b8ff" d="M194.09,-189.08C220.09,-198.28 259.5,-212.22 287.8,-222.23"/>
<polygon fill="#63b8ff" stroke="#63b8ff" points="295.46,-224.94 286.72,-225.66 291.69,-223.6 287.92,-222.27 287.92,-222.27 287.92,-222.27 291.69,-223.6 289.12,-218.88 295.46,-224.94 295.46,-224.94"/>
</a>
</g>
</g>
<!-- Node8&#45;&gt;Node8 -->
<g id="edge12_Node000008_Node000008" class="edge">
<title>Node8&#45;&gt;Node8</title>
<g id="a_edge12_Node000008_Node000008"><a xlink:title=" ">
<path fill="none" stroke="#63b8ff" d="M146.58,-189.08C137.13,-197.73 143.61,-207 166,-207 182.45,-207 190.31,-202 189.58,-195.92"/>
<polygon fill="#63b8ff" stroke="#63b8ff" points="185.42,-189.08 192.65,-194.05 187.5,-192.5 189.58,-195.92 189.58,-195.92 189.58,-195.92 187.5,-192.5 186.5,-197.79 185.42,-189.08 185.42,-189.08"/>
</a>
</g>
</g>
<!-- Node9&#45;&gt;Node2 -->
<g id="edge24_Node000009_Node000002" class="edge">
<title>Node9&#45;&gt;Node2</title>
<g id="a_edge24_Node000009_Node000002"><a xlink:title=" ">
<path fill="none" stroke="#63b8ff" d="M216.35,-87.32C271,-90.45 359.76,-95.53 423.24,-99.16"/>
<polygon fill="#63b8ff" stroke="#63b8ff" points="431.24,-99.62 423.05,-102.76 427.25,-99.39 423.25,-99.16 423.25,-99.16 423.25,-99.16 427.25,-99.39 423.46,-95.57 431.24,-99.62 431.24,-99.62"/>
</a>
</g>
</g>
<!-- Node10 -->
<g id="Node000010" class="node">
<title>Node10</title>
<g id="a_Node000010"><a xlink:href="classShapeId.html#a42ae1231e4d242958ab12e61504e33ca" target="_top" xlink:title="Returns this object as an absolute Smithy Shape ID if this object has a namespace,...">
<polygon fill="white" stroke="#666666" points="395,-75 252,-75 252,-56 395,-56 395,-75"/>
<text text-anchor="middle" x="323.5" y="-63" font-family="Helvetica,sans-Serif" font-size="10.00">ShapeId::absoluteShapeId</text>
</a>
</g>
</g>
<!-- Node9&#45;&gt;Node10 -->
<g id="edge14_Node000009_Node000010" class="edge">
<title>Node9&#45;&gt;Node10</title>
<g id="a_edge14_Node000009_Node000010"><a xlink:title=" ">
<path fill="none" stroke="#63b8ff" d="M216.2,-78.49C224.94,-77.42 234.24,-76.28 243.56,-75.15"/>
<polygon fill="#63b8ff" stroke="#63b8ff" points="251.75,-74.15 244.24,-78.69 247.78,-74.63 243.8,-75.12 243.8,-75.12 243.8,-75.12 247.78,-74.63 243.37,-71.54 251.75,-74.15 251.75,-74.15"/>
</a>
</g>
</g>
<!-- Node11 -->
<g id="Node000011" class="node">
<title>Node11</title>
<g id="a_Node000011"><a xlink:href="classShapeId.html#aad508460b545930c3aeb82021e79de5a" target="_top" xlink:title="Returns this object as a relative Smithy Shape ID, that one without a leading namespace.">
<polygon fill="white" stroke="#666666" points="569,-37 431,-37 431,-18 569,-18 569,-37"/>
<text text-anchor="middle" x="500" y="-25" font-family="Helvetica,sans-Serif" font-size="10.00">ShapeId::relativeShapeId</text>
</a>
</g>
</g>
<!-- Node9&#45;&gt;Node11 -->
<g id="edge25_Node000009_Node000011" class="edge">
<title>Node9&#45;&gt;Node11</title>
<g id="a_edge25_Node000009_Node000011"><a xlink:title=" ">
<path fill="none" stroke="#63b8ff" d="M183.63,-74.99C200.33,-65.95 227.09,-52.82 252,-46.5 308.07,-32.27 373.41,-27.74 422.8,-26.66"/>
<polygon fill="#63b8ff" stroke="#63b8ff" points="430.9,-26.51 422.96,-30.26 426.9,-26.58 422.9,-26.66 422.9,-26.66 422.9,-26.66 426.9,-26.58 422.83,-23.06 430.9,-26.51 430.9,-26.51"/>
</a>
</g>
</g>
<!-- Node10&#45;&gt;Node2 -->
<g id="edge15_Node000010_Node000002" class="edge">
<title>Node10&#45;&gt;Node2</title>
<g id="a_edge15_Node000010_Node000002"><a xlink:title=" ">
<path fill="none" stroke="#63b8ff" d="M368.53,-75.09C392.49,-80.31 422.27,-86.79 447.33,-92.25"/>
<polygon fill="#63b8ff" stroke="#63b8ff" points="455.28,-93.98 446.7,-95.8 451.37,-93.13 447.47,-92.28 447.47,-92.28 447.47,-92.28 451.37,-93.13 448.23,-88.76 455.28,-93.98 455.28,-93.98"/>
</a>
</g>
</g>
<!-- Node10&#45;&gt;Node3 -->
<g id="edge16_Node000010_Node000003" class="edge">
<title>Node10&#45;&gt;Node3</title>
<g id="a_edge16_Node000010_Node000003"><a xlink:title=" ">
<path fill="none" stroke="#63b8ff" d="M395.03,-69.22C443.97,-72.23 510.6,-77.18 569,-84.5 586.11,-86.64 604.62,-89.61 621.47,-92.56"/>
<polygon fill="#63b8ff" stroke="#63b8ff" points="629.59,-94 621.08,-96.14 625.65,-93.3 621.71,-92.6 621.71,-92.6 621.71,-92.6 625.65,-93.3 622.34,-89.06 629.59,-94 629.59,-94"/>
</a>
</g>
</g>
<!-- Node10&#45;&gt;Node11 -->
<g id="edge17_Node000010_Node000011" class="edge">
<title>Node10&#45;&gt;Node11</title>
<g id="a_edge17_Node000010_Node000011"><a xlink:title=" ">
<path fill="none" stroke="#63b8ff" d="M368.53,-55.91C392.49,-50.69 422.27,-44.21 447.33,-38.75"/>
<polygon fill="#63b8ff" stroke="#63b8ff" points="455.28,-37.02 448.23,-42.24 451.37,-37.87 447.47,-38.72 447.47,-38.72 447.47,-38.72 451.37,-37.87 446.7,-35.2 455.28,-37.02 455.28,-37.02"/>
</a>
</g>
</g>
<!-- Node12 -->
<g id="Node000012" class="node">
<title>Node12</title>
<g id="a_Node000012"><a xlink:href="classShapeId.html#a6f1fc0aab99d0108fc3f1eeb5a4d2687" target="_top" xlink:title="Returns true if this Shape ID has a non&#45;empty member name, otherwise false otherwise.">
<polygon fill="white" stroke="#666666" points="754,-76 605,-76 605,-57 754,-57 754,-76"/>
<text text-anchor="middle" x="679.5" y="-64" font-family="Helvetica,sans-Serif" font-size="10.00">ShapeId::hasMemberName</text>
</a>
</g>
</g>
<!-- Node11&#45;&gt;Node12 -->
<g id="edge18_Node000011_Node000012" class="edge">
<title>Node11&#45;&gt;Node12</title>
<g id="a_edge18_Node000011_Node000012"><a xlink:title=" ">
<path fill="none" stroke="#63b8ff" d="M544.42,-37.04C569.44,-42.54 601.03,-49.48 627.26,-55.24"/>
<polygon fill="#63b8ff" stroke="#63b8ff" points="635.22,-56.99 626.63,-58.79 631.31,-56.13 627.41,-55.27 627.41,-55.27 627.41,-55.27 631.31,-56.13 628.18,-51.76 635.22,-56.99 635.22,-56.99"/>
</a>
</g>
</g>
<!-- Node13 -->
<g id="Node000013" class="node">
<title>Node13</title>
<g id="a_Node000013"><a xlink:href="classShapeId.html#a9b1580e3aa193c99d000aa084def3a70" target="_top" xlink:title="Returns the Shape ID&#39;s member name, if it has one, otherwise a null string.">
<polygon fill="white" stroke="#666666" points="922,-75 790,-75 790,-56 922,-56 922,-75"/>
<text text-anchor="middle" x="856" y="-63" font-family="Helvetica,sans-Serif" font-size="10.00">ShapeId::memberName</text>
</a>
</g>
</g>
<!-- Node11&#45;&gt;Node13 -->
<g id="edge21_Node000011_Node000013" class="edge">
<title>Node11&#45;&gt;Node13</title>
<g id="a_edge21_Node000011_Node000013"><a xlink:title=" ">
<path fill="none" stroke="#63b8ff" d="M569.1,-31.08C620.14,-34.2 691.61,-39.49 754,-47.5 768.68,-49.38 784.48,-51.94 799.11,-54.54"/>
<polygon fill="#63b8ff" stroke="#63b8ff" points="807.11,-55.98 798.6,-58.1 803.17,-55.27 799.24,-54.56 799.24,-54.56 799.24,-54.56 803.17,-55.27 799.88,-51.02 807.11,-55.98 807.11,-55.98"/>
</a>
</g>
</g>
<!-- Node14 -->
<g id="Node000014" class="node">
<title>Node14</title>
<g id="a_Node000014"><a xlink:href="classShapeId.html#a8aad9a1383c03aee2f33b1568e89f688" target="_top" xlink:title="Returns the Shape ID&#39;s shape name, if it has one, otherwise a null string.">
<polygon fill="white" stroke="#666666" points="916,-19 796,-19 796,0 916,0 916,-19"/>
<text text-anchor="middle" x="856" y="-7" font-family="Helvetica,sans-Serif" font-size="10.00">ShapeId::shapeName</text>
</a>
</g>
</g>
<!-- Node11&#45;&gt;Node14 -->
<g id="edge22_Node000011_Node000014" class="edge">
<title>Node11&#45;&gt;Node14</title>
<g id="a_edge22_Node000011_Node000014"><a xlink:title=" ">
<path fill="none" stroke="#63b8ff" d="M568.87,-17.98C580.88,-16.59 593.29,-15.35 605,-14.5 666.73,-10.04 737.24,-8.99 787.6,-8.95"/>
<polygon fill="#63b8ff" stroke="#63b8ff" points="795.82,-8.95 787.82,-12.55 791.82,-8.95 787.82,-8.95 787.82,-8.95 787.82,-8.95 791.82,-8.95 787.82,-5.35 795.82,-8.95 795.82,-8.95"/>
</a>
</g>
</g>
<!-- Node12&#45;&gt;Node13 -->
<g id="edge19_Node000012_Node000013" class="edge">
<title>Node12&#45;&gt;Node13</title>
<g id="a_edge19_Node000012_Node000013"><a xlink:title=" ">
<path fill="none" stroke="#63b8ff" d="M754.25,-66.08C763.3,-66.03 772.54,-65.97 781.58,-65.92"/>
<polygon fill="#63b8ff" stroke="#63b8ff" points="789.81,-65.87 781.83,-69.52 785.81,-65.9 781.81,-65.92 781.81,-65.92 781.81,-65.92 785.81,-65.9 781.79,-62.32 789.81,-65.87 789.81,-65.87"/>
</a>
</g>
</g>
<!-- Node13&#45;&gt;Node4 -->
<g id="edge20_Node000013_Node000004" class="edge">
<title>Node13&#45;&gt;Node4</title>
<g id="a_edge20_Node000013_Node000004"><a xlink:title=" ">
<path fill="none" stroke="#63b8ff" d="M922.14,-73.72C931.26,-74.87 940.59,-76.05 949.56,-77.19"/>
<polygon fill="#63b8ff" stroke="#63b8ff" points="957.69,-78.21 949.31,-80.78 953.73,-77.71 949.76,-77.21 949.76,-77.21 949.76,-77.21 953.73,-77.71 950.21,-73.64 957.69,-78.21 957.69,-78.21"/>
</a>
</g>
</g>
<!-- Node14&#45;&gt;Node4 -->
<g id="edge23_Node000014_Node000004" class="edge">
<title>Node14&#45;&gt;Node4</title>
<g id="a_edge23_Node000014_Node000004"><a xlink:title=" ">
<path fill="none" stroke="#63b8ff" d="M876.37,-19.15C903.01,-32.43 951.06,-56.37 981.01,-71.3"/>
<polygon fill="#63b8ff" stroke="#63b8ff" points="988.21,-74.89 979.44,-74.54 984.63,-73.1 981.05,-71.32 981.05,-71.32 981.05,-71.32 984.63,-73.1 982.65,-68.1 988.21,-74.89 988.21,-74.89"/>
</a>
</g>
</g>
</g>
</svg>
