<?xml version="1.0" encoding="UTF-8" standalone="no"?>
<!DOCTYPE svg PUBLIC "-//W3C//DTD SVG 1.1//EN"
 "http://www.w3.org/Graphics/SVG/1.1/DTD/svg11.dtd">
<!-- Generated by graphviz version 2.43.0 (0)
 -->
<!-- Title: ShapeId::ShapeId Pages: 1 -->
<svg width="1112pt" height="535pt"
 viewBox="0.00 0.00 1112.00 534.56" xmlns="http://www.w3.org/2000/svg" xmlns:xlink="http://www.w3.org/1999/xlink">
<g id="graph0" class="graph" transform="scale(1 1) rotate(0) translate(4 530.56)">
<title>ShapeId::ShapeId</title>
<!-- Node1 -->
<g id="Node000001" class="node">
<title>Node1</title>
<g id="a_Node000001"><a xlink:title="Constructs an empty ShapeId object.">
<polygon fill="#999999" stroke="#666666" points="1104,-237.06 1003,-237.06 1003,-218.06 1104,-218.06 1104,-237.06"/>
<text text-anchor="middle" x="1053.5" y="-225.06" font-family="Helvetica,sans-Serif" font-size="10.00">ShapeId::ShapeId</text>
</a>
</g>
</g>
<!-- Node2 -->
<g id="Node000002" class="node">
<title>Node2</title>
<g id="a_Node000002"><a xlink:href="classShapeId.html#a380944df9a71c1108ed5bdb459673a49" target="_top" xlink:title="Returns true if this object represents a valid, non&#45;empty Smithy Shape ID.">
<polygon fill="white" stroke="#666666" points="213,-517.06 119,-517.06 119,-498.06 213,-498.06 213,-517.06"/>
<text text-anchor="middle" x="166" y="-505.06" font-family="Helvetica,sans-Serif" font-size="10.00">ShapeId::isValid</text>
</a>
</g>
</g>
<!-- Node1&#45;&gt;Node2 -->
<g id="edge1_Node000001_Node000002" class="edge">
<title>Node1&#45;&gt;Node2</title>
<g id="a_edge1_Node000001_Node000002"><a xlink:title=" ">
<path fill="none" stroke="#63b8ff" d="M1049.49,-245.33C1042.17,-283.31 1020,-373.11 967,-424.56 879.27,-509.73 833.77,-526.56 711.5,-526.56 711.5,-526.56 711.5,-526.56 530,-526.56 415.93,-526.56 281.98,-517.09 213.09,-511.52"/>
<polygon fill="#63b8ff" stroke="#63b8ff" points="1050.97,-237.24 1053.07,-245.76 1050.25,-241.18 1049.53,-245.11 1049.53,-245.11 1049.53,-245.11 1050.25,-241.18 1045.99,-244.46 1050.97,-237.24 1050.97,-237.24"/>
</a>
</g>
</g>
<!-- Node4 -->
<g id="Node000004" class="node">
<title>Node4</title>
<g id="a_Node000004"><a xlink:href="classShapeId.html#a9b1580e3aa193c99d000aa084def3a70" target="_top" xlink:title="Returns the Shape ID&#39;s member name, if it has one, otherwise a null string.">
<polygon fill="white" stroke="#666666" points="960,-385.06 828,-385.06 828,-366.06 960,-366.06 960,-385.06"/>
<text text-anchor="middle" x="894" y="-373.06" font-family="Helvetica,sans-Serif" font-size="10.00">ShapeId::memberName</text>
</a>
</g>
</g>
<!-- Node1&#45;&gt;Node4 -->
<g id="edge3_Node000001_Node000004" class="edge">
<title>Node1&#45;&gt;Node4</title>
<g id="a_edge3_Node000001_Node000004"><a xlink:title=" ">
<path fill="none" stroke="#63b8ff" d="M1046.12,-244.62C1034.71,-272.69 1008.11,-328.4 967,-357.56 962.17,-360.99 956.74,-363.77 951.1,-366.02"/>
<polygon fill="#63b8ff" stroke="#63b8ff" points="1049.05,-237.17 1049.47,-245.93 1047.58,-240.89 1046.12,-244.61 1046.12,-244.61 1046.12,-244.61 1047.58,-240.89 1042.77,-243.3 1049.05,-237.17 1049.05,-237.17"/>
</a>
</g>
</g>
<!-- Node11 -->
<g id="Node000011" class="node">
<title>Node11</title>
<g id="a_Node000011"><a xlink:href="classShapeId.html#a0d88184bccd8dc5b22b67800aeccf092" target="_top" xlink:title="Returns the Shape ID&#39;s namespace, if it has one, otherwise a null string.">
<polygon fill="white" stroke="#666666" points="770,-423.06 651,-423.06 651,-404.06 770,-404.06 770,-423.06"/>
<text text-anchor="middle" x="710.5" y="-411.06" font-family="Helvetica,sans-Serif" font-size="10.00">ShapeId::nameSpace</text>
</a>
</g>
</g>
<!-- Node1&#45;&gt;Node11 -->
<g id="edge13_Node000001_Node000011" class="edge">
<title>Node1&#45;&gt;Node11</title>
<g id="a_edge13_Node000001_Node000011"><a xlink:title=" ">
<path fill="none" stroke="#63b8ff" d="M1049.31,-245.27C1041.93,-280.58 1020.04,-359.36 967,-394.56 904.92,-435.76 814.7,-431.18 759.74,-423.09"/>
<polygon fill="#63b8ff" stroke="#63b8ff" points="1050.89,-237.28 1052.87,-245.83 1050.12,-241.21 1049.34,-245.13 1049.34,-245.13 1049.34,-245.13 1050.12,-241.21 1045.81,-244.43 1050.89,-237.28 1050.89,-237.28"/>
</a>
</g>
</g>
<!-- Node14 -->
<g id="Node000014" class="node">
<title>Node14</title>
<g id="a_Node000014"><a xlink:href="classShapeId.html#ad9111c56db13d40785acdb7fb9112ddf" target="_top" xlink:title="Assigns the specified shapeId to this object.">
<polygon fill="white" stroke="#666666" points="949.5,-348.06 838.5,-348.06 838.5,-329.06 949.5,-329.06 949.5,-348.06"/>
<text text-anchor="middle" x="894" y="-336.06" font-family="Helvetica,sans-Serif" font-size="10.00">ShapeId::operator=</text>
</a>
</g>
</g>
<!-- Node1&#45;&gt;Node14 -->
<g id="edge21_Node000001_Node000014" class="edge">
<title>Node1&#45;&gt;Node14</title>
<g id="a_edge21_Node000001_Node000014"><a xlink:title=" ">
<path fill="none" stroke="#63b8ff" d="M1042.01,-243.92C1027.65,-264.93 999.89,-301.02 967,-320.56 961.24,-323.98 954.85,-326.76 948.32,-329.01"/>
<polygon fill="#63b8ff" stroke="#63b8ff" points="1046.51,-237.16 1045.07,-245.82 1044.29,-240.49 1042.07,-243.82 1042.07,-243.82 1042.07,-243.82 1044.29,-240.49 1039.08,-241.82 1046.51,-237.16 1046.51,-237.16"/>
</a>
</g>
</g>
<!-- Node15 -->
<g id="Node000015" class="node">
<title>Node15</title>
<g id="a_Node000015"><a xlink:href="classShapeId.html#aa29337e49a5c9e562f98a084cdbbc778" target="_top" xlink:title="Moves the specified shapeId to this object.">
<polygon fill="white" stroke="#666666" points="949.5,-311.06 838.5,-311.06 838.5,-292.06 949.5,-292.06 949.5,-311.06"/>
<text text-anchor="middle" x="894" y="-299.06" font-family="Helvetica,sans-Serif" font-size="10.00">ShapeId::operator=</text>
</a>
</g>
</g>
<!-- Node1&#45;&gt;Node15 -->
<g id="edge22_Node000001_Node000015" class="edge">
<title>Node1&#45;&gt;Node15</title>
<g id="a_edge22_Node000001_Node000015"><a xlink:title=" ">
<path fill="none" stroke="#63b8ff" d="M1034.23,-242.15C1017.6,-254.77 991.89,-272.67 967,-283.56 959.33,-286.92 950.91,-289.73 942.62,-292.06"/>
<polygon fill="#63b8ff" stroke="#63b8ff" points="1040.78,-237.09 1036.65,-244.83 1037.62,-239.54 1034.45,-241.98 1034.45,-241.98 1034.45,-241.98 1037.62,-239.54 1032.25,-239.13 1040.78,-237.09 1040.78,-237.09"/>
</a>
</g>
</g>
<!-- Node16 -->
<g id="Node000016" class="node">
<title>Node16</title>
<g id="a_Node000016"><a xlink:href="classShapeId.html#a6a2ff71df1eecb9717df15134d37e2c6" target="_top" xlink:title="Assigns the specified shapeId to this object.">
<polygon fill="white" stroke="#666666" points="949.5,-274.06 838.5,-274.06 838.5,-255.06 949.5,-255.06 949.5,-274.06"/>
<text text-anchor="middle" x="894" y="-262.06" font-family="Helvetica,sans-Serif" font-size="10.00">ShapeId::operator=</text>
</a>
</g>
</g>
<!-- Node1&#45;&gt;Node16 -->
<g id="edge23_Node000001_Node000016" class="edge">
<title>Node1&#45;&gt;Node16</title>
<g id="a_edge23_Node000001_Node000016"><a xlink:title=" ">
<path fill="none" stroke="#63b8ff" d="M1004.06,-238.94C982.16,-244.09 956.58,-250.1 935.7,-255"/>
<polygon fill="#63b8ff" stroke="#63b8ff" points="1011.94,-237.09 1004.98,-242.42 1008.05,-238.01 1004.15,-238.92 1004.15,-238.92 1004.15,-238.92 1008.05,-238.01 1003.33,-235.42 1011.94,-237.09 1011.94,-237.09"/>
</a>
</g>
</g>
<!-- Node17 -->
<g id="Node000017" class="node">
<title>Node17</title>
<g id="a_Node000017"><a xlink:href="classShapeId.html#a415ac3b10158b18ab96aef18f8e8f75f" target="_top" xlink:title="Set the Shape ID&#39;s member name to name, which may be an empty or null string.">
<polygon fill="white" stroke="#666666" points="967,-237.06 821,-237.06 821,-218.06 967,-218.06 967,-237.06"/>
<text text-anchor="middle" x="894" y="-225.06" font-family="Helvetica,sans-Serif" font-size="10.00">ShapeId::setMemberName</text>
</a>
</g>
</g>
<!-- Node1&#45;&gt;Node17 -->
<g id="edge24_Node000001_Node000017" class="edge">
<title>Node1&#45;&gt;Node17</title>
<g id="a_edge24_Node000001_Node000017"><a xlink:title=" ">
<path fill="none" stroke="#63b8ff" d="M994.61,-227.56C985.7,-227.56 976.41,-227.56 967.24,-227.56"/>
<polygon fill="#63b8ff" stroke="#63b8ff" points="1002.67,-227.56 994.67,-231.16 998.67,-227.56 994.67,-227.56 994.67,-227.56 994.67,-227.56 998.67,-227.56 994.67,-223.96 1002.67,-227.56 1002.67,-227.56"/>
</a>
</g>
</g>
<!-- Node18 -->
<g id="Node000018" class="node">
<title>Node18</title>
<g id="a_Node000018"><a xlink:href="classShapeId.html#a99365b20a782913c8e5eed108fe0b72f" target="_top" xlink:title="Set the Shape ID&#39;s namespace to name, which may be an empty or null string.">
<polygon fill="white" stroke="#666666" points="961.5,-200.06 826.5,-200.06 826.5,-181.06 961.5,-181.06 961.5,-200.06"/>
<text text-anchor="middle" x="894" y="-188.06" font-family="Helvetica,sans-Serif" font-size="10.00">ShapeId::setNameSpace</text>
</a>
</g>
</g>
<!-- Node1&#45;&gt;Node18 -->
<g id="edge25_Node000001_Node000018" class="edge">
<title>Node1&#45;&gt;Node18</title>
<g id="a_edge25_Node000001_Node000018"><a xlink:title=" ">
<path fill="none" stroke="#63b8ff" d="M1004.06,-216.18C982.16,-211.04 956.58,-205.03 935.7,-200.12"/>
<polygon fill="#63b8ff" stroke="#63b8ff" points="1011.94,-218.03 1003.33,-219.71 1008.05,-217.12 1004.15,-216.2 1004.15,-216.2 1004.15,-216.2 1008.05,-217.12 1004.98,-212.7 1011.94,-218.03 1011.94,-218.03"/>
</a>
</g>
</g>
<!-- Node19 -->
<g id="Node000019" class="node">
<title>Node19</title>
<g id="a_Node000019"><a xlink:href="classShapeId.html#adbd7ffc43873ec3760d8b3d1f0c02af6" target="_top" xlink:title="Set the Shape ID&#39;s shape name to name.">
<polygon fill="white" stroke="#666666" points="962,-163.06 826,-163.06 826,-144.06 962,-144.06 962,-163.06"/>
<text text-anchor="middle" x="894" y="-151.06" font-family="Helvetica,sans-Serif" font-size="10.00">ShapeId::setShapeName</text>
</a>
</g>
</g>
<!-- Node1&#45;&gt;Node19 -->
<g id="edge26_Node000001_Node000019" class="edge">
<title>Node1&#45;&gt;Node19</title>
<g id="a_edge26_Node000001_Node000019"><a xlink:title=" ">
<path fill="none" stroke="#63b8ff" d="M1033.87,-213.12C1017.17,-200.79 991.59,-183.39 967,-172.56 958.48,-168.81 949.06,-165.67 939.92,-163.08"/>
<polygon fill="#63b8ff" stroke="#63b8ff" points="1040.45,-218.06 1031.89,-216.14 1037.25,-215.66 1034.05,-213.26 1034.05,-213.26 1034.05,-213.26 1037.25,-215.66 1036.21,-210.38 1040.45,-218.06 1040.45,-218.06"/>
</a>
</g>
</g>
<!-- Node20 -->
<g id="Node000020" class="node">
<title>Node20</title>
<g id="a_Node000020"><a xlink:href="classShapeId.html#a56f48bf301f1fa4e1e531e7c0727afbb" target="_top" xlink:title="Constructs a ShapeId object by parsing the Smithy Shape ID given by shapeId.">
<polygon fill="white" stroke="#666666" points="944.5,-126.06 843.5,-126.06 843.5,-107.06 944.5,-107.06 944.5,-126.06"/>
<text text-anchor="middle" x="894" y="-114.06" font-family="Helvetica,sans-Serif" font-size="10.00">ShapeId::ShapeId</text>
</a>
</g>
</g>
<!-- Node1&#45;&gt;Node20 -->
<g id="edge27_Node000001_Node000020" class="edge">
<title>Node1&#45;&gt;Node20</title>
<g id="a_edge27_Node000001_Node000020"><a xlink:title=" ">
<path fill="none" stroke="#63b8ff" d="M1041.7,-211.13C1027.2,-190.37 999.46,-155.02 967,-135.56 960.13,-131.44 952.36,-128.2 944.53,-125.66"/>
<polygon fill="#63b8ff" stroke="#63b8ff" points="1046.27,-217.81 1038.78,-213.24 1044.01,-214.51 1041.76,-211.21 1041.76,-211.21 1041.76,-211.21 1044.01,-214.51 1044.73,-209.18 1046.27,-217.81 1046.27,-217.81"/>
</a>
</g>
</g>
<!-- Node21 -->
<g id="Node000021" class="node">
<title>Node21</title>
<g id="a_Node000021"><a xlink:href="classShapeId.html#a5f5e09c87aee5ebf482a6b6c12646c87" target="_top" xlink:title="Constructs a ShapeId object by copying other.">
<polygon fill="white" stroke="#666666" points="944.5,-89.06 843.5,-89.06 843.5,-70.06 944.5,-70.06 944.5,-89.06"/>
<text text-anchor="middle" x="894" y="-77.06" font-family="Helvetica,sans-Serif" font-size="10.00">ShapeId::ShapeId</text>
</a>
</g>
</g>
<!-- Node1&#45;&gt;Node21 -->
<g id="edge28_Node000001_Node000021" class="edge">
<title>Node1&#45;&gt;Node21</title>
<g id="a_edge28_Node000001_Node000021"><a xlink:title=" ">
<path fill="none" stroke="#63b8ff" d="M1046.12,-210.5C1034.71,-182.43 1008.11,-126.72 967,-97.56 960.38,-92.87 952.66,-89.39 944.78,-86.82"/>
<polygon fill="#63b8ff" stroke="#63b8ff" points="1049.05,-217.95 1042.77,-211.83 1047.58,-214.23 1046.12,-210.51 1046.12,-210.51 1046.12,-210.51 1047.58,-214.23 1049.47,-209.19 1049.05,-217.95 1049.05,-217.95"/>
</a>
</g>
</g>
<!-- Node22 -->
<g id="Node000022" class="node">
<title>Node22</title>
<g id="a_Node000022"><a xlink:href="classShapeId.html#a95f30038d04a5a9492fe87abeced7106" target="_top" xlink:title="Constructs a ShapeId object by moving resources from other.">
<polygon fill="white" stroke="#666666" points="944.5,-52.06 843.5,-52.06 843.5,-33.06 944.5,-33.06 944.5,-52.06"/>
<text text-anchor="middle" x="894" y="-40.06" font-family="Helvetica,sans-Serif" font-size="10.00">ShapeId::ShapeId</text>
</a>
</g>
</g>
<!-- Node1&#45;&gt;Node22 -->
<g id="edge29_Node000001_Node000022" class="edge">
<title>Node1&#45;&gt;Node22</title>
<g id="a_edge29_Node000001_Node000022"><a xlink:title=" ">
<path fill="none" stroke="#63b8ff" d="M1048.55,-209.67C1039.99,-175.26 1016.4,-99.8 967,-60.56 960.54,-55.43 952.81,-51.74 944.85,-49.09"/>
<polygon fill="#63b8ff" stroke="#63b8ff" points="1050.49,-217.86 1045.14,-210.91 1049.57,-213.97 1048.65,-210.07 1048.65,-210.07 1048.65,-210.07 1049.57,-213.97 1052.15,-209.24 1050.49,-217.86 1050.49,-217.86"/>
</a>
</g>
</g>
<!-- Node23 -->
<g id="Node000023" class="node">
<title>Node23</title>
<g id="a_Node000023"><a xlink:href="classShapeId.html#a8aad9a1383c03aee2f33b1568e89f688" target="_top" xlink:title="Returns the Shape ID&#39;s shape name, if it has one, otherwise a null string.">
<polygon fill="white" stroke="#666666" points="770.5,-152.06 650.5,-152.06 650.5,-133.06 770.5,-133.06 770.5,-152.06"/>
<text text-anchor="middle" x="710.5" y="-140.06" font-family="Helvetica,sans-Serif" font-size="10.00">ShapeId::shapeName</text>
</a>
</g>
</g>
<!-- Node1&#45;&gt;Node23 -->
<g id="edge30_Node000001_Node000023" class="edge">
<title>Node1&#45;&gt;Node23</title>
<g id="a_edge30_Node000001_Node000023"><a xlink:title=" ">
<path fill="none" stroke="#63b8ff" d="M1051.32,-210C1047.51,-168.87 1031.64,-66.56 967,-23.56 912.97,12.38 880.42,2.51 821,-23.56 768.3,-46.69 729.78,-109.08 716.53,-133.03"/>
<polygon fill="#63b8ff" stroke="#63b8ff" points="1051.98,-218.01 1047.74,-210.34 1051.65,-214.03 1051.33,-210.04 1051.33,-210.04 1051.33,-210.04 1051.65,-214.03 1054.91,-209.75 1051.98,-218.01 1051.98,-218.01"/>
</a>
</g>
</g>
<!-- Node3 -->
<g id="Node000003" class="node">
<title>Node3</title>
<g id="a_Node000003"><a xlink:href="classModel.html#a5296da875545acf527ce42c707d1ead1" target="_top" xlink:title="Add the logical content of the JSON AST model file given by ast into this semantic model.">
<polygon fill="white" stroke="#666666" points="80,-460.06 0,-460.06 0,-441.06 80,-441.06 80,-460.06"/>
<text text-anchor="middle" x="40" y="-448.06" font-family="Helvetica,sans-Serif" font-size="10.00">Model::insert</text>
</a>
</g>
</g>
<!-- Node2&#45;&gt;Node3 -->
<g id="edge2_Node000002_Node000003" class="edge">
<title>Node2&#45;&gt;Node3</title>
<g id="a_edge2_Node000002_Node000003"><a xlink:title=" ">
<path fill="none" stroke="#63b8ff" d="M136.87,-494.63C114.06,-484.15 82.41,-469.6 61.82,-460.13"/>
<polygon fill="#63b8ff" stroke="#63b8ff" points="144.25,-498.02 135.47,-497.95 140.61,-496.35 136.98,-494.68 136.98,-494.68 136.98,-494.68 140.61,-496.35 138.48,-491.41 144.25,-498.02 144.25,-498.02"/>
</a>
</g>
</g>
<!-- Node5 -->
<g id="Node000005" class="node">
<title>Node5</title>
<g id="a_Node000005"><a xlink:href="classShapeId.html#a6f1fc0aab99d0108fc3f1eeb5a4d2687" target="_top" xlink:title="Returns true if this Shape ID has a non&#45;empty member name, otherwise false otherwise.">
<polygon fill="white" stroke="#666666" points="785,-366.06 636,-366.06 636,-347.06 785,-347.06 785,-366.06"/>
<text text-anchor="middle" x="710.5" y="-354.06" font-family="Helvetica,sans-Serif" font-size="10.00">ShapeId::hasMemberName</text>
</a>
</g>
</g>
<!-- Node4&#45;&gt;Node5 -->
<g id="edge4_Node000004_Node000005" class="edge">
<title>Node4&#45;&gt;Node5</title>
<g id="a_edge4_Node000004_Node000005"><a xlink:title=" ">
<path fill="none" stroke="#63b8ff" d="M819.73,-367.89C808.29,-366.69 796.45,-365.46 785,-364.26"/>
<polygon fill="#63b8ff" stroke="#63b8ff" points="827.99,-368.76 819.66,-371.5 824.01,-368.34 820.03,-367.92 820.03,-367.92 820.03,-367.92 824.01,-368.34 820.41,-364.34 827.99,-368.76 827.99,-368.76"/>
</a>
</g>
</g>
<!-- Node8 -->
<g id="Node000008" class="node">
<title>Node8</title>
<g id="a_Node000008"><a xlink:href="classShapeId.html#aad508460b545930c3aeb82021e79de5a" target="_top" xlink:title="Returns this object as a relative Smithy Shape ID, that one without a leading namespace.">
<polygon fill="white" stroke="#666666" points="600,-328.06 462,-328.06 462,-309.06 600,-309.06 600,-328.06"/>
<text text-anchor="middle" x="531" y="-316.06" font-family="Helvetica,sans-Serif" font-size="10.00">ShapeId::relativeShapeId</text>
</a>
</g>
</g>
<!-- Node4&#45;&gt;Node8 -->
<g id="edge12_Node000004_Node000008" class="edge">
<title>Node4&#45;&gt;Node8</title>
<g id="a_edge12_Node000004_Node000008"><a xlink:title=" ">
<path fill="none" stroke="#63b8ff" d="M839.55,-363.74C833.23,-361.89 826.92,-359.83 821,-357.56 804.1,-351.1 802.38,-343.6 785,-338.56 724.17,-320.92 651.88,-316.79 600.18,-316.55"/>
<polygon fill="#63b8ff" stroke="#63b8ff" points="847.55,-365.97 838.87,-367.28 843.69,-364.89 839.84,-363.82 839.84,-363.82 839.84,-363.82 843.69,-364.89 840.81,-360.35 847.55,-365.97 847.55,-365.97"/>
</a>
</g>
</g>
<!-- Node6 -->
<g id="Node000006" class="node">
<title>Node6</title>
<g id="a_Node000006"><a xlink:href="classShapeId.html#a6b207fdb20ccc922e4e2bbbfb9608bbc" target="_top" xlink:title="Returns true if this Shape ID is a root Shape ID, false otherwise.">
<polygon fill="white" stroke="#666666" points="596.5,-366.06 465.5,-366.06 465.5,-347.06 596.5,-347.06 596.5,-366.06"/>
<text text-anchor="middle" x="531" y="-354.06" font-family="Helvetica,sans-Serif" font-size="10.00">ShapeId::isRootShapeId</text>
</a>
</g>
</g>
<!-- Node5&#45;&gt;Node6 -->
<g id="edge5_Node000005_Node000006" class="edge">
<title>Node5&#45;&gt;Node6</title>
<g id="a_edge5_Node000005_Node000006"><a xlink:title=" ">
<path fill="none" stroke="#63b8ff" d="M627.52,-356.56C617.19,-356.56 606.74,-356.56 596.73,-356.56"/>
<polygon fill="#63b8ff" stroke="#63b8ff" points="635.77,-356.56 627.77,-360.16 631.77,-356.56 627.77,-356.56 627.77,-356.56 627.77,-356.56 631.77,-356.56 627.77,-352.96 635.77,-356.56 635.77,-356.56"/>
</a>
</g>
</g>
<!-- Node5&#45;&gt;Node8 -->
<g id="edge7_Node000005_Node000008" class="edge">
<title>Node5&#45;&gt;Node8</title>
<g id="a_edge7_Node000005_Node000008"><a xlink:title=" ">
<path fill="none" stroke="#63b8ff" d="M656.6,-345.24C631.07,-339.77 600.79,-333.29 576.47,-328.08"/>
<polygon fill="#63b8ff" stroke="#63b8ff" points="664.71,-346.97 656.13,-348.82 660.8,-346.14 656.89,-345.3 656.89,-345.3 656.89,-345.3 660.8,-346.14 657.64,-341.78 664.71,-346.97 664.71,-346.97"/>
</a>
</g>
</g>
<!-- Node7 -->
<g id="Node000007" class="node">
<title>Node7</title>
<g id="a_Node000007"><a xlink:href="classShapeId.html#ae7a29dab73bbbfbd0e02bdbdccc748ad" target="_top" xlink:title="Returns true if this Shape ID is a root Shape ID, and has a namespace, false otherwise.">
<polygon fill="white" stroke="#666666" points="426,-384.06 252,-384.06 252,-365.06 426,-365.06 426,-384.06"/>
<text text-anchor="middle" x="339" y="-372.06" font-family="Helvetica,sans-Serif" font-size="10.00">ShapeId::isAbsoluteRootShapeId</text>
</a>
</g>
</g>
<!-- Node6&#45;&gt;Node7 -->
<g id="edge6_Node000006_Node000007" class="edge">
<title>Node6&#45;&gt;Node7</title>
<g id="a_edge6_Node000006_Node000007"><a xlink:title=" ">
<path fill="none" stroke="#63b8ff" d="M457.35,-363.44C447.19,-364.41 436.66,-365.4 426.28,-366.39"/>
<polygon fill="#63b8ff" stroke="#63b8ff" points="465.41,-362.68 457.78,-367.02 461.43,-363.06 457.45,-363.44 457.45,-363.44 457.45,-363.44 461.43,-363.06 457.11,-359.85 465.41,-362.68 465.41,-362.68"/>
</a>
</g>
</g>
<!-- Node9 -->
<g id="Node000009" class="node">
<title>Node9</title>
<g id="a_Node000009"><a xlink:href="classShapeId.html#a42ae1231e4d242958ab12e61504e33ca" target="_top" xlink:title="Returns this object as an absolute Smithy Shape ID if this object has a namespace,...">
<polygon fill="white" stroke="#666666" points="410.5,-347.06 267.5,-347.06 267.5,-328.06 410.5,-328.06 410.5,-347.06"/>
<text text-anchor="middle" x="339" y="-335.06" font-family="Helvetica,sans-Serif" font-size="10.00">ShapeId::absoluteShapeId</text>
</a>
</g>
</g>
<!-- Node8&#45;&gt;Node9 -->
<g id="edge8_Node000008_Node000009" class="edge">
<title>Node8&#45;&gt;Node9</title>
<g id="a_edge8_Node000008_Node000009"><a xlink:title=" ">
<path fill="none" stroke="#63b8ff" d="M453.68,-326.19C439.52,-327.61 424.78,-329.08 410.79,-330.48"/>
<polygon fill="#63b8ff" stroke="#63b8ff" points="461.94,-325.37 454.34,-329.75 457.96,-325.77 453.98,-326.16 453.98,-326.16 453.98,-326.16 457.96,-325.77 453.62,-322.58 461.94,-325.37 461.94,-325.37"/>
</a>
</g>
</g>
<!-- Node10 -->
<g id="Node000010" class="node">
<title>Node10</title>
<g id="a_Node000010"><a xlink:href="classShapeId.html#a564f14952b394af6b38f748417a7e48a" target="_top" xlink:title="Returns this object as an absolute Smithy Shape ID if this object has a namespace,...">
<polygon fill="white" stroke="#666666" points="216,-385.06 116,-385.06 116,-366.06 216,-366.06 216,-385.06"/>
<text text-anchor="middle" x="166" y="-373.06" font-family="Helvetica,sans-Serif" font-size="10.00">ShapeId::toString</text>
</a>
</g>
</g>
<!-- Node8&#45;&gt;Node10 -->
<g id="edge11_Node000008_Node000010" class="edge">
<title>Node8&#45;&gt;Node10</title>
<g id="a_edge11_Node000008_Node000010"><a xlink:title=" ">
<path fill="none" stroke="#63b8ff" d="M461.45,-308.1C404.18,-301.87 321.03,-298.73 252,-319.56 221.72,-328.7 192.23,-352.44 177.22,-365.89"/>
<polygon fill="#63b8ff" stroke="#63b8ff" points="469.7,-309.04 461.35,-311.71 465.73,-308.59 461.75,-308.14 461.75,-308.14 461.75,-308.14 465.73,-308.59 462.16,-304.56 469.7,-309.04 469.7,-309.04"/>
</a>
</g>
</g>
<!-- Node9&#45;&gt;Node10 -->
<g id="edge9_Node000009_Node000010" class="edge">
<title>Node9&#45;&gt;Node10</title>
<g id="a_edge9_Node000009_Node000010"><a xlink:title=" ">
<path fill="none" stroke="#63b8ff" d="M286.86,-348.84C275.39,-351.37 263.28,-354.06 252,-356.56 238.27,-359.61 223.3,-362.95 209.8,-365.97"/>
<polygon fill="#63b8ff" stroke="#63b8ff" points="294.69,-347.11 287.65,-352.35 290.78,-347.97 286.87,-348.84 286.87,-348.84 286.87,-348.84 290.78,-347.97 286.1,-345.32 294.69,-347.11 294.69,-347.11"/>
</a>
</g>
</g>
<!-- Node10&#45;&gt;Node3 -->
<g id="edge10_Node000010_Node000003" class="edge">
<title>Node10&#45;&gt;Node3</title>
<g id="a_edge10_Node000010_Node000003"><a xlink:title=" ">
<path fill="none" stroke="#63b8ff" d="M142.15,-389.38C117.39,-404.36 78.53,-427.86 56.9,-440.95"/>
<polygon fill="#63b8ff" stroke="#63b8ff" points="149.04,-385.21 144.06,-392.43 145.62,-387.28 142.2,-389.35 142.2,-389.35 142.2,-389.35 145.62,-387.28 140.33,-386.27 149.04,-385.21 149.04,-385.21"/>
</a>
</g>
</g>
<!-- Node11&#45;&gt;Node9 -->
<g id="edge14_Node000011_Node000009" class="edge">
<title>Node11&#45;&gt;Node9</title>
<g id="a_edge14_Node000011_Node000009"><a xlink:title=" ">
<path fill="none" stroke="#63b8ff" d="M642.7,-409.35C592.07,-404.73 521.34,-395.16 462,-375.56 444.82,-369.89 442.99,-362.79 426,-356.56 415.81,-352.82 404.65,-349.7 393.86,-347.13"/>
<polygon fill="#63b8ff" stroke="#63b8ff" points="650.96,-410.08 642.68,-412.97 646.98,-409.73 642.99,-409.38 642.99,-409.38 642.99,-409.38 646.98,-409.73 643.31,-405.79 650.96,-410.08 650.96,-410.08"/>
</a>
</g>
</g>
<!-- Node12 -->
<g id="Node000012" class="node">
<title>Node12</title>
<g id="a_Node000012"><a xlink:href="classShapeId.html#ad0bbf397b25b50a3fc9c145cea67ce11" target="_top" xlink:title="Returns true if this Shape ID has a non&#45;empty namespace, otherwise false otherwise.">
<polygon fill="white" stroke="#666666" points="599.5,-442.06 462.5,-442.06 462.5,-423.06 599.5,-423.06 599.5,-442.06"/>
<text text-anchor="middle" x="531" y="-430.06" font-family="Helvetica,sans-Serif" font-size="10.00">ShapeId::hasNameSpace</text>
</a>
</g>
</g>
<!-- Node11&#45;&gt;Node12 -->
<g id="edge15_Node000011_Node000012" class="edge">
<title>Node11&#45;&gt;Node12</title>
<g id="a_edge15_Node000011_Node000012"><a xlink:title=" ">
<path fill="none" stroke="#63b8ff" d="M642.72,-420.71C628.68,-422.21 613.86,-423.8 599.78,-425.31"/>
<polygon fill="#63b8ff" stroke="#63b8ff" points="650.89,-419.84 643.32,-424.27 646.91,-420.26 642.93,-420.69 642.93,-420.69 642.93,-420.69 646.91,-420.26 642.55,-417.11 650.89,-419.84 650.89,-419.84"/>
</a>
</g>
</g>
<!-- Node12&#45;&gt;Node3 -->
<g id="edge17_Node000012_Node000003" class="edge">
<title>Node12&#45;&gt;Node3</title>
<g id="a_edge17_Node000012_Node000003"><a xlink:title=" ">
<path fill="none" stroke="#63b8ff" d="M454.18,-435.35C348.58,-439.24 161.1,-446.14 80.08,-449.12"/>
<polygon fill="#63b8ff" stroke="#63b8ff" points="462.26,-435.06 454.4,-438.95 458.27,-435.2 454.27,-435.35 454.27,-435.35 454.27,-435.35 458.27,-435.2 454.14,-431.75 462.26,-435.06 462.26,-435.06"/>
</a>
</g>
</g>
<!-- Node12&#45;&gt;Node7 -->
<g id="edge18_Node000012_Node000007" class="edge">
<title>Node12&#45;&gt;Node7</title>
<g id="a_edge18_Node000012_Node000007"><a xlink:title=" ">
<path fill="none" stroke="#63b8ff" d="M494.2,-420.43C474.2,-413.76 448.79,-405.46 426,-398.56 409.53,-393.57 391.18,-388.4 375.67,-384.14"/>
<polygon fill="#63b8ff" stroke="#63b8ff" points="501.86,-422.99 493.13,-423.87 498.06,-421.72 494.27,-420.45 494.27,-420.45 494.27,-420.45 498.06,-421.72 495.41,-417.04 501.86,-422.99 501.86,-422.99"/>
</a>
</g>
</g>
<!-- Node12&#45;&gt;Node9 -->
<g id="edge16_Node000012_Node000009" class="edge">
<title>Node12&#45;&gt;Node9</title>
<g id="a_edge16_Node000012_Node000009"><a xlink:title=" ">
<path fill="none" stroke="#63b8ff" d="M482.03,-419.95C474.93,-416.89 467.99,-413.14 462,-408.56 439.66,-391.5 449.34,-372.23 426,-356.56 420.29,-352.73 413.93,-349.65 407.32,-347.19"/>
<polygon fill="#63b8ff" stroke="#63b8ff" points="489.77,-423.01 481,-423.42 486.05,-421.54 482.33,-420.07 482.33,-420.07 482.33,-420.07 486.05,-421.54 483.65,-416.72 489.77,-423.01 489.77,-423.01"/>
</a>
</g>
</g>
<!-- Node12&#45;&gt;Node10 -->
<g id="edge20_Node000012_Node000010" class="edge">
<title>Node12&#45;&gt;Node10</title>
<g id="a_edge20_Node000012_Node000010"><a xlink:title=" ">
<path fill="none" stroke="#63b8ff" d="M454.28,-423.38C398.26,-416.24 320.17,-405.55 252,-393.56 238.04,-391.11 222.87,-388.03 209.26,-385.11"/>
<polygon fill="#63b8ff" stroke="#63b8ff" points="462.38,-424.41 453.99,-426.97 458.42,-423.9 454.45,-423.4 454.45,-423.4 454.45,-423.4 458.42,-423.9 454.9,-419.83 462.38,-424.41 462.38,-424.41"/>
</a>
</g>
</g>
<!-- Node13 -->
<g id="Node000013" class="node">
<title>Node13</title>
<g id="a_Node000013"><a xlink:href="classShapeId.html#af929aaedb6df234458a445eabac27a1a" target="_top" xlink:title="Returns true if this Shape ID is a relative Shape ID, false otherwise.">
<polygon fill="white" stroke="#666666" points="413.5,-498.06 264.5,-498.06 264.5,-479.06 413.5,-479.06 413.5,-498.06"/>
<text text-anchor="middle" x="339" y="-486.06" font-family="Helvetica,sans-Serif" font-size="10.00">ShapeId::isRelativeShapeId</text>
</a>
</g>
</g>
<!-- Node12&#45;&gt;Node13 -->
<g id="edge19_Node000012_Node000013" class="edge">
<title>Node12&#45;&gt;Node13</title>
<g id="a_edge19_Node000012_Node000013"><a xlink:title=" ">
<path fill="none" stroke="#63b8ff" d="M491.75,-444.6C472.13,-450.7 447.83,-458.16 426,-464.56 409.34,-469.45 390.8,-474.65 375.21,-478.96"/>
<polygon fill="#63b8ff" stroke="#63b8ff" points="499.57,-442.16 493.01,-447.97 495.76,-443.35 491.94,-444.54 491.94,-444.54 491.94,-444.54 495.76,-443.35 490.86,-441.1 499.57,-442.16 499.57,-442.16"/>
</a>
</g>
</g>
<!-- Node23&#45;&gt;Node8 -->
<g id="edge31_Node000023_Node000008" class="edge">
<title>Node23&#45;&gt;Node8</title>
<g id="a_edge31_Node000023_Node000008"><a xlink:title=" ">
<path fill="none" stroke="#63b8ff" d="M693.62,-158.31C657.77,-193.86 571.38,-279.52 541.98,-308.66"/>
<polygon fill="#63b8ff" stroke="#63b8ff" points="699.7,-152.28 696.56,-160.46 696.86,-155.09 694.02,-157.91 694.02,-157.91 694.02,-157.91 696.86,-155.09 691.49,-155.35 699.7,-152.28 699.7,-152.28"/>
</a>
</g>
</g>
</g>
</svg>
