<?xml version="1.0" encoding="UTF-8" standalone="no"?>
<!DOCTYPE svg PUBLIC "-//W3C//DTD SVG 1.1//EN"
 "http://www.w3.org/Graphics/SVG/1.1/DTD/svg11.dtd">
<!-- Generated by graphviz version 2.43.0 (0)
 -->
<!-- Title: ModelPrivate Pages: 1 -->
<svg width="470pt" height="161pt"
 viewBox="0.00 0.00 470.00 160.50" xmlns="http://www.w3.org/2000/svg" xmlns:xlink="http://www.w3.org/1999/xlink">
<g id="graph0" class="graph" transform="scale(1 1) rotate(0) translate(4 156.5)">
<title>ModelPrivate</title>
<!-- Node1 -->
<g id="node1" class="node">
<title>Node1</title>
<g id="a_node1"><a xlink:title="The ModelPrivate class provides private implementation for Model.">
<polygon fill="#999999" stroke="#666666" points="351,-77 270,-77 270,-58 351,-58 351,-77"/>
<text text-anchor="middle" x="310.5" y="-65" font-family="Helvetica,sans-Serif" font-size="10.00">ModelPrivate</text>
</a>
</g>
</g>
<!-- Node2 -->
<g id="node2" class="node">
<title>Node2</title>
<g id="a_node2"><a xlink:href="classModel.html" target="_top" xlink:title="The Model class provides a Qt representation of a Smithy semantic model.">
<polygon fill="white" stroke="#666666" points="462,-77 415,-77 415,-58 462,-58 462,-77"/>
<text text-anchor="middle" x="438.5" y="-65" font-family="Helvetica,sans-Serif" font-size="10.00">Model</text>
</a>
</g>
</g>
<!-- Node1&#45;&gt;Node2 -->
<g id="edge2" class="edge">
<title>Node1&#45;&gt;Node2</title>
<path fill="none" stroke="#9a32cd" stroke-dasharray="5,2" d="M359.09,-67.5C378.27,-67.5 399.48,-67.5 414.99,-67.5"/>
<polygon fill="#9a32cd" stroke="#9a32cd" points="351.02,-67.5 359.02,-63.9 355.02,-67.5 359.02,-67.5 359.02,-67.5 359.02,-67.5 355.02,-67.5 359.02,-71.1 351.02,-67.5 351.02,-67.5"/>
<text text-anchor="middle" x="383" y="-70.5" font-family="Helvetica,sans-Serif" font-size="10.00"> d_ptr</text>
</g>
<!-- Node2&#45;&gt;Node1 -->
<g id="edge1" class="edge">
<title>Node2&#45;&gt;Node1</title>
<path fill="none" stroke="#9a32cd" stroke-dasharray="5,2" d="M410.19,-55.12C405.86,-53.62 401.36,-52.33 397,-51.5 376.53,-47.6 353.28,-52.56 336.2,-57.95"/>
<polygon fill="#9a32cd" stroke="#9a32cd" points="417.76,-57.98 409,-58.52 414.02,-56.57 410.28,-55.15 410.28,-55.15 410.28,-55.15 414.02,-56.57 411.55,-51.79 417.76,-57.98 417.76,-57.98"/>
<text text-anchor="middle" x="383" y="-54.5" font-family="Helvetica,sans-Serif" font-size="10.00"> q_ptr</text>
</g>
<!-- Node3 -->
<g id="node3" class="node">
<title>Node3</title>
<g id="a_node3"><a target="_parent" xlink:href="https://doc.qt.io/qt-5/qmultihash.html" xlink:title=" ">
<polygon fill="white" stroke="#bfbfbf" points="135,-152.5 11,-152.5 11,-122.5 135,-122.5 135,-152.5"/>
<text text-anchor="start" x="19" y="-140.5" font-family="Helvetica,sans-Serif" font-size="10.00">QMultiHash&lt; QString,</text>
<text text-anchor="middle" x="73" y="-129.5" font-family="Helvetica,sans-Serif" font-size="10.00"> QJsonValue &gt;</text>
</a>
</g>
</g>
<!-- Node3&#45;&gt;Node1 -->
<g id="edge3" class="edge">
<title>Node3&#45;&gt;Node1</title>
<path fill="none" stroke="#9a32cd" stroke-dasharray="5,2" d="M142.92,-124.25C176.32,-116.98 216.74,-106.9 252,-94.5 265.63,-89.71 280.37,-82.75 291.51,-77.1"/>
<polygon fill="#9a32cd" stroke="#9a32cd" points="135.03,-125.95 142.09,-120.75 138.94,-125.11 142.85,-124.27 142.85,-124.27 142.85,-124.27 138.94,-125.11 143.6,-127.79 135.03,-125.95 135.03,-125.95"/>
<text text-anchor="middle" x="208" y="-121.5" font-family="Helvetica,sans-Serif" font-size="10.00"> allMetadata</text>
</g>
<!-- Node4 -->
<g id="node4" class="node">
<title>Node4</title>
<g id="a_node4"><a target="_parent" xlink:href="https://doc.qt.io/qt-5/qmultihash.html" xlink:title=" ">
<polygon fill="white" stroke="#bfbfbf" points="136.5,-104.5 9.5,-104.5 9.5,-74.5 136.5,-74.5 136.5,-104.5"/>
<text text-anchor="start" x="17.5" y="-92.5" font-family="Helvetica,sans-Serif" font-size="10.00">QMultiHash&lt; ShapeId,</text>
<text text-anchor="middle" x="73" y="-81.5" font-family="Helvetica,sans-Serif" font-size="10.00"> Shape &gt;</text>
</a>
</g>
</g>
<!-- Node4&#45;&gt;Node1 -->
<g id="edge4" class="edge">
<title>Node4&#45;&gt;Node1</title>
<path fill="none" stroke="#9a32cd" stroke-dasharray="5,2" d="M144.86,-82.88C185.77,-79.06 235.71,-74.39 269.79,-71.21"/>
<polygon fill="#9a32cd" stroke="#9a32cd" points="136.8,-83.63 144.43,-79.3 140.78,-83.26 144.77,-82.89 144.77,-82.89 144.77,-82.89 140.78,-83.26 145.1,-86.47 136.8,-83.63 136.8,-83.63"/>
<text text-anchor="middle" x="208" y="-82.5" font-family="Helvetica,sans-Serif" font-size="10.00"> allShapes</text>
</g>
<!-- Node5 -->
<g id="node5" class="node">
<title>Node5</title>
<g id="a_node5"><a target="_parent" xlink:href="https://doc.qt.io/qt-5/qjsonobject.html" xlink:title=" ">
<polygon fill="white" stroke="#bfbfbf" points="111,-56 35,-56 35,-37 111,-37 111,-56"/>
<text text-anchor="middle" x="73" y="-44" font-family="Helvetica,sans-Serif" font-size="10.00">QJsonObject</text>
</a>
</g>
</g>
<!-- Node5&#45;&gt;Node1 -->
<g id="edge5" class="edge">
<title>Node5&#45;&gt;Node1</title>
<path fill="none" stroke="#9a32cd" stroke-dasharray="5,2" d="M119.65,-47.4C155.7,-48.51 207.21,-50.98 252,-56.5 257.75,-57.21 263.79,-58.15 269.71,-59.18"/>
<polygon fill="#9a32cd" stroke="#9a32cd" points="111.29,-47.15 119.39,-43.79 115.29,-47.27 119.29,-47.39 119.29,-47.39 119.29,-47.39 115.29,-47.27 119.18,-50.98 111.29,-47.15 111.29,-47.15"/>
<text text-anchor="middle" x="208" y="-59.5" font-family="Helvetica,sans-Serif" font-size="10.00"> mergedMetadata</text>
</g>
<!-- Node6 -->
<g id="node6" class="node">
<title>Node6</title>
<g id="a_node6"><a target="_parent" xlink:href="https://doc.qt.io/qt-5/qhash.html" xlink:title=" ">
<polygon fill="white" stroke="#bfbfbf" points="146,-19 0,-19 0,0 146,0 146,-19"/>
<text text-anchor="middle" x="73" y="-7" font-family="Helvetica,sans-Serif" font-size="10.00">QHash&lt; ShapeId, Shape &gt;</text>
</a>
</g>
</g>
<!-- Node6&#45;&gt;Node1 -->
<g id="edge6" class="edge">
<title>Node6&#45;&gt;Node1</title>
<path fill="none" stroke="#9a32cd" stroke-dasharray="5,2" d="M154.35,-13.49C185.49,-16.79 221.04,-22.76 252,-33.5 268.43,-39.2 285.35,-49.9 296.54,-57.77"/>
<polygon fill="#9a32cd" stroke="#9a32cd" points="146.11,-12.66 154.43,-9.88 150.09,-13.06 154.07,-13.46 154.07,-13.46 154.07,-13.46 150.09,-13.06 153.71,-17.04 146.11,-12.66 146.11,-12.66"/>
<text text-anchor="middle" x="208" y="-36.5" font-family="Helvetica,sans-Serif" font-size="10.00"> mergedShapes</text>
</g>
</g>
</svg>
