<?xml version="1.0" encoding="UTF-8" standalone="no"?>
<!DOCTYPE svg PUBLIC "-//W3C//DTD SVG 1.1//EN"
 "http://www.w3.org/Graphics/SVG/1.1/DTD/svg11.dtd">
<!-- Generated by graphviz version 2.43.0 (0)
 -->
<!-- Title: Generator::generate Pages: 1 -->
<svg width="444pt" height="309pt"
 viewBox="0.00 0.00 444.00 309.00" xmlns="http://www.w3.org/2000/svg" xmlns:xlink="http://www.w3.org/1999/xlink">
<g id="graph0" class="graph" transform="scale(1 1) rotate(0) translate(4 305)">
<title>Generator::generate</title>
<!-- Node1 -->
<g id="node1" class="node">
<title>Node1</title>
<g id="a_node1"><a xlink:title=" ">
<polygon fill="#999999" stroke="#666666" points="115,-160 0,-160 0,-141 115,-141 115,-160"/>
<text text-anchor="middle" x="57.5" y="-148" font-family="Helvetica,sans-Serif" font-size="10.00">Generator::generate</text>
</a>
</g>
</g>
<!-- Node2 -->
<g id="node2" class="node">
<title>Node2</title>
<g id="a_node2"><a target="_parent" xlink:href="https://doc.qt.io/qt-5/qlist.html#append" xlink:title=" ">
<polygon fill="white" stroke="#666666" points="268,-301 185,-301 185,-282 268,-282 268,-301"/>
<text text-anchor="middle" x="226.5" y="-289" font-family="Helvetica,sans-Serif" font-size="10.00">QList::append</text>
</a>
</g>
</g>
<!-- Node1&#45;&gt;Node2 -->
<g id="edge1" class="edge">
<title>Node1&#45;&gt;Node2</title>
<path fill="none" stroke="#63b8ff" d="M62.92,-160.3C74.07,-183.82 105.68,-243.71 151,-273.5 158.74,-278.59 167.78,-282.24 176.84,-284.86"/>
<polygon fill="#63b8ff" stroke="#63b8ff" points="184.77,-286.91 176.13,-288.39 180.9,-285.91 177.03,-284.91 177.03,-284.91 177.03,-284.91 180.9,-285.91 177.93,-281.42 184.77,-286.91 184.77,-286.91"/>
</g>
<!-- Node3 -->
<g id="node3" class="node">
<title>Node3</title>
<g id="a_node3"><a target="_parent" xlink:href="https://doc.qt.io/qt-5/qlist.html#constBegin" xlink:title=" ">
<polygon fill="white" stroke="#666666" points="277,-264 176,-264 176,-245 277,-245 277,-264"/>
<text text-anchor="middle" x="226.5" y="-252" font-family="Helvetica,sans-Serif" font-size="10.00">QList::constBegin</text>
</a>
</g>
</g>
<!-- Node1&#45;&gt;Node3 -->
<g id="edge2" class="edge">
<title>Node1&#45;&gt;Node3</title>
<path fill="none" stroke="#63b8ff" d="M66,-160.2C80.43,-178.16 113.91,-216.57 151,-236.5 156.24,-239.31 161.92,-241.69 167.72,-243.71"/>
<polygon fill="#63b8ff" stroke="#63b8ff" points="175.69,-246.23 166.98,-247.25 171.88,-245.02 168.07,-243.81 168.07,-243.81 168.07,-243.81 171.88,-245.02 169.15,-240.38 175.69,-246.23 175.69,-246.23"/>
</g>
<!-- Node4 -->
<g id="node4" class="node">
<title>Node4</title>
<g id="a_node4"><a target="_parent" xlink:href="https://doc.qt.io/qt-5/qlist.html#constEnd" xlink:title=" ">
<polygon fill="white" stroke="#666666" points="272.5,-227 180.5,-227 180.5,-208 272.5,-208 272.5,-227"/>
<text text-anchor="middle" x="226.5" y="-215" font-family="Helvetica,sans-Serif" font-size="10.00">QList::constEnd</text>
</a>
</g>
</g>
<!-- Node1&#45;&gt;Node4 -->
<g id="edge3" class="edge">
<title>Node1&#45;&gt;Node4</title>
<path fill="none" stroke="#63b8ff" d="M74.35,-160.16C92.37,-170.8 122.94,-187.8 151,-198.5 158.05,-201.19 165.62,-203.62 173.14,-205.77"/>
<polygon fill="#63b8ff" stroke="#63b8ff" points="181.25,-207.99 172.58,-209.35 177.39,-206.93 173.54,-205.88 173.54,-205.88 173.54,-205.88 177.39,-206.93 174.49,-202.4 181.25,-207.99 181.25,-207.99"/>
</g>
<!-- Node5 -->
<g id="node5" class="node">
<title>Node5</title>
<g id="a_node5"><a target="_parent" xlink:href="https://doc.qt.io/qt-5/qregularexpressionmatch.html#hasMatch" xlink:title=" ">
<polygon fill="white" stroke="#666666" points="299,-189.5 154,-189.5 154,-159.5 299,-159.5 299,-189.5"/>
<text text-anchor="start" x="162" y="-177.5" font-family="Helvetica,sans-Serif" font-size="10.00">QRegularExpressionMatch</text>
<text text-anchor="middle" x="226.5" y="-166.5" font-family="Helvetica,sans-Serif" font-size="10.00">::hasMatch</text>
</a>
</g>
</g>
<!-- Node1&#45;&gt;Node5 -->
<g id="edge4" class="edge">
<title>Node1&#45;&gt;Node5</title>
<path fill="none" stroke="#63b8ff" d="M115.04,-158.63C124.99,-160.06 135.52,-161.57 145.96,-163.07"/>
<polygon fill="#63b8ff" stroke="#63b8ff" points="153.92,-164.21 145.49,-166.64 149.96,-163.64 146,-163.07 146,-163.07 146,-163.07 149.96,-163.64 146.51,-159.51 153.92,-164.21 153.92,-164.21"/>
</g>
<!-- Node6 -->
<g id="node6" class="node">
<title>Node6</title>
<g id="a_node6"><a target="_parent" xlink:href="https://doc.qt.io/qt-5/qregularexpression.html#match" xlink:title=" ">
<polygon fill="white" stroke="#666666" points="284,-141.5 169,-141.5 169,-111.5 284,-111.5 284,-141.5"/>
<text text-anchor="start" x="177" y="-129.5" font-family="Helvetica,sans-Serif" font-size="10.00">QRegularExpression</text>
<text text-anchor="middle" x="226.5" y="-118.5" font-family="Helvetica,sans-Serif" font-size="10.00">::match</text>
</a>
</g>
</g>
<!-- Node1&#45;&gt;Node6 -->
<g id="edge5" class="edge">
<title>Node1&#45;&gt;Node6</title>
<path fill="none" stroke="#63b8ff" d="M115.04,-142.37C129.65,-140.27 145.49,-138 160.5,-135.84"/>
<polygon fill="#63b8ff" stroke="#63b8ff" points="168.74,-134.66 161.33,-139.36 164.78,-135.23 160.82,-135.8 160.82,-135.8 160.82,-135.8 164.78,-135.23 160.3,-132.23 168.74,-134.66 168.74,-134.66"/>
</g>
<!-- Node7 -->
<g id="node7" class="node">
<title>Node7</title>
<g id="a_node7"><a xlink:href="classGenerator.html#a3ee386f7ccc09947e1c9eedcdc60ee25" target="_top" xlink:title=" ">
<polygon fill="white" stroke="#666666" points="302,-93 151,-93 151,-74 302,-74 302,-93"/>
<text text-anchor="middle" x="226.5" y="-81" font-family="Helvetica,sans-Serif" font-size="10.00">Generator::renderOperation</text>
</a>
</g>
</g>
<!-- Node1&#45;&gt;Node7 -->
<g id="edge6" class="edge">
<title>Node1&#45;&gt;Node7</title>
<path fill="none" stroke="#63b8ff" d="M74.35,-140.84C92.37,-130.2 122.94,-113.2 151,-102.5 158.05,-99.81 165.62,-97.38 173.14,-95.23"/>
<polygon fill="#63b8ff" stroke="#63b8ff" points="181.25,-93.01 174.49,-98.6 177.39,-94.07 173.54,-95.12 173.54,-95.12 173.54,-95.12 177.39,-94.07 172.58,-91.65 181.25,-93.01 181.25,-93.01"/>
</g>
<!-- Node10 -->
<g id="node10" class="node">
<title>Node10</title>
<g id="a_node10"><a xlink:href="classGenerator.html#a5c83551528ea2d2730022e0ad8fcca4c" target="_top" xlink:title=" ">
<polygon fill="white" stroke="#666666" points="296,-56 157,-56 157,-37 296,-37 296,-56"/>
<text text-anchor="middle" x="226.5" y="-44" font-family="Helvetica,sans-Serif" font-size="10.00">Generator::renderService</text>
</a>
</g>
</g>
<!-- Node1&#45;&gt;Node10 -->
<g id="edge9" class="edge">
<title>Node1&#45;&gt;Node10</title>
<path fill="none" stroke="#63b8ff" d="M66.05,-140.96C80.56,-123.28 114.18,-85.44 151,-65.5 155.81,-62.89 160.99,-60.64 166.3,-58.68"/>
<polygon fill="#63b8ff" stroke="#63b8ff" points="174.14,-56.03 167.71,-62 170.35,-57.31 166.56,-58.59 166.56,-58.59 166.56,-58.59 170.35,-57.31 165.4,-55.18 174.14,-56.03 174.14,-56.03"/>
</g>
<!-- Node11 -->
<g id="node11" class="node">
<title>Node11</title>
<g id="a_node11"><a target="_parent" xlink:href="https://doc.qt.io/qt-5/qlist.html#size" xlink:title=" ">
<polygon fill="white" stroke="#666666" points="260,-19 193,-19 193,0 260,0 260,-19"/>
<text text-anchor="middle" x="226.5" y="-7" font-family="Helvetica,sans-Serif" font-size="10.00">QList::size</text>
</a>
</g>
</g>
<!-- Node1&#45;&gt;Node11 -->
<g id="edge12" class="edge">
<title>Node1&#45;&gt;Node11</title>
<path fill="none" stroke="#63b8ff" d="M62.92,-140.7C74.07,-117.18 105.68,-57.29 151,-27.5 161.03,-20.91 173.24,-16.73 184.84,-14.08"/>
<polygon fill="#63b8ff" stroke="#63b8ff" points="192.75,-12.47 185.63,-17.59 188.83,-13.27 184.91,-14.06 184.91,-14.06 184.91,-14.06 188.83,-13.27 184.2,-10.53 192.75,-12.47 192.75,-12.47"/>
</g>
<!-- Node8 -->
<g id="node8" class="node">
<title>Node8</title>
<g id="a_node8"><a target="_parent" xlink:href="https://doc.qt.io/qt-5/qstring.html#arg-11" xlink:title=" ">
<polygon fill="white" stroke="#666666" points="424,-93 350,-93 350,-74 424,-74 424,-93"/>
<text text-anchor="middle" x="387" y="-81" font-family="Helvetica,sans-Serif" font-size="10.00">QString::arg</text>
</a>
</g>
</g>
<!-- Node7&#45;&gt;Node8 -->
<g id="edge7" class="edge">
<title>Node7&#45;&gt;Node8</title>
<path fill="none" stroke="#63b8ff" d="M302.11,-83.5C315.55,-83.5 329.17,-83.5 341.41,-83.5"/>
<polygon fill="#63b8ff" stroke="#63b8ff" points="349.65,-83.5 341.65,-87.1 345.65,-83.5 341.65,-83.5 341.65,-83.5 341.65,-83.5 345.65,-83.5 341.65,-79.9 349.65,-83.5 349.65,-83.5"/>
</g>
<!-- Node9 -->
<g id="node9" class="node">
<title>Node9</title>
<g id="a_node9"><a target="_parent" xlink:href="https://doc.qt.io/qt-5/qstring.html#isEmpty" xlink:title=" ">
<polygon fill="white" stroke="#666666" points="436,-56 338,-56 338,-37 436,-37 436,-56"/>
<text text-anchor="middle" x="387" y="-44" font-family="Helvetica,sans-Serif" font-size="10.00">QString::isEmpty</text>
</a>
</g>
</g>
<!-- Node7&#45;&gt;Node9 -->
<g id="edge8" class="edge">
<title>Node7&#45;&gt;Node9</title>
<path fill="none" stroke="#63b8ff" d="M268.32,-73.97C289.31,-69.07 315.06,-63.06 337.1,-57.91"/>
<polygon fill="#63b8ff" stroke="#63b8ff" points="345.05,-56.06 338.07,-61.38 341.15,-56.97 337.25,-57.88 337.25,-57.88 337.25,-57.88 341.15,-56.97 336.44,-54.37 345.05,-56.06 345.05,-56.06"/>
</g>
<!-- Node10&#45;&gt;Node8 -->
<g id="edge10" class="edge">
<title>Node10&#45;&gt;Node8</title>
<path fill="none" stroke="#63b8ff" d="M268.32,-56.03C290.88,-61.3 318.93,-67.84 341.98,-73.22"/>
<polygon fill="#63b8ff" stroke="#63b8ff" points="349.91,-75.08 341.3,-76.76 346.02,-74.17 342.12,-73.26 342.12,-73.26 342.12,-73.26 346.02,-74.17 342.94,-69.75 349.91,-75.08 349.91,-75.08"/>
</g>
<!-- Node10&#45;&gt;Node9 -->
<g id="edge11" class="edge">
<title>Node10&#45;&gt;Node9</title>
<path fill="none" stroke="#63b8ff" d="M296.1,-46.5C307.3,-46.5 318.79,-46.5 329.65,-46.5"/>
<polygon fill="#63b8ff" stroke="#63b8ff" points="337.82,-46.5 329.82,-50.1 333.82,-46.5 329.82,-46.5 329.82,-46.5 329.82,-46.5 333.82,-46.5 329.82,-42.9 337.82,-46.5 337.82,-46.5"/>
</g>
</g>
</svg>
