<?xml version="1.0" encoding="UTF-8" standalone="no"?>
<!DOCTYPE svg PUBLIC "-//W3C//DTD SVG 1.1//EN"
 "http://www.w3.org/Graphics/SVG/1.1/DTD/svg11.dtd">
<!-- Generated by graphviz version 2.43.0 (0)
 -->
<!-- Title: Model::insert Pages: 1 -->
<svg width="1002pt" height="472pt"
 viewBox="0.00 0.00 1002.00 472.09" xmlns="http://www.w3.org/2000/svg" xmlns:xlink="http://www.w3.org/1999/xlink">
<g id="graph0" class="graph" transform="scale(1 1) rotate(0) translate(4 468.09)">
<title>Model::insert</title>
<!-- Node1 -->
<g id="node1" class="node">
<title>Node1</title>
<g id="a_node1"><a xlink:title="Add the logical content of the JSON AST model file given by ast into this semantic model.">
<polygon fill="#999999" stroke="#666666" points="80,-242 0,-242 0,-223 80,-223 80,-242"/>
<text text-anchor="middle" x="40" y="-230" font-family="Helvetica,sans-Serif" font-size="10.00">Model::insert</text>
</a>
</g>
</g>
<!-- Node2 -->
<g id="node2" class="node">
<title>Node2</title>
<g id="a_node2"><a xlink:href="classShapeId.html#ad0bbf397b25b50a3fc9c145cea67ce11" target="_top" xlink:title="Returns true if this Shape ID has a non&#45;empty namespace, otherwise false otherwise.">
<polygon fill="white" stroke="#666666" points="640.5,-151 503.5,-151 503.5,-132 640.5,-132 640.5,-151"/>
<text text-anchor="middle" x="572" y="-139" font-family="Helvetica,sans-Serif" font-size="10.00">ShapeId::hasNameSpace</text>
</a>
</g>
</g>
<!-- Node1&#45;&gt;Node2 -->
<g id="edge1" class="edge">
<title>Node1&#45;&gt;Node2</title>
<path fill="none" stroke="#63b8ff" d="M41.87,-242.36C45.12,-272.39 59.43,-362.89 116,-399.5 246.97,-484.25 337.7,-486.79 467,-399.5 550.29,-343.27 566.89,-207.99 570.19,-159.32"/>
<polygon fill="#63b8ff" stroke="#63b8ff" points="570.67,-151.03 573.8,-159.23 570.44,-155.03 570.2,-159.02 570.2,-159.02 570.2,-159.02 570.44,-155.03 566.61,-158.81 570.67,-151.03 570.67,-151.03"/>
</g>
<!-- Node5 -->
<g id="node5" class="node">
<title>Node5</title>
<g id="a_node5"><a target="_parent" xlink:href="https://doc.qt.io/qt-5/qjsonvalue.html#isObject" xlink:title=" ">
<polygon fill="white" stroke="#666666" points="259.5,-390 142.5,-390 142.5,-371 259.5,-371 259.5,-390"/>
<text text-anchor="middle" x="201" y="-378" font-family="Helvetica,sans-Serif" font-size="10.00">QJsonValue::isObject</text>
</a>
</g>
</g>
<!-- Node1&#45;&gt;Node5 -->
<g id="edge4" class="edge">
<title>Node1&#45;&gt;Node5</title>
<path fill="none" stroke="#63b8ff" d="M43.6,-242.18C50.7,-266.61 72.82,-331.06 116,-362.5 121.55,-366.54 127.81,-369.71 134.36,-372.19"/>
<polygon fill="#63b8ff" stroke="#63b8ff" points="142.15,-374.79 133.42,-375.67 138.35,-373.52 134.56,-372.25 134.56,-372.25 134.56,-372.25 138.35,-373.52 135.7,-368.84 142.15,-374.79 142.15,-374.79"/>
</g>
<!-- Node6 -->
<g id="node6" class="node">
<title>Node6</title>
<g id="a_node6"><a xlink:href="classShapeId.html#a380944df9a71c1108ed5bdb459673a49" target="_top" xlink:title="Returns true if this object represents a valid, non&#45;empty Smithy Shape ID.">
<polygon fill="white" stroke="#666666" points="248,-353 154,-353 154,-334 248,-334 248,-353"/>
<text text-anchor="middle" x="201" y="-341" font-family="Helvetica,sans-Serif" font-size="10.00">ShapeId::isValid</text>
</a>
</g>
</g>
<!-- Node1&#45;&gt;Node6 -->
<g id="edge5" class="edge">
<title>Node1&#45;&gt;Node6</title>
<path fill="none" stroke="#63b8ff" d="M45.88,-242.21C56.07,-261.44 81.55,-304.3 116,-325.5 125.01,-331.04 135.47,-334.9 145.89,-337.57"/>
<polygon fill="#63b8ff" stroke="#63b8ff" points="153.83,-339.39 145.23,-341.11 149.93,-338.5 146.03,-337.6 146.03,-337.6 146.03,-337.6 149.93,-338.5 146.84,-334.09 153.83,-339.39 153.83,-339.39"/>
</g>
<!-- Node10 -->
<g id="node10" class="node">
<title>Node10</title>
<g id="a_node10"><a target="_parent" xlink:href="https://doc.qt.io/qt-5/qjsonobject.html#keys" xlink:title=" ">
<polygon fill="white" stroke="#666666" points="253,-316 149,-316 149,-297 253,-297 253,-316"/>
<text text-anchor="middle" x="201" y="-304" font-family="Helvetica,sans-Serif" font-size="10.00">QJsonObject::keys</text>
</a>
</g>
</g>
<!-- Node1&#45;&gt;Node10 -->
<g id="edge9" class="edge">
<title>Node1&#45;&gt;Node10</title>
<path fill="none" stroke="#63b8ff" d="M50.77,-242.02C64.27,-254.64 89.96,-276.68 116,-288.5 123.8,-292.04 132.32,-294.9 140.86,-297.2"/>
<polygon fill="#63b8ff" stroke="#63b8ff" points="148.68,-299.17 140.04,-300.71 144.8,-298.19 140.92,-297.22 140.92,-297.22 140.92,-297.22 144.8,-298.19 141.8,-293.73 148.68,-299.17 148.68,-299.17"/>
</g>
<!-- Node11 -->
<g id="node11" class="node">
<title>Node11</title>
<g id="a_node11"><a target="_parent" xlink:href="https://doc.qt.io/qt-5/qversionnumber.html#majorVersion" xlink:title=" ">
<polygon fill="white" stroke="#666666" points="286,-279 116,-279 116,-260 286,-260 286,-279"/>
<text text-anchor="middle" x="201" y="-267" font-family="Helvetica,sans-Serif" font-size="10.00">QVersionNumber::majorVersion</text>
</a>
</g>
</g>
<!-- Node1&#45;&gt;Node11 -->
<g id="edge10" class="edge">
<title>Node1&#45;&gt;Node11</title>
<path fill="none" stroke="#63b8ff" d="M77.55,-242.05C89.76,-245.16 103.44,-248.57 116,-251.5 125.74,-253.78 136.14,-256.1 146.19,-258.28"/>
<polygon fill="#63b8ff" stroke="#63b8ff" points="154.16,-260 145.58,-261.83 150.25,-259.15 146.34,-258.31 146.34,-258.31 146.34,-258.31 150.25,-259.15 147.1,-254.79 154.16,-260 154.16,-260"/>
</g>
<!-- Node12 -->
<g id="node12" class="node">
<title>Node12</title>
<g id="a_node12"><a xlink:href="classModel.html#a230e00c458f652c3fa9b447bdd672bdc" target="_top" xlink:title=" ">
<polygon fill="white" stroke="#666666" points="242,-242 160,-242 160,-223 242,-223 242,-242"/>
<text text-anchor="middle" x="201" y="-230" font-family="Helvetica,sans-Serif" font-size="10.00">Model::shape</text>
</a>
</g>
</g>
<!-- Node1&#45;&gt;Node12 -->
<g id="edge11" class="edge">
<title>Node1&#45;&gt;Node12</title>
<path fill="none" stroke="#63b8ff" d="M80.3,-232.5C101.84,-232.5 128.73,-232.5 151.56,-232.5"/>
<polygon fill="#63b8ff" stroke="#63b8ff" points="159.77,-232.5 151.77,-236.1 155.77,-232.5 151.77,-232.5 151.77,-232.5 151.77,-232.5 155.77,-232.5 151.77,-228.9 159.77,-232.5 159.77,-232.5"/>
</g>
<!-- Node13 -->
<g id="node13" class="node">
<title>Node13</title>
<g id="a_node13"><a xlink:href="classModel.html#a006b5ee757212e9de1f564ebcdfab91d" target="_top" xlink:title=" ">
<polygon fill="white" stroke="#666666" points="244.5,-187 157.5,-187 157.5,-168 244.5,-168 244.5,-187"/>
<text text-anchor="middle" x="201" y="-175" font-family="Helvetica,sans-Serif" font-size="10.00">Model::shapes</text>
</a>
</g>
</g>
<!-- Node1&#45;&gt;Node13 -->
<g id="edge12" class="edge">
<title>Node1&#45;&gt;Node13</title>
<path fill="none" stroke="#63b8ff" d="M68.7,-222.92C95.29,-213.72 135.58,-199.78 164.52,-189.77"/>
<polygon fill="#63b8ff" stroke="#63b8ff" points="172.36,-187.06 165.97,-193.08 168.58,-188.37 164.79,-189.68 164.79,-189.68 164.79,-189.68 168.58,-188.37 163.62,-186.28 172.36,-187.06 172.36,-187.06"/>
</g>
<!-- Node15 -->
<g id="node15" class="node">
<title>Node15</title>
<g id="a_node15"><a target="_parent" xlink:href="https://doc.qt.io/qt-5/qjsonvalue.html#toObject-1" xlink:title=" ">
<polygon fill="white" stroke="#666666" points="260.5,-150 141.5,-150 141.5,-131 260.5,-131 260.5,-150"/>
<text text-anchor="middle" x="201" y="-138" font-family="Helvetica,sans-Serif" font-size="10.00">QJsonValue::toObject</text>
</a>
</g>
</g>
<!-- Node1&#45;&gt;Node15 -->
<g id="edge15" class="edge">
<title>Node1&#45;&gt;Node15</title>
<path fill="none" stroke="#63b8ff" d="M47.85,-222.81C59.75,-206.74 85.9,-174.75 116,-158.5 121.44,-155.56 127.33,-153.1 133.37,-151.05"/>
<polygon fill="#63b8ff" stroke="#63b8ff" points="141.09,-148.65 134.51,-154.46 137.27,-149.84 133.45,-151.02 133.45,-151.02 133.45,-151.02 137.27,-149.84 132.38,-147.58 141.09,-148.65 141.09,-148.65"/>
</g>
<!-- Node16 -->
<g id="node16" class="node">
<title>Node16</title>
<g id="a_node16"><a xlink:href="classShapeId.html#a564f14952b394af6b38f748417a7e48a" target="_top" xlink:title="Returns this object as an absolute Smithy Shape ID if this object has a namespace,...">
<polygon fill="white" stroke="#666666" points="251,-113 151,-113 151,-94 251,-94 251,-113"/>
<text text-anchor="middle" x="201" y="-101" font-family="Helvetica,sans-Serif" font-size="10.00">ShapeId::toString</text>
</a>
</g>
</g>
<!-- Node1&#45;&gt;Node16 -->
<g id="edge16" class="edge">
<title>Node1&#45;&gt;Node16</title>
<path fill="none" stroke="#63b8ff" d="M44.53,-222.95C53.12,-201.17 77.26,-147.66 116,-121.5 124.02,-116.09 133.36,-112.26 142.85,-109.57"/>
<polygon fill="#63b8ff" stroke="#63b8ff" points="150.82,-107.56 143.94,-113.01 146.94,-108.54 143.06,-109.51 143.06,-109.51 143.06,-109.51 146.94,-108.54 142.18,-106.02 150.82,-107.56 150.82,-107.56"/>
</g>
<!-- Node22 -->
<g id="node22" class="node">
<title>Node22</title>
<g id="a_node22"><a target="_parent" xlink:href="https://doc.qt.io/qt-5/qversionnumber.html#toString" xlink:title=" ">
<polygon fill="white" stroke="#666666" points="272.5,-76 129.5,-76 129.5,-57 272.5,-57 272.5,-76"/>
<text text-anchor="middle" x="201" y="-64" font-family="Helvetica,sans-Serif" font-size="10.00">QVersionNumber::toString</text>
</a>
</g>
</g>
<!-- Node1&#45;&gt;Node22 -->
<g id="edge28" class="edge">
<title>Node1&#45;&gt;Node22</title>
<path fill="none" stroke="#63b8ff" d="M42.92,-222.7C48.69,-195.92 68.54,-121.07 116,-84.5 118.19,-82.82 120.49,-81.28 122.9,-79.88"/>
<polygon fill="#63b8ff" stroke="#63b8ff" points="130.35,-76.09 124.86,-82.92 126.79,-77.9 123.23,-79.72 123.23,-79.72 123.23,-79.72 126.79,-77.9 121.59,-76.51 130.35,-76.09 130.35,-76.09"/>
</g>
<!-- Node23 -->
<g id="node23" class="node">
<title>Node23</title>
<g id="a_node23"><a target="_parent" xlink:href="https://doc.qt.io/qt-5/qjsonobject.html#value" xlink:title=" ">
<polygon fill="white" stroke="#666666" points="255.5,-39 146.5,-39 146.5,-20 255.5,-20 255.5,-39"/>
<text text-anchor="middle" x="201" y="-27" font-family="Helvetica,sans-Serif" font-size="10.00">QJsonObject::value</text>
</a>
</g>
</g>
<!-- Node1&#45;&gt;Node23 -->
<g id="edge29" class="edge">
<title>Node1&#45;&gt;Node23</title>
<path fill="none" stroke="#63b8ff" d="M41.85,-222.61C45.09,-191.52 59.46,-94.96 116,-47.5 122.49,-42.05 130.24,-38.13 138.37,-35.34"/>
<polygon fill="#63b8ff" stroke="#63b8ff" points="146.25,-32.98 139.62,-38.72 142.42,-34.13 138.59,-35.27 138.59,-35.27 138.59,-35.27 142.42,-34.13 137.56,-31.82 146.25,-32.98 146.25,-32.98"/>
</g>
<!-- Node3 -->
<g id="node3" class="node">
<title>Node3</title>
<g id="a_node3"><a target="_parent" xlink:href="https://doc.qt.io/qt-5/qstring.html#isEmpty" xlink:title=" ">
<polygon fill="white" stroke="#666666" points="977,-113 879,-113 879,-94 977,-94 977,-113"/>
<text text-anchor="middle" x="928" y="-101" font-family="Helvetica,sans-Serif" font-size="10.00">QString::isEmpty</text>
</a>
</g>
</g>
<!-- Node2&#45;&gt;Node3 -->
<g id="edge2" class="edge">
<title>Node2&#45;&gt;Node3</title>
<path fill="none" stroke="#63b8ff" d="M640.69,-147.54C691.98,-150.6 763.96,-151.63 826,-140.5 851.8,-135.87 879.67,-125.19 899.59,-116.49"/>
<polygon fill="#63b8ff" stroke="#63b8ff" points="907.07,-113.15 901.24,-119.7 903.42,-114.78 899.77,-116.41 899.77,-116.41 899.77,-116.41 903.42,-114.78 898.3,-113.13 907.07,-113.15 907.07,-113.15"/>
</g>
<!-- Node4 -->
<g id="node4" class="node">
<title>Node4</title>
<g id="a_node4"><a xlink:href="classShapeId.html#a0d88184bccd8dc5b22b67800aeccf092" target="_top" xlink:title="Returns the Shape ID&#39;s namespace, if it has one, otherwise a null string.">
<polygon fill="white" stroke="#666666" points="811,-132 692,-132 692,-113 811,-113 811,-132"/>
<text text-anchor="middle" x="751.5" y="-120" font-family="Helvetica,sans-Serif" font-size="10.00">ShapeId::nameSpace</text>
</a>
</g>
</g>
<!-- Node2&#45;&gt;Node4 -->
<g id="edge3" class="edge">
<title>Node2&#45;&gt;Node4</title>
<path fill="none" stroke="#63b8ff" d="M640.61,-134.26C654.7,-132.75 669.54,-131.17 683.6,-129.66"/>
<polygon fill="#63b8ff" stroke="#63b8ff" points="691.78,-128.79 684.2,-133.22 687.8,-129.21 683.82,-129.64 683.82,-129.64 683.82,-129.64 687.8,-129.21 683.44,-126.06 691.78,-128.79 691.78,-128.79"/>
</g>
<!-- Node7 -->
<g id="node7" class="node">
<title>Node7</title>
<g id="a_node7"><a target="_parent" xlink:href="https://doc.qt.io/qt-5/qregularexpressionmatch.html#hasMatch" xlink:title=" ">
<polygon fill="white" stroke="#666666" points="467,-390.5 322,-390.5 322,-360.5 467,-360.5 467,-390.5"/>
<text text-anchor="start" x="330" y="-378.5" font-family="Helvetica,sans-Serif" font-size="10.00">QRegularExpressionMatch</text>
<text text-anchor="middle" x="394.5" y="-367.5" font-family="Helvetica,sans-Serif" font-size="10.00">::hasMatch</text>
</a>
</g>
</g>
<!-- Node6&#45;&gt;Node7 -->
<g id="edge6" class="edge">
<title>Node6&#45;&gt;Node7</title>
<path fill="none" stroke="#63b8ff" d="M248.36,-351.25C267.98,-354.52 291.4,-358.44 313.65,-362.16"/>
<polygon fill="#63b8ff" stroke="#63b8ff" points="321.79,-363.52 313.3,-365.75 317.84,-362.86 313.9,-362.2 313.9,-362.2 313.9,-362.2 317.84,-362.86 314.49,-358.65 321.79,-363.52 321.79,-363.52"/>
</g>
<!-- Node8 -->
<g id="node8" class="node">
<title>Node8</title>
<g id="a_node8"><a target="_parent" xlink:href="https://doc.qt.io/qt-5/qregularexpression.html#isValid" xlink:title=" ">
<polygon fill="white" stroke="#666666" points="452,-342.5 337,-342.5 337,-312.5 452,-312.5 452,-342.5"/>
<text text-anchor="start" x="345" y="-330.5" font-family="Helvetica,sans-Serif" font-size="10.00">QRegularExpression</text>
<text text-anchor="middle" x="394.5" y="-319.5" font-family="Helvetica,sans-Serif" font-size="10.00">::isValid</text>
</a>
</g>
</g>
<!-- Node6&#45;&gt;Node8 -->
<g id="edge7" class="edge">
<title>Node6&#45;&gt;Node8</title>
<path fill="none" stroke="#63b8ff" d="M248.36,-339.63C272.53,-337.61 302.49,-335.1 328.91,-332.9"/>
<polygon fill="#63b8ff" stroke="#63b8ff" points="336.98,-332.22 329.31,-336.48 332.99,-332.56 329.01,-332.89 329.01,-332.89 329.01,-332.89 332.99,-332.56 328.71,-329.3 336.98,-332.22 336.98,-332.22"/>
</g>
<!-- Node9 -->
<g id="node9" class="node">
<title>Node9</title>
<g id="a_node9"><a target="_parent" xlink:href="https://doc.qt.io/qt-5/qregularexpression.html#match" xlink:title=" ">
<polygon fill="white" stroke="#666666" points="452,-294.5 337,-294.5 337,-264.5 452,-264.5 452,-294.5"/>
<text text-anchor="start" x="345" y="-282.5" font-family="Helvetica,sans-Serif" font-size="10.00">QRegularExpression</text>
<text text-anchor="middle" x="394.5" y="-271.5" font-family="Helvetica,sans-Serif" font-size="10.00">::match</text>
</a>
</g>
</g>
<!-- Node6&#45;&gt;Node9 -->
<g id="edge8" class="edge">
<title>Node6&#45;&gt;Node9</title>
<path fill="none" stroke="#63b8ff" d="M248.17,-336.52C260.7,-333.85 274.09,-330.26 286,-325.5 303.41,-318.55 305,-311.42 322,-303.5 326.52,-301.39 331.27,-299.38 336.09,-297.49"/>
<polygon fill="#63b8ff" stroke="#63b8ff" points="343.7,-294.6 337.5,-300.81 339.96,-296.02 336.22,-297.44 336.22,-297.44 336.22,-297.44 339.96,-296.02 334.94,-294.07 343.7,-294.6 343.7,-294.6"/>
</g>
<!-- Node13&#45;&gt;Node13 -->
<g id="edge14" class="edge">
<title>Node13&#45;&gt;Node13</title>
<path fill="none" stroke="#63b8ff" d="M176.34,-187.08C164.34,-195.73 172.56,-205 201,-205 222.33,-205 232.28,-199.79 230.87,-193.53"/>
<polygon fill="#63b8ff" stroke="#63b8ff" points="225.66,-187.08 233.49,-191.05 228.17,-190.2 230.69,-193.31 230.69,-193.31 230.69,-193.31 228.17,-190.2 227.89,-195.57 225.66,-187.08 225.66,-187.08"/>
</g>
<!-- Node14 -->
<g id="node14" class="node">
<title>Node14</title>
<g id="a_node14"><a target="_parent" xlink:href="https://doc.qt.io/qt-5/qhash.html#insert" xlink:title=" ">
<polygon fill="white" stroke="#666666" points="436,-189 353,-189 353,-170 436,-170 436,-189"/>
<text text-anchor="middle" x="394.5" y="-177" font-family="Helvetica,sans-Serif" font-size="10.00">QHash::insert</text>
</a>
</g>
</g>
<!-- Node13&#45;&gt;Node14 -->
<g id="edge13" class="edge">
<title>Node13&#45;&gt;Node14</title>
<path fill="none" stroke="#63b8ff" d="M244.5,-177.94C274.14,-178.25 313.75,-178.67 344.69,-178.99"/>
<polygon fill="#63b8ff" stroke="#63b8ff" points="352.76,-179.07 344.72,-182.59 348.76,-179.03 344.76,-178.99 344.76,-178.99 344.76,-178.99 348.76,-179.03 344.8,-175.39 352.76,-179.07 352.76,-179.07"/>
</g>
<!-- Node16&#45;&gt;Node2 -->
<g id="edge26" class="edge">
<title>Node16&#45;&gt;Node2</title>
<path fill="none" stroke="#63b8ff" d="M251.23,-111.67C272.89,-115.06 298.66,-118.82 322,-121.5 379.95,-128.17 445.75,-133.35 495.15,-136.77"/>
<polygon fill="#63b8ff" stroke="#63b8ff" points="503.24,-137.32 495.01,-140.37 499.25,-137.05 495.26,-136.77 495.26,-136.77 495.26,-136.77 499.25,-137.05 495.51,-133.18 503.24,-137.32 503.24,-137.32"/>
</g>
<!-- Node17 -->
<g id="node17" class="node">
<title>Node17</title>
<g id="a_node17"><a xlink:href="classShapeId.html#a42ae1231e4d242958ab12e61504e33ca" target="_top" xlink:title="Returns this object as an absolute Smithy Shape ID if this object has a namespace,...">
<polygon fill="white" stroke="#666666" points="466,-113 323,-113 323,-94 466,-94 466,-113"/>
<text text-anchor="middle" x="394.5" y="-101" font-family="Helvetica,sans-Serif" font-size="10.00">ShapeId::absoluteShapeId</text>
</a>
</g>
</g>
<!-- Node16&#45;&gt;Node17 -->
<g id="edge17" class="edge">
<title>Node16&#45;&gt;Node17</title>
<path fill="none" stroke="#63b8ff" d="M251.32,-103.5C270.58,-103.5 293.14,-103.5 314.55,-103.5"/>
<polygon fill="#63b8ff" stroke="#63b8ff" points="322.69,-103.5 314.69,-107.1 318.69,-103.5 314.69,-103.5 314.69,-103.5 314.69,-103.5 318.69,-103.5 314.69,-99.9 322.69,-103.5 322.69,-103.5"/>
</g>
<!-- Node18 -->
<g id="node18" class="node">
<title>Node18</title>
<g id="a_node18"><a xlink:href="classShapeId.html#aad508460b545930c3aeb82021e79de5a" target="_top" xlink:title="Returns this object as a relative Smithy Shape ID, that one without a leading namespace.">
<polygon fill="white" stroke="#666666" points="641,-75 503,-75 503,-56 641,-56 641,-75"/>
<text text-anchor="middle" x="572" y="-63" font-family="Helvetica,sans-Serif" font-size="10.00">ShapeId::relativeShapeId</text>
</a>
</g>
</g>
<!-- Node16&#45;&gt;Node18 -->
<g id="edge27" class="edge">
<title>Node16&#45;&gt;Node18</title>
<path fill="none" stroke="#63b8ff" d="M251.21,-94.79C272.87,-91.19 298.64,-87.24 322,-84.5 379.82,-77.73 445.49,-72.83 494.86,-69.71"/>
<polygon fill="#63b8ff" stroke="#63b8ff" points="502.96,-69.2 495.2,-73.3 498.96,-69.45 494.97,-69.7 494.97,-69.7 494.97,-69.7 498.96,-69.45 494.75,-66.11 502.96,-69.2 502.96,-69.2"/>
</g>
<!-- Node17&#45;&gt;Node2 -->
<g id="edge18" class="edge">
<title>Node17&#45;&gt;Node2</title>
<path fill="none" stroke="#63b8ff" d="M439.79,-113.09C463.88,-118.31 493.83,-124.79 519.03,-130.25"/>
<polygon fill="#63b8ff" stroke="#63b8ff" points="527.03,-131.98 518.45,-133.81 523.12,-131.13 519.21,-130.29 519.21,-130.29 519.21,-130.29 523.12,-131.13 519.98,-126.77 527.03,-131.98 527.03,-131.98"/>
</g>
<!-- Node17&#45;&gt;Node4 -->
<g id="edge19" class="edge">
<title>Node17&#45;&gt;Node4</title>
<path fill="none" stroke="#63b8ff" d="M466.06,-107.28C529.34,-110.66 621.53,-115.6 683.65,-118.92"/>
<polygon fill="#63b8ff" stroke="#63b8ff" points="691.83,-119.36 683.65,-122.53 687.83,-119.15 683.84,-118.93 683.84,-118.93 683.84,-118.93 687.83,-119.15 684.03,-115.34 691.83,-119.36 691.83,-119.36"/>
</g>
<!-- Node17&#45;&gt;Node18 -->
<g id="edge20" class="edge">
<title>Node17&#45;&gt;Node18</title>
<path fill="none" stroke="#63b8ff" d="M439.79,-93.91C463.88,-88.69 493.83,-82.21 519.03,-76.75"/>
<polygon fill="#63b8ff" stroke="#63b8ff" points="527.03,-75.02 519.98,-80.23 523.12,-75.87 519.21,-76.71 519.21,-76.71 519.21,-76.71 523.12,-75.87 518.45,-73.19 527.03,-75.02 527.03,-75.02"/>
</g>
<!-- Node19 -->
<g id="node19" class="node">
<title>Node19</title>
<g id="a_node19"><a xlink:href="classShapeId.html#a6f1fc0aab99d0108fc3f1eeb5a4d2687" target="_top" xlink:title="Returns true if this Shape ID has a non&#45;empty member name, otherwise false otherwise.">
<polygon fill="white" stroke="#666666" points="826,-95 677,-95 677,-76 826,-76 826,-95"/>
<text text-anchor="middle" x="751.5" y="-83" font-family="Helvetica,sans-Serif" font-size="10.00">ShapeId::hasMemberName</text>
</a>
</g>
</g>
<!-- Node18&#45;&gt;Node19 -->
<g id="edge21" class="edge">
<title>Node18&#45;&gt;Node19</title>
<path fill="none" stroke="#63b8ff" d="M641.12,-73.18C650.19,-74.2 659.57,-75.25 668.85,-76.3"/>
<polygon fill="#63b8ff" stroke="#63b8ff" points="676.96,-77.21 668.61,-79.9 672.98,-76.77 669.01,-76.32 669.01,-76.32 669.01,-76.32 672.98,-76.77 669.41,-72.74 676.96,-77.21 676.96,-77.21"/>
</g>
<!-- Node20 -->
<g id="node20" class="node">
<title>Node20</title>
<g id="a_node20"><a xlink:href="classShapeId.html#a9b1580e3aa193c99d000aa084def3a70" target="_top" xlink:title="Returns the Shape ID&#39;s member name, if it has one, otherwise a null string.">
<polygon fill="white" stroke="#666666" points="994,-76 862,-76 862,-57 994,-57 994,-76"/>
<text text-anchor="middle" x="928" y="-64" font-family="Helvetica,sans-Serif" font-size="10.00">ShapeId::memberName</text>
</a>
</g>
</g>
<!-- Node18&#45;&gt;Node20 -->
<g id="edge24" class="edge">
<title>Node18&#45;&gt;Node20</title>
<path fill="none" stroke="#63b8ff" d="M641.25,-65.69C702.21,-65.86 791.25,-66.12 853.7,-66.29"/>
<polygon fill="#63b8ff" stroke="#63b8ff" points="861.94,-66.32 853.93,-69.89 857.94,-66.3 853.94,-66.29 853.94,-66.29 853.94,-66.29 857.94,-66.3 853.95,-62.69 861.94,-66.32 861.94,-66.32"/>
</g>
<!-- Node21 -->
<g id="node21" class="node">
<title>Node21</title>
<g id="a_node21"><a xlink:href="classShapeId.html#a8aad9a1383c03aee2f33b1568e89f688" target="_top" xlink:title="Returns the Shape ID&#39;s shape name, if it has one, otherwise a null string.">
<polygon fill="white" stroke="#666666" points="811.5,-19 691.5,-19 691.5,0 811.5,0 811.5,-19"/>
<text text-anchor="middle" x="751.5" y="-7" font-family="Helvetica,sans-Serif" font-size="10.00">ShapeId::shapeName</text>
</a>
</g>
</g>
<!-- Node18&#45;&gt;Node21 -->
<g id="edge25" class="edge">
<title>Node18&#45;&gt;Node21</title>
<path fill="none" stroke="#63b8ff" d="M603.51,-55.87C633.67,-46.36 679.88,-31.78 712.42,-21.51"/>
<polygon fill="#63b8ff" stroke="#63b8ff" points="720.38,-19 713.84,-24.84 716.57,-20.2 712.76,-21.41 712.76,-21.41 712.76,-21.41 716.57,-20.2 711.67,-17.97 720.38,-19 720.38,-19"/>
</g>
<!-- Node19&#45;&gt;Node3 -->
<g id="edge22" class="edge">
<title>Node19&#45;&gt;Node3</title>
<path fill="none" stroke="#63b8ff" d="M826.25,-93.11C841.1,-94.64 856.49,-96.23 870.63,-97.69"/>
<polygon fill="#63b8ff" stroke="#63b8ff" points="878.8,-98.53 870.48,-101.29 874.82,-98.12 870.84,-97.71 870.84,-97.71 870.84,-97.71 874.82,-98.12 871.21,-94.13 878.8,-98.53 878.8,-98.53"/>
</g>
<!-- Node19&#45;&gt;Node20 -->
<g id="edge23" class="edge">
<title>Node19&#45;&gt;Node20</title>
<path fill="none" stroke="#63b8ff" d="M826.25,-77.47C835.39,-76.47 844.73,-75.46 853.85,-74.46"/>
<polygon fill="#63b8ff" stroke="#63b8ff" points="861.81,-73.6 854.25,-78.04 857.83,-74.03 853.86,-74.46 853.86,-74.46 853.86,-74.46 857.83,-74.03 853.47,-70.89 861.81,-73.6 861.81,-73.6"/>
</g>
</g>
</svg>
