<?xml version="1.0" encoding="UTF-8" standalone="no"?>
<!DOCTYPE svg PUBLIC "-//W3C//DTD SVG 1.1//EN"
 "http://www.w3.org/Graphics/SVG/1.1/DTD/svg11.dtd">
<!-- Generated by graphviz version 2.43.0 (0)
 -->
<!-- Title: ShapeId::relativeShapeId Pages: 1 -->
<svg width="499pt" height="103pt"
 viewBox="0.00 0.00 499.00 103.00" xmlns="http://www.w3.org/2000/svg" xmlns:xlink="http://www.w3.org/1999/xlink">
<g id="graph0" class="graph" transform="scale(1 1) rotate(0) translate(4 99)">
<title>ShapeId::relativeShapeId</title>
<!-- Node1 -->
<g id="node1" class="node">
<title>Node1</title>
<g id="a_node1"><a xlink:title="Returns this object as a relative Smithy Shape ID, that one without a leading namespace.">
<polygon fill="#999999" stroke="#666666" points="138,-57 0,-57 0,-38 138,-38 138,-57"/>
<text text-anchor="middle" x="69" y="-45" font-family="Helvetica,sans-Serif" font-size="10.00">ShapeId::relativeShapeId</text>
</a>
</g>
</g>
<!-- Node2 -->
<g id="node2" class="node">
<title>Node2</title>
<g id="a_node2"><a xlink:href="classShapeId.html#a6f1fc0aab99d0108fc3f1eeb5a4d2687" target="_top" xlink:title="Returns true if this Shape ID has a non&#45;empty member name, otherwise false otherwise.">
<polygon fill="white" stroke="#666666" points="323,-95 174,-95 174,-76 323,-76 323,-95"/>
<text text-anchor="middle" x="248.5" y="-83" font-family="Helvetica,sans-Serif" font-size="10.00">ShapeId::hasMemberName</text>
</a>
</g>
</g>
<!-- Node1&#45;&gt;Node2 -->
<g id="edge1" class="edge">
<title>Node1&#45;&gt;Node2</title>
<path fill="none" stroke="#63b8ff" d="M114.79,-57.09C139.16,-62.31 169.45,-68.79 194.94,-74.25"/>
<polygon fill="#63b8ff" stroke="#63b8ff" points="203.03,-75.98 194.45,-77.83 199.12,-75.14 195.21,-74.31 195.21,-74.31 195.21,-74.31 199.12,-75.14 195.96,-70.78 203.03,-75.98 203.03,-75.98"/>
</g>
<!-- Node4 -->
<g id="node4" class="node">
<title>Node4</title>
<g id="a_node4"><a xlink:href="classShapeId.html#a9b1580e3aa193c99d000aa084def3a70" target="_top" xlink:title="Returns the Shape ID&#39;s member name, if it has one, otherwise a null string.">
<polygon fill="white" stroke="#666666" points="491,-58 359,-58 359,-39 491,-39 491,-58"/>
<text text-anchor="middle" x="425" y="-46" font-family="Helvetica,sans-Serif" font-size="10.00">ShapeId::memberName</text>
</a>
</g>
</g>
<!-- Node1&#45;&gt;Node4 -->
<g id="edge4" class="edge">
<title>Node1&#45;&gt;Node4</title>
<path fill="none" stroke="#63b8ff" d="M138.25,-47.69C199.21,-47.86 288.25,-48.12 350.7,-48.29"/>
<polygon fill="#63b8ff" stroke="#63b8ff" points="358.94,-48.32 350.93,-51.89 354.94,-48.3 350.94,-48.29 350.94,-48.29 350.94,-48.29 354.94,-48.3 350.95,-44.69 358.94,-48.32 358.94,-48.32"/>
</g>
<!-- Node5 -->
<g id="node5" class="node">
<title>Node5</title>
<g id="a_node5"><a xlink:href="classShapeId.html#a8aad9a1383c03aee2f33b1568e89f688" target="_top" xlink:title="Returns the Shape ID&#39;s shape name, if it has one, otherwise a null string.">
<polygon fill="white" stroke="#666666" points="308.5,-19 188.5,-19 188.5,0 308.5,0 308.5,-19"/>
<text text-anchor="middle" x="248.5" y="-7" font-family="Helvetica,sans-Serif" font-size="10.00">ShapeId::shapeName</text>
</a>
</g>
</g>
<!-- Node1&#45;&gt;Node5 -->
<g id="edge5" class="edge">
<title>Node1&#45;&gt;Node5</title>
<path fill="none" stroke="#63b8ff" d="M114.79,-37.91C139.16,-32.69 169.45,-26.21 194.94,-20.75"/>
<polygon fill="#63b8ff" stroke="#63b8ff" points="203.03,-19.02 195.96,-24.22 199.12,-19.86 195.21,-20.69 195.21,-20.69 195.21,-20.69 199.12,-19.86 194.45,-17.17 203.03,-19.02 203.03,-19.02"/>
</g>
<!-- Node3 -->
<g id="node3" class="node">
<title>Node3</title>
<g id="a_node3"><a target="_parent" xlink:href="https://doc.qt.io/qt-5/qstring.html#isEmpty" xlink:title=" ">
<polygon fill="white" stroke="#666666" points="474,-95 376,-95 376,-76 474,-76 474,-95"/>
<text text-anchor="middle" x="425" y="-83" font-family="Helvetica,sans-Serif" font-size="10.00">QString::isEmpty</text>
</a>
</g>
</g>
<!-- Node2&#45;&gt;Node3 -->
<g id="edge2" class="edge">
<title>Node2&#45;&gt;Node3</title>
<path fill="none" stroke="#63b8ff" d="M323.25,-85.5C338.1,-85.5 353.49,-85.5 367.63,-85.5"/>
<polygon fill="#63b8ff" stroke="#63b8ff" points="375.8,-85.5 367.8,-89.1 371.8,-85.5 367.8,-85.5 367.8,-85.5 367.8,-85.5 371.8,-85.5 367.8,-81.9 375.8,-85.5 375.8,-85.5"/>
</g>
<!-- Node2&#45;&gt;Node4 -->
<g id="edge3" class="edge">
<title>Node2&#45;&gt;Node4</title>
<path fill="none" stroke="#63b8ff" d="M294.44,-75.97C317.75,-71.03 346.39,-64.96 370.81,-59.78"/>
<polygon fill="#63b8ff" stroke="#63b8ff" points="378.91,-58.06 371.83,-63.24 375,-58.89 371.09,-59.72 371.09,-59.72 371.09,-59.72 375,-58.89 370.34,-56.2 378.91,-58.06 378.91,-58.06"/>
</g>
</g>
</svg>
