<?xml version="1.0" encoding="UTF-8" standalone="no"?>
<!DOCTYPE svg PUBLIC "-//W3C//DTD SVG 1.1//EN"
 "http://www.w3.org/Graphics/SVG/1.1/DTD/svg11.dtd">
<!-- Generated by graphviz version 2.43.0 (0)
 -->
<!-- Title: Generator::generate Pages: 1 -->
<svg width="257pt" height="64pt"
 viewBox="0.00 0.00 257.00 64.00" xmlns="http://www.w3.org/2000/svg" xmlns:xlink="http://www.w3.org/1999/xlink">
<g id="graph0" class="graph" transform="scale(1 1) rotate(0) translate(4 60)">
<title>Generator::generate</title>
<!-- Node1 -->
<g id="node1" class="node">
<title>Node1</title>
<g id="a_node1"><a xlink:title=" ">
<polygon fill="#999999" stroke="#666666" points="115,-37 0,-37 0,-18 115,-18 115,-37"/>
<text text-anchor="middle" x="57.5" y="-25" font-family="Helvetica,sans-Serif" font-size="10.00">Generator::generate</text>
</a>
</g>
</g>
<!-- Node2 -->
<g id="node2" class="node">
<title>Node2</title>
<g id="a_node2"><a target="_parent" xlink:href="https://doc.qt.io/qt-5/qstring.html#arg-11" xlink:title=" ">
<polygon fill="white" stroke="#666666" points="237,-56 163,-56 163,-37 237,-37 237,-56"/>
<text text-anchor="middle" x="200" y="-44" font-family="Helvetica,sans-Serif" font-size="10.00">QString::arg</text>
</a>
</g>
</g>
<!-- Node1&#45;&gt;Node2 -->
<g id="edge1" class="edge">
<title>Node1&#45;&gt;Node2</title>
<path fill="none" stroke="#63b8ff" d="M115.24,-35.17C128.36,-36.95 142.13,-38.81 154.64,-40.5"/>
<polygon fill="#63b8ff" stroke="#63b8ff" points="162.65,-41.58 154.24,-44.08 158.68,-41.05 154.72,-40.51 154.72,-40.51 154.72,-40.51 158.68,-41.05 155.2,-36.94 162.65,-41.58 162.65,-41.58"/>
</g>
<!-- Node3 -->
<g id="node3" class="node">
<title>Node3</title>
<g id="a_node3"><a target="_parent" xlink:href="https://doc.qt.io/qt-5/qstring.html#isEmpty" xlink:title=" ">
<polygon fill="white" stroke="#666666" points="249,-19 151,-19 151,0 249,0 249,-19"/>
<text text-anchor="middle" x="200" y="-7" font-family="Helvetica,sans-Serif" font-size="10.00">QString::isEmpty</text>
</a>
</g>
</g>
<!-- Node1&#45;&gt;Node3 -->
<g id="edge2" class="edge">
<title>Node1&#45;&gt;Node3</title>
<path fill="none" stroke="#63b8ff" d="M115.24,-20.23C124.22,-19.08 133.51,-17.89 142.48,-16.74"/>
<polygon fill="#63b8ff" stroke="#63b8ff" points="150.62,-15.7 143.14,-20.29 146.65,-16.21 142.68,-16.72 142.68,-16.72 142.68,-16.72 146.65,-16.21 142.23,-13.14 150.62,-15.7 150.62,-15.7"/>
</g>
</g>
</svg>
