<?xml version="1.0" encoding="UTF-8" standalone="no"?>
<!DOCTYPE svg PUBLIC "-//W3C//DTD SVG 1.1//EN"
 "http://www.w3.org/Graphics/SVG/1.1/DTD/svg11.dtd">
<!-- Generated by graphviz version 2.43.0 (0)
 -->
<!-- Title: Model Pages: 1 -->
<svg width="359pt" height="209pt"
 viewBox="0.00 0.00 359.00 208.50" xmlns="http://www.w3.org/2000/svg" xmlns:xlink="http://www.w3.org/1999/xlink">
<g id="graph0" class="graph" transform="scale(1 1) rotate(0) translate(4 204.5)">
<title>Model</title>
<!-- Node1 -->
<g id="node1" class="node">
<title>Node1</title>
<g id="a_node1"><a xlink:title="The Model class provides a Qt representation of a Smithy semantic model.">
<polygon fill="#999999" stroke="#666666" points="96.5,-196 49.5,-196 49.5,-177 96.5,-177 96.5,-196"/>
<text text-anchor="middle" x="73" y="-184" font-family="Helvetica,sans-Serif" font-size="10.00">Model</text>
</a>
</g>
</g>
<!-- Node2 -->
<g id="node2" class="node">
<title>Node2</title>
<g id="a_node2"><a xlink:href="classModelPrivate.html" target="_top" xlink:title="The ModelPrivate class provides private implementation for Model.">
<polygon fill="white" stroke="#666666" points="351,-116 270,-116 270,-97 351,-97 351,-116"/>
<text text-anchor="middle" x="310.5" y="-104" font-family="Helvetica,sans-Serif" font-size="10.00">ModelPrivate</text>
</a>
</g>
</g>
<!-- Node1&#45;&gt;Node2 -->
<g id="edge2" class="edge">
<title>Node1&#45;&gt;Node2</title>
<path fill="none" stroke="#9a32cd" stroke-dasharray="5,2" d="M105.16,-190.04C142.21,-192.84 204.95,-193 252,-169.5 276.11,-157.46 295,-130.7 303.91,-116.23"/>
<polygon fill="#9a32cd" stroke="#9a32cd" points="96.77,-189.33 105.04,-186.42 100.75,-189.67 104.74,-190.01 104.74,-190.01 104.74,-190.01 100.75,-189.67 104.44,-193.6 96.77,-189.33 96.77,-189.33"/>
<text text-anchor="middle" x="208" y="-192.5" font-family="Helvetica,sans-Serif" font-size="10.00"> q_ptr</text>
</g>
<!-- Node2&#45;&gt;Node1 -->
<g id="edge1" class="edge">
<title>Node2&#45;&gt;Node1</title>
<path fill="none" stroke="#9a32cd" stroke-dasharray="5,2" d="M285.5,-120.03C275.38,-125.36 263.33,-131.22 252,-135.5 214.19,-149.79 202.87,-147.38 164,-158.5 141.03,-165.07 114.99,-173.25 96.85,-179.07"/>
<polygon fill="#9a32cd" stroke="#9a32cd" points="292.82,-116.1 287.48,-123.06 289.29,-117.99 285.77,-119.89 285.77,-119.89 285.77,-119.89 289.29,-117.99 284.07,-116.72 292.82,-116.1 292.82,-116.1"/>
<text text-anchor="middle" x="208" y="-161.5" font-family="Helvetica,sans-Serif" font-size="10.00"> d_ptr</text>
</g>
<!-- Node3 -->
<g id="node3" class="node">
<title>Node3</title>
<g id="a_node3"><a target="_parent" xlink:href="https://doc.qt.io/qt-5/qmultihash.html" xlink:title=" ">
<polygon fill="white" stroke="#bfbfbf" points="135,-152.5 11,-152.5 11,-122.5 135,-122.5 135,-152.5"/>
<text text-anchor="start" x="19" y="-140.5" font-family="Helvetica,sans-Serif" font-size="10.00">QMultiHash&lt; QString,</text>
<text text-anchor="middle" x="73" y="-129.5" font-family="Helvetica,sans-Serif" font-size="10.00"> QJsonValue &gt;</text>
</a>
</g>
</g>
<!-- Node3&#45;&gt;Node2 -->
<g id="edge3" class="edge">
<title>Node3&#45;&gt;Node2</title>
<path fill="none" stroke="#9a32cd" stroke-dasharray="5,2" d="M143.55,-127.31C150.46,-126.34 157.36,-125.39 164,-124.5 199.82,-119.7 240.67,-114.68 269.95,-111.17"/>
<polygon fill="#9a32cd" stroke="#9a32cd" points="135.46,-128.45 142.88,-123.77 139.42,-127.89 143.38,-127.33 143.38,-127.33 143.38,-127.33 139.42,-127.89 143.89,-130.9 135.46,-128.45 135.46,-128.45"/>
<text text-anchor="middle" x="208" y="-127.5" font-family="Helvetica,sans-Serif" font-size="10.00"> allMetadata</text>
</g>
<!-- Node4 -->
<g id="node4" class="node">
<title>Node4</title>
<g id="a_node4"><a target="_parent" xlink:href="https://doc.qt.io/qt-5/qmultihash.html" xlink:title=" ">
<polygon fill="white" stroke="#bfbfbf" points="136.5,-104.5 9.5,-104.5 9.5,-74.5 136.5,-74.5 136.5,-104.5"/>
<text text-anchor="start" x="17.5" y="-92.5" font-family="Helvetica,sans-Serif" font-size="10.00">QMultiHash&lt; ShapeId,</text>
<text text-anchor="middle" x="73" y="-81.5" font-family="Helvetica,sans-Serif" font-size="10.00"> Shape &gt;</text>
</a>
</g>
</g>
<!-- Node4&#45;&gt;Node2 -->
<g id="edge4" class="edge">
<title>Node4&#45;&gt;Node2</title>
<path fill="none" stroke="#9a32cd" stroke-dasharray="5,2" d="M145.07,-85.6C177.78,-84.9 217.01,-85.62 252,-90.5 261.54,-91.83 271.74,-94.31 280.86,-96.92"/>
<polygon fill="#9a32cd" stroke="#9a32cd" points="136.9,-85.8 144.81,-82 140.9,-85.7 144.9,-85.6 144.9,-85.6 144.9,-85.6 140.9,-85.7 144.99,-89.2 136.9,-85.8 136.9,-85.8"/>
<text text-anchor="middle" x="208" y="-93.5" font-family="Helvetica,sans-Serif" font-size="10.00"> allShapes</text>
</g>
<!-- Node5 -->
<g id="node5" class="node">
<title>Node5</title>
<g id="a_node5"><a target="_parent" xlink:href="https://doc.qt.io/qt-5/qjsonobject.html" xlink:title=" ">
<polygon fill="white" stroke="#bfbfbf" points="111,-56 35,-56 35,-37 111,-37 111,-56"/>
<text text-anchor="middle" x="73" y="-44" font-family="Helvetica,sans-Serif" font-size="10.00">QJsonObject</text>
</a>
</g>
</g>
<!-- Node5&#45;&gt;Node2 -->
<g id="edge5" class="edge">
<title>Node5&#45;&gt;Node2</title>
<path fill="none" stroke="#9a32cd" stroke-dasharray="5,2" d="M119.32,-46.89C156.09,-48.48 208.73,-53.7 252,-69.5 269.39,-75.85 286.94,-88.2 298,-96.88"/>
<polygon fill="#9a32cd" stroke="#9a32cd" points="111.26,-46.58 119.39,-43.29 115.25,-46.73 119.25,-46.88 119.25,-46.88 119.25,-46.88 115.25,-46.73 119.12,-50.48 111.26,-46.58 111.26,-46.58"/>
<text text-anchor="middle" x="208" y="-72.5" font-family="Helvetica,sans-Serif" font-size="10.00"> mergedMetadata</text>
</g>
<!-- Node6 -->
<g id="node6" class="node">
<title>Node6</title>
<g id="a_node6"><a target="_parent" xlink:href="https://doc.qt.io/qt-5/qhash.html" xlink:title=" ">
<polygon fill="white" stroke="#bfbfbf" points="146,-19 0,-19 0,0 146,0 146,-19"/>
<text text-anchor="middle" x="73" y="-7" font-family="Helvetica,sans-Serif" font-size="10.00">QHash&lt; ShapeId, Shape &gt;</text>
</a>
</g>
</g>
<!-- Node6&#45;&gt;Node2 -->
<g id="edge6" class="edge">
<title>Node6&#45;&gt;Node2</title>
<path fill="none" stroke="#9a32cd" stroke-dasharray="5,2" d="M154.42,-8.8C186.52,-11.6 222.73,-18.83 252,-35.5 277.64,-50.1 296.38,-80.96 304.7,-96.75"/>
<polygon fill="#9a32cd" stroke="#9a32cd" points="146.36,-8.18 154.61,-5.2 150.35,-8.49 154.34,-8.79 154.34,-8.79 154.34,-8.79 150.35,-8.49 154.06,-12.38 146.36,-8.18 146.36,-8.18"/>
<text text-anchor="middle" x="208" y="-38.5" font-family="Helvetica,sans-Serif" font-size="10.00"> mergedShapes</text>
</g>
</g>
</svg>
