<?xml version="1.0" encoding="UTF-8" standalone="no"?>
<!DOCTYPE svg PUBLIC "-//W3C//DTD SVG 1.1//EN"
 "http://www.w3.org/Graphics/SVG/1.1/DTD/svg11.dtd">
<!-- Generated by graphviz version 2.43.0 (0)
 -->
<!-- Title: Generator::generate Pages: 1 -->
<svg width="694pt" height="516pt"
 viewBox="0.00 0.00 694.00 515.57" xmlns="http://www.w3.org/2000/svg" xmlns:xlink="http://www.w3.org/1999/xlink">
<g id="graph0" class="graph" transform="scale(1 1) rotate(0) translate(4 511.57)">
<title>Generator::generate</title>
<!-- Node1 -->
<g id="node1" class="node">
<title>Node1</title>
<g id="a_node1"><a xlink:title=" ">
<polygon fill="#999999" stroke="#666666" points="115,-308 0,-308 0,-289 115,-289 115,-308"/>
<text text-anchor="middle" x="57.5" y="-296" font-family="Helvetica,sans-Serif" font-size="10.00">Generator::generate</text>
</a>
</g>
</g>
<!-- Node2 -->
<g id="node2" class="node">
<title>Node2</title>
<g id="a_node2"><a target="_parent" xlink:href="https://doc.qt.io/qt-5/qlist.html#append" xlink:title=" ">
<polygon fill="white" stroke="#666666" points="673,-500 590,-500 590,-481 673,-481 673,-500"/>
<text text-anchor="middle" x="631.5" y="-488" font-family="Helvetica,sans-Serif" font-size="10.00">QList::append</text>
</a>
</g>
</g>
<!-- Node1&#45;&gt;Node2 -->
<g id="edge1" class="edge">
<title>Node1&#45;&gt;Node2</title>
<path fill="none" stroke="#63b8ff" d="M61.53,-308.24C70.35,-334.79 98.78,-408.58 151,-440.5 288.43,-524.51 490.2,-510.47 581.92,-498.32"/>
<polygon fill="#63b8ff" stroke="#63b8ff" points="589.92,-497.23 582.48,-501.88 585.96,-497.77 581.99,-498.31 581.99,-498.31 581.99,-498.31 585.96,-497.77 581.51,-494.74 589.92,-497.23 589.92,-497.23"/>
</g>
<!-- Node3 -->
<g id="node3" class="node">
<title>Node3</title>
<g id="a_node3"><a target="_parent" xlink:href="https://doc.qt.io/qt-5/qlist.html#constBegin" xlink:title=" ">
<polygon fill="white" stroke="#666666" points="277,-431 176,-431 176,-412 277,-412 277,-431"/>
<text text-anchor="middle" x="226.5" y="-419" font-family="Helvetica,sans-Serif" font-size="10.00">QList::constBegin</text>
</a>
</g>
</g>
<!-- Node1&#45;&gt;Node3 -->
<g id="edge2" class="edge">
<title>Node1&#45;&gt;Node3</title>
<path fill="none" stroke="#63b8ff" d="M64.06,-308.08C76.67,-328.93 109.6,-378.53 151,-403.5 156.29,-406.69 162.11,-409.31 168.09,-411.47"/>
<polygon fill="#63b8ff" stroke="#63b8ff" points="175.73,-413.97 167.01,-414.91 171.93,-412.73 168.12,-411.49 168.12,-411.49 168.12,-411.49 171.93,-412.73 169.24,-408.06 175.73,-413.97 175.73,-413.97"/>
</g>
<!-- Node4 -->
<g id="node4" class="node">
<title>Node4</title>
<g id="a_node4"><a target="_parent" xlink:href="https://doc.qt.io/qt-5/qlist.html#constEnd" xlink:title=" ">
<polygon fill="white" stroke="#666666" points="272.5,-394 180.5,-394 180.5,-375 272.5,-375 272.5,-394"/>
<text text-anchor="middle" x="226.5" y="-382" font-family="Helvetica,sans-Serif" font-size="10.00">QList::constEnd</text>
</a>
</g>
</g>
<!-- Node1&#45;&gt;Node4 -->
<g id="edge3" class="edge">
<title>Node1&#45;&gt;Node4</title>
<path fill="none" stroke="#63b8ff" d="M69.03,-308.22C85.36,-322.78 118.32,-350.18 151,-365.5 157.75,-368.66 165.09,-371.35 172.45,-373.62"/>
<polygon fill="#63b8ff" stroke="#63b8ff" points="180.42,-375.91 171.74,-377.16 176.58,-374.81 172.74,-373.7 172.74,-373.7 172.74,-373.7 176.58,-374.81 173.73,-370.24 180.42,-375.91 180.42,-375.91"/>
</g>
<!-- Node5 -->
<g id="node5" class="node">
<title>Node5</title>
<g id="a_node5"><a target="_parent" xlink:href="https://doc.qt.io/qt-5/qregularexpressionmatch.html#hasMatch" xlink:title=" ">
<polygon fill="white" stroke="#666666" points="299,-356.5 154,-356.5 154,-326.5 299,-326.5 299,-356.5"/>
<text text-anchor="start" x="162" y="-344.5" font-family="Helvetica,sans-Serif" font-size="10.00">QRegularExpressionMatch</text>
<text text-anchor="middle" x="226.5" y="-333.5" font-family="Helvetica,sans-Serif" font-size="10.00">::hasMatch</text>
</a>
</g>
</g>
<!-- Node1&#45;&gt;Node5 -->
<g id="edge4" class="edge">
<title>Node1&#45;&gt;Node5</title>
<path fill="none" stroke="#63b8ff" d="M95.56,-308.04C114.31,-312.87 137.62,-318.87 159.31,-324.46"/>
<polygon fill="#63b8ff" stroke="#63b8ff" points="167.22,-326.49 158.57,-327.99 163.35,-325.5 159.47,-324.5 159.47,-324.5 159.47,-324.5 163.35,-325.5 160.37,-321.01 167.22,-326.49 167.22,-326.49"/>
</g>
<!-- Node6 -->
<g id="node6" class="node">
<title>Node6</title>
<g id="a_node6"><a target="_parent" xlink:href="https://doc.qt.io/qt-5/qjsonobject.html#insert" xlink:title=" ">
<polygon fill="white" stroke="#666666" points="281.5,-308 171.5,-308 171.5,-289 281.5,-289 281.5,-308"/>
<text text-anchor="middle" x="226.5" y="-296" font-family="Helvetica,sans-Serif" font-size="10.00">QJsonObject::insert</text>
</a>
</g>
</g>
<!-- Node1&#45;&gt;Node6 -->
<g id="edge5" class="edge">
<title>Node1&#45;&gt;Node6</title>
<path fill="none" stroke="#63b8ff" d="M115.04,-298.5C130.51,-298.5 147.36,-298.5 163.14,-298.5"/>
<polygon fill="#63b8ff" stroke="#63b8ff" points="171.28,-298.5 163.28,-302.1 167.28,-298.5 163.28,-298.5 163.28,-298.5 163.28,-298.5 167.28,-298.5 163.28,-294.9 171.28,-298.5 171.28,-298.5"/>
</g>
<!-- Node7 -->
<g id="node7" class="node">
<title>Node7</title>
<g id="a_node7"><a target="_parent" xlink:href="https://doc.qt.io/qt-5/qregularexpression.html#match" xlink:title=" ">
<polygon fill="white" stroke="#666666" points="284,-270.5 169,-270.5 169,-240.5 284,-240.5 284,-270.5"/>
<text text-anchor="start" x="177" y="-258.5" font-family="Helvetica,sans-Serif" font-size="10.00">QRegularExpression</text>
<text text-anchor="middle" x="226.5" y="-247.5" font-family="Helvetica,sans-Serif" font-size="10.00">::match</text>
</a>
</g>
</g>
<!-- Node1&#45;&gt;Node7 -->
<g id="edge6" class="edge">
<title>Node1&#45;&gt;Node7</title>
<path fill="none" stroke="#63b8ff" d="M95.56,-288.96C114.82,-284 138.9,-277.8 161.09,-272.09"/>
<polygon fill="#63b8ff" stroke="#63b8ff" points="168.84,-270.09 162,-275.57 164.97,-271.09 161.1,-272.08 161.1,-272.08 161.1,-272.08 164.97,-271.09 160.2,-268.6 168.84,-270.09 168.84,-270.09"/>
</g>
<!-- Node8 -->
<g id="node8" class="node">
<title>Node8</title>
<g id="a_node8"><a xlink:href="classGenerator.html#a8f048398850e7c5c5e7d7a1af71de172" target="_top" xlink:title=" ">
<polygon fill="white" stroke="#666666" points="302,-222 151,-222 151,-203 302,-203 302,-222"/>
<text text-anchor="middle" x="226.5" y="-210" font-family="Helvetica,sans-Serif" font-size="10.00">Generator::renderOperation</text>
</a>
</g>
</g>
<!-- Node1&#45;&gt;Node8 -->
<g id="edge7" class="edge">
<title>Node1&#45;&gt;Node8</title>
<path fill="none" stroke="#63b8ff" d="M69.03,-288.78C85.36,-274.22 118.32,-246.82 151,-231.5 156.69,-228.83 162.81,-226.5 169.01,-224.48"/>
<polygon fill="#63b8ff" stroke="#63b8ff" points="176.88,-222.07 170.28,-227.85 173.05,-223.24 169.23,-224.41 169.23,-224.41 169.23,-224.41 173.05,-223.24 168.18,-220.97 176.88,-222.07 176.88,-222.07"/>
</g>
<!-- Node24 -->
<g id="node24" class="node">
<title>Node24</title>
<g id="a_node24"><a target="_parent" xlink:href="https://doc.qt.io/qt-5/qlist.html#size" xlink:title=" ">
<polygon fill="white" stroke="#666666" points="260,-185 193,-185 193,-166 260,-166 260,-185"/>
<text text-anchor="middle" x="226.5" y="-173" font-family="Helvetica,sans-Serif" font-size="10.00">QList::size</text>
</a>
</g>
</g>
<!-- Node1&#45;&gt;Node24 -->
<g id="edge25" class="edge">
<title>Node1&#45;&gt;Node24</title>
<path fill="none" stroke="#63b8ff" d="M64.3,-288.73C77.15,-267.99 110.13,-219.38 151,-194.5 161.19,-188.3 173.35,-184.11 184.85,-181.29"/>
<polygon fill="#63b8ff" stroke="#63b8ff" points="192.68,-179.54 185.66,-184.8 188.78,-180.41 184.87,-181.28 184.87,-181.28 184.87,-181.28 188.78,-180.41 184.09,-177.77 192.68,-179.54 192.68,-179.54"/>
</g>
<!-- Node25 -->
<g id="node25" class="node">
<title>Node25</title>
<g id="a_node25"><a target="_parent" xlink:href="https://doc.qt.io/qt-5/qjsonobject.html#toVariantMap" xlink:title=" ">
<polygon fill="white" stroke="#666666" points="300,-148 153,-148 153,-129 300,-129 300,-148"/>
<text text-anchor="middle" x="226.5" y="-136" font-family="Helvetica,sans-Serif" font-size="10.00">QJsonObject::toVariantMap</text>
</a>
</g>
</g>
<!-- Node1&#45;&gt;Node25 -->
<g id="edge26" class="edge">
<title>Node1&#45;&gt;Node25</title>
<path fill="none" stroke="#63b8ff" d="M61.95,-288.85C71.64,-263.17 101.68,-192.71 151,-157.5 154.31,-155.14 157.89,-153.07 161.62,-151.25"/>
<polygon fill="#63b8ff" stroke="#63b8ff" points="168.97,-148.08 163.06,-154.56 165.3,-149.66 161.63,-151.25 161.63,-151.25 161.63,-151.25 165.3,-149.66 160.2,-147.95 168.97,-148.08 168.97,-148.08"/>
</g>
<!-- Node9 -->
<g id="node9" class="node">
<title>Node9</title>
<g id="a_node9"><a target="_parent" xlink:href="https://doc.qt.io/qt-5/qstring.html#arg-11" xlink:title=" ">
<polygon fill="white" stroke="#666666" points="476.5,-210 402.5,-210 402.5,-191 476.5,-191 476.5,-210"/>
<text text-anchor="middle" x="439.5" y="-198" font-family="Helvetica,sans-Serif" font-size="10.00">QString::arg</text>
</a>
</g>
</g>
<!-- Node8&#45;&gt;Node9 -->
<g id="edge8" class="edge">
<title>Node8&#45;&gt;Node9</title>
<path fill="none" stroke="#63b8ff" d="M302.19,-208.25C333.02,-206.5 367.71,-204.53 394.37,-203.01"/>
<polygon fill="#63b8ff" stroke="#63b8ff" points="402.38,-202.55 394.59,-206.6 398.38,-202.78 394.39,-203.01 394.39,-203.01 394.39,-203.01 398.38,-202.78 394.18,-199.41 402.38,-202.55 402.38,-202.55"/>
</g>
<!-- Node10 -->
<g id="node10" class="node">
<title>Node10</title>
<g id="a_node10"><a xlink:href="classGenerator.html#a32ea485bd5804f2b40e542aeefacb00a" target="_top" xlink:title=" ">
<polygon fill="white" stroke="#666666" points="541,-247 338,-247 338,-228 541,-228 541,-247"/>
<text text-anchor="middle" x="439.5" y="-235" font-family="Helvetica,sans-Serif" font-size="10.00">Generator::formatHtmlDocumentation</text>
</a>
</g>
</g>
<!-- Node8&#45;&gt;Node10 -->
<g id="edge9" class="edge">
<title>Node8&#45;&gt;Node10</title>
<path fill="none" stroke="#63b8ff" d="M302.19,-221.35C317.63,-223.18 334.05,-225.12 349.93,-227.01"/>
<polygon fill="#63b8ff" stroke="#63b8ff" points="358.18,-227.98 349.81,-230.62 354.21,-227.51 350.24,-227.04 350.24,-227.04 350.24,-227.04 354.21,-227.51 350.66,-223.47 358.18,-227.98 358.18,-227.98"/>
</g>
<!-- Node14 -->
<g id="node14" class="node">
<title>Node14</title>
<g id="a_node14"><a target="_parent" xlink:href="https://doc.qt.io/qt-5/qstring.html#isEmpty" xlink:title=" ">
<polygon fill="white" stroke="#666666" points="680.5,-19 582.5,-19 582.5,0 680.5,0 680.5,-19"/>
<text text-anchor="middle" x="631.5" y="-7" font-family="Helvetica,sans-Serif" font-size="10.00">QString::isEmpty</text>
</a>
</g>
</g>
<!-- Node8&#45;&gt;Node14 -->
<g id="edge24" class="edge">
<title>Node8&#45;&gt;Node14</title>
<path fill="none" stroke="#63b8ff" d="M276.68,-202.9C285.27,-200.58 294.01,-197.8 302,-194.5 434.18,-139.95 447.33,-87.78 577,-27.5 581.33,-25.49 585.94,-23.59 590.58,-21.84"/>
<polygon fill="#63b8ff" stroke="#63b8ff" points="598.36,-19.03 592.06,-25.13 594.6,-20.39 590.84,-21.74 590.84,-21.74 590.84,-21.74 594.6,-20.39 589.62,-18.36 598.36,-19.03 598.36,-19.03"/>
</g>
<!-- Node10&#45;&gt;Node2 -->
<g id="edge10" class="edge">
<title>Node10&#45;&gt;Node2</title>
<path fill="none" stroke="#63b8ff" d="M443.36,-247.2C454.36,-282.78 497.32,-407.46 577,-472.5 579.09,-474.2 581.34,-475.75 583.71,-477.15"/>
<polygon fill="#63b8ff" stroke="#63b8ff" points="591.07,-480.94 582.31,-480.48 587.51,-479.11 583.96,-477.28 583.96,-477.28 583.96,-477.28 587.51,-479.11 585.6,-474.08 591.07,-480.94 591.07,-480.94"/>
</g>
<!-- Node11 -->
<g id="node11" class="node">
<title>Node11</title>
<g id="a_node11"><a target="_parent" xlink:href="https://doc.qt.io/qt-5/qstring.html#clear" xlink:title=" ">
<polygon fill="white" stroke="#666666" points="673,-389 590,-389 590,-370 673,-370 673,-389"/>
<text text-anchor="middle" x="631.5" y="-377" font-family="Helvetica,sans-Serif" font-size="10.00">QString::clear</text>
</a>
</g>
</g>
<!-- Node10&#45;&gt;Node11 -->
<g id="edge11" class="edge">
<title>Node10&#45;&gt;Node11</title>
<path fill="none" stroke="#63b8ff" d="M448.42,-247.01C467.96,-269.9 520.96,-328.59 577,-361.5 580.36,-363.47 583.97,-365.27 587.67,-366.89"/>
<polygon fill="#63b8ff" stroke="#63b8ff" points="595.33,-369.99 586.57,-370.33 591.62,-368.49 587.92,-366.99 587.92,-366.99 587.92,-366.99 591.62,-368.49 589.26,-363.66 595.33,-369.99 595.33,-369.99"/>
</g>
<!-- Node12 -->
<g id="node12" class="node">
<title>Node12</title>
<g id="a_node12"><a target="_parent" xlink:href="https://doc.qt.io/qt-5/qstring.html#endsWith" xlink:title=" ">
<polygon fill="white" stroke="#666666" points="683.5,-352 579.5,-352 579.5,-333 683.5,-333 683.5,-352"/>
<text text-anchor="middle" x="631.5" y="-340" font-family="Helvetica,sans-Serif" font-size="10.00">QString::endsWith</text>
</a>
</g>
</g>
<!-- Node10&#45;&gt;Node12 -->
<g id="edge12" class="edge">
<title>Node10&#45;&gt;Node12</title>
<path fill="none" stroke="#63b8ff" d="M453.07,-247C476.43,-264.31 528.58,-301.35 577,-324.5 581.25,-326.53 585.79,-328.43 590.36,-330.18"/>
<polygon fill="#63b8ff" stroke="#63b8ff" points="598.03,-332.98 589.28,-333.62 594.27,-331.61 590.51,-330.24 590.51,-330.24 590.51,-330.24 594.27,-331.61 591.75,-326.86 598.03,-332.98 598.03,-332.98"/>
</g>
<!-- Node13 -->
<g id="node13" class="node">
<title>Node13</title>
<g id="a_node13"><a target="_parent" xlink:href="https://doc.qt.io/qt-5/qlist.html#first" xlink:title=" ">
<polygon fill="white" stroke="#666666" points="664.5,-315 598.5,-315 598.5,-296 664.5,-296 664.5,-315"/>
<text text-anchor="middle" x="631.5" y="-303" font-family="Helvetica,sans-Serif" font-size="10.00">QList::first</text>
</a>
</g>
</g>
<!-- Node10&#45;&gt;Node13 -->
<g id="edge13" class="edge">
<title>Node10&#45;&gt;Node13</title>
<path fill="none" stroke="#63b8ff" d="M465.84,-247.01C493.19,-257.22 538.07,-273.82 577,-287.5 582.47,-289.42 588.26,-291.41 593.94,-293.34"/>
<polygon fill="#63b8ff" stroke="#63b8ff" points="601.58,-295.92 592.84,-296.77 597.79,-294.64 594,-293.36 594,-293.36 594,-293.36 597.79,-294.64 595.15,-289.95 601.58,-295.92 601.58,-295.92"/>
</g>
<!-- Node10&#45;&gt;Node14 -->
<g id="edge14" class="edge">
<title>Node10&#45;&gt;Node14</title>
<path fill="none" stroke="#63b8ff" d="M530.18,-227.88C534.08,-225.52 537.73,-222.75 541,-219.5 602.64,-158.36 520.03,-93.01 577,-27.5 578.2,-26.12 579.51,-24.84 580.91,-23.66"/>
<polygon fill="#63b8ff" stroke="#63b8ff" points="587.53,-19.1 582.99,-26.6 584.24,-21.37 580.95,-23.64 580.95,-23.64 580.95,-23.64 584.24,-21.37 578.9,-20.68 587.53,-19.1 587.53,-19.1"/>
</g>
<!-- Node15 -->
<g id="node15" class="node">
<title>Node15</title>
<g id="a_node15"><a target="_parent" xlink:href="https://doc.qt.io/qt-5/qlist.html#isEmpty" xlink:title=" ">
<polygon fill="white" stroke="#666666" points="675,-278 588,-278 588,-259 675,-259 675,-278"/>
<text text-anchor="middle" x="631.5" y="-266" font-family="Helvetica,sans-Serif" font-size="10.00">QList::isEmpty</text>
</a>
</g>
</g>
<!-- Node10&#45;&gt;Node15 -->
<g id="edge15" class="edge">
<title>Node10&#45;&gt;Node15</title>
<path fill="none" stroke="#63b8ff" d="M498.8,-247.01C524.69,-251.24 554.87,-256.16 579.81,-260.23"/>
<polygon fill="#63b8ff" stroke="#63b8ff" points="587.71,-261.52 579.23,-263.78 583.76,-260.87 579.81,-260.23 579.81,-260.23 579.81,-260.23 583.76,-260.87 580.39,-256.68 587.71,-261.52 587.71,-261.52"/>
</g>
<!-- Node16 -->
<g id="node16" class="node">
<title>Node16</title>
<g id="a_node16"><a target="_parent" xlink:href="https://doc.qt.io/qt-5/qlist.html#last" xlink:title=" ">
<polygon fill="white" stroke="#666666" points="664,-241 599,-241 599,-222 664,-222 664,-241"/>
<text text-anchor="middle" x="631.5" y="-229" font-family="Helvetica,sans-Serif" font-size="10.00">QList::last</text>
</a>
</g>
</g>
<!-- Node10&#45;&gt;Node16 -->
<g id="edge16" class="edge">
<title>Node10&#45;&gt;Node16</title>
<path fill="none" stroke="#63b8ff" d="M541.06,-234.32C558.62,-233.77 575.93,-233.22 590.57,-232.76"/>
<polygon fill="#63b8ff" stroke="#63b8ff" points="598.87,-232.5 590.98,-236.35 594.87,-232.63 590.87,-232.75 590.87,-232.75 590.87,-232.75 594.87,-232.63 590.76,-229.15 598.87,-232.5 598.87,-232.5"/>
</g>
<!-- Node17 -->
<g id="node17" class="node">
<title>Node17</title>
<g id="a_node17"><a target="_parent" xlink:href="https://doc.qt.io/qt-5/qstring.html#remove" xlink:title=" ">
<polygon fill="white" stroke="#666666" points="679.5,-204 583.5,-204 583.5,-185 679.5,-185 679.5,-204"/>
<text text-anchor="middle" x="631.5" y="-192" font-family="Helvetica,sans-Serif" font-size="10.00">QString::remove</text>
</a>
</g>
</g>
<!-- Node10&#45;&gt;Node17 -->
<g id="edge17" class="edge">
<title>Node10&#45;&gt;Node17</title>
<path fill="none" stroke="#63b8ff" d="M499.15,-227.96C512.93,-225.46 527.52,-222.58 541,-219.5 557.61,-215.7 575.74,-210.78 591.32,-206.32"/>
<polygon fill="#63b8ff" stroke="#63b8ff" points="599.21,-204.03 592.53,-209.71 595.37,-205.14 591.52,-206.26 591.52,-206.26 591.52,-206.26 595.37,-205.14 590.52,-202.8 599.21,-204.03 599.21,-204.03"/>
</g>
<!-- Node18 -->
<g id="node18" class="node">
<title>Node18</title>
<g id="a_node18"><a target="_parent" xlink:href="https://doc.qt.io/qt-5/qlist.html#removeFirst" xlink:title=" ">
<polygon fill="white" stroke="#666666" points="684.5,-167 578.5,-167 578.5,-148 684.5,-148 684.5,-167"/>
<text text-anchor="middle" x="631.5" y="-155" font-family="Helvetica,sans-Serif" font-size="10.00">QList::removeFirst</text>
</a>
</g>
</g>
<!-- Node10&#45;&gt;Node18 -->
<g id="edge18" class="edge">
<title>Node10&#45;&gt;Node18</title>
<path fill="none" stroke="#63b8ff" d="M522.34,-227.92C528.86,-225.65 535.17,-222.88 541,-219.5 562.56,-207 556.54,-190.73 577,-176.5 580.35,-174.17 584.02,-172.09 587.82,-170.25"/>
<polygon fill="#63b8ff" stroke="#63b8ff" points="595.22,-167 589.35,-173.52 591.56,-168.61 587.9,-170.22 587.9,-170.22 587.9,-170.22 591.56,-168.61 586.45,-166.92 595.22,-167 595.22,-167"/>
</g>
<!-- Node19 -->
<g id="node19" class="node">
<title>Node19</title>
<g id="a_node19"><a target="_parent" xlink:href="https://doc.qt.io/qt-5/qlist.html#removeLast" xlink:title=" ">
<polygon fill="white" stroke="#666666" points="684,-130 579,-130 579,-111 684,-111 684,-130"/>
<text text-anchor="middle" x="631.5" y="-118" font-family="Helvetica,sans-Serif" font-size="10.00">QList::removeLast</text>
</a>
</g>
</g>
<!-- Node10&#45;&gt;Node19 -->
<g id="edge19" class="edge">
<title>Node10&#45;&gt;Node19</title>
<path fill="none" stroke="#63b8ff" d="M527.38,-227.83C532.22,-225.52 536.81,-222.77 541,-219.5 571.74,-195.52 548.33,-165.92 577,-139.5 579.23,-137.44 581.7,-135.6 584.32,-133.96"/>
<polygon fill="#63b8ff" stroke="#63b8ff" points="591.54,-130.06 586.21,-137.03 588.02,-131.97 584.5,-133.87 584.5,-133.87 584.5,-133.87 588.02,-131.97 582.79,-130.7 591.54,-130.06 591.54,-130.06"/>
</g>
<!-- Node20 -->
<g id="node20" class="node">
<title>Node20</title>
<g id="a_node20"><a target="_parent" xlink:href="https://doc.qt.io/qt-5/qstring.html#replace-2" xlink:title=" ">
<polygon fill="white" stroke="#666666" points="679,-93 584,-93 584,-74 679,-74 679,-93"/>
<text text-anchor="middle" x="631.5" y="-81" font-family="Helvetica,sans-Serif" font-size="10.00">QString::replace</text>
</a>
</g>
</g>
<!-- Node10&#45;&gt;Node20 -->
<g id="edge20" class="edge">
<title>Node10&#45;&gt;Node20</title>
<path fill="none" stroke="#63b8ff" d="M528.82,-227.94C533.19,-225.58 537.29,-222.79 541,-219.5 582.01,-183.1 538.78,-140.82 577,-101.5 578.46,-99.99 580.06,-98.61 581.75,-97.35"/>
<polygon fill="#63b8ff" stroke="#63b8ff" points="588.69,-93.02 583.81,-100.31 585.3,-95.14 581.91,-97.25 581.91,-97.25 581.91,-97.25 585.3,-95.14 580,-94.2 588.69,-93.02 588.69,-93.02"/>
</g>
<!-- Node21 -->
<g id="node21" class="node">
<title>Node21</title>
<g id="a_node21"><a target="_parent" xlink:href="https://doc.qt.io/qt-5/qstring.html#size" xlink:title=" ">
<polygon fill="white" stroke="#666666" points="670.5,-56 592.5,-56 592.5,-37 670.5,-37 670.5,-56"/>
<text text-anchor="middle" x="631.5" y="-44" font-family="Helvetica,sans-Serif" font-size="10.00">QString::size</text>
</a>
</g>
</g>
<!-- Node10&#45;&gt;Node21 -->
<g id="edge21" class="edge">
<title>Node10&#45;&gt;Node21</title>
<path fill="none" stroke="#63b8ff" d="M529.55,-227.97C533.68,-225.6 537.53,-222.8 541,-219.5 592.27,-170.78 529.46,-116.86 577,-64.5 579.44,-61.82 582.29,-59.53 585.38,-57.59"/>
<polygon fill="#63b8ff" stroke="#63b8ff" points="592.47,-53.85 587.07,-60.76 588.93,-55.72 585.4,-57.58 585.4,-57.58 585.4,-57.58 588.93,-55.72 583.72,-54.39 592.47,-53.85 592.47,-53.85"/>
</g>
<!-- Node22 -->
<g id="node22" class="node">
<title>Node22</title>
<g id="a_node22"><a target="_parent" xlink:href="https://doc.qt.io/qt-5/qstring.html#split" xlink:title=" ">
<polygon fill="white" stroke="#666666" points="671.5,-463 591.5,-463 591.5,-444 671.5,-444 671.5,-463"/>
<text text-anchor="middle" x="631.5" y="-451" font-family="Helvetica,sans-Serif" font-size="10.00">QString::split</text>
</a>
</g>
</g>
<!-- Node10&#45;&gt;Node22 -->
<g id="edge22" class="edge">
<title>Node10&#45;&gt;Node22</title>
<path fill="none" stroke="#63b8ff" d="M444.56,-247.4C458.2,-279.49 505.65,-381.72 577,-435.5 579.41,-437.32 582.02,-438.96 584.74,-440.44"/>
<polygon fill="#63b8ff" stroke="#63b8ff" points="592.14,-443.99 583.37,-443.78 588.53,-442.26 584.93,-440.53 584.93,-440.53 584.93,-440.53 588.53,-442.26 586.49,-437.29 592.14,-443.99 592.14,-443.99"/>
</g>
<!-- Node23 -->
<g id="node23" class="node">
<title>Node23</title>
<g id="a_node23"><a target="_parent" xlink:href="https://doc.qt.io/qt-5/qstring.html#startsWith" xlink:title=" ">
<polygon fill="white" stroke="#666666" points="686,-426 577,-426 577,-407 686,-407 686,-426"/>
<text text-anchor="middle" x="631.5" y="-414" font-family="Helvetica,sans-Serif" font-size="10.00">QString::startsWith</text>
</a>
</g>
</g>
<!-- Node10&#45;&gt;Node23 -->
<g id="edge23" class="edge">
<title>Node10&#45;&gt;Node23</title>
<path fill="none" stroke="#63b8ff" d="M445.97,-247.04C462.26,-274.64 513.32,-355.3 577,-398.5 579.78,-400.39 582.78,-402.09 585.89,-403.63"/>
<polygon fill="#63b8ff" stroke="#63b8ff" points="593.28,-406.92 584.5,-406.96 589.62,-405.29 585.97,-403.67 585.97,-403.67 585.97,-403.67 589.62,-405.29 587.43,-400.38 593.28,-406.92 593.28,-406.92"/>
</g>
</g>
</svg>
