<?xml version="1.0" encoding="UTF-8" standalone="no"?>
<!DOCTYPE svg PUBLIC "-//W3C//DTD SVG 1.1//EN"
 "http://www.w3.org/Graphics/SVG/1.1/DTD/svg11.dtd">
<!-- Generated by graphviz version 2.43.0 (0)
 -->
<!-- Title: ShapeId::absoluteShapeId Pages: 1 -->
<svg width="815pt" height="131pt"
 viewBox="0.00 0.00 815.00 131.00" xmlns="http://www.w3.org/2000/svg" xmlns:xlink="http://www.w3.org/1999/xlink">
<g id="graph0" class="graph" transform="scale(1 1) rotate(0) translate(4 127)">
<title>ShapeId::absoluteShapeId</title>
<!-- Node1 -->
<g id="Node000001" class="node">
<title>Node1</title>
<g id="a_Node000001"><a xlink:title="Returns this object as an absolute Smithy Shape ID if this object has a namespace,...">
<polygon fill="#999999" stroke="#666666" points="143,-85 0,-85 0,-66 143,-66 143,-85"/>
<text text-anchor="middle" x="71.5" y="-73" font-family="Helvetica,sans-Serif" font-size="10.00">ShapeId::absoluteShapeId</text>
</a>
</g>
</g>
<!-- Node2 -->
<g id="Node000002" class="node">
<title>Node2</title>
<g id="a_Node000002"><a xlink:href="classShapeId.html#ad0bbf397b25b50a3fc9c145cea67ce11" target="_top" xlink:title="Returns true if this Shape ID has a non&#45;empty namespace, otherwise false otherwise.">
<polygon fill="white" stroke="#666666" points="316.5,-123 179.5,-123 179.5,-104 316.5,-104 316.5,-123"/>
<text text-anchor="middle" x="248" y="-111" font-family="Helvetica,sans-Serif" font-size="10.00">ShapeId::hasNameSpace</text>
</a>
</g>
</g>
<!-- Node1&#45;&gt;Node2 -->
<g id="edge1_Node000001_Node000002" class="edge">
<title>Node1&#45;&gt;Node2</title>
<g id="a_edge1_Node000001_Node000002"><a xlink:title=" ">
<path fill="none" stroke="#63b8ff" d="M116.53,-85.09C140.49,-90.31 170.27,-96.79 195.33,-102.25"/>
<polygon fill="#63b8ff" stroke="#63b8ff" points="203.28,-103.98 194.7,-105.8 199.37,-103.13 195.47,-102.28 195.47,-102.28 195.47,-102.28 199.37,-103.13 196.23,-98.76 203.28,-103.98 203.28,-103.98"/>
</a>
</g>
</g>
<!-- Node3 -->
<g id="Node000003" class="node">
<title>Node3</title>
<g id="a_Node000003"><a xlink:href="classShapeId.html#a0d88184bccd8dc5b22b67800aeccf092" target="_top" xlink:title="Returns the Shape ID&#39;s namespace, if it has one, otherwise a null string.">
<polygon fill="white" stroke="#666666" points="487,-122 368,-122 368,-103 487,-103 487,-122"/>
<text text-anchor="middle" x="427.5" y="-110" font-family="Helvetica,sans-Serif" font-size="10.00">ShapeId::nameSpace</text>
</a>
</g>
</g>
<!-- Node1&#45;&gt;Node3 -->
<g id="edge4_Node000001_Node000003" class="edge">
<title>Node1&#45;&gt;Node3</title>
<g id="a_edge4_Node000001_Node000003"><a xlink:title=" ">
<path fill="none" stroke="#63b8ff" d="M143.25,-79.93C192.14,-83.32 258.63,-88.59 317,-95.5 331.67,-97.24 347.39,-99.46 362.21,-101.72"/>
<polygon fill="#63b8ff" stroke="#63b8ff" points="370.34,-102.98 361.88,-105.32 366.39,-102.37 362.43,-101.76 362.43,-101.76 362.43,-101.76 366.39,-102.37 362.98,-98.2 370.34,-102.98 370.34,-102.98"/>
</a>
</g>
</g>
<!-- Node5 -->
<g id="Node000005" class="node">
<title>Node5</title>
<g id="a_Node000005"><a xlink:href="classShapeId.html#aad508460b545930c3aeb82021e79de5a" target="_top" xlink:title="Returns this object as a relative Smithy Shape ID, that one without a leading namespace.">
<polygon fill="white" stroke="#666666" points="317,-47 179,-47 179,-28 317,-28 317,-47"/>
<text text-anchor="middle" x="248" y="-35" font-family="Helvetica,sans-Serif" font-size="10.00">ShapeId::relativeShapeId</text>
</a>
</g>
</g>
<!-- Node1&#45;&gt;Node5 -->
<g id="edge5_Node000001_Node000005" class="edge">
<title>Node1&#45;&gt;Node5</title>
<g id="a_edge5_Node000001_Node000005"><a xlink:title=" ">
<path fill="none" stroke="#63b8ff" d="M116.53,-65.91C140.49,-60.69 170.27,-54.21 195.33,-48.75"/>
<polygon fill="#63b8ff" stroke="#63b8ff" points="203.28,-47.02 196.23,-52.24 199.37,-47.87 195.47,-48.72 195.47,-48.72 195.47,-48.72 199.37,-47.87 194.7,-45.2 203.28,-47.02 203.28,-47.02"/>
</a>
</g>
</g>
<!-- Node2&#45;&gt;Node3 -->
<g id="edge2_Node000002_Node000003" class="edge">
<title>Node2&#45;&gt;Node3</title>
<g id="a_edge2_Node000002_Node000003"><a xlink:title=" ">
<path fill="none" stroke="#63b8ff" d="M316.61,-113.12C330.7,-113.04 345.54,-112.96 359.6,-112.88"/>
<polygon fill="#63b8ff" stroke="#63b8ff" points="367.78,-112.83 359.8,-116.48 363.78,-112.85 359.78,-112.88 359.78,-112.88 359.78,-112.88 363.78,-112.85 359.76,-109.28 367.78,-112.83 367.78,-112.83"/>
</a>
</g>
</g>
<!-- Node4 -->
<g id="Node000004" class="node">
<title>Node4</title>
<g id="a_Node000004"><a xlink:href="classShapeId.html#a5c5ff0cc534bd3277f30a06dbf2587dd" target="_top" xlink:title="Constructs an empty ShapeId object.">
<polygon fill="white" stroke="#666666" points="807,-56 706,-56 706,-37 807,-37 807,-56"/>
<text text-anchor="middle" x="756.5" y="-44" font-family="Helvetica,sans-Serif" font-size="10.00">ShapeId::ShapeId</text>
</a>
</g>
</g>
<!-- Node3&#45;&gt;Node4 -->
<g id="edge3_Node000003_Node000004" class="edge">
<title>Node3&#45;&gt;Node4</title>
<g id="a_edge3_Node000003_Node000004"><a xlink:title=" ">
<path fill="none" stroke="#63b8ff" d="M479.46,-102.99C528.39,-93.76 604.35,-79.18 670,-65.5 681.49,-63.11 693.82,-60.43 705.45,-57.86"/>
<polygon fill="#63b8ff" stroke="#63b8ff" points="713.36,-56.1 706.34,-61.35 709.46,-56.96 705.55,-57.83 705.55,-57.83 705.55,-57.83 709.46,-56.96 704.77,-54.32 713.36,-56.1 713.36,-56.1"/>
</a>
</g>
</g>
<!-- Node6 -->
<g id="Node000006" class="node">
<title>Node6</title>
<g id="a_Node000006"><a xlink:href="classShapeId.html#a6f1fc0aab99d0108fc3f1eeb5a4d2687" target="_top" xlink:title="Returns true if this Shape ID has a non&#45;empty member name, otherwise false otherwise.">
<polygon fill="white" stroke="#666666" points="502,-85 353,-85 353,-66 502,-66 502,-85"/>
<text text-anchor="middle" x="427.5" y="-73" font-family="Helvetica,sans-Serif" font-size="10.00">ShapeId::hasMemberName</text>
</a>
</g>
</g>
<!-- Node5&#45;&gt;Node6 -->
<g id="edge6_Node000005_Node000006" class="edge">
<title>Node5&#45;&gt;Node6</title>
<g id="a_edge6_Node000005_Node000006"><a xlink:title=" ">
<path fill="none" stroke="#63b8ff" d="M293.79,-47.09C318.16,-52.31 348.45,-58.79 373.94,-64.25"/>
<polygon fill="#63b8ff" stroke="#63b8ff" points="382.03,-65.98 373.45,-67.83 378.12,-65.14 374.21,-64.31 374.21,-64.31 374.21,-64.31 378.12,-65.14 374.96,-60.78 382.03,-65.98 382.03,-65.98"/>
</a>
</g>
</g>
<!-- Node7 -->
<g id="Node000007" class="node">
<title>Node7</title>
<g id="a_Node000007"><a xlink:href="classShapeId.html#a9b1580e3aa193c99d000aa084def3a70" target="_top" xlink:title="Returns the Shape ID&#39;s member name, if it has one, otherwise a null string.">
<polygon fill="white" stroke="#666666" points="670,-56 538,-56 538,-37 670,-37 670,-56"/>
<text text-anchor="middle" x="604" y="-44" font-family="Helvetica,sans-Serif" font-size="10.00">ShapeId::memberName</text>
</a>
</g>
</g>
<!-- Node5&#45;&gt;Node7 -->
<g id="edge9_Node000005_Node000007" class="edge">
<title>Node5&#45;&gt;Node7</title>
<g id="a_edge9_Node000005_Node000007"><a xlink:title=" ">
<path fill="none" stroke="#63b8ff" d="M317.25,-39.24C378.21,-40.78 467.25,-43.05 529.7,-44.64"/>
<polygon fill="#63b8ff" stroke="#63b8ff" points="537.94,-44.85 529.85,-48.24 533.94,-44.74 529.94,-44.64 529.94,-44.64 529.94,-44.64 533.94,-44.74 530.04,-41.04 537.94,-44.85 537.94,-44.85"/>
</a>
</g>
</g>
<!-- Node8 -->
<g id="Node000008" class="node">
<title>Node8</title>
<g id="a_Node000008"><a xlink:href="classShapeId.html#a8aad9a1383c03aee2f33b1568e89f688" target="_top" xlink:title="Returns the Shape ID&#39;s shape name, if it has one, otherwise a null string.">
<polygon fill="white" stroke="#666666" points="664,-19 544,-19 544,0 664,0 664,-19"/>
<text text-anchor="middle" x="604" y="-7" font-family="Helvetica,sans-Serif" font-size="10.00">ShapeId::shapeName</text>
</a>
</g>
</g>
<!-- Node5&#45;&gt;Node8 -->
<g id="edge10_Node000005_Node000008" class="edge">
<title>Node5&#45;&gt;Node8</title>
<g id="a_edge10_Node000005_Node000008"><a xlink:title=" ">
<path fill="none" stroke="#63b8ff" d="M317.25,-32.1C380.13,-27.13 472.9,-19.79 535.53,-14.84"/>
<polygon fill="#63b8ff" stroke="#63b8ff" points="543.77,-14.18 536.08,-18.4 539.79,-14.5 535.8,-14.82 535.8,-14.82 535.8,-14.82 539.79,-14.5 535.51,-11.23 543.77,-14.18 543.77,-14.18"/>
</a>
</g>
</g>
<!-- Node6&#45;&gt;Node7 -->
<g id="edge7_Node000006_Node000007" class="edge">
<title>Node6&#45;&gt;Node7</title>
<g id="a_edge7_Node000006_Node000007"><a xlink:title=" ">
<path fill="none" stroke="#63b8ff" d="M486.12,-65.92C502.59,-63.19 520.65,-60.19 537.55,-57.38"/>
<polygon fill="#63b8ff" stroke="#63b8ff" points="545.74,-56.02 538.44,-60.88 541.79,-56.67 537.84,-57.33 537.84,-57.33 537.84,-57.33 541.79,-56.67 537.25,-53.78 545.74,-56.02 545.74,-56.02"/>
</a>
</g>
</g>
<!-- Node7&#45;&gt;Node4 -->
<g id="edge8_Node000007_Node000004" class="edge">
<title>Node7&#45;&gt;Node4</title>
<g id="a_edge8_Node000007_Node000004"><a xlink:title=" ">
<path fill="none" stroke="#63b8ff" d="M670.14,-46.5C679.26,-46.5 688.59,-46.5 697.56,-46.5"/>
<polygon fill="#63b8ff" stroke="#63b8ff" points="705.69,-46.5 697.69,-50.1 701.69,-46.5 697.69,-46.5 697.69,-46.5 697.69,-46.5 701.69,-46.5 697.69,-42.9 705.69,-46.5 705.69,-46.5"/>
</a>
</g>
</g>
<!-- Node8&#45;&gt;Node4 -->
<g id="edge11_Node000008_Node000004" class="edge">
<title>Node8&#45;&gt;Node4</title>
<g id="a_edge11_Node000008_Node000004"><a xlink:title=" ">
<path fill="none" stroke="#63b8ff" d="M643.76,-19.03C663.61,-23.91 687.92,-29.89 708.8,-35.02"/>
<polygon fill="#63b8ff" stroke="#63b8ff" points="716.61,-36.94 707.98,-38.53 712.73,-35.98 708.84,-35.03 708.84,-35.03 708.84,-35.03 712.73,-35.98 709.7,-31.53 716.61,-36.94 716.61,-36.94"/>
</a>
</g>
</g>
</g>
</svg>
