<?xml version="1.0" encoding="UTF-8" standalone="no"?>
<!DOCTYPE svg PUBLIC "-//W3C//DTD SVG 1.1//EN"
 "http://www.w3.org/Graphics/SVG/1.1/DTD/svg11.dtd">
<!-- Generated by graphviz version 2.43.0 (0)
 -->
<!-- Title: Renderer Pages: 1 -->
<svg width="96pt" height="149pt"
 viewBox="0.00 0.00 96.00 149.00" xmlns="http://www.w3.org/2000/svg" xmlns:xlink="http://www.w3.org/1999/xlink">
<g id="graph0" class="graph" transform="scale(1 1) rotate(0) translate(4 145)">
<title>Renderer</title>
<!-- Node1 -->
<g id="node1" class="node">
<title>Node1</title>
<g id="a_node1"><a xlink:title=" ">
<polygon fill="#999999" stroke="#666666" points="65.5,-19 4.5,-19 4.5,0 65.5,0 65.5,-19"/>
<text text-anchor="middle" x="35" y="-7" font-family="Helvetica,sans-Serif" font-size="10.00">Renderer</text>
</a>
</g>
</g>
<!-- Node2 -->
<g id="node2" class="node">
<title>Node2</title>
<g id="a_node2"><a target="_parent" xlink:href="https://doc.qt.io/qt-5/qstringlist.html" xlink:title=" ">
<polygon fill="white" stroke="#bfbfbf" points="70,-85 0,-85 0,-66 70,-66 70,-85"/>
<text text-anchor="middle" x="35" y="-73" font-family="Helvetica,sans-Serif" font-size="10.00">QStringList</text>
</a>
</g>
</g>
<!-- Node2&#45;&gt;Node1 -->
<g id="edge1" class="edge">
<title>Node2&#45;&gt;Node1</title>
<path fill="none" stroke="#9a32cd" stroke-dasharray="5,2" d="M35,-57.77C35,-45.49 35,-29.3 35,-19.41"/>
<polygon fill="#9a32cd" stroke="#9a32cd" points="35,-65.87 31.4,-57.87 35,-61.87 35,-57.87 35,-57.87 35,-57.87 35,-61.87 38.6,-57.87 35,-65.87 35,-65.87"/>
<text text-anchor="middle" x="61.5" y="-40" font-family="Helvetica,sans-Serif" font-size="10.00"> templates</text>
</g>
<!-- Node3 -->
<g id="node3" class="node">
<title>Node3</title>
<g id="a_node3"><a target="_parent" xlink:href="https://doc.qt.io/qt-5/qlist.html" xlink:title=" ">
<polygon fill="white" stroke="#bfbfbf" points="55.5,-141 14.5,-141 14.5,-122 55.5,-122 55.5,-141"/>
<text text-anchor="middle" x="35" y="-129" font-family="Helvetica,sans-Serif" font-size="10.00">QList</text>
</a>
</g>
</g>
<!-- Node3&#45;&gt;Node2 -->
<g id="edge2" class="edge">
<title>Node3&#45;&gt;Node2</title>
<path fill="none" stroke="#63b8ff" d="M35,-113.36C35,-104 35,-92.83 35,-85.25"/>
<polygon fill="#63b8ff" stroke="#63b8ff" points="35,-121.58 31.4,-113.58 35,-117.58 35,-113.58 35,-113.58 35,-113.58 35,-117.58 38.6,-113.58 35,-121.58 35,-121.58"/>
</g>
</g>
</svg>
