<?xml version="1.0" encoding="UTF-8" standalone="no"?>
<!DOCTYPE svg PUBLIC "-//W3C//DTD SVG 1.1//EN"
 "http://www.w3.org/Graphics/SVG/1.1/DTD/svg11.dtd">
<!-- Generated by graphviz version 2.43.0 (0)
 -->
<!-- Title: Generator::formatHtmlDocumentation Pages: 1 -->
<svg width="356pt" height="508pt"
 viewBox="0.00 0.00 356.00 508.00" xmlns="http://www.w3.org/2000/svg" xmlns:xlink="http://www.w3.org/1999/xlink">
<g id="graph0" class="graph" transform="scale(1 1) rotate(0) translate(4 504)">
<title>Generator::formatHtmlDocumentation</title>
<!-- Node1 -->
<g id="node1" class="node">
<title>Node1</title>
<g id="a_node1"><a xlink:title=" ">
<polygon fill="#999999" stroke="#666666" points="203,-259 0,-259 0,-240 203,-240 203,-259"/>
<text text-anchor="middle" x="101.5" y="-247" font-family="Helvetica,sans-Serif" font-size="10.00">Generator::formatHtmlDocumentation</text>
</a>
</g>
</g>
<!-- Node2 -->
<g id="node2" class="node">
<title>Node2</title>
<g id="a_node2"><a target="_parent" xlink:href="https://doc.qt.io/qt-5/qlist.html#append" xlink:title=" ">
<polygon fill="white" stroke="#666666" points="335,-500 252,-500 252,-481 335,-481 335,-500"/>
<text text-anchor="middle" x="293.5" y="-488" font-family="Helvetica,sans-Serif" font-size="10.00">QList::append</text>
</a>
</g>
</g>
<!-- Node1&#45;&gt;Node2 -->
<g id="edge1" class="edge">
<title>Node1&#45;&gt;Node2</title>
<path fill="none" stroke="#63b8ff" d="M105.68,-259.17C117.45,-293.56 161.98,-411.1 239,-472.5 241.15,-474.21 243.46,-475.76 245.89,-477.17"/>
<polygon fill="#63b8ff" stroke="#63b8ff" points="253.42,-480.97 244.65,-480.58 249.85,-479.17 246.28,-477.37 246.28,-477.37 246.28,-477.37 249.85,-479.17 247.9,-474.15 253.42,-480.97 253.42,-480.97"/>
</g>
<!-- Node3 -->
<g id="node3" class="node">
<title>Node3</title>
<g id="a_node3"><a target="_parent" xlink:href="https://doc.qt.io/qt-5/qstring.html#clear" xlink:title=" ">
<polygon fill="white" stroke="#666666" points="335,-463 252,-463 252,-444 335,-444 335,-463"/>
<text text-anchor="middle" x="293.5" y="-451" font-family="Helvetica,sans-Serif" font-size="10.00">QString::clear</text>
</a>
</g>
</g>
<!-- Node1&#45;&gt;Node3 -->
<g id="edge2" class="edge">
<title>Node1&#45;&gt;Node3</title>
<path fill="none" stroke="#63b8ff" d="M106.93,-259.22C121.36,-289.83 170.12,-385.16 239,-435.5 241.48,-437.31 244.15,-438.95 246.94,-440.43"/>
<polygon fill="#63b8ff" stroke="#63b8ff" points="254.51,-443.99 245.74,-443.84 250.89,-442.29 247.27,-440.59 247.27,-440.59 247.27,-440.59 250.89,-442.29 248.8,-437.33 254.51,-443.99 254.51,-443.99"/>
</g>
<!-- Node4 -->
<g id="node4" class="node">
<title>Node4</title>
<g id="a_node4"><a target="_parent" xlink:href="https://doc.qt.io/qt-5/qstring.html#endsWith" xlink:title=" ">
<polygon fill="white" stroke="#666666" points="345.5,-426 241.5,-426 241.5,-407 345.5,-407 345.5,-426"/>
<text text-anchor="middle" x="293.5" y="-414" font-family="Helvetica,sans-Serif" font-size="10.00">QString::endsWith</text>
</a>
</g>
</g>
<!-- Node1&#45;&gt;Node4 -->
<g id="edge3" class="edge">
<title>Node1&#45;&gt;Node4</title>
<path fill="none" stroke="#63b8ff" d="M108.65,-259.05C125.95,-285.21 177.84,-358.7 239,-398.5 241.99,-400.45 245.22,-402.2 248.54,-403.79"/>
<polygon fill="#63b8ff" stroke="#63b8ff" points="255.95,-406.98 247.18,-407.12 252.28,-405.39 248.6,-403.81 248.6,-403.81 248.6,-403.81 252.28,-405.39 250.03,-400.5 255.95,-406.98 255.95,-406.98"/>
</g>
<!-- Node5 -->
<g id="node5" class="node">
<title>Node5</title>
<g id="a_node5"><a target="_parent" xlink:href="https://doc.qt.io/qt-5/qlist.html#first" xlink:title=" ">
<polygon fill="white" stroke="#666666" points="326.5,-389 260.5,-389 260.5,-370 326.5,-370 326.5,-389"/>
<text text-anchor="middle" x="293.5" y="-377" font-family="Helvetica,sans-Serif" font-size="10.00">QList::first</text>
</a>
</g>
</g>
<!-- Node1&#45;&gt;Node5 -->
<g id="edge4" class="edge">
<title>Node1&#45;&gt;Node5</title>
<path fill="none" stroke="#63b8ff" d="M111.85,-259.29C132.76,-280.66 185.64,-331.94 239,-361.5 243.23,-363.84 247.81,-365.95 252.46,-367.83"/>
<polygon fill="#63b8ff" stroke="#63b8ff" points="260.29,-370.77 251.54,-371.32 256.55,-369.36 252.8,-367.95 252.8,-367.95 252.8,-367.95 256.55,-369.36 254.07,-364.58 260.29,-370.77 260.29,-370.77"/>
</g>
<!-- Node6 -->
<g id="node6" class="node">
<title>Node6</title>
<g id="a_node6"><a target="_parent" xlink:href="https://doc.qt.io/qt-5/qstring.html#isEmpty" xlink:title=" ">
<polygon fill="white" stroke="#666666" points="342.5,-352 244.5,-352 244.5,-333 342.5,-333 342.5,-352"/>
<text text-anchor="middle" x="293.5" y="-340" font-family="Helvetica,sans-Serif" font-size="10.00">QString::isEmpty</text>
</a>
</g>
</g>
<!-- Node1&#45;&gt;Node6 -->
<g id="edge5" class="edge">
<title>Node1&#45;&gt;Node6</title>
<path fill="none" stroke="#63b8ff" d="M118.01,-259.22C142.86,-274.51 193.44,-304.51 239,-324.5 243.59,-326.52 248.49,-328.44 253.38,-330.24"/>
<polygon fill="#63b8ff" stroke="#63b8ff" points="261.03,-332.95 252.28,-333.67 257.26,-331.61 253.48,-330.28 253.48,-330.28 253.48,-330.28 257.26,-331.61 254.69,-326.88 261.03,-332.95 261.03,-332.95"/>
</g>
<!-- Node7 -->
<g id="node7" class="node">
<title>Node7</title>
<g id="a_node7"><a target="_parent" xlink:href="https://doc.qt.io/qt-5/qlist.html#isEmpty" xlink:title=" ">
<polygon fill="white" stroke="#666666" points="337,-315 250,-315 250,-296 337,-296 337,-315"/>
<text text-anchor="middle" x="293.5" y="-303" font-family="Helvetica,sans-Serif" font-size="10.00">QList::isEmpty</text>
</a>
</g>
</g>
<!-- Node1&#45;&gt;Node7 -->
<g id="edge6" class="edge">
<title>Node1&#45;&gt;Node7</title>
<path fill="none" stroke="#63b8ff" d="M135.16,-259.13C167.58,-268.68 217.33,-283.34 252.18,-293.62"/>
<polygon fill="#63b8ff" stroke="#63b8ff" points="260.26,-296 251.57,-297.19 256.43,-294.87 252.59,-293.74 252.59,-293.74 252.59,-293.74 256.43,-294.87 253.61,-290.28 260.26,-296 260.26,-296"/>
</g>
<!-- Node8 -->
<g id="node8" class="node">
<title>Node8</title>
<g id="a_node8"><a target="_parent" xlink:href="https://doc.qt.io/qt-5/qlist.html#last" xlink:title=" ">
<polygon fill="white" stroke="#666666" points="326,-278 261,-278 261,-259 326,-259 326,-278"/>
<text text-anchor="middle" x="293.5" y="-266" font-family="Helvetica,sans-Serif" font-size="10.00">QList::last</text>
</a>
</g>
</g>
<!-- Node1&#45;&gt;Node8 -->
<g id="edge7" class="edge">
<title>Node1&#45;&gt;Node8</title>
<path fill="none" stroke="#63b8ff" d="M197.78,-259.03C217.17,-260.97 236.56,-262.91 252.69,-264.52"/>
<polygon fill="#63b8ff" stroke="#63b8ff" points="260.81,-265.33 252.49,-268.12 256.83,-264.93 252.85,-264.53 252.85,-264.53 252.85,-264.53 256.83,-264.93 253.21,-260.95 260.81,-265.33 260.81,-265.33"/>
</g>
<!-- Node9 -->
<g id="node9" class="node">
<title>Node9</title>
<g id="a_node9"><a target="_parent" xlink:href="https://doc.qt.io/qt-5/qstring.html#remove" xlink:title=" ">
<polygon fill="white" stroke="#666666" points="341.5,-241 245.5,-241 245.5,-222 341.5,-222 341.5,-241"/>
<text text-anchor="middle" x="293.5" y="-229" font-family="Helvetica,sans-Serif" font-size="10.00">QString::remove</text>
</a>
</g>
</g>
<!-- Node1&#45;&gt;Node9 -->
<g id="edge8" class="edge">
<title>Node1&#45;&gt;Node9</title>
<path fill="none" stroke="#63b8ff" d="M202.79,-240C214.59,-238.88 226.28,-237.77 237.13,-236.75"/>
<polygon fill="#63b8ff" stroke="#63b8ff" points="245.25,-235.98 237.63,-240.31 241.27,-236.35 237.29,-236.73 237.29,-236.73 237.29,-236.73 241.27,-236.35 236.95,-233.15 245.25,-235.98 245.25,-235.98"/>
</g>
<!-- Node10 -->
<g id="node10" class="node">
<title>Node10</title>
<g id="a_node10"><a target="_parent" xlink:href="https://doc.qt.io/qt-5/qlist.html#removeFirst" xlink:title=" ">
<polygon fill="white" stroke="#666666" points="346.5,-204 240.5,-204 240.5,-185 346.5,-185 346.5,-204"/>
<text text-anchor="middle" x="293.5" y="-192" font-family="Helvetica,sans-Serif" font-size="10.00">QList::removeFirst</text>
</a>
</g>
</g>
<!-- Node1&#45;&gt;Node10 -->
<g id="edge9" class="edge">
<title>Node1&#45;&gt;Node10</title>
<path fill="none" stroke="#63b8ff" d="M135.6,-239.92C167.78,-230.6 216.76,-216.42 251.42,-206.39"/>
<polygon fill="#63b8ff" stroke="#63b8ff" points="259.47,-204.06 252.78,-209.75 255.62,-205.17 251.78,-206.29 251.78,-206.29 251.78,-206.29 255.62,-205.17 250.78,-202.83 259.47,-204.06 259.47,-204.06"/>
</g>
<!-- Node11 -->
<g id="node11" class="node">
<title>Node11</title>
<g id="a_node11"><a target="_parent" xlink:href="https://doc.qt.io/qt-5/qlist.html#removeLast" xlink:title=" ">
<polygon fill="white" stroke="#666666" points="346,-167 241,-167 241,-148 346,-148 346,-167"/>
<text text-anchor="middle" x="293.5" y="-155" font-family="Helvetica,sans-Serif" font-size="10.00">QList::removeLast</text>
</a>
</g>
</g>
<!-- Node1&#45;&gt;Node11 -->
<g id="edge10" class="edge">
<title>Node1&#45;&gt;Node11</title>
<path fill="none" stroke="#63b8ff" d="M118.5,-239.93C143.59,-225.14 194.02,-196.38 239,-176.5 244.27,-174.17 249.92,-171.92 255.5,-169.82"/>
<polygon fill="#63b8ff" stroke="#63b8ff" points="263.03,-167.07 256.75,-173.2 259.28,-168.44 255.52,-169.82 255.52,-169.82 255.52,-169.82 259.28,-168.44 254.29,-166.43 263.03,-167.07 263.03,-167.07"/>
</g>
<!-- Node12 -->
<g id="node12" class="node">
<title>Node12</title>
<g id="a_node12"><a target="_parent" xlink:href="https://doc.qt.io/qt-5/qstring.html#replace-2" xlink:title=" ">
<polygon fill="white" stroke="#666666" points="341,-130 246,-130 246,-111 341,-111 341,-130"/>
<text text-anchor="middle" x="293.5" y="-118" font-family="Helvetica,sans-Serif" font-size="10.00">QString::replace</text>
</a>
</g>
</g>
<!-- Node1&#45;&gt;Node12 -->
<g id="edge11" class="edge">
<title>Node1&#45;&gt;Node12</title>
<path fill="none" stroke="#63b8ff" d="M111.93,-239.96C132.98,-219.13 186.13,-169.06 239,-139.5 243.19,-137.16 247.72,-135.02 252.31,-133.09"/>
<polygon fill="#63b8ff" stroke="#63b8ff" points="260.04,-130.05 253.92,-136.33 256.32,-131.51 252.6,-132.98 252.6,-132.98 252.6,-132.98 256.32,-131.51 251.28,-129.63 260.04,-130.05 260.04,-130.05"/>
</g>
<!-- Node13 -->
<g id="node13" class="node">
<title>Node13</title>
<g id="a_node13"><a target="_parent" xlink:href="https://doc.qt.io/qt-5/qstring.html#size" xlink:title=" ">
<polygon fill="white" stroke="#666666" points="332.5,-93 254.5,-93 254.5,-74 332.5,-74 332.5,-93"/>
<text text-anchor="middle" x="293.5" y="-81" font-family="Helvetica,sans-Serif" font-size="10.00">QString::size</text>
</a>
</g>
</g>
<!-- Node1&#45;&gt;Node13 -->
<g id="edge12" class="edge">
<title>Node1&#45;&gt;Node13</title>
<path fill="none" stroke="#63b8ff" d="M108.97,-239.76C126.7,-213.78 178.77,-142.12 239,-102.5 242.51,-100.19 246.34,-98.12 250.28,-96.28"/>
<polygon fill="#63b8ff" stroke="#63b8ff" points="257.94,-93.01 252,-99.46 254.26,-94.58 250.58,-96.15 250.58,-96.15 250.58,-96.15 254.26,-94.58 249.17,-92.84 257.94,-93.01 257.94,-93.01"/>
</g>
<!-- Node14 -->
<g id="node14" class="node">
<title>Node14</title>
<g id="a_node14"><a target="_parent" xlink:href="https://doc.qt.io/qt-5/qstring.html#split" xlink:title=" ">
<polygon fill="white" stroke="#666666" points="333.5,-56 253.5,-56 253.5,-37 333.5,-37 333.5,-56"/>
<text text-anchor="middle" x="293.5" y="-44" font-family="Helvetica,sans-Serif" font-size="10.00">QString::split</text>
</a>
</g>
</g>
<!-- Node1&#45;&gt;Node14 -->
<g id="edge13" class="edge">
<title>Node1&#45;&gt;Node14</title>
<path fill="none" stroke="#63b8ff" d="M106.99,-239.93C121.62,-209.8 170.89,-115.88 239,-65.5 242.06,-63.24 245.41,-61.23 248.9,-59.44"/>
<polygon fill="#63b8ff" stroke="#63b8ff" points="256.2,-56.08 250.43,-62.7 252.56,-57.76 248.93,-59.43 248.93,-59.43 248.93,-59.43 252.56,-57.76 247.42,-56.16 256.2,-56.08 256.2,-56.08"/>
</g>
<!-- Node15 -->
<g id="node15" class="node">
<title>Node15</title>
<g id="a_node15"><a target="_parent" xlink:href="https://doc.qt.io/qt-5/qstring.html#startsWith" xlink:title=" ">
<polygon fill="white" stroke="#666666" points="348,-19 239,-19 239,0 348,0 348,-19"/>
<text text-anchor="middle" x="293.5" y="-7" font-family="Helvetica,sans-Serif" font-size="10.00">QString::startsWith</text>
</a>
</g>
</g>
<!-- Node1&#45;&gt;Node15 -->
<g id="edge14" class="edge">
<title>Node1&#45;&gt;Node15</title>
<path fill="none" stroke="#63b8ff" d="M105.74,-239.96C117.73,-206.03 162.87,-89.99 239,-28.5 241.67,-26.34 244.61,-24.42 247.69,-22.7"/>
<polygon fill="#63b8ff" stroke="#63b8ff" points="255.08,-19.08 249.49,-25.83 251.49,-20.84 247.9,-22.6 247.9,-22.6 247.9,-22.6 251.49,-20.84 246.32,-19.37 255.08,-19.08 255.08,-19.08"/>
</g>
</g>
</svg>
