<?xml version="1.0" encoding="UTF-8" standalone="no"?>
<!DOCTYPE svg PUBLIC "-//W3C//DTD SVG 1.1//EN"
 "http://www.w3.org/Graphics/SVG/1.1/DTD/svg11.dtd">
<!-- Generated by graphviz version 2.43.0 (0)
 -->
<!-- Title: Generator::generate Pages: 1 -->
<svg width="306pt" height="310pt"
 viewBox="0.00 0.00 306.00 310.00" xmlns="http://www.w3.org/2000/svg" xmlns:xlink="http://www.w3.org/1999/xlink">
<g id="graph0" class="graph" transform="scale(1 1) rotate(0) translate(4 306)">
<title>Generator::generate</title>
<!-- Node1 -->
<g id="node1" class="node">
<title>Node1</title>
<g id="a_node1"><a xlink:title=" ">
<polygon fill="#999999" stroke="#666666" points="115,-163 0,-163 0,-144 115,-144 115,-163"/>
<text text-anchor="middle" x="57.5" y="-151" font-family="Helvetica,sans-Serif" font-size="10.00">Generator::generate</text>
</a>
</g>
</g>
<!-- Node2 -->
<g id="node2" class="node">
<title>Node2</title>
<g id="a_node2"><a target="_parent" xlink:href="https://doc.qt.io/qt-5/qlist.html#append" xlink:title=" ">
<polygon fill="white" stroke="#666666" points="266,-302 183,-302 183,-283 266,-283 266,-302"/>
<text text-anchor="middle" x="224.5" y="-290" font-family="Helvetica,sans-Serif" font-size="10.00">QList::append</text>
</a>
</g>
</g>
<!-- Node1&#45;&gt;Node2 -->
<g id="edge1" class="edge">
<title>Node1&#45;&gt;Node2</title>
<path fill="none" stroke="#63b8ff" d="M62.98,-163.12C74.25,-186.22 106.12,-245.05 151,-274.5 158.22,-279.24 166.59,-282.73 175.03,-285.3"/>
<polygon fill="#63b8ff" stroke="#63b8ff" points="182.76,-287.42 174.1,-288.78 178.9,-286.36 175.04,-285.31 175.04,-285.31 175.04,-285.31 178.9,-286.36 175.99,-281.84 182.76,-287.42 182.76,-287.42"/>
</g>
<!-- Node3 -->
<g id="node3" class="node">
<title>Node3</title>
<g id="a_node3"><a target="_parent" xlink:href="https://doc.qt.io/qt-5/qlist.html#constBegin" xlink:title=" ">
<polygon fill="white" stroke="#666666" points="275,-265 174,-265 174,-246 275,-246 275,-265"/>
<text text-anchor="middle" x="224.5" y="-253" font-family="Helvetica,sans-Serif" font-size="10.00">QList::constBegin</text>
</a>
</g>
</g>
<!-- Node1&#45;&gt;Node3 -->
<g id="edge2" class="edge">
<title>Node1&#45;&gt;Node3</title>
<path fill="none" stroke="#63b8ff" d="M66.29,-163.22C80.95,-180.83 114.45,-217.99 151,-237.5 155.77,-240.04 160.9,-242.24 166.16,-244.13"/>
<polygon fill="#63b8ff" stroke="#63b8ff" points="173.92,-246.68 165.19,-247.6 170.12,-245.43 166.32,-244.18 166.32,-244.18 166.32,-244.18 170.12,-245.43 167.44,-240.76 173.92,-246.68 173.92,-246.68"/>
</g>
<!-- Node4 -->
<g id="node4" class="node">
<title>Node4</title>
<g id="a_node4"><a target="_parent" xlink:href="https://doc.qt.io/qt-5/qlist.html#constEnd" xlink:title=" ">
<polygon fill="white" stroke="#666666" points="270.5,-228 178.5,-228 178.5,-209 270.5,-209 270.5,-228"/>
<text text-anchor="middle" x="224.5" y="-216" font-family="Helvetica,sans-Serif" font-size="10.00">QList::constEnd</text>
</a>
</g>
</g>
<!-- Node1&#45;&gt;Node4 -->
<g id="edge3" class="edge">
<title>Node1&#45;&gt;Node4</title>
<path fill="none" stroke="#63b8ff" d="M75.08,-163.05C93.24,-173.2 123.46,-189.17 151,-199.5 158.07,-202.15 165.66,-204.58 173.17,-206.74"/>
<polygon fill="#63b8ff" stroke="#63b8ff" points="181.25,-208.99 172.58,-210.32 177.4,-207.92 173.55,-206.85 173.55,-206.85 173.55,-206.85 177.4,-207.92 174.51,-203.38 181.25,-208.99 181.25,-208.99"/>
</g>
<!-- Node5 -->
<g id="node5" class="node">
<title>Node5</title>
<g id="a_node5"><a target="_parent" xlink:href="https://doc.qt.io/qt-5/qregularexpressionmatch.html#hasMatch" xlink:title=" ">
<polygon fill="white" stroke="#666666" points="297,-190.5 152,-190.5 152,-160.5 297,-160.5 297,-190.5"/>
<text text-anchor="start" x="160" y="-178.5" font-family="Helvetica,sans-Serif" font-size="10.00">QRegularExpressionMatch</text>
<text text-anchor="middle" x="224.5" y="-167.5" font-family="Helvetica,sans-Serif" font-size="10.00">::hasMatch</text>
</a>
</g>
</g>
<!-- Node1&#45;&gt;Node5 -->
<g id="edge4" class="edge">
<title>Node1&#45;&gt;Node5</title>
<path fill="none" stroke="#63b8ff" d="M115.28,-161.07C124.46,-162.29 134.11,-163.58 143.71,-164.86"/>
<polygon fill="#63b8ff" stroke="#63b8ff" points="151.75,-165.93 143.34,-168.44 147.78,-165.4 143.82,-164.88 143.82,-164.88 143.82,-164.88 147.78,-165.4 144.29,-161.31 151.75,-165.93 151.75,-165.93"/>
</g>
<!-- Node6 -->
<g id="node6" class="node">
<title>Node6</title>
<g id="a_node6"><a target="_parent" xlink:href="https://doc.qt.io/qt-5/qjsonobject.html#insert" xlink:title=" ">
<polygon fill="white" stroke="#666666" points="279.5,-142 169.5,-142 169.5,-123 279.5,-123 279.5,-142"/>
<text text-anchor="middle" x="224.5" y="-130" font-family="Helvetica,sans-Serif" font-size="10.00">QJsonObject::insert</text>
</a>
</g>
</g>
<!-- Node1&#45;&gt;Node6 -->
<g id="edge5" class="edge">
<title>Node1&#45;&gt;Node6</title>
<path fill="none" stroke="#63b8ff" d="M115.28,-146.27C130.07,-144.39 146.08,-142.35 161.14,-140.44"/>
<polygon fill="#63b8ff" stroke="#63b8ff" points="169.39,-139.39 161.91,-143.97 165.43,-139.89 161.46,-140.4 161.46,-140.4 161.46,-140.4 165.43,-139.89 161,-136.83 169.39,-139.39 169.39,-139.39"/>
</g>
<!-- Node7 -->
<g id="node7" class="node">
<title>Node7</title>
<g id="a_node7"><a target="_parent" xlink:href="https://doc.qt.io/qt-5/qregularexpression.html#match" xlink:title=" ">
<polygon fill="white" stroke="#666666" points="282,-104.5 167,-104.5 167,-74.5 282,-74.5 282,-104.5"/>
<text text-anchor="start" x="175" y="-92.5" font-family="Helvetica,sans-Serif" font-size="10.00">QRegularExpression</text>
<text text-anchor="middle" x="224.5" y="-81.5" font-family="Helvetica,sans-Serif" font-size="10.00">::match</text>
</a>
</g>
</g>
<!-- Node1&#45;&gt;Node7 -->
<g id="edge6" class="edge">
<title>Node1&#45;&gt;Node7</title>
<path fill="none" stroke="#63b8ff" d="M80.01,-143.95C98.66,-135.79 126.42,-123.91 151,-114.5 157.35,-112.07 164.04,-109.62 170.7,-107.25"/>
<polygon fill="#63b8ff" stroke="#63b8ff" points="178.47,-104.5 172.12,-110.56 174.7,-105.83 170.92,-107.17 170.92,-107.17 170.92,-107.17 174.7,-105.83 169.73,-103.77 178.47,-104.5 178.47,-104.5"/>
</g>
<!-- Node8 -->
<g id="node8" class="node">
<title>Node8</title>
<g id="a_node8"><a target="_parent" xlink:href="https://doc.qt.io/qt-5/qlist.html#size" xlink:title=" ">
<polygon fill="white" stroke="#666666" points="258,-56 191,-56 191,-37 258,-37 258,-56"/>
<text text-anchor="middle" x="224.5" y="-44" font-family="Helvetica,sans-Serif" font-size="10.00">QList::size</text>
</a>
</g>
</g>
<!-- Node1&#45;&gt;Node8 -->
<g id="edge7" class="edge">
<title>Node1&#45;&gt;Node8</title>
<path fill="none" stroke="#63b8ff" d="M65.76,-143.92C80.03,-125.77 113.63,-86.32 151,-65.5 160.69,-60.1 171.97,-56.19 182.7,-53.37"/>
<polygon fill="#63b8ff" stroke="#63b8ff" points="190.77,-51.43 183.84,-56.8 186.88,-52.37 182.99,-53.3 182.99,-53.3 182.99,-53.3 186.88,-52.37 182.15,-49.81 190.77,-51.43 190.77,-51.43"/>
</g>
<!-- Node9 -->
<g id="node9" class="node">
<title>Node9</title>
<g id="a_node9"><a target="_parent" xlink:href="https://doc.qt.io/qt-5/qjsonobject.html#toVariantMap" xlink:title=" ">
<polygon fill="white" stroke="#666666" points="298,-19 151,-19 151,0 298,0 298,-19"/>
<text text-anchor="middle" x="224.5" y="-7" font-family="Helvetica,sans-Serif" font-size="10.00">QJsonObject::toVariantMap</text>
</a>
</g>
</g>
<!-- Node1&#45;&gt;Node9 -->
<g id="edge8" class="edge">
<title>Node1&#45;&gt;Node9</title>
<path fill="none" stroke="#63b8ff" d="M62.75,-143.94C73.73,-120.42 105.39,-59.37 151,-28.5 154.48,-26.14 158.24,-24.08 162.14,-22.27"/>
<polygon fill="#63b8ff" stroke="#63b8ff" points="169.81,-19.1 163.79,-25.49 166.11,-20.63 162.42,-22.16 162.42,-22.16 162.42,-22.16 166.11,-20.63 161.04,-18.83 169.81,-19.1 169.81,-19.1"/>
</g>
</g>
</svg>
