<?xml version="1.0" encoding="UTF-8" standalone="no"?>
<!DOCTYPE svg PUBLIC "-//W3C//DTD SVG 1.1//EN"
 "http://www.w3.org/Graphics/SVG/1.1/DTD/svg11.dtd">
<!-- Generated by graphviz version 2.43.0 (0)
 -->
<!-- Title: Generator Pages: 1 -->
<svg width="343pt" height="229pt"
 viewBox="0.00 0.00 342.50 229.00" xmlns="http://www.w3.org/2000/svg" xmlns:xlink="http://www.w3.org/1999/xlink">
<g id="graph0" class="graph" transform="scale(1 1) rotate(0) translate(4 225)">
<title>Generator</title>
<!-- Node1 -->
<g id="node1" class="node">
<title>Node1</title>
<g id="a_node1"><a xlink:title=" ">
<polygon fill="#999999" stroke="#666666" points="203.5,-19 138.5,-19 138.5,0 203.5,0 203.5,-19"/>
<text text-anchor="middle" x="171" y="-7" font-family="Helvetica,sans-Serif" font-size="10.00">Generator</text>
</a>
</g>
</g>
<!-- Node2 -->
<g id="node2" class="node">
<title>Node2</title>
<g id="a_node2"><a xlink:href="classRenderer.html" target="_top" xlink:title=" ">
<polygon fill="white" stroke="#bfbfbf" points="201.5,-97.5 140.5,-97.5 140.5,-78.5 201.5,-78.5 201.5,-97.5"/>
<text text-anchor="middle" x="171" y="-85.5" font-family="Helvetica,sans-Serif" font-size="10.00">Renderer</text>
</a>
</g>
</g>
<!-- Node2&#45;&gt;Node1 -->
<g id="edge1" class="edge">
<title>Node2&#45;&gt;Node1</title>
<path fill="none" stroke="#9a32cd" stroke-dasharray="5,2" d="M171,-69.89C171,-54.15 171,-31.45 171,-19.17"/>
<polygon fill="#9a32cd" stroke="#9a32cd" points="171,-78.22 167.4,-70.22 171,-74.22 171,-70.22 171,-70.22 171,-70.22 171,-74.22 174.6,-70.22 171,-78.22 171,-78.22"/>
<text text-anchor="middle" x="193.5" y="-45.5" font-family="Helvetica,sans-Serif" font-size="10.00"> renderer</text>
</g>
<!-- Node3 -->
<g id="node3" class="node">
<title>Node3</title>
<g id="a_node3"><a target="_parent" xlink:href="https://doc.qt.io/qt-5/qstringlist.html" xlink:title=" ">
<polygon fill="white" stroke="#bfbfbf" points="70,-165 0,-165 0,-146 70,-146 70,-165"/>
<text text-anchor="middle" x="35" y="-153" font-family="Helvetica,sans-Serif" font-size="10.00">QStringList</text>
</a>
</g>
</g>
<!-- Node3&#45;&gt;Node1 -->
<g id="edge4" class="edge">
<title>Node3&#45;&gt;Node1</title>
<path fill="none" stroke="#9a32cd" stroke-dasharray="5,2" d="M27.89,-137.7C22.02,-120.97 16.37,-95.23 28,-77 52.15,-39.14 104.04,-22.5 138.22,-15.42"/>
<polygon fill="#9a32cd" stroke="#9a32cd" points="30.89,-145.53 24.67,-139.35 29.46,-141.8 28.03,-138.06 28.03,-138.06 28.03,-138.06 29.46,-141.8 31.39,-136.77 30.89,-145.53 30.89,-145.53"/>
<text text-anchor="middle" x="79.5" y="-91" font-family="Helvetica,sans-Serif" font-size="10.00"> renderedPathNames</text>
<text text-anchor="middle" x="79.5" y="-80" font-family="Helvetica,sans-Serif" font-size="10.00">skippedPathNames</text>
</g>
<!-- Node3&#45;&gt;Node2 -->
<g id="edge2" class="edge">
<title>Node3&#45;&gt;Node2</title>
<path fill="none" stroke="#9a32cd" stroke-dasharray="5,2" d="M60.31,-142.31C87.34,-129.29 129.49,-108.99 153.22,-97.57"/>
<polygon fill="#9a32cd" stroke="#9a32cd" points="52.78,-145.94 58.43,-139.22 56.38,-144.2 59.99,-142.47 59.99,-142.47 59.99,-142.47 56.38,-144.2 61.55,-145.71 52.78,-145.94 52.78,-145.94"/>
<text text-anchor="middle" x="138.5" y="-120" font-family="Helvetica,sans-Serif" font-size="10.00"> templates</text>
</g>
<!-- Node4 -->
<g id="node4" class="node">
<title>Node4</title>
<g id="a_node4"><a target="_parent" xlink:href="https://doc.qt.io/qt-5/qlist.html" xlink:title=" ">
<polygon fill="white" stroke="#bfbfbf" points="55.5,-221 14.5,-221 14.5,-202 55.5,-202 55.5,-221"/>
<text text-anchor="middle" x="35" y="-209" font-family="Helvetica,sans-Serif" font-size="10.00">QList</text>
</a>
</g>
</g>
<!-- Node4&#45;&gt;Node3 -->
<g id="edge3" class="edge">
<title>Node4&#45;&gt;Node3</title>
<path fill="none" stroke="#63b8ff" d="M35,-193.36C35,-184 35,-172.83 35,-165.25"/>
<polygon fill="#63b8ff" stroke="#63b8ff" points="35,-201.58 31.4,-193.58 35,-197.58 35,-193.58 35,-193.58 35,-193.58 35,-197.58 38.6,-193.58 35,-201.58 35,-201.58"/>
</g>
<!-- Node5 -->
<g id="node5" class="node">
<title>Node5</title>
<g id="a_node5"><a target="_parent" xlink:href="https://doc.qt.io/qt-5/qregularexpression.html" xlink:title=" ">
<polygon fill="white" stroke="#bfbfbf" points="334.5,-97.5 219.5,-97.5 219.5,-78.5 334.5,-78.5 334.5,-97.5"/>
<text text-anchor="middle" x="277" y="-85.5" font-family="Helvetica,sans-Serif" font-size="10.00">QRegularExpression</text>
</a>
</g>
</g>
<!-- Node5&#45;&gt;Node1 -->
<g id="edge5" class="edge">
<title>Node5&#45;&gt;Node1</title>
<path fill="none" stroke="#9a32cd" stroke-dasharray="5,2" d="M262.31,-72.46C251.23,-61.91 235.36,-47.68 220,-37 210.31,-30.26 198.73,-23.93 189.26,-19.14"/>
<polygon fill="#9a32cd" stroke="#9a32cd" points="268.24,-78.19 259.99,-75.22 265.37,-75.41 262.49,-72.63 262.49,-72.63 262.49,-72.63 265.37,-75.41 264.99,-70.04 268.24,-78.19 268.24,-78.19"/>
<text text-anchor="middle" x="289.5" y="-51" font-family="Helvetica,sans-Serif" font-size="10.00"> operationPattern</text>
<text text-anchor="middle" x="289.5" y="-40" font-family="Helvetica,sans-Serif" font-size="10.00">servicePattern</text>
</g>
</g>
</svg>
