<?xml version="1.0" encoding="UTF-8" standalone="no"?>
<!DOCTYPE svg PUBLIC "-//W3C//DTD SVG 1.1//EN"
 "http://www.w3.org/Graphics/SVG/1.1/DTD/svg11.dtd">
<!-- Generated by graphviz version 2.43.0 (0)
 -->
<!-- Title: Generator::renderService Pages: 1 -->
<svg width="281pt" height="64pt"
 viewBox="0.00 0.00 281.00 64.00" xmlns="http://www.w3.org/2000/svg" xmlns:xlink="http://www.w3.org/1999/xlink">
<g id="graph0" class="graph" transform="scale(1 1) rotate(0) translate(4 60)">
<title>Generator::renderService</title>
<!-- Node1 -->
<g id="node1" class="node">
<title>Node1</title>
<g id="a_node1"><a xlink:title=" ">
<polygon fill="#999999" stroke="#666666" points="139,-37 0,-37 0,-18 139,-18 139,-37"/>
<text text-anchor="middle" x="69.5" y="-25" font-family="Helvetica,sans-Serif" font-size="10.00">Generator::renderService</text>
</a>
</g>
</g>
<!-- Node2 -->
<g id="node2" class="node">
<title>Node2</title>
<g id="a_node2"><a target="_parent" xlink:href="https://doc.qt.io/qt-5/qstring.html#arg-11" xlink:title=" ">
<polygon fill="white" stroke="#666666" points="261,-56 187,-56 187,-37 261,-37 261,-56"/>
<text text-anchor="middle" x="224" y="-44" font-family="Helvetica,sans-Serif" font-size="10.00">QString::arg</text>
</a>
</g>
</g>
<!-- Node1&#45;&gt;Node2 -->
<g id="edge1" class="edge">
<title>Node1&#45;&gt;Node2</title>
<path fill="none" stroke="#63b8ff" d="M139.17,-36.06C152.66,-37.74 166.46,-39.46 178.88,-41"/>
<polygon fill="#63b8ff" stroke="#63b8ff" points="186.82,-41.99 178.44,-44.58 182.85,-41.5 178.88,-41 178.88,-41 178.88,-41 182.85,-41.5 179.33,-37.43 186.82,-41.99 186.82,-41.99"/>
</g>
<!-- Node3 -->
<g id="node3" class="node">
<title>Node3</title>
<g id="a_node3"><a target="_parent" xlink:href="https://doc.qt.io/qt-5/qstring.html#isEmpty" xlink:title=" ">
<polygon fill="white" stroke="#666666" points="273,-19 175,-19 175,0 273,0 273,-19"/>
<text text-anchor="middle" x="224" y="-7" font-family="Helvetica,sans-Serif" font-size="10.00">QString::isEmpty</text>
</a>
</g>
</g>
<!-- Node1&#45;&gt;Node3 -->
<g id="edge2" class="edge">
<title>Node1&#45;&gt;Node3</title>
<path fill="none" stroke="#63b8ff" d="M139.17,-19.4C148.37,-18.31 157.72,-17.21 166.67,-16.15"/>
<polygon fill="#63b8ff" stroke="#63b8ff" points="174.77,-15.19 167.24,-19.71 170.8,-15.66 166.82,-16.13 166.82,-16.13 166.82,-16.13 170.8,-15.66 166.4,-12.56 174.77,-15.19 174.77,-15.19"/>
</g>
</g>
</svg>
