<?xml version="1.0" encoding="UTF-8" standalone="no"?>
<!DOCTYPE svg PUBLIC "-//W3C//DTD SVG 1.1//EN"
 "http://www.w3.org/Graphics/SVG/1.1/DTD/svg11.dtd">
<!-- Generated by graphviz version 2.43.0 (0)
 -->
<!-- Title: Generator Pages: 1 -->
<svg width="96pt" height="215pt"
 viewBox="0.00 0.00 96.00 215.00" xmlns="http://www.w3.org/2000/svg" xmlns:xlink="http://www.w3.org/1999/xlink">
<g id="graph0" class="graph" transform="scale(1 1) rotate(0) translate(4 211)">
<title>Generator</title>
<!-- Node1 -->
<g id="node1" class="node">
<title>Node1</title>
<g id="a_node1"><a xlink:title=" ">
<polygon fill="#999999" stroke="#666666" points="67.5,-19 2.5,-19 2.5,0 67.5,0 67.5,-19"/>
<text text-anchor="middle" x="35" y="-7" font-family="Helvetica,sans-Serif" font-size="10.00">Generator</text>
</a>
</g>
</g>
<!-- Node2 -->
<g id="node2" class="node">
<title>Node2</title>
<g id="a_node2"><a xlink:href="classRenderer.html" target="_top" xlink:title=" ">
<polygon fill="white" stroke="#bfbfbf" points="65.5,-85 4.5,-85 4.5,-66 65.5,-66 65.5,-85"/>
<text text-anchor="middle" x="35" y="-73" font-family="Helvetica,sans-Serif" font-size="10.00">Renderer</text>
</a>
</g>
</g>
<!-- Node2&#45;&gt;Node1 -->
<g id="edge1" class="edge">
<title>Node2&#45;&gt;Node1</title>
<path fill="none" stroke="#9a32cd" stroke-dasharray="5,2" d="M35,-57.77C35,-45.49 35,-29.3 35,-19.41"/>
<polygon fill="#9a32cd" stroke="#9a32cd" points="35,-65.87 31.4,-57.87 35,-61.87 35,-57.87 35,-57.87 35,-57.87 35,-61.87 38.6,-57.87 35,-65.87 35,-65.87"/>
<text text-anchor="middle" x="57.5" y="-40" font-family="Helvetica,sans-Serif" font-size="10.00"> renderer</text>
</g>
<!-- Node3 -->
<g id="node3" class="node">
<title>Node3</title>
<g id="a_node3"><a target="_parent" xlink:href="https://doc.qt.io/qt-5/qstringlist.html" xlink:title=" ">
<polygon fill="white" stroke="#bfbfbf" points="70,-151 0,-151 0,-132 70,-132 70,-151"/>
<text text-anchor="middle" x="35" y="-139" font-family="Helvetica,sans-Serif" font-size="10.00">QStringList</text>
</a>
</g>
</g>
<!-- Node3&#45;&gt;Node2 -->
<g id="edge2" class="edge">
<title>Node3&#45;&gt;Node2</title>
<path fill="none" stroke="#9a32cd" stroke-dasharray="5,2" d="M35,-123.77C35,-111.49 35,-95.3 35,-85.41"/>
<polygon fill="#9a32cd" stroke="#9a32cd" points="35,-131.87 31.4,-123.87 35,-127.87 35,-123.87 35,-123.87 35,-123.87 35,-127.87 38.6,-123.87 35,-131.87 35,-131.87"/>
<text text-anchor="middle" x="61.5" y="-106" font-family="Helvetica,sans-Serif" font-size="10.00"> templates</text>
</g>
<!-- Node4 -->
<g id="node4" class="node">
<title>Node4</title>
<g id="a_node4"><a target="_parent" xlink:href="https://doc.qt.io/qt-5/qlist.html" xlink:title=" ">
<polygon fill="white" stroke="#bfbfbf" points="55.5,-207 14.5,-207 14.5,-188 55.5,-188 55.5,-207"/>
<text text-anchor="middle" x="35" y="-195" font-family="Helvetica,sans-Serif" font-size="10.00">QList</text>
</a>
</g>
</g>
<!-- Node4&#45;&gt;Node3 -->
<g id="edge3" class="edge">
<title>Node4&#45;&gt;Node3</title>
<path fill="none" stroke="#63b8ff" d="M35,-179.36C35,-170 35,-158.83 35,-151.25"/>
<polygon fill="#63b8ff" stroke="#63b8ff" points="35,-187.58 31.4,-179.58 35,-183.58 35,-179.58 35,-179.58 35,-179.58 35,-183.58 38.6,-179.58 35,-187.58 35,-187.58"/>
</g>
</g>
</svg>
