<?xml version="1.0" encoding="UTF-8" standalone="no"?>
<!DOCTYPE svg PUBLIC "-//W3C//DTD SVG 1.1//EN"
 "http://www.w3.org/Graphics/SVG/1.1/DTD/svg11.dtd">
<!-- Generated by graphviz version 2.43.0 (0)
 -->
<!-- Title: Generator::generate Pages: 1 -->
<svg width="304pt" height="236pt"
 viewBox="0.00 0.00 304.00 236.00" xmlns="http://www.w3.org/2000/svg" xmlns:xlink="http://www.w3.org/1999/xlink">
<g id="graph0" class="graph" transform="scale(1 1) rotate(0) translate(4 232)">
<title>Generator::generate</title>
<!-- Node1 -->
<g id="node1" class="node">
<title>Node1</title>
<g id="a_node1"><a xlink:title=" ">
<polygon fill="#999999" stroke="#666666" points="115,-126 0,-126 0,-107 115,-107 115,-126"/>
<text text-anchor="middle" x="57.5" y="-114" font-family="Helvetica,sans-Serif" font-size="10.00">Generator::generate</text>
</a>
</g>
</g>
<!-- Node2 -->
<g id="node2" class="node">
<title>Node2</title>
<g id="a_node2"><a target="_parent" xlink:href="https://doc.qt.io/qt-5/qlist.html#append" xlink:title=" ">
<polygon fill="white" stroke="#666666" points="265,-228 182,-228 182,-209 265,-209 265,-228"/>
<text text-anchor="middle" x="223.5" y="-216" font-family="Helvetica,sans-Serif" font-size="10.00">QList::append</text>
</a>
</g>
</g>
<!-- Node1&#45;&gt;Node2 -->
<g id="edge1" class="edge">
<title>Node1&#45;&gt;Node2</title>
<path fill="none" stroke="#63b8ff" d="M66.3,-126.21C80.96,-143.8 114.48,-180.93 151,-200.5 158.11,-204.31 166.05,-207.33 173.98,-209.73"/>
<polygon fill="#63b8ff" stroke="#63b8ff" points="181.88,-211.92 173.21,-213.25 178.02,-210.85 174.17,-209.78 174.17,-209.78 174.17,-209.78 178.02,-210.85 175.13,-206.31 181.88,-211.92 181.88,-211.92"/>
</g>
<!-- Node3 -->
<g id="node3" class="node">
<title>Node3</title>
<g id="a_node3"><a target="_parent" xlink:href="https://doc.qt.io/qt-5/qstring.html#arg-11" xlink:title=" ">
<polygon fill="white" stroke="#666666" points="260.5,-191 186.5,-191 186.5,-172 260.5,-172 260.5,-191"/>
<text text-anchor="middle" x="223.5" y="-179" font-family="Helvetica,sans-Serif" font-size="10.00">QString::arg</text>
</a>
</g>
</g>
<!-- Node1&#45;&gt;Node3 -->
<g id="edge2" class="edge">
<title>Node1&#45;&gt;Node3</title>
<path fill="none" stroke="#63b8ff" d="M75.09,-126.03C93.26,-136.16 123.48,-152.12 151,-162.5 159.74,-165.79 169.28,-168.75 178.46,-171.29"/>
<polygon fill="#63b8ff" stroke="#63b8ff" points="186.41,-173.42 177.75,-174.83 182.55,-172.39 178.68,-171.35 178.68,-171.35 178.68,-171.35 182.55,-172.39 179.61,-167.88 186.41,-173.42 186.41,-173.42"/>
</g>
<!-- Node4 -->
<g id="node4" class="node">
<title>Node4</title>
<g id="a_node4"><a target="_parent" xlink:href="https://doc.qt.io/qt-5/qregularexpressionmatch.html#hasMatch" xlink:title=" ">
<polygon fill="white" stroke="#666666" points="296,-153.5 151,-153.5 151,-123.5 296,-123.5 296,-153.5"/>
<text text-anchor="start" x="159" y="-141.5" font-family="Helvetica,sans-Serif" font-size="10.00">QRegularExpressionMatch</text>
<text text-anchor="middle" x="223.5" y="-130.5" font-family="Helvetica,sans-Serif" font-size="10.00">::hasMatch</text>
</a>
</g>
</g>
<!-- Node1&#45;&gt;Node4 -->
<g id="edge3" class="edge">
<title>Node1&#45;&gt;Node4</title>
<path fill="none" stroke="#63b8ff" d="M115.4,-124.13C124.27,-125.32 133.58,-126.57 142.84,-127.81"/>
<polygon fill="#63b8ff" stroke="#63b8ff" points="150.97,-128.9 142.56,-131.41 147,-128.37 143.04,-127.84 143.04,-127.84 143.04,-127.84 147,-128.37 143.52,-124.27 150.97,-128.9 150.97,-128.9"/>
</g>
<!-- Node5 -->
<g id="node5" class="node">
<title>Node5</title>
<g id="a_node5"><a target="_parent" xlink:href="https://doc.qt.io/qt-5/qstring.html#isEmpty" xlink:title=" ">
<polygon fill="white" stroke="#666666" points="272.5,-105 174.5,-105 174.5,-86 272.5,-86 272.5,-105"/>
<text text-anchor="middle" x="223.5" y="-93" font-family="Helvetica,sans-Serif" font-size="10.00">QString::isEmpty</text>
</a>
</g>
</g>
<!-- Node1&#45;&gt;Node5 -->
<g id="edge4" class="edge">
<title>Node1&#45;&gt;Node5</title>
<path fill="none" stroke="#63b8ff" d="M115.4,-109.21C131.94,-107.1 149.98,-104.79 166.46,-102.68"/>
<polygon fill="#63b8ff" stroke="#63b8ff" points="174.42,-101.66 166.94,-106.24 170.45,-102.17 166.48,-102.67 166.48,-102.67 166.48,-102.67 170.45,-102.17 166.02,-99.1 174.42,-101.66 174.42,-101.66"/>
</g>
<!-- Node6 -->
<g id="node6" class="node">
<title>Node6</title>
<g id="a_node6"><a target="_parent" xlink:href="https://doc.qt.io/qt-5/qregularexpression.html#match" xlink:title=" ">
<polygon fill="white" stroke="#666666" points="281,-67.5 166,-67.5 166,-37.5 281,-37.5 281,-67.5"/>
<text text-anchor="start" x="174" y="-55.5" font-family="Helvetica,sans-Serif" font-size="10.00">QRegularExpression</text>
<text text-anchor="middle" x="223.5" y="-44.5" font-family="Helvetica,sans-Serif" font-size="10.00">::match</text>
</a>
</g>
</g>
<!-- Node1&#45;&gt;Node6 -->
<g id="edge5" class="edge">
<title>Node1&#45;&gt;Node6</title>
<path fill="none" stroke="#63b8ff" d="M80.02,-106.97C98.67,-98.83 126.44,-86.96 151,-77.5 157.26,-75.09 163.87,-72.64 170.43,-70.28"/>
<polygon fill="#63b8ff" stroke="#63b8ff" points="178.1,-67.54 171.78,-73.62 174.33,-68.88 170.56,-70.23 170.56,-70.23 170.56,-70.23 174.33,-68.88 169.35,-66.84 178.1,-67.54 178.1,-67.54"/>
</g>
<!-- Node7 -->
<g id="node7" class="node">
<title>Node7</title>
<g id="a_node7"><a target="_parent" xlink:href="https://doc.qt.io/qt-5/qlist.html#size" xlink:title=" ">
<polygon fill="white" stroke="#666666" points="257,-19 190,-19 190,0 257,0 257,-19"/>
<text text-anchor="middle" x="223.5" y="-7" font-family="Helvetica,sans-Serif" font-size="10.00">QList::size</text>
</a>
</g>
</g>
<!-- Node1&#45;&gt;Node7 -->
<g id="edge6" class="edge">
<title>Node1&#45;&gt;Node7</title>
<path fill="none" stroke="#63b8ff" d="M65.77,-106.93C80.05,-88.8 113.67,-49.39 151,-28.5 160.47,-23.2 171.47,-19.33 181.97,-16.52"/>
<polygon fill="#63b8ff" stroke="#63b8ff" points="189.86,-14.58 182.96,-19.99 185.98,-15.54 182.09,-16.49 182.09,-16.49 182.09,-16.49 185.98,-15.54 181.23,-13 189.86,-14.58 189.86,-14.58"/>
</g>
</g>
</svg>
