<?xml version="1.0" encoding="UTF-8" standalone="no"?>
<!DOCTYPE svg PUBLIC "-//W3C//DTD SVG 1.1//EN"
 "http://www.w3.org/Graphics/SVG/1.1/DTD/svg11.dtd">
<!-- Generated by graphviz version 2.43.0 (0)
 -->
<!-- Title: Model::shapes Pages: 1 -->
<svg width="214pt" height="45pt"
 viewBox="0.00 0.00 214.00 45.00" xmlns="http://www.w3.org/2000/svg" xmlns:xlink="http://www.w3.org/1999/xlink">
<g id="graph0" class="graph" transform="scale(1 1) rotate(0) translate(4 41)">
<title>Model::shapes</title>
<!-- Node1 -->
<g id="node1" class="node">
<title>Node1</title>
<g id="a_node1"><a xlink:title=" ">
<polygon fill="#999999" stroke="#666666" points="87,-19 0,-19 0,0 87,0 87,-19"/>
<text text-anchor="middle" x="43.5" y="-7" font-family="Helvetica,sans-Serif" font-size="10.00">Model::shapes</text>
</a>
</g>
</g>
<!-- Node1&#45;&gt;Node1 -->
<g id="edge2" class="edge">
<title>Node1&#45;&gt;Node1</title>
<path fill="none" stroke="#63b8ff" d="M25,-19.08C16.01,-27.73 22.17,-37 43.5,-37 58.83,-37 66.33,-32.21 65.99,-26.31"/>
<polygon fill="#63b8ff" stroke="#63b8ff" points="62,-19.08 69.02,-24.34 63.93,-22.58 65.87,-26.08 65.87,-26.08 65.87,-26.08 63.93,-22.58 62.71,-27.83 62,-19.08 62,-19.08"/>
</g>
<!-- Node2 -->
<g id="node2" class="node">
<title>Node2</title>
<g id="a_node2"><a target="_parent" xlink:href="https://doc.qt.io/qt-5/qhash.html#insert" xlink:title=" ">
<polygon fill="white" stroke="#666666" points="206,-19 123,-19 123,0 206,0 206,-19"/>
<text text-anchor="middle" x="164.5" y="-7" font-family="Helvetica,sans-Serif" font-size="10.00">QHash::insert</text>
</a>
</g>
</g>
<!-- Node1&#45;&gt;Node2 -->
<g id="edge1" class="edge">
<title>Node1&#45;&gt;Node2</title>
<path fill="none" stroke="#63b8ff" d="M87.13,-9.5C96.01,-9.5 105.44,-9.5 114.53,-9.5"/>
<polygon fill="#63b8ff" stroke="#63b8ff" points="122.76,-9.5 114.76,-13.1 118.76,-9.5 114.76,-9.5 114.76,-9.5 114.76,-9.5 118.76,-9.5 114.76,-5.9 122.76,-9.5 122.76,-9.5"/>
</g>
</g>
</svg>
