<?xml version="1.0" encoding="UTF-8" standalone="no"?>
<!DOCTYPE svg PUBLIC "-//W3C//DTD SVG 1.1//EN"
 "http://www.w3.org/Graphics/SVG/1.1/DTD/svg11.dtd">
<!-- Generated by graphviz version 2.43.0 (0)
 -->
<!-- Title: Generator::generate Pages: 1 -->
<svg width="444pt" height="235pt"
 viewBox="0.00 0.00 444.00 235.00" xmlns="http://www.w3.org/2000/svg" xmlns:xlink="http://www.w3.org/1999/xlink">
<g id="graph0" class="graph" transform="scale(1 1) rotate(0) translate(4 231)">
<title>Generator::generate</title>
<!-- Node1 -->
<g id="node1" class="node">
<title>Node1</title>
<g id="a_node1"><a xlink:title=" ">
<polygon fill="#999999" stroke="#666666" points="115,-114 0,-114 0,-95 115,-95 115,-114"/>
<text text-anchor="middle" x="57.5" y="-102" font-family="Helvetica,sans-Serif" font-size="10.00">Generator::generate</text>
</a>
</g>
</g>
<!-- Node2 -->
<g id="node2" class="node">
<title>Node2</title>
<g id="a_node2"><a target="_parent" xlink:href="https://doc.qt.io/qt-5/qlist.html#append" xlink:title=" ">
<polygon fill="white" stroke="#666666" points="268,-227 185,-227 185,-208 268,-208 268,-227"/>
<text text-anchor="middle" x="226.5" y="-215" font-family="Helvetica,sans-Serif" font-size="10.00">QList::append</text>
</a>
</g>
</g>
<!-- Node1&#45;&gt;Node2 -->
<g id="edge1" class="edge">
<title>Node1&#45;&gt;Node2</title>
<path fill="none" stroke="#63b8ff" d="M65.16,-114.18C78.88,-133.36 112.29,-176.25 151,-198.5 158.97,-203.08 168.04,-206.57 177.04,-209.22"/>
<polygon fill="#63b8ff" stroke="#63b8ff" points="184.9,-211.35 176.24,-212.74 181.04,-210.31 177.18,-209.26 177.18,-209.26 177.18,-209.26 181.04,-210.31 178.12,-205.79 184.9,-211.35 184.9,-211.35"/>
</g>
<!-- Node3 -->
<g id="node3" class="node">
<title>Node3</title>
<g id="a_node3"><a target="_parent" xlink:href="https://doc.qt.io/qt-5/qregularexpressionmatch.html#hasMatch" xlink:title=" ">
<polygon fill="white" stroke="#666666" points="299,-189.5 154,-189.5 154,-159.5 299,-159.5 299,-189.5"/>
<text text-anchor="start" x="162" y="-177.5" font-family="Helvetica,sans-Serif" font-size="10.00">QRegularExpressionMatch</text>
<text text-anchor="middle" x="226.5" y="-166.5" font-family="Helvetica,sans-Serif" font-size="10.00">::hasMatch</text>
</a>
</g>
</g>
<!-- Node1&#45;&gt;Node3 -->
<g id="edge2" class="edge">
<title>Node1&#45;&gt;Node3</title>
<path fill="none" stroke="#63b8ff" d="M75.87,-114.12C94.2,-124.03 124.09,-139.55 151,-150.5 156.28,-152.65 161.83,-154.74 167.41,-156.73"/>
<polygon fill="#63b8ff" stroke="#63b8ff" points="175.04,-159.38 166.3,-160.15 171.26,-158.06 167.48,-156.75 167.48,-156.75 167.48,-156.75 171.26,-158.06 168.66,-153.35 175.04,-159.38 175.04,-159.38"/>
</g>
<!-- Node4 -->
<g id="node4" class="node">
<title>Node4</title>
<g id="a_node4"><a target="_parent" xlink:href="https://doc.qt.io/qt-5/qregularexpression.html#match" xlink:title=" ">
<polygon fill="white" stroke="#666666" points="284,-141.5 169,-141.5 169,-111.5 284,-111.5 284,-141.5"/>
<text text-anchor="start" x="177" y="-129.5" font-family="Helvetica,sans-Serif" font-size="10.00">QRegularExpression</text>
<text text-anchor="middle" x="226.5" y="-118.5" font-family="Helvetica,sans-Serif" font-size="10.00">::match</text>
</a>
</g>
</g>
<!-- Node1&#45;&gt;Node4 -->
<g id="edge3" class="edge">
<title>Node1&#45;&gt;Node4</title>
<path fill="none" stroke="#63b8ff" d="M115.04,-111.95C129.65,-113.87 145.49,-115.96 160.5,-117.94"/>
<polygon fill="#63b8ff" stroke="#63b8ff" points="168.74,-119.02 160.33,-121.55 164.77,-118.5 160.8,-117.98 160.8,-117.98 160.8,-117.98 164.77,-118.5 161.27,-114.41 168.74,-119.02 168.74,-119.02"/>
</g>
<!-- Node5 -->
<g id="node5" class="node">
<title>Node5</title>
<g id="a_node5"><a xlink:href="classGenerator.html#a3ee386f7ccc09947e1c9eedcdc60ee25" target="_top" xlink:title=" ">
<polygon fill="white" stroke="#666666" points="302,-93 151,-93 151,-74 302,-74 302,-93"/>
<text text-anchor="middle" x="226.5" y="-81" font-family="Helvetica,sans-Serif" font-size="10.00">Generator::renderOperation</text>
</a>
</g>
</g>
<!-- Node1&#45;&gt;Node5 -->
<g id="edge4" class="edge">
<title>Node1&#45;&gt;Node5</title>
<path fill="none" stroke="#63b8ff" d="M115.04,-97.39C124.06,-96.26 133.55,-95.06 143.02,-93.87"/>
<polygon fill="#63b8ff" stroke="#63b8ff" points="150.96,-92.87 143.47,-97.44 146.99,-93.37 143.02,-93.87 143.02,-93.87 143.02,-93.87 146.99,-93.37 142.57,-90.3 150.96,-92.87 150.96,-92.87"/>
</g>
<!-- Node6 -->
<g id="node6" class="node">
<title>Node6</title>
<g id="a_node6"><a xlink:href="classGenerator.html#a5c83551528ea2d2730022e0ad8fcca4c" target="_top" xlink:title=" ">
<polygon fill="white" stroke="#666666" points="296,-56 157,-56 157,-37 296,-37 296,-56"/>
<text text-anchor="middle" x="226.5" y="-44" font-family="Helvetica,sans-Serif" font-size="10.00">Generator::renderService</text>
</a>
</g>
</g>
<!-- Node1&#45;&gt;Node6 -->
<g id="edge5" class="edge">
<title>Node1&#45;&gt;Node6</title>
<path fill="none" stroke="#63b8ff" d="M78.74,-94.93C97.25,-86.43 125.56,-74.05 151,-65.5 158.86,-62.86 167.3,-60.38 175.56,-58.14"/>
<polygon fill="#63b8ff" stroke="#63b8ff" points="183.41,-56.07 176.6,-61.59 179.55,-57.09 175.68,-58.11 175.68,-58.11 175.68,-58.11 179.55,-57.09 174.76,-54.63 183.41,-56.07 183.41,-56.07"/>
</g>
<!-- Node9 -->
<g id="node9" class="node">
<title>Node9</title>
<g id="a_node9"><a target="_parent" xlink:href="https://doc.qt.io/qt-5/qlist.html#size" xlink:title=" ">
<polygon fill="white" stroke="#666666" points="260,-19 193,-19 193,0 260,0 260,-19"/>
<text text-anchor="middle" x="226.5" y="-7" font-family="Helvetica,sans-Serif" font-size="10.00">QList::size</text>
</a>
</g>
</g>
<!-- Node1&#45;&gt;Node9 -->
<g id="edge8" class="edge">
<title>Node1&#45;&gt;Node9</title>
<path fill="none" stroke="#63b8ff" d="M67.23,-95C82.59,-78.87 116.14,-46.15 151,-28.5 161.44,-23.21 173.48,-19.32 184.78,-16.48"/>
<polygon fill="#63b8ff" stroke="#63b8ff" points="192.86,-14.6 185.88,-19.92 188.96,-15.51 185.07,-16.41 185.07,-16.41 185.07,-16.41 188.96,-15.51 184.25,-12.91 192.86,-14.6 192.86,-14.6"/>
</g>
<!-- Node7 -->
<g id="node7" class="node">
<title>Node7</title>
<g id="a_node7"><a target="_parent" xlink:href="https://doc.qt.io/qt-5/qstring.html#arg-11" xlink:title=" ">
<polygon fill="white" stroke="#666666" points="424,-75 350,-75 350,-56 424,-56 424,-75"/>
<text text-anchor="middle" x="387" y="-63" font-family="Helvetica,sans-Serif" font-size="10.00">QString::arg</text>
</a>
</g>
</g>
<!-- Node6&#45;&gt;Node7 -->
<g id="edge6" class="edge">
<title>Node6&#45;&gt;Node7</title>
<path fill="none" stroke="#63b8ff" d="M296.1,-54.72C311.49,-56.57 327.42,-58.48 341.52,-60.17"/>
<polygon fill="#63b8ff" stroke="#63b8ff" points="349.59,-61.14 341.22,-63.76 345.62,-60.66 341.65,-60.18 341.65,-60.18 341.65,-60.18 345.62,-60.66 342.08,-56.61 349.59,-61.14 349.59,-61.14"/>
</g>
<!-- Node8 -->
<g id="node8" class="node">
<title>Node8</title>
<g id="a_node8"><a target="_parent" xlink:href="https://doc.qt.io/qt-5/qstring.html#isEmpty" xlink:title=" ">
<polygon fill="white" stroke="#666666" points="436,-38 338,-38 338,-19 436,-19 436,-38"/>
<text text-anchor="middle" x="387" y="-26" font-family="Helvetica,sans-Serif" font-size="10.00">QString::isEmpty</text>
</a>
</g>
</g>
<!-- Node6&#45;&gt;Node8 -->
<g id="edge7" class="edge">
<title>Node6&#45;&gt;Node8</title>
<path fill="none" stroke="#63b8ff" d="M296.1,-38.71C307.3,-37.44 318.79,-36.13 329.65,-34.9"/>
<polygon fill="#63b8ff" stroke="#63b8ff" points="337.82,-33.97 330.28,-38.45 333.84,-34.42 329.87,-34.87 329.87,-34.87 329.87,-34.87 333.84,-34.42 329.46,-31.3 337.82,-33.97 337.82,-33.97"/>
</g>
</g>
</svg>
