<?xml version="1.0" encoding="UTF-8" standalone="no"?>
<!DOCTYPE svg PUBLIC "-//W3C//DTD SVG 1.1//EN"
 "http://www.w3.org/Graphics/SVG/1.1/DTD/svg11.dtd">
<!-- Generated by graphviz version 2.43.0 (0)
 -->
<!-- Title: Generator Pages: 1 -->
<svg width="221pt" height="226pt"
 viewBox="0.00 0.00 221.00 226.00" xmlns="http://www.w3.org/2000/svg" xmlns:xlink="http://www.w3.org/1999/xlink">
<g id="graph0" class="graph" transform="scale(1 1) rotate(0) translate(4 222)">
<title>Generator</title>
<!-- Node1 -->
<g id="node1" class="node">
<title>Node1</title>
<g id="a_node1"><a xlink:title=" ">
<polygon fill="#999999" stroke="#666666" points="139.5,-19 74.5,-19 74.5,0 139.5,0 139.5,-19"/>
<text text-anchor="middle" x="107" y="-7" font-family="Helvetica,sans-Serif" font-size="10.00">Generator</text>
</a>
</g>
</g>
<!-- Node2 -->
<g id="node2" class="node">
<title>Node2</title>
<g id="a_node2"><a xlink:href="classRenderer.html" target="_top" xlink:title=" ">
<polygon fill="white" stroke="#bfbfbf" points="65.5,-96 4.5,-96 4.5,-77 65.5,-77 65.5,-96"/>
<text text-anchor="middle" x="35" y="-84" font-family="Helvetica,sans-Serif" font-size="10.00">Renderer</text>
</a>
</g>
</g>
<!-- Node2&#45;&gt;Node1 -->
<g id="edge1" class="edge">
<title>Node2&#45;&gt;Node1</title>
<path fill="none" stroke="#9a32cd" stroke-dasharray="5,2" d="M44.34,-69.97C50.82,-59.93 60.04,-46.93 70,-37 76.83,-30.2 85.55,-23.86 92.81,-19.09"/>
<polygon fill="#9a32cd" stroke="#9a32cd" points="39.96,-76.98 41.15,-68.28 42.08,-73.58 44.21,-70.19 44.21,-70.19 44.21,-70.19 42.08,-73.58 47.26,-72.1 39.96,-76.98 39.96,-76.98"/>
<text text-anchor="middle" x="92.5" y="-45.5" font-family="Helvetica,sans-Serif" font-size="10.00"> renderer</text>
</g>
<!-- Node3 -->
<g id="node3" class="node">
<title>Node3</title>
<g id="a_node3"><a target="_parent" xlink:href="https://doc.qt.io/qt-5/qstringlist.html" xlink:title=" ">
<polygon fill="white" stroke="#bfbfbf" points="70,-162 0,-162 0,-143 70,-143 70,-162"/>
<text text-anchor="middle" x="35" y="-150" font-family="Helvetica,sans-Serif" font-size="10.00">QStringList</text>
</a>
</g>
</g>
<!-- Node3&#45;&gt;Node2 -->
<g id="edge2" class="edge">
<title>Node3&#45;&gt;Node2</title>
<path fill="none" stroke="#9a32cd" stroke-dasharray="5,2" d="M35,-134.77C35,-122.49 35,-106.3 35,-96.41"/>
<polygon fill="#9a32cd" stroke="#9a32cd" points="35,-142.87 31.4,-134.87 35,-138.87 35,-134.87 35,-134.87 35,-134.87 35,-138.87 38.6,-134.87 35,-142.87 35,-142.87"/>
<text text-anchor="middle" x="61.5" y="-117" font-family="Helvetica,sans-Serif" font-size="10.00"> templates</text>
</g>
<!-- Node4 -->
<g id="node4" class="node">
<title>Node4</title>
<g id="a_node4"><a target="_parent" xlink:href="https://doc.qt.io/qt-5/qlist.html" xlink:title=" ">
<polygon fill="white" stroke="#bfbfbf" points="55.5,-218 14.5,-218 14.5,-199 55.5,-199 55.5,-218"/>
<text text-anchor="middle" x="35" y="-206" font-family="Helvetica,sans-Serif" font-size="10.00">QList</text>
</a>
</g>
</g>
<!-- Node4&#45;&gt;Node3 -->
<g id="edge3" class="edge">
<title>Node4&#45;&gt;Node3</title>
<path fill="none" stroke="#63b8ff" d="M35,-190.36C35,-181 35,-169.83 35,-162.25"/>
<polygon fill="#63b8ff" stroke="#63b8ff" points="35,-198.58 31.4,-190.58 35,-194.58 35,-190.58 35,-190.58 35,-190.58 35,-194.58 38.6,-190.58 35,-198.58 35,-198.58"/>
</g>
<!-- Node5 -->
<g id="node5" class="node">
<title>Node5</title>
<g id="a_node5"><a target="_parent" xlink:href="https://doc.qt.io/qt-5/qregularexpression.html" xlink:title=" ">
<polygon fill="white" stroke="#bfbfbf" points="198.5,-96 83.5,-96 83.5,-77 198.5,-77 198.5,-96"/>
<text text-anchor="middle" x="141" y="-84" font-family="Helvetica,sans-Serif" font-size="10.00">QRegularExpression</text>
</a>
</g>
</g>
<!-- Node5&#45;&gt;Node1 -->
<g id="edge4" class="edge">
<title>Node5&#45;&gt;Node1</title>
<path fill="none" stroke="#9a32cd" stroke-dasharray="5,2" d="M133.79,-69.59C126.78,-54.13 116.41,-31.27 110.85,-19"/>
<polygon fill="#9a32cd" stroke="#9a32cd" points="137.1,-76.9 130.52,-71.1 135.45,-73.25 133.8,-69.61 133.8,-69.61 133.8,-69.61 135.45,-73.25 137.08,-68.12 137.1,-76.9 137.1,-76.9"/>
<text text-anchor="middle" x="170.5" y="-51" font-family="Helvetica,sans-Serif" font-size="10.00"> operationPattern</text>
<text text-anchor="middle" x="170.5" y="-40" font-family="Helvetica,sans-Serif" font-size="10.00">servicePattern</text>
</g>
</g>
</svg>
