<?xml version="1.0" encoding="UTF-8" standalone="no"?>
<!DOCTYPE svg PUBLIC "-//W3C//DTD SVG 1.1//EN"
 "http://www.w3.org/Graphics/SVG/1.1/DTD/svg11.dtd">
<!-- Generated by graphviz version 2.43.0 (0)
 -->
<!-- Title: Model::shapes Pages: 1 -->
<svg width="211pt" height="45pt"
 viewBox="0.00 0.00 211.00 45.00" xmlns="http://www.w3.org/2000/svg" xmlns:xlink="http://www.w3.org/1999/xlink">
<g id="graph0" class="graph" transform="scale(1 1) rotate(0) translate(4 41)">
<title>Model::shapes</title>
<!-- Node1 -->
<g id="Node000001" class="node">
<title>Node1</title>
<g id="a_Node000001"><a xlink:title=" ">
<polygon fill="#999999" stroke="#666666" points="203,-19 116,-19 116,0 203,0 203,-19"/>
<text text-anchor="middle" x="159.5" y="-7" font-family="Helvetica,sans-Serif" font-size="10.00">Model::shapes</text>
</a>
</g>
</g>
<!-- Node1&#45;&gt;Node1 -->
<g id="edge2_Node000001_Node000001" class="edge">
<title>Node1&#45;&gt;Node1</title>
<g id="a_edge2_Node000001_Node000001"><a xlink:title=" ">
<path fill="none" stroke="#63b8ff" d="M181.61,-26.31C181.95,-32.21 174.57,-37 159.5,-37 138.53,-37 132.46,-27.73 141.31,-19.08"/>
<polygon fill="#63b8ff" stroke="#63b8ff" points="177.69,-19.08 184.67,-24.39 179.6,-22.6 181.51,-26.11 181.51,-26.11 181.51,-26.11 179.6,-22.6 178.34,-27.83 177.69,-19.08 177.69,-19.08"/>
</a>
</g>
</g>
<!-- Node2 -->
<g id="Node000002" class="node">
<title>Node2</title>
<g id="a_Node000002"><a xlink:href="classModel.html#a5296da875545acf527ce42c707d1ead1" target="_top" xlink:title="Add the logical content of the JSON AST model file given by ast into this semantic model.">
<polygon fill="white" stroke="#666666" points="80,-19 0,-19 0,0 80,0 80,-19"/>
<text text-anchor="middle" x="40" y="-7" font-family="Helvetica,sans-Serif" font-size="10.00">Model::insert</text>
</a>
</g>
</g>
<!-- Node1&#45;&gt;Node2 -->
<g id="edge1_Node000001_Node000002" class="edge">
<title>Node1&#45;&gt;Node2</title>
<g id="a_edge1_Node000001_Node000002"><a xlink:title=" ">
<path fill="none" stroke="#63b8ff" d="M107.69,-9.5C98.42,-9.5 88.88,-9.5 80.01,-9.5"/>
<polygon fill="#63b8ff" stroke="#63b8ff" points="115.75,-9.5 107.75,-13.1 111.75,-9.5 107.75,-9.5 107.75,-9.5 107.75,-9.5 111.75,-9.5 107.75,-5.9 115.75,-9.5 115.75,-9.5"/>
</a>
</g>
</g>
</g>
</svg>
