<?xml version="1.0" encoding="UTF-8" standalone="no"?>
<!DOCTYPE svg PUBLIC "-//W3C//DTD SVG 1.1//EN"
 "http://www.w3.org/Graphics/SVG/1.1/DTD/svg11.dtd">
<!-- Generated by graphviz version 2.43.0 (0)
 -->
<!-- Title: ShapePrivate Pages: 1 -->
<svg width="294pt" height="181pt"
 viewBox="0.00 0.00 294.00 181.00" xmlns="http://www.w3.org/2000/svg" xmlns:xlink="http://www.w3.org/1999/xlink">
<g id="graph0" class="graph" transform="scale(1 1) rotate(0) translate(4 177)">
<title>ShapePrivate</title>
<!-- Node1 -->
<g id="node1" class="node">
<title>Node1</title>
<g id="a_node1"><a xlink:title="The ShapePrivate class provides private implementation for Shape.">
<polygon fill="#999999" stroke="#666666" points="93.5,-85 12.5,-85 12.5,-66 93.5,-66 93.5,-85"/>
<text text-anchor="middle" x="53" y="-73" font-family="Helvetica,sans-Serif" font-size="10.00">ShapePrivate</text>
</a>
</g>
</g>
<!-- Node2 -->
<g id="node2" class="node">
<title>Node2</title>
<g id="a_node2"><a xlink:href="classShape.html" target="_top" xlink:title="The Shape class provides a Qt representation of a Smithy semantic shape.">
<polygon fill="white" stroke="#666666" points="76.5,-19 29.5,-19 29.5,0 76.5,0 76.5,-19"/>
<text text-anchor="middle" x="53" y="-7" font-family="Helvetica,sans-Serif" font-size="10.00">Shape</text>
</a>
</g>
</g>
<!-- Node1&#45;&gt;Node2 -->
<g id="edge2" class="edge">
<title>Node1&#45;&gt;Node2</title>
<path fill="none" stroke="#9a32cd" stroke-dasharray="5,2" d="M33.68,-60.31C30.15,-56.72 26.97,-52.57 25,-48 20.31,-37.1 30.08,-26.44 39.34,-19.29"/>
<polygon fill="#9a32cd" stroke="#9a32cd" points="39.79,-65.79 31.43,-63.13 36.81,-63.12 33.84,-60.45 33.84,-60.45 33.84,-60.45 36.81,-63.12 36.24,-57.77 39.79,-65.79 39.79,-65.79"/>
<text text-anchor="middle" x="39" y="-40" font-family="Helvetica,sans-Serif" font-size="10.00"> d_ptr</text>
</g>
<!-- Node2&#45;&gt;Node1 -->
<g id="edge1" class="edge">
<title>Node2&#45;&gt;Node1</title>
<path fill="none" stroke="#9a32cd" stroke-dasharray="5,2" d="M56.08,-27.19C56.94,-33.68 57.51,-41.18 57,-48 56.55,-53.94 55.55,-60.56 54.67,-65.7"/>
<polygon fill="#9a32cd" stroke="#9a32cd" points="54.81,-19.12 59.61,-26.47 55.44,-23.08 56.06,-27.03 56.06,-27.03 56.06,-27.03 55.44,-23.08 52.5,-27.59 54.81,-19.12 54.81,-19.12"/>
<text text-anchor="middle" x="72" y="-40" font-family="Helvetica,sans-Serif" font-size="10.00"> q_ptr</text>
</g>
<!-- Node3 -->
<g id="node3" class="node">
<title>Node3</title>
<g id="a_node3"><a target="_parent" xlink:href="https://doc.qt.io/qt-5/qjsonobject.html" xlink:title=" ">
<polygon fill="white" stroke="#bfbfbf" points="76,-173 0,-173 0,-154 76,-154 76,-173"/>
<text text-anchor="middle" x="38" y="-161" font-family="Helvetica,sans-Serif" font-size="10.00">QJsonObject</text>
</a>
</g>
</g>
<!-- Node3&#45;&gt;Node1 -->
<g id="edge3" class="edge">
<title>Node3&#45;&gt;Node1</title>
<path fill="none" stroke="#9a32cd" stroke-dasharray="5,2" d="M37.68,-145.68C37.8,-133.64 38.69,-117.14 42,-103 43.46,-96.79 46.21,-90.17 48.59,-85.09"/>
<polygon fill="#9a32cd" stroke="#9a32cd" points="37.71,-153.9 34.08,-145.91 37.7,-149.9 37.68,-145.9 37.68,-145.9 37.68,-145.9 37.7,-149.9 41.28,-145.89 37.71,-153.9 37.71,-153.9"/>
<text text-anchor="middle" x="51.5" y="-117" font-family="Helvetica,sans-Serif" font-size="10.00"> ast</text>
</g>
<!-- Node4 -->
<g id="node4" class="node">
<title>Node4</title>
<g id="a_node4"><a xlink:href="classShapeId.html" target="_top" xlink:title="The ShapeId class provides a Qt representation of a Smithy Shape ID.">
<polygon fill="white" stroke="#666666" points="150,-173 94,-173 94,-154 150,-154 150,-173"/>
<text text-anchor="middle" x="122" y="-161" font-family="Helvetica,sans-Serif" font-size="10.00">ShapeId</text>
</a>
</g>
</g>
<!-- Node4&#45;&gt;Node1 -->
<g id="edge4" class="edge">
<title>Node4&#45;&gt;Node1</title>
<path fill="none" stroke="#9a32cd" stroke-dasharray="5,2" d="M106.47,-148.2C102.58,-144.37 98.52,-140.14 95,-136 80.58,-119.05 66.14,-97.28 58.52,-85.33"/>
<polygon fill="#9a32cd" stroke="#9a32cd" points="112.33,-153.82 104.06,-150.88 109.44,-151.05 106.56,-148.28 106.56,-148.28 106.56,-148.28 109.44,-151.05 109.05,-145.68 112.33,-153.82 112.33,-153.82"/>
<text text-anchor="middle" x="101.5" y="-117" font-family="Helvetica,sans-Serif" font-size="10.00"> id</text>
</g>
<!-- Node5 -->
<g id="node5" class="node">
<title>Node5</title>
<g id="a_node5"><a xlink:href="classShapeIdPrivate.html" target="_top" xlink:title="The ShapeIdPrivate class provides private implementation for ShapeId.">
<polygon fill="white" stroke="#666666" points="216,-85 126,-85 126,-66 216,-66 216,-85"/>
<text text-anchor="middle" x="171" y="-73" font-family="Helvetica,sans-Serif" font-size="10.00">ShapeIdPrivate</text>
</a>
</g>
</g>
<!-- Node4&#45;&gt;Node5 -->
<g id="edge6" class="edge">
<title>Node4&#45;&gt;Node5</title>
<path fill="none" stroke="#9a32cd" stroke-dasharray="5,2" d="M115.48,-145.74C111.7,-133.06 109.07,-115.72 117,-103 122.14,-94.76 130.67,-89.01 139.45,-85.02"/>
<polygon fill="#9a32cd" stroke="#9a32cd" points="118.17,-153.66 112.19,-147.24 116.89,-149.87 115.6,-146.08 115.6,-146.08 115.6,-146.08 116.89,-149.87 119.01,-144.92 118.17,-153.66 118.17,-153.66"/>
<text text-anchor="middle" x="131" y="-117" font-family="Helvetica,sans-Serif" font-size="10.00"> q_ptr</text>
</g>
<!-- Node5&#45;&gt;Node4 -->
<g id="edge5" class="edge">
<title>Node5&#45;&gt;Node4</title>
<path fill="none" stroke="#9a32cd" stroke-dasharray="5,2" d="M167.05,-92.89C163.55,-105.38 157.65,-122.63 149,-136 144.65,-142.73 138.31,-149.06 132.87,-153.85"/>
<polygon fill="#9a32cd" stroke="#9a32cd" points="169.08,-85.12 170.54,-93.77 168.07,-88.99 167.05,-92.86 167.05,-92.86 167.05,-92.86 168.07,-88.99 163.57,-91.95 169.08,-85.12 169.08,-85.12"/>
<text text-anchor="middle" x="178" y="-117" font-family="Helvetica,sans-Serif" font-size="10.00"> d_ptr</text>
</g>
<!-- Node6 -->
<g id="node6" class="node">
<title>Node6</title>
<g id="a_node6"><a target="_parent" xlink:href="https://doc.qt.io/qt-5/qstring.html" xlink:title=" ">
<polygon fill="white" stroke="#bfbfbf" points="248.5,-173 195.5,-173 195.5,-154 248.5,-154 248.5,-173"/>
<text text-anchor="middle" x="222" y="-161" font-family="Helvetica,sans-Serif" font-size="10.00">QString</text>
</a>
</g>
</g>
<!-- Node6&#45;&gt;Node5 -->
<g id="edge7" class="edge">
<title>Node6&#45;&gt;Node5</title>
<path fill="none" stroke="#9a32cd" stroke-dasharray="5,2" d="M216.62,-146.24C212.12,-133.82 204.99,-116.6 196,-103 191.67,-96.46 185.67,-90.04 180.64,-85.15"/>
<polygon fill="#9a32cd" stroke="#9a32cd" points="219.31,-153.96 213.28,-147.59 218,-150.18 216.68,-146.4 216.68,-146.4 216.68,-146.4 218,-150.18 220.08,-145.22 219.31,-153.96 219.31,-153.96"/>
<text text-anchor="middle" x="249" y="-128" font-family="Helvetica,sans-Serif" font-size="10.00"> memberName</text>
<text text-anchor="middle" x="249" y="-117" font-family="Helvetica,sans-Serif" font-size="10.00">nameSpace</text>
<text text-anchor="middle" x="249" y="-106" font-family="Helvetica,sans-Serif" font-size="10.00">shapeName</text>
</g>
</g>
</svg>
