<?xml version="1.0" encoding="UTF-8" standalone="no"?>
<!DOCTYPE svg PUBLIC "-//W3C//DTD SVG 1.1//EN"
 "http://www.w3.org/Graphics/SVG/1.1/DTD/svg11.dtd">
<!-- Generated by graphviz version 2.43.0 (0)
 -->
<!-- Title: ShapeId::isRootShapeId Pages: 1 -->
<svg width="492pt" height="64pt"
 viewBox="0.00 0.00 492.00 64.00" xmlns="http://www.w3.org/2000/svg" xmlns:xlink="http://www.w3.org/1999/xlink">
<g id="graph0" class="graph" transform="scale(1 1) rotate(0) translate(4 60)">
<title>ShapeId::isRootShapeId</title>
<!-- Node1 -->
<g id="node1" class="node">
<title>Node1</title>
<g id="a_node1"><a xlink:title="Returns true if this Shape ID is a root Shape ID, false otherwise.">
<polygon fill="#999999" stroke="#666666" points="131,-37 0,-37 0,-18 131,-18 131,-37"/>
<text text-anchor="middle" x="65.5" y="-25" font-family="Helvetica,sans-Serif" font-size="10.00">ShapeId::isRootShapeId</text>
</a>
</g>
</g>
<!-- Node2 -->
<g id="node2" class="node">
<title>Node2</title>
<g id="a_node2"><a xlink:href="classShapeId.html#a6f1fc0aab99d0108fc3f1eeb5a4d2687" target="_top" xlink:title="Returns true if this Shape ID has a non&#45;empty member name, otherwise false otherwise.">
<polygon fill="white" stroke="#666666" points="316,-37 167,-37 167,-18 316,-18 316,-37"/>
<text text-anchor="middle" x="241.5" y="-25" font-family="Helvetica,sans-Serif" font-size="10.00">ShapeId::hasMemberName</text>
</a>
</g>
</g>
<!-- Node1&#45;&gt;Node2 -->
<g id="edge1" class="edge">
<title>Node1&#45;&gt;Node2</title>
<path fill="none" stroke="#63b8ff" d="M131.29,-27.5C140.26,-27.5 149.56,-27.5 158.79,-27.5"/>
<polygon fill="#63b8ff" stroke="#63b8ff" points="166.87,-27.5 158.87,-31.1 162.87,-27.5 158.87,-27.5 158.87,-27.5 158.87,-27.5 162.87,-27.5 158.87,-23.9 166.87,-27.5 166.87,-27.5"/>
</g>
<!-- Node3 -->
<g id="node3" class="node">
<title>Node3</title>
<g id="a_node3"><a target="_parent" xlink:href="https://doc.qt.io/qt-5/qstring.html#isEmpty" xlink:title=" ">
<polygon fill="white" stroke="#666666" points="467,-56 369,-56 369,-37 467,-37 467,-56"/>
<text text-anchor="middle" x="418" y="-44" font-family="Helvetica,sans-Serif" font-size="10.00">QString::isEmpty</text>
</a>
</g>
</g>
<!-- Node2&#45;&gt;Node3 -->
<g id="edge2" class="edge">
<title>Node2&#45;&gt;Node3</title>
<path fill="none" stroke="#63b8ff" d="M316.25,-35.53C331.1,-37.15 346.49,-38.82 360.63,-40.36"/>
<polygon fill="#63b8ff" stroke="#63b8ff" points="368.8,-41.25 360.46,-43.96 364.83,-40.82 360.85,-40.39 360.85,-40.39 360.85,-40.39 364.83,-40.82 361.24,-36.81 368.8,-41.25 368.8,-41.25"/>
</g>
<!-- Node4 -->
<g id="node4" class="node">
<title>Node4</title>
<g id="a_node4"><a xlink:href="classShapeId.html#a9b1580e3aa193c99d000aa084def3a70" target="_top" xlink:title="Returns the Shape ID&#39;s member name, if it has one, otherwise a null string.">
<polygon fill="white" stroke="#666666" points="484,-19 352,-19 352,0 484,0 484,-19"/>
<text text-anchor="middle" x="418" y="-7" font-family="Helvetica,sans-Serif" font-size="10.00">ShapeId::memberName</text>
</a>
</g>
</g>
<!-- Node2&#45;&gt;Node4 -->
<g id="edge3" class="edge">
<title>Node2&#45;&gt;Node4</title>
<path fill="none" stroke="#63b8ff" d="M316.25,-19.89C325.3,-18.96 334.54,-18.01 343.58,-17.07"/>
<polygon fill="#63b8ff" stroke="#63b8ff" points="351.81,-16.22 344.22,-20.63 347.83,-16.63 343.85,-17.05 343.85,-17.05 343.85,-17.05 347.83,-16.63 343.48,-13.46 351.81,-16.22 351.81,-16.22"/>
</g>
</g>
</svg>
