<?xml version="1.0" encoding="UTF-8" standalone="no"?>
<!DOCTYPE svg PUBLIC "-//W3C//DTD SVG 1.1//EN"
 "http://www.w3.org/Graphics/SVG/1.1/DTD/svg11.dtd">
<!-- Generated by graphviz version 2.43.0 (0)
 -->
<!-- Title: Generator::generate Pages: 1 -->
<svg width="304pt" height="235pt"
 viewBox="0.00 0.00 304.00 235.00" xmlns="http://www.w3.org/2000/svg" xmlns:xlink="http://www.w3.org/1999/xlink">
<g id="graph0" class="graph" transform="scale(1 1) rotate(0) translate(4 231)">
<title>Generator::generate</title>
<!-- Node1 -->
<g id="node1" class="node">
<title>Node1</title>
<g id="a_node1"><a xlink:title=" ">
<polygon fill="#999999" stroke="#666666" points="115,-131 0,-131 0,-112 115,-112 115,-131"/>
<text text-anchor="middle" x="57.5" y="-119" font-family="Helvetica,sans-Serif" font-size="10.00">Generator::generate</text>
</a>
</g>
</g>
<!-- Node2 -->
<g id="node2" class="node">
<title>Node2</title>
<g id="a_node2"><a target="_parent" xlink:href="https://doc.qt.io/qt-5/qlist.html#append" xlink:title=" ">
<polygon fill="white" stroke="#666666" points="265,-227 182,-227 182,-208 265,-208 265,-227"/>
<text text-anchor="middle" x="223.5" y="-215" font-family="Helvetica,sans-Serif" font-size="10.00">QList::append</text>
</a>
</g>
</g>
<!-- Node1&#45;&gt;Node2 -->
<g id="edge1" class="edge">
<title>Node1&#45;&gt;Node2</title>
<path fill="none" stroke="#63b8ff" d="M66.93,-131.01C82.09,-147.51 115.67,-181.39 151,-199.5 158.09,-203.13 165.96,-206.07 173.81,-208.42"/>
<polygon fill="#63b8ff" stroke="#63b8ff" points="181.63,-210.59 172.96,-211.92 177.77,-209.52 173.92,-208.45 173.92,-208.45 173.92,-208.45 177.77,-209.52 174.88,-204.98 181.63,-210.59 181.63,-210.59"/>
</g>
<!-- Node3 -->
<g id="node3" class="node">
<title>Node3</title>
<g id="a_node3"><a target="_parent" xlink:href="https://doc.qt.io/qt-5/qlist.html#constBegin" xlink:title=" ">
<polygon fill="white" stroke="#666666" points="274,-190 173,-190 173,-171 274,-171 274,-190"/>
<text text-anchor="middle" x="223.5" y="-178" font-family="Helvetica,sans-Serif" font-size="10.00">QList::constBegin</text>
</a>
</g>
</g>
<!-- Node1&#45;&gt;Node3 -->
<g id="edge2" class="edge">
<title>Node1&#45;&gt;Node3</title>
<path fill="none" stroke="#63b8ff" d="M77.6,-131.12C96.04,-140.13 124.93,-153.51 151,-162.5 157.52,-164.75 164.47,-166.85 171.37,-168.76"/>
<polygon fill="#63b8ff" stroke="#63b8ff" points="179.43,-170.92 170.77,-172.33 175.56,-169.89 171.7,-168.85 171.7,-168.85 171.7,-168.85 175.56,-169.89 172.63,-165.37 179.43,-170.92 179.43,-170.92"/>
</g>
<!-- Node4 -->
<g id="node4" class="node">
<title>Node4</title>
<g id="a_node4"><a target="_parent" xlink:href="https://doc.qt.io/qt-5/qlist.html#constEnd" xlink:title=" ">
<polygon fill="white" stroke="#666666" points="269.5,-153 177.5,-153 177.5,-134 269.5,-134 269.5,-153"/>
<text text-anchor="middle" x="223.5" y="-141" font-family="Helvetica,sans-Serif" font-size="10.00">QList::constEnd</text>
</a>
</g>
</g>
<!-- Node1&#45;&gt;Node4 -->
<g id="edge3" class="edge">
<title>Node1&#45;&gt;Node4</title>
<path fill="none" stroke="#63b8ff" d="M115.4,-129.13C132.81,-131.47 151.89,-134.03 169.07,-136.33"/>
<polygon fill="#63b8ff" stroke="#63b8ff" points="177.33,-137.44 168.92,-139.94 173.36,-136.91 169.4,-136.38 169.4,-136.38 169.4,-136.38 173.36,-136.91 169.88,-132.81 177.33,-137.44 177.33,-137.44"/>
</g>
<!-- Node5 -->
<g id="node5" class="node">
<title>Node5</title>
<g id="a_node5"><a target="_parent" xlink:href="https://doc.qt.io/qt-5/qregularexpressionmatch.html#hasMatch" xlink:title=" ">
<polygon fill="white" stroke="#666666" points="296,-115.5 151,-115.5 151,-85.5 296,-85.5 296,-115.5"/>
<text text-anchor="start" x="159" y="-103.5" font-family="Helvetica,sans-Serif" font-size="10.00">QRegularExpressionMatch</text>
<text text-anchor="middle" x="223.5" y="-92.5" font-family="Helvetica,sans-Serif" font-size="10.00">::hasMatch</text>
</a>
</g>
</g>
<!-- Node1&#45;&gt;Node5 -->
<g id="edge4" class="edge">
<title>Node1&#45;&gt;Node5</title>
<path fill="none" stroke="#63b8ff" d="M115.4,-114.21C124.27,-113.08 133.58,-111.89 142.84,-110.7"/>
<polygon fill="#63b8ff" stroke="#63b8ff" points="150.97,-109.66 143.49,-114.25 147,-110.17 143.03,-110.68 143.03,-110.68 143.03,-110.68 147,-110.17 142.57,-107.11 150.97,-109.66 150.97,-109.66"/>
</g>
<!-- Node6 -->
<g id="node6" class="node">
<title>Node6</title>
<g id="a_node6"><a target="_parent" xlink:href="https://doc.qt.io/qt-5/qregularexpression.html#match" xlink:title=" ">
<polygon fill="white" stroke="#666666" points="281,-67.5 166,-67.5 166,-37.5 281,-37.5 281,-67.5"/>
<text text-anchor="start" x="174" y="-55.5" font-family="Helvetica,sans-Serif" font-size="10.00">QRegularExpression</text>
<text text-anchor="middle" x="223.5" y="-44.5" font-family="Helvetica,sans-Serif" font-size="10.00">::match</text>
</a>
</g>
</g>
<!-- Node1&#45;&gt;Node6 -->
<g id="edge5" class="edge">
<title>Node1&#45;&gt;Node6</title>
<path fill="none" stroke="#63b8ff" d="M76.61,-111.83C95.03,-102.19 124.55,-87.32 151,-76.5 156.25,-74.35 161.77,-72.25 167.32,-70.22"/>
<polygon fill="#63b8ff" stroke="#63b8ff" points="174.88,-67.53 168.55,-73.61 171.11,-68.87 167.34,-70.22 167.34,-70.22 167.34,-70.22 171.11,-68.87 166.13,-66.82 174.88,-67.53 174.88,-67.53"/>
</g>
<!-- Node7 -->
<g id="node7" class="node">
<title>Node7</title>
<g id="a_node7"><a target="_parent" xlink:href="https://doc.qt.io/qt-5/qlist.html#size" xlink:title=" ">
<polygon fill="white" stroke="#666666" points="257,-19 190,-19 190,0 257,0 257,-19"/>
<text text-anchor="middle" x="223.5" y="-7" font-family="Helvetica,sans-Serif" font-size="10.00">QList::size</text>
</a>
</g>
</g>
<!-- Node1&#45;&gt;Node7 -->
<g id="edge6" class="edge">
<title>Node1&#45;&gt;Node7</title>
<path fill="none" stroke="#63b8ff" d="M65.2,-111.96C79.01,-93.05 112.55,-50.72 151,-28.5 160.39,-23.07 171.37,-19.16 181.87,-16.35"/>
<polygon fill="#63b8ff" stroke="#63b8ff" points="189.77,-14.41 182.86,-19.81 185.88,-15.36 182,-16.32 182,-16.32 182,-16.32 185.88,-15.36 181.14,-12.82 189.77,-14.41 189.77,-14.41"/>
</g>
</g>
</svg>
