<?xml version="1.0" encoding="UTF-8" standalone="no"?>
<!DOCTYPE svg PUBLIC "-//W3C//DTD SVG 1.1//EN"
 "http://www.w3.org/Graphics/SVG/1.1/DTD/svg11.dtd">
<!-- Generated by graphviz version 2.43.0 (0)
 -->
<!-- Title: Generator::renderOperation Pages: 1 -->
<svg width="543pt" height="508pt"
 viewBox="0.00 0.00 543.00 508.00" xmlns="http://www.w3.org/2000/svg" xmlns:xlink="http://www.w3.org/1999/xlink">
<g id="graph0" class="graph" transform="scale(1 1) rotate(0) translate(4 504)">
<title>Generator::renderOperation</title>
<!-- Node1 -->
<g id="node1" class="node">
<title>Node1</title>
<g id="a_node1"><a xlink:title=" ">
<polygon fill="#999999" stroke="#666666" points="151,-408 0,-408 0,-389 151,-389 151,-408"/>
<text text-anchor="middle" x="75.5" y="-396" font-family="Helvetica,sans-Serif" font-size="10.00">Generator::renderOperation</text>
</a>
</g>
</g>
<!-- Node2 -->
<g id="node2" class="node">
<title>Node2</title>
<g id="a_node2"><a target="_parent" xlink:href="https://doc.qt.io/qt-5/qstring.html#arg-11" xlink:title=" ">
<polygon fill="white" stroke="#666666" points="325.5,-446 251.5,-446 251.5,-427 325.5,-427 325.5,-446"/>
<text text-anchor="middle" x="288.5" y="-434" font-family="Helvetica,sans-Serif" font-size="10.00">QString::arg</text>
</a>
</g>
</g>
<!-- Node1&#45;&gt;Node2 -->
<g id="edge1" class="edge">
<title>Node1&#45;&gt;Node2</title>
<path fill="none" stroke="#63b8ff" d="M129.47,-408.04C164.58,-414.36 210.12,-422.56 243.28,-428.54"/>
<polygon fill="#63b8ff" stroke="#63b8ff" points="251.43,-430 242.92,-432.13 247.5,-429.3 243.56,-428.59 243.56,-428.59 243.56,-428.59 247.5,-429.3 244.2,-425.04 251.43,-430 251.43,-430"/>
</g>
<!-- Node3 -->
<g id="node3" class="node">
<title>Node3</title>
<g id="a_node3"><a xlink:href="classGenerator.html#a32ea485bd5804f2b40e542aeefacb00a" target="_top" xlink:title=" ">
<polygon fill="white" stroke="#666666" points="390,-278 187,-278 187,-259 390,-259 390,-278"/>
<text text-anchor="middle" x="288.5" y="-266" font-family="Helvetica,sans-Serif" font-size="10.00">Generator::formatHtmlDocumentation</text>
</a>
</g>
</g>
<!-- Node1&#45;&gt;Node3 -->
<g id="edge2" class="edge">
<title>Node1&#45;&gt;Node3</title>
<path fill="none" stroke="#63b8ff" d="M92.02,-388.94C128.9,-366.21 221.96,-308.88 265.01,-282.35"/>
<polygon fill="#63b8ff" stroke="#63b8ff" points="271.96,-278.07 267.04,-285.33 268.56,-280.17 265.15,-282.27 265.15,-282.27 265.15,-282.27 268.56,-280.17 263.26,-279.2 271.96,-278.07 271.96,-278.07"/>
</g>
<!-- Node8 -->
<g id="node8" class="node">
<title>Node8</title>
<g id="a_node8"><a target="_parent" xlink:href="https://doc.qt.io/qt-5/qstring.html#isEmpty" xlink:title=" ">
<polygon fill="white" stroke="#666666" points="529.5,-500 431.5,-500 431.5,-481 529.5,-481 529.5,-500"/>
<text text-anchor="middle" x="480.5" y="-488" font-family="Helvetica,sans-Serif" font-size="10.00">QString::isEmpty</text>
</a>
</g>
</g>
<!-- Node1&#45;&gt;Node8 -->
<g id="edge17" class="edge">
<title>Node1&#45;&gt;Node8</title>
<path fill="none" stroke="#63b8ff" d="M125.69,-388.96C190.85,-379 307.21,-370.74 390,-418.5 414.98,-432.91 403.1,-454.96 426,-472.5 428.36,-474.3 430.9,-475.93 433.56,-477.4"/>
<polygon fill="#63b8ff" stroke="#63b8ff" points="440.81,-480.94 432.05,-480.67 437.22,-479.19 433.62,-477.43 433.62,-477.43 433.62,-477.43 437.22,-479.19 435.2,-474.2 440.81,-480.94 440.81,-480.94"/>
</g>
<!-- Node4 -->
<g id="node4" class="node">
<title>Node4</title>
<g id="a_node4"><a target="_parent" xlink:href="https://doc.qt.io/qt-5/qlist.html#append" xlink:title=" ">
<polygon fill="white" stroke="#666666" points="522,-463 439,-463 439,-444 522,-444 522,-463"/>
<text text-anchor="middle" x="480.5" y="-451" font-family="Helvetica,sans-Serif" font-size="10.00">QList::append</text>
</a>
</g>
</g>
<!-- Node3&#45;&gt;Node4 -->
<g id="edge3" class="edge">
<title>Node3&#45;&gt;Node4</title>
<path fill="none" stroke="#63b8ff" d="M298.44,-278.15C316.42,-297.7 357.97,-343.59 390,-384.5 407.1,-406.34 403.75,-418.92 426,-435.5 428.42,-437.3 431.03,-438.93 433.76,-440.41"/>
<polygon fill="#63b8ff" stroke="#63b8ff" points="441.17,-443.95 432.4,-443.75 437.56,-442.22 433.95,-440.5 433.95,-440.5 433.95,-440.5 437.56,-442.22 435.51,-437.25 441.17,-443.95 441.17,-443.95"/>
</g>
<!-- Node5 -->
<g id="node5" class="node">
<title>Node5</title>
<g id="a_node5"><a target="_parent" xlink:href="https://doc.qt.io/qt-5/qstring.html#clear" xlink:title=" ">
<polygon fill="white" stroke="#666666" points="522,-426 439,-426 439,-407 522,-407 522,-426"/>
<text text-anchor="middle" x="480.5" y="-414" font-family="Helvetica,sans-Serif" font-size="10.00">QString::clear</text>
</a>
</g>
</g>
<!-- Node3&#45;&gt;Node5 -->
<g id="edge4" class="edge">
<title>Node3&#45;&gt;Node5</title>
<path fill="none" stroke="#63b8ff" d="M297.03,-278.14C316.1,-301.94 368.83,-364.02 426,-398.5 429.29,-400.48 432.82,-402.28 436.45,-403.9"/>
<polygon fill="#63b8ff" stroke="#63b8ff" points="443.99,-406.99 435.22,-407.29 440.29,-405.48 436.58,-403.96 436.58,-403.96 436.58,-403.96 440.29,-405.48 437.95,-400.63 443.99,-406.99 443.99,-406.99"/>
</g>
<!-- Node6 -->
<g id="node6" class="node">
<title>Node6</title>
<g id="a_node6"><a target="_parent" xlink:href="https://doc.qt.io/qt-5/qstring.html#endsWith" xlink:title=" ">
<polygon fill="white" stroke="#666666" points="532.5,-389 428.5,-389 428.5,-370 532.5,-370 532.5,-389"/>
<text text-anchor="middle" x="480.5" y="-377" font-family="Helvetica,sans-Serif" font-size="10.00">QString::endsWith</text>
</a>
</g>
</g>
<!-- Node3&#45;&gt;Node6 -->
<g id="edge5" class="edge">
<title>Node3&#45;&gt;Node6</title>
<path fill="none" stroke="#63b8ff" d="M301.23,-278.15C324.02,-296.52 376.44,-336.87 426,-361.5 430,-363.49 434.28,-365.34 438.6,-367.04"/>
<polygon fill="#63b8ff" stroke="#63b8ff" points="446.39,-369.94 437.64,-370.52 442.64,-368.54 438.89,-367.15 438.89,-367.15 438.89,-367.15 442.64,-368.54 440.15,-363.78 446.39,-369.94 446.39,-369.94"/>
</g>
<!-- Node7 -->
<g id="node7" class="node">
<title>Node7</title>
<g id="a_node7"><a target="_parent" xlink:href="https://doc.qt.io/qt-5/qlist.html#first" xlink:title=" ">
<polygon fill="white" stroke="#666666" points="513.5,-352 447.5,-352 447.5,-333 513.5,-333 513.5,-352"/>
<text text-anchor="middle" x="480.5" y="-340" font-family="Helvetica,sans-Serif" font-size="10.00">QList::first</text>
</a>
</g>
</g>
<!-- Node3&#45;&gt;Node7 -->
<g id="edge6" class="edge">
<title>Node3&#45;&gt;Node7</title>
<path fill="none" stroke="#63b8ff" d="M312.57,-278.14C339.62,-289.36 385.86,-308.29 426,-323.5 431.9,-325.73 438.19,-328.04 444.31,-330.24"/>
<polygon fill="#63b8ff" stroke="#63b8ff" points="451.93,-332.96 443.18,-333.66 448.16,-331.61 444.39,-330.27 444.39,-330.27 444.39,-330.27 448.16,-331.61 445.6,-326.88 451.93,-332.96 451.93,-332.96"/>
</g>
<!-- Node3&#45;&gt;Node8 -->
<g id="edge7" class="edge">
<title>Node3&#45;&gt;Node8</title>
<path fill="none" stroke="#63b8ff" d="M299.87,-278.16C319.62,-297 363.07,-340.69 390,-384.5 412.13,-420.5 395.18,-443.59 426,-472.5 427.71,-474.1 429.56,-475.56 431.53,-476.89"/>
<polygon fill="#63b8ff" stroke="#63b8ff" points="438.54,-480.94 429.81,-480.06 435.07,-478.94 431.61,-476.94 431.61,-476.94 431.61,-476.94 435.07,-478.94 433.4,-473.82 438.54,-480.94 438.54,-480.94"/>
</g>
<!-- Node9 -->
<g id="node9" class="node">
<title>Node9</title>
<g id="a_node9"><a target="_parent" xlink:href="https://doc.qt.io/qt-5/qlist.html#isEmpty" xlink:title=" ">
<polygon fill="white" stroke="#666666" points="524,-315 437,-315 437,-296 524,-296 524,-315"/>
<text text-anchor="middle" x="480.5" y="-303" font-family="Helvetica,sans-Serif" font-size="10.00">QList::isEmpty</text>
</a>
</g>
</g>
<!-- Node3&#45;&gt;Node9 -->
<g id="edge8" class="edge">
<title>Node3&#45;&gt;Node9</title>
<path fill="none" stroke="#63b8ff" d="M338.43,-278.03C366.15,-283.43 400.78,-290.17 428.79,-295.62"/>
<polygon fill="#63b8ff" stroke="#63b8ff" points="436.87,-297.2 428.33,-299.2 432.95,-296.43 429.02,-295.67 429.02,-295.67 429.02,-295.67 432.95,-296.43 429.71,-292.14 436.87,-297.2 436.87,-297.2"/>
</g>
<!-- Node10 -->
<g id="node10" class="node">
<title>Node10</title>
<g id="a_node10"><a target="_parent" xlink:href="https://doc.qt.io/qt-5/qlist.html#last" xlink:title=" ">
<polygon fill="white" stroke="#666666" points="513,-278 448,-278 448,-259 513,-259 513,-278"/>
<text text-anchor="middle" x="480.5" y="-266" font-family="Helvetica,sans-Serif" font-size="10.00">QList::last</text>
</a>
</g>
</g>
<!-- Node3&#45;&gt;Node10 -->
<g id="edge9" class="edge">
<title>Node3&#45;&gt;Node10</title>
<path fill="none" stroke="#63b8ff" d="M390.06,-268.5C407.62,-268.5 424.93,-268.5 439.57,-268.5"/>
<polygon fill="#63b8ff" stroke="#63b8ff" points="447.87,-268.5 439.87,-272.1 443.87,-268.5 439.87,-268.5 439.87,-268.5 439.87,-268.5 443.87,-268.5 439.87,-264.9 447.87,-268.5 447.87,-268.5"/>
</g>
<!-- Node11 -->
<g id="node11" class="node">
<title>Node11</title>
<g id="a_node11"><a target="_parent" xlink:href="https://doc.qt.io/qt-5/qstring.html#remove" xlink:title=" ">
<polygon fill="white" stroke="#666666" points="528.5,-241 432.5,-241 432.5,-222 528.5,-222 528.5,-241"/>
<text text-anchor="middle" x="480.5" y="-229" font-family="Helvetica,sans-Serif" font-size="10.00">QString::remove</text>
</a>
</g>
</g>
<!-- Node3&#45;&gt;Node11 -->
<g id="edge10" class="edge">
<title>Node3&#45;&gt;Node11</title>
<path fill="none" stroke="#63b8ff" d="M338.43,-258.97C364.75,-253.85 397.29,-247.51 424.49,-242.21"/>
<polygon fill="#63b8ff" stroke="#63b8ff" points="432.38,-240.68 425.21,-245.74 428.45,-241.44 424.52,-242.21 424.52,-242.21 424.52,-242.21 428.45,-241.44 423.83,-238.67 432.38,-240.68 432.38,-240.68"/>
</g>
<!-- Node12 -->
<g id="node12" class="node">
<title>Node12</title>
<g id="a_node12"><a target="_parent" xlink:href="https://doc.qt.io/qt-5/qlist.html#removeFirst" xlink:title=" ">
<polygon fill="white" stroke="#666666" points="533.5,-204 427.5,-204 427.5,-185 533.5,-185 533.5,-204"/>
<text text-anchor="middle" x="480.5" y="-192" font-family="Helvetica,sans-Serif" font-size="10.00">QList::removeFirst</text>
</a>
</g>
</g>
<!-- Node3&#45;&gt;Node12 -->
<g id="edge11" class="edge">
<title>Node3&#45;&gt;Node12</title>
<path fill="none" stroke="#63b8ff" d="M311.55,-258.94C338.39,-247.42 385.2,-227.71 426,-212.5 431.18,-210.57 436.68,-208.61 442.1,-206.74"/>
<polygon fill="#63b8ff" stroke="#63b8ff" points="449.95,-204.06 443.54,-210.05 446.16,-205.35 442.37,-206.65 442.37,-206.65 442.37,-206.65 446.16,-205.35 441.21,-203.24 449.95,-204.06 449.95,-204.06"/>
</g>
<!-- Node13 -->
<g id="node13" class="node">
<title>Node13</title>
<g id="a_node13"><a target="_parent" xlink:href="https://doc.qt.io/qt-5/qlist.html#removeLast" xlink:title=" ">
<polygon fill="white" stroke="#666666" points="533,-167 428,-167 428,-148 533,-148 533,-167"/>
<text text-anchor="middle" x="480.5" y="-155" font-family="Helvetica,sans-Serif" font-size="10.00">QList::removeLast</text>
</a>
</g>
</g>
<!-- Node3&#45;&gt;Node13 -->
<g id="edge12" class="edge">
<title>Node3&#45;&gt;Node13</title>
<path fill="none" stroke="#63b8ff" d="M301.23,-258.85C324.02,-240.48 376.44,-200.13 426,-175.5 430,-173.51 434.28,-171.66 438.6,-169.96"/>
<polygon fill="#63b8ff" stroke="#63b8ff" points="446.39,-167.06 440.15,-173.22 442.64,-168.46 438.89,-169.85 438.89,-169.85 438.89,-169.85 442.64,-168.46 437.64,-166.48 446.39,-167.06 446.39,-167.06"/>
</g>
<!-- Node14 -->
<g id="node14" class="node">
<title>Node14</title>
<g id="a_node14"><a target="_parent" xlink:href="https://doc.qt.io/qt-5/qstring.html#replace-2" xlink:title=" ">
<polygon fill="white" stroke="#666666" points="528,-130 433,-130 433,-111 528,-111 528,-130"/>
<text text-anchor="middle" x="480.5" y="-118" font-family="Helvetica,sans-Serif" font-size="10.00">QString::replace</text>
</a>
</g>
</g>
<!-- Node3&#45;&gt;Node14 -->
<g id="edge13" class="edge">
<title>Node3&#45;&gt;Node14</title>
<path fill="none" stroke="#63b8ff" d="M297.03,-258.86C316.1,-235.06 368.83,-172.98 426,-138.5 429.29,-136.52 432.82,-134.72 436.45,-133.1"/>
<polygon fill="#63b8ff" stroke="#63b8ff" points="443.99,-130.01 437.95,-136.37 440.29,-131.52 436.58,-133.04 436.58,-133.04 436.58,-133.04 440.29,-131.52 435.22,-129.71 443.99,-130.01 443.99,-130.01"/>
</g>
<!-- Node15 -->
<g id="node15" class="node">
<title>Node15</title>
<g id="a_node15"><a target="_parent" xlink:href="https://doc.qt.io/qt-5/qstring.html#size" xlink:title=" ">
<polygon fill="white" stroke="#666666" points="519.5,-93 441.5,-93 441.5,-74 519.5,-74 519.5,-93"/>
<text text-anchor="middle" x="480.5" y="-81" font-family="Helvetica,sans-Serif" font-size="10.00">QString::size</text>
</a>
</g>
</g>
<!-- Node3&#45;&gt;Node15 -->
<g id="edge14" class="edge">
<title>Node3&#45;&gt;Node15</title>
<path fill="none" stroke="#63b8ff" d="M294.65,-259C310.42,-230.75 361.02,-146.44 426,-101.5 428.77,-99.59 431.75,-97.86 434.85,-96.31"/>
<polygon fill="#63b8ff" stroke="#63b8ff" points="442.22,-93 436.4,-99.56 438.57,-94.64 434.93,-96.28 434.93,-96.28 434.93,-96.28 438.57,-94.64 433.45,-92.99 442.22,-93 442.22,-93"/>
</g>
<!-- Node16 -->
<g id="node16" class="node">
<title>Node16</title>
<g id="a_node16"><a target="_parent" xlink:href="https://doc.qt.io/qt-5/qstring.html#split" xlink:title=" ">
<polygon fill="white" stroke="#666666" points="520.5,-56 440.5,-56 440.5,-37 520.5,-37 520.5,-56"/>
<text text-anchor="middle" x="480.5" y="-44" font-family="Helvetica,sans-Serif" font-size="10.00">QString::split</text>
</a>
</g>
</g>
<!-- Node3&#45;&gt;Node16 -->
<g id="edge15" class="edge">
<title>Node3&#45;&gt;Node16</title>
<path fill="none" stroke="#63b8ff" d="M293.28,-258.76C306.41,-226.22 353.22,-120.15 426,-64.5 428.36,-62.7 430.91,-61.07 433.57,-59.6"/>
<polygon fill="#63b8ff" stroke="#63b8ff" points="440.82,-56.07 435.2,-62.81 437.22,-57.82 433.63,-59.57 433.63,-59.57 433.63,-59.57 437.22,-57.82 432.05,-56.33 440.82,-56.07 440.82,-56.07"/>
</g>
<!-- Node17 -->
<g id="node17" class="node">
<title>Node17</title>
<g id="a_node17"><a target="_parent" xlink:href="https://doc.qt.io/qt-5/qstring.html#startsWith" xlink:title=" ">
<polygon fill="white" stroke="#666666" points="535,-19 426,-19 426,0 535,0 535,-19"/>
<text text-anchor="middle" x="480.5" y="-7" font-family="Helvetica,sans-Serif" font-size="10.00">QString::startsWith</text>
</a>
</g>
</g>
<!-- Node3&#45;&gt;Node17 -->
<g id="edge16" class="edge">
<title>Node3&#45;&gt;Node17</title>
<path fill="none" stroke="#63b8ff" d="M292.29,-258.56C303.01,-222.07 345.15,-94.23 426,-27.5 428.08,-25.78 430.33,-24.23 432.69,-22.82"/>
<polygon fill="#63b8ff" stroke="#63b8ff" points="440.04,-19.02 434.58,-25.89 436.48,-20.86 432.93,-22.7 432.93,-22.7 432.93,-22.7 436.48,-20.86 431.28,-19.5 440.04,-19.02 440.04,-19.02"/>
</g>
</g>
</svg>
