<?xml version="1.0" encoding="UTF-8" standalone="no"?>
<!DOCTYPE svg PUBLIC "-//W3C//DTD SVG 1.1//EN"
 "http://www.w3.org/Graphics/SVG/1.1/DTD/svg11.dtd">
<!-- Generated by graphviz version 2.43.0 (0)
 -->
<!-- Title: ShapeId::toString Pages: 1 -->
<svg width="951pt" height="131pt"
 viewBox="0.00 0.00 951.00 131.00" xmlns="http://www.w3.org/2000/svg" xmlns:xlink="http://www.w3.org/1999/xlink">
<g id="graph0" class="graph" transform="scale(1 1) rotate(0) translate(4 127)">
<title>ShapeId::toString</title>
<!-- Node1 -->
<g id="Node000001" class="node">
<title>Node1</title>
<g id="a_Node000001"><a xlink:title="Returns this object as an absolute Smithy Shape ID if this object has a namespace,...">
<polygon fill="#999999" stroke="#666666" points="100,-85 0,-85 0,-66 100,-66 100,-85"/>
<text text-anchor="middle" x="50" y="-73" font-family="Helvetica,sans-Serif" font-size="10.00">ShapeId::toString</text>
</a>
</g>
</g>
<!-- Node2 -->
<g id="Node000002" class="node">
<title>Node2</title>
<g id="a_Node000002"><a xlink:href="classShapeId.html#a42ae1231e4d242958ab12e61504e33ca" target="_top" xlink:title="Returns this object as an absolute Smithy Shape ID if this object has a namespace,...">
<polygon fill="white" stroke="#666666" points="279,-85 136,-85 136,-66 279,-66 279,-85"/>
<text text-anchor="middle" x="207.5" y="-73" font-family="Helvetica,sans-Serif" font-size="10.00">ShapeId::absoluteShapeId</text>
</a>
</g>
</g>
<!-- Node1&#45;&gt;Node2 -->
<g id="edge1_Node000001_Node000002" class="edge">
<title>Node1&#45;&gt;Node2</title>
<g id="a_edge1_Node000001_Node000002"><a xlink:title=" ">
<path fill="none" stroke="#63b8ff" d="M100.2,-75.5C108.94,-75.5 118.24,-75.5 127.56,-75.5"/>
<polygon fill="#63b8ff" stroke="#63b8ff" points="135.75,-75.5 127.75,-79.1 131.75,-75.5 127.75,-75.5 127.75,-75.5 127.75,-75.5 131.75,-75.5 127.75,-71.9 135.75,-75.5 135.75,-75.5"/>
</a>
</g>
</g>
<!-- Node3 -->
<g id="Node000003" class="node">
<title>Node3</title>
<g id="a_Node000003"><a xlink:href="classShapeId.html#ad0bbf397b25b50a3fc9c145cea67ce11" target="_top" xlink:title="Returns true if this Shape ID has a non&#45;empty namespace, otherwise false otherwise.">
<polygon fill="white" stroke="#666666" points="452.5,-123 315.5,-123 315.5,-104 452.5,-104 452.5,-123"/>
<text text-anchor="middle" x="384" y="-111" font-family="Helvetica,sans-Serif" font-size="10.00">ShapeId::hasNameSpace</text>
</a>
</g>
</g>
<!-- Node1&#45;&gt;Node3 -->
<g id="edge13_Node000001_Node000003" class="edge">
<title>Node1&#45;&gt;Node3</title>
<g id="a_edge13_Node000001_Node000003"><a xlink:title=" ">
<path fill="none" stroke="#63b8ff" d="M88.44,-85.08C103.18,-88.54 120.3,-92.15 136,-94.5 193.12,-103.04 258.27,-107.84 307.31,-110.49"/>
<polygon fill="#63b8ff" stroke="#63b8ff" points="315.35,-110.91 307.17,-114.08 311.36,-110.7 307.36,-110.49 307.36,-110.49 307.36,-110.49 311.36,-110.7 307.55,-106.89 315.35,-110.91 315.35,-110.91"/>
</a>
</g>
</g>
<!-- Node6 -->
<g id="Node000006" class="node">
<title>Node6</title>
<g id="a_Node000006"><a xlink:href="classShapeId.html#aad508460b545930c3aeb82021e79de5a" target="_top" xlink:title="Returns this object as a relative Smithy Shape ID, that one without a leading namespace.">
<polygon fill="white" stroke="#666666" points="453,-47 315,-47 315,-28 453,-28 453,-47"/>
<text text-anchor="middle" x="384" y="-35" font-family="Helvetica,sans-Serif" font-size="10.00">ShapeId::relativeShapeId</text>
</a>
</g>
</g>
<!-- Node1&#45;&gt;Node6 -->
<g id="edge14_Node000001_Node000006" class="edge">
<title>Node1&#45;&gt;Node6</title>
<g id="a_edge14_Node000001_Node000006"><a xlink:title=" ">
<path fill="none" stroke="#63b8ff" d="M88.44,-65.92C103.18,-62.46 120.3,-58.85 136,-56.5 192.91,-47.99 257.81,-43.19 306.79,-40.54"/>
<polygon fill="#63b8ff" stroke="#63b8ff" points="314.82,-40.12 307.02,-44.13 310.83,-40.33 306.83,-40.54 306.83,-40.54 306.83,-40.54 310.83,-40.33 306.65,-36.94 314.82,-40.12 314.82,-40.12"/>
</a>
</g>
</g>
<!-- Node2&#45;&gt;Node3 -->
<g id="edge2_Node000002_Node000003" class="edge">
<title>Node2&#45;&gt;Node3</title>
<g id="a_edge2_Node000002_Node000003"><a xlink:title=" ">
<path fill="none" stroke="#63b8ff" d="M252.53,-85.09C276.49,-90.31 306.27,-96.79 331.33,-102.25"/>
<polygon fill="#63b8ff" stroke="#63b8ff" points="339.28,-103.98 330.7,-105.8 335.37,-103.13 331.47,-102.28 331.47,-102.28 331.47,-102.28 335.37,-103.13 332.23,-98.76 339.28,-103.98 339.28,-103.98"/>
</a>
</g>
</g>
<!-- Node4 -->
<g id="Node000004" class="node">
<title>Node4</title>
<g id="a_Node000004"><a xlink:href="classShapeId.html#a0d88184bccd8dc5b22b67800aeccf092" target="_top" xlink:title="Returns the Shape ID&#39;s namespace, if it has one, otherwise a null string.">
<polygon fill="white" stroke="#666666" points="623,-122 504,-122 504,-103 623,-103 623,-122"/>
<text text-anchor="middle" x="563.5" y="-110" font-family="Helvetica,sans-Serif" font-size="10.00">ShapeId::nameSpace</text>
</a>
</g>
</g>
<!-- Node2&#45;&gt;Node4 -->
<g id="edge5_Node000002_Node000004" class="edge">
<title>Node2&#45;&gt;Node4</title>
<g id="a_edge5_Node000002_Node000004"><a xlink:title=" ">
<path fill="none" stroke="#63b8ff" d="M279.25,-79.93C328.14,-83.32 394.63,-88.59 453,-95.5 467.67,-97.24 483.39,-99.46 498.21,-101.72"/>
<polygon fill="#63b8ff" stroke="#63b8ff" points="506.34,-102.98 497.88,-105.32 502.39,-102.37 498.43,-101.76 498.43,-101.76 498.43,-101.76 502.39,-102.37 498.98,-98.2 506.34,-102.98 506.34,-102.98"/>
</a>
</g>
</g>
<!-- Node2&#45;&gt;Node6 -->
<g id="edge6_Node000002_Node000006" class="edge">
<title>Node2&#45;&gt;Node6</title>
<g id="a_edge6_Node000002_Node000006"><a xlink:title=" ">
<path fill="none" stroke="#63b8ff" d="M252.53,-65.91C276.49,-60.69 306.27,-54.21 331.33,-48.75"/>
<polygon fill="#63b8ff" stroke="#63b8ff" points="339.28,-47.02 332.23,-52.24 335.37,-47.87 331.47,-48.72 331.47,-48.72 331.47,-48.72 335.37,-47.87 330.7,-45.2 339.28,-47.02 339.28,-47.02"/>
</a>
</g>
</g>
<!-- Node3&#45;&gt;Node4 -->
<g id="edge3_Node000003_Node000004" class="edge">
<title>Node3&#45;&gt;Node4</title>
<g id="a_edge3_Node000003_Node000004"><a xlink:title=" ">
<path fill="none" stroke="#63b8ff" d="M452.61,-113.12C466.7,-113.04 481.54,-112.96 495.6,-112.88"/>
<polygon fill="#63b8ff" stroke="#63b8ff" points="503.78,-112.83 495.8,-116.48 499.78,-112.85 495.78,-112.88 495.78,-112.88 495.78,-112.88 499.78,-112.85 495.76,-109.28 503.78,-112.83 503.78,-112.83"/>
</a>
</g>
</g>
<!-- Node5 -->
<g id="Node000005" class="node">
<title>Node5</title>
<g id="a_Node000005"><a xlink:href="classShapeId.html#a5c5ff0cc534bd3277f30a06dbf2587dd" target="_top" xlink:title="Constructs an empty ShapeId object.">
<polygon fill="white" stroke="#666666" points="943,-56 842,-56 842,-37 943,-37 943,-56"/>
<text text-anchor="middle" x="892.5" y="-44" font-family="Helvetica,sans-Serif" font-size="10.00">ShapeId::ShapeId</text>
</a>
</g>
</g>
<!-- Node4&#45;&gt;Node5 -->
<g id="edge4_Node000004_Node000005" class="edge">
<title>Node4&#45;&gt;Node5</title>
<g id="a_edge4_Node000004_Node000005"><a xlink:title=" ">
<path fill="none" stroke="#63b8ff" d="M613.56,-102.92C662.38,-93.34 739.41,-78.13 806,-64.5 816.54,-62.34 827.8,-60 838.58,-57.74"/>
<polygon fill="#63b8ff" stroke="#63b8ff" points="846.7,-56.03 839.61,-61.2 842.79,-56.85 838.87,-57.68 838.87,-57.68 838.87,-57.68 842.79,-56.85 838.13,-54.15 846.7,-56.03 846.7,-56.03"/>
</a>
</g>
</g>
<!-- Node7 -->
<g id="Node000007" class="node">
<title>Node7</title>
<g id="a_Node000007"><a xlink:href="classShapeId.html#a6f1fc0aab99d0108fc3f1eeb5a4d2687" target="_top" xlink:title="Returns true if this Shape ID has a non&#45;empty member name, otherwise false otherwise.">
<polygon fill="white" stroke="#666666" points="638,-85 489,-85 489,-66 638,-66 638,-85"/>
<text text-anchor="middle" x="563.5" y="-73" font-family="Helvetica,sans-Serif" font-size="10.00">ShapeId::hasMemberName</text>
</a>
</g>
</g>
<!-- Node6&#45;&gt;Node7 -->
<g id="edge7_Node000006_Node000007" class="edge">
<title>Node6&#45;&gt;Node7</title>
<g id="a_edge7_Node000006_Node000007"><a xlink:title=" ">
<path fill="none" stroke="#63b8ff" d="M429.79,-47.09C454.16,-52.31 484.45,-58.79 509.94,-64.25"/>
<polygon fill="#63b8ff" stroke="#63b8ff" points="518.03,-65.98 509.45,-67.83 514.12,-65.14 510.21,-64.31 510.21,-64.31 510.21,-64.31 514.12,-65.14 510.96,-60.78 518.03,-65.98 518.03,-65.98"/>
</a>
</g>
</g>
<!-- Node8 -->
<g id="Node000008" class="node">
<title>Node8</title>
<g id="a_Node000008"><a xlink:href="classShapeId.html#a9b1580e3aa193c99d000aa084def3a70" target="_top" xlink:title="Returns the Shape ID&#39;s member name, if it has one, otherwise a null string.">
<polygon fill="white" stroke="#666666" points="806,-56 674,-56 674,-37 806,-37 806,-56"/>
<text text-anchor="middle" x="740" y="-44" font-family="Helvetica,sans-Serif" font-size="10.00">ShapeId::memberName</text>
</a>
</g>
</g>
<!-- Node6&#45;&gt;Node8 -->
<g id="edge10_Node000006_Node000008" class="edge">
<title>Node6&#45;&gt;Node8</title>
<g id="a_edge10_Node000006_Node000008"><a xlink:title=" ">
<path fill="none" stroke="#63b8ff" d="M453.25,-39.24C514.21,-40.78 603.25,-43.05 665.7,-44.64"/>
<polygon fill="#63b8ff" stroke="#63b8ff" points="673.94,-44.85 665.85,-48.24 669.94,-44.74 665.94,-44.64 665.94,-44.64 665.94,-44.64 669.94,-44.74 666.04,-41.04 673.94,-44.85 673.94,-44.85"/>
</a>
</g>
</g>
<!-- Node9 -->
<g id="Node000009" class="node">
<title>Node9</title>
<g id="a_Node000009"><a xlink:href="classShapeId.html#a8aad9a1383c03aee2f33b1568e89f688" target="_top" xlink:title="Returns the Shape ID&#39;s shape name, if it has one, otherwise a null string.">
<polygon fill="white" stroke="#666666" points="800,-19 680,-19 680,0 800,0 800,-19"/>
<text text-anchor="middle" x="740" y="-7" font-family="Helvetica,sans-Serif" font-size="10.00">ShapeId::shapeName</text>
</a>
</g>
</g>
<!-- Node6&#45;&gt;Node9 -->
<g id="edge11_Node000006_Node000009" class="edge">
<title>Node6&#45;&gt;Node9</title>
<g id="a_edge11_Node000006_Node000009"><a xlink:title=" ">
<path fill="none" stroke="#63b8ff" d="M453.25,-32.1C516.13,-27.13 608.9,-19.79 671.53,-14.84"/>
<polygon fill="#63b8ff" stroke="#63b8ff" points="679.77,-14.18 672.08,-18.4 675.79,-14.5 671.8,-14.82 671.8,-14.82 671.8,-14.82 675.79,-14.5 671.51,-11.23 679.77,-14.18 679.77,-14.18"/>
</a>
</g>
</g>
<!-- Node7&#45;&gt;Node8 -->
<g id="edge8_Node000007_Node000008" class="edge">
<title>Node7&#45;&gt;Node8</title>
<g id="a_edge8_Node000007_Node000008"><a xlink:title=" ">
<path fill="none" stroke="#63b8ff" d="M622.12,-65.92C638.59,-63.19 656.65,-60.19 673.55,-57.38"/>
<polygon fill="#63b8ff" stroke="#63b8ff" points="681.74,-56.02 674.44,-60.88 677.79,-56.67 673.84,-57.33 673.84,-57.33 673.84,-57.33 677.79,-56.67 673.25,-53.78 681.74,-56.02 681.74,-56.02"/>
</a>
</g>
</g>
<!-- Node8&#45;&gt;Node5 -->
<g id="edge9_Node000008_Node000005" class="edge">
<title>Node8&#45;&gt;Node5</title>
<g id="a_edge9_Node000008_Node000005"><a xlink:title=" ">
<path fill="none" stroke="#63b8ff" d="M806.14,-46.5C815.26,-46.5 824.59,-46.5 833.56,-46.5"/>
<polygon fill="#63b8ff" stroke="#63b8ff" points="841.69,-46.5 833.69,-50.1 837.69,-46.5 833.69,-46.5 833.69,-46.5 833.69,-46.5 837.69,-46.5 833.69,-42.9 841.69,-46.5 841.69,-46.5"/>
</a>
</g>
</g>
<!-- Node9&#45;&gt;Node5 -->
<g id="edge12_Node000009_Node000005" class="edge">
<title>Node9&#45;&gt;Node5</title>
<g id="a_edge12_Node000009_Node000005"><a xlink:title=" ">
<path fill="none" stroke="#63b8ff" d="M779.76,-19.03C799.61,-23.91 823.92,-29.89 844.8,-35.02"/>
<polygon fill="#63b8ff" stroke="#63b8ff" points="852.61,-36.94 843.98,-38.53 848.73,-35.98 844.84,-35.03 844.84,-35.03 844.84,-35.03 848.73,-35.98 845.7,-31.53 852.61,-36.94 852.61,-36.94"/>
</a>
</g>
</g>
</g>
</svg>
