<?xml version="1.0" encoding="UTF-8" standalone="no"?>
<!DOCTYPE svg PUBLIC "-//W3C//DTD SVG 1.1//EN"
 "http://www.w3.org/Graphics/SVG/1.1/DTD/svg11.dtd">
<!-- Generated by graphviz version 2.43.0 (0)
 -->
<!-- Title: ShapeId Pages: 1 -->
<svg width="185pt" height="115pt"
 viewBox="0.00 0.00 185.00 115.00" xmlns="http://www.w3.org/2000/svg" xmlns:xlink="http://www.w3.org/1999/xlink">
<g id="graph0" class="graph" transform="scale(1 1) rotate(0) translate(4 111)">
<title>ShapeId</title>
<!-- Node1 -->
<g id="node1" class="node">
<title>Node1</title>
<g id="a_node1"><a xlink:title="The ShapeId class provides a Qt representation of a Smithy Shape ID.">
<polygon fill="#999999" stroke="#666666" points="56,-107 0,-107 0,-88 56,-88 56,-107"/>
<text text-anchor="middle" x="28" y="-95" font-family="Helvetica,sans-Serif" font-size="10.00">ShapeId</text>
</a>
</g>
</g>
<!-- Node2 -->
<g id="node2" class="node">
<title>Node2</title>
<g id="a_node2"><a xlink:href="classShapeIdPrivate.html" target="_top" xlink:title="The ShapeIdPrivate class provides private implementation for ShapeId.">
<polygon fill="white" stroke="#666666" points="109,-19 19,-19 19,0 109,0 109,-19"/>
<text text-anchor="middle" x="64" y="-7" font-family="Helvetica,sans-Serif" font-size="10.00">ShapeIdPrivate</text>
</a>
</g>
</g>
<!-- Node1&#45;&gt;Node2 -->
<g id="edge2" class="edge">
<title>Node1&#45;&gt;Node2</title>
<path fill="none" stroke="#9a32cd" stroke-dasharray="5,2" d="M15.44,-81.27C13.2,-77.77 11.2,-73.91 10,-70 5.69,-55.98 2.24,-49.45 10,-37 15.14,-28.76 23.67,-23.01 32.45,-19.02"/>
<polygon fill="#9a32cd" stroke="#9a32cd" points="20.2,-87.89 12.6,-83.49 17.86,-84.64 15.53,-81.39 15.53,-81.39 15.53,-81.39 17.86,-84.64 18.45,-79.29 20.2,-87.89 20.2,-87.89"/>
<text text-anchor="middle" x="24" y="-51" font-family="Helvetica,sans-Serif" font-size="10.00"> q_ptr</text>
</g>
<!-- Node2&#45;&gt;Node1 -->
<g id="edge1" class="edge">
<title>Node2&#45;&gt;Node1</title>
<path fill="none" stroke="#9a32cd" stroke-dasharray="5,2" d="M58.56,-26.99C54.42,-39.06 48.36,-55.76 42,-70 39.28,-76.08 35.78,-82.71 32.96,-87.81"/>
<polygon fill="#9a32cd" stroke="#9a32cd" points="61.21,-19.12 62.07,-27.85 59.94,-22.91 58.66,-26.7 58.66,-26.7 58.66,-26.7 59.94,-22.91 55.25,-25.55 61.21,-19.12 61.21,-19.12"/>
<text text-anchor="middle" x="68" y="-51" font-family="Helvetica,sans-Serif" font-size="10.00"> d_ptr</text>
</g>
<!-- Node3 -->
<g id="node3" class="node">
<title>Node3</title>
<g id="a_node3"><a target="_parent" xlink:href="https://doc.qt.io/qt-5/qstring.html" xlink:title=" ">
<polygon fill="white" stroke="#bfbfbf" points="141.5,-107 88.5,-107 88.5,-88 141.5,-88 141.5,-107"/>
<text text-anchor="middle" x="115" y="-95" font-family="Helvetica,sans-Serif" font-size="10.00">QString</text>
</a>
</g>
</g>
<!-- Node3&#45;&gt;Node2 -->
<g id="edge3" class="edge">
<title>Node3&#45;&gt;Node2</title>
<path fill="none" stroke="#9a32cd" stroke-dasharray="5,2" d="M108.25,-80.03C102.92,-67.75 94.91,-50.81 86,-37 81.98,-30.77 76.69,-24.36 72.31,-19.4"/>
<polygon fill="#9a32cd" stroke="#9a32cd" points="111.49,-87.68 105.05,-81.72 109.93,-83.99 108.37,-80.31 108.37,-80.31 108.37,-80.31 109.93,-83.99 111.68,-78.91 111.49,-87.68 111.49,-87.68"/>
<text text-anchor="middle" x="140" y="-62" font-family="Helvetica,sans-Serif" font-size="10.00"> memberName</text>
<text text-anchor="middle" x="140" y="-51" font-family="Helvetica,sans-Serif" font-size="10.00">nameSpace</text>
<text text-anchor="middle" x="140" y="-40" font-family="Helvetica,sans-Serif" font-size="10.00">shapeName</text>
</g>
</g>
</svg>
