<?xml version="1.0" encoding="UTF-8" standalone="no"?>
<!DOCTYPE svg PUBLIC "-//W3C//DTD SVG 1.1//EN"
 "http://www.w3.org/Graphics/SVG/1.1/DTD/svg11.dtd">
<!-- Generated by graphviz version 2.43.0 (0)
 -->
<!-- Title: ShapeId::hasMemberName Pages: 1 -->
<svg width="462pt" height="27pt"
 viewBox="0.00 0.00 462.00 27.00" xmlns="http://www.w3.org/2000/svg" xmlns:xlink="http://www.w3.org/1999/xlink">
<g id="graph0" class="graph" transform="scale(1 1) rotate(0) translate(4 23)">
<title>ShapeId::hasMemberName</title>
<!-- Node1 -->
<g id="Node000001" class="node">
<title>Node1</title>
<g id="a_Node000001"><a xlink:title="Returns true if this Shape ID has a non&#45;empty member name, otherwise false otherwise.">
<polygon fill="#999999" stroke="#666666" points="149,-19 0,-19 0,0 149,0 149,-19"/>
<text text-anchor="middle" x="74.5" y="-7" font-family="Helvetica,sans-Serif" font-size="10.00">ShapeId::hasMemberName</text>
</a>
</g>
</g>
<!-- Node2 -->
<g id="Node000002" class="node">
<title>Node2</title>
<g id="a_Node000002"><a xlink:href="classShapeId.html#a9b1580e3aa193c99d000aa084def3a70" target="_top" xlink:title="Returns the Shape ID&#39;s member name, if it has one, otherwise a null string.">
<polygon fill="white" stroke="#666666" points="317,-19 185,-19 185,0 317,0 317,-19"/>
<text text-anchor="middle" x="251" y="-7" font-family="Helvetica,sans-Serif" font-size="10.00">ShapeId::memberName</text>
</a>
</g>
</g>
<!-- Node1&#45;&gt;Node2 -->
<g id="edge1_Node000001_Node000002" class="edge">
<title>Node1&#45;&gt;Node2</title>
<g id="a_edge1_Node000001_Node000002"><a xlink:title=" ">
<path fill="none" stroke="#63b8ff" d="M149.25,-9.5C158.3,-9.5 167.54,-9.5 176.58,-9.5"/>
<polygon fill="#63b8ff" stroke="#63b8ff" points="184.81,-9.5 176.81,-13.1 180.81,-9.5 176.81,-9.5 176.81,-9.5 176.81,-9.5 180.81,-9.5 176.81,-5.9 184.81,-9.5 184.81,-9.5"/>
</a>
</g>
</g>
<!-- Node3 -->
<g id="Node000003" class="node">
<title>Node3</title>
<g id="a_Node000003"><a xlink:href="classShapeId.html#a5c5ff0cc534bd3277f30a06dbf2587dd" target="_top" xlink:title="Constructs an empty ShapeId object.">
<polygon fill="white" stroke="#666666" points="454,-19 353,-19 353,0 454,0 454,-19"/>
<text text-anchor="middle" x="403.5" y="-7" font-family="Helvetica,sans-Serif" font-size="10.00">ShapeId::ShapeId</text>
</a>
</g>
</g>
<!-- Node2&#45;&gt;Node3 -->
<g id="edge2_Node000002_Node000003" class="edge">
<title>Node2&#45;&gt;Node3</title>
<g id="a_edge2_Node000002_Node000003"><a xlink:title=" ">
<path fill="none" stroke="#63b8ff" d="M317.14,-9.5C326.26,-9.5 335.59,-9.5 344.56,-9.5"/>
<polygon fill="#63b8ff" stroke="#63b8ff" points="352.69,-9.5 344.69,-13.1 348.69,-9.5 344.69,-9.5 344.69,-9.5 344.69,-9.5 348.69,-9.5 344.69,-5.9 352.69,-9.5 352.69,-9.5"/>
</a>
</g>
</g>
</g>
</svg>
