<?xml version="1.0" encoding="UTF-8" standalone="no"?>
<!DOCTYPE svg PUBLIC "-//W3C//DTD SVG 1.1//EN"
 "http://www.w3.org/Graphics/SVG/1.1/DTD/svg11.dtd">
<!-- Generated by graphviz version 2.43.0 (0)
 -->
<!-- Title: ShapeIdPrivate::setShapeId Pages: 1 -->
<svg width="309pt" height="101pt"
 viewBox="0.00 0.00 309.00 101.00" xmlns="http://www.w3.org/2000/svg" xmlns:xlink="http://www.w3.org/1999/xlink">
<g id="graph0" class="graph" transform="scale(1 1) rotate(0) translate(4 97)">
<title>ShapeIdPrivate::setShapeId</title>
<!-- Node1 -->
<g id="node1" class="node">
<title>Node1</title>
<g id="a_node1"><a xlink:title="Splits shapeId into its components (namespace, shape name and member name) and assigns them to the eq...">
<polygon fill="#999999" stroke="#666666" points="150,-56 0,-56 0,-37 150,-37 150,-56"/>
<text text-anchor="middle" x="75" y="-44" font-family="Helvetica,sans-Serif" font-size="10.00">ShapeIdPrivate::setShapeId</text>
</a>
</g>
</g>
<!-- Node2 -->
<g id="node2" class="node">
<title>Node2</title>
<g id="a_node2"><a target="_parent" xlink:href="https://doc.qt.io/qt-5/qstring.html#indexOf-1" xlink:title=" ">
<polygon fill="white" stroke="#666666" points="292,-93 195,-93 195,-74 292,-74 292,-93"/>
<text text-anchor="middle" x="243.5" y="-81" font-family="Helvetica,sans-Serif" font-size="10.00">QString::indexOf</text>
</a>
</g>
</g>
<!-- Node1&#45;&gt;Node2 -->
<g id="edge1" class="edge">
<title>Node1&#45;&gt;Node2</title>
<path fill="none" stroke="#63b8ff" d="M118.88,-56.03C141.03,-60.95 168.21,-66.99 191.44,-72.15"/>
<polygon fill="#63b8ff" stroke="#63b8ff" points="199.48,-73.94 190.89,-75.72 195.57,-73.07 191.67,-72.2 191.67,-72.2 191.67,-72.2 195.57,-73.07 192.45,-68.69 199.48,-73.94 199.48,-73.94"/>
</g>
<!-- Node3 -->
<g id="node3" class="node">
<title>Node3</title>
<g id="a_node3"><a target="_parent" xlink:href="https://doc.qt.io/qt-5/qstring.html#lastIndexOf-1" xlink:title=" ">
<polygon fill="white" stroke="#666666" points="301,-56 186,-56 186,-37 301,-37 301,-56"/>
<text text-anchor="middle" x="243.5" y="-44" font-family="Helvetica,sans-Serif" font-size="10.00">QString::lastIndexOf</text>
</a>
</g>
</g>
<!-- Node1&#45;&gt;Node3 -->
<g id="edge2" class="edge">
<title>Node1&#45;&gt;Node3</title>
<path fill="none" stroke="#63b8ff" d="M150.48,-46.5C159.5,-46.5 168.65,-46.5 177.52,-46.5"/>
<polygon fill="#63b8ff" stroke="#63b8ff" points="185.56,-46.5 177.56,-50.1 181.56,-46.5 177.56,-46.5 177.56,-46.5 177.56,-46.5 181.56,-46.5 177.56,-42.9 185.56,-46.5 185.56,-46.5"/>
</g>
<!-- Node4 -->
<g id="node4" class="node">
<title>Node4</title>
<g id="a_node4"><a target="_parent" xlink:href="https://doc.qt.io/qt-5/qstring.html#mid" xlink:title=" ">
<polygon fill="white" stroke="#666666" points="282,-19 205,-19 205,0 282,0 282,-19"/>
<text text-anchor="middle" x="243.5" y="-7" font-family="Helvetica,sans-Serif" font-size="10.00">QString::mid</text>
</a>
</g>
</g>
<!-- Node1&#45;&gt;Node4 -->
<g id="edge3" class="edge">
<title>Node1&#45;&gt;Node4</title>
<path fill="none" stroke="#63b8ff" d="M118.88,-36.97C142.77,-31.66 172.52,-25.05 196.84,-19.65"/>
<polygon fill="#63b8ff" stroke="#63b8ff" points="204.87,-17.86 197.84,-23.11 200.96,-18.73 197.06,-19.6 197.06,-19.6 197.06,-19.6 200.96,-18.73 196.28,-16.08 204.87,-17.86 204.87,-17.86"/>
</g>
</g>
</svg>
