<?xml version="1.0" encoding="UTF-8" standalone="no"?>
<!DOCTYPE svg PUBLIC "-//W3C//DTD SVG 1.1//EN"
 "http://www.w3.org/Graphics/SVG/1.1/DTD/svg11.dtd">
<!-- Generated by graphviz version 2.43.0 (0)
 -->
<!-- Title: Generator::generate Pages: 1 -->
<svg width="444pt" height="384pt"
 viewBox="0.00 0.00 444.00 384.00" xmlns="http://www.w3.org/2000/svg" xmlns:xlink="http://www.w3.org/1999/xlink">
<g id="graph0" class="graph" transform="scale(1 1) rotate(0) translate(4 380)">
<title>Generator::generate</title>
<!-- Node1 -->
<g id="node1" class="node">
<title>Node1</title>
<g id="a_node1"><a xlink:title=" ">
<polygon fill="#999999" stroke="#666666" points="115,-194 0,-194 0,-175 115,-175 115,-194"/>
<text text-anchor="middle" x="57.5" y="-182" font-family="Helvetica,sans-Serif" font-size="10.00">Generator::generate</text>
</a>
</g>
</g>
<!-- Node2 -->
<g id="node2" class="node">
<title>Node2</title>
<g id="a_node2"><a target="_parent" xlink:href="https://doc.qt.io/qt-5/qlist.html#append" xlink:title=" ">
<polygon fill="white" stroke="#666666" points="268,-376 185,-376 185,-357 268,-357 268,-376"/>
<text text-anchor="middle" x="226.5" y="-364" font-family="Helvetica,sans-Serif" font-size="10.00">QList::append</text>
</a>
</g>
</g>
<!-- Node1&#45;&gt;Node2 -->
<g id="edge1" class="edge">
<title>Node1&#45;&gt;Node2</title>
<path fill="none" stroke="#63b8ff" d="M60.97,-194.07C68.82,-222.47 95.97,-306.91 151,-348.5 158.63,-354.27 167.85,-358.21 177.16,-360.91"/>
<polygon fill="#63b8ff" stroke="#63b8ff" points="184.97,-362.89 176.33,-364.41 181.1,-361.91 177.22,-360.92 177.22,-360.92 177.22,-360.92 181.1,-361.91 178.1,-357.43 184.97,-362.89 184.97,-362.89"/>
</g>
<!-- Node3 -->
<g id="node3" class="node">
<title>Node3</title>
<g id="a_node3"><a target="_parent" xlink:href="https://doc.qt.io/qt-5/qlist.html#constBegin" xlink:title=" ">
<polygon fill="white" stroke="#666666" points="277,-339 176,-339 176,-320 277,-320 277,-339"/>
<text text-anchor="middle" x="226.5" y="-327" font-family="Helvetica,sans-Serif" font-size="10.00">QList::constBegin</text>
</a>
</g>
</g>
<!-- Node1&#45;&gt;Node3 -->
<g id="edge2" class="edge">
<title>Node1&#45;&gt;Node3</title>
<path fill="none" stroke="#63b8ff" d="M62.67,-194.26C73.47,-218.29 104.74,-280.58 151,-311.5 156.21,-314.98 162.03,-317.79 168.05,-320.06"/>
<polygon fill="#63b8ff" stroke="#63b8ff" points="175.76,-322.65 167.03,-323.52 171.97,-321.38 168.18,-320.1 168.18,-320.1 168.18,-320.1 171.97,-321.38 169.32,-316.69 175.76,-322.65 175.76,-322.65"/>
</g>
<!-- Node4 -->
<g id="node4" class="node">
<title>Node4</title>
<g id="a_node4"><a target="_parent" xlink:href="https://doc.qt.io/qt-5/qlist.html#constEnd" xlink:title=" ">
<polygon fill="white" stroke="#666666" points="272.5,-302 180.5,-302 180.5,-283 272.5,-283 272.5,-302"/>
<text text-anchor="middle" x="226.5" y="-290" font-family="Helvetica,sans-Serif" font-size="10.00">QList::constEnd</text>
</a>
</g>
</g>
<!-- Node1&#45;&gt;Node4 -->
<g id="edge3" class="edge">
<title>Node1&#45;&gt;Node4</title>
<path fill="none" stroke="#63b8ff" d="M65.72,-194.22C79.93,-212.62 113.42,-252.58 151,-273.5 157.6,-277.17 164.91,-280.15 172.31,-282.56"/>
<polygon fill="#63b8ff" stroke="#63b8ff" points="180.34,-284.95 171.64,-286.11 176.5,-283.81 172.67,-282.66 172.67,-282.66 172.67,-282.66 176.5,-283.81 173.7,-279.22 180.34,-284.95 180.34,-284.95"/>
</g>
<!-- Node5 -->
<g id="node5" class="node">
<title>Node5</title>
<g id="a_node5"><a target="_parent" xlink:href="https://doc.qt.io/qt-5/qregularexpressionmatch.html#hasMatch" xlink:title=" ">
<polygon fill="white" stroke="#666666" points="299,-264.5 154,-264.5 154,-234.5 299,-234.5 299,-264.5"/>
<text text-anchor="start" x="162" y="-252.5" font-family="Helvetica,sans-Serif" font-size="10.00">QRegularExpressionMatch</text>
<text text-anchor="middle" x="226.5" y="-241.5" font-family="Helvetica,sans-Serif" font-size="10.00">::hasMatch</text>
</a>
</g>
</g>
<!-- Node1&#45;&gt;Node5 -->
<g id="edge4" class="edge">
<title>Node1&#45;&gt;Node5</title>
<path fill="none" stroke="#63b8ff" d="M78.45,-194.08C97.02,-202.81 125.56,-215.8 151,-225.5 156.71,-227.68 162.72,-229.83 168.74,-231.91"/>
<polygon fill="#63b8ff" stroke="#63b8ff" points="176.35,-234.48 167.62,-235.33 172.56,-233.2 168.77,-231.92 168.77,-231.92 168.77,-231.92 172.56,-233.2 169.93,-228.51 176.35,-234.48 176.35,-234.48"/>
</g>
<!-- Node6 -->
<g id="node6" class="node">
<title>Node6</title>
<g id="a_node6"><a target="_parent" xlink:href="https://doc.qt.io/qt-5/qjsonobject.html#insert" xlink:title=" ">
<polygon fill="white" stroke="#666666" points="281.5,-216 171.5,-216 171.5,-197 281.5,-197 281.5,-216"/>
<text text-anchor="middle" x="226.5" y="-204" font-family="Helvetica,sans-Serif" font-size="10.00">QJsonObject::insert</text>
</a>
</g>
</g>
<!-- Node1&#45;&gt;Node6 -->
<g id="edge5" class="edge">
<title>Node1&#45;&gt;Node6</title>
<path fill="none" stroke="#63b8ff" d="M115.04,-191.95C130.51,-193.99 147.36,-196.21 163.14,-198.29"/>
<polygon fill="#63b8ff" stroke="#63b8ff" points="171.28,-199.36 162.88,-201.88 167.31,-198.83 163.35,-198.31 163.35,-198.31 163.35,-198.31 167.31,-198.83 163.82,-194.74 171.28,-199.36 171.28,-199.36"/>
</g>
<!-- Node7 -->
<g id="node7" class="node">
<title>Node7</title>
<g id="a_node7"><a target="_parent" xlink:href="https://doc.qt.io/qt-5/qregularexpression.html#match" xlink:title=" ">
<polygon fill="white" stroke="#666666" points="284,-178.5 169,-178.5 169,-148.5 284,-148.5 284,-178.5"/>
<text text-anchor="start" x="177" y="-166.5" font-family="Helvetica,sans-Serif" font-size="10.00">QRegularExpression</text>
<text text-anchor="middle" x="226.5" y="-155.5" font-family="Helvetica,sans-Serif" font-size="10.00">::match</text>
</a>
</g>
</g>
<!-- Node1&#45;&gt;Node7 -->
<g id="edge6" class="edge">
<title>Node1&#45;&gt;Node7</title>
<path fill="none" stroke="#63b8ff" d="M115.04,-177.39C129.65,-175.55 145.49,-173.56 160.5,-171.67"/>
<polygon fill="#63b8ff" stroke="#63b8ff" points="168.74,-170.64 161.25,-175.21 164.77,-171.14 160.8,-171.64 160.8,-171.64 160.8,-171.64 164.77,-171.14 160.35,-168.06 168.74,-170.64 168.74,-170.64"/>
</g>
<!-- Node8 -->
<g id="node8" class="node">
<title>Node8</title>
<g id="a_node8"><a xlink:href="classGenerator.html#ad87975d469b9c30bf7a60161c350bb6e" target="_top" xlink:title=" ">
<polygon fill="white" stroke="#666666" points="302,-130 151,-130 151,-111 302,-111 302,-130"/>
<text text-anchor="middle" x="226.5" y="-118" font-family="Helvetica,sans-Serif" font-size="10.00">Generator::renderOperation</text>
</a>
</g>
</g>
<!-- Node1&#45;&gt;Node8 -->
<g id="edge7" class="edge">
<title>Node1&#45;&gt;Node8</title>
<path fill="none" stroke="#63b8ff" d="M75.43,-174.96C93.64,-165.02 123.67,-149.52 151,-139.5 158.33,-136.81 166.2,-134.36 173.98,-132.18"/>
<polygon fill="#63b8ff" stroke="#63b8ff" points="181.71,-130.09 174.93,-135.65 177.85,-131.13 173.99,-132.18 173.99,-132.18 173.99,-132.18 177.85,-131.13 173.05,-128.7 181.71,-130.09 181.71,-130.09"/>
</g>
<!-- Node11 -->
<g id="node11" class="node">
<title>Node11</title>
<g id="a_node11"><a xlink:href="classGenerator.html#aaa1d9f88da53cc5be8e720cf7e23c548" target="_top" xlink:title=" ">
<polygon fill="white" stroke="#666666" points="296,-93 157,-93 157,-74 296,-74 296,-93"/>
<text text-anchor="middle" x="226.5" y="-81" font-family="Helvetica,sans-Serif" font-size="10.00">Generator::renderService</text>
</a>
</g>
</g>
<!-- Node1&#45;&gt;Node11 -->
<g id="edge10" class="edge">
<title>Node1&#45;&gt;Node11</title>
<path fill="none" stroke="#63b8ff" d="M66.31,-174.87C80.99,-157.44 114.53,-120.68 151,-101.5 155.15,-99.32 159.57,-97.39 164.1,-95.7"/>
<polygon fill="#63b8ff" stroke="#63b8ff" points="171.82,-93.06 165.41,-99.06 168.03,-94.36 164.25,-95.65 164.25,-95.65 164.25,-95.65 168.03,-94.36 163.08,-92.25 171.82,-93.06 171.82,-93.06"/>
</g>
<!-- Node12 -->
<g id="node12" class="node">
<title>Node12</title>
<g id="a_node12"><a target="_parent" xlink:href="https://doc.qt.io/qt-5/qlist.html#size" xlink:title=" ">
<polygon fill="white" stroke="#666666" points="260,-56 193,-56 193,-37 260,-37 260,-56"/>
<text text-anchor="middle" x="226.5" y="-44" font-family="Helvetica,sans-Serif" font-size="10.00">QList::size</text>
</a>
</g>
</g>
<!-- Node1&#45;&gt;Node12 -->
<g id="edge13" class="edge">
<title>Node1&#45;&gt;Node12</title>
<path fill="none" stroke="#63b8ff" d="M62.99,-174.94C74.29,-151.99 106.21,-93.57 151,-64.5 161.07,-57.97 173.29,-53.8 184.89,-51.15"/>
<polygon fill="#63b8ff" stroke="#63b8ff" points="192.8,-49.54 185.67,-54.67 188.88,-50.34 184.96,-51.14 184.96,-51.14 184.96,-51.14 188.88,-50.34 184.24,-47.61 192.8,-49.54 192.8,-49.54"/>
</g>
<!-- Node13 -->
<g id="node13" class="node">
<title>Node13</title>
<g id="a_node13"><a target="_parent" xlink:href="https://doc.qt.io/qt-5/qjsonobject.html#toVariantHash" xlink:title=" ">
<polygon fill="white" stroke="#666666" points="302,-19 151,-19 151,0 302,0 302,-19"/>
<text text-anchor="middle" x="226.5" y="-7" font-family="Helvetica,sans-Serif" font-size="10.00">QJsonObject::toVariantHash</text>
</a>
</g>
</g>
<!-- Node1&#45;&gt;Node13 -->
<g id="edge14" class="edge">
<title>Node1&#45;&gt;Node13</title>
<path fill="none" stroke="#63b8ff" d="M61.22,-174.95C69.57,-147.36 97.62,-67.05 151,-27.5 153.44,-25.69 156.04,-24.06 158.75,-22.59"/>
<polygon fill="#63b8ff" stroke="#63b8ff" points="166.15,-19.07 160.47,-25.76 162.54,-20.79 158.92,-22.51 158.92,-22.51 158.92,-22.51 162.54,-20.79 157.38,-19.26 166.15,-19.07 166.15,-19.07"/>
</g>
<!-- Node9 -->
<g id="node9" class="node">
<title>Node9</title>
<g id="a_node9"><a target="_parent" xlink:href="https://doc.qt.io/qt-5/qstring.html#arg-11" xlink:title=" ">
<polygon fill="white" stroke="#666666" points="424,-130 350,-130 350,-111 424,-111 424,-130"/>
<text text-anchor="middle" x="387" y="-118" font-family="Helvetica,sans-Serif" font-size="10.00">QString::arg</text>
</a>
</g>
</g>
<!-- Node8&#45;&gt;Node9 -->
<g id="edge8" class="edge">
<title>Node8&#45;&gt;Node9</title>
<path fill="none" stroke="#63b8ff" d="M302.11,-120.5C315.55,-120.5 329.17,-120.5 341.41,-120.5"/>
<polygon fill="#63b8ff" stroke="#63b8ff" points="349.65,-120.5 341.65,-124.1 345.65,-120.5 341.65,-120.5 341.65,-120.5 341.65,-120.5 345.65,-120.5 341.65,-116.9 349.65,-120.5 349.65,-120.5"/>
</g>
<!-- Node10 -->
<g id="node10" class="node">
<title>Node10</title>
<g id="a_node10"><a target="_parent" xlink:href="https://doc.qt.io/qt-5/qstring.html#isEmpty" xlink:title=" ">
<polygon fill="white" stroke="#666666" points="436,-93 338,-93 338,-74 436,-74 436,-93"/>
<text text-anchor="middle" x="387" y="-81" font-family="Helvetica,sans-Serif" font-size="10.00">QString::isEmpty</text>
</a>
</g>
</g>
<!-- Node8&#45;&gt;Node10 -->
<g id="edge9" class="edge">
<title>Node8&#45;&gt;Node10</title>
<path fill="none" stroke="#63b8ff" d="M268.32,-110.97C289.31,-106.07 315.06,-100.06 337.1,-94.91"/>
<polygon fill="#63b8ff" stroke="#63b8ff" points="345.05,-93.06 338.07,-98.38 341.15,-93.97 337.25,-94.88 337.25,-94.88 337.25,-94.88 341.15,-93.97 336.44,-91.37 345.05,-93.06 345.05,-93.06"/>
</g>
<!-- Node11&#45;&gt;Node9 -->
<g id="edge11" class="edge">
<title>Node11&#45;&gt;Node9</title>
<path fill="none" stroke="#63b8ff" d="M268.32,-93.03C290.88,-98.3 318.93,-104.84 341.98,-110.22"/>
<polygon fill="#63b8ff" stroke="#63b8ff" points="349.91,-112.08 341.3,-113.76 346.02,-111.17 342.12,-110.26 342.12,-110.26 342.12,-110.26 346.02,-111.17 342.94,-106.75 349.91,-112.08 349.91,-112.08"/>
</g>
<!-- Node11&#45;&gt;Node10 -->
<g id="edge12" class="edge">
<title>Node11&#45;&gt;Node10</title>
<path fill="none" stroke="#63b8ff" d="M296.1,-83.5C307.3,-83.5 318.79,-83.5 329.65,-83.5"/>
<polygon fill="#63b8ff" stroke="#63b8ff" points="337.82,-83.5 329.82,-87.1 333.82,-83.5 329.82,-83.5 329.82,-83.5 329.82,-83.5 333.82,-83.5 329.82,-79.9 337.82,-83.5 337.82,-83.5"/>
</g>
</g>
</svg>
