<?xml version="1.0" encoding="UTF-8" standalone="no"?>
<!DOCTYPE svg PUBLIC "-//W3C//DTD SVG 1.1//EN"
 "http://www.w3.org/Graphics/SVG/1.1/DTD/svg11.dtd">
<!-- Generated by graphviz version 2.43.0 (0)
 -->
<!-- Title: smithy&#45;qt Pages: 1 -->
<svg width="222pt" height="149pt"
 viewBox="0.00 0.00 222.00 149.00" xmlns="http://www.w3.org/2000/svg" xmlns:xlink="http://www.w3.org/1999/xlink">
<g id="graph0" class="graph" transform="scale(1 1) rotate(0) translate(4 145)">
<title>smithy&#45;qt</title>
<g id="clust1" class="cluster">
<title>clusterdir_ebde61d49d628b8294327bd14dd0a93b</title>
<g id="a_clust1"><a xlink:href="dir_ebde61d49d628b8294327bd14dd0a93b.html" target="_top" xlink:title="smithy&#45;qt">
<polygon fill="#edf0f7" stroke="#404040" stroke-dasharray="5,2" points="8,-8 8,-133 206,-133 206,-8 8,-8"/>
<text text-anchor="middle" x="107" y="-121" font-family="Helvetica,sans-Serif" font-size="10.00">smithy&#45;qt</text>
</a>
</g>
</g>
<g id="clust2" class="cluster">
<title>clusterdir_3d8428d3d6a31ad51baeef70950131cf</title>
<g id="a_clust2"><a xlink:href="dir_3d8428d3d6a31ad51baeef70950131cf.html" target="_top">
<polygon fill="#edf0f7" stroke="#404040" stroke-width="2" points="16,-16 16,-106 198,-106 198,-16 16,-16"/>
</a>
</g>
</g>
<!-- dir_3d8428d3d6a31ad51baeef70950131cf -->
<g id="node1" class="node">
<title>dir_3d8428d3d6a31ad51baeef70950131cf</title>
<text text-anchor="middle" x="158" y="-86" font-family="Helvetica,sans-Serif" font-size="10.00">smithy&#45;qt</text>
</g>
<!-- dir_d6046a9420e05b61ebd217af540ab422 -->
<g id="node2" class="node">
<title>dir_d6046a9420e05b61ebd217af540ab422</title>
<g id="a_node2"><a xlink:href="dir_d6046a9420e05b61ebd217af540ab422.html" target="_top" xlink:title="doc">
<polygon fill="#a2b4d6" stroke="#404040" points="108,-98 74,-98 74,-79 108,-79 108,-98"/>
<text text-anchor="middle" x="91" y="-86" font-family="Helvetica,sans-Serif" font-size="10.00">doc</text>
</a>
</g>
</g>
<!-- dir_72791c1524a63d0a88746fd59b693ef8 -->
<g id="node3" class="node">
<title>dir_72791c1524a63d0a88746fd59b693ef8</title>
<g id="a_node3"><a xlink:href="dir_72791c1524a63d0a88746fd59b693ef8.html" target="_top" xlink:title="include">
<polygon fill="#a2b4d6" stroke="#404040" points="76,-43 24,-43 24,-24 76,-24 76,-43"/>
<text text-anchor="middle" x="50" y="-31" font-family="Helvetica,sans-Serif" font-size="10.00">include</text>
</a>
</g>
</g>
<!-- dir_fe0b2ae9373b7860f12b9bf99b13c7c4 -->
<g id="node4" class="node">
<title>dir_fe0b2ae9373b7860f12b9bf99b13c7c4</title>
<g id="a_node4"><a xlink:href="dir_fe0b2ae9373b7860f12b9bf99b13c7c4.html" target="_top" xlink:title="src">
<polygon fill="#a2b4d6" stroke="#404040" points="55.5,-98 24.5,-98 24.5,-79 55.5,-79 55.5,-98"/>
<text text-anchor="middle" x="40" y="-86" font-family="Helvetica,sans-Serif" font-size="10.00">src</text>
</a>
</g>
</g>
<!-- dir_fe0b2ae9373b7860f12b9bf99b13c7c4&#45;&gt;dir_72791c1524a63d0a88746fd59b693ef8 -->
<g id="edge1" class="edge">
<title>dir_fe0b2ae9373b7860f12b9bf99b13c7c4&#45;&gt;dir_72791c1524a63d0a88746fd59b693ef8</title>
<path fill="none" stroke="#63b8ff" d="M41.65,-78.75C43.06,-71.26 45.14,-60.28 46.86,-51.13"/>
<polygon fill="#63b8ff" stroke="#63b8ff" points="48.38,-43.09 50.43,-51.62 47.64,-47.02 46.9,-50.95 46.9,-50.95 46.9,-50.95 47.64,-47.02 43.36,-50.28 48.38,-43.09 48.38,-43.09"/>
<g id="a_edge1&#45;headlabel"><a xlink:href="dir_000009_000002.html" target="_top" xlink:title="10">
<text text-anchor="middle" x="52.09" y="-55.12" font-family="Helvetica,sans-Serif" font-size="10.00" fill="#63b8ff">10</text>
</a>
</g>
</g>
</g>
</svg>
