<?xml version="1.0" encoding="UTF-8" standalone="no"?>
<!DOCTYPE svg PUBLIC "-//W3C//DTD SVG 1.1//EN"
 "http://www.w3.org/Graphics/SVG/1.1/DTD/svg11.dtd">
<!-- Generated by graphviz version 2.43.0 (0)
 -->
<!-- Title: model.h Pages: 1 -->
<svg width="296pt" height="137pt"
 viewBox="0.00 0.00 295.50 137.00" xmlns="http://www.w3.org/2000/svg" xmlns:xlink="http://www.w3.org/1999/xlink">
<g id="graph0" class="graph" transform="scale(1 1) rotate(0) translate(4 133)">
<title>model.h</title>
<!-- Node1 -->
<g id="node1" class="node">
<title>Node1</title>
<g id="a_node1"><a xlink:title="Declares the Model class.">
<polygon fill="#999999" stroke="#666666" points="189.5,-129 133.5,-129 133.5,-110 189.5,-110 189.5,-129"/>
<text text-anchor="middle" x="161.5" y="-117" font-family="Helvetica,sans-Serif" font-size="10.00">model.h</text>
</a>
</g>
</g>
<!-- Node2 -->
<g id="node2" class="node">
<title>Node2</title>
<g id="a_node2"><a xlink:href="generator_8cpp_source.html" target="_top" xlink:title=" ">
<polygon fill="white" stroke="#666666" points="83,-74 0,-74 0,-55 83,-55 83,-74"/>
<text text-anchor="middle" x="41.5" y="-62" font-family="Helvetica,sans-Serif" font-size="10.00">generator.cpp</text>
</a>
</g>
</g>
<!-- Node1&#45;&gt;Node2 -->
<g id="edge1" class="edge">
<title>Node1&#45;&gt;Node2</title>
<path fill="none" stroke="#63b8ff" d="M134.74,-106.68C112.43,-96.83 81.18,-83.02 61.13,-74.17"/>
<polygon fill="#63b8ff" stroke="#63b8ff" points="142.22,-109.98 133.45,-110.05 138.56,-108.37 134.9,-106.75 134.9,-106.75 134.9,-106.75 138.56,-108.37 136.36,-103.46 142.22,-109.98 142.22,-109.98"/>
</g>
<!-- Node3 -->
<g id="node3" class="node">
<title>Node3</title>
<g id="a_node3"><a xlink:href="main_8cpp_source.html" target="_top" xlink:title=" ">
<polygon fill="white" stroke="#666666" points="163.5,-74 101.5,-74 101.5,-55 163.5,-55 163.5,-74"/>
<text text-anchor="middle" x="132.5" y="-62" font-family="Helvetica,sans-Serif" font-size="10.00">main.cpp</text>
</a>
</g>
</g>
<!-- Node1&#45;&gt;Node3 -->
<g id="edge2" class="edge">
<title>Node1&#45;&gt;Node3</title>
<path fill="none" stroke="#63b8ff" d="M152.76,-102.52C147.64,-93.18 141.39,-81.75 137.2,-74.09"/>
<polygon fill="#63b8ff" stroke="#63b8ff" points="156.71,-109.75 149.71,-104.46 154.79,-106.24 152.87,-102.73 152.87,-102.73 152.87,-102.73 154.79,-106.24 156.03,-101 156.71,-109.75 156.71,-109.75"/>
</g>
<!-- Node4 -->
<g id="node4" class="node">
<title>Node4</title>
<g id="a_node4"><a xlink:href="model_8cpp.html" target="_top" xlink:title="Defines the Model and ModelPrivate classes.">
<polygon fill="white" stroke="#666666" points="256.5,-19 188.5,-19 188.5,0 256.5,0 256.5,-19"/>
<text text-anchor="middle" x="222.5" y="-7" font-family="Helvetica,sans-Serif" font-size="10.00">model.cpp</text>
</a>
</g>
</g>
<!-- Node1&#45;&gt;Node4 -->
<g id="edge3" class="edge">
<title>Node1&#45;&gt;Node4</title>
<path fill="none" stroke="#63b8ff" d="M170.48,-102.61C183.55,-79.47 207.37,-37.29 217.61,-19.16"/>
<polygon fill="#63b8ff" stroke="#63b8ff" points="166.49,-109.66 167.29,-100.93 168.46,-106.18 170.43,-102.7 170.43,-102.7 170.43,-102.7 168.46,-106.18 173.56,-104.47 166.49,-109.66 166.49,-109.66"/>
</g>
<!-- Node5 -->
<g id="node5" class="node">
<title>Node5</title>
<g id="a_node5"><a xlink:href="model__p_8h.html" target="_top" xlink:title="Declares the ModelPrivate class.">
<polygon fill="white" stroke="#666666" points="287.5,-74 219.5,-74 219.5,-55 287.5,-55 287.5,-74"/>
<text text-anchor="middle" x="253.5" y="-62" font-family="Helvetica,sans-Serif" font-size="10.00">model_p.h</text>
</a>
</g>
</g>
<!-- Node1&#45;&gt;Node5 -->
<g id="edge4" class="edge">
<title>Node1&#45;&gt;Node5</title>
<path fill="none" stroke="#63b8ff" d="M183.61,-105.77C200.58,-95.99 223.55,-82.75 238.45,-74.17"/>
<polygon fill="#63b8ff" stroke="#63b8ff" points="176.28,-109.98 181.42,-102.87 179.75,-107.99 183.21,-105.99 183.21,-105.99 183.21,-105.99 179.75,-107.99 185.01,-109.11 176.28,-109.98 176.28,-109.98"/>
</g>
<!-- Node5&#45;&gt;Node4 -->
<g id="edge5" class="edge">
<title>Node5&#45;&gt;Node4</title>
<path fill="none" stroke="#63b8ff" d="M244.32,-47.8C238.82,-38.41 232.05,-26.83 227.52,-19.09"/>
<polygon fill="#63b8ff" stroke="#63b8ff" points="248.38,-54.75 241.23,-49.66 246.36,-51.3 244.34,-47.84 244.34,-47.84 244.34,-47.84 246.36,-51.3 247.45,-46.03 248.38,-54.75 248.38,-54.75"/>
</g>
</g>
</svg>
