<?xml version="1.0" encoding="UTF-8" standalone="no"?>
<!DOCTYPE svg PUBLIC "-//W3C//DTD SVG 1.1//EN"
 "http://www.w3.org/Graphics/SVG/1.1/DTD/svg11.dtd">
<!-- Generated by graphviz version 2.43.0 (0)
 -->
<!-- Title: model.cpp Pages: 1 -->
<svg width="475pt" height="357pt"
 viewBox="0.00 0.00 475.42 357.00" xmlns="http://www.w3.org/2000/svg" xmlns:xlink="http://www.w3.org/1999/xlink">
<g id="graph0" class="graph" transform="scale(1 1) rotate(0) translate(4 353)">
<title>model.cpp</title>
<!-- Node1 -->
<g id="Node000001" class="node">
<title>Node1</title>
<g id="a_Node000001"><a xlink:title="Defines the Model and ModelPrivate classes.">
<polygon fill="#999999" stroke="#666666" points="229.92,-349 161.92,-349 161.92,-330 229.92,-330 229.92,-349"/>
<text text-anchor="middle" x="195.92" y="-337" font-family="Helvetica,sans-Serif" font-size="10.00">model.cpp</text>
</a>
</g>
</g>
<!-- Node2 -->
<g id="Node000002" class="node">
<title>Node2</title>
<g id="a_Node000002"><a xlink:href="model_8h.html" target="_top" xlink:title="Declares the Model class.">
<polygon fill="white" stroke="#666666" points="140.42,-239 37.42,-239 37.42,-220 140.42,-220 140.42,-239"/>
<text text-anchor="middle" x="88.92" y="-227" font-family="Helvetica,sans-Serif" font-size="10.00">qtsmithy/model.h</text>
</a>
</g>
</g>
<!-- Node1&#45;&gt;Node2 -->
<g id="edge1_Node000001_Node000002" class="edge">
<title>Node1&#45;&gt;Node2</title>
<g id="a_edge1_Node000001_Node000002"><a xlink:title=" ">
<path fill="none" stroke="#63b8ff" d="M187.16,-329.66C168.73,-311.06 125.78,-267.71 103.27,-244.98"/>
<polygon fill="#63b8ff" stroke="#63b8ff" points="97.5,-239.16 105.69,-242.31 100.31,-242 103.13,-244.84 103.13,-244.84 103.13,-244.84 100.31,-242 100.57,-247.38 97.5,-239.16 97.5,-239.16"/>
</a>
</g>
</g>
<!-- Node11 -->
<g id="Node000011" class="node">
<title>Node11</title>
<g id="a_Node000011"><a xlink:href="model__p_8h.html" target="_top" xlink:title="Declares the ModelPrivate class.">
<polygon fill="white" stroke="#666666" points="229.92,-294 161.92,-294 161.92,-275 229.92,-275 229.92,-294"/>
<text text-anchor="middle" x="195.92" y="-282" font-family="Helvetica,sans-Serif" font-size="10.00">model_p.h</text>
</a>
</g>
</g>
<!-- Node1&#45;&gt;Node11 -->
<g id="edge16_Node000001_Node000011" class="edge">
<title>Node1&#45;&gt;Node11</title>
<g id="a_edge16_Node000001_Node000011"><a xlink:title=" ">
<path fill="none" stroke="#63b8ff" d="M195.92,-329.75C195.92,-322.26 195.92,-311.28 195.92,-302.13"/>
<polygon fill="#63b8ff" stroke="#63b8ff" points="195.92,-294.09 199.52,-302.09 195.92,-298.09 195.92,-302.09 195.92,-302.09 195.92,-302.09 195.92,-298.09 192.32,-302.09 195.92,-294.09 195.92,-294.09"/>
</a>
</g>
</g>
<!-- Node14 -->
<g id="Node000014" class="node">
<title>Node14</title>
<g id="a_Node000014"><a xlink:title=" ">
<polygon fill="#e0e0e0" stroke="#999999" points="319.42,-294 248.42,-294 248.42,-275 319.42,-275 319.42,-294"/>
<text text-anchor="middle" x="283.92" y="-282" font-family="Helvetica,sans-Serif" font-size="10.00">QJsonArray</text>
</a>
</g>
</g>
<!-- Node1&#45;&gt;Node14 -->
<g id="edge22_Node000001_Node000014" class="edge">
<title>Node1&#45;&gt;Node14</title>
<g id="a_edge22_Node000001_Node000014"><a xlink:title=" ">
<path fill="none" stroke="#63b8ff" d="M210.06,-329.98C224.22,-321.46 246.18,-308.23 262.48,-298.41"/>
<polygon fill="#63b8ff" stroke="#63b8ff" points="269.53,-294.17 264.53,-301.38 266.1,-296.23 262.67,-298.3 262.67,-298.3 262.67,-298.3 266.1,-296.23 260.81,-295.21 269.53,-294.17 269.53,-294.17"/>
</a>
</g>
</g>
<!-- Node3 -->
<g id="Node000003" class="node">
<title>Node3</title>
<g id="a_Node000003"><a xlink:href="shape_8h.html" target="_top" xlink:title="Declares the Shape class.">
<polygon fill="white" stroke="#666666" points="232.42,-184 177.42,-184 177.42,-165 232.42,-165 232.42,-184"/>
<text text-anchor="middle" x="204.92" y="-172" font-family="Helvetica,sans-Serif" font-size="10.00">shape.h</text>
</a>
</g>
</g>
<!-- Node2&#45;&gt;Node3 -->
<g id="edge2_Node000002_Node000003" class="edge">
<title>Node2&#45;&gt;Node3</title>
<g id="a_edge2_Node000002_Node000003"><a xlink:title=" ">
<path fill="none" stroke="#63b8ff" d="M107.56,-219.98C126.72,-211.23 156.75,-197.51 178.39,-187.62"/>
<polygon fill="#63b8ff" stroke="#63b8ff" points="185.94,-184.17 180.16,-190.77 182.31,-185.83 178.67,-187.49 178.67,-187.49 178.67,-187.49 182.31,-185.83 177.17,-184.22 185.94,-184.17 185.94,-184.17"/>
</a>
</g>
</g>
<!-- Node4 -->
<g id="Node000004" class="node">
<title>Node4</title>
<g id="a_Node000004"><a xlink:href="shapeid_8h.html" target="_top" xlink:title="Declares the ShapeId class.">
<polygon fill="white" stroke="#666666" points="360.92,-129 296.92,-129 296.92,-110 360.92,-110 360.92,-129"/>
<text text-anchor="middle" x="328.92" y="-117" font-family="Helvetica,sans-Serif" font-size="10.00">shapeid.h</text>
</a>
</g>
</g>
<!-- Node2&#45;&gt;Node4 -->
<g id="edge12_Node000002_Node000004" class="edge">
<title>Node2&#45;&gt;Node4</title>
<g id="a_edge12_Node000002_Node000004"><a xlink:title=" ">
<path fill="none" stroke="#63b8ff" d="M132.95,-219.97C164.36,-212.87 207.04,-201.14 241.92,-184 268.94,-170.72 296.39,-149.03 313.03,-134.76"/>
<polygon fill="#63b8ff" stroke="#63b8ff" points="319.47,-129.14 315.81,-137.11 316.46,-131.77 313.44,-134.4 313.44,-134.4 313.44,-134.4 316.46,-131.77 311.08,-131.69 319.47,-129.14 319.47,-129.14"/>
</a>
</g>
</g>
<!-- Node7 -->
<g id="Node000007" class="node">
<title>Node7</title>
<g id="a_Node000007"><a xlink:title=" ">
<polygon fill="#e0e0e0" stroke="#999999" points="171.42,-74 70.42,-74 70.42,-55 171.42,-55 171.42,-74"/>
<text text-anchor="middle" x="120.92" y="-62" font-family="Helvetica,sans-Serif" font-size="10.00">QCoreApplication</text>
</a>
</g>
</g>
<!-- Node2&#45;&gt;Node7 -->
<g id="edge13_Node000002_Node000007" class="edge">
<title>Node2&#45;&gt;Node7</title>
<g id="a_edge13_Node000002_Node000007"><a xlink:title=" ">
<path fill="none" stroke="#63b8ff" d="M83.68,-219.71C72.3,-199.39 47.78,-148.02 65.92,-110 72.32,-96.6 84.94,-85.93 96.48,-78.4"/>
<polygon fill="#63b8ff" stroke="#63b8ff" points="103.46,-74.12 98.52,-81.37 100.05,-76.21 96.64,-78.3 96.64,-78.3 96.64,-78.3 100.05,-76.21 94.76,-75.23 103.46,-74.12 103.46,-74.12"/>
</a>
</g>
</g>
<!-- Node8 -->
<g id="Node000008" class="node">
<title>Node8</title>
<g id="a_Node000008"><a xlink:title=" ">
<polygon fill="#e0e0e0" stroke="#999999" points="467.42,-74 418.42,-74 418.42,-55 467.42,-55 467.42,-74"/>
<text text-anchor="middle" x="442.92" y="-62" font-family="Helvetica,sans-Serif" font-size="10.00">QHash</text>
</a>
</g>
</g>
<!-- Node2&#45;&gt;Node8 -->
<g id="edge14_Node000002_Node000008" class="edge">
<title>Node2&#45;&gt;Node8</title>
<g id="a_edge14_Node000002_Node000008"><a xlink:title=" ">
<path fill="none" stroke="#63b8ff" d="M139.07,-219.99C176.26,-212.78 227.76,-200.91 270.92,-184 317.79,-165.64 328.71,-157.9 369.92,-129 391.39,-113.95 413.82,-93.64 428.05,-80.09"/>
<polygon fill="#63b8ff" stroke="#63b8ff" points="433.99,-74.38 430.72,-82.52 431.1,-77.15 428.22,-79.93 428.22,-79.93 428.22,-79.93 431.1,-77.15 425.73,-77.33 433.99,-74.38 433.99,-74.38"/>
</a>
</g>
</g>
<!-- Node9 -->
<g id="Node000009" class="node">
<title>Node9</title>
<g id="a_Node000009"><a xlink:title=" ">
<polygon fill="#e0e0e0" stroke="#999999" points="150.92,-129 74.92,-129 74.92,-110 150.92,-110 150.92,-129"/>
<text text-anchor="middle" x="112.92" y="-117" font-family="Helvetica,sans-Serif" font-size="10.00">QJsonObject</text>
</a>
</g>
</g>
<!-- Node2&#45;&gt;Node9 -->
<g id="edge15_Node000002_Node000009" class="edge">
<title>Node2&#45;&gt;Node9</title>
<g id="a_edge15_Node000002_Node000009"><a xlink:title=" ">
<path fill="none" stroke="#63b8ff" d="M90.89,-219.66C94.9,-201.61 104.08,-160.28 109.24,-137.08"/>
<polygon fill="#63b8ff" stroke="#63b8ff" points="111,-129.16 112.78,-137.75 110.13,-133.06 109.26,-136.97 109.26,-136.97 109.26,-136.97 110.13,-133.06 105.75,-136.19 111,-129.16 111,-129.16"/>
</a>
</g>
</g>
<!-- Node3&#45;&gt;Node4 -->
<g id="edge3_Node000003_Node000004" class="edge">
<title>Node3&#45;&gt;Node4</title>
<g id="a_edge3_Node000003_Node000004"><a xlink:title=" ">
<path fill="none" stroke="#63b8ff" d="M224.84,-164.98C245.51,-156.15 277.99,-142.27 301.16,-132.36"/>
<polygon fill="#63b8ff" stroke="#63b8ff" points="308.64,-129.17 302.69,-135.62 304.96,-130.74 301.28,-132.31 301.28,-132.31 301.28,-132.31 304.96,-130.74 299.86,-129 308.64,-129.17 308.64,-129.17"/>
</a>
</g>
</g>
<!-- Node3&#45;&gt;Node7 -->
<g id="edge9_Node000003_Node000007" class="edge">
<title>Node3&#45;&gt;Node7</title>
<g id="a_edge9_Node000003_Node000007"><a xlink:title=" ">
<path fill="none" stroke="#63b8ff" d="M218.8,-164.86C236.67,-152.63 263.88,-129.58 249.92,-110 233.84,-87.45 205.55,-76.21 179.55,-70.66"/>
<polygon fill="#63b8ff" stroke="#63b8ff" points="171.57,-69.12 180.11,-67.1 175.49,-69.88 179.42,-70.64 179.42,-70.64 179.42,-70.64 175.49,-69.88 178.74,-74.17 171.57,-69.12 171.57,-69.12"/>
</a>
</g>
</g>
<!-- Node3&#45;&gt;Node9 -->
<g id="edge10_Node000003_Node000009" class="edge">
<title>Node3&#45;&gt;Node9</title>
<g id="a_edge10_Node000003_Node000009"><a xlink:title=" ">
<path fill="none" stroke="#63b8ff" d="M190.14,-164.98C175.34,-156.46 152.38,-143.23 135.33,-133.41"/>
<polygon fill="#63b8ff" stroke="#63b8ff" points="127.97,-129.17 136.7,-130.04 131.44,-131.17 134.9,-133.16 134.9,-133.16 134.9,-133.16 131.44,-131.17 133.11,-136.28 127.97,-129.17 127.97,-129.17"/>
</a>
</g>
</g>
<!-- Node10 -->
<g id="Node000010" class="node">
<title>Node10</title>
<g id="a_Node000010"><a xlink:title=" ">
<polygon fill="#e0e0e0" stroke="#999999" points="240.42,-129 169.42,-129 169.42,-110 240.42,-110 240.42,-129"/>
<text text-anchor="middle" x="204.92" y="-117" font-family="Helvetica,sans-Serif" font-size="10.00">QJsonValue</text>
</a>
</g>
</g>
<!-- Node3&#45;&gt;Node10 -->
<g id="edge11_Node000003_Node000010" class="edge">
<title>Node3&#45;&gt;Node10</title>
<g id="a_edge11_Node000003_Node000010"><a xlink:title=" ">
<path fill="none" stroke="#63b8ff" d="M204.92,-164.75C204.92,-157.26 204.92,-146.28 204.92,-137.13"/>
<polygon fill="#63b8ff" stroke="#63b8ff" points="204.92,-129.09 208.52,-137.09 204.92,-133.09 204.92,-137.09 204.92,-137.09 204.92,-137.09 204.92,-133.09 201.32,-137.09 204.92,-129.09 204.92,-129.09"/>
</a>
</g>
</g>
<!-- Node5 -->
<g id="Node000005" class="node">
<title>Node5</title>
<g id="a_Node000005"><a xlink:href="qtsmithy__global_8h.html" target="_top" xlink:title="Global QtSmithy library macros.">
<polygon fill="white" stroke="#666666" points="392.92,-74 288.92,-74 288.92,-55 392.92,-55 392.92,-74"/>
<text text-anchor="middle" x="340.92" y="-62" font-family="Helvetica,sans-Serif" font-size="10.00">qtsmithy_global.h</text>
</a>
</g>
</g>
<!-- Node4&#45;&gt;Node5 -->
<g id="edge4_Node000004_Node000005" class="edge">
<title>Node4&#45;&gt;Node5</title>
<g id="a_edge4_Node000004_Node000005"><a xlink:title=" ">
<path fill="none" stroke="#63b8ff" d="M330.9,-109.75C332.6,-102.26 335.08,-91.28 337.16,-82.13"/>
<polygon fill="#63b8ff" stroke="#63b8ff" points="338.98,-74.09 340.72,-82.69 338.09,-77.99 337.21,-81.89 337.21,-81.89 337.21,-81.89 338.09,-77.99 333.7,-81.1 338.98,-74.09 338.98,-74.09"/>
</a>
</g>
</g>
<!-- Node6 -->
<g id="Node000006" class="node">
<title>Node6</title>
<g id="a_Node000006"><a xlink:title=" ">
<polygon fill="#e0e0e0" stroke="#999999" points="330.42,-19 271.42,-19 271.42,0 330.42,0 330.42,-19"/>
<text text-anchor="middle" x="300.92" y="-7" font-family="Helvetica,sans-Serif" font-size="10.00">QtGlobal</text>
</a>
</g>
</g>
<!-- Node4&#45;&gt;Node6 -->
<g id="edge6_Node000004_Node000006" class="edge">
<title>Node4&#45;&gt;Node6</title>
<g id="a_edge6_Node000004_Node000006"><a xlink:title=" ">
<path fill="none" stroke="#63b8ff" d="M313.79,-109.73C302.11,-101.99 286.81,-89.55 279.92,-74 272.93,-58.2 281.16,-39.32 289.28,-26.27"/>
<polygon fill="#63b8ff" stroke="#63b8ff" points="293.93,-19.33 292.47,-27.98 291.7,-22.65 289.48,-25.97 289.48,-25.97 289.48,-25.97 291.7,-22.65 286.49,-23.97 293.93,-19.33 293.93,-19.33"/>
</a>
</g>
</g>
<!-- Node4&#45;&gt;Node7 -->
<g id="edge7_Node000004_Node000007" class="edge">
<title>Node4&#45;&gt;Node7</title>
<g id="a_edge7_Node000004_Node000007"><a xlink:title=" ">
<path fill="none" stroke="#63b8ff" d="M296.88,-110.33C260.81,-101.15 202.1,-86.19 162.52,-76.1"/>
<polygon fill="#63b8ff" stroke="#63b8ff" points="154.38,-74.03 163.02,-72.51 158.26,-75.01 162.13,-76 162.13,-76 162.13,-76 158.26,-75.01 161.24,-79.49 154.38,-74.03 154.38,-74.03"/>
</a>
</g>
</g>
<!-- Node4&#45;&gt;Node8 -->
<g id="edge8_Node000004_Node000008" class="edge">
<title>Node4&#45;&gt;Node8</title>
<g id="a_edge8_Node000004_Node000008"><a xlink:title=" ">
<path fill="none" stroke="#63b8ff" d="M347.24,-109.98C366.07,-101.23 395.58,-87.51 416.84,-77.62"/>
<polygon fill="#63b8ff" stroke="#63b8ff" points="424.27,-74.17 418.54,-80.81 420.64,-75.86 417.02,-77.54 417.02,-77.54 417.02,-77.54 420.64,-75.86 415.5,-74.28 424.27,-74.17 424.27,-74.17"/>
</a>
</g>
</g>
<!-- Node5&#45;&gt;Node6 -->
<g id="edge5_Node000005_Node000006" class="edge">
<title>Node5&#45;&gt;Node6</title>
<g id="a_edge5_Node000005_Node000006"><a xlink:title=" ">
<path fill="none" stroke="#63b8ff" d="M334.32,-54.75C328.37,-46.88 319.51,-35.14 312.41,-25.73"/>
<polygon fill="#63b8ff" stroke="#63b8ff" points="307.4,-19.09 315.1,-23.31 309.81,-22.28 312.22,-25.47 312.22,-25.47 312.22,-25.47 309.81,-22.28 309.35,-27.64 307.4,-19.09 307.4,-19.09"/>
</a>
</g>
</g>
<!-- Node11&#45;&gt;Node2 -->
<g id="edge17_Node000011_Node000002" class="edge">
<title>Node11&#45;&gt;Node2</title>
<g id="a_edge17_Node000011_Node000002"><a xlink:title=" ">
<path fill="none" stroke="#63b8ff" d="M178.73,-274.98C161.13,-266.27 133.6,-252.63 113.66,-242.75"/>
<polygon fill="#63b8ff" stroke="#63b8ff" points="106.43,-239.17 115.19,-239.5 110.01,-240.95 113.59,-242.72 113.59,-242.72 113.59,-242.72 110.01,-240.95 112,-245.95 106.43,-239.17 106.43,-239.17"/>
</a>
</g>
</g>
<!-- Node11&#45;&gt;Node4 -->
<g id="edge18_Node000011_Node000004" class="edge">
<title>Node11&#45;&gt;Node4</title>
<g id="a_edge18_Node000011_Node000004"><a xlink:title=" ">
<path fill="none" stroke="#63b8ff" d="M230.29,-276.85C285.14,-266.07 386.85,-245.36 391.92,-239 418.99,-205.09 373.34,-157.81 346.45,-134.56"/>
<polygon fill="#63b8ff" stroke="#63b8ff" points="340.07,-129.18 348.51,-131.58 343.13,-131.76 346.19,-134.34 346.19,-134.34 346.19,-134.34 343.13,-131.76 343.87,-137.09 340.07,-129.18 340.07,-129.18"/>
</a>
</g>
</g>
<!-- Node11&#45;&gt;Node7 -->
<g id="edge19_Node000011_Node000007" class="edge">
<title>Node11&#45;&gt;Node7</title>
<g id="a_edge19_Node000011_Node000007"><a xlink:title=" ">
<path fill="none" stroke="#63b8ff" d="M161.7,-279.34C117.45,-273.18 44.11,-260.04 27.92,-239 6.01,-210.53 -33.42,-239.13 56.92,-110 66.48,-96.34 81.66,-85.52 94.83,-77.97"/>
<polygon fill="#63b8ff" stroke="#63b8ff" points="101.9,-74.12 96.6,-81.11 98.39,-76.04 94.88,-77.95 94.88,-77.95 94.88,-77.95 98.39,-76.04 93.15,-74.79 101.9,-74.12 101.9,-74.12"/>
</a>
</g>
</g>
<!-- Node12 -->
<g id="Node000012" class="node">
<title>Node12</title>
<g id="a_Node000012"><a xlink:title=" ">
<polygon fill="#e0e0e0" stroke="#999999" points="265.42,-239 158.42,-239 158.42,-220 265.42,-220 265.42,-239"/>
<text text-anchor="middle" x="211.92" y="-227" font-family="Helvetica,sans-Serif" font-size="10.00">QLoggingCategory</text>
</a>
</g>
</g>
<!-- Node11&#45;&gt;Node12 -->
<g id="edge20_Node000011_Node000012" class="edge">
<title>Node11&#45;&gt;Node12</title>
<g id="a_edge20_Node000011_Node000012"><a xlink:title=" ">
<path fill="none" stroke="#63b8ff" d="M198.56,-274.75C200.85,-267.18 204.21,-256.05 206.99,-246.84"/>
<polygon fill="#63b8ff" stroke="#63b8ff" points="209.33,-239.09 210.46,-247.79 208.17,-242.92 207.02,-246.75 207.02,-246.75 207.02,-246.75 208.17,-242.92 203.57,-245.71 209.33,-239.09 209.33,-239.09"/>
</a>
</g>
</g>
<!-- Node13 -->
<g id="Node000013" class="node">
<title>Node13</title>
<g id="a_Node000013"><a xlink:title=" ">
<polygon fill="#e0e0e0" stroke="#999999" points="382.42,-239 283.42,-239 283.42,-220 382.42,-220 382.42,-239"/>
<text text-anchor="middle" x="332.92" y="-227" font-family="Helvetica,sans-Serif" font-size="10.00">QVersionNumber</text>
</a>
</g>
</g>
<!-- Node11&#45;&gt;Node13 -->
<g id="edge21_Node000011_Node000013" class="edge">
<title>Node11&#45;&gt;Node13</title>
<g id="a_edge21_Node000011_Node000013"><a xlink:title=" ">
<path fill="none" stroke="#63b8ff" d="M217.93,-274.98C240.96,-266.07 277.27,-252.03 302.92,-242.11"/>
<polygon fill="#63b8ff" stroke="#63b8ff" points="310.51,-239.17 304.35,-245.41 306.78,-240.61 303.05,-242.06 303.05,-242.06 303.05,-242.06 306.78,-240.61 301.75,-238.7 310.51,-239.17 310.51,-239.17"/>
</a>
</g>
</g>
</g>
</svg>
