<?xml version="1.0" encoding="UTF-8" standalone="no"?>
<!DOCTYPE svg PUBLIC "-//W3C//DTD SVG 1.1//EN"
 "http://www.w3.org/Graphics/SVG/1.1/DTD/svg11.dtd">
<!-- Generated by graphviz version 2.43.0 (0)
 -->
<!-- Title: model.cpp Pages: 1 -->
<svg width="440pt" height="357pt"
 viewBox="0.00 0.00 440.08 357.00" xmlns="http://www.w3.org/2000/svg" xmlns:xlink="http://www.w3.org/1999/xlink">
<g id="graph0" class="graph" transform="scale(1 1) rotate(0) translate(4 353)">
<title>model.cpp</title>
<!-- Node1 -->
<g id="node1" class="node">
<title>Node1</title>
<g id="a_node1"><a xlink:title="Defines the Model and ModelPrivate classes.">
<polygon fill="#999999" stroke="#666666" points="330.18,-349 262.18,-349 262.18,-330 330.18,-330 330.18,-349"/>
<text text-anchor="middle" x="296.18" y="-337" font-family="Helvetica,sans-Serif" font-size="10.00">model.cpp</text>
</a>
</g>
</g>
<!-- Node2 -->
<g id="node2" class="node">
<title>Node2</title>
<g id="a_node2"><a xlink:href="model_8h.html" target="_top" xlink:title="Declares the Model class.">
<polygon fill="white" stroke="#666666" points="363.68,-239 260.68,-239 260.68,-220 363.68,-220 363.68,-239"/>
<text text-anchor="middle" x="312.18" y="-227" font-family="Helvetica,sans-Serif" font-size="10.00">qtsmithy/model.h</text>
</a>
</g>
</g>
<!-- Node1&#45;&gt;Node2 -->
<g id="edge1" class="edge">
<title>Node1&#45;&gt;Node2</title>
<path fill="none" stroke="#63b8ff" d="M297.49,-329.66C300.16,-311.61 306.29,-270.28 309.72,-247.08"/>
<polygon fill="#63b8ff" stroke="#63b8ff" points="310.9,-239.16 313.28,-247.6 310.31,-243.12 309.72,-247.07 309.72,-247.07 309.72,-247.07 310.31,-243.12 306.16,-246.54 310.9,-239.16 310.9,-239.16"/>
</g>
<!-- Node12 -->
<g id="node12" class="node">
<title>Node12</title>
<g id="a_node12"><a xlink:href="model__p_8h.html" target="_top" xlink:title="Declares the ModelPrivate class.">
<polygon fill="white" stroke="#666666" points="253.18,-294 185.18,-294 185.18,-275 253.18,-275 253.18,-294"/>
<text text-anchor="middle" x="219.18" y="-282" font-family="Helvetica,sans-Serif" font-size="10.00">model_p.h</text>
</a>
</g>
</g>
<!-- Node1&#45;&gt;Node12 -->
<g id="edge16" class="edge">
<title>Node1&#45;&gt;Node12</title>
<path fill="none" stroke="#63b8ff" d="M283.81,-329.98C271.64,-321.61 252.89,-308.7 238.71,-298.95"/>
<polygon fill="#63b8ff" stroke="#63b8ff" points="231.77,-294.17 240.41,-295.74 235.07,-296.44 238.36,-298.71 238.36,-298.71 238.36,-298.71 235.07,-296.44 236.32,-301.67 231.77,-294.17 231.77,-294.17"/>
</g>
<!-- Node15 -->
<g id="node15" class="node">
<title>Node15</title>
<g id="a_node15"><a xlink:title=" ">
<polygon fill="#e0e0e0" stroke="#999999" points="395.68,-294 324.68,-294 324.68,-275 395.68,-275 395.68,-294"/>
<text text-anchor="middle" x="360.18" y="-282" font-family="Helvetica,sans-Serif" font-size="10.00">QJsonArray</text>
</a>
</g>
</g>
<!-- Node1&#45;&gt;Node15 -->
<g id="edge22" class="edge">
<title>Node1&#45;&gt;Node15</title>
<path fill="none" stroke="#63b8ff" d="M306.46,-329.98C316.39,-321.77 331.59,-309.18 343.29,-299.49"/>
<polygon fill="#63b8ff" stroke="#63b8ff" points="349.71,-294.17 345.84,-302.05 346.63,-296.72 343.55,-299.27 343.55,-299.27 343.55,-299.27 346.63,-296.72 341.25,-296.5 349.71,-294.17 349.71,-294.17"/>
</g>
<!-- Node3 -->
<g id="node3" class="node">
<title>Node3</title>
<g id="a_node3"><a xlink:title=" ">
<polygon fill="#e0e0e0" stroke="#999999" points="413.68,-74 312.68,-74 312.68,-55 413.68,-55 413.68,-74"/>
<text text-anchor="middle" x="363.18" y="-62" font-family="Helvetica,sans-Serif" font-size="10.00">QCoreApplication</text>
</a>
</g>
</g>
<!-- Node2&#45;&gt;Node3 -->
<g id="edge2" class="edge">
<title>Node2&#45;&gt;Node3</title>
<path fill="none" stroke="#63b8ff" d="M333.68,-219.99C349.82,-212.62 371.41,-200.54 385.18,-184 401.92,-163.89 401.43,-154.73 406.18,-129 407.71,-120.7 409.34,-117.83 406.18,-110 401.25,-97.82 391.22,-87.12 382.08,-79.26"/>
<polygon fill="#63b8ff" stroke="#63b8ff" points="375.67,-74.07 384.15,-76.31 378.78,-76.59 381.89,-79.11 381.89,-79.11 381.89,-79.11 378.78,-76.59 379.62,-81.9 375.67,-74.07 375.67,-74.07"/>
</g>
<!-- Node4 -->
<g id="node4" class="node">
<title>Node4</title>
<g id="a_node4"><a xlink:title=" ">
<polygon fill="#e0e0e0" stroke="#999999" points="108.68,-74 59.68,-74 59.68,-55 108.68,-55 108.68,-74"/>
<text text-anchor="middle" x="84.18" y="-62" font-family="Helvetica,sans-Serif" font-size="10.00">QHash</text>
</a>
</g>
</g>
<!-- Node2&#45;&gt;Node4 -->
<g id="edge3" class="edge">
<title>Node2&#45;&gt;Node4</title>
<path fill="none" stroke="#63b8ff" d="M269.47,-219.99C221.49,-208.12 144.89,-181.83 103.18,-129 92.53,-115.52 87.84,-96.16 85.78,-82.37"/>
<polygon fill="#63b8ff" stroke="#63b8ff" points="84.77,-74.23 89.33,-81.73 85.26,-78.2 85.76,-82.17 85.76,-82.17 85.76,-82.17 85.26,-78.2 82.18,-82.61 84.77,-74.23 84.77,-74.23"/>
</g>
<!-- Node5 -->
<g id="node5" class="node">
<title>Node5</title>
<g id="a_node5"><a xlink:title=" ">
<polygon fill="#e0e0e0" stroke="#999999" points="270.18,-129 194.18,-129 194.18,-110 270.18,-110 270.18,-129"/>
<text text-anchor="middle" x="232.18" y="-117" font-family="Helvetica,sans-Serif" font-size="10.00">QJsonObject</text>
</a>
</g>
</g>
<!-- Node2&#45;&gt;Node5 -->
<g id="edge4" class="edge">
<title>Node2&#45;&gt;Node5</title>
<path fill="none" stroke="#63b8ff" d="M286.17,-219.86C269.54,-212.9 249.12,-201.38 238.18,-184 229.37,-170.01 228.8,-150.74 229.85,-137.11"/>
<polygon fill="#63b8ff" stroke="#63b8ff" points="230.7,-129.07 233.43,-137.41 230.28,-133.05 229.85,-137.03 229.85,-137.03 229.85,-137.03 230.28,-133.05 226.27,-136.65 230.7,-129.07 230.7,-129.07"/>
</g>
<!-- Node6 -->
<g id="node6" class="node">
<title>Node6</title>
<g id="a_node6"><a xlink:title=" ">
<polygon fill="#e0e0e0" stroke="#999999" points="303.18,-184 247.18,-184 247.18,-165 303.18,-165 303.18,-184"/>
<text text-anchor="middle" x="275.18" y="-172" font-family="Helvetica,sans-Serif" font-size="10.00">QObject</text>
</a>
</g>
</g>
<!-- Node2&#45;&gt;Node6 -->
<g id="edge5" class="edge">
<title>Node2&#45;&gt;Node6</title>
<path fill="none" stroke="#63b8ff" d="M306.07,-219.75C300.57,-211.88 292.38,-200.14 285.81,-190.73"/>
<polygon fill="#63b8ff" stroke="#63b8ff" points="281.17,-184.09 288.71,-188.59 283.46,-187.37 285.75,-190.65 285.75,-190.65 285.75,-190.65 283.46,-187.37 282.8,-192.71 281.17,-184.09 281.17,-184.09"/>
</g>
<!-- Node7 -->
<g id="node7" class="node">
<title>Node7</title>
<g id="a_node7"><a xlink:href="shape_8h.html" target="_top" xlink:title="Declares the Shape class.">
<polygon fill="white" stroke="#666666" points="376.68,-184 321.68,-184 321.68,-165 376.68,-165 376.68,-184"/>
<text text-anchor="middle" x="349.18" y="-172" font-family="Helvetica,sans-Serif" font-size="10.00">shape.h</text>
</a>
</g>
</g>
<!-- Node2&#45;&gt;Node7 -->
<g id="edge6" class="edge">
<title>Node2&#45;&gt;Node7</title>
<path fill="none" stroke="#63b8ff" d="M318.29,-219.75C323.78,-211.88 331.98,-200.14 338.55,-190.73"/>
<polygon fill="#63b8ff" stroke="#63b8ff" points="343.18,-184.09 341.55,-192.71 340.89,-187.37 338.6,-190.65 338.6,-190.65 338.6,-190.65 340.89,-187.37 335.65,-188.59 343.18,-184.09 343.18,-184.09"/>
</g>
<!-- Node9 -->
<g id="node9" class="node">
<title>Node9</title>
<g id="a_node9"><a xlink:href="shapeid_8h.html" target="_top" xlink:title="Declares the ShapeId class.">
<polygon fill="white" stroke="#666666" points="176.18,-129 112.18,-129 112.18,-110 176.18,-110 176.18,-129"/>
<text text-anchor="middle" x="144.18" y="-117" font-family="Helvetica,sans-Serif" font-size="10.00">shapeid.h</text>
</a>
</g>
</g>
<!-- Node2&#45;&gt;Node9 -->
<g id="edge15" class="edge">
<title>Node2&#45;&gt;Node9</title>
<path fill="none" stroke="#63b8ff" d="M294.01,-219.93C276.67,-211.5 250.03,-197.92 228.18,-184 203.76,-168.44 177.4,-147.83 160.86,-134.37"/>
<polygon fill="#63b8ff" stroke="#63b8ff" points="154.4,-129.08 162.87,-131.37 157.49,-131.62 160.58,-134.15 160.58,-134.15 160.58,-134.15 157.49,-131.62 158.3,-136.94 154.4,-129.08 154.4,-129.08"/>
</g>
<!-- Node7&#45;&gt;Node3 -->
<g id="edge7" class="edge">
<title>Node7&#45;&gt;Node3</title>
<path fill="none" stroke="#63b8ff" d="M339.27,-164.63C327,-152.52 308.7,-130 317.18,-110 322.46,-97.53 333.14,-86.85 342.88,-79.08"/>
<polygon fill="#63b8ff" stroke="#63b8ff" points="349.4,-74.18 345.17,-81.86 346.2,-76.58 343,-78.99 343,-78.99 343,-78.99 346.2,-76.58 340.84,-76.11 349.4,-74.18 349.4,-74.18"/>
</g>
<!-- Node7&#45;&gt;Node5 -->
<g id="edge8" class="edge">
<title>Node7&#45;&gt;Node5</title>
<path fill="none" stroke="#63b8ff" d="M330.38,-164.98C310.96,-156.19 280.5,-142.39 258.65,-132.49"/>
<polygon fill="#63b8ff" stroke="#63b8ff" points="251.32,-129.17 260.09,-129.19 254.96,-130.82 258.61,-132.47 258.61,-132.47 258.61,-132.47 254.96,-130.82 257.12,-135.75 251.32,-129.17 251.32,-129.17"/>
</g>
<!-- Node8 -->
<g id="node8" class="node">
<title>Node8</title>
<g id="a_node8"><a xlink:title=" ">
<polygon fill="#e0e0e0" stroke="#999999" points="397.68,-129 326.68,-129 326.68,-110 397.68,-110 397.68,-129"/>
<text text-anchor="middle" x="362.18" y="-117" font-family="Helvetica,sans-Serif" font-size="10.00">QJsonValue</text>
</a>
</g>
</g>
<!-- Node7&#45;&gt;Node8 -->
<g id="edge9" class="edge">
<title>Node7&#45;&gt;Node8</title>
<path fill="none" stroke="#63b8ff" d="M351.32,-164.75C353.16,-157.26 355.86,-146.28 358.1,-137.13"/>
<polygon fill="#63b8ff" stroke="#63b8ff" points="360.07,-129.09 361.66,-137.72 359.12,-132.97 358.17,-136.86 358.17,-136.86 358.17,-136.86 359.12,-132.97 354.67,-136 360.07,-129.09 360.07,-129.09"/>
</g>
<!-- Node7&#45;&gt;Node9 -->
<g id="edge10" class="edge">
<title>Node7&#45;&gt;Node9</title>
<path fill="none" stroke="#63b8ff" d="M321.53,-166.35C286.18,-157.21 224.72,-141.32 184.24,-130.86"/>
<polygon fill="#63b8ff" stroke="#63b8ff" points="176.44,-128.84 185.09,-127.36 180.31,-129.84 184.19,-130.84 184.19,-130.84 184.19,-130.84 180.31,-129.84 183.28,-134.33 176.44,-128.84 176.44,-128.84"/>
</g>
<!-- Node9&#45;&gt;Node3 -->
<g id="edge13" class="edge">
<title>Node9&#45;&gt;Node3</title>
<path fill="none" stroke="#63b8ff" d="M176.49,-110.68C214.5,-101.48 277.74,-86.18 319.94,-75.96"/>
<polygon fill="#63b8ff" stroke="#63b8ff" points="327.82,-74.06 320.9,-79.44 323.94,-75 320.05,-75.94 320.05,-75.94 320.05,-75.94 323.94,-75 319.2,-72.44 327.82,-74.06 327.82,-74.06"/>
</g>
<!-- Node9&#45;&gt;Node4 -->
<g id="edge14" class="edge">
<title>Node9&#45;&gt;Node4</title>
<path fill="none" stroke="#63b8ff" d="M134.54,-109.98C125.23,-101.77 110.98,-89.18 100.01,-79.49"/>
<polygon fill="#63b8ff" stroke="#63b8ff" points="93.99,-74.17 102.37,-76.77 96.99,-76.82 99.99,-79.47 99.99,-79.47 99.99,-79.47 96.99,-76.82 97.61,-82.16 93.99,-74.17 93.99,-74.17"/>
</g>
<!-- Node10 -->
<g id="node10" class="node">
<title>Node10</title>
<g id="a_node10"><a xlink:href="qtsmithy__global_8h.html" target="_top" xlink:title="Global QtSmithy library macros.">
<polygon fill="white" stroke="#666666" points="231.18,-74 127.18,-74 127.18,-55 231.18,-55 231.18,-74"/>
<text text-anchor="middle" x="179.18" y="-62" font-family="Helvetica,sans-Serif" font-size="10.00">qtsmithy_global.h</text>
</a>
</g>
</g>
<!-- Node9&#45;&gt;Node10 -->
<g id="edge11" class="edge">
<title>Node9&#45;&gt;Node10</title>
<path fill="none" stroke="#63b8ff" d="M149.96,-109.75C155.11,-101.95 162.76,-90.37 168.94,-81"/>
<polygon fill="#63b8ff" stroke="#63b8ff" points="173.51,-74.09 172.1,-82.75 171.3,-77.43 169.1,-80.76 169.1,-80.76 169.1,-80.76 171.3,-77.43 166.09,-78.78 173.51,-74.09 173.51,-74.09"/>
</g>
<!-- Node11 -->
<g id="node11" class="node">
<title>Node11</title>
<g id="a_node11"><a xlink:title=" ">
<polygon fill="#e0e0e0" stroke="#999999" points="208.68,-19 149.68,-19 149.68,0 208.68,0 208.68,-19"/>
<text text-anchor="middle" x="179.18" y="-7" font-family="Helvetica,sans-Serif" font-size="10.00">QtGlobal</text>
</a>
</g>
</g>
<!-- Node10&#45;&gt;Node11 -->
<g id="edge12" class="edge">
<title>Node10&#45;&gt;Node11</title>
<path fill="none" stroke="#63b8ff" d="M179.18,-54.75C179.18,-47.26 179.18,-36.28 179.18,-27.13"/>
<polygon fill="#63b8ff" stroke="#63b8ff" points="179.18,-19.09 182.78,-27.09 179.18,-23.09 179.18,-27.09 179.18,-27.09 179.18,-27.09 179.18,-23.09 175.58,-27.09 179.18,-19.09 179.18,-19.09"/>
</g>
<!-- Node12&#45;&gt;Node2 -->
<g id="edge17" class="edge">
<title>Node12&#45;&gt;Node2</title>
<path fill="none" stroke="#63b8ff" d="M234.12,-274.98C249.22,-266.38 272.71,-252.99 289.99,-243.15"/>
<polygon fill="#63b8ff" stroke="#63b8ff" points="296.96,-239.17 291.8,-246.26 293.49,-241.15 290.01,-243.13 290.01,-243.13 290.01,-243.13 293.49,-241.15 288.23,-240 296.96,-239.17 296.96,-239.17"/>
</g>
<!-- Node12&#45;&gt;Node3 -->
<g id="edge19" class="edge">
<title>Node12&#45;&gt;Node3</title>
<path fill="none" stroke="#63b8ff" d="M253.35,-280.64C286.62,-276.34 337.16,-265.62 372.18,-239 421,-201.88 448.31,-165 421.18,-110 414.37,-96.2 401.01,-85.49 388.82,-78.04"/>
<polygon fill="#63b8ff" stroke="#63b8ff" points="381.84,-74.03 390.57,-74.9 385.31,-76.03 388.78,-78.02 388.78,-78.02 388.78,-78.02 385.31,-76.03 386.99,-81.14 381.84,-74.03 381.84,-74.03"/>
</g>
<!-- Node12&#45;&gt;Node9 -->
<g id="edge18" class="edge">
<title>Node12&#45;&gt;Node9</title>
<path fill="none" stroke="#63b8ff" d="M185.12,-281.34C131.43,-277.16 30.94,-265.86 9.18,-239 -27.44,-193.81 60.97,-151.56 111.65,-131.96"/>
<polygon fill="#63b8ff" stroke="#63b8ff" points="119.44,-129.01 113.23,-135.21 115.7,-130.43 111.96,-131.85 111.96,-131.85 111.96,-131.85 115.7,-130.43 110.68,-128.48 119.44,-129.01 119.44,-129.01"/>
</g>
<!-- Node13 -->
<g id="node13" class="node">
<title>Node13</title>
<g id="a_node13"><a xlink:title=" ">
<polygon fill="#e0e0e0" stroke="#999999" points="242.68,-239 135.68,-239 135.68,-220 242.68,-220 242.68,-239"/>
<text text-anchor="middle" x="189.18" y="-227" font-family="Helvetica,sans-Serif" font-size="10.00">QLoggingCategory</text>
</a>
</g>
</g>
<!-- Node12&#45;&gt;Node13 -->
<g id="edge20" class="edge">
<title>Node12&#45;&gt;Node13</title>
<path fill="none" stroke="#63b8ff" d="M214.22,-274.75C209.86,-267.03 203.38,-255.6 198.11,-246.28"/>
<polygon fill="#63b8ff" stroke="#63b8ff" points="194.04,-239.09 201.11,-244.28 196.01,-242.57 197.98,-246.05 197.98,-246.05 197.98,-246.05 196.01,-242.57 194.85,-247.82 194.04,-239.09 194.04,-239.09"/>
</g>
<!-- Node14 -->
<g id="node14" class="node">
<title>Node14</title>
<g id="a_node14"><a xlink:title=" ">
<polygon fill="#e0e0e0" stroke="#999999" points="117.68,-239 18.68,-239 18.68,-220 117.68,-220 117.68,-239"/>
<text text-anchor="middle" x="68.18" y="-227" font-family="Helvetica,sans-Serif" font-size="10.00">QVersionNumber</text>
</a>
</g>
</g>
<!-- Node12&#45;&gt;Node14 -->
<g id="edge21" class="edge">
<title>Node12&#45;&gt;Node14</title>
<path fill="none" stroke="#63b8ff" d="M194.92,-274.98C169.31,-266 128.82,-251.79 100.52,-241.85"/>
<polygon fill="#63b8ff" stroke="#63b8ff" points="92.88,-239.17 101.62,-238.42 96.65,-240.5 100.43,-241.82 100.43,-241.82 100.43,-241.82 96.65,-240.5 99.24,-245.22 92.88,-239.17 92.88,-239.17"/>
</g>
</g>
</svg>
