<?xml version="1.0" encoding="UTF-8" standalone="no"?>
<!DOCTYPE svg PUBLIC "-//W3C//DTD SVG 1.1//EN"
 "http://www.w3.org/Graphics/SVG/1.1/DTD/svg11.dtd">
<!-- Generated by graphviz version 2.43.0 (0)
 -->
<!-- Title: model.h Pages: 1 -->
<svg width="448pt" height="247pt"
 viewBox="0.00 0.00 447.50 247.00" xmlns="http://www.w3.org/2000/svg" xmlns:xlink="http://www.w3.org/1999/xlink">
<g id="graph0" class="graph" transform="scale(1 1) rotate(0) translate(4 243)">
<title>model.h</title>
<!-- Node1 -->
<g id="Node000001" class="node">
<title>Node1</title>
<g id="a_Node000001"><a xlink:title="Declares the Model class.">
<polygon fill="#999999" stroke="#666666" points="376,-239 320,-239 320,-220 376,-220 376,-239"/>
<text text-anchor="middle" x="348" y="-227" font-family="Helvetica,sans-Serif" font-size="10.00">model.h</text>
</a>
</g>
</g>
<!-- Node2 -->
<g id="Node000002" class="node">
<title>Node2</title>
<g id="a_Node000002"><a xlink:href="shape_8h.html" target="_top" xlink:title="Declares the Shape class.">
<polygon fill="white" stroke="#666666" points="283.5,-184 228.5,-184 228.5,-165 283.5,-165 283.5,-184"/>
<text text-anchor="middle" x="256" y="-172" font-family="Helvetica,sans-Serif" font-size="10.00">shape.h</text>
</a>
</g>
</g>
<!-- Node1&#45;&gt;Node2 -->
<g id="edge1_Node000001_Node000002" class="edge">
<title>Node1&#45;&gt;Node2</title>
<g id="a_edge1_Node000001_Node000002"><a xlink:title=" ">
<path fill="none" stroke="#63b8ff" d="M333.22,-219.98C318.42,-211.46 295.46,-198.23 278.41,-188.41"/>
<polygon fill="#63b8ff" stroke="#63b8ff" points="271.05,-184.17 279.78,-185.04 274.52,-186.17 277.98,-188.16 277.98,-188.16 277.98,-188.16 274.52,-186.17 276.19,-191.28 271.05,-184.17 271.05,-184.17"/>
</a>
</g>
</g>
<!-- Node3 -->
<g id="Node000003" class="node">
<title>Node3</title>
<g id="a_Node000003"><a xlink:href="shapeid_8h.html" target="_top" xlink:title="Declares the ShapeId class.">
<polygon fill="white" stroke="#666666" points="164,-129 100,-129 100,-110 164,-110 164,-129"/>
<text text-anchor="middle" x="132" y="-117" font-family="Helvetica,sans-Serif" font-size="10.00">shapeid.h</text>
</a>
</g>
</g>
<!-- Node1&#45;&gt;Node3 -->
<g id="edge11_Node000001_Node000003" class="edge">
<title>Node1&#45;&gt;Node3</title>
<g id="a_edge11_Node000001_Node000003"><a xlink:title=" ">
<path fill="none" stroke="#63b8ff" d="M319.84,-221.41C293.02,-214.06 251.97,-201.22 219,-184 192.46,-170.14 165.08,-148.77 148.3,-134.72"/>
<polygon fill="#63b8ff" stroke="#63b8ff" points="141.79,-129.18 150.22,-131.62 144.84,-131.77 147.88,-134.36 147.88,-134.36 147.88,-134.36 144.84,-131.77 145.55,-137.11 141.79,-129.18 141.79,-129.18"/>
</a>
</g>
</g>
<!-- Node6 -->
<g id="Node000006" class="node">
<title>Node6</title>
<g id="a_Node000006"><a xlink:title=" ">
<polygon fill="#e0e0e0" stroke="#999999" points="261.5,-74 160.5,-74 160.5,-55 261.5,-55 261.5,-74"/>
<text text-anchor="middle" x="211" y="-62" font-family="Helvetica,sans-Serif" font-size="10.00">QCoreApplication</text>
</a>
</g>
</g>
<!-- Node1&#45;&gt;Node6 -->
<g id="edge12_Node000001_Node000006" class="edge">
<title>Node1&#45;&gt;Node6</title>
<g id="a_edge12_Node000001_Node000006"><a xlink:title=" ">
<path fill="none" stroke="#63b8ff" d="M356.78,-219.91C376.95,-199.13 422.79,-145.31 395,-110 379.58,-90.41 317.81,-78.41 270.04,-71.88"/>
<polygon fill="#63b8ff" stroke="#63b8ff" points="261.9,-70.81 270.31,-68.29 265.87,-71.33 269.83,-71.86 269.83,-71.86 269.83,-71.86 265.87,-71.33 269.36,-75.42 261.9,-70.81 261.9,-70.81"/>
</a>
</g>
</g>
<!-- Node7 -->
<g id="Node000007" class="node">
<title>Node7</title>
<g id="a_Node000007"><a xlink:title=" ">
<polygon fill="#e0e0e0" stroke="#999999" points="402.5,-74 353.5,-74 353.5,-55 402.5,-55 402.5,-74"/>
<text text-anchor="middle" x="378" y="-62" font-family="Helvetica,sans-Serif" font-size="10.00">QHash</text>
</a>
</g>
</g>
<!-- Node1&#45;&gt;Node7 -->
<g id="edge13_Node000001_Node000007" class="edge">
<title>Node1&#45;&gt;Node7</title>
<g id="a_edge13_Node000001_Node000007"><a xlink:title=" ">
<path fill="none" stroke="#63b8ff" d="M376.24,-220.9C394.5,-214.36 416.88,-202.91 428,-184 444.67,-155.65 441.46,-140.01 428,-110 422.22,-97.13 410.68,-86.46 400.14,-78.79"/>
<polygon fill="#63b8ff" stroke="#63b8ff" points="393.43,-74.2 402.06,-75.75 396.73,-76.46 400.03,-78.72 400.03,-78.72 400.03,-78.72 396.73,-76.46 398,-81.69 393.43,-74.2 393.43,-74.2"/>
</a>
</g>
</g>
<!-- Node8 -->
<g id="Node000008" class="node">
<title>Node8</title>
<g id="a_Node000008"><a xlink:title=" ">
<polygon fill="#e0e0e0" stroke="#999999" points="386,-129 310,-129 310,-110 386,-110 386,-129"/>
<text text-anchor="middle" x="348" y="-117" font-family="Helvetica,sans-Serif" font-size="10.00">QJsonObject</text>
</a>
</g>
</g>
<!-- Node1&#45;&gt;Node8 -->
<g id="edge14_Node000001_Node000008" class="edge">
<title>Node1&#45;&gt;Node8</title>
<g id="a_edge14_Node000001_Node000008"><a xlink:title=" ">
<path fill="none" stroke="#63b8ff" d="M348,-219.66C348,-201.69 348,-160.64 348,-137.38"/>
<polygon fill="#63b8ff" stroke="#63b8ff" points="348,-129.16 351.6,-137.16 348,-133.16 348,-137.16 348,-137.16 348,-137.16 348,-133.16 344.4,-137.16 348,-129.16 348,-129.16"/>
</a>
</g>
</g>
<!-- Node2&#45;&gt;Node3 -->
<g id="edge2_Node000002_Node000003" class="edge">
<title>Node2&#45;&gt;Node3</title>
<g id="a_edge2_Node000002_Node000003"><a xlink:title=" ">
<path fill="none" stroke="#63b8ff" d="M236.08,-164.98C215.41,-156.15 182.93,-142.27 159.76,-132.36"/>
<polygon fill="#63b8ff" stroke="#63b8ff" points="152.29,-129.17 161.06,-129 155.96,-130.74 159.64,-132.31 159.64,-132.31 159.64,-132.31 155.96,-130.74 158.23,-135.62 152.29,-129.17 152.29,-129.17"/>
</a>
</g>
</g>
<!-- Node2&#45;&gt;Node6 -->
<g id="edge8_Node000002_Node000006" class="edge">
<title>Node2&#45;&gt;Node6</title>
<g id="a_edge8_Node000002_Node000006"><a xlink:title=" ">
<path fill="none" stroke="#63b8ff" d="M242.51,-164.75C231.71,-156.87 217.35,-144.21 211,-129 204.79,-114.12 205.67,-95.52 207.58,-82.3"/>
<polygon fill="#63b8ff" stroke="#63b8ff" points="208.98,-74.12 211.17,-82.62 208.3,-78.07 207.63,-82.01 207.63,-82.01 207.63,-82.01 208.3,-78.07 204.08,-81.4 208.98,-74.12 208.98,-74.12"/>
</a>
</g>
</g>
<!-- Node2&#45;&gt;Node8 -->
<g id="edge9_Node000002_Node000008" class="edge">
<title>Node2&#45;&gt;Node8</title>
<g id="a_edge9_Node000002_Node000008"><a xlink:title=" ">
<path fill="none" stroke="#63b8ff" d="M270.78,-164.98C285.58,-156.46 308.54,-143.23 325.59,-133.41"/>
<polygon fill="#63b8ff" stroke="#63b8ff" points="332.95,-129.17 327.81,-136.28 329.48,-131.17 326.02,-133.16 326.02,-133.16 326.02,-133.16 329.48,-131.17 324.22,-130.04 332.95,-129.17 332.95,-129.17"/>
</a>
</g>
</g>
<!-- Node9 -->
<g id="Node000009" class="node">
<title>Node9</title>
<g id="a_Node000009"><a xlink:title=" ">
<polygon fill="#e0e0e0" stroke="#999999" points="291.5,-129 220.5,-129 220.5,-110 291.5,-110 291.5,-129"/>
<text text-anchor="middle" x="256" y="-117" font-family="Helvetica,sans-Serif" font-size="10.00">QJsonValue</text>
</a>
</g>
</g>
<!-- Node2&#45;&gt;Node9 -->
<g id="edge10_Node000002_Node000009" class="edge">
<title>Node2&#45;&gt;Node9</title>
<g id="a_edge10_Node000002_Node000009"><a xlink:title=" ">
<path fill="none" stroke="#63b8ff" d="M256,-164.75C256,-157.26 256,-146.28 256,-137.13"/>
<polygon fill="#63b8ff" stroke="#63b8ff" points="256,-129.09 259.6,-137.09 256,-133.09 256,-137.09 256,-137.09 256,-137.09 256,-133.09 252.4,-137.09 256,-129.09 256,-129.09"/>
</a>
</g>
</g>
<!-- Node4 -->
<g id="Node000004" class="node">
<title>Node4</title>
<g id="a_Node000004"><a xlink:href="qtsmithy__global_8h.html" target="_top" xlink:title="Global QtSmithy library macros.">
<polygon fill="white" stroke="#666666" points="104,-74 0,-74 0,-55 104,-55 104,-74"/>
<text text-anchor="middle" x="52" y="-62" font-family="Helvetica,sans-Serif" font-size="10.00">qtsmithy_global.h</text>
</a>
</g>
</g>
<!-- Node3&#45;&gt;Node4 -->
<g id="edge3_Node000003_Node000004" class="edge">
<title>Node3&#45;&gt;Node4</title>
<g id="a_edge3_Node000003_Node000004"><a xlink:title=" ">
<path fill="none" stroke="#63b8ff" d="M119.15,-109.98C106.39,-101.54 86.67,-88.47 71.89,-78.68"/>
<polygon fill="#63b8ff" stroke="#63b8ff" points="65.09,-74.17 73.74,-75.59 68.42,-76.38 71.76,-78.59 71.76,-78.59 71.76,-78.59 68.42,-76.38 69.77,-81.59 65.09,-74.17 65.09,-74.17"/>
</a>
</g>
</g>
<!-- Node5 -->
<g id="Node000005" class="node">
<title>Node5</title>
<g id="a_Node000005"><a xlink:title=" ">
<polygon fill="#e0e0e0" stroke="#999999" points="121.5,-19 62.5,-19 62.5,0 121.5,0 121.5,-19"/>
<text text-anchor="middle" x="92" y="-7" font-family="Helvetica,sans-Serif" font-size="10.00">QtGlobal</text>
</a>
</g>
</g>
<!-- Node3&#45;&gt;Node5 -->
<g id="edge5_Node000003_Node000005" class="edge">
<title>Node3&#45;&gt;Node5</title>
<g id="a_edge5_Node000003_Node000005"><a xlink:title=" ">
<path fill="none" stroke="#63b8ff" d="M129.82,-109.73C126.65,-97.36 120.33,-74.13 113,-55 109.29,-45.33 104.39,-34.83 100.25,-26.47"/>
<polygon fill="#63b8ff" stroke="#63b8ff" points="96.58,-19.2 103.4,-24.72 98.38,-22.77 100.18,-26.34 100.18,-26.34 100.18,-26.34 98.38,-22.77 96.97,-27.96 96.58,-19.2 96.58,-19.2"/>
</a>
</g>
</g>
<!-- Node3&#45;&gt;Node6 -->
<g id="edge6_Node000003_Node000006" class="edge">
<title>Node3&#45;&gt;Node6</title>
<g id="a_edge6_Node000003_Node000006"><a xlink:title=" ">
<path fill="none" stroke="#63b8ff" d="M144.69,-109.98C157.29,-101.54 176.77,-88.47 191.36,-78.68"/>
<polygon fill="#63b8ff" stroke="#63b8ff" points="198.08,-74.17 193.44,-81.62 194.75,-76.4 191.43,-78.63 191.43,-78.63 191.43,-78.63 194.75,-76.4 189.43,-75.64 198.08,-74.17 198.08,-74.17"/>
</a>
</g>
</g>
<!-- Node3&#45;&gt;Node7 -->
<g id="edge7_Node000003_Node000007" class="edge">
<title>Node3&#45;&gt;Node7</title>
<g id="a_edge7_Node000003_Node000007"><a xlink:title=" ">
<path fill="none" stroke="#63b8ff" d="M164.16,-111.57C211.09,-101.46 297.89,-82.76 345.19,-72.57"/>
<polygon fill="#63b8ff" stroke="#63b8ff" points="353.26,-70.83 346.2,-76.03 349.35,-71.67 345.44,-72.51 345.44,-72.51 345.44,-72.51 349.35,-71.67 344.69,-68.99 353.26,-70.83 353.26,-70.83"/>
</a>
</g>
</g>
<!-- Node4&#45;&gt;Node5 -->
<g id="edge4_Node000004_Node000005" class="edge">
<title>Node4&#45;&gt;Node5</title>
<g id="a_edge4_Node000004_Node000005"><a xlink:title=" ">
<path fill="none" stroke="#63b8ff" d="M58.61,-54.75C64.55,-46.88 73.41,-35.14 80.51,-25.73"/>
<polygon fill="#63b8ff" stroke="#63b8ff" points="85.52,-19.09 83.57,-27.64 83.11,-22.28 80.7,-25.47 80.7,-25.47 80.7,-25.47 83.11,-22.28 77.82,-23.31 85.52,-19.09 85.52,-19.09"/>
</a>
</g>
</g>
</g>
</svg>
