<?xml version="1.0" encoding="UTF-8" standalone="no"?>
<!DOCTYPE svg PUBLIC "-//W3C//DTD SVG 1.1//EN"
 "http://www.w3.org/Graphics/SVG/1.1/DTD/svg11.dtd">
<!-- Generated by graphviz version 2.43.0 (0)
 -->
<!-- Title: model_p.h Pages: 1 -->
<svg width="585pt" height="302pt"
 viewBox="0.00 0.00 585.44 302.00" xmlns="http://www.w3.org/2000/svg" xmlns:xlink="http://www.w3.org/1999/xlink">
<g id="graph0" class="graph" transform="scale(1 1) rotate(0) translate(4 298)">
<title>model_p.h</title>
<!-- Node1 -->
<g id="Node000001" class="node">
<title>Node1</title>
<g id="a_Node000001"><a xlink:title="Declares the ModelPrivate class.">
<polygon fill="#999999" stroke="#666666" points="358.94,-294 290.94,-294 290.94,-275 358.94,-275 358.94,-294"/>
<text text-anchor="middle" x="324.94" y="-282" font-family="Helvetica,sans-Serif" font-size="10.00">model_p.h</text>
</a>
</g>
</g>
<!-- Node2 -->
<g id="Node000002" class="node">
<title>Node2</title>
<g id="a_Node000002"><a xlink:href="model_8h.html" target="_top" xlink:title="Declares the Model class.">
<polygon fill="white" stroke="#666666" points="270.44,-239 167.44,-239 167.44,-220 270.44,-220 270.44,-239"/>
<text text-anchor="middle" x="218.94" y="-227" font-family="Helvetica,sans-Serif" font-size="10.00">qtsmithy/model.h</text>
</a>
</g>
</g>
<!-- Node1&#45;&gt;Node2 -->
<g id="edge1_Node000001_Node000002" class="edge">
<title>Node1&#45;&gt;Node2</title>
<g id="a_edge1_Node000001_Node000002"><a xlink:title=" ">
<path fill="none" stroke="#63b8ff" d="M307.91,-274.98C290.47,-266.27 263.2,-252.63 243.45,-242.75"/>
<polygon fill="#63b8ff" stroke="#63b8ff" points="236.28,-239.17 245.04,-239.53 239.86,-240.96 243.43,-242.75 243.43,-242.75 243.43,-242.75 239.86,-240.96 241.82,-245.97 236.28,-239.17 236.28,-239.17"/>
</a>
</g>
</g>
<!-- Node4 -->
<g id="Node000004" class="node">
<title>Node4</title>
<g id="a_Node000004"><a xlink:href="shapeid_8h.html" target="_top" xlink:title="Declares the ShapeId class.">
<polygon fill="white" stroke="#666666" points="344.94,-129 280.94,-129 280.94,-110 344.94,-110 344.94,-129"/>
<text text-anchor="middle" x="312.94" y="-117" font-family="Helvetica,sans-Serif" font-size="10.00">shapeid.h</text>
</a>
</g>
</g>
<!-- Node1&#45;&gt;Node4 -->
<g id="edge16_Node000001_Node000004" class="edge">
<title>Node1&#45;&gt;Node4</title>
<g id="a_edge16_Node000001_Node000004"><a xlink:title=" ">
<path fill="none" stroke="#63b8ff" d="M324.29,-274.74C322.38,-248.76 316.72,-171.83 314.18,-137.44"/>
<polygon fill="#63b8ff" stroke="#63b8ff" points="313.59,-129.31 317.76,-137.02 313.88,-133.3 314.17,-137.29 314.17,-137.29 314.17,-137.29 313.88,-133.3 310.58,-137.55 313.59,-129.31 313.59,-129.31"/>
</a>
</g>
</g>
<!-- Node7 -->
<g id="Node000007" class="node">
<title>Node7</title>
<g id="a_Node000007"><a xlink:title=" ">
<polygon fill="#e0e0e0" stroke="#999999" points="109.44,-74 8.44,-74 8.44,-55 109.44,-55 109.44,-74"/>
<text text-anchor="middle" x="58.94" y="-62" font-family="Helvetica,sans-Serif" font-size="10.00">QCoreApplication</text>
</a>
</g>
</g>
<!-- Node1&#45;&gt;Node7 -->
<g id="edge17_Node000001_Node000007" class="edge">
<title>Node1&#45;&gt;Node7</title>
<g id="a_edge17_Node000001_Node000007"><a xlink:title=" ">
<path fill="none" stroke="#63b8ff" d="M290.81,-279.33C233.72,-270.77 117.85,-246.48 43.94,-184 15.55,-160 -10.92,-143.62 4.94,-110 11.25,-96.63 23.77,-85.91 35.16,-78.35"/>
<polygon fill="#63b8ff" stroke="#63b8ff" points="42.05,-74.05 37.17,-81.34 38.66,-76.17 35.26,-78.28 35.26,-78.28 35.26,-78.28 38.66,-76.17 33.36,-75.23 42.05,-74.05 42.05,-74.05"/>
</a>
</g>
</g>
<!-- Node11 -->
<g id="Node000011" class="node">
<title>Node11</title>
<g id="a_Node000011"><a xlink:title=" ">
<polygon fill="#e0e0e0" stroke="#999999" points="460.44,-239 353.44,-239 353.44,-220 460.44,-220 460.44,-239"/>
<text text-anchor="middle" x="406.94" y="-227" font-family="Helvetica,sans-Serif" font-size="10.00">QLoggingCategory</text>
</a>
</g>
</g>
<!-- Node1&#45;&gt;Node11 -->
<g id="edge18_Node000001_Node000011" class="edge">
<title>Node1&#45;&gt;Node11</title>
<g id="a_edge18_Node000001_Node000011"><a xlink:title=" ">
<path fill="none" stroke="#63b8ff" d="M338.11,-274.98C351.18,-266.54 371.4,-253.47 386.55,-243.68"/>
<polygon fill="#63b8ff" stroke="#63b8ff" points="393.52,-239.17 388.76,-246.54 390.16,-241.34 386.8,-243.51 386.8,-243.51 386.8,-243.51 390.16,-241.34 384.85,-240.49 393.52,-239.17 393.52,-239.17"/>
</a>
</g>
</g>
<!-- Node12 -->
<g id="Node000012" class="node">
<title>Node12</title>
<g id="a_Node000012"><a xlink:title=" ">
<polygon fill="#e0e0e0" stroke="#999999" points="577.44,-239 478.44,-239 478.44,-220 577.44,-220 577.44,-239"/>
<text text-anchor="middle" x="527.94" y="-227" font-family="Helvetica,sans-Serif" font-size="10.00">QVersionNumber</text>
</a>
</g>
</g>
<!-- Node1&#45;&gt;Node12 -->
<g id="edge19_Node000001_Node000012" class="edge">
<title>Node1&#45;&gt;Node12</title>
<g id="a_edge19_Node000001_Node000012"><a xlink:title=" ">
<path fill="none" stroke="#63b8ff" d="M357.55,-274.98C392.81,-265.78 449.08,-251.09 487.22,-241.13"/>
<polygon fill="#63b8ff" stroke="#63b8ff" points="495.07,-239.08 488.24,-244.59 491.2,-240.09 487.33,-241.1 487.33,-241.1 487.33,-241.1 491.2,-240.09 486.42,-237.62 495.07,-239.08 495.07,-239.08"/>
</a>
</g>
</g>
<!-- Node3 -->
<g id="Node000003" class="node">
<title>Node3</title>
<g id="a_Node000003"><a xlink:href="shape_8h.html" target="_top" xlink:title="Declares the Shape class.">
<polygon fill="white" stroke="#666666" points="216.44,-184 161.44,-184 161.44,-165 216.44,-165 216.44,-184"/>
<text text-anchor="middle" x="188.94" y="-172" font-family="Helvetica,sans-Serif" font-size="10.00">shape.h</text>
</a>
</g>
</g>
<!-- Node2&#45;&gt;Node3 -->
<g id="edge2_Node000002_Node000003" class="edge">
<title>Node2&#45;&gt;Node3</title>
<g id="a_edge2_Node000002_Node000003"><a xlink:title=" ">
<path fill="none" stroke="#63b8ff" d="M213.98,-219.75C209.62,-212.03 203.14,-200.6 197.87,-191.28"/>
<polygon fill="#63b8ff" stroke="#63b8ff" points="193.8,-184.09 200.87,-189.28 195.77,-187.57 197.74,-191.05 197.74,-191.05 197.74,-191.05 195.77,-187.57 194.61,-192.82 193.8,-184.09 193.8,-184.09"/>
</a>
</g>
</g>
<!-- Node2&#45;&gt;Node4 -->
<g id="edge12_Node000002_Node000004" class="edge">
<title>Node2&#45;&gt;Node4</title>
<g id="a_edge12_Node000002_Node000004"><a xlink:title=" ">
<path fill="none" stroke="#63b8ff" d="M228.01,-219.92C237.12,-211.16 251.43,-197.03 262.94,-184 276.89,-168.2 291.68,-149.09 301.52,-135.98"/>
<polygon fill="#63b8ff" stroke="#63b8ff" points="306.45,-129.38 304.55,-137.94 304.05,-132.59 301.66,-135.79 301.66,-135.79 301.66,-135.79 304.05,-132.59 298.78,-133.64 306.45,-129.38 306.45,-129.38"/>
</a>
</g>
</g>
<!-- Node2&#45;&gt;Node7 -->
<g id="edge13_Node000002_Node000007" class="edge">
<title>Node2&#45;&gt;Node7</title>
<g id="a_edge13_Node000002_Node000007"><a xlink:title=" ">
<path fill="none" stroke="#63b8ff" d="M168.1,-219.99C118.48,-208.68 45.68,-183.38 11.94,-129 0.64,-110.79 20.64,-91.15 37.95,-78.61"/>
<polygon fill="#63b8ff" stroke="#63b8ff" points="44.62,-74.02 40.07,-81.52 41.32,-76.29 38.03,-78.56 38.03,-78.56 38.03,-78.56 41.32,-76.29 35.99,-75.59 44.62,-74.02 44.62,-74.02"/>
</a>
</g>
</g>
<!-- Node8 -->
<g id="Node000008" class="node">
<title>Node8</title>
<g id="a_Node000008"><a xlink:title=" ">
<polygon fill="#e0e0e0" stroke="#999999" points="279.44,-74 230.44,-74 230.44,-55 279.44,-55 279.44,-74"/>
<text text-anchor="middle" x="254.94" y="-62" font-family="Helvetica,sans-Serif" font-size="10.00">QHash</text>
</a>
</g>
</g>
<!-- Node2&#45;&gt;Node8 -->
<g id="edge14_Node000002_Node000008" class="edge">
<title>Node2&#45;&gt;Node8</title>
<g id="a_edge14_Node000002_Node000008"><a xlink:title=" ">
<path fill="none" stroke="#63b8ff" d="M220.87,-219.74C226.61,-193.76 243.6,-116.83 251.2,-82.44"/>
<polygon fill="#63b8ff" stroke="#63b8ff" points="252.99,-74.31 254.78,-82.9 252.13,-78.21 251.27,-82.12 251.27,-82.12 251.27,-82.12 252.13,-78.21 247.75,-81.34 252.99,-74.31 252.99,-74.31"/>
</a>
</g>
</g>
<!-- Node9 -->
<g id="Node000009" class="node">
<title>Node9</title>
<g id="a_Node000009"><a xlink:title=" ">
<polygon fill="#e0e0e0" stroke="#999999" points="96.94,-129 20.94,-129 20.94,-110 96.94,-110 96.94,-129"/>
<text text-anchor="middle" x="58.94" y="-117" font-family="Helvetica,sans-Serif" font-size="10.00">QJsonObject</text>
</a>
</g>
</g>
<!-- Node2&#45;&gt;Node9 -->
<g id="edge15_Node000002_Node000009" class="edge">
<title>Node2&#45;&gt;Node9</title>
<g id="a_edge15_Node000002_Node000009"><a xlink:title=" ">
<path fill="none" stroke="#63b8ff" d="M205.56,-219.68C192.01,-210.74 170.47,-196.48 151.94,-184 126.46,-166.84 97.22,-146.82 78.43,-133.92"/>
<polygon fill="#63b8ff" stroke="#63b8ff" points="71.54,-129.18 80.17,-130.74 74.83,-131.44 78.13,-133.71 78.13,-133.71 78.13,-133.71 74.83,-131.44 76.09,-136.68 71.54,-129.18 71.54,-129.18"/>
</a>
</g>
</g>
<!-- Node3&#45;&gt;Node4 -->
<g id="edge3_Node000003_Node000004" class="edge">
<title>Node3&#45;&gt;Node4</title>
<g id="a_edge3_Node000003_Node000004"><a xlink:title=" ">
<path fill="none" stroke="#63b8ff" d="M208.86,-164.98C229.53,-156.15 262,-142.27 285.18,-132.36"/>
<polygon fill="#63b8ff" stroke="#63b8ff" points="292.65,-129.17 286.71,-135.62 288.97,-130.74 285.3,-132.31 285.3,-132.31 285.3,-132.31 288.97,-130.74 283.88,-129 292.65,-129.17 292.65,-129.17"/>
</a>
</g>
</g>
<!-- Node3&#45;&gt;Node7 -->
<g id="edge9_Node000003_Node000007" class="edge">
<title>Node3&#45;&gt;Node7</title>
<g id="a_edge9_Node000003_Node000007"><a xlink:title=" ">
<path fill="none" stroke="#63b8ff" d="M178.3,-164.66C155.71,-145.9 102.83,-101.96 75.67,-79.4"/>
<polygon fill="#63b8ff" stroke="#63b8ff" points="69.36,-74.16 77.81,-76.5 72.44,-76.71 75.51,-79.27 75.51,-79.27 75.51,-79.27 72.44,-76.71 73.21,-82.04 69.36,-74.16 69.36,-74.16"/>
</a>
</g>
</g>
<!-- Node3&#45;&gt;Node9 -->
<g id="edge10_Node000003_Node000009" class="edge">
<title>Node3&#45;&gt;Node9</title>
<g id="a_edge10_Node000003_Node000009"><a xlink:title=" ">
<path fill="none" stroke="#63b8ff" d="M168.05,-164.98C146.29,-156.11 112.04,-142.15 87.72,-132.24"/>
<polygon fill="#63b8ff" stroke="#63b8ff" points="80.2,-129.17 88.97,-128.86 83.91,-130.68 87.61,-132.19 87.61,-132.19 87.61,-132.19 83.91,-130.68 86.25,-135.52 80.2,-129.17 80.2,-129.17"/>
</a>
</g>
</g>
<!-- Node10 -->
<g id="Node000010" class="node">
<title>Node10</title>
<g id="a_Node000010"><a xlink:title=" ">
<polygon fill="#e0e0e0" stroke="#999999" points="224.44,-129 153.44,-129 153.44,-110 224.44,-110 224.44,-129"/>
<text text-anchor="middle" x="188.94" y="-117" font-family="Helvetica,sans-Serif" font-size="10.00">QJsonValue</text>
</a>
</g>
</g>
<!-- Node3&#45;&gt;Node10 -->
<g id="edge11_Node000003_Node000010" class="edge">
<title>Node3&#45;&gt;Node10</title>
<g id="a_edge11_Node000003_Node000010"><a xlink:title=" ">
<path fill="none" stroke="#63b8ff" d="M188.94,-164.75C188.94,-157.26 188.94,-146.28 188.94,-137.13"/>
<polygon fill="#63b8ff" stroke="#63b8ff" points="188.94,-129.09 192.54,-137.09 188.94,-133.09 188.94,-137.09 188.94,-137.09 188.94,-137.09 188.94,-133.09 185.34,-137.09 188.94,-129.09 188.94,-129.09"/>
</a>
</g>
</g>
<!-- Node5 -->
<g id="Node000005" class="node">
<title>Node5</title>
<g id="a_Node000005"><a xlink:href="qtsmithy__global_8h.html" target="_top" xlink:title="Global QtSmithy library macros.">
<polygon fill="white" stroke="#666666" points="442.94,-74 338.94,-74 338.94,-55 442.94,-55 442.94,-74"/>
<text text-anchor="middle" x="390.94" y="-62" font-family="Helvetica,sans-Serif" font-size="10.00">qtsmithy_global.h</text>
</a>
</g>
</g>
<!-- Node4&#45;&gt;Node5 -->
<g id="edge4_Node000004_Node000005" class="edge">
<title>Node4&#45;&gt;Node5</title>
<g id="a_edge4_Node000004_Node000005"><a xlink:title=" ">
<path fill="none" stroke="#63b8ff" d="M325.47,-109.98C337.9,-101.54 357.14,-88.47 371.54,-78.68"/>
<polygon fill="#63b8ff" stroke="#63b8ff" points="378.18,-74.17 373.58,-81.64 374.87,-76.42 371.56,-78.67 371.56,-78.67 371.56,-78.67 374.87,-76.42 369.54,-75.69 378.18,-74.17 378.18,-74.17"/>
</a>
</g>
</g>
<!-- Node6 -->
<g id="Node000006" class="node">
<title>Node6</title>
<g id="a_Node000006"><a xlink:title=" ">
<polygon fill="#e0e0e0" stroke="#999999" points="380.44,-19 321.44,-19 321.44,0 380.44,0 380.44,-19"/>
<text text-anchor="middle" x="350.94" y="-7" font-family="Helvetica,sans-Serif" font-size="10.00">QtGlobal</text>
</a>
</g>
</g>
<!-- Node4&#45;&gt;Node6 -->
<g id="edge6_Node000004_Node000006" class="edge">
<title>Node4&#45;&gt;Node6</title>
<g id="a_edge6_Node000004_Node000006"><a xlink:title=" ">
<path fill="none" stroke="#63b8ff" d="M314.76,-109.72C317.46,-97.32 322.95,-74.07 329.94,-55 333.5,-45.27 338.4,-34.78 342.57,-26.42"/>
<polygon fill="#63b8ff" stroke="#63b8ff" points="346.28,-19.17 345.84,-27.93 344.46,-22.73 342.64,-26.29 342.64,-26.29 342.64,-26.29 344.46,-22.73 339.43,-24.65 346.28,-19.17 346.28,-19.17"/>
</a>
</g>
</g>
<!-- Node4&#45;&gt;Node7 -->
<g id="edge7_Node000004_Node000007" class="edge">
<title>Node4&#45;&gt;Node7</title>
<g id="a_edge7_Node000004_Node000007"><a xlink:title=" ">
<path fill="none" stroke="#63b8ff" d="M280.77,-111.79C237.18,-102.69 158.96,-86.37 108.02,-75.74"/>
<polygon fill="#63b8ff" stroke="#63b8ff" points="100.08,-74.09 108.65,-72.2 104,-74.9 107.91,-75.72 107.91,-75.72 107.91,-75.72 104,-74.9 107.18,-79.24 100.08,-74.09 100.08,-74.09"/>
</a>
</g>
</g>
<!-- Node4&#45;&gt;Node8 -->
<g id="edge8_Node000004_Node000008" class="edge">
<title>Node4&#45;&gt;Node8</title>
<g id="a_edge8_Node000004_Node000008"><a xlink:title=" ">
<path fill="none" stroke="#63b8ff" d="M303.62,-109.98C294.71,-101.84 281.11,-89.41 270.54,-79.76"/>
<polygon fill="#63b8ff" stroke="#63b8ff" points="264.43,-74.17 272.76,-76.91 267.38,-76.87 270.33,-79.57 270.33,-79.57 270.33,-79.57 267.38,-76.87 267.9,-82.22 264.43,-74.17 264.43,-74.17"/>
</a>
</g>
</g>
<!-- Node5&#45;&gt;Node6 -->
<g id="edge5_Node000005_Node000006" class="edge">
<title>Node5&#45;&gt;Node6</title>
<g id="a_edge5_Node000005_Node000006"><a xlink:title=" ">
<path fill="none" stroke="#63b8ff" d="M384.33,-54.75C378.39,-46.88 369.53,-35.14 362.43,-25.73"/>
<polygon fill="#63b8ff" stroke="#63b8ff" points="357.42,-19.09 365.11,-23.31 359.83,-22.28 362.24,-25.47 362.24,-25.47 362.24,-25.47 359.83,-22.28 359.37,-27.64 357.42,-19.09 357.42,-19.09"/>
</a>
</g>
</g>
</g>
</svg>
