<?xml version="1.0" encoding="UTF-8" standalone="no"?>
<!DOCTYPE svg PUBLIC "-//W3C//DTD SVG 1.1//EN"
 "http://www.w3.org/Graphics/SVG/1.1/DTD/svg11.dtd">
<!-- Generated by graphviz version 2.43.0 (0)
 -->
<!-- Title: qtsmithy_global.h Pages: 1 -->
<svg width="428pt" height="302pt"
 viewBox="0.00 0.00 427.50 302.00" xmlns="http://www.w3.org/2000/svg" xmlns:xlink="http://www.w3.org/1999/xlink">
<g id="graph0" class="graph" transform="scale(1 1) rotate(0) translate(4 298)">
<title>qtsmithy_global.h</title>
<!-- Node1 -->
<g id="Node000001" class="node">
<title>Node1</title>
<g id="a_Node000001"><a xlink:title="Global QtSmithy library macros.">
<polygon fill="#999999" stroke="#666666" points="302,-294 198,-294 198,-275 302,-275 302,-294"/>
<text text-anchor="middle" x="250" y="-282" font-family="Helvetica,sans-Serif" font-size="10.00">qtsmithy_global.h</text>
</a>
</g>
</g>
<!-- Node2 -->
<g id="Node000002" class="node">
<title>Node2</title>
<g id="a_Node000002"><a xlink:href="shapeid_8h.html" target="_top" xlink:title="Declares the ShapeId class.">
<polygon fill="white" stroke="#666666" points="282,-239 218,-239 218,-220 282,-220 282,-239"/>
<text text-anchor="middle" x="250" y="-227" font-family="Helvetica,sans-Serif" font-size="10.00">shapeid.h</text>
</a>
</g>
</g>
<!-- Node1&#45;&gt;Node2 -->
<g id="edge1_Node000001_Node000002" class="edge">
<title>Node1&#45;&gt;Node2</title>
<g id="a_edge1_Node000001_Node000002"><a xlink:title=" ">
<path fill="none" stroke="#63b8ff" d="M250,-266.67C250,-257.5 250,-246.52 250,-239.09"/>
<polygon fill="#63b8ff" stroke="#63b8ff" points="250,-274.75 246.4,-266.75 250,-270.75 250,-266.75 250,-266.75 250,-266.75 250,-270.75 253.6,-266.75 250,-274.75 250,-274.75"/>
</a>
</g>
</g>
<!-- Node3 -->
<g id="Node000003" class="node">
<title>Node3</title>
<g id="a_Node000003"><a xlink:href="model_8h.html" target="_top" xlink:title="Declares the Model class.">
<polygon fill="white" stroke="#666666" points="194,-129 138,-129 138,-110 194,-110 194,-129"/>
<text text-anchor="middle" x="166" y="-117" font-family="Helvetica,sans-Serif" font-size="10.00">model.h</text>
</a>
</g>
</g>
<!-- Node2&#45;&gt;Node3 -->
<g id="edge2_Node000002_Node000003" class="edge">
<title>Node2&#45;&gt;Node3</title>
<g id="a_edge2_Node000002_Node000003"><a xlink:title=" ">
<path fill="none" stroke="#63b8ff" d="M223.96,-216.14C210.57,-208.57 195,-197.7 185,-184 172.65,-167.08 168.26,-142.13 166.75,-129.11"/>
<polygon fill="#63b8ff" stroke="#63b8ff" points="231.13,-220 222.38,-219.37 227.61,-218.1 224.09,-216.2 224.09,-216.2 224.09,-216.2 227.61,-218.1 225.79,-213.04 231.13,-220 231.13,-220"/>
</a>
</g>
</g>
<!-- Node7 -->
<g id="Node000007" class="node">
<title>Node7</title>
<g id="a_Node000007"><a xlink:href="model__p_8h.html" target="_top" xlink:title="Declares the ModelPrivate class.">
<polygon fill="white" stroke="#666666" points="68,-74 0,-74 0,-55 68,-55 68,-74"/>
<text text-anchor="middle" x="34" y="-62" font-family="Helvetica,sans-Serif" font-size="10.00">model_p.h</text>
</a>
</g>
</g>
<!-- Node2&#45;&gt;Node7 -->
<g id="edge8_Node000002_Node000007" class="edge">
<title>Node2&#45;&gt;Node7</title>
<g id="a_edge8_Node000002_Node000007"><a xlink:title=" ">
<path fill="none" stroke="#63b8ff" d="M225.4,-216.03C209.67,-207.68 189.08,-196.04 172,-184 119.86,-147.25 64.08,-94.72 42.87,-74.19"/>
<polygon fill="#63b8ff" stroke="#63b8ff" points="232.69,-219.85 223.94,-219.32 229.15,-217.99 225.61,-216.14 225.61,-216.14 225.61,-216.14 229.15,-217.99 227.28,-212.95 232.69,-219.85 232.69,-219.85"/>
</a>
</g>
</g>
<!-- Node8 -->
<g id="Node000008" class="node">
<title>Node8</title>
<g id="a_Node000008"><a xlink:href="shape_8h.html" target="_top" xlink:title="Declares the Shape class.">
<polygon fill="white" stroke="#666666" points="249.5,-184 194.5,-184 194.5,-165 249.5,-165 249.5,-184"/>
<text text-anchor="middle" x="222" y="-172" font-family="Helvetica,sans-Serif" font-size="10.00">shape.h</text>
</a>
</g>
</g>
<!-- Node2&#45;&gt;Node8 -->
<g id="edge9_Node000002_Node000008" class="edge">
<title>Node2&#45;&gt;Node8</title>
<g id="a_edge9_Node000002_Node000008"><a xlink:title=" ">
<path fill="none" stroke="#63b8ff" d="M241.56,-212.52C236.62,-203.18 230.59,-191.75 226.54,-184.09"/>
<polygon fill="#63b8ff" stroke="#63b8ff" points="245.38,-219.75 238.46,-214.36 243.51,-216.21 241.64,-212.67 241.64,-212.67 241.64,-212.67 243.51,-216.21 244.82,-210.99 245.38,-219.75 245.38,-219.75"/>
</a>
</g>
</g>
<!-- Node10 -->
<g id="Node000010" class="node">
<title>Node10</title>
<g id="a_Node000010"><a xlink:href="shape__p_8h.html" target="_top" xlink:title="Declares the ShapePrivate class.">
<polygon fill="white" stroke="#666666" points="316,-129 250,-129 250,-110 316,-110 316,-129"/>
<text text-anchor="middle" x="283" y="-117" font-family="Helvetica,sans-Serif" font-size="10.00">shape_p.h</text>
</a>
</g>
</g>
<!-- Node2&#45;&gt;Node10 -->
<g id="edge14_Node000002_Node000010" class="edge">
<title>Node2&#45;&gt;Node10</title>
<g id="a_edge14_Node000002_Node000010"><a xlink:title=" ">
<path fill="none" stroke="#63b8ff" d="M255.04,-212C262.15,-188.73 274.86,-147.13 280.35,-129.16"/>
<polygon fill="#63b8ff" stroke="#63b8ff" points="252.7,-219.66 251.6,-210.96 253.87,-215.84 255.04,-212.01 255.04,-212.01 255.04,-212.01 253.87,-215.84 258.48,-213.06 252.7,-219.66 252.7,-219.66"/>
</a>
</g>
</g>
<!-- Node11 -->
<g id="Node000011" class="node">
<title>Node11</title>
<g id="a_Node000011"><a xlink:href="shapeid_8cpp.html" target="_top" xlink:title="Defines the ShapeId and ShapeIdPrivate classes.">
<polygon fill="white" stroke="#666666" points="414.5,-129 339.5,-129 339.5,-110 414.5,-110 414.5,-129"/>
<text text-anchor="middle" x="377" y="-117" font-family="Helvetica,sans-Serif" font-size="10.00">shapeid.cpp</text>
</a>
</g>
</g>
<!-- Node2&#45;&gt;Node11 -->
<g id="edge15_Node000002_Node000011" class="edge">
<title>Node2&#45;&gt;Node11</title>
<g id="a_edge15_Node000002_Node000011"><a xlink:title=" ">
<path fill="none" stroke="#63b8ff" d="M266.61,-214.38C293.29,-191.68 344.95,-147.76 366.82,-129.16"/>
<polygon fill="#63b8ff" stroke="#63b8ff" points="260.39,-219.66 264.16,-211.74 263.44,-217.07 266.49,-214.48 266.49,-214.48 266.49,-214.48 263.44,-217.07 268.82,-217.22 260.39,-219.66 260.39,-219.66"/>
</a>
</g>
</g>
<!-- Node12 -->
<g id="Node000012" class="node">
<title>Node12</title>
<g id="a_Node000012"><a xlink:href="shapeid__p_8h.html" target="_top" xlink:title="Declares the ShapeIdPrivate class.">
<polygon fill="white" stroke="#666666" points="419.5,-184 344.5,-184 344.5,-165 419.5,-165 419.5,-184"/>
<text text-anchor="middle" x="382" y="-172" font-family="Helvetica,sans-Serif" font-size="10.00">shapeid_p.h</text>
</a>
</g>
</g>
<!-- Node2&#45;&gt;Node12 -->
<g id="edge16_Node000002_Node000012" class="edge">
<title>Node2&#45;&gt;Node12</title>
<g id="a_edge16_Node000002_Node000012"><a xlink:title=" ">
<path fill="none" stroke="#63b8ff" d="M278.8,-216.94C303.37,-207.07 338.16,-193.1 360.41,-184.17"/>
<polygon fill="#63b8ff" stroke="#63b8ff" points="271.21,-219.98 277.29,-213.66 274.92,-218.49 278.63,-217 278.63,-217 278.63,-217 274.92,-218.49 279.97,-220.34 271.21,-219.98 271.21,-219.98"/>
</a>
</g>
</g>
<!-- Node4 -->
<g id="Node000004" class="node">
<title>Node4</title>
<g id="a_Node000004"><a xlink:href="generator_8cpp_source.html" target="_top" xlink:title=" ">
<polygon fill="white" stroke="#666666" points="207.5,-74 124.5,-74 124.5,-55 207.5,-55 207.5,-74"/>
<text text-anchor="middle" x="166" y="-62" font-family="Helvetica,sans-Serif" font-size="10.00">generator.cpp</text>
</a>
</g>
</g>
<!-- Node3&#45;&gt;Node4 -->
<g id="edge3_Node000003_Node000004" class="edge">
<title>Node3&#45;&gt;Node4</title>
<g id="a_edge3_Node000003_Node000004"><a xlink:title=" ">
<path fill="none" stroke="#63b8ff" d="M166,-101.67C166,-92.5 166,-81.52 166,-74.09"/>
<polygon fill="#63b8ff" stroke="#63b8ff" points="166,-109.75 162.4,-101.75 166,-105.75 166,-101.75 166,-101.75 166,-101.75 166,-105.75 169.6,-101.75 166,-109.75 166,-109.75"/>
</a>
</g>
</g>
<!-- Node5 -->
<g id="Node000005" class="node">
<title>Node5</title>
<g id="a_Node000005"><a xlink:href="main_8cpp_source.html" target="_top" xlink:title=" ">
<polygon fill="white" stroke="#666666" points="288,-74 226,-74 226,-55 288,-55 288,-74"/>
<text text-anchor="middle" x="257" y="-62" font-family="Helvetica,sans-Serif" font-size="10.00">main.cpp</text>
</a>
</g>
</g>
<!-- Node3&#45;&gt;Node5 -->
<g id="edge4_Node000003_Node000005" class="edge">
<title>Node3&#45;&gt;Node5</title>
<g id="a_edge4_Node000003_Node000005"><a xlink:title=" ">
<path fill="none" stroke="#63b8ff" d="M187.86,-105.77C204.65,-95.99 227.38,-82.75 242.11,-74.17"/>
<polygon fill="#63b8ff" stroke="#63b8ff" points="180.62,-109.98 185.72,-102.85 184.08,-107.97 187.53,-105.96 187.53,-105.96 187.53,-105.96 184.08,-107.97 189.35,-109.07 180.62,-109.98 180.62,-109.98"/>
</a>
</g>
</g>
<!-- Node6 -->
<g id="Node000006" class="node">
<title>Node6</title>
<g id="a_Node000006"><a xlink:href="model_8cpp.html" target="_top" xlink:title="Defines the Model and ModelPrivate classes.">
<polygon fill="white" stroke="#666666" points="99,-19 31,-19 31,0 99,0 99,-19"/>
<text text-anchor="middle" x="65" y="-7" font-family="Helvetica,sans-Serif" font-size="10.00">model.cpp</text>
</a>
</g>
</g>
<!-- Node3&#45;&gt;Node6 -->
<g id="edge5_Node000003_Node000006" class="edge">
<title>Node3&#45;&gt;Node6</title>
<g id="a_edge5_Node000003_Node000006"><a xlink:title=" ">
<path fill="none" stroke="#63b8ff" d="M148.66,-104.74C138.44,-96.31 125.49,-85.04 115,-74 97.6,-55.7 79.95,-31.74 71,-19.13"/>
<polygon fill="#63b8ff" stroke="#63b8ff" points="154.93,-109.84 146.45,-107.59 151.82,-107.32 148.72,-104.79 148.72,-104.79 148.72,-104.79 151.82,-107.32 150.99,-102 154.93,-109.84 154.93,-109.84"/>
</a>
</g>
</g>
<!-- Node3&#45;&gt;Node7 -->
<g id="edge6_Node000003_Node000007" class="edge">
<title>Node3&#45;&gt;Node7</title>
<g id="a_edge6_Node000003_Node000007"><a xlink:title=" ">
<path fill="none" stroke="#63b8ff" d="M137.2,-106.94C112.63,-97.07 77.84,-83.1 55.59,-74.17"/>
<polygon fill="#63b8ff" stroke="#63b8ff" points="144.79,-109.98 136.03,-110.34 141.08,-108.49 137.37,-107 137.37,-107 137.37,-107 141.08,-108.49 138.71,-103.66 144.79,-109.98 144.79,-109.98"/>
</a>
</g>
</g>
<!-- Node7&#45;&gt;Node6 -->
<g id="edge7_Node000007_Node000006" class="edge">
<title>Node7&#45;&gt;Node6</title>
<g id="a_edge7_Node000007_Node000006"><a xlink:title=" ">
<path fill="none" stroke="#63b8ff" d="M43.18,-47.8C48.68,-38.41 55.45,-26.83 59.98,-19.09"/>
<polygon fill="#63b8ff" stroke="#63b8ff" points="39.12,-54.75 40.05,-46.03 41.14,-51.3 43.16,-47.84 43.16,-47.84 43.16,-47.84 41.14,-51.3 46.27,-49.66 39.12,-54.75 39.12,-54.75"/>
</a>
</g>
</g>
<!-- Node8&#45;&gt;Node3 -->
<g id="edge10_Node000008_Node000003" class="edge">
<title>Node8&#45;&gt;Node3</title>
<g id="a_edge10_Node000008_Node000003"><a xlink:title=" ">
<path fill="none" stroke="#63b8ff" d="M207.13,-159.42C196.97,-149.81 183.82,-137.37 175.16,-129.17"/>
<polygon fill="#63b8ff" stroke="#63b8ff" points="213,-164.98 204.72,-162.1 210.1,-162.24 207.19,-159.49 207.19,-159.49 207.19,-159.49 210.1,-162.24 209.67,-156.87 213,-164.98 213,-164.98"/>
</a>
</g>
</g>
<!-- Node9 -->
<g id="Node000009" class="node">
<title>Node9</title>
<g id="a_Node000009"><a xlink:href="shape_8cpp.html" target="_top" xlink:title="Defines the Shape and ShapePrivate classes.">
<polygon fill="white" stroke="#666666" points="372,-74 306,-74 306,-55 372,-55 372,-74"/>
<text text-anchor="middle" x="339" y="-62" font-family="Helvetica,sans-Serif" font-size="10.00">shape.cpp</text>
</a>
</g>
</g>
<!-- Node8&#45;&gt;Node9 -->
<g id="edge11_Node000008_Node000009" class="edge">
<title>Node8&#45;&gt;Node9</title>
<g id="a_edge11_Node000008_Node000009"><a xlink:title=" ">
<path fill="none" stroke="#63b8ff" d="M223.26,-156.35C225.12,-142.39 229.7,-122.94 241,-110 257.71,-90.86 284.33,-79.49 305.6,-73.05"/>
<polygon fill="#63b8ff" stroke="#63b8ff" points="222.39,-164.6 219.65,-156.27 222.81,-160.63 223.23,-156.65 223.23,-156.65 223.23,-156.65 222.81,-160.63 226.81,-157.03 222.39,-164.6 222.39,-164.6"/>
</a>
</g>
</g>
<!-- Node8&#45;&gt;Node10 -->
<g id="edge12_Node000008_Node000010" class="edge">
<title>Node8&#45;&gt;Node10</title>
<g id="a_edge12_Node000008_Node000010"><a xlink:title=" ">
<path fill="none" stroke="#63b8ff" d="M237.89,-159.7C249,-150.04 263.5,-137.44 273.02,-129.17"/>
<polygon fill="#63b8ff" stroke="#63b8ff" points="231.8,-164.98 235.48,-157.02 234.82,-162.36 237.84,-159.74 237.84,-159.74 237.84,-159.74 234.82,-162.36 240.2,-162.46 231.8,-164.98 231.8,-164.98"/>
</a>
</g>
</g>
<!-- Node10&#45;&gt;Node9 -->
<g id="edge13_Node000010_Node000009" class="edge">
<title>Node10&#45;&gt;Node9</title>
<g id="a_edge13_Node000010_Node000009"><a xlink:title=" ">
<path fill="none" stroke="#63b8ff" d="M297.87,-104.42C308.03,-94.81 321.18,-82.37 329.84,-74.17"/>
<polygon fill="#63b8ff" stroke="#63b8ff" points="292,-109.98 295.33,-101.87 294.9,-107.24 297.81,-104.49 297.81,-104.49 297.81,-104.49 294.9,-107.24 300.28,-107.1 292,-109.98 292,-109.98"/>
</a>
</g>
</g>
<!-- Node12&#45;&gt;Node11 -->
<g id="edge17_Node000012_Node000011" class="edge">
<title>Node12&#45;&gt;Node11</title>
<g id="a_edge17_Node000012_Node000011"><a xlink:title=" ">
<path fill="none" stroke="#63b8ff" d="M380.41,-156.67C379.55,-147.5 378.51,-136.52 377.81,-129.09"/>
<polygon fill="#63b8ff" stroke="#63b8ff" points="381.17,-164.75 376.84,-157.12 380.8,-160.77 380.42,-156.78 380.42,-156.78 380.42,-156.78 380.8,-160.77 384.01,-156.45 381.17,-164.75 381.17,-164.75"/>
</a>
</g>
</g>
</g>
</svg>
