<?xml version="1.0" encoding="UTF-8" standalone="no"?>
<!DOCTYPE svg PUBLIC "-//W3C//DTD SVG 1.1//EN"
 "http://www.w3.org/Graphics/SVG/1.1/DTD/svg11.dtd">
<!-- Generated by graphviz version 2.43.0 (0)
 -->
<!-- Title: shapeid_p.h Pages: 1 -->
<svg width="381pt" height="192pt"
 viewBox="0.00 0.00 380.50 192.00" xmlns="http://www.w3.org/2000/svg" xmlns:xlink="http://www.w3.org/1999/xlink">
<g id="graph0" class="graph" transform="scale(1 1) rotate(0) translate(4 188)">
<title>shapeid_p.h</title>
<!-- Node1 -->
<g id="Node000001" class="node">
<title>Node1</title>
<g id="a_Node000001"><a xlink:title="Declares the ShapeIdPrivate class.">
<polygon fill="#999999" stroke="#666666" points="274.5,-184 199.5,-184 199.5,-165 274.5,-165 274.5,-184"/>
<text text-anchor="middle" x="237" y="-172" font-family="Helvetica,sans-Serif" font-size="10.00">shapeid_p.h</text>
</a>
</g>
</g>
<!-- Node2 -->
<g id="Node000002" class="node">
<title>Node2</title>
<g id="a_Node000002"><a xlink:href="shapeid_8h.html" target="_top" xlink:title="Declares the ShapeId class.">
<polygon fill="white" stroke="#666666" points="207,-129 97,-129 97,-110 207,-110 207,-129"/>
<text text-anchor="middle" x="152" y="-117" font-family="Helvetica,sans-Serif" font-size="10.00">qtsmithy/shapeid.h</text>
</a>
</g>
</g>
<!-- Node1&#45;&gt;Node2 -->
<g id="edge1_Node000001_Node000002" class="edge">
<title>Node1&#45;&gt;Node2</title>
<g id="a_edge1_Node000001_Node000002"><a xlink:title=" ">
<path fill="none" stroke="#63b8ff" d="M223.34,-164.98C209.67,-156.46 188.45,-143.23 172.71,-133.41"/>
<polygon fill="#63b8ff" stroke="#63b8ff" points="165.91,-129.17 174.6,-130.35 169.3,-131.29 172.69,-133.4 172.69,-133.4 172.69,-133.4 169.3,-131.29 170.79,-136.46 165.91,-129.17 165.91,-129.17"/>
</a>
</g>
</g>
<!-- Node5 -->
<g id="Node000005" class="node">
<title>Node5</title>
<g id="a_Node000005"><a xlink:title=" ">
<polygon fill="#e0e0e0" stroke="#999999" points="290.5,-74 189.5,-74 189.5,-55 290.5,-55 290.5,-74"/>
<text text-anchor="middle" x="240" y="-62" font-family="Helvetica,sans-Serif" font-size="10.00">QCoreApplication</text>
</a>
</g>
</g>
<!-- Node1&#45;&gt;Node5 -->
<g id="edge6_Node000001_Node000005" class="edge">
<title>Node1&#45;&gt;Node5</title>
<g id="a_edge6_Node000001_Node000005"><a xlink:title=" ">
<path fill="none" stroke="#63b8ff" d="M237.25,-164.66C237.74,-146.69 238.88,-105.64 239.53,-82.38"/>
<polygon fill="#63b8ff" stroke="#63b8ff" points="239.76,-74.16 243.14,-82.26 239.65,-78.16 239.54,-82.16 239.54,-82.16 239.54,-82.16 239.65,-78.16 235.94,-82.06 239.76,-74.16 239.76,-74.16"/>
</a>
</g>
</g>
<!-- Node7 -->
<g id="Node000007" class="node">
<title>Node7</title>
<g id="a_Node000007"><a xlink:title=" ">
<polygon fill="#e0e0e0" stroke="#999999" points="372.5,-129 265.5,-129 265.5,-110 372.5,-110 372.5,-129"/>
<text text-anchor="middle" x="319" y="-117" font-family="Helvetica,sans-Serif" font-size="10.00">QLoggingCategory</text>
</a>
</g>
</g>
<!-- Node1&#45;&gt;Node7 -->
<g id="edge7_Node000001_Node000007" class="edge">
<title>Node1&#45;&gt;Node7</title>
<g id="a_edge7_Node000001_Node000007"><a xlink:title=" ">
<path fill="none" stroke="#63b8ff" d="M250.17,-164.98C263.25,-156.54 283.47,-143.47 298.61,-133.68"/>
<polygon fill="#63b8ff" stroke="#63b8ff" points="305.59,-129.17 300.82,-136.54 302.23,-131.34 298.87,-133.51 298.87,-133.51 298.87,-133.51 302.23,-131.34 296.91,-130.49 305.59,-129.17 305.59,-129.17"/>
</a>
</g>
</g>
<!-- Node3 -->
<g id="Node000003" class="node">
<title>Node3</title>
<g id="a_Node000003"><a xlink:href="qtsmithy__global_8h.html" target="_top" xlink:title="Global QtSmithy library macros.">
<polygon fill="white" stroke="#666666" points="104,-74 0,-74 0,-55 104,-55 104,-74"/>
<text text-anchor="middle" x="52" y="-62" font-family="Helvetica,sans-Serif" font-size="10.00">qtsmithy_global.h</text>
</a>
</g>
</g>
<!-- Node2&#45;&gt;Node3 -->
<g id="edge2_Node000002_Node000003" class="edge">
<title>Node2&#45;&gt;Node3</title>
<g id="a_edge2_Node000002_Node000003"><a xlink:title=" ">
<path fill="none" stroke="#63b8ff" d="M135.93,-109.98C119.7,-101.38 94.44,-87.99 75.86,-78.15"/>
<polygon fill="#63b8ff" stroke="#63b8ff" points="68.36,-74.17 77.11,-74.74 71.89,-76.04 75.43,-77.92 75.43,-77.92 75.43,-77.92 71.89,-76.04 73.74,-81.1 68.36,-74.17 68.36,-74.17"/>
</a>
</g>
</g>
<!-- Node2&#45;&gt;Node5 -->
<g id="edge4_Node000002_Node000005" class="edge">
<title>Node2&#45;&gt;Node5</title>
<g id="a_edge4_Node000002_Node000005"><a xlink:title=" ">
<path fill="none" stroke="#63b8ff" d="M166.14,-109.98C180.3,-101.46 202.26,-88.23 218.56,-78.41"/>
<polygon fill="#63b8ff" stroke="#63b8ff" points="225.6,-74.17 220.61,-81.38 222.18,-76.23 218.75,-78.3 218.75,-78.3 218.75,-78.3 222.18,-76.23 216.89,-75.21 225.6,-74.17 225.6,-74.17"/>
</a>
</g>
</g>
<!-- Node6 -->
<g id="Node000006" class="node">
<title>Node6</title>
<g id="a_Node000006"><a xlink:title=" ">
<polygon fill="#e0e0e0" stroke="#999999" points="171.5,-74 122.5,-74 122.5,-55 171.5,-55 171.5,-74"/>
<text text-anchor="middle" x="147" y="-62" font-family="Helvetica,sans-Serif" font-size="10.00">QHash</text>
</a>
</g>
</g>
<!-- Node2&#45;&gt;Node6 -->
<g id="edge5_Node000002_Node000006" class="edge">
<title>Node2&#45;&gt;Node6</title>
<g id="a_edge5_Node000002_Node000006"><a xlink:title=" ">
<path fill="none" stroke="#63b8ff" d="M151.17,-109.75C150.47,-102.26 149.43,-91.28 148.57,-82.13"/>
<polygon fill="#63b8ff" stroke="#63b8ff" points="147.81,-74.09 152.15,-81.72 148.19,-78.07 148.56,-82.05 148.56,-82.05 148.56,-82.05 148.19,-78.07 144.98,-82.39 147.81,-74.09 147.81,-74.09"/>
</a>
</g>
</g>
<!-- Node4 -->
<g id="Node000004" class="node">
<title>Node4</title>
<g id="a_Node000004"><a xlink:title=" ">
<polygon fill="#e0e0e0" stroke="#999999" points="81.5,-19 22.5,-19 22.5,0 81.5,0 81.5,-19"/>
<text text-anchor="middle" x="52" y="-7" font-family="Helvetica,sans-Serif" font-size="10.00">QtGlobal</text>
</a>
</g>
</g>
<!-- Node3&#45;&gt;Node4 -->
<g id="edge3_Node000003_Node000004" class="edge">
<title>Node3&#45;&gt;Node4</title>
<g id="a_edge3_Node000003_Node000004"><a xlink:title=" ">
<path fill="none" stroke="#63b8ff" d="M52,-54.75C52,-47.26 52,-36.28 52,-27.13"/>
<polygon fill="#63b8ff" stroke="#63b8ff" points="52,-19.09 55.6,-27.09 52,-23.09 52,-27.09 52,-27.09 52,-27.09 52,-23.09 48.4,-27.09 52,-19.09 52,-19.09"/>
</a>
</g>
</g>
</g>
</svg>
