<?xml version="1.0" encoding="UTF-8" standalone="no"?>
<!DOCTYPE svg PUBLIC "-//W3C//DTD SVG 1.1//EN"
 "http://www.w3.org/Graphics/SVG/1.1/DTD/svg11.dtd">
<!-- Generated by graphviz version 2.43.0 (0)
 -->
<!-- Title: shapeid.cpp Pages: 1 -->
<svg width="442pt" height="247pt"
 viewBox="0.00 0.00 441.50 247.00" xmlns="http://www.w3.org/2000/svg" xmlns:xlink="http://www.w3.org/1999/xlink">
<g id="graph0" class="graph" transform="scale(1 1) rotate(0) translate(4 243)">
<title>shapeid.cpp</title>
<!-- Node1 -->
<g id="Node000001" class="node">
<title>Node1</title>
<g id="a_Node000001"><a xlink:title="Defines the ShapeId and ShapeIdPrivate classes.">
<polygon fill="#999999" stroke="#666666" points="300.5,-239 225.5,-239 225.5,-220 300.5,-220 300.5,-239"/>
<text text-anchor="middle" x="263" y="-227" font-family="Helvetica,sans-Serif" font-size="10.00">shapeid.cpp</text>
</a>
</g>
</g>
<!-- Node2 -->
<g id="Node000002" class="node">
<title>Node2</title>
<g id="a_Node000002"><a xlink:href="shapeid_8h.html" target="_top" xlink:title="Declares the ShapeId class.">
<polygon fill="white" stroke="#666666" points="240,-129 130,-129 130,-110 240,-110 240,-129"/>
<text text-anchor="middle" x="185" y="-117" font-family="Helvetica,sans-Serif" font-size="10.00">qtsmithy/shapeid.h</text>
</a>
</g>
</g>
<!-- Node1&#45;&gt;Node2 -->
<g id="edge1_Node000001_Node000002" class="edge">
<title>Node1&#45;&gt;Node2</title>
<g id="a_edge1_Node000001_Node000002"><a xlink:title=" ">
<path fill="none" stroke="#63b8ff" d="M252.13,-219.83C242.11,-211.43 227.27,-197.96 217,-184 206.09,-169.18 197.04,-150.09 191.38,-136.73"/>
<polygon fill="#63b8ff" stroke="#63b8ff" points="188.3,-129.23 194.67,-135.27 189.82,-132.94 191.34,-136.64 191.34,-136.64 191.34,-136.64 189.82,-132.94 188.01,-138 188.3,-129.23 188.3,-129.23"/>
</a>
</g>
</g>
<!-- Node7 -->
<g id="Node000007" class="node">
<title>Node7</title>
<g id="a_Node000007"><a xlink:href="shapeid__p_8h.html" target="_top" xlink:title="Declares the ShapeIdPrivate class.">
<polygon fill="white" stroke="#666666" points="300.5,-184 225.5,-184 225.5,-165 300.5,-165 300.5,-184"/>
<text text-anchor="middle" x="263" y="-172" font-family="Helvetica,sans-Serif" font-size="10.00">shapeid_p.h</text>
</a>
</g>
</g>
<!-- Node1&#45;&gt;Node7 -->
<g id="edge7_Node000001_Node000007" class="edge">
<title>Node1&#45;&gt;Node7</title>
<g id="a_edge7_Node000001_Node000007"><a xlink:title=" ">
<path fill="none" stroke="#63b8ff" d="M263,-219.75C263,-212.26 263,-201.28 263,-192.13"/>
<polygon fill="#63b8ff" stroke="#63b8ff" points="263,-184.09 266.6,-192.09 263,-188.09 263,-192.09 263,-192.09 263,-192.09 263,-188.09 259.4,-192.09 263,-184.09 263,-184.09"/>
</a>
</g>
</g>
<!-- Node9 -->
<g id="Node000009" class="node">
<title>Node9</title>
<g id="a_Node000009"><a xlink:title=" ">
<polygon fill="#e0e0e0" stroke="#999999" points="433.5,-184 318.5,-184 318.5,-165 433.5,-165 433.5,-184"/>
<text text-anchor="middle" x="376" y="-172" font-family="Helvetica,sans-Serif" font-size="10.00">QRegularExpression</text>
</a>
</g>
</g>
<!-- Node1&#45;&gt;Node9 -->
<g id="edge11_Node000001_Node000009" class="edge">
<title>Node1&#45;&gt;Node9</title>
<g id="a_edge11_Node000001_Node000009"><a xlink:title=" ">
<path fill="none" stroke="#63b8ff" d="M281.16,-219.98C299.82,-211.23 329.07,-197.51 350.15,-187.62"/>
<polygon fill="#63b8ff" stroke="#63b8ff" points="357.51,-184.17 351.8,-190.83 353.89,-185.87 350.27,-187.57 350.27,-187.57 350.27,-187.57 353.89,-185.87 348.74,-184.31 357.51,-184.17 357.51,-184.17"/>
</a>
</g>
</g>
<!-- Node3 -->
<g id="Node000003" class="node">
<title>Node3</title>
<g id="a_Node000003"><a xlink:href="qtsmithy__global_8h.html" target="_top" xlink:title="Global QtSmithy library macros.">
<polygon fill="white" stroke="#666666" points="104,-74 0,-74 0,-55 104,-55 104,-74"/>
<text text-anchor="middle" x="52" y="-62" font-family="Helvetica,sans-Serif" font-size="10.00">qtsmithy_global.h</text>
</a>
</g>
</g>
<!-- Node2&#45;&gt;Node3 -->
<g id="edge2_Node000002_Node000003" class="edge">
<title>Node2&#45;&gt;Node3</title>
<g id="a_edge2_Node000002_Node000003"><a xlink:title=" ">
<path fill="none" stroke="#63b8ff" d="M163.63,-109.98C141.37,-101.11 106.33,-87.15 81.45,-77.24"/>
<polygon fill="#63b8ff" stroke="#63b8ff" points="73.76,-74.17 82.52,-73.79 77.47,-75.65 81.19,-77.13 81.19,-77.13 81.19,-77.13 77.47,-75.65 79.86,-80.48 73.76,-74.17 73.76,-74.17"/>
</a>
</g>
</g>
<!-- Node4 -->
<g id="Node000004" class="node">
<title>Node4</title>
<g id="a_Node000004"><a xlink:title=" ">
<polygon fill="#e0e0e0" stroke="#999999" points="121.5,-19 62.5,-19 62.5,0 121.5,0 121.5,-19"/>
<text text-anchor="middle" x="92" y="-7" font-family="Helvetica,sans-Serif" font-size="10.00">QtGlobal</text>
</a>
</g>
</g>
<!-- Node2&#45;&gt;Node4 -->
<g id="edge4_Node000002_Node000004" class="edge">
<title>Node2&#45;&gt;Node4</title>
<g id="a_edge4_Node000002_Node000004"><a xlink:title=" ">
<path fill="none" stroke="#63b8ff" d="M177.39,-109.66C161.44,-91.14 124.36,-48.08 104.72,-25.28"/>
<polygon fill="#63b8ff" stroke="#63b8ff" points="99.46,-19.16 107.4,-22.87 102.07,-22.19 104.68,-25.22 104.68,-25.22 104.68,-25.22 102.07,-22.19 101.95,-27.57 99.46,-19.16 99.46,-19.16"/>
</a>
</g>
</g>
<!-- Node5 -->
<g id="Node000005" class="node">
<title>Node5</title>
<g id="a_Node000005"><a xlink:title=" ">
<polygon fill="#e0e0e0" stroke="#999999" points="328.5,-74 227.5,-74 227.5,-55 328.5,-55 328.5,-74"/>
<text text-anchor="middle" x="278" y="-62" font-family="Helvetica,sans-Serif" font-size="10.00">QCoreApplication</text>
</a>
</g>
</g>
<!-- Node2&#45;&gt;Node5 -->
<g id="edge5_Node000002_Node000005" class="edge">
<title>Node2&#45;&gt;Node5</title>
<g id="a_edge5_Node000002_Node000005"><a xlink:title=" ">
<path fill="none" stroke="#63b8ff" d="M199.94,-109.98C215.04,-101.38 238.53,-87.99 255.81,-78.15"/>
<polygon fill="#63b8ff" stroke="#63b8ff" points="262.79,-74.17 257.62,-81.26 259.31,-76.15 255.84,-78.13 255.84,-78.13 255.84,-78.13 259.31,-76.15 254.05,-75 262.79,-74.17 262.79,-74.17"/>
</a>
</g>
</g>
<!-- Node6 -->
<g id="Node000006" class="node">
<title>Node6</title>
<g id="a_Node000006"><a xlink:title=" ">
<polygon fill="#e0e0e0" stroke="#999999" points="209.5,-74 160.5,-74 160.5,-55 209.5,-55 209.5,-74"/>
<text text-anchor="middle" x="185" y="-62" font-family="Helvetica,sans-Serif" font-size="10.00">QHash</text>
</a>
</g>
</g>
<!-- Node2&#45;&gt;Node6 -->
<g id="edge6_Node000002_Node000006" class="edge">
<title>Node2&#45;&gt;Node6</title>
<g id="a_edge6_Node000002_Node000006"><a xlink:title=" ">
<path fill="none" stroke="#63b8ff" d="M185,-109.75C185,-102.26 185,-91.28 185,-82.13"/>
<polygon fill="#63b8ff" stroke="#63b8ff" points="185,-74.09 188.6,-82.09 185,-78.09 185,-82.09 185,-82.09 185,-82.09 185,-78.09 181.4,-82.09 185,-74.09 185,-74.09"/>
</a>
</g>
</g>
<!-- Node3&#45;&gt;Node4 -->
<g id="edge3_Node000003_Node000004" class="edge">
<title>Node3&#45;&gt;Node4</title>
<g id="a_edge3_Node000003_Node000004"><a xlink:title=" ">
<path fill="none" stroke="#63b8ff" d="M58.61,-54.75C64.55,-46.88 73.41,-35.14 80.51,-25.73"/>
<polygon fill="#63b8ff" stroke="#63b8ff" points="85.52,-19.09 83.57,-27.64 83.11,-22.28 80.7,-25.47 80.7,-25.47 80.7,-25.47 83.11,-22.28 77.82,-23.31 85.52,-19.09 85.52,-19.09"/>
</a>
</g>
</g>
<!-- Node7&#45;&gt;Node2 -->
<g id="edge8_Node000007_Node000002" class="edge">
<title>Node7&#45;&gt;Node2</title>
<g id="a_edge8_Node000007_Node000002"><a xlink:title=" ">
<path fill="none" stroke="#63b8ff" d="M250.47,-164.98C238.03,-156.54 218.8,-143.47 204.39,-133.68"/>
<polygon fill="#63b8ff" stroke="#63b8ff" points="197.76,-129.17 206.4,-130.69 201.07,-131.42 204.38,-133.67 204.38,-133.67 204.38,-133.67 201.07,-131.42 202.35,-136.64 197.76,-129.17 197.76,-129.17"/>
</a>
</g>
</g>
<!-- Node7&#45;&gt;Node5 -->
<g id="edge9_Node000007_Node000005" class="edge">
<title>Node7&#45;&gt;Node5</title>
<g id="a_edge9_Node000007_Node000005"><a xlink:title=" ">
<path fill="none" stroke="#63b8ff" d="M264.23,-164.66C266.72,-146.69 272.42,-105.64 275.66,-82.38"/>
<polygon fill="#63b8ff" stroke="#63b8ff" points="276.8,-74.16 279.26,-82.58 276.25,-78.12 275.7,-82.08 275.7,-82.08 275.7,-82.08 276.25,-78.12 272.13,-81.59 276.8,-74.16 276.8,-74.16"/>
</a>
</g>
</g>
<!-- Node8 -->
<g id="Node000008" class="node">
<title>Node8</title>
<g id="a_Node000008"><a xlink:title=" ">
<polygon fill="#e0e0e0" stroke="#999999" points="403.5,-129 296.5,-129 296.5,-110 403.5,-110 403.5,-129"/>
<text text-anchor="middle" x="350" y="-117" font-family="Helvetica,sans-Serif" font-size="10.00">QLoggingCategory</text>
</a>
</g>
</g>
<!-- Node7&#45;&gt;Node8 -->
<g id="edge10_Node000007_Node000008" class="edge">
<title>Node7&#45;&gt;Node8</title>
<g id="a_edge10_Node000007_Node000008"><a xlink:title=" ">
<path fill="none" stroke="#63b8ff" d="M276.98,-164.98C290.97,-156.46 312.69,-143.23 328.8,-133.41"/>
<polygon fill="#63b8ff" stroke="#63b8ff" points="335.77,-129.17 330.81,-136.41 332.35,-131.25 328.94,-133.33 328.94,-133.33 328.94,-133.33 332.35,-131.25 327.06,-130.26 335.77,-129.17 335.77,-129.17"/>
</a>
</g>
</g>
</g>
</svg>
