<?xml version="1.0" encoding="UTF-8" standalone="no"?>
<!DOCTYPE svg PUBLIC "-//W3C//DTD SVG 1.1//EN"
 "http://www.w3.org/Graphics/SVG/1.1/DTD/svg11.dtd">
<!-- Generated by graphviz version 2.43.0 (0)
 -->
<!-- Title: shapeid_p.h Pages: 1 -->
<svg width="417pt" height="192pt"
 viewBox="0.00 0.00 416.50 192.00" xmlns="http://www.w3.org/2000/svg" xmlns:xlink="http://www.w3.org/1999/xlink">
<g id="graph0" class="graph" transform="scale(1 1) rotate(0) translate(4 188)">
<title>shapeid_p.h</title>
<!-- Node1 -->
<g id="Node000001" class="node">
<title>Node1</title>
<g id="a_Node000001"><a xlink:title="Declares the ShapeIdPrivate class.">
<polygon fill="#999999" stroke="#666666" points="310.5,-184 235.5,-184 235.5,-165 310.5,-165 310.5,-184"/>
<text text-anchor="middle" x="273" y="-172" font-family="Helvetica,sans-Serif" font-size="10.00">shapeid_p.h</text>
</a>
</g>
</g>
<!-- Node2 -->
<g id="Node000002" class="node">
<title>Node2</title>
<g id="a_Node000002"><a xlink:href="shapeid_8h.html" target="_top" xlink:title="Declares the ShapeId class.">
<polygon fill="white" stroke="#666666" points="240,-129 130,-129 130,-110 240,-110 240,-129"/>
<text text-anchor="middle" x="185" y="-117" font-family="Helvetica,sans-Serif" font-size="10.00">qtsmithy/shapeid.h</text>
</a>
</g>
</g>
<!-- Node1&#45;&gt;Node2 -->
<g id="edge1_Node000001_Node000002" class="edge">
<title>Node1&#45;&gt;Node2</title>
<g id="a_edge1_Node000001_Node000002"><a xlink:title=" ">
<path fill="none" stroke="#63b8ff" d="M258.86,-164.98C244.7,-156.46 222.74,-143.23 206.44,-133.41"/>
<polygon fill="#63b8ff" stroke="#63b8ff" points="199.4,-129.17 208.11,-130.21 202.82,-131.23 206.25,-133.3 206.25,-133.3 206.25,-133.3 202.82,-131.23 204.39,-136.38 199.4,-129.17 199.4,-129.17"/>
</a>
</g>
</g>
<!-- Node5 -->
<g id="Node000005" class="node">
<title>Node5</title>
<g id="a_Node000005"><a xlink:title=" ">
<polygon fill="#e0e0e0" stroke="#999999" points="328.5,-74 227.5,-74 227.5,-55 328.5,-55 328.5,-74"/>
<text text-anchor="middle" x="278" y="-62" font-family="Helvetica,sans-Serif" font-size="10.00">QCoreApplication</text>
</a>
</g>
</g>
<!-- Node1&#45;&gt;Node5 -->
<g id="edge7_Node000001_Node000005" class="edge">
<title>Node1&#45;&gt;Node5</title>
<g id="a_edge7_Node000001_Node000005"><a xlink:title=" ">
<path fill="none" stroke="#63b8ff" d="M273.41,-164.66C274.24,-146.69 276.14,-105.64 277.22,-82.38"/>
<polygon fill="#63b8ff" stroke="#63b8ff" points="277.6,-74.16 280.83,-82.32 277.41,-78.15 277.23,-82.15 277.23,-82.15 277.23,-82.15 277.41,-78.15 273.63,-81.98 277.6,-74.16 277.6,-74.16"/>
</a>
</g>
</g>
<!-- Node7 -->
<g id="Node000007" class="node">
<title>Node7</title>
<g id="a_Node000007"><a xlink:title=" ">
<polygon fill="#e0e0e0" stroke="#999999" points="408.5,-129 301.5,-129 301.5,-110 408.5,-110 408.5,-129"/>
<text text-anchor="middle" x="355" y="-117" font-family="Helvetica,sans-Serif" font-size="10.00">QLoggingCategory</text>
</a>
</g>
</g>
<!-- Node1&#45;&gt;Node7 -->
<g id="edge8_Node000001_Node000007" class="edge">
<title>Node1&#45;&gt;Node7</title>
<g id="a_edge8_Node000001_Node000007"><a xlink:title=" ">
<path fill="none" stroke="#63b8ff" d="M286.17,-164.98C299.25,-156.54 319.47,-143.47 334.61,-133.68"/>
<polygon fill="#63b8ff" stroke="#63b8ff" points="341.59,-129.17 336.82,-136.54 338.23,-131.34 334.87,-133.51 334.87,-133.51 334.87,-133.51 338.23,-131.34 332.91,-130.49 341.59,-129.17 341.59,-129.17"/>
</a>
</g>
</g>
<!-- Node3 -->
<g id="Node000003" class="node">
<title>Node3</title>
<g id="a_Node000003"><a xlink:href="qtsmithy__global_8h.html" target="_top" xlink:title="Global QtSmithy library macros.">
<polygon fill="white" stroke="#666666" points="104,-74 0,-74 0,-55 104,-55 104,-74"/>
<text text-anchor="middle" x="52" y="-62" font-family="Helvetica,sans-Serif" font-size="10.00">qtsmithy_global.h</text>
</a>
</g>
</g>
<!-- Node2&#45;&gt;Node3 -->
<g id="edge2_Node000002_Node000003" class="edge">
<title>Node2&#45;&gt;Node3</title>
<g id="a_edge2_Node000002_Node000003"><a xlink:title=" ">
<path fill="none" stroke="#63b8ff" d="M163.63,-109.98C141.37,-101.11 106.33,-87.15 81.45,-77.24"/>
<polygon fill="#63b8ff" stroke="#63b8ff" points="73.76,-74.17 82.52,-73.79 77.47,-75.65 81.19,-77.13 81.19,-77.13 81.19,-77.13 77.47,-75.65 79.86,-80.48 73.76,-74.17 73.76,-74.17"/>
</a>
</g>
</g>
<!-- Node4 -->
<g id="Node000004" class="node">
<title>Node4</title>
<g id="a_Node000004"><a xlink:title=" ">
<polygon fill="#e0e0e0" stroke="#999999" points="121.5,-19 62.5,-19 62.5,0 121.5,0 121.5,-19"/>
<text text-anchor="middle" x="92" y="-7" font-family="Helvetica,sans-Serif" font-size="10.00">QtGlobal</text>
</a>
</g>
</g>
<!-- Node2&#45;&gt;Node4 -->
<g id="edge4_Node000002_Node000004" class="edge">
<title>Node2&#45;&gt;Node4</title>
<g id="a_edge4_Node000002_Node000004"><a xlink:title=" ">
<path fill="none" stroke="#63b8ff" d="M177.39,-109.66C161.44,-91.14 124.36,-48.08 104.72,-25.28"/>
<polygon fill="#63b8ff" stroke="#63b8ff" points="99.46,-19.16 107.4,-22.87 102.07,-22.19 104.68,-25.22 104.68,-25.22 104.68,-25.22 102.07,-22.19 101.95,-27.57 99.46,-19.16 99.46,-19.16"/>
</a>
</g>
</g>
<!-- Node2&#45;&gt;Node5 -->
<g id="edge5_Node000002_Node000005" class="edge">
<title>Node2&#45;&gt;Node5</title>
<g id="a_edge5_Node000002_Node000005"><a xlink:title=" ">
<path fill="none" stroke="#63b8ff" d="M199.94,-109.98C215.04,-101.38 238.53,-87.99 255.81,-78.15"/>
<polygon fill="#63b8ff" stroke="#63b8ff" points="262.79,-74.17 257.62,-81.26 259.31,-76.15 255.84,-78.13 255.84,-78.13 255.84,-78.13 259.31,-76.15 254.05,-75 262.79,-74.17 262.79,-74.17"/>
</a>
</g>
</g>
<!-- Node6 -->
<g id="Node000006" class="node">
<title>Node6</title>
<g id="a_Node000006"><a xlink:title=" ">
<polygon fill="#e0e0e0" stroke="#999999" points="209.5,-74 160.5,-74 160.5,-55 209.5,-55 209.5,-74"/>
<text text-anchor="middle" x="185" y="-62" font-family="Helvetica,sans-Serif" font-size="10.00">QHash</text>
</a>
</g>
</g>
<!-- Node2&#45;&gt;Node6 -->
<g id="edge6_Node000002_Node000006" class="edge">
<title>Node2&#45;&gt;Node6</title>
<g id="a_edge6_Node000002_Node000006"><a xlink:title=" ">
<path fill="none" stroke="#63b8ff" d="M185,-109.75C185,-102.26 185,-91.28 185,-82.13"/>
<polygon fill="#63b8ff" stroke="#63b8ff" points="185,-74.09 188.6,-82.09 185,-78.09 185,-82.09 185,-82.09 185,-82.09 185,-78.09 181.4,-82.09 185,-74.09 185,-74.09"/>
</a>
</g>
</g>
<!-- Node3&#45;&gt;Node4 -->
<g id="edge3_Node000003_Node000004" class="edge">
<title>Node3&#45;&gt;Node4</title>
<g id="a_edge3_Node000003_Node000004"><a xlink:title=" ">
<path fill="none" stroke="#63b8ff" d="M58.61,-54.75C64.55,-46.88 73.41,-35.14 80.51,-25.73"/>
<polygon fill="#63b8ff" stroke="#63b8ff" points="85.52,-19.09 83.57,-27.64 83.11,-22.28 80.7,-25.47 80.7,-25.47 80.7,-25.47 83.11,-22.28 77.82,-23.31 85.52,-19.09 85.52,-19.09"/>
</a>
</g>
</g>
</g>
</svg>
