<?xml version="1.0" encoding="UTF-8" standalone="no"?>
<!DOCTYPE svg PUBLIC "-//W3C//DTD SVG 1.1//EN"
 "http://www.w3.org/Graphics/SVG/1.1/DTD/svg11.dtd">
<!-- Generated by graphviz version 2.43.0 (0)
 -->
<!-- Title: shape.h Pages: 1 -->
<svg width="313pt" height="192pt"
 viewBox="0.00 0.00 313.00 192.00" xmlns="http://www.w3.org/2000/svg" xmlns:xlink="http://www.w3.org/1999/xlink">
<g id="graph0" class="graph" transform="scale(1 1) rotate(0) translate(4 188)">
<title>shape.h</title>
<!-- Node1 -->
<g id="Node000001" class="node">
<title>Node1</title>
<g id="a_Node000001"><a xlink:title="Declares the Shape class.">
<polygon fill="#999999" stroke="#666666" points="129,-184 74,-184 74,-165 129,-165 129,-184"/>
<text text-anchor="middle" x="101.5" y="-172" font-family="Helvetica,sans-Serif" font-size="10.00">shape.h</text>
</a>
</g>
</g>
<!-- Node2 -->
<g id="Node000002" class="node">
<title>Node2</title>
<g id="a_Node000002"><a xlink:title=" ">
<polygon fill="#e0e0e0" stroke="#999999" points="101,-74 0,-74 0,-55 101,-55 101,-74"/>
<text text-anchor="middle" x="50.5" y="-62" font-family="Helvetica,sans-Serif" font-size="10.00">QCoreApplication</text>
</a>
</g>
</g>
<!-- Node1&#45;&gt;Node2 -->
<g id="edge1_Node000001_Node000002" class="edge">
<title>Node1&#45;&gt;Node2</title>
<g id="a_edge1_Node000001_Node000002"><a xlink:title=" ">
<path fill="none" stroke="#63b8ff" d="M73.79,-168.5C51.89,-162.94 22.72,-151.56 8.5,-129 -2.47,-111.58 15.45,-91.85 31.17,-79.07"/>
<polygon fill="#63b8ff" stroke="#63b8ff" points="37.69,-74.05 33.55,-81.79 34.52,-76.49 31.35,-78.94 31.35,-78.94 31.35,-78.94 34.52,-76.49 29.15,-76.09 37.69,-74.05 37.69,-74.05"/>
</a>
</g>
</g>
<!-- Node3 -->
<g id="Node000003" class="node">
<title>Node3</title>
<g id="a_Node000003"><a xlink:title=" ">
<polygon fill="#e0e0e0" stroke="#999999" points="93.5,-129 17.5,-129 17.5,-110 93.5,-110 93.5,-129"/>
<text text-anchor="middle" x="55.5" y="-117" font-family="Helvetica,sans-Serif" font-size="10.00">QJsonObject</text>
</a>
</g>
</g>
<!-- Node1&#45;&gt;Node3 -->
<g id="edge2_Node000001_Node000003" class="edge">
<title>Node1&#45;&gt;Node3</title>
<g id="a_edge2_Node000001_Node000003"><a xlink:title=" ">
<path fill="none" stroke="#63b8ff" d="M93.9,-164.75C86.94,-156.72 76.48,-144.67 68.24,-135.18"/>
<polygon fill="#63b8ff" stroke="#63b8ff" points="62.95,-129.09 70.92,-132.77 65.58,-132.11 68.2,-135.13 68.2,-135.13 68.2,-135.13 65.58,-132.11 65.48,-137.49 62.95,-129.09 62.95,-129.09"/>
</a>
</g>
</g>
<!-- Node4 -->
<g id="Node000004" class="node">
<title>Node4</title>
<g id="a_Node000004"><a xlink:title=" ">
<polygon fill="#e0e0e0" stroke="#999999" points="183,-129 112,-129 112,-110 183,-110 183,-129"/>
<text text-anchor="middle" x="147.5" y="-117" font-family="Helvetica,sans-Serif" font-size="10.00">QJsonValue</text>
</a>
</g>
</g>
<!-- Node1&#45;&gt;Node4 -->
<g id="edge3_Node000001_Node000004" class="edge">
<title>Node1&#45;&gt;Node4</title>
<g id="a_edge3_Node000001_Node000004"><a xlink:title=" ">
<path fill="none" stroke="#63b8ff" d="M109.1,-164.75C116.06,-156.72 126.52,-144.67 134.76,-135.18"/>
<polygon fill="#63b8ff" stroke="#63b8ff" points="140.05,-129.09 137.52,-137.49 137.42,-132.11 134.8,-135.13 134.8,-135.13 134.8,-135.13 137.42,-132.11 132.08,-132.77 140.05,-129.09 140.05,-129.09"/>
</a>
</g>
</g>
<!-- Node5 -->
<g id="Node000005" class="node">
<title>Node5</title>
<g id="a_Node000005"><a xlink:href="shapeid_8h.html" target="_top" xlink:title="Declares the ShapeId class.">
<polygon fill="white" stroke="#666666" points="265.5,-129 201.5,-129 201.5,-110 265.5,-110 265.5,-129"/>
<text text-anchor="middle" x="233.5" y="-117" font-family="Helvetica,sans-Serif" font-size="10.00">shapeid.h</text>
</a>
</g>
</g>
<!-- Node1&#45;&gt;Node5 -->
<g id="edge4_Node000001_Node000005" class="edge">
<title>Node1&#45;&gt;Node5</title>
<g id="a_edge4_Node000001_Node000005"><a xlink:title=" ">
<path fill="none" stroke="#63b8ff" d="M122.71,-164.98C144.8,-156.11 179.58,-142.15 204.27,-132.24"/>
<polygon fill="#63b8ff" stroke="#63b8ff" points="211.91,-129.17 205.82,-135.49 208.19,-130.66 204.48,-132.15 204.48,-132.15 204.48,-132.15 208.19,-130.66 203.14,-128.81 211.91,-129.17 211.91,-129.17"/>
</a>
</g>
</g>
<!-- Node5&#45;&gt;Node2 -->
<g id="edge7_Node000005_Node000002" class="edge">
<title>Node5&#45;&gt;Node2</title>
<g id="a_edge7_Node000005_Node000002"><a xlink:title=" ">
<path fill="none" stroke="#63b8ff" d="M204.1,-109.98C172.58,-100.86 122.44,-86.33 88.08,-76.38"/>
<polygon fill="#63b8ff" stroke="#63b8ff" points="80.13,-74.08 88.82,-72.85 83.97,-75.19 87.82,-76.31 87.82,-76.31 87.82,-76.31 83.97,-75.19 86.82,-79.77 80.13,-74.08 80.13,-74.08"/>
</a>
</g>
</g>
<!-- Node6 -->
<g id="Node000006" class="node">
<title>Node6</title>
<g id="a_Node000006"><a xlink:href="qtsmithy__global_8h.html" target="_top" xlink:title="Global QtSmithy library macros.">
<polygon fill="white" stroke="#666666" points="237.5,-74 133.5,-74 133.5,-55 237.5,-55 237.5,-74"/>
<text text-anchor="middle" x="185.5" y="-62" font-family="Helvetica,sans-Serif" font-size="10.00">qtsmithy_global.h</text>
</a>
</g>
</g>
<!-- Node5&#45;&gt;Node6 -->
<g id="edge5_Node000005_Node000006" class="edge">
<title>Node5&#45;&gt;Node6</title>
<g id="a_edge5_Node000005_Node000006"><a xlink:title=" ">
<path fill="none" stroke="#63b8ff" d="M225.57,-109.75C218.3,-101.72 207.39,-89.67 198.79,-80.18"/>
<polygon fill="#63b8ff" stroke="#63b8ff" points="193.28,-74.09 201.32,-77.6 195.96,-77.05 198.65,-80.02 198.65,-80.02 198.65,-80.02 195.96,-77.05 195.98,-82.44 193.28,-74.09 193.28,-74.09"/>
</a>
</g>
</g>
<!-- Node8 -->
<g id="Node000008" class="node">
<title>Node8</title>
<g id="a_Node000008"><a xlink:title=" ">
<polygon fill="#e0e0e0" stroke="#999999" points="305,-74 256,-74 256,-55 305,-55 305,-74"/>
<text text-anchor="middle" x="280.5" y="-62" font-family="Helvetica,sans-Serif" font-size="10.00">QHash</text>
</a>
</g>
</g>
<!-- Node5&#45;&gt;Node8 -->
<g id="edge8_Node000005_Node000008" class="edge">
<title>Node5&#45;&gt;Node8</title>
<g id="a_edge8_Node000005_Node000008"><a xlink:title=" ">
<path fill="none" stroke="#63b8ff" d="M241.26,-109.75C248.38,-101.72 259.06,-89.67 267.48,-80.18"/>
<polygon fill="#63b8ff" stroke="#63b8ff" points="272.88,-74.09 270.27,-82.46 270.23,-77.08 267.58,-80.07 267.58,-80.07 267.58,-80.07 270.23,-77.08 264.88,-77.69 272.88,-74.09 272.88,-74.09"/>
</a>
</g>
</g>
<!-- Node7 -->
<g id="Node000007" class="node">
<title>Node7</title>
<g id="a_Node000007"><a xlink:title=" ">
<polygon fill="#e0e0e0" stroke="#999999" points="215,-19 156,-19 156,0 215,0 215,-19"/>
<text text-anchor="middle" x="185.5" y="-7" font-family="Helvetica,sans-Serif" font-size="10.00">QtGlobal</text>
</a>
</g>
</g>
<!-- Node6&#45;&gt;Node7 -->
<g id="edge6_Node000006_Node000007" class="edge">
<title>Node6&#45;&gt;Node7</title>
<g id="a_edge6_Node000006_Node000007"><a xlink:title=" ">
<path fill="none" stroke="#63b8ff" d="M185.5,-54.75C185.5,-47.26 185.5,-36.28 185.5,-27.13"/>
<polygon fill="#63b8ff" stroke="#63b8ff" points="185.5,-19.09 189.1,-27.09 185.5,-23.09 185.5,-27.09 185.5,-27.09 185.5,-27.09 185.5,-23.09 181.9,-27.09 185.5,-19.09 185.5,-19.09"/>
</a>
</g>
</g>
</g>
</svg>
