<?xml version="1.0" encoding="UTF-8" standalone="no"?>
<!DOCTYPE svg PUBLIC "-//W3C//DTD SVG 1.1//EN"
 "http://www.w3.org/Graphics/SVG/1.1/DTD/svg11.dtd">
<!-- Generated by graphviz version 2.43.0 (0)
 -->
<!-- Title: shape.h Pages: 1 -->
<svg width="380pt" height="192pt"
 viewBox="0.00 0.00 379.50 192.00" xmlns="http://www.w3.org/2000/svg" xmlns:xlink="http://www.w3.org/1999/xlink">
<g id="graph0" class="graph" transform="scale(1 1) rotate(0) translate(4 188)">
<title>shape.h</title>
<!-- Node1 -->
<g id="node1" class="node">
<title>Node1</title>
<g id="a_node1"><a xlink:title="Declares the Shape class.">
<polygon fill="#999999" stroke="#666666" points="305,-184 250,-184 250,-165 305,-165 305,-184"/>
<text text-anchor="middle" x="277.5" y="-172" font-family="Helvetica,sans-Serif" font-size="10.00">shape.h</text>
</a>
</g>
</g>
<!-- Node2 -->
<g id="node2" class="node">
<title>Node2</title>
<g id="a_node2"><a xlink:href="model_8h.html" target="_top" xlink:title="Declares the Model class.">
<polygon fill="white" stroke="#666666" points="219.5,-129 163.5,-129 163.5,-110 219.5,-110 219.5,-129"/>
<text text-anchor="middle" x="191.5" y="-117" font-family="Helvetica,sans-Serif" font-size="10.00">model.h</text>
</a>
</g>
</g>
<!-- Node1&#45;&gt;Node2 -->
<g id="edge1" class="edge">
<title>Node1&#45;&gt;Node2</title>
<path fill="none" stroke="#63b8ff" d="M256.84,-160.77C240.97,-150.99 219.5,-137.75 205.57,-129.17"/>
<polygon fill="#63b8ff" stroke="#63b8ff" points="263.68,-164.98 254.98,-163.85 260.28,-162.89 256.87,-160.79 256.87,-160.79 256.87,-160.79 260.28,-162.89 258.76,-157.72 263.68,-164.98 263.68,-164.98"/>
</g>
<!-- Node7 -->
<g id="node7" class="node">
<title>Node7</title>
<g id="a_node7"><a xlink:href="shape_8cpp.html" target="_top" xlink:title="Defines the Shape and ShapePrivate classes.">
<polygon fill="white" stroke="#666666" points="371.5,-74 305.5,-74 305.5,-55 371.5,-55 371.5,-74"/>
<text text-anchor="middle" x="338.5" y="-62" font-family="Helvetica,sans-Serif" font-size="10.00">shape.cpp</text>
</a>
</g>
</g>
<!-- Node1&#45;&gt;Node7 -->
<g id="edge7" class="edge">
<title>Node1&#45;&gt;Node7</title>
<path fill="none" stroke="#63b8ff" d="M280.26,-156.91C282.99,-143.58 288,-124.71 296.5,-110 304.68,-95.83 318.22,-82.61 327.71,-74.32"/>
<polygon fill="#63b8ff" stroke="#63b8ff" points="278.79,-164.78 276.73,-156.25 279.53,-160.84 280.26,-156.91 280.26,-156.91 280.26,-156.91 279.53,-160.84 283.8,-157.58 278.79,-164.78 278.79,-164.78"/>
</g>
<!-- Node8 -->
<g id="node8" class="node">
<title>Node8</title>
<g id="a_node8"><a xlink:href="shape__p_8h.html" target="_top" xlink:title="Declares the ShapePrivate class.">
<polygon fill="white" stroke="#666666" points="371.5,-129 305.5,-129 305.5,-110 371.5,-110 371.5,-129"/>
<text text-anchor="middle" x="338.5" y="-117" font-family="Helvetica,sans-Serif" font-size="10.00">shape_p.h</text>
</a>
</g>
</g>
<!-- Node1&#45;&gt;Node8 -->
<g id="edge8" class="edge">
<title>Node1&#45;&gt;Node8</title>
<path fill="none" stroke="#63b8ff" d="M293.39,-159.7C304.5,-150.04 319,-137.44 328.52,-129.17"/>
<polygon fill="#63b8ff" stroke="#63b8ff" points="287.3,-164.98 290.98,-157.02 290.32,-162.36 293.34,-159.74 293.34,-159.74 293.34,-159.74 290.32,-162.36 295.7,-162.46 287.3,-164.98 287.3,-164.98"/>
</g>
<!-- Node3 -->
<g id="node3" class="node">
<title>Node3</title>
<g id="a_node3"><a xlink:href="generator_8cpp_source.html" target="_top" xlink:title=" ">
<polygon fill="white" stroke="#666666" points="83,-74 0,-74 0,-55 83,-55 83,-74"/>
<text text-anchor="middle" x="41.5" y="-62" font-family="Helvetica,sans-Serif" font-size="10.00">generator.cpp</text>
</a>
</g>
</g>
<!-- Node2&#45;&gt;Node3 -->
<g id="edge2" class="edge">
<title>Node2&#45;&gt;Node3</title>
<path fill="none" stroke="#63b8ff" d="M159.86,-107.32C131.88,-97.43 91.64,-83.22 66.04,-74.17"/>
<polygon fill="#63b8ff" stroke="#63b8ff" points="167.4,-109.98 158.66,-110.71 163.63,-108.65 159.86,-107.32 159.86,-107.32 159.86,-107.32 163.63,-108.65 161.06,-103.93 167.4,-109.98 167.4,-109.98"/>
</g>
<!-- Node4 -->
<g id="node4" class="node">
<title>Node4</title>
<g id="a_node4"><a xlink:href="main_8cpp_source.html" target="_top" xlink:title=" ">
<polygon fill="white" stroke="#666666" points="163.5,-74 101.5,-74 101.5,-55 163.5,-55 163.5,-74"/>
<text text-anchor="middle" x="132.5" y="-62" font-family="Helvetica,sans-Serif" font-size="10.00">main.cpp</text>
</a>
</g>
</g>
<!-- Node2&#45;&gt;Node4 -->
<g id="edge3" class="edge">
<title>Node2&#45;&gt;Node4</title>
<path fill="none" stroke="#63b8ff" d="M175.83,-104.42C165.12,-94.81 151.28,-82.37 142.15,-74.17"/>
<polygon fill="#63b8ff" stroke="#63b8ff" points="182.02,-109.98 173.66,-107.32 179.04,-107.31 176.07,-104.64 176.07,-104.64 176.07,-104.64 179.04,-107.31 178.48,-101.96 182.02,-109.98 182.02,-109.98"/>
</g>
<!-- Node5 -->
<g id="node5" class="node">
<title>Node5</title>
<g id="a_node5"><a xlink:href="model_8cpp.html" target="_top" xlink:title="Defines the Model and ModelPrivate classes.">
<polygon fill="white" stroke="#666666" points="256.5,-19 188.5,-19 188.5,0 256.5,0 256.5,-19"/>
<text text-anchor="middle" x="222.5" y="-7" font-family="Helvetica,sans-Serif" font-size="10.00">model.cpp</text>
</a>
</g>
</g>
<!-- Node2&#45;&gt;Node5 -->
<g id="edge4" class="edge">
<title>Node2&#45;&gt;Node5</title>
<path fill="none" stroke="#63b8ff" d="M196.32,-101.69C203.02,-78.37 214.88,-37.05 220.01,-19.16"/>
<polygon fill="#63b8ff" stroke="#63b8ff" points="194.04,-109.66 192.78,-100.98 195.14,-105.82 196.24,-101.97 196.24,-101.97 196.24,-101.97 195.14,-105.82 199.7,-102.97 194.04,-109.66 194.04,-109.66"/>
</g>
<!-- Node6 -->
<g id="node6" class="node">
<title>Node6</title>
<g id="a_node6"><a xlink:href="model__p_8h.html" target="_top" xlink:title="Declares the ModelPrivate class.">
<polygon fill="white" stroke="#666666" points="287.5,-74 219.5,-74 219.5,-55 287.5,-55 287.5,-74"/>
<text text-anchor="middle" x="253.5" y="-62" font-family="Helvetica,sans-Serif" font-size="10.00">model_p.h</text>
</a>
</g>
</g>
<!-- Node2&#45;&gt;Node6 -->
<g id="edge5" class="edge">
<title>Node2&#45;&gt;Node6</title>
<path fill="none" stroke="#63b8ff" d="M207.65,-104.7C218.94,-95.04 233.68,-82.44 243.36,-74.17"/>
<polygon fill="#63b8ff" stroke="#63b8ff" points="201.46,-109.98 205.2,-102.05 204.5,-107.39 207.54,-104.79 207.54,-104.79 207.54,-104.79 204.5,-107.39 209.88,-107.52 201.46,-109.98 201.46,-109.98"/>
</g>
<!-- Node6&#45;&gt;Node5 -->
<g id="edge6" class="edge">
<title>Node6&#45;&gt;Node5</title>
<path fill="none" stroke="#63b8ff" d="M244.32,-47.8C238.82,-38.41 232.05,-26.83 227.52,-19.09"/>
<polygon fill="#63b8ff" stroke="#63b8ff" points="248.38,-54.75 241.23,-49.66 246.36,-51.3 244.34,-47.84 244.34,-47.84 244.34,-47.84 246.36,-51.3 247.45,-46.03 248.38,-54.75 248.38,-54.75"/>
</g>
<!-- Node8&#45;&gt;Node7 -->
<g id="edge9" class="edge">
<title>Node8&#45;&gt;Node7</title>
<path fill="none" stroke="#63b8ff" d="M338.5,-101.67C338.5,-92.5 338.5,-81.52 338.5,-74.09"/>
<polygon fill="#63b8ff" stroke="#63b8ff" points="338.5,-109.75 334.9,-101.75 338.5,-105.75 338.5,-101.75 338.5,-101.75 338.5,-101.75 338.5,-105.75 342.1,-101.75 338.5,-109.75 338.5,-109.75"/>
</g>
</g>
</svg>
