<?xml version="1.0" encoding="UTF-8" standalone="no"?>
<!DOCTYPE svg PUBLIC "-//W3C//DTD SVG 1.1//EN"
 "http://www.w3.org/Graphics/SVG/1.1/DTD/svg11.dtd">
<!-- Generated by graphviz version 2.43.0 (0)
 -->
<!-- Title: shape_p.h Pages: 1 -->
<svg width="456pt" height="247pt"
 viewBox="0.00 0.00 455.50 247.00" xmlns="http://www.w3.org/2000/svg" xmlns:xlink="http://www.w3.org/1999/xlink">
<g id="graph0" class="graph" transform="scale(1 1) rotate(0) translate(4 243)">
<title>shape_p.h</title>
<!-- Node1 -->
<g id="Node000001" class="node">
<title>Node1</title>
<g id="a_Node000001"><a xlink:title="Declares the ShapePrivate class.">
<polygon fill="#999999" stroke="#666666" points="297,-239 231,-239 231,-220 297,-220 297,-239"/>
<text text-anchor="middle" x="264" y="-227" font-family="Helvetica,sans-Serif" font-size="10.00">shape_p.h</text>
</a>
</g>
</g>
<!-- Node2 -->
<g id="Node000002" class="node">
<title>Node2</title>
<g id="a_Node000002"><a xlink:href="shape_8h.html" target="_top" xlink:title="Declares the Shape class.">
<polygon fill="white" stroke="#666666" points="314.5,-184 213.5,-184 213.5,-165 314.5,-165 314.5,-184"/>
<text text-anchor="middle" x="264" y="-172" font-family="Helvetica,sans-Serif" font-size="10.00">qtsmithy/shape.h</text>
</a>
</g>
</g>
<!-- Node1&#45;&gt;Node2 -->
<g id="edge1_Node000001_Node000002" class="edge">
<title>Node1&#45;&gt;Node2</title>
<g id="a_edge1_Node000001_Node000002"><a xlink:title=" ">
<path fill="none" stroke="#63b8ff" d="M264,-219.75C264,-212.26 264,-201.28 264,-192.13"/>
<polygon fill="#63b8ff" stroke="#63b8ff" points="264,-184.09 267.6,-192.09 264,-188.09 264,-192.09 264,-192.09 264,-192.09 264,-188.09 260.4,-192.09 264,-184.09 264,-184.09"/>
</a>
</g>
</g>
<!-- Node3 -->
<g id="Node000003" class="node">
<title>Node3</title>
<g id="a_Node000003"><a xlink:href="shapeid_8h.html" target="_top" xlink:title="Declares the ShapeId class.">
<polygon fill="white" stroke="#666666" points="217,-129 153,-129 153,-110 217,-110 217,-129"/>
<text text-anchor="middle" x="185" y="-117" font-family="Helvetica,sans-Serif" font-size="10.00">shapeid.h</text>
</a>
</g>
</g>
<!-- Node1&#45;&gt;Node3 -->
<g id="edge11_Node000001_Node000003" class="edge">
<title>Node1&#45;&gt;Node3</title>
<g id="a_edge11_Node000001_Node000003"><a xlink:title=" ">
<path fill="none" stroke="#63b8ff" d="M247.13,-219.97C233.6,-212.3 215.1,-199.82 204,-184 194.13,-169.94 189.31,-150.68 187.01,-137.07"/>
<polygon fill="#63b8ff" stroke="#63b8ff" points="185.83,-129.05 190.56,-136.44 186.41,-133.01 186.99,-136.97 186.99,-136.97 186.99,-136.97 186.41,-133.01 183.43,-137.49 185.83,-129.05 185.83,-129.05"/>
</a>
</g>
</g>
<!-- Node10 -->
<g id="Node000010" class="node">
<title>Node10</title>
<g id="a_Node000010"><a xlink:title=" ">
<polygon fill="#e0e0e0" stroke="#999999" points="439.5,-184 332.5,-184 332.5,-165 439.5,-165 439.5,-184"/>
<text text-anchor="middle" x="386" y="-172" font-family="Helvetica,sans-Serif" font-size="10.00">QLoggingCategory</text>
</a>
</g>
</g>
<!-- Node1&#45;&gt;Node10 -->
<g id="edge12_Node000001_Node000010" class="edge">
<title>Node1&#45;&gt;Node10</title>
<g id="a_edge12_Node000001_Node000010"><a xlink:title=" ">
<path fill="none" stroke="#63b8ff" d="M283.6,-219.98C303.93,-211.15 335.89,-197.27 358.69,-187.36"/>
<polygon fill="#63b8ff" stroke="#63b8ff" points="366.04,-184.17 360.14,-190.66 362.37,-185.76 358.7,-187.36 358.7,-187.36 358.7,-187.36 362.37,-185.76 357.27,-184.06 366.04,-184.17 366.04,-184.17"/>
</a>
</g>
</g>
<!-- Node2&#45;&gt;Node3 -->
<g id="edge2_Node000002_Node000003" class="edge">
<title>Node2&#45;&gt;Node3</title>
<g id="a_edge2_Node000002_Node000003"><a xlink:title=" ">
<path fill="none" stroke="#63b8ff" d="M251.31,-164.98C238.71,-156.54 219.23,-143.47 204.64,-133.68"/>
<polygon fill="#63b8ff" stroke="#63b8ff" points="197.92,-129.17 206.57,-130.64 201.25,-131.4 204.57,-133.63 204.57,-133.63 204.57,-133.63 201.25,-131.4 202.56,-136.62 197.92,-129.17 197.92,-129.17"/>
</a>
</g>
</g>
<!-- Node6 -->
<g id="Node000006" class="node">
<title>Node6</title>
<g id="a_Node000006"><a xlink:title=" ">
<polygon fill="#e0e0e0" stroke="#999999" points="328.5,-74 227.5,-74 227.5,-55 328.5,-55 328.5,-74"/>
<text text-anchor="middle" x="278" y="-62" font-family="Helvetica,sans-Serif" font-size="10.00">QCoreApplication</text>
</a>
</g>
</g>
<!-- Node2&#45;&gt;Node6 -->
<g id="edge8_Node000002_Node000006" class="edge">
<title>Node2&#45;&gt;Node6</title>
<g id="a_edge8_Node000002_Node000006"><a xlink:title=" ">
<path fill="none" stroke="#63b8ff" d="M265.15,-164.66C267.47,-146.69 272.8,-105.64 275.81,-82.38"/>
<polygon fill="#63b8ff" stroke="#63b8ff" points="276.88,-74.16 279.42,-82.55 276.36,-78.13 275.85,-82.09 275.85,-82.09 275.85,-82.09 276.36,-78.13 272.28,-81.63 276.88,-74.16 276.88,-74.16"/>
</a>
</g>
</g>
<!-- Node8 -->
<g id="Node000008" class="node">
<title>Node8</title>
<g id="a_Node000008"><a xlink:title=" ">
<polygon fill="#e0e0e0" stroke="#999999" points="358,-129 282,-129 282,-110 358,-110 358,-129"/>
<text text-anchor="middle" x="320" y="-117" font-family="Helvetica,sans-Serif" font-size="10.00">QJsonObject</text>
</a>
</g>
</g>
<!-- Node2&#45;&gt;Node8 -->
<g id="edge9_Node000002_Node000008" class="edge">
<title>Node2&#45;&gt;Node8</title>
<g id="a_edge9_Node000002_Node000008"><a xlink:title=" ">
<path fill="none" stroke="#63b8ff" d="M273,-164.98C281.6,-156.84 294.73,-144.41 304.93,-134.76"/>
<polygon fill="#63b8ff" stroke="#63b8ff" points="310.84,-129.17 307.5,-137.28 307.93,-131.92 305.03,-134.67 305.03,-134.67 305.03,-134.67 307.93,-131.92 302.55,-132.05 310.84,-129.17 310.84,-129.17"/>
</a>
</g>
</g>
<!-- Node9 -->
<g id="Node000009" class="node">
<title>Node9</title>
<g id="a_Node000009"><a xlink:title=" ">
<polygon fill="#e0e0e0" stroke="#999999" points="447.5,-129 376.5,-129 376.5,-110 447.5,-110 447.5,-129"/>
<text text-anchor="middle" x="412" y="-117" font-family="Helvetica,sans-Serif" font-size="10.00">QJsonValue</text>
</a>
</g>
</g>
<!-- Node2&#45;&gt;Node9 -->
<g id="edge10_Node000002_Node000009" class="edge">
<title>Node2&#45;&gt;Node9</title>
<g id="a_edge10_Node000002_Node000009"><a xlink:title=" ">
<path fill="none" stroke="#63b8ff" d="M287.78,-164.98C312.77,-156.04 352.22,-141.91 379.95,-131.98"/>
<polygon fill="#63b8ff" stroke="#63b8ff" points="387.79,-129.17 381.47,-135.26 384.02,-130.52 380.26,-131.87 380.26,-131.87 380.26,-131.87 384.02,-130.52 379.04,-128.48 387.79,-129.17 387.79,-129.17"/>
</a>
</g>
</g>
<!-- Node4 -->
<g id="Node000004" class="node">
<title>Node4</title>
<g id="a_Node000004"><a xlink:href="qtsmithy__global_8h.html" target="_top" xlink:title="Global QtSmithy library macros.">
<polygon fill="white" stroke="#666666" points="104,-74 0,-74 0,-55 104,-55 104,-74"/>
<text text-anchor="middle" x="52" y="-62" font-family="Helvetica,sans-Serif" font-size="10.00">qtsmithy_global.h</text>
</a>
</g>
</g>
<!-- Node3&#45;&gt;Node4 -->
<g id="edge3_Node000003_Node000004" class="edge">
<title>Node3&#45;&gt;Node4</title>
<g id="a_edge3_Node000003_Node000004"><a xlink:title=" ">
<path fill="none" stroke="#63b8ff" d="M163.63,-109.98C141.37,-101.11 106.33,-87.15 81.45,-77.24"/>
<polygon fill="#63b8ff" stroke="#63b8ff" points="73.76,-74.17 82.52,-73.79 77.47,-75.65 81.19,-77.13 81.19,-77.13 81.19,-77.13 77.47,-75.65 79.86,-80.48 73.76,-74.17 73.76,-74.17"/>
</a>
</g>
</g>
<!-- Node5 -->
<g id="Node000005" class="node">
<title>Node5</title>
<g id="a_Node000005"><a xlink:title=" ">
<polygon fill="#e0e0e0" stroke="#999999" points="121.5,-19 62.5,-19 62.5,0 121.5,0 121.5,-19"/>
<text text-anchor="middle" x="92" y="-7" font-family="Helvetica,sans-Serif" font-size="10.00">QtGlobal</text>
</a>
</g>
</g>
<!-- Node3&#45;&gt;Node5 -->
<g id="edge5_Node000003_Node000005" class="edge">
<title>Node3&#45;&gt;Node5</title>
<g id="a_edge5_Node000003_Node000005"><a xlink:title=" ">
<path fill="none" stroke="#63b8ff" d="M177.39,-109.66C161.44,-91.14 124.36,-48.08 104.72,-25.28"/>
<polygon fill="#63b8ff" stroke="#63b8ff" points="99.46,-19.16 107.4,-22.87 102.07,-22.19 104.68,-25.22 104.68,-25.22 104.68,-25.22 102.07,-22.19 101.95,-27.57 99.46,-19.16 99.46,-19.16"/>
</a>
</g>
</g>
<!-- Node3&#45;&gt;Node6 -->
<g id="edge6_Node000003_Node000006" class="edge">
<title>Node3&#45;&gt;Node6</title>
<g id="a_edge6_Node000003_Node000006"><a xlink:title=" ">
<path fill="none" stroke="#63b8ff" d="M199.94,-109.98C215.04,-101.38 238.53,-87.99 255.81,-78.15"/>
<polygon fill="#63b8ff" stroke="#63b8ff" points="262.79,-74.17 257.62,-81.26 259.31,-76.15 255.84,-78.13 255.84,-78.13 255.84,-78.13 259.31,-76.15 254.05,-75 262.79,-74.17 262.79,-74.17"/>
</a>
</g>
</g>
<!-- Node7 -->
<g id="Node000007" class="node">
<title>Node7</title>
<g id="a_Node000007"><a xlink:title=" ">
<polygon fill="#e0e0e0" stroke="#999999" points="209.5,-74 160.5,-74 160.5,-55 209.5,-55 209.5,-74"/>
<text text-anchor="middle" x="185" y="-62" font-family="Helvetica,sans-Serif" font-size="10.00">QHash</text>
</a>
</g>
</g>
<!-- Node3&#45;&gt;Node7 -->
<g id="edge7_Node000003_Node000007" class="edge">
<title>Node3&#45;&gt;Node7</title>
<g id="a_edge7_Node000003_Node000007"><a xlink:title=" ">
<path fill="none" stroke="#63b8ff" d="M185,-109.75C185,-102.26 185,-91.28 185,-82.13"/>
<polygon fill="#63b8ff" stroke="#63b8ff" points="185,-74.09 188.6,-82.09 185,-78.09 185,-82.09 185,-82.09 185,-82.09 185,-78.09 181.4,-82.09 185,-74.09 185,-74.09"/>
</a>
</g>
</g>
<!-- Node4&#45;&gt;Node5 -->
<g id="edge4_Node000004_Node000005" class="edge">
<title>Node4&#45;&gt;Node5</title>
<g id="a_edge4_Node000004_Node000005"><a xlink:title=" ">
<path fill="none" stroke="#63b8ff" d="M58.61,-54.75C64.55,-46.88 73.41,-35.14 80.51,-25.73"/>
<polygon fill="#63b8ff" stroke="#63b8ff" points="85.52,-19.09 83.57,-27.64 83.11,-22.28 80.7,-25.47 80.7,-25.47 80.7,-25.47 83.11,-22.28 77.82,-23.31 85.52,-19.09 85.52,-19.09"/>
</a>
</g>
</g>
</g>
</svg>
