<?xml version="1.0" encoding="UTF-8" standalone="no"?>
<!DOCTYPE svg PUBLIC "-//W3C//DTD SVG 1.1//EN"
 "http://www.w3.org/Graphics/SVG/1.1/DTD/svg11.dtd">
<!-- Generated by graphviz version 2.43.0 (0)
 -->
<!-- Title: shape.cpp Pages: 1 -->
<svg width="394pt" height="302pt"
 viewBox="0.00 0.00 393.50 302.00" xmlns="http://www.w3.org/2000/svg" xmlns:xlink="http://www.w3.org/1999/xlink">
<g id="graph0" class="graph" transform="scale(1 1) rotate(0) translate(4 298)">
<title>shape.cpp</title>
<!-- Node1 -->
<g id="Node000001" class="node">
<title>Node1</title>
<g id="a_Node000001"><a xlink:title="Defines the Shape and ShapePrivate classes.">
<polygon fill="#999999" stroke="#666666" points="199.5,-294 133.5,-294 133.5,-275 199.5,-275 199.5,-294"/>
<text text-anchor="middle" x="166.5" y="-282" font-family="Helvetica,sans-Serif" font-size="10.00">shape.cpp</text>
</a>
</g>
</g>
<!-- Node2 -->
<g id="Node000002" class="node">
<title>Node2</title>
<g id="a_Node000002"><a xlink:href="shape_8h.html" target="_top" xlink:title="Declares the Shape class.">
<polygon fill="white" stroke="#666666" points="111,-184 10,-184 10,-165 111,-165 111,-184"/>
<text text-anchor="middle" x="60.5" y="-172" font-family="Helvetica,sans-Serif" font-size="10.00">qtsmithy/shape.h</text>
</a>
</g>
</g>
<!-- Node1&#45;&gt;Node2 -->
<g id="edge1_Node000001_Node000002" class="edge">
<title>Node1&#45;&gt;Node2</title>
<g id="a_edge1_Node000001_Node000002"><a xlink:title=" ">
<path fill="none" stroke="#63b8ff" d="M157.83,-274.66C139.57,-256.06 97.02,-212.71 74.71,-189.98"/>
<polygon fill="#63b8ff" stroke="#63b8ff" points="69,-184.16 77.17,-187.35 71.8,-187.01 74.6,-189.87 74.6,-189.87 74.6,-189.87 71.8,-187.01 72.03,-192.39 69,-184.16 69,-184.16"/>
</a>
</g>
</g>
<!-- Node10 -->
<g id="Node000010" class="node">
<title>Node10</title>
<g id="a_Node000010"><a xlink:href="shape__p_8h.html" target="_top" xlink:title="Declares the ShapePrivate class.">
<polygon fill="white" stroke="#666666" points="199.5,-239 133.5,-239 133.5,-220 199.5,-220 199.5,-239"/>
<text text-anchor="middle" x="166.5" y="-227" font-family="Helvetica,sans-Serif" font-size="10.00">shape_p.h</text>
</a>
</g>
</g>
<!-- Node1&#45;&gt;Node10 -->
<g id="edge11_Node000001_Node000010" class="edge">
<title>Node1&#45;&gt;Node10</title>
<g id="a_edge11_Node000001_Node000010"><a xlink:title=" ">
<path fill="none" stroke="#63b8ff" d="M166.5,-274.75C166.5,-267.26 166.5,-256.28 166.5,-247.13"/>
<polygon fill="#63b8ff" stroke="#63b8ff" points="166.5,-239.09 170.1,-247.09 166.5,-243.09 166.5,-247.09 166.5,-247.09 166.5,-247.09 166.5,-243.09 162.9,-247.09 166.5,-239.09 166.5,-239.09"/>
</a>
</g>
</g>
<!-- Node12 -->
<g id="Node000012" class="node">
<title>Node12</title>
<g id="a_Node000012"><a xlink:title=" ">
<polygon fill="#e0e0e0" stroke="#999999" points="289,-239 218,-239 218,-220 289,-220 289,-239"/>
<text text-anchor="middle" x="253.5" y="-227" font-family="Helvetica,sans-Serif" font-size="10.00">QJsonArray</text>
</a>
</g>
</g>
<!-- Node1&#45;&gt;Node12 -->
<g id="edge15_Node000001_Node000012" class="edge">
<title>Node1&#45;&gt;Node12</title>
<g id="a_edge15_Node000001_Node000012"><a xlink:title=" ">
<path fill="none" stroke="#63b8ff" d="M180.48,-274.98C194.47,-266.46 216.19,-253.23 232.3,-243.41"/>
<polygon fill="#63b8ff" stroke="#63b8ff" points="239.27,-239.17 234.31,-246.41 235.85,-241.25 232.44,-243.33 232.44,-243.33 232.44,-243.33 235.85,-241.25 230.56,-240.26 239.27,-239.17 239.27,-239.17"/>
</a>
</g>
</g>
<!-- Node3 -->
<g id="Node000003" class="node">
<title>Node3</title>
<g id="a_Node000003"><a xlink:href="shapeid_8h.html" target="_top" xlink:title="Declares the ShapeId class.">
<polygon fill="white" stroke="#666666" points="270.5,-129 206.5,-129 206.5,-110 270.5,-110 270.5,-129"/>
<text text-anchor="middle" x="238.5" y="-117" font-family="Helvetica,sans-Serif" font-size="10.00">shapeid.h</text>
</a>
</g>
</g>
<!-- Node2&#45;&gt;Node3 -->
<g id="edge2_Node000002_Node000003" class="edge">
<title>Node2&#45;&gt;Node3</title>
<g id="a_edge2_Node000002_Node000003"><a xlink:title=" ">
<path fill="none" stroke="#63b8ff" d="M89.1,-164.98C119.76,-155.86 168.53,-141.33 201.95,-131.38"/>
<polygon fill="#63b8ff" stroke="#63b8ff" points="209.68,-129.08 203.04,-134.82 205.84,-130.22 202.01,-131.37 202.01,-131.37 202.01,-131.37 205.84,-130.22 200.98,-127.91 209.68,-129.08 209.68,-129.08"/>
</a>
</g>
</g>
<!-- Node6 -->
<g id="Node000006" class="node">
<title>Node6</title>
<g id="a_Node000006"><a xlink:title=" ">
<polygon fill="#e0e0e0" stroke="#999999" points="101,-74 0,-74 0,-55 101,-55 101,-74"/>
<text text-anchor="middle" x="50.5" y="-62" font-family="Helvetica,sans-Serif" font-size="10.00">QCoreApplication</text>
</a>
</g>
</g>
<!-- Node2&#45;&gt;Node6 -->
<g id="edge8_Node000002_Node000006" class="edge">
<title>Node2&#45;&gt;Node6</title>
<g id="a_edge8_Node000002_Node000006"><a xlink:title=" ">
<path fill="none" stroke="#63b8ff" d="M46.43,-164.89C35.15,-157.1 20.16,-144.48 13.5,-129 5.87,-111.27 20.17,-92.33 33.15,-79.79"/>
<polygon fill="#63b8ff" stroke="#63b8ff" points="39.32,-74.18 35.82,-82.23 36.36,-76.88 33.4,-79.57 33.4,-79.57 33.4,-79.57 36.36,-76.88 30.98,-76.9 39.32,-74.18 39.32,-74.18"/>
</a>
</g>
</g>
<!-- Node8 -->
<g id="Node000008" class="node">
<title>Node8</title>
<g id="a_Node000008"><a xlink:title=" ">
<polygon fill="#e0e0e0" stroke="#999999" points="98.5,-129 22.5,-129 22.5,-110 98.5,-110 98.5,-129"/>
<text text-anchor="middle" x="60.5" y="-117" font-family="Helvetica,sans-Serif" font-size="10.00">QJsonObject</text>
</a>
</g>
</g>
<!-- Node2&#45;&gt;Node8 -->
<g id="edge9_Node000002_Node000008" class="edge">
<title>Node2&#45;&gt;Node8</title>
<g id="a_edge9_Node000002_Node000008"><a xlink:title=" ">
<path fill="none" stroke="#63b8ff" d="M60.5,-164.75C60.5,-157.26 60.5,-146.28 60.5,-137.13"/>
<polygon fill="#63b8ff" stroke="#63b8ff" points="60.5,-129.09 64.1,-137.09 60.5,-133.09 60.5,-137.09 60.5,-137.09 60.5,-137.09 60.5,-133.09 56.9,-137.09 60.5,-129.09 60.5,-129.09"/>
</a>
</g>
</g>
<!-- Node9 -->
<g id="Node000009" class="node">
<title>Node9</title>
<g id="a_Node000009"><a xlink:title=" ">
<polygon fill="#e0e0e0" stroke="#999999" points="188,-129 117,-129 117,-110 188,-110 188,-129"/>
<text text-anchor="middle" x="152.5" y="-117" font-family="Helvetica,sans-Serif" font-size="10.00">QJsonValue</text>
</a>
</g>
</g>
<!-- Node2&#45;&gt;Node9 -->
<g id="edge10_Node000002_Node000009" class="edge">
<title>Node2&#45;&gt;Node9</title>
<g id="a_edge10_Node000002_Node000009"><a xlink:title=" ">
<path fill="none" stroke="#63b8ff" d="M75.28,-164.98C90.08,-156.46 113.04,-143.23 130.09,-133.41"/>
<polygon fill="#63b8ff" stroke="#63b8ff" points="137.45,-129.17 132.31,-136.28 133.98,-131.17 130.52,-133.16 130.52,-133.16 130.52,-133.16 133.98,-131.17 128.72,-130.04 137.45,-129.17 137.45,-129.17"/>
</a>
</g>
</g>
<!-- Node4 -->
<g id="Node000004" class="node">
<title>Node4</title>
<g id="a_Node000004"><a xlink:href="qtsmithy__global_8h.html" target="_top" xlink:title="Global QtSmithy library macros.">
<polygon fill="white" stroke="#666666" points="385.5,-74 281.5,-74 281.5,-55 385.5,-55 385.5,-74"/>
<text text-anchor="middle" x="333.5" y="-62" font-family="Helvetica,sans-Serif" font-size="10.00">qtsmithy_global.h</text>
</a>
</g>
</g>
<!-- Node3&#45;&gt;Node4 -->
<g id="edge3_Node000003_Node000004" class="edge">
<title>Node3&#45;&gt;Node4</title>
<g id="a_edge3_Node000003_Node000004"><a xlink:title=" ">
<path fill="none" stroke="#63b8ff" d="M253.76,-109.98C269.18,-101.38 293.19,-87.99 310.83,-78.15"/>
<polygon fill="#63b8ff" stroke="#63b8ff" points="317.96,-74.17 312.73,-81.21 314.47,-76.12 310.97,-78.07 310.97,-78.07 310.97,-78.07 314.47,-76.12 309.22,-74.92 317.96,-74.17 317.96,-74.17"/>
</a>
</g>
</g>
<!-- Node5 -->
<g id="Node000005" class="node">
<title>Node5</title>
<g id="a_Node000005"><a xlink:title=" ">
<polygon fill="#e0e0e0" stroke="#999999" points="289,-19 230,-19 230,0 289,0 289,-19"/>
<text text-anchor="middle" x="259.5" y="-7" font-family="Helvetica,sans-Serif" font-size="10.00">QtGlobal</text>
</a>
</g>
</g>
<!-- Node3&#45;&gt;Node5 -->
<g id="edge5_Node000003_Node000005" class="edge">
<title>Node3&#45;&gt;Node5</title>
<g id="a_edge5_Node000003_Node000005"><a xlink:title=" ">
<path fill="none" stroke="#63b8ff" d="M228.55,-109.98C215.7,-97.89 196.06,-75 205.5,-55 211.81,-41.63 224.33,-30.91 235.73,-23.35"/>
<polygon fill="#63b8ff" stroke="#63b8ff" points="242.61,-19.05 237.73,-26.34 239.22,-21.17 235.82,-23.28 235.82,-23.28 235.82,-23.28 239.22,-21.17 233.92,-20.23 242.61,-19.05 242.61,-19.05"/>
</a>
</g>
</g>
<!-- Node3&#45;&gt;Node6 -->
<g id="edge6_Node000003_Node000006" class="edge">
<title>Node3&#45;&gt;Node6</title>
<g id="a_edge6_Node000003_Node000006"><a xlink:title=" ">
<path fill="none" stroke="#63b8ff" d="M208.29,-109.98C175.77,-100.82 123.97,-86.21 88.66,-76.26"/>
<polygon fill="#63b8ff" stroke="#63b8ff" points="80.94,-74.08 89.62,-72.79 84.79,-75.17 88.64,-76.25 88.64,-76.25 88.64,-76.25 84.79,-75.17 87.67,-79.72 80.94,-74.08 80.94,-74.08"/>
</a>
</g>
</g>
<!-- Node7 -->
<g id="Node000007" class="node">
<title>Node7</title>
<g id="a_Node000007"><a xlink:title=" ">
<polygon fill="#e0e0e0" stroke="#999999" points="263,-74 214,-74 214,-55 263,-55 263,-74"/>
<text text-anchor="middle" x="238.5" y="-62" font-family="Helvetica,sans-Serif" font-size="10.00">QHash</text>
</a>
</g>
</g>
<!-- Node3&#45;&gt;Node7 -->
<g id="edge7_Node000003_Node000007" class="edge">
<title>Node3&#45;&gt;Node7</title>
<g id="a_edge7_Node000003_Node000007"><a xlink:title=" ">
<path fill="none" stroke="#63b8ff" d="M238.5,-109.75C238.5,-102.26 238.5,-91.28 238.5,-82.13"/>
<polygon fill="#63b8ff" stroke="#63b8ff" points="238.5,-74.09 242.1,-82.09 238.5,-78.09 238.5,-82.09 238.5,-82.09 238.5,-82.09 238.5,-78.09 234.9,-82.09 238.5,-74.09 238.5,-74.09"/>
</a>
</g>
</g>
<!-- Node4&#45;&gt;Node5 -->
<g id="edge4_Node000004_Node000005" class="edge">
<title>Node4&#45;&gt;Node5</title>
<g id="a_edge4_Node000004_Node000005"><a xlink:title=" ">
<path fill="none" stroke="#63b8ff" d="M321.61,-54.98C309.92,-46.61 291.9,-33.7 278.27,-23.95"/>
<polygon fill="#63b8ff" stroke="#63b8ff" points="271.61,-19.17 280.21,-20.9 274.86,-21.5 278.11,-23.83 278.11,-23.83 278.11,-23.83 274.86,-21.5 276.01,-26.76 271.61,-19.17 271.61,-19.17"/>
</a>
</g>
</g>
<!-- Node10&#45;&gt;Node2 -->
<g id="edge12_Node000010_Node000002" class="edge">
<title>Node10&#45;&gt;Node2</title>
<g id="a_edge12_Node000010_Node000002"><a xlink:title=" ">
<path fill="none" stroke="#63b8ff" d="M149.47,-219.98C132.03,-211.27 104.76,-197.63 85.01,-187.75"/>
<polygon fill="#63b8ff" stroke="#63b8ff" points="77.84,-184.17 86.61,-184.53 81.42,-185.96 85,-187.75 85,-187.75 85,-187.75 81.42,-185.96 83.39,-190.97 77.84,-184.17 77.84,-184.17"/>
</a>
</g>
</g>
<!-- Node10&#45;&gt;Node3 -->
<g id="edge13_Node000010_Node000003" class="edge">
<title>Node10&#45;&gt;Node3</title>
<g id="a_edge13_Node000010_Node000003"><a xlink:title=" ">
<path fill="none" stroke="#63b8ff" d="M196.77,-219.92C214.34,-213.21 235.02,-201.94 245.5,-184 253.84,-169.73 250.1,-150.55 245.51,-137.01"/>
<polygon fill="#63b8ff" stroke="#63b8ff" points="242.65,-129.41 248.84,-135.63 244.06,-133.15 245.47,-136.9 245.47,-136.9 245.47,-136.9 244.06,-133.15 242.1,-138.16 242.65,-129.41 242.65,-129.41"/>
</a>
</g>
</g>
<!-- Node11 -->
<g id="Node000011" class="node">
<title>Node11</title>
<g id="a_Node000011"><a xlink:title=" ">
<polygon fill="#e0e0e0" stroke="#999999" points="236,-184 129,-184 129,-165 236,-165 236,-184"/>
<text text-anchor="middle" x="182.5" y="-172" font-family="Helvetica,sans-Serif" font-size="10.00">QLoggingCategory</text>
</a>
</g>
</g>
<!-- Node10&#45;&gt;Node11 -->
<g id="edge14_Node000010_Node000011" class="edge">
<title>Node10&#45;&gt;Node11</title>
<g id="a_edge14_Node000010_Node000011"><a xlink:title=" ">
<path fill="none" stroke="#63b8ff" d="M169.14,-219.75C171.43,-212.18 174.79,-201.05 177.57,-191.84"/>
<polygon fill="#63b8ff" stroke="#63b8ff" points="179.91,-184.09 181.04,-192.79 178.75,-187.92 177.59,-191.75 177.59,-191.75 177.59,-191.75 178.75,-187.92 174.15,-190.71 179.91,-184.09 179.91,-184.09"/>
</a>
</g>
</g>
</g>
</svg>
