<?xml version="1.0" encoding="UTF-8" standalone="no"?>
<!DOCTYPE svg PUBLIC "-//W3C//DTD SVG 1.1//EN"
 "http://www.w3.org/Graphics/SVG/1.1/DTD/svg11.dtd">
<!-- Generated by graphviz version 2.43.0 (0)
 -->
<!-- Title: shape.cpp Pages: 1 -->
<svg width="370pt" height="302pt"
 viewBox="0.00 0.00 370.00 302.00" xmlns="http://www.w3.org/2000/svg" xmlns:xlink="http://www.w3.org/1999/xlink">
<g id="graph0" class="graph" transform="scale(1 1) rotate(0) translate(4 298)">
<title>shape.cpp</title>
<!-- Node1 -->
<g id="node1" class="node">
<title>Node1</title>
<g id="a_node1"><a xlink:title="Defines the Shape and ShapePrivate classes.">
<polygon fill="#999999" stroke="#666666" points="254.5,-294 188.5,-294 188.5,-275 254.5,-275 254.5,-294"/>
<text text-anchor="middle" x="221.5" y="-282" font-family="Helvetica,sans-Serif" font-size="10.00">shape.cpp</text>
</a>
</g>
</g>
<!-- Node2 -->
<g id="node2" class="node">
<title>Node2</title>
<g id="a_node2"><a xlink:href="shape_8h.html" target="_top" xlink:title="Declares the Shape class.">
<polygon fill="white" stroke="#666666" points="198,-184 97,-184 97,-165 198,-165 198,-184"/>
<text text-anchor="middle" x="147.5" y="-172" font-family="Helvetica,sans-Serif" font-size="10.00">qtsmithy/shape.h</text>
</a>
</g>
</g>
<!-- Node1&#45;&gt;Node2 -->
<g id="edge1" class="edge">
<title>Node1&#45;&gt;Node2</title>
<path fill="none" stroke="#63b8ff" d="M211.98,-274.97C202.88,-266.47 189.14,-252.74 179.5,-239 168.93,-223.93 159.82,-204.88 154.05,-191.6"/>
<polygon fill="#63b8ff" stroke="#63b8ff" points="150.91,-184.16 157.34,-190.13 152.47,-187.84 154.03,-191.53 154.03,-191.53 154.03,-191.53 152.47,-187.84 150.71,-192.93 150.91,-184.16 150.91,-184.16"/>
</g>
<!-- Node10 -->
<g id="node10" class="node">
<title>Node10</title>
<g id="a_node10"><a xlink:href="shape__p_8h.html" target="_top" xlink:title="Declares the ShapePrivate class.">
<polygon fill="white" stroke="#666666" points="254.5,-239 188.5,-239 188.5,-220 254.5,-220 254.5,-239"/>
<text text-anchor="middle" x="221.5" y="-227" font-family="Helvetica,sans-Serif" font-size="10.00">shape_p.h</text>
</a>
</g>
</g>
<!-- Node1&#45;&gt;Node10 -->
<g id="edge10" class="edge">
<title>Node1&#45;&gt;Node10</title>
<path fill="none" stroke="#63b8ff" d="M221.5,-274.75C221.5,-267.26 221.5,-256.28 221.5,-247.13"/>
<polygon fill="#63b8ff" stroke="#63b8ff" points="221.5,-239.09 225.1,-247.09 221.5,-243.09 221.5,-247.09 221.5,-247.09 221.5,-247.09 221.5,-243.09 217.9,-247.09 221.5,-239.09 221.5,-239.09"/>
</g>
<!-- Node12 -->
<g id="node12" class="node">
<title>Node12</title>
<g id="a_node12"><a xlink:title=" ">
<polygon fill="#e0e0e0" stroke="#999999" points="344,-239 273,-239 273,-220 344,-220 344,-239"/>
<text text-anchor="middle" x="308.5" y="-227" font-family="Helvetica,sans-Serif" font-size="10.00">QJsonArray</text>
</a>
</g>
</g>
<!-- Node1&#45;&gt;Node12 -->
<g id="edge14" class="edge">
<title>Node1&#45;&gt;Node12</title>
<path fill="none" stroke="#63b8ff" d="M235.48,-274.98C249.47,-266.46 271.19,-253.23 287.3,-243.41"/>
<polygon fill="#63b8ff" stroke="#63b8ff" points="294.27,-239.17 289.31,-246.41 290.85,-241.25 287.44,-243.33 287.44,-243.33 287.44,-243.33 290.85,-241.25 285.56,-240.26 294.27,-239.17 294.27,-239.17"/>
</g>
<!-- Node3 -->
<g id="node3" class="node">
<title>Node3</title>
<g id="a_node3"><a xlink:title=" ">
<polygon fill="#e0e0e0" stroke="#999999" points="101,-74 0,-74 0,-55 101,-55 101,-74"/>
<text text-anchor="middle" x="50.5" y="-62" font-family="Helvetica,sans-Serif" font-size="10.00">QCoreApplication</text>
</a>
</g>
</g>
<!-- Node2&#45;&gt;Node3 -->
<g id="edge2" class="edge">
<title>Node2&#45;&gt;Node3</title>
<path fill="none" stroke="#63b8ff" d="M96.87,-171.55C65.94,-167.41 28.59,-156.53 8.5,-129 -3.7,-112.28 14.75,-92.25 30.91,-79.22"/>
<polygon fill="#63b8ff" stroke="#63b8ff" points="37.6,-74.09 33.44,-81.81 34.43,-76.52 31.25,-78.96 31.25,-78.96 31.25,-78.96 34.43,-76.52 29.06,-76.1 37.6,-74.09 37.6,-74.09"/>
</g>
<!-- Node4 -->
<g id="node4" class="node">
<title>Node4</title>
<g id="a_node4"><a xlink:title=" ">
<polygon fill="#e0e0e0" stroke="#999999" points="93.5,-129 17.5,-129 17.5,-110 93.5,-110 93.5,-129"/>
<text text-anchor="middle" x="55.5" y="-117" font-family="Helvetica,sans-Serif" font-size="10.00">QJsonObject</text>
</a>
</g>
</g>
<!-- Node2&#45;&gt;Node4 -->
<g id="edge3" class="edge">
<title>Node2&#45;&gt;Node4</title>
<path fill="none" stroke="#63b8ff" d="M132.72,-164.98C117.92,-156.46 94.96,-143.23 77.91,-133.41"/>
<polygon fill="#63b8ff" stroke="#63b8ff" points="70.55,-129.17 79.28,-130.04 74.02,-131.17 77.48,-133.16 77.48,-133.16 77.48,-133.16 74.02,-131.17 75.69,-136.28 70.55,-129.17 70.55,-129.17"/>
</g>
<!-- Node5 -->
<g id="node5" class="node">
<title>Node5</title>
<g id="a_node5"><a xlink:title=" ">
<polygon fill="#e0e0e0" stroke="#999999" points="183,-129 112,-129 112,-110 183,-110 183,-129"/>
<text text-anchor="middle" x="147.5" y="-117" font-family="Helvetica,sans-Serif" font-size="10.00">QJsonValue</text>
</a>
</g>
</g>
<!-- Node2&#45;&gt;Node5 -->
<g id="edge4" class="edge">
<title>Node2&#45;&gt;Node5</title>
<path fill="none" stroke="#63b8ff" d="M147.5,-164.75C147.5,-157.26 147.5,-146.28 147.5,-137.13"/>
<polygon fill="#63b8ff" stroke="#63b8ff" points="147.5,-129.09 151.1,-137.09 147.5,-133.09 147.5,-137.09 147.5,-137.09 147.5,-137.09 147.5,-133.09 143.9,-137.09 147.5,-129.09 147.5,-129.09"/>
</g>
<!-- Node6 -->
<g id="node6" class="node">
<title>Node6</title>
<g id="a_node6"><a xlink:href="shapeid_8h.html" target="_top" xlink:title="Declares the ShapeId class.">
<polygon fill="white" stroke="#666666" points="265.5,-129 201.5,-129 201.5,-110 265.5,-110 265.5,-129"/>
<text text-anchor="middle" x="233.5" y="-117" font-family="Helvetica,sans-Serif" font-size="10.00">shapeid.h</text>
</a>
</g>
</g>
<!-- Node2&#45;&gt;Node6 -->
<g id="edge5" class="edge">
<title>Node2&#45;&gt;Node6</title>
<path fill="none" stroke="#63b8ff" d="M161.32,-164.98C175.15,-156.46 196.62,-143.23 212.55,-133.41"/>
<polygon fill="#63b8ff" stroke="#63b8ff" points="219.43,-129.17 214.51,-136.43 216.03,-131.27 212.62,-133.37 212.62,-133.37 212.62,-133.37 216.03,-131.27 210.73,-130.3 219.43,-129.17 219.43,-129.17"/>
</g>
<!-- Node6&#45;&gt;Node3 -->
<g id="edge8" class="edge">
<title>Node6&#45;&gt;Node3</title>
<path fill="none" stroke="#63b8ff" d="M204.1,-109.98C172.58,-100.86 122.44,-86.33 88.08,-76.38"/>
<polygon fill="#63b8ff" stroke="#63b8ff" points="80.13,-74.08 88.82,-72.85 83.97,-75.19 87.82,-76.31 87.82,-76.31 87.82,-76.31 83.97,-75.19 86.82,-79.77 80.13,-74.08 80.13,-74.08"/>
</g>
<!-- Node7 -->
<g id="node7" class="node">
<title>Node7</title>
<g id="a_node7"><a xlink:href="qtsmithy__global_8h.html" target="_top" xlink:title="Global QtSmithy library macros.">
<polygon fill="white" stroke="#666666" points="237.5,-74 133.5,-74 133.5,-55 237.5,-55 237.5,-74"/>
<text text-anchor="middle" x="185.5" y="-62" font-family="Helvetica,sans-Serif" font-size="10.00">qtsmithy_global.h</text>
</a>
</g>
</g>
<!-- Node6&#45;&gt;Node7 -->
<g id="edge6" class="edge">
<title>Node6&#45;&gt;Node7</title>
<path fill="none" stroke="#63b8ff" d="M225.57,-109.75C218.3,-101.72 207.39,-89.67 198.79,-80.18"/>
<polygon fill="#63b8ff" stroke="#63b8ff" points="193.28,-74.09 201.32,-77.6 195.96,-77.05 198.65,-80.02 198.65,-80.02 198.65,-80.02 195.96,-77.05 195.98,-82.44 193.28,-74.09 193.28,-74.09"/>
</g>
<!-- Node9 -->
<g id="node9" class="node">
<title>Node9</title>
<g id="a_node9"><a xlink:title=" ">
<polygon fill="#e0e0e0" stroke="#999999" points="305,-74 256,-74 256,-55 305,-55 305,-74"/>
<text text-anchor="middle" x="280.5" y="-62" font-family="Helvetica,sans-Serif" font-size="10.00">QHash</text>
</a>
</g>
</g>
<!-- Node6&#45;&gt;Node9 -->
<g id="edge9" class="edge">
<title>Node6&#45;&gt;Node9</title>
<path fill="none" stroke="#63b8ff" d="M241.26,-109.75C248.38,-101.72 259.06,-89.67 267.48,-80.18"/>
<polygon fill="#63b8ff" stroke="#63b8ff" points="272.88,-74.09 270.27,-82.46 270.23,-77.08 267.58,-80.07 267.58,-80.07 267.58,-80.07 270.23,-77.08 264.88,-77.69 272.88,-74.09 272.88,-74.09"/>
</g>
<!-- Node8 -->
<g id="node8" class="node">
<title>Node8</title>
<g id="a_node8"><a xlink:title=" ">
<polygon fill="#e0e0e0" stroke="#999999" points="215,-19 156,-19 156,0 215,0 215,-19"/>
<text text-anchor="middle" x="185.5" y="-7" font-family="Helvetica,sans-Serif" font-size="10.00">QtGlobal</text>
</a>
</g>
</g>
<!-- Node7&#45;&gt;Node8 -->
<g id="edge7" class="edge">
<title>Node7&#45;&gt;Node8</title>
<path fill="none" stroke="#63b8ff" d="M185.5,-54.75C185.5,-47.26 185.5,-36.28 185.5,-27.13"/>
<polygon fill="#63b8ff" stroke="#63b8ff" points="185.5,-19.09 189.1,-27.09 185.5,-23.09 185.5,-27.09 185.5,-27.09 185.5,-27.09 185.5,-23.09 181.9,-27.09 185.5,-19.09 185.5,-19.09"/>
</g>
<!-- Node10&#45;&gt;Node2 -->
<g id="edge11" class="edge">
<title>Node10&#45;&gt;Node2</title>
<path fill="none" stroke="#63b8ff" d="M209.61,-219.98C197.92,-211.61 179.9,-198.7 166.27,-188.95"/>
<polygon fill="#63b8ff" stroke="#63b8ff" points="159.61,-184.17 168.21,-185.9 162.86,-186.5 166.11,-188.83 166.11,-188.83 166.11,-188.83 162.86,-186.5 164.01,-191.76 159.61,-184.17 159.61,-184.17"/>
</g>
<!-- Node10&#45;&gt;Node6 -->
<g id="edge12" class="edge">
<title>Node10&#45;&gt;Node6</title>
<path fill="none" stroke="#63b8ff" d="M222.48,-219.66C224.48,-201.69 229.04,-160.64 231.62,-137.38"/>
<polygon fill="#63b8ff" stroke="#63b8ff" points="232.54,-129.16 235.23,-137.51 232.1,-133.13 231.65,-137.11 231.65,-137.11 231.65,-137.11 232.1,-133.13 228.08,-136.71 232.54,-129.16 232.54,-129.16"/>
</g>
<!-- Node11 -->
<g id="node11" class="node">
<title>Node11</title>
<g id="a_node11"><a xlink:title=" ">
<polygon fill="#e0e0e0" stroke="#999999" points="362,-184 255,-184 255,-165 362,-165 362,-184"/>
<text text-anchor="middle" x="308.5" y="-172" font-family="Helvetica,sans-Serif" font-size="10.00">QLoggingCategory</text>
</a>
</g>
</g>
<!-- Node10&#45;&gt;Node11 -->
<g id="edge13" class="edge">
<title>Node10&#45;&gt;Node11</title>
<path fill="none" stroke="#63b8ff" d="M235.48,-219.98C249.47,-211.46 271.19,-198.23 287.3,-188.41"/>
<polygon fill="#63b8ff" stroke="#63b8ff" points="294.27,-184.17 289.31,-191.41 290.85,-186.25 287.44,-188.33 287.44,-188.33 287.44,-188.33 290.85,-186.25 285.56,-185.26 294.27,-184.17 294.27,-184.17"/>
</g>
</g>
</svg>
