<?xml version="1.0" encoding="UTF-8" standalone="no"?>
<!DOCTYPE svg PUBLIC "-//W3C//DTD SVG 1.1//EN"
 "http://www.w3.org/Graphics/SVG/1.1/DTD/svg11.dtd">
<!-- Generated by graphviz version 2.43.0 (0)
 -->
<!-- Title: shapeid.cpp Pages: 1 -->
<svg width="409pt" height="247pt"
 viewBox="0.00 0.00 408.50 247.00" xmlns="http://www.w3.org/2000/svg" xmlns:xlink="http://www.w3.org/1999/xlink">
<g id="graph0" class="graph" transform="scale(1 1) rotate(0) translate(4 243)">
<title>shapeid.cpp</title>
<!-- Node1 -->
<g id="Node000001" class="node">
<title>Node1</title>
<g id="a_Node000001"><a xlink:title="Defines the ShapeId and ShapeIdPrivate classes.">
<polygon fill="#999999" stroke="#666666" points="267.5,-239 192.5,-239 192.5,-220 267.5,-220 267.5,-239"/>
<text text-anchor="middle" x="230" y="-227" font-family="Helvetica,sans-Serif" font-size="10.00">shapeid.cpp</text>
</a>
</g>
</g>
<!-- Node2 -->
<g id="Node000002" class="node">
<title>Node2</title>
<g id="a_Node000002"><a xlink:href="shapeid_8h.html" target="_top" xlink:title="Declares the ShapeId class.">
<polygon fill="white" stroke="#666666" points="207,-129 97,-129 97,-110 207,-110 207,-129"/>
<text text-anchor="middle" x="152" y="-117" font-family="Helvetica,sans-Serif" font-size="10.00">qtsmithy/shapeid.h</text>
</a>
</g>
</g>
<!-- Node1&#45;&gt;Node2 -->
<g id="edge1_Node000001_Node000002" class="edge">
<title>Node1&#45;&gt;Node2</title>
<g id="a_edge1_Node000001_Node000002"><a xlink:title=" ">
<path fill="none" stroke="#63b8ff" d="M219.13,-219.83C209.11,-211.43 194.27,-197.96 184,-184 173.09,-169.18 164.04,-150.09 158.38,-136.73"/>
<polygon fill="#63b8ff" stroke="#63b8ff" points="155.3,-129.23 161.67,-135.27 156.82,-132.94 158.34,-136.64 158.34,-136.64 158.34,-136.64 156.82,-132.94 155.01,-138 155.3,-129.23 155.3,-129.23"/>
</a>
</g>
</g>
<!-- Node7 -->
<g id="Node000007" class="node">
<title>Node7</title>
<g id="a_Node000007"><a xlink:href="shapeid__p_8h.html" target="_top" xlink:title="Declares the ShapeIdPrivate class.">
<polygon fill="white" stroke="#666666" points="267.5,-184 192.5,-184 192.5,-165 267.5,-165 267.5,-184"/>
<text text-anchor="middle" x="230" y="-172" font-family="Helvetica,sans-Serif" font-size="10.00">shapeid_p.h</text>
</a>
</g>
</g>
<!-- Node1&#45;&gt;Node7 -->
<g id="edge6_Node000001_Node000007" class="edge">
<title>Node1&#45;&gt;Node7</title>
<g id="a_edge6_Node000001_Node000007"><a xlink:title=" ">
<path fill="none" stroke="#63b8ff" d="M230,-219.75C230,-212.26 230,-201.28 230,-192.13"/>
<polygon fill="#63b8ff" stroke="#63b8ff" points="230,-184.09 233.6,-192.09 230,-188.09 230,-192.09 230,-192.09 230,-192.09 230,-188.09 226.4,-192.09 230,-184.09 230,-184.09"/>
</a>
</g>
</g>
<!-- Node9 -->
<g id="Node000009" class="node">
<title>Node9</title>
<g id="a_Node000009"><a xlink:title=" ">
<polygon fill="#e0e0e0" stroke="#999999" points="400.5,-184 285.5,-184 285.5,-165 400.5,-165 400.5,-184"/>
<text text-anchor="middle" x="343" y="-172" font-family="Helvetica,sans-Serif" font-size="10.00">QRegularExpression</text>
</a>
</g>
</g>
<!-- Node1&#45;&gt;Node9 -->
<g id="edge10_Node000001_Node000009" class="edge">
<title>Node1&#45;&gt;Node9</title>
<g id="a_edge10_Node000001_Node000009"><a xlink:title=" ">
<path fill="none" stroke="#63b8ff" d="M248.16,-219.98C266.82,-211.23 296.07,-197.51 317.15,-187.62"/>
<polygon fill="#63b8ff" stroke="#63b8ff" points="324.51,-184.17 318.8,-190.83 320.89,-185.87 317.27,-187.57 317.27,-187.57 317.27,-187.57 320.89,-185.87 315.74,-184.31 324.51,-184.17 324.51,-184.17"/>
</a>
</g>
</g>
<!-- Node3 -->
<g id="Node000003" class="node">
<title>Node3</title>
<g id="a_Node000003"><a xlink:href="qtsmithy__global_8h.html" target="_top" xlink:title="Global QtSmithy library macros.">
<polygon fill="white" stroke="#666666" points="104,-74 0,-74 0,-55 104,-55 104,-74"/>
<text text-anchor="middle" x="52" y="-62" font-family="Helvetica,sans-Serif" font-size="10.00">qtsmithy_global.h</text>
</a>
</g>
</g>
<!-- Node2&#45;&gt;Node3 -->
<g id="edge2_Node000002_Node000003" class="edge">
<title>Node2&#45;&gt;Node3</title>
<g id="a_edge2_Node000002_Node000003"><a xlink:title=" ">
<path fill="none" stroke="#63b8ff" d="M135.93,-109.98C119.7,-101.38 94.44,-87.99 75.86,-78.15"/>
<polygon fill="#63b8ff" stroke="#63b8ff" points="68.36,-74.17 77.11,-74.74 71.89,-76.04 75.43,-77.92 75.43,-77.92 75.43,-77.92 71.89,-76.04 73.74,-81.1 68.36,-74.17 68.36,-74.17"/>
</a>
</g>
</g>
<!-- Node5 -->
<g id="Node000005" class="node">
<title>Node5</title>
<g id="a_Node000005"><a xlink:title=" ">
<polygon fill="#e0e0e0" stroke="#999999" points="290.5,-74 189.5,-74 189.5,-55 290.5,-55 290.5,-74"/>
<text text-anchor="middle" x="240" y="-62" font-family="Helvetica,sans-Serif" font-size="10.00">QCoreApplication</text>
</a>
</g>
</g>
<!-- Node2&#45;&gt;Node5 -->
<g id="edge4_Node000002_Node000005" class="edge">
<title>Node2&#45;&gt;Node5</title>
<g id="a_edge4_Node000002_Node000005"><a xlink:title=" ">
<path fill="none" stroke="#63b8ff" d="M166.14,-109.98C180.3,-101.46 202.26,-88.23 218.56,-78.41"/>
<polygon fill="#63b8ff" stroke="#63b8ff" points="225.6,-74.17 220.61,-81.38 222.18,-76.23 218.75,-78.3 218.75,-78.3 218.75,-78.3 222.18,-76.23 216.89,-75.21 225.6,-74.17 225.6,-74.17"/>
</a>
</g>
</g>
<!-- Node6 -->
<g id="Node000006" class="node">
<title>Node6</title>
<g id="a_Node000006"><a xlink:title=" ">
<polygon fill="#e0e0e0" stroke="#999999" points="171.5,-74 122.5,-74 122.5,-55 171.5,-55 171.5,-74"/>
<text text-anchor="middle" x="147" y="-62" font-family="Helvetica,sans-Serif" font-size="10.00">QHash</text>
</a>
</g>
</g>
<!-- Node2&#45;&gt;Node6 -->
<g id="edge5_Node000002_Node000006" class="edge">
<title>Node2&#45;&gt;Node6</title>
<g id="a_edge5_Node000002_Node000006"><a xlink:title=" ">
<path fill="none" stroke="#63b8ff" d="M151.17,-109.75C150.47,-102.26 149.43,-91.28 148.57,-82.13"/>
<polygon fill="#63b8ff" stroke="#63b8ff" points="147.81,-74.09 152.15,-81.72 148.19,-78.07 148.56,-82.05 148.56,-82.05 148.56,-82.05 148.19,-78.07 144.98,-82.39 147.81,-74.09 147.81,-74.09"/>
</a>
</g>
</g>
<!-- Node4 -->
<g id="Node000004" class="node">
<title>Node4</title>
<g id="a_Node000004"><a xlink:title=" ">
<polygon fill="#e0e0e0" stroke="#999999" points="81.5,-19 22.5,-19 22.5,0 81.5,0 81.5,-19"/>
<text text-anchor="middle" x="52" y="-7" font-family="Helvetica,sans-Serif" font-size="10.00">QtGlobal</text>
</a>
</g>
</g>
<!-- Node3&#45;&gt;Node4 -->
<g id="edge3_Node000003_Node000004" class="edge">
<title>Node3&#45;&gt;Node4</title>
<g id="a_edge3_Node000003_Node000004"><a xlink:title=" ">
<path fill="none" stroke="#63b8ff" d="M52,-54.75C52,-47.26 52,-36.28 52,-27.13"/>
<polygon fill="#63b8ff" stroke="#63b8ff" points="52,-19.09 55.6,-27.09 52,-23.09 52,-27.09 52,-27.09 52,-27.09 52,-23.09 48.4,-27.09 52,-19.09 52,-19.09"/>
</a>
</g>
</g>
<!-- Node7&#45;&gt;Node2 -->
<g id="edge7_Node000007_Node000002" class="edge">
<title>Node7&#45;&gt;Node2</title>
<g id="a_edge7_Node000007_Node000002"><a xlink:title=" ">
<path fill="none" stroke="#63b8ff" d="M217.47,-164.98C205.03,-156.54 185.8,-143.47 171.39,-133.68"/>
<polygon fill="#63b8ff" stroke="#63b8ff" points="164.76,-129.17 173.4,-130.69 168.07,-131.42 171.38,-133.67 171.38,-133.67 171.38,-133.67 168.07,-131.42 169.35,-136.64 164.76,-129.17 164.76,-129.17"/>
</a>
</g>
</g>
<!-- Node7&#45;&gt;Node5 -->
<g id="edge8_Node000007_Node000005" class="edge">
<title>Node7&#45;&gt;Node5</title>
<g id="a_edge8_Node000007_Node000005"><a xlink:title=" ">
<path fill="none" stroke="#63b8ff" d="M230.82,-164.66C232.48,-146.69 236.28,-105.64 238.44,-82.38"/>
<polygon fill="#63b8ff" stroke="#63b8ff" points="239.2,-74.16 242.05,-82.46 238.83,-78.14 238.46,-82.12 238.46,-82.12 238.46,-82.12 238.83,-78.14 234.88,-81.79 239.2,-74.16 239.2,-74.16"/>
</a>
</g>
</g>
<!-- Node8 -->
<g id="Node000008" class="node">
<title>Node8</title>
<g id="a_Node000008"><a xlink:title=" ">
<polygon fill="#e0e0e0" stroke="#999999" points="370.5,-129 263.5,-129 263.5,-110 370.5,-110 370.5,-129"/>
<text text-anchor="middle" x="317" y="-117" font-family="Helvetica,sans-Serif" font-size="10.00">QLoggingCategory</text>
</a>
</g>
</g>
<!-- Node7&#45;&gt;Node8 -->
<g id="edge9_Node000007_Node000008" class="edge">
<title>Node7&#45;&gt;Node8</title>
<g id="a_edge9_Node000007_Node000008"><a xlink:title=" ">
<path fill="none" stroke="#63b8ff" d="M243.98,-164.98C257.97,-156.46 279.69,-143.23 295.8,-133.41"/>
<polygon fill="#63b8ff" stroke="#63b8ff" points="302.77,-129.17 297.81,-136.41 299.35,-131.25 295.94,-133.33 295.94,-133.33 295.94,-133.33 299.35,-131.25 294.06,-130.26 302.77,-129.17 302.77,-129.17"/>
</a>
</g>
</g>
</g>
</svg>
