<?xml version="1.0" encoding="UTF-8" standalone="no"?>
<!DOCTYPE svg PUBLIC "-//W3C//DTD SVG 1.1//EN"
 "http://www.w3.org/Graphics/SVG/1.1/DTD/svg11.dtd">
<!-- Generated by graphviz version 2.43.0 (0)
 -->
<!-- Title: Shape::ShapeReference Pages: 1 -->
<svg width="309pt" height="115pt"
 viewBox="0.00 0.00 309.00 115.00" xmlns="http://www.w3.org/2000/svg" xmlns:xlink="http://www.w3.org/1999/xlink">
<g id="graph0" class="graph" transform="scale(1 1) rotate(0) translate(4 111)">
<title>Shape::ShapeReference</title>
<!-- Node1 -->
<g id="node1" class="node">
<title>Node1</title>
<g id="a_node1"><a xlink:title=" ">
<polygon fill="#999999" stroke="#666666" points="132,-19 0,-19 0,0 132,0 132,-19"/>
<text text-anchor="middle" x="66" y="-7" font-family="Helvetica,sans-Serif" font-size="10.00">Shape::ShapeReference</text>
</a>
</g>
</g>
<!-- Node2 -->
<g id="node2" class="node">
<title>Node2</title>
<g id="a_node2"><a xlink:href="classShapeId.html" target="_top" xlink:title="The ShapeId class provides a Qt representation of a Smithy Shape ID.">
<polygon fill="white" stroke="#666666" points="161,-107 105,-107 105,-88 161,-88 161,-107"/>
<text text-anchor="middle" x="133" y="-95" font-family="Helvetica,sans-Serif" font-size="10.00">ShapeId</text>
</a>
</g>
</g>
<!-- Node2&#45;&gt;Node1 -->
<g id="edge1" class="edge">
<title>Node2&#45;&gt;Node1</title>
<path fill="none" stroke="#9a32cd" stroke-dasharray="5,2" d="M104.81,-83.9C98.65,-80.13 92.6,-75.5 88,-70 75.28,-54.79 69.57,-31.55 67.3,-19.1"/>
<polygon fill="#9a32cd" stroke="#9a32cd" points="112.03,-87.94 103.29,-87.17 108.54,-85.99 105.05,-84.03 105.05,-84.03 105.05,-84.03 108.54,-85.99 106.8,-80.89 112.03,-87.94 112.03,-87.94"/>
<text text-anchor="middle" x="104.5" y="-51" font-family="Helvetica,sans-Serif" font-size="10.00"> target</text>
</g>
<!-- Node3 -->
<g id="node3" class="node">
<title>Node3</title>
<g id="a_node3"><a xlink:href="classShapeIdPrivate.html" target="_top" xlink:title="The ShapeIdPrivate class provides private implementation for ShapeId.">
<polygon fill="white" stroke="#666666" points="240,-19 150,-19 150,0 240,0 240,-19"/>
<text text-anchor="middle" x="195" y="-7" font-family="Helvetica,sans-Serif" font-size="10.00">ShapeIdPrivate</text>
</a>
</g>
</g>
<!-- Node2&#45;&gt;Node3 -->
<g id="edge3" class="edge">
<title>Node2&#45;&gt;Node3</title>
<path fill="none" stroke="#9a32cd" stroke-dasharray="5,2" d="M127.17,-79.99C123.74,-67.18 121.56,-49.55 130,-37 135.57,-28.71 144.25,-23.01 153.46,-19.09"/>
<polygon fill="#9a32cd" stroke="#9a32cd" points="129.62,-87.97 123.83,-81.38 128.44,-84.14 127.27,-80.32 127.27,-80.32 127.27,-80.32 128.44,-84.14 130.71,-79.26 129.62,-87.97 129.62,-87.97"/>
<text text-anchor="middle" x="144" y="-51" font-family="Helvetica,sans-Serif" font-size="10.00"> q_ptr</text>
</g>
<!-- Node3&#45;&gt;Node2 -->
<g id="edge2" class="edge">
<title>Node3&#45;&gt;Node2</title>
<path fill="none" stroke="#9a32cd" stroke-dasharray="5,2" d="M186.33,-26.77C177.59,-43.05 164.99,-66.22 162,-70 156.76,-76.64 149.79,-83.06 144,-87.92"/>
<polygon fill="#9a32cd" stroke="#9a32cd" points="190.24,-19.45 189.64,-28.2 188.36,-22.97 186.47,-26.5 186.47,-26.5 186.47,-26.5 188.36,-22.97 183.3,-24.8 190.24,-19.45 190.24,-19.45"/>
<text text-anchor="middle" x="195" y="-51" font-family="Helvetica,sans-Serif" font-size="10.00"> d_ptr</text>
</g>
<!-- Node4 -->
<g id="node4" class="node">
<title>Node4</title>
<g id="a_node4"><a target="_parent" xlink:href="https://doc.qt.io/qt-5/qstring.html" xlink:title=" ">
<polygon fill="white" stroke="#bfbfbf" points="261.5,-107 208.5,-107 208.5,-88 261.5,-88 261.5,-107"/>
<text text-anchor="middle" x="235" y="-95" font-family="Helvetica,sans-Serif" font-size="10.00">QString</text>
</a>
</g>
</g>
<!-- Node4&#45;&gt;Node3 -->
<g id="edge4" class="edge">
<title>Node4&#45;&gt;Node3</title>
<path fill="none" stroke="#9a32cd" stroke-dasharray="5,2" d="M230.02,-79.79C226.11,-67.6 220.14,-50.87 213,-37 209.74,-30.67 205.24,-24.05 201.56,-19"/>
<polygon fill="#9a32cd" stroke="#9a32cd" points="232.5,-87.75 226.69,-81.18 231.31,-83.93 230.12,-80.11 230.12,-80.11 230.12,-80.11 231.31,-83.93 233.56,-79.04 232.5,-87.75 232.5,-87.75"/>
<text text-anchor="middle" x="264" y="-62" font-family="Helvetica,sans-Serif" font-size="10.00"> memberName</text>
<text text-anchor="middle" x="264" y="-51" font-family="Helvetica,sans-Serif" font-size="10.00">nameSpace</text>
<text text-anchor="middle" x="264" y="-40" font-family="Helvetica,sans-Serif" font-size="10.00">shapeName</text>
</g>
</g>
</svg>
