<?xml version="1.0" encoding="UTF-8" standalone="no"?>
<!DOCTYPE svg PUBLIC "-//W3C//DTD SVG 1.1//EN"
 "http://www.w3.org/Graphics/SVG/1.1/DTD/svg11.dtd">
<!-- Generated by graphviz version 2.43.0 (0)
 -->
<!-- Title: Shape::Member Pages: 1 -->
<svg width="438pt" height="181pt"
 viewBox="0.00 0.00 437.50 181.00" xmlns="http://www.w3.org/2000/svg" xmlns:xlink="http://www.w3.org/1999/xlink">
<g id="graph0" class="graph" transform="scale(1 1) rotate(0) translate(4 177)">
<title>Shape::Member</title>
<!-- Node1 -->
<g id="node1" class="node">
<title>Node1</title>
<g id="a_node1"><a xlink:title=" ">
<polygon fill="#999999" stroke="#666666" points="251.5,-19 158.5,-19 158.5,0 251.5,0 251.5,-19"/>
<text text-anchor="middle" x="205" y="-7" font-family="Helvetica,sans-Serif" font-size="10.00">Shape::Member</text>
</a>
</g>
</g>
<!-- Node2 -->
<g id="node2" class="node">
<title>Node2</title>
<g id="a_node2"><a xlink:href="structShape_1_1ShapeReference.html" target="_top" xlink:title=" ">
<polygon fill="white" stroke="#bfbfbf" points="132,-85 0,-85 0,-66 132,-66 132,-85"/>
<text text-anchor="middle" x="66" y="-73" font-family="Helvetica,sans-Serif" font-size="10.00">Shape::ShapeReference</text>
</a>
</g>
</g>
<!-- Node2&#45;&gt;Node1 -->
<g id="edge1" class="edge">
<title>Node2&#45;&gt;Node1</title>
<path fill="none" stroke="#63b8ff" d="M92.04,-62.51C119.4,-49.91 161.78,-30.4 186.11,-19.2"/>
<polygon fill="#63b8ff" stroke="#63b8ff" points="84.75,-65.87 90.51,-59.25 88.38,-64.2 92.01,-62.52 92.01,-62.52 92.01,-62.52 88.38,-64.2 93.52,-65.79 84.75,-65.87 84.75,-65.87"/>
</g>
<!-- Node3 -->
<g id="node3" class="node">
<title>Node3</title>
<g id="a_node3"><a xlink:href="classShapeId.html" target="_top" xlink:title="The ShapeId class provides a Qt representation of a Smithy Shape ID.">
<polygon fill="white" stroke="#666666" points="166,-173 110,-173 110,-154 166,-154 166,-173"/>
<text text-anchor="middle" x="138" y="-161" font-family="Helvetica,sans-Serif" font-size="10.00">ShapeId</text>
</a>
</g>
</g>
<!-- Node3&#45;&gt;Node2 -->
<g id="edge2" class="edge">
<title>Node3&#45;&gt;Node2</title>
<path fill="none" stroke="#9a32cd" stroke-dasharray="5,2" d="M110.43,-149.87C104.14,-146.06 97.88,-141.43 93,-136 79.35,-120.82 71.55,-97.57 68.12,-85.1"/>
<polygon fill="#9a32cd" stroke="#9a32cd" points="117.75,-153.95 109.01,-153.19 114.25,-152 110.76,-150.05 110.76,-150.05 110.76,-150.05 114.25,-152 112.51,-146.91 117.75,-153.95 117.75,-153.95"/>
<text text-anchor="middle" x="109.5" y="-117" font-family="Helvetica,sans-Serif" font-size="10.00"> target</text>
</g>
<!-- Node4 -->
<g id="node4" class="node">
<title>Node4</title>
<g id="a_node4"><a xlink:href="classShapeIdPrivate.html" target="_top" xlink:title="The ShapeIdPrivate class provides private implementation for ShapeId.">
<polygon fill="white" stroke="#666666" points="240,-85 150,-85 150,-66 240,-66 240,-85"/>
<text text-anchor="middle" x="195" y="-73" font-family="Helvetica,sans-Serif" font-size="10.00">ShapeIdPrivate</text>
</a>
</g>
</g>
<!-- Node3&#45;&gt;Node4 -->
<g id="edge4" class="edge">
<title>Node3&#45;&gt;Node4</title>
<path fill="none" stroke="#9a32cd" stroke-dasharray="5,2" d="M132.15,-145.63C128.85,-132.9 126.83,-115.53 135,-103 140.41,-94.7 149.07,-88.98 158.15,-85.05"/>
<polygon fill="#9a32cd" stroke="#9a32cd" points="134.54,-153.59 128.79,-146.96 133.39,-149.76 132.24,-145.93 132.24,-145.93 132.24,-145.93 133.39,-149.76 135.69,-144.89 134.54,-153.59 134.54,-153.59"/>
<text text-anchor="middle" x="149" y="-117" font-family="Helvetica,sans-Serif" font-size="10.00"> q_ptr</text>
</g>
<!-- Node4&#45;&gt;Node3 -->
<g id="edge3" class="edge">
<title>Node4&#45;&gt;Node3</title>
<path fill="none" stroke="#9a32cd" stroke-dasharray="5,2" d="M189.27,-92.94C184.46,-105.44 176.8,-122.71 167,-136 162.06,-142.7 155.25,-149.03 149.46,-153.82"/>
<polygon fill="#9a32cd" stroke="#9a32cd" points="192.14,-85.15 192.76,-93.9 190.76,-88.9 189.38,-92.66 189.38,-92.66 189.38,-92.66 190.76,-88.9 186,-91.41 192.14,-85.15 192.14,-85.15"/>
<text text-anchor="middle" x="200" y="-117" font-family="Helvetica,sans-Serif" font-size="10.00"> d_ptr</text>
</g>
<!-- Node5 -->
<g id="node5" class="node">
<title>Node5</title>
<g id="a_node5"><a target="_parent" xlink:href="https://doc.qt.io/qt-5/qstring.html" xlink:title=" ">
<polygon fill="white" stroke="#bfbfbf" points="266.5,-173 213.5,-173 213.5,-154 266.5,-154 266.5,-173"/>
<text text-anchor="middle" x="240" y="-161" font-family="Helvetica,sans-Serif" font-size="10.00">QString</text>
</a>
</g>
</g>
<!-- Node5&#45;&gt;Node4 -->
<g id="edge5" class="edge">
<title>Node5&#45;&gt;Node4</title>
<path fill="none" stroke="#9a32cd" stroke-dasharray="5,2" d="M235.63,-145.94C231.97,-133.59 226.04,-116.57 218,-103 214.15,-96.5 208.64,-90.08 203.97,-85.19"/>
<polygon fill="#9a32cd" stroke="#9a32cd" points="237.9,-153.99 232.27,-147.27 236.82,-150.14 235.73,-146.29 235.73,-146.29 235.73,-146.29 236.82,-150.14 239.2,-145.32 237.9,-153.99 237.9,-153.99"/>
<text text-anchor="middle" x="270" y="-128" font-family="Helvetica,sans-Serif" font-size="10.00"> memberName</text>
<text text-anchor="middle" x="270" y="-117" font-family="Helvetica,sans-Serif" font-size="10.00">nameSpace</text>
<text text-anchor="middle" x="270" y="-106" font-family="Helvetica,sans-Serif" font-size="10.00">shapeName</text>
</g>
<!-- Node6 -->
<g id="node6" class="node">
<title>Node6</title>
<g id="a_node6"><a target="_parent" xlink:href="https://doc.qt.io/qt-5/qhash.html" xlink:title=" ">
<polygon fill="white" stroke="#bfbfbf" points="429.5,-85 258.5,-85 258.5,-66 429.5,-66 429.5,-85"/>
<text text-anchor="middle" x="344" y="-73" font-family="Helvetica,sans-Serif" font-size="10.00">QHash&lt; ShapeId, QJsonValue &gt;</text>
</a>
</g>
</g>
<!-- Node6&#45;&gt;Node1 -->
<g id="edge6" class="edge">
<title>Node6&#45;&gt;Node1</title>
<path fill="none" stroke="#9a32cd" stroke-dasharray="5,2" d="M317.96,-62.51C290.6,-49.91 248.22,-30.4 223.89,-19.2"/>
<polygon fill="#9a32cd" stroke="#9a32cd" points="325.25,-65.87 316.48,-65.79 321.62,-64.2 317.99,-62.52 317.99,-62.52 317.99,-62.52 321.62,-64.2 319.49,-59.25 325.25,-65.87 325.25,-65.87"/>
<text text-anchor="middle" x="297.5" y="-40" font-family="Helvetica,sans-Serif" font-size="10.00"> traits</text>
</g>
</g>
</svg>
