<?xml version="1.0" encoding="UTF-8" standalone="no"?>
<!DOCTYPE svg PUBLIC "-//W3C//DTD SVG 1.1//EN"
 "http://www.w3.org/Graphics/SVG/1.1/DTD/svg11.dtd">
<!-- Generated by graphviz version 2.43.0 (0)
 -->
<!-- Title: Shape::ShapeReference Pages: 1 -->
<svg width="248pt" height="93pt"
 viewBox="0.00 0.00 248.00 93.00" xmlns="http://www.w3.org/2000/svg" xmlns:xlink="http://www.w3.org/1999/xlink">
<g id="graph0" class="graph" transform="scale(1 1) rotate(0) translate(4 89)">
<title>Shape::ShapeReference</title>
<!-- Node1 -->
<g id="Node000001" class="node">
<title>Node1</title>
<g id="a_Node000001"><a xlink:title=" ">
<polygon fill="#999999" stroke="#666666" points="132,-19 0,-19 0,0 132,0 132,-19"/>
<text text-anchor="middle" x="66" y="-7" font-family="Helvetica,sans-Serif" font-size="10.00">Shape::ShapeReference</text>
</a>
</g>
</g>
<!-- Node2 -->
<g id="Node000002" class="node">
<title>Node2</title>
<g id="a_Node000002"><a xlink:href="classShapeId.html" target="_top" xlink:title="The ShapeId class provides a Qt representation of a Smithy Shape ID.">
<polygon fill="white" stroke="#666666" points="172,-85 116,-85 116,-66 172,-66 172,-85"/>
<text text-anchor="middle" x="144" y="-73" font-family="Helvetica,sans-Serif" font-size="10.00">ShapeId</text>
</a>
</g>
</g>
<!-- Node2&#45;&gt;Node1 -->
<g id="edge1_Node000001_Node000002" class="edge">
<title>Node2&#45;&gt;Node1</title>
<g id="a_edge1_Node000001_Node000002"><a xlink:title=" ">
<path fill="none" stroke="#9a32cd" stroke-dasharray="5,2" d="M120.22,-61.9C113.41,-57.84 106.17,-53.07 100,-48 89.41,-39.29 79.1,-27.27 72.66,-19.21"/>
<polygon fill="#9a32cd" stroke="#9a32cd" points="127.36,-66 118.63,-65.14 123.89,-64.01 120.42,-62.02 120.42,-62.02 120.42,-62.02 123.89,-64.01 122.22,-58.89 127.36,-66 127.36,-66"/>
</a>
</g>
<text text-anchor="middle" x="116.5" y="-40" font-family="Helvetica,sans-Serif" font-size="10.00" fill="grey"> target</text>
</g>
<!-- Node3 -->
<g id="Node000003" class="node">
<title>Node3</title>
<g id="a_Node000003"><a xlink:href="classShapeIdPrivate.html" target="_top" xlink:title="The ShapeIdPrivate class provides private implementation for ShapeId.">
<polygon fill="white" stroke="#666666" points="240,-19 150,-19 150,0 240,0 240,-19"/>
<text text-anchor="middle" x="195" y="-7" font-family="Helvetica,sans-Serif" font-size="10.00">ShapeIdPrivate</text>
</a>
</g>
</g>
<!-- Node2&#45;&gt;Node3 -->
<g id="edge3_Node000003_Node000002" class="edge">
<title>Node2&#45;&gt;Node3</title>
<g id="a_edge3_Node000003_Node000002"><a xlink:title=" ">
<path fill="none" stroke="#9a32cd" stroke-dasharray="5,2" d="M138.47,-57.71C137.22,-50.83 137.21,-43.08 141,-37 146.14,-28.76 154.67,-23.01 163.45,-19.02"/>
<polygon fill="#9a32cd" stroke="#9a32cd" points="140.52,-65.76 135.05,-58.9 139.53,-61.89 138.54,-58.01 138.54,-58.01 138.54,-58.01 139.53,-61.89 142.03,-57.12 140.52,-65.76 140.52,-65.76"/>
</a>
</g>
<text text-anchor="middle" x="155" y="-40" font-family="Helvetica,sans-Serif" font-size="10.00" fill="grey"> q_ptr</text>
</g>
<!-- Node3&#45;&gt;Node2 -->
<g id="edge2_Node000002_Node000003" class="edge">
<title>Node3&#45;&gt;Node2</title>
<g id="a_edge2_Node000002_Node000003"><a xlink:title=" ">
<path fill="none" stroke="#9a32cd" stroke-dasharray="5,2" d="M187.01,-26.49C183.21,-33.41 178.32,-41.42 173,-48 167.68,-54.57 160.71,-61 154.94,-65.87"/>
<polygon fill="#9a32cd" stroke="#9a32cd" points="190.94,-19.01 190.41,-27.76 189.08,-22.55 187.22,-26.09 187.22,-26.09 187.22,-26.09 189.08,-22.55 184.03,-24.41 190.94,-19.01 190.94,-19.01"/>
</a>
</g>
<text text-anchor="middle" x="194" y="-40" font-family="Helvetica,sans-Serif" font-size="10.00" fill="grey"> d_ptr</text>
</g>
</g>
</svg>
