<?xml version="1.0" encoding="UTF-8" standalone="no"?>
<!DOCTYPE svg PUBLIC "-//W3C//DTD SVG 1.1//EN"
 "http://www.w3.org/Graphics/SVG/1.1/DTD/svg11.dtd">
<!-- Generated by graphviz version 2.43.0 (0)
 -->
<!-- Title: Shape::Member Pages: 1 -->
<svg width="248pt" height="149pt"
 viewBox="0.00 0.00 248.00 149.00" xmlns="http://www.w3.org/2000/svg" xmlns:xlink="http://www.w3.org/1999/xlink">
<g id="graph0" class="graph" transform="scale(1 1) rotate(0) translate(4 145)">
<title>Shape::Member</title>
<!-- Node1 -->
<g id="Node000001" class="node">
<title>Node1</title>
<g id="a_Node000001"><a xlink:title=" ">
<polygon fill="#999999" stroke="#666666" points="112.5,-19 19.5,-19 19.5,0 112.5,0 112.5,-19"/>
<text text-anchor="middle" x="66" y="-7" font-family="Helvetica,sans-Serif" font-size="10.00">Shape::Member</text>
</a>
</g>
</g>
<!-- Node2 -->
<g id="Node000002" class="node">
<title>Node2</title>
<g id="a_Node000002"><a xlink:href="structShape_1_1ShapeReference.html" target="_top" xlink:title=" ">
<polygon fill="white" stroke="#bfbfbf" points="132,-75 0,-75 0,-56 132,-56 132,-75"/>
<text text-anchor="middle" x="66" y="-63" font-family="Helvetica,sans-Serif" font-size="10.00">Shape::ShapeReference</text>
</a>
</g>
</g>
<!-- Node2&#45;&gt;Node1 -->
<g id="edge1_Node000001_Node000002" class="edge">
<title>Node2&#45;&gt;Node1</title>
<g id="a_edge1_Node000001_Node000002"><a xlink:title=" ">
<path fill="none" stroke="#63b8ff" d="M66,-47.36C66,-38 66,-26.83 66,-19.25"/>
<polygon fill="#63b8ff" stroke="#63b8ff" points="66,-55.58 62.4,-47.58 66,-51.58 66,-47.58 66,-47.58 66,-47.58 66,-51.58 69.6,-47.58 66,-55.58 66,-55.58"/>
</a>
</g>
</g>
<!-- Node3 -->
<g id="Node000003" class="node">
<title>Node3</title>
<g id="a_Node000003"><a xlink:href="classShapeId.html" target="_top" xlink:title="The ShapeId class provides a Qt representation of a Smithy Shape ID.">
<polygon fill="white" stroke="#666666" points="172,-141 116,-141 116,-122 172,-122 172,-141"/>
<text text-anchor="middle" x="144" y="-129" font-family="Helvetica,sans-Serif" font-size="10.00">ShapeId</text>
</a>
</g>
</g>
<!-- Node3&#45;&gt;Node2 -->
<g id="edge2_Node000002_Node000003" class="edge">
<title>Node3&#45;&gt;Node2</title>
<g id="a_edge2_Node000002_Node000003"><a xlink:title=" ">
<path fill="none" stroke="#9a32cd" stroke-dasharray="5,2" d="M120.22,-117.9C113.41,-113.84 106.17,-109.07 100,-104 89.41,-95.29 79.1,-83.27 72.66,-75.21"/>
<polygon fill="#9a32cd" stroke="#9a32cd" points="127.36,-122 118.63,-121.14 123.89,-120.01 120.42,-118.02 120.42,-118.02 120.42,-118.02 123.89,-120.01 122.22,-114.89 127.36,-122 127.36,-122"/>
</a>
</g>
<text text-anchor="middle" x="116.5" y="-96" font-family="Helvetica,sans-Serif" font-size="10.00" fill="grey"> target</text>
</g>
<!-- Node4 -->
<g id="Node000004" class="node">
<title>Node4</title>
<g id="a_Node000004"><a xlink:href="classShapeIdPrivate.html" target="_top" xlink:title="The ShapeIdPrivate class provides private implementation for ShapeId.">
<polygon fill="white" stroke="#666666" points="240,-75 150,-75 150,-56 240,-56 240,-75"/>
<text text-anchor="middle" x="195" y="-63" font-family="Helvetica,sans-Serif" font-size="10.00">ShapeIdPrivate</text>
</a>
</g>
</g>
<!-- Node3&#45;&gt;Node4 -->
<g id="edge4_Node000004_Node000003" class="edge">
<title>Node3&#45;&gt;Node4</title>
<g id="a_edge4_Node000004_Node000003"><a xlink:title=" ">
<path fill="none" stroke="#9a32cd" stroke-dasharray="5,2" d="M138.47,-113.71C137.22,-106.83 137.21,-99.08 141,-93 146.14,-84.76 154.67,-79.01 163.45,-75.02"/>
<polygon fill="#9a32cd" stroke="#9a32cd" points="140.52,-121.76 135.05,-114.9 139.53,-117.89 138.54,-114.01 138.54,-114.01 138.54,-114.01 139.53,-117.89 142.03,-113.12 140.52,-121.76 140.52,-121.76"/>
</a>
</g>
<text text-anchor="middle" x="155" y="-96" font-family="Helvetica,sans-Serif" font-size="10.00" fill="grey"> q_ptr</text>
</g>
<!-- Node4&#45;&gt;Node3 -->
<g id="edge3_Node000003_Node000004" class="edge">
<title>Node4&#45;&gt;Node3</title>
<g id="a_edge3_Node000003_Node000004"><a xlink:title=" ">
<path fill="none" stroke="#9a32cd" stroke-dasharray="5,2" d="M187.01,-82.49C183.21,-89.41 178.32,-97.42 173,-104 167.68,-110.57 160.71,-117 154.94,-121.87"/>
<polygon fill="#9a32cd" stroke="#9a32cd" points="190.94,-75.01 190.41,-83.76 189.08,-78.55 187.22,-82.09 187.22,-82.09 187.22,-82.09 189.08,-78.55 184.03,-80.41 190.94,-75.01 190.94,-75.01"/>
</a>
</g>
<text text-anchor="middle" x="194" y="-96" font-family="Helvetica,sans-Serif" font-size="10.00" fill="grey"> d_ptr</text>
</g>
</g>
</svg>
